<svg width="24" height="24" viewBox="0 0 24 24" fill="none" xmlns="http://www.w3.org/2000/svg">
<path d="M18.5074 2.00146L14.7396 5.76924C13.9586 6.55029 12.6899 6.47538 11.6325 6.15592C10.566 5.8337 9.47943 6.02477 8.81099 6.69322C7.69292 7.81129 7.73629 9.66741 8.90787 10.839C10.0794 12.0106 11.2948 10.787 12.25 11.7441C13.2037 12.6996 11.9789 13.91 13.1505 15.0816C14.3221 16.2532 16.1782 16.2966 17.2963 15.1785C17.9603 14.5144 18.1756 13.46 17.8783 12.4164C17.5757 11.3541 17.4941 10.0858 18.2751 9.30477L22.0429 5.537M5.53553 21.9895L8.08577 19.4241C8.86613 18.6391 10.1425 18.7182 11.2127 19.0011C12.3021 19.2891 13.4424 19.0388 14.2319 18.2978C14.9111 17.6604 15.168 16.8219 15.0656 16.0015M2 18.454L4.56883 15.9156C5.35784 15.136 5.27873 13.8567 4.9975 12.7837C4.71346 11.7 4.97213 10.5728 5.74665 9.81247C6.39752 9.17348 7.20782 8.91092 8.00005 8.98658" stroke="#005F73" stroke-width="1.5" stroke-linecap="round" stroke-linejoin="round"/>
</svg>
