<svg width="340" height="72" viewBox="0 0 340 72" fill="none" xmlns="http://www.w3.org/2000/svg">
<path d="M197.396 -32.8352C187.217 -36.2317 174.609 -38.4658 163.045 -36.4769C154.069 -34.933 147.296 -30.9099 142.18 -26.3782C136.42 -21.2789 132.364 -15.562 128.065 -9.99048C125.432 -6.58035 122.563 -3.30191 118.719 -0.314072C114.587 2.9008 109.667 5.75241 104.18 8.1227C98.5044 10.5702 92.2532 12.4819 85.6236 13.8032C78.0631 15.3108 70.2075 16.1463 62.4502 17.1997C49.698 18.9388 36.1739 21.6406 27.8263 28.0795C24.1331 30.9265 21.9384 34.3775 21.84 37.9965C21.734 41.7109 23.7169 45.3708 26.8425 48.5493C33.9338 55.7737 46.2621 59.9058 59.1278 62.5531C72.9017 65.3865 87.4399 66.7351 100.926 70.0953C107.662 71.7754 114.11 73.9777 119.453 76.9882C124.751 79.9761 128.845 83.6133 132.485 87.3639C139.349 94.4476 144.874 102.171 154.765 107.997C159.329 110.685 164.786 112.86 170.946 113.968C177.137 115.076 183.751 115.076 190.04 114.273C219.593 110.49 232.747 92.6222 244.659 77.9509C251.319 69.7502 258.705 61.7675 269.929 55.4785C280.766 49.4075 293.7 44.7759 303.803 38.219C312.779 32.3977 319.53 24.9418 317.948 16.782C316.442 9.02632 308.397 2.16519 298.528 -2.68891C287.161 -8.27861 273.1 -11.548 259.447 -14.554C252.121 -16.166 244.704 -17.669 237.59 -19.6033C230.567 -21.515 223.816 -23.7536 217.149 -26.0694C213.963 -27.1774 210.799 -28.3035 207.621 -29.4205C204.245 -30.6057 200.741 -31.6319 197.328 -32.7716C197.063 -32.8624 196.821 -32.6172 197.086 -32.5264C200.492 -31.3912 203.731 -30.0698 207.091 -28.8847C210.27 -27.7677 213.433 -26.6415 216.619 -25.5336C223.135 -23.2677 229.735 -21.0791 236.584 -19.1992C250.168 -15.4667 264.684 -13.1282 278.231 -9.33208C290.862 -5.79481 302.744 -1.04514 310.327 6.13838C313.808 9.43499 316.291 13.1584 316.972 17.0544C317.683 21.1184 316.321 25.1824 313.43 28.865C307.375 36.5798 296.091 42.0832 285.11 47.2007C279.283 49.9161 273.395 52.6088 268.074 55.6829C262.928 58.6525 258.501 62.0082 254.656 65.6136C246.816 72.9651 241.329 81.084 234.601 88.7988C228.032 96.3274 219.995 103.865 208.173 108.796C197.253 113.351 182.866 115.794 169.917 113.124C157.172 110.495 148.749 103.534 142.331 96.7952C135.52 89.6389 129.859 81.7878 119.468 76.1664C109.206 70.6175 95.7118 67.9929 82.6191 65.8951C68.7847 63.6792 54.3372 61.8629 42.1375 57.1314C31.3757 52.9584 22.4303 45.7386 22.8541 37.7513C23.2779 29.6596 34.1759 23.97 45.7097 20.9186C59.5516 17.2542 75.0813 16.9318 89.1579 13.6806C100.949 10.9561 111.4 6.26098 119.173 0.294392C126.075 -5.00016 129.965 -11.3073 134.816 -17.3012C139.001 -22.4731 143.746 -27.7767 150.928 -31.6909C158.345 -35.7367 167.866 -37.2624 177.734 -36.436C184.538 -35.8684 191.009 -34.4154 197.025 -32.4492C197.434 -32.3266 197.797 -32.699 197.396 -32.8352Z" fill="url(#paint0_linear_1976_68289)"/>
<g opacity="0.4248">
<path opacity="0.4248" d="M201.333 -45.9855C189.693 -49.8678 175.269 -52.4198 162.047 -50.1403C151.792 -48.3739 144.05 -43.7741 138.208 -38.5976C131.616 -32.7582 126.977 -26.2149 122.05 -19.8396C119.03 -15.93 115.746 -12.1793 111.349 -8.75556C106.619 -5.07298 100.98 -1.79909 94.6838 0.911762C88.1828 3.71796 81.0158 5.90663 73.4251 7.41871C64.7748 9.14421 55.7764 10.0978 46.899 11.3102C32.3154 13.299 16.8387 16.3868 7.28779 23.7519C3.07238 27.0031 0.574924 30.9445 0.453835 35.0766C0.332746 39.3223 2.60317 43.4998 6.16772 47.1324C14.2731 55.3921 28.3724 60.119 43.0847 63.1432C58.8566 66.3853 75.4987 67.9292 90.9376 71.7753C98.6646 73.7005 106.059 76.2252 112.181 79.6762C118.251 83.0954 122.943 87.2639 127.113 91.564C134.961 99.6693 141.288 108.51 152.61 115.176C157.824 118.25 164.053 120.734 171.098 122.001C178.175 123.268 185.728 123.268 192.917 122.351C226.724 118.023 241.769 97.576 255.399 80.7887C263.028 71.3984 271.481 62.2532 284.347 55.0515C296.759 48.1041 311.562 42.8005 323.126 35.2946C333.388 28.6378 341.107 20.1147 339.291 10.7834C337.566 1.91982 328.363 -5.92666 317.079 -11.4755C304.077 -17.8689 287.987 -21.6105 272.374 -25.0479C263.981 -26.896 255.482 -28.617 247.332 -30.8329C239.294 -33.0215 231.56 -35.5825 223.931 -38.2389C220.283 -39.5058 216.658 -40.7953 213.026 -42.0758C209.166 -43.4335 205.17 -44.6278 201.265 -45.931C201 -46.0218 200.758 -45.7766 201.023 -45.6858C204.92 -44.3871 208.651 -42.8932 212.503 -41.54C216.136 -40.2595 219.769 -38.9745 223.409 -37.7031C230.863 -35.1103 238.416 -32.6038 246.257 -30.4514C261.809 -26.1786 278.429 -23.504 293.936 -19.1585C308.406 -15.1036 322.013 -9.66372 330.709 -1.43582C334.697 2.34211 337.543 6.61498 338.322 11.0831C339.14 15.7465 337.573 20.4008 334.251 24.6283C327.311 33.4647 314.392 39.7673 301.822 45.6294C295.147 48.7398 288.411 51.8185 282.319 55.3376C276.431 58.7341 271.368 62.5756 266.971 66.6987C257.995 75.1173 251.714 84.4123 244.009 93.2441C236.479 101.872 227.276 110.504 213.729 116.152C201.212 121.37 184.713 124.171 169.872 121.106C155.266 118.091 145.602 110.118 138.246 102.389C130.45 94.2022 123.972 85.216 112.083 78.7817C100.345 72.4337 84.9058 69.4322 69.9286 67.0347C54.0887 64.4964 37.5373 62.4122 23.5743 56.9995C11.2383 52.2181 0.983601 43.9357 1.46039 34.7769C1.94474 25.5001 14.4396 18.9705 27.661 15.4695C43.5085 11.2738 61.301 10.906 77.421 7.17805C90.8997 4.06307 102.857 -1.31322 111.75 -8.13348C119.651 -14.1954 124.101 -21.4107 129.648 -28.2673C134.446 -34.193 139.88 -40.2641 148.107 -44.7504C156.621 -49.3911 167.534 -51.1393 178.863 -50.1857C186.658 -49.5318 194.068 -47.8699 200.954 -45.6131C201.378 -45.4814 201.742 -45.8538 201.333 -45.9855Z" fill="url(#paint1_linear_1976_68289)"/>
</g>
<path d="M256.112 56.6956C265.027 50.9152 276.303 46.7649 286.036 41.5339C294.52 36.975 302.315 31.1809 304.222 24.2562C306.054 17.5722 301.725 10.9971 294.739 5.86149C286.959 0.140102 276.129 -3.57425 264.974 -6.46219C252.782 -9.61804 239.909 -11.7658 227.951 -15.2532C216.039 -18.7314 205.096 -23.2358 193.357 -26.8912C184.465 -29.6611 173.544 -31.3548 163.653 -29.6429C156.039 -28.3261 150.136 -25.0385 145.611 -21.2515C140.442 -16.9287 136.801 -12.0156 133.116 -7.20689C131.004 -4.44609 128.938 -1.6762 126.161 0.875717C123.05 3.72733 119.289 6.32011 115.028 8.57234C110.661 10.8836 105.757 12.8271 100.505 14.3301C94.4581 16.0601 87.9571 17.0727 81.441 17.94C69.5894 19.5156 57.2383 20.7871 47.2863 25.2643C43.1012 27.1487 39.4836 29.5462 37.3722 32.4478C35.2607 35.3448 34.8369 38.5551 35.9039 41.6429C38.1971 48.2633 46.2949 53.5942 55.8534 56.8818C77.4526 64.315 106.136 63.0391 124.692 73.8915C133.698 79.1589 138.58 86.2516 144.861 92.6495C150.439 98.3346 157.621 103.988 168.118 106.544C178.827 109.155 191.027 107.793 200.888 104.515C211.551 100.973 219.361 95.1243 225.491 88.9306C227.035 87.3686 228.488 85.7793 229.881 84.1673C231.319 82.51 232.424 80.7754 233.779 79.0953C233.907 78.9318 233.506 78.7865 233.37 78.95C232.03 80.6164 230.411 82.2103 228.988 83.8495C227.558 85.4978 226.074 87.1325 224.485 88.7308C221.359 91.8776 217.855 94.8972 213.708 97.5899C205.709 102.785 194.924 106.69 182.974 107.244C177.23 107.511 171.433 106.926 166.264 105.373C161.216 103.856 156.963 101.563 153.36 98.9794C145.77 93.535 141.229 86.9145 135.053 80.9161C131.981 77.9328 128.469 75.0812 124.117 72.7246C119.743 70.3543 114.619 68.5379 109.246 67.1167C98.2042 64.1924 86.2845 62.8756 74.766 60.8186C63.2928 58.7707 51.6304 55.8419 43.9337 50.1024C36.9635 44.9032 33.6562 37.6561 39.2869 31.5215C44.751 25.5685 55.8534 22.399 66.3276 20.669C78.5803 18.6438 91.4233 17.8764 102.851 14.321C112.493 11.3241 120.825 6.82414 126.819 1.39336C131.935 -3.23824 135.091 -8.58729 139.238 -13.5367C142.901 -17.9004 147.132 -22.3231 153.368 -25.5562C159.831 -28.9073 167.997 -30.1742 176.42 -29.5385C188.991 -28.594 199.616 -24.0941 210.295 -20.3525C215.918 -18.3818 221.586 -16.4474 227.452 -14.74C233.105 -13.0917 238.932 -11.7522 244.835 -10.4672C266.798 -5.66756 293.589 -0.123251 301.853 14.5435C303.677 17.7765 304.214 21.2366 303.147 24.5968C302.058 28.0205 299.462 31.1991 296.124 34.0325C288.995 40.099 278.824 44.3946 269.258 48.9535C264.437 51.2512 259.745 53.6487 255.605 56.3868C255.294 56.5957 255.802 56.8999 256.112 56.6956Z" fill="url(#paint2_linear_1976_68289)"/>
<defs>
<linearGradient id="paint0_linear_1976_68289" x1="38.632" y1="69.1525" x2="266.862" y2="-69.297" gradientUnits="userSpaceOnUse">
<stop offset="0.0277" stop-color="white"/>
<stop offset="1" stop-color="white"/>
</linearGradient>
<linearGradient id="paint1_linear_1976_68289" x1="0.452927" y1="36.0018" x2="339.562" y2="36.0018" gradientUnits="userSpaceOnUse">
<stop stop-color="white"/>
<stop offset="1" stop-color="white"/>
</linearGradient>
<linearGradient id="paint2_linear_1976_68289" x1="105.432" y1="-9.95078" x2="181.836" y2="117.39" gradientUnits="userSpaceOnUse">
<stop stop-color="white"/>
<stop offset="1" stop-color="white"/>
</linearGradient>
</defs>
</svg>
