<svg width="59" height="59" viewBox="0 0 59 59" fill="none" xmlns="http://www.w3.org/2000/svg">
<path opacity="0.4" d="M39.8005 4.9165H19.1997C10.2513 4.9165 4.91675 10.2511 4.91675 19.1994V39.7757C4.91675 48.7486 10.2513 54.0832 19.1997 54.0832H39.7759C48.7242 54.0832 54.0588 48.7486 54.0588 39.8003V19.1994C54.0834 10.2511 48.7488 4.9165 39.8005 4.9165Z" fill="url(#paint0_linear_1764_56163)"/>
<path d="M52.3626 30.0654H43.8076C41.3984 30.0654 39.2597 31.3929 38.178 33.5563L36.113 37.6371C35.6213 38.6204 34.638 39.235 33.5563 39.235H25.493C24.7309 39.235 23.6492 39.0629 22.9363 37.6371L20.8713 33.5808C19.7897 31.4421 17.6263 30.09 15.2417 30.09H6.63758C5.67883 30.09 4.91675 30.8521 4.91675 31.8108V39.825C4.91675 48.7488 10.2759 54.0833 19.2242 54.0833H39.8251C48.2572 54.0833 53.4442 49.4617 54.0834 41.2508V31.7863C54.0834 30.8521 53.3213 30.0654 52.3626 30.0654Z" fill="#005F73"/>
<path d="M33.3104 19.1751H25.6896C24.7308 19.1751 23.9688 18.413 23.9688 17.4542C23.9688 16.4955 24.7308 15.7334 25.6896 15.7334H33.3104C34.2692 15.7334 35.0312 16.4955 35.0312 17.4542C35.0312 18.413 34.2446 19.1751 33.3104 19.1751Z" fill="#005F73"/>
<path d="M35.2279 26.034H23.7721C22.8134 26.034 22.0513 25.2719 22.0513 24.3131C22.0513 23.3544 22.8134 22.5923 23.7721 22.5923H35.2034C36.1621 22.5923 36.9242 23.3544 36.9242 24.3131C36.9242 25.2719 36.1621 26.034 35.2279 26.034Z" fill="#005F73"/>
<defs>
<linearGradient id="paint0_linear_1764_56163" x1="6.35896" y1="51.3517" x2="75.6236" y2="49.5586" gradientUnits="userSpaceOnUse">
<stop stop-color="#005F73"/>
<stop offset="1" stop-color="#6CC24A"/>
</linearGradient>
</defs>
</svg>
