<svg width="239" height="200" viewBox="0 0 239 200" fill="none" xmlns="http://www.w3.org/2000/svg">
<path fill-rule="evenodd" clip-rule="evenodd" d="M197.894 65C201.589 65 204.586 68.134 204.586 72C204.586 75.866 201.589 79 197.894 79H159.654C163.349 79 166.346 82.134 166.346 86C166.346 89.866 163.349 93 159.654 93H180.686C184.381 93 187.378 96.134 187.378 100C187.378 103.866 184.381 107 180.686 107H170.959C166.299 107 162.522 110.134 162.522 114C162.522 116.577 164.434 118.911 168.258 121C171.953 121 174.95 124.134 174.95 128C174.95 131.866 171.953 135 168.258 135H88.9096C85.2137 135 82.2176 131.866 82.2176 128C82.2176 124.134 85.2137 121 88.9096 121H51.6256C47.9297 121 44.9336 117.866 44.9336 114C44.9336 110.134 47.9297 107 51.6256 107H89.8656C93.5615 107 96.5576 103.866 96.5576 100C96.5576 96.134 93.5615 93 89.8656 93H65.9656C62.2697 93 59.2736 89.866 59.2736 86C59.2736 82.134 62.2697 79 65.9656 79H104.206C100.51 79 97.5136 75.866 97.5136 72C97.5136 68.134 100.51 65 104.206 65H197.894ZM197.894 93C201.589 93 204.586 96.134 204.586 100C204.586 103.866 201.589 107 197.894 107C194.198 107 191.202 103.866 191.202 100C191.202 96.134 194.198 93 197.894 93Z" fill="#FDFDFD"/>
<path opacity="0.4" d="M160.312 80.9387H149.836C141.245 80.9387 134.249 73.9425 134.249 65.3512V54.875C134.249 52.8812 132.618 51.25 130.624 51.25H115.254C104.089 51.25 95.0625 58.5 95.0625 71.4412V103.559C95.0625 116.5 104.089 123.75 115.254 123.75H143.746C154.911 123.75 163.938 116.5 163.938 103.559V84.5637C163.938 82.57 162.306 80.9387 160.312 80.9387Z" fill="url(#paint0_linear_763_84197)"/>
<path d="M143.275 52.0113C141.789 50.525 139.215 51.54 139.215 53.6063V66.2575C139.215 71.55 143.71 75.9363 149.184 75.9363C152.627 75.9725 157.412 75.9725 161.509 75.9725C163.575 75.9725 164.662 73.5438 163.212 72.0938C157.992 66.8375 148.64 57.3763 143.275 52.0113Z" fill="url(#paint1_linear_763_84197)"/>
<path d="M134.938 93.8438H113.188C111.701 93.8438 110.469 92.6112 110.469 91.125C110.469 89.6387 111.701 88.4062 113.188 88.4062H134.938C136.424 88.4062 137.656 89.6387 137.656 91.125C137.656 92.6112 136.424 93.8438 134.938 93.8438Z" fill="url(#paint2_linear_763_84197)"/>
<path d="M127.688 108.344H113.188C111.701 108.344 110.469 107.111 110.469 105.625C110.469 104.139 111.701 102.906 113.188 102.906H127.688C129.174 102.906 130.406 104.139 130.406 105.625C130.406 107.111 129.174 108.344 127.688 108.344Z" fill="url(#paint3_linear_763_84197)"/>
<defs>
<linearGradient id="paint0_linear_763_84197" x1="97.0838" y1="119.722" x2="194.168" y2="117.333" gradientUnits="userSpaceOnUse">
<stop stop-color="#005F73"/>
<stop offset="1" stop-color="#6CC24A"/>
</linearGradient>
<linearGradient id="paint1_linear_763_84197" x1="139.939" y1="74.6021" x2="174.698" y2="73.702" gradientUnits="userSpaceOnUse">
<stop stop-color="#005F73"/>
<stop offset="1" stop-color="#6CC24A"/>
</linearGradient>
<linearGradient id="paint2_linear_763_84197" x1="111.267" y1="93.5417" x2="148.98" y2="88.6576" gradientUnits="userSpaceOnUse">
<stop stop-color="#005F73"/>
<stop offset="1" stop-color="#6CC24A"/>
</linearGradient>
<linearGradient id="paint3_linear_763_84197" x1="111.054" y1="108.042" x2="138.923" y2="105.395" gradientUnits="userSpaceOnUse">
<stop stop-color="#005F73"/>
<stop offset="1" stop-color="#6CC24A"/>
</linearGradient>
</defs>
</svg>
