<svg width="198" height="68" viewBox="0 0 198 68" fill="none" xmlns="http://www.w3.org/2000/svg">
<path d="M194.531 64.5272H161.589V64.0891C161.589 29.2393 133.225 0.876194 98.3757 0.876194C63.5259 0.876194 35.1628 29.2393 35.1628 64.0891V64.5272H3.53516V63.651H34.3007C34.541 28.5186 63.1868 0 98.3898 0C133.593 0 162.239 28.5045 162.479 63.651H194.545V64.5272H194.531Z" fill="#005F73"/>
<path d="M3.6903 67.3677C1.88139 67.3677 0.425781 65.898 0.425781 64.1032C0.425781 62.3084 1.89552 60.8387 3.6903 60.8387C5.48507 60.8387 6.95481 62.3084 6.95481 64.1032C6.95481 65.898 5.48507 67.3677 3.6903 67.3677Z" fill="#005F73"/>
<path d="M194.374 67.3677C196.183 67.3677 197.638 65.898 197.638 64.1032C197.638 62.3084 196.169 60.8387 194.374 60.8387C192.579 60.8387 191.109 62.3084 191.109 64.1032C191.109 65.898 192.579 67.3677 194.374 67.3677Z" fill="#005F73"/>
</svg>
