<svg width="633" height="655" viewBox="0 0 633 655" fill="none" xmlns="http://www.w3.org/2000/svg">
<path opacity="0.1" d="M632.031 322.691C635.303 240.646 606.058 158.624 557.495 100.841C508.932 43.0587 442.318 9.0962 374.253 1.64966C306.187 -5.79688 237.018 12.3665 175.478 48.0525C126.143 76.778 80.833 117.104 48.2798 170.092C15.7267 223.079 -3.35306 289.148 0.488615 354.841C6.92205 463.777 67.4882 561.135 148.531 610.476C229.574 659.818 325.634 664.436 414.618 642.406C450.406 633.567 485.845 620.309 517.24 597.925C591.978 544.518 627.877 427.163 632.031 322.691Z" fill="#03DAC5"/>
<mask id="mask0_10515_169183" style="mask-type:alpha" maskUnits="userSpaceOnUse" x="0" y="0" width="633" height="655">
<path d="M632.031 322.691C635.303 240.646 606.058 158.624 557.495 100.841C508.932 43.0587 442.318 9.0962 374.253 1.64966C306.187 -5.79688 237.018 12.3665 175.478 48.0525C126.143 76.778 80.833 117.104 48.2798 170.092C15.7267 223.079 -3.35306 289.148 0.488615 354.841C6.92205 463.777 67.4882 561.135 148.531 610.476C229.574 659.818 325.634 664.436 414.618 642.406C450.406 633.567 485.845 620.309 517.24 597.925C591.978 544.518 627.877 427.163 632.031 322.691Z" fill="#D8DBFF"/>
</mask>
<g mask="url(#mask0_10515_169183)">
<path d="M151.602 605.29C143.756 601.858 138.226 596.461 135.182 589.27C132.26 582.369 132.381 575.712 135.558 569.503C147.467 546.206 201.154 533.885 269.114 518.302C342.907 501.373 426.524 482.2 465.149 445.175C493.793 417.72 501.906 382.066 485.328 356.454L494.145 350.754C503.24 364.821 506.381 382.321 502.997 400.026C499.42 418.775 488.833 437.014 472.401 452.755C431.678 491.78 346.558 511.305 271.455 528.537C211.341 542.326 154.574 555.35 144.896 574.281C143.15 577.688 143.138 581.157 144.836 585.183C146.824 589.888 150.414 593.332 155.799 595.685L151.59 605.302L151.602 605.29Z" fill="black"/>
<path d="M467.344 274.525C473.185 233.223 456.804 196.755 430.755 193.071C404.706 189.387 378.854 219.882 373.012 261.184C367.171 302.485 383.552 338.953 409.601 342.637C435.65 346.322 461.503 315.827 467.344 274.525Z" fill="#F9C953"/>
<path d="M430.869 193.122L407.646 189.838L386.503 339.333L409.726 342.617L430.869 193.122Z" fill="#F9C953"/>
<path d="M446.239 271.531C452.081 230.229 435.699 193.761 409.65 190.077C383.601 186.393 357.749 216.888 351.908 258.189C346.066 299.491 362.448 335.959 388.497 339.643C414.546 343.327 440.398 312.833 446.239 271.531Z" fill="#4848A0"/>
<path d="M387.522 324.256L269.065 319.102C217.537 260.334 236.782 216.131 272.218 212.856C287.037 190.445 302.657 193.453 311.631 202.827C328.597 195.187 335.57 209.715 335.57 209.715C349.625 202.099 358.551 214.651 358.551 214.651C385.909 207.266 401.032 239.342 373.443 267.283C392.482 285.801 392.021 313.378 387.498 324.268L387.522 324.256Z" fill="#E19A80"/>
<path d="M410.515 267.126C409.436 272.656 404.585 276.512 399.14 276.512C398.4 276.512 397.66 276.44 396.921 276.294L312.795 259.971C308.866 256.976 304.379 254.393 299.334 252.61C299.334 252.61 304.912 252.198 310.952 250.767C310.394 256.163 321.866 266.896 333.12 257.715C336.867 263.888 347.333 264.822 354.682 258.152C355.034 259.486 355.931 260.638 356.938 261.62C360.479 265.089 365.621 266.835 370.556 266.326C378.415 265.574 385.121 250.391 385.121 250.391L401.335 253.532C407.629 254.756 411.728 260.832 410.515 267.126Z" fill="black"/>
<path d="M269.077 319.104L226.535 655H399.14C399.14 655 404.937 387.064 387.522 324.258L269.065 319.104H269.077Z" fill="#E19A80"/>
<path d="M275.783 214.059C291.464 216.217 305.07 220.971 314.129 226.477C320.666 230.442 324.85 234.808 325.735 238.858C325.868 239.453 325.929 240.047 325.917 240.641C325.783 246.038 318.046 249.094 310.964 250.767C304.925 252.198 299.346 252.611 299.346 252.611C304.403 254.393 308.878 256.976 312.807 259.972C329.47 272.645 336.443 292.885 336.443 292.885" stroke="black" stroke-width="0.92" stroke-miterlimit="10"/>
<path d="M311.667 205.594C314.505 212.215 315.354 219.37 314.129 226.465" stroke="black" stroke-width="0.92" stroke-miterlimit="10"/>
<path d="M335.885 211.428C337.025 214.29 340.25 228.988 339.329 241.491C338.832 248.306 337.085 254.467 333.12 257.705C321.878 266.885 310.406 256.152 310.951 250.756" stroke="black" stroke-width="0.92" stroke-miterlimit="10"/>
<path d="M358.684 216.459C362.734 228.962 363.171 238.615 361.521 245.794C360.248 251.324 357.738 255.399 354.694 258.152C347.345 264.81 336.867 263.876 333.132 257.715" stroke="black" stroke-width="0.92" stroke-miterlimit="10"/>
<path d="M371.866 266.133C371.43 266.206 371.006 266.278 370.569 266.315C365.633 266.836 360.491 265.078 356.95 261.61C355.944 260.627 355.046 259.487 354.695 258.141C354.682 258.093 354.658 258.044 354.658 258.008" stroke="black" stroke-width="0.92" stroke-miterlimit="10"/>
<path d="M279.712 238.103C285.553 196.801 269.172 160.333 243.123 156.649C217.074 152.965 191.222 183.46 185.38 224.762C179.539 266.063 195.921 302.532 221.97 306.216C248.019 309.9 273.871 279.405 279.712 238.103Z" fill="#4848A0"/>
<path d="M243.216 156.702L219.993 153.418L198.85 302.913L222.073 306.197L243.216 156.702Z" fill="#4848A0"/>
<path d="M258.607 235.125C264.448 193.823 248.066 157.355 222.017 153.671C195.968 149.986 170.116 180.481 164.275 221.783C158.434 263.085 174.815 299.553 200.864 303.237C226.913 306.921 252.765 276.426 258.607 235.125Z" fill="#F9C953"/>
<path d="M222.97 230.116C221.551 240.157 215.257 247.579 208.927 246.681C202.597 245.784 198.607 236.919 200.026 226.866C201.445 216.825 207.739 209.403 214.069 210.3C220.399 211.197 224.389 220.062 222.97 230.116Z" fill="black"/>
<path d="M278.172 420.159C261.304 424.125 246.315 422.924 232.769 416.594L237.207 407.086C273.322 423.967 316.336 393.88 357.932 364.787C395.502 338.519 430.986 313.695 460.637 324.598C474.886 329.836 486.48 338.871 494.156 350.744L485.34 356.443C478.912 346.499 469.114 338.895 457.023 334.445C432.526 325.446 399.213 348.731 363.96 373.385C342.652 388.289 320.629 403.691 298.788 413.162C291.609 416.278 284.745 418.607 278.172 420.147V420.159Z" fill="black"/>
<path d="M210.236 348.004C210.297 347.871 210.381 347.749 210.454 347.616C211.582 345.894 213.898 345.421 215.608 346.561C216.045 346.852 226.389 353.752 234.478 365.455C245.477 381.366 246.957 398.392 238.759 414.703C230.561 431.014 216.021 440 196.702 440.667C182.477 441.164 170.774 436.993 170.277 436.811C168.349 436.107 167.342 433.973 168.046 432.045C168.737 430.117 170.883 429.11 172.812 429.813C172.921 429.85 183.835 433.718 196.653 433.221C213.219 432.578 225.14 425.229 232.113 411.356C239.11 397.434 237.849 383.415 228.354 369.687C221.077 359.149 211.606 352.831 211.509 352.77C209.921 351.715 209.399 349.653 210.236 347.992V348.004Z" fill="black"/>
<path d="M91.9366 376.357C91.6819 376.866 91.4999 377.424 91.4272 378.018L89.4505 393.407C88.4803 400.975 90.3843 408.566 94.8107 414.788C99.2371 421.009 105.798 425.277 113.268 426.83L174.255 439.478L176.353 429.352L115.366 416.704C105.264 414.606 98.3882 404.952 99.6979 394.729L101.675 379.34C102.038 376.502 100.037 373.919 97.1997 373.555C94.9683 373.264 92.8825 374.453 91.9244 376.369L91.9366 376.357Z" fill="white"/>
<path d="M93.2948 362.591L89.0868 377.811C88.4683 380.054 89.7901 382.407 92.0457 383.026L99.322 385.039C101.565 385.657 103.918 384.335 104.537 382.08L108.745 366.86C109.921 362.616 107.411 358.177 103.154 357.001C98.9097 355.825 94.4712 358.335 93.2948 362.591Z" fill="#F9C953"/>
<path d="M120.412 319.674C120.666 319.165 121.006 318.692 121.442 318.28L132.612 307.499C138.105 302.199 145.333 299.192 152.961 299.034C160.589 298.876 167.938 301.581 173.65 306.65L220.218 348.015L213.354 355.752L166.786 314.387C159.073 307.535 147.225 307.778 139.803 314.945L128.634 325.726C126.584 327.714 123.31 327.654 121.321 325.592C119.757 323.967 119.466 321.59 120.424 319.674H120.412Z" fill="white"/>
<path d="M109.497 329.837L120.217 316.06C121.454 314.472 123.771 314.18 125.359 315.417L132.223 320.753C133.812 321.99 134.103 324.307 132.866 325.895L122.146 339.672C119.805 342.679 115.427 343.225 112.42 340.884L110.71 339.55C107.702 337.21 107.157 332.832 109.497 329.824V329.837Z" fill="#F9C953"/>
<path d="M385.558 577.167C324.364 554.307 274.219 575.554 233.932 592.629C202.451 605.968 175.274 617.477 151.311 605.156L155.143 595.369C174.728 605.447 199.589 595.782 229.834 582.963C271.842 565.161 324.122 543.017 389.232 567.332L385.558 577.167Z" fill="black"/>
<path d="M423.442 569.141C426.547 582.347 418.361 595.566 405.155 598.67C391.948 601.775 378.73 593.589 375.625 580.382C372.521 567.176 380.707 553.957 393.913 550.853C407.119 547.748 420.338 555.934 423.442 569.141Z" fill="white"/>
<path d="M418.227 570.364C420.653 580.684 414.25 591.017 403.929 593.442C393.609 595.868 383.265 589.464 380.839 579.144C378.414 568.824 384.817 558.48 395.137 556.054C405.457 553.629 415.79 560.032 418.227 570.352V570.364Z" fill="#8C8CE0"/>
<path d="M412.735 571.651C414.445 578.939 409.921 586.24 402.633 587.949C395.344 589.659 388.044 585.136 386.334 577.848C384.624 570.559 389.147 563.259 396.436 561.549C403.724 559.839 411.025 564.362 412.735 571.651Z" fill="#4848A0"/>
<path d="M504.472 535.522C520.534 522.511 523.018 498.949 510.019 482.887C497.007 466.825 473.445 464.341 457.383 477.34L504.484 535.522H504.472Z" fill="#F27405"/>
<path d="M500.462 489.846L495.467 493.891L496.385 495.025L501.38 490.98L500.462 489.846Z" fill="black"/>
<path d="M472.802 486.826L471.668 487.744L475.712 492.74L476.846 491.822L472.802 486.826Z" fill="black"/>
<path d="M494.395 513.4L493.261 514.318L497.305 519.314L498.439 518.396L494.395 513.4Z" fill="black"/>
<path d="M486.414 482.702L485.741 489.094L487.192 489.247L487.865 482.855L486.414 482.702Z" fill="black"/>
<path d="M498.883 503.717L498.73 505.168L505.123 505.84L505.275 504.389L498.883 503.717Z" fill="black"/>
<path d="M487.843 495.031C489.121 495.802 490.291 496.815 491.291 498.045C493.534 500.819 494.559 504.292 494.186 507.837C493.812 511.382 492.075 514.566 489.314 516.808L488.397 515.675C490.869 513.673 492.401 510.839 492.739 507.68C493.076 504.521 492.16 501.422 490.158 498.962C486.034 493.873 478.534 493.077 473.445 497.201L472.528 496.068C477.014 492.438 483.176 492.197 487.855 495.031H487.843Z" fill="white"/>
<path d="M65.3701 220.926C58.147 240.292 67.9868 261.853 87.365 269.076C106.743 276.299 128.292 266.459 135.515 247.081L65.3822 220.926H65.3701Z" fill="#F27405"/>
<path d="M93.0346 251.849L90.79 257.871L92.1573 258.381L94.4018 252.358L93.0346 251.849Z" fill="black"/>
<path d="M111.894 243.168L111.384 244.535L117.406 246.781L117.916 245.414L111.894 243.168Z" fill="black"/>
<path d="M79.6465 231.1L79.1367 232.467L85.1589 234.712L85.6687 233.345L79.6465 231.1Z" fill="black"/>
<path d="M105.046 251.284L103.719 251.891L106.389 257.737L107.716 257.131L105.046 251.284Z" fill="black"/>
<path d="M85.583 243.975L79.7373 246.646L80.3437 247.974L86.1894 245.302L85.583 243.975Z" fill="black"/>
<path d="M100.268 247.347C98.7727 247.335 97.2534 247.058 95.7702 246.503C92.4299 245.261 89.7771 242.789 88.2939 239.545C86.8107 236.302 86.678 232.684 87.9321 229.344L89.2947 229.85C88.1853 232.829 88.3059 236.048 89.6203 238.942C90.9347 241.824 93.2982 244.031 96.2767 245.14C102.415 247.432 109.276 244.296 111.567 238.159L112.93 238.665C110.916 244.079 105.731 247.408 100.256 247.347H100.268Z" fill="white"/>
<path d="M556.094 352.907C554.503 350.447 549.064 352.22 544.747 355.97C544.711 355.849 543.746 345.37 541.069 335.446C538.199 325.51 533.629 316.14 521.908 317.925C510.175 319.673 509.247 332.154 512.43 343.345C515.421 354.668 522.499 364.688 522.451 364.544C516.663 364.399 511.333 366.545 512.068 370.115C513.503 377.567 536.825 385.007 536.789 384.621C531 384.561 526.599 386.671 526.683 390.12C526.756 394.762 555.733 404.011 555.697 403.372C555.142 403.023 561.919 374.926 559.628 373.37C557.144 371.706 552.718 373.756 549.233 378.314C548.956 378.037 558.928 357.453 556.106 352.919L556.094 352.907Z" fill="#9CB83C"/>
<path d="M571.855 421.664C562.087 414.248 551.536 399.935 542.142 381.377C533.653 364.603 527.117 346.226 524.682 332.226L526.117 331.973C528.528 345.84 535.004 364.073 543.445 380.713C552.742 399.079 563.149 413.211 572.747 420.495L571.867 421.652L571.855 421.664Z" fill="black"/>
<path d="M130.873 467.827C128.449 468.852 129.136 473.94 131.777 478.354C131.668 478.366 122.239 477.558 113.038 478.354C103.789 479.306 94.7692 481.863 94.4798 492.523C94.1542 503.182 105.055 505.992 115.462 504.955C125.953 504.111 135.949 499.432 135.817 499.456C134.768 504.557 135.817 509.61 139.097 509.525C145.922 509.441 156.208 489.99 155.858 489.954C154.881 495.067 156.051 499.3 159.114 499.77C163.226 500.445 176.032 476.268 175.453 476.195C175.055 476.629 151.276 466.163 149.527 467.947C147.658 469.889 148.768 474.121 152.253 477.932C151.963 478.125 135.334 466.03 130.873 467.815V467.827Z" fill="#9CB83C"/>
<path d="M107.563 492.33V491.016C120.237 491.088 137.384 488.254 153.459 483.443C171.197 478.137 185.353 471.167 193.324 463.848L194.217 464.812C186.101 472.277 171.763 479.331 153.844 484.697C137.65 489.545 120.346 492.402 107.563 492.33Z" fill="black"/>
<path d="M147.803 181.026C148.02 179.181 144.656 177.83 141.026 177.914C141.05 177.842 144.837 172.343 147.562 166.423C150.191 160.417 151.771 153.99 145.331 150.107C138.904 146.2 133.393 151.904 130.403 158.645C127.268 165.374 126.652 173.127 126.689 173.043C123.927 170.631 120.454 169.51 119.369 171.548C117.042 175.768 125.398 188.852 125.531 188.647C122.734 186.271 119.731 185.511 118.368 187.224C116.523 189.515 126.894 205.782 127.135 205.456C127.002 205.058 141.702 194.121 141.219 192.433C140.689 190.612 137.698 189.816 134.153 190.624C134.129 190.383 147.345 184.39 147.803 181.026Z" fill="#9CB83C"/>
<path d="M128.509 220.723L127.605 220.928C125.856 213.355 126.519 202.092 129.462 189.238C132.127 177.614 136.395 166.013 140.893 158.199L141.701 158.657C137.252 166.399 133.019 177.915 130.366 189.443C127.448 202.165 126.785 213.271 128.509 220.723Z" fill="black"/>
<path d="M516.615 265.303C521.872 267.606 525.225 271.574 523.428 275.649C521.643 279.725 515.928 281.16 510.67 278.857C505.413 276.554 502.591 271.381 504.375 267.305C506.16 263.229 511.345 263 516.603 265.303H516.615Z" fill="#F9C953"/>
<path d="M218.298 482.731C218.298 484.262 217.056 485.516 215.512 485.516C213.969 485.516 212.727 484.274 212.727 482.731C212.727 481.187 213.969 479.945 215.512 479.945C217.056 479.945 218.298 481.187 218.298 482.731Z" fill="#9CB83C"/>
</g>
</svg>
