<svg width="342" height="72" viewBox="0 0 342 72" fill="none" xmlns="http://www.w3.org/2000/svg">
<path fill-rule="evenodd" clip-rule="evenodd" d="M193.63 8.2056C199.32 12.8882 205.875 17.1062 213.243 17.1062C218.745 17.1062 223.868 14.5923 228.85 12.2562C232.187 10.6916 235.911 9.81726 239.84 9.81726C242.721 9.81726 245.492 10.2873 248.081 11.1549C255.1 13.5073 261.998 17.1062 269.401 17.1062C276.804 17.1062 283.702 13.5073 290.721 11.1549C293.31 10.2873 296.081 9.81726 298.962 9.81726C301.843 9.81726 304.614 10.2873 307.203 11.1549C314.222 13.5073 321.12 17.1062 328.523 17.1062C335.926 17.1062 342.824 13.5073 349.843 11.1549C352.432 10.2873 355.203 9.81726 358.084 9.81726C372.397 9.81726 384 21.4204 384 35.7336C384 50.0468 372.397 61.65 358.084 61.65C355.203 61.65 352.432 61.1799 349.843 60.3123C342.824 57.9599 335.926 54.361 328.523 54.361C321.12 54.361 314.222 57.9599 307.203 60.3123C304.614 61.1799 301.843 61.65 298.962 61.65C296.081 61.65 293.31 61.1799 290.721 60.3123C283.702 57.9599 276.804 54.361 269.401 54.361C261.998 54.361 255.1 57.9599 248.081 60.3123C245.492 61.1799 242.721 61.65 239.84 61.65C235.911 61.65 232.187 60.7757 228.85 59.211C223.868 56.8749 218.745 54.361 213.243 54.361C205.875 54.361 199.32 58.5791 193.63 63.2616C187.476 68.327 179.593 71.3686 171 71.3686C162.407 71.3686 154.524 68.327 148.37 63.2616C142.68 58.579 136.125 54.361 128.757 54.361C123.255 54.361 118.132 56.875 113.15 59.211C109.813 60.7757 106.089 61.65 102.16 61.65C99.2789 61.65 96.5078 61.1799 93.9191 60.3123C86.8996 57.9599 80.002 54.361 72.5989 54.361C65.1957 54.361 58.2981 57.9599 51.2787 60.3123C48.6899 61.1799 45.9189 61.65 43.038 61.65C40.1572 61.65 37.3861 61.1799 34.7974 60.3123C27.7779 57.9599 20.8804 54.361 13.4772 54.361C6.07401 54.361 -0.823544 57.9599 -7.84302 60.3123C-10.4318 61.1799 -13.2028 61.65 -16.0837 61.65C-30.3969 61.65 -42 50.0468 -42 35.7336C-42 21.4204 -30.3969 9.81726 -16.0837 9.81726C-13.2028 9.81726 -10.4318 10.2873 -7.84303 11.1549C-0.823551 13.5073 6.074 17.1062 13.4772 17.1062C20.8804 17.1062 27.7779 13.5073 34.7974 11.1549C37.3861 10.2873 40.1572 9.81726 43.038 9.81726C45.9188 9.81726 48.6899 10.2873 51.2786 11.1549C58.2981 13.5073 65.1957 17.1062 72.5989 17.1062C80.0021 17.1062 86.8996 13.5073 93.9191 11.1549C96.5078 10.2873 99.2789 9.81726 102.16 9.81726C106.089 9.81726 109.813 10.6916 113.15 12.2562C118.132 14.5923 123.255 17.1062 128.757 17.1062C136.125 17.1062 142.68 12.8882 148.37 8.2056C154.524 3.14025 162.407 0.0986328 171 0.0986328C179.593 0.0986328 187.476 3.14024 193.63 8.2056Z" fill="#005F73" fill-opacity="0.3"/>
</svg>
