<svg width="342" height="72" viewBox="0 0 342 72" fill="none" xmlns="http://www.w3.org/2000/svg">
<path fill-rule="evenodd" clip-rule="evenodd" d="M193.63 8.10697C199.32 12.7895 205.875 17.0076 213.243 17.0076C218.745 17.0076 223.868 14.4936 228.85 12.1576C232.187 10.5929 235.911 9.71863 239.84 9.71863C242.721 9.71863 245.492 10.1887 248.081 11.0563C255.1 13.4087 261.998 17.0076 269.401 17.0076C276.804 17.0076 283.702 13.4087 290.721 11.0563C293.31 10.1887 296.081 9.71863 298.962 9.71863C301.843 9.71863 304.614 10.1887 307.203 11.0563C314.222 13.4087 321.12 17.0076 328.523 17.0076C335.926 17.0076 342.824 13.4087 349.843 11.0563C352.432 10.1887 355.203 9.71863 358.084 9.71863C372.397 9.71863 384 21.3218 384 35.635C384 49.9482 372.397 61.5513 358.084 61.5513C355.203 61.5513 352.432 61.0813 349.843 60.2137C342.824 57.8613 335.926 54.2624 328.523 54.2624C321.12 54.2624 314.222 57.8613 307.203 60.2137C304.614 61.0813 301.843 61.5513 298.962 61.5513C296.081 61.5513 293.31 61.0813 290.721 60.2137C283.702 57.8613 276.804 54.2624 269.401 54.2624C261.998 54.2624 255.1 57.8613 248.081 60.2137C245.492 61.0813 242.721 61.5513 239.84 61.5513C235.911 61.5513 232.187 60.677 228.85 59.1124C223.868 56.7763 218.745 54.2624 213.243 54.2624C205.875 54.2624 199.32 58.4804 193.63 63.163C187.476 68.2283 179.593 71.27 171 71.27C162.407 71.27 154.524 68.2283 148.37 63.163C142.68 58.4804 136.125 54.2624 128.757 54.2624C123.255 54.2624 118.132 56.7763 113.15 59.1124C109.813 60.677 106.089 61.5513 102.16 61.5513C99.2789 61.5513 96.5078 61.0813 93.9191 60.2137C86.8996 57.8613 80.0021 54.2624 72.5989 54.2624C65.1957 54.2624 58.2981 57.8613 51.2786 60.2137C48.6899 61.0813 45.9188 61.5513 43.038 61.5513C40.1572 61.5513 37.3861 61.0813 34.7974 60.2137C27.7779 57.8613 20.8804 54.2624 13.4772 54.2624C6.074 54.2624 -0.823547 57.8613 -7.84302 60.2137C-10.4318 61.0813 -13.2028 61.5513 -16.0837 61.5513C-30.3969 61.5513 -42 49.9482 -42 35.635C-42 21.3218 -30.3969 9.71863 -16.0837 9.71863C-13.2028 9.71863 -10.4318 10.1887 -7.84302 11.0563C-0.823544 13.4087 6.074 17.0076 13.4772 17.0076C20.8804 17.0076 27.7779 13.4087 34.7974 11.0562C37.3861 10.1887 40.1572 9.71863 43.038 9.71863C45.9189 9.71863 48.6899 10.1887 51.2787 11.0563C58.2981 13.4087 65.1957 17.0076 72.5989 17.0076C80.002 17.0076 86.8996 13.4087 93.9191 11.0562C96.5078 10.1887 99.2789 9.71863 102.16 9.71863C106.089 9.71863 109.813 10.5929 113.15 12.1576C118.132 14.4936 123.255 17.0076 128.757 17.0076C136.125 17.0076 142.68 12.7895 148.37 8.10697C154.524 3.04162 162.407 0 171 0C179.593 0 187.476 3.04161 193.63 8.10697Z" fill="#F8F9FC"/>
</svg>
