<svg width="32" height="32" viewBox="0 0 32 32" fill="none" xmlns="http://www.w3.org/2000/svg">
<rect width="32" height="32" rx="16" fill="#F4F4F4"/>
<path fill-rule="evenodd" clip-rule="evenodd" d="M15.9959 6.89673C13.6886 6.89673 11.3867 7.68342 9.51206 9.25641C8.38377 10.2032 7.51174 11.3551 6.90612 12.6166C6.82207 12.6086 6.74028 12.5904 6.65398 12.5904C5.14699 12.5904 3.93359 13.8037 3.93359 15.3107V18.6729C3.93359 20.1798 5.14699 21.3932 6.65398 21.3932C6.74028 21.3932 6.82207 21.3745 6.90612 21.3669C7.01455 21.5917 7.12674 21.8148 7.25319 22.034C7.74749 22.9162 9.06808 22.1608 8.55813 21.2875C6.4702 17.671 7.27881 13.0883 10.4777 10.4042C13.6766 7.71992 18.323 7.71992 21.5219 10.4042C24.7208 13.0883 25.5294 17.6709 23.4415 21.2875L23.419 21.3249L23.4039 21.3624C23.4039 21.3624 22.3899 23.6057 20.3986 23.6057L17.878 23.5832C17.6416 23.238 17.2633 22.9976 16.8115 22.9976H15.1867C14.4581 22.9976 13.8721 23.5856 13.8721 24.3142C13.8721 24.7636 14.1572 25.1048 14.8098 25.1048L20.3986 25.1052C23.3867 25.1052 24.6791 22.1716 24.7379 22.0359V22.0279C24.8633 21.8106 24.9736 21.5876 25.0813 21.3648C25.1691 21.3728 25.2546 21.391 25.345 21.391C26.852 21.391 28.0654 20.1777 28.0654 18.6707V15.3085C28.0654 13.8016 26.852 12.5882 25.345 12.5882C25.258 12.5882 25.1758 12.6026 25.091 12.6144C24.4868 11.3529 23.6174 10.2011 22.4889 9.25422C20.6143 7.68123 18.3028 6.89453 15.9954 6.89453L15.9959 6.89673ZM12.7172 11.6762C12.1315 11.638 11.5966 11.7618 11.1292 12.254C9.88269 13.5663 9.11265 15.3524 9.11265 17.2546C9.11265 18.8236 9.63701 20.5816 10.5203 20.6458C11.7787 20.7373 13.7646 19.9109 15.9998 19.9109C18.3685 19.9109 20.4588 20.8382 21.6984 20.6187C22.4496 20.4859 22.8889 18.6901 22.8889 17.2546C22.8889 15.3524 22.117 13.5663 20.8704 12.254C19.624 10.9417 17.9019 12.254 15.9998 12.254C14.811 12.254 13.6932 11.7403 12.7172 11.6762ZM12.438 14.9104C13.1329 14.9106 13.6962 15.4739 13.6964 16.1688C13.6962 16.8637 13.1329 17.4269 12.438 17.4272C11.7431 17.4269 11.1799 16.8637 11.1796 16.1688C11.1799 15.4739 11.7431 14.9106 12.438 14.9104ZM19.5617 14.9104C20.2566 14.9106 20.8199 15.4739 20.8201 16.1688C20.8199 16.8637 20.2566 17.4269 19.5617 17.4272C18.8668 17.4269 18.3036 16.8637 18.3033 16.1688C18.3036 15.4739 18.8668 14.9106 19.5617 14.9104Z" fill="#005F73"/>
</svg>
