<svg width="12" height="12" viewBox="0 0 12 12" fill="none" xmlns="http://www.w3.org/2000/svg">
<path d="M5.125 11.125C2.78 11.125 0.875 9.22 0.875 6.875C0.875 4.53 2.78 2.625 5.125 2.625C7.47 2.625 9.375 4.53 9.375 6.875C9.375 9.22 7.47 11.125 5.125 11.125ZM5.125 3.375C3.195 3.375 1.625 4.945 1.625 6.875C1.625 8.805 3.195 10.375 5.125 10.375C7.055 10.375 8.625 8.805 8.625 6.875C8.625 4.945 7.055 3.375 5.125 3.375Z" fill="#383838" fill-opacity="0.6"/>
<path d="M7.99875 4.37473C7.90375 4.37473 7.80875 4.33973 7.73375 4.26473C7.58875 4.11973 7.58875 3.87973 7.73375 3.73473L10.4837 0.984727C10.6287 0.839727 10.8687 0.839727 11.0137 0.984727C11.1587 1.12973 11.1587 1.36973 11.0137 1.51473L8.26375 4.26473C8.18875 4.33973 8.09375 4.37473 7.99875 4.37473Z" fill="#383838" fill-opacity="0.6"/>
<path d="M10.75 4.875C10.545 4.875 10.375 4.705 10.375 4.5V1.625L7.5 1.625C7.295 1.625 7.125 1.455 7.125 1.25C7.125 1.045 7.295 0.875 7.5 0.875L10.75 0.875C10.955 0.875 11.125 1.045 11.125 1.25V4.5C11.125 4.705 10.955 4.875 10.75 4.875Z" fill="#383838" fill-opacity="0.6"/>
</svg>
