<svg width="12" height="12" viewBox="0 0 12 12" fill="none" xmlns="http://www.w3.org/2000/svg">
<path d="M10.5 11.375L1.5 11.375C1.295 11.375 1.125 11.205 1.125 11C1.125 10.795 1.295 10.625 1.5 10.625L10.5 10.625C10.705 10.625 10.875 10.795 10.875 11C10.875 11.205 10.705 11.375 10.5 11.375Z" fill="#383838" fill-opacity="0.6"/>
<path d="M10.5 1.375L1.5 1.375C1.295 1.375 1.125 1.205 1.125 1C1.125 0.795 1.295 0.625 1.5 0.625L10.5 0.625C10.705 0.625 10.875 0.795 10.875 1C10.875 1.205 10.705 1.375 10.5 1.375Z" fill="#383838" fill-opacity="0.6"/>
<path d="M7.14969 7.67971L6.37469 8.45471L6.37469 3.34971L7.14969 4.12471C7.22469 4.19971 7.31969 4.23471 7.41469 4.23471C7.50969 4.23471 7.60469 4.19971 7.67969 4.12471C7.82469 3.97971 7.82469 3.73971 7.67969 3.59471L6.26469 2.17971C6.12469 2.03971 5.87469 2.03971 5.73469 2.17971L4.31969 3.59471C4.17469 3.73971 4.17469 3.97971 4.31969 4.12471C4.46469 4.26971 4.70469 4.26971 4.84969 4.12471L5.62469 3.34971L5.62469 8.45471L4.84969 7.67971C4.70469 7.53471 4.46469 7.53471 4.31969 7.67971C4.17469 7.82471 4.17469 8.06471 4.31969 8.20971L5.73469 9.62471C5.80469 9.69471 5.89969 9.73471 5.99969 9.73471C6.09969 9.73471 6.19469 9.69471 6.26469 9.62471L7.67969 8.20971C7.82469 8.06471 7.82469 7.82471 7.67969 7.67971C7.53469 7.53471 7.29469 7.53471 7.14969 7.67971Z" fill="#383838" fill-opacity="0.6"/>
</svg>
