<svg width="12" height="12" viewBox="0 0 12 12" fill="none" xmlns="http://www.w3.org/2000/svg">
<path d="M6.00516 8.50014C5.58016 8.50014 5.15016 8.39014 4.81516 8.17514L1.80516 6.21014C1.24516 5.84514 0.910156 5.23014 0.910156 4.56014C0.910156 3.89014 1.24516 3.27514 1.80516 2.91014L4.82016 0.950139C5.49016 0.515139 6.53516 0.515139 7.20016 0.955139L10.1952 2.92014C10.7502 3.28514 11.0852 3.90014 11.0852 4.56514C11.0852 5.23014 10.7502 5.84514 10.1952 6.21014L7.20016 8.17514C6.86516 8.39514 6.43516 8.50014 6.00516 8.50014ZM6.00516 1.37514C5.72016 1.37514 5.43516 1.44014 5.23016 1.58014L2.22016 3.54014C1.87016 3.77014 1.66516 4.14014 1.66516 4.56014C1.66516 4.98014 1.86516 5.35014 2.22016 5.58014L5.23016 7.54514C5.64516 7.81514 6.37516 7.81514 6.79016 7.54514L9.78516 5.58014C10.1352 5.35014 10.3352 4.98014 10.3352 4.56014C10.3352 4.14014 10.1352 3.77014 9.78516 3.54014L6.79016 1.57514C6.58016 1.44514 6.29516 1.37514 6.00516 1.37514Z" fill="#383838" fill-opacity="0.6"/>
<path d="M5.99862 11.375C5.77862 11.375 5.55362 11.345 5.37362 11.285L3.77862 10.755C3.02362 10.505 2.42863 9.68004 2.43363 8.88504L2.43863 6.54004C2.43863 6.33504 2.60863 6.16504 2.81363 6.16504C3.01863 6.16504 3.18863 6.33504 3.18863 6.54004L3.18362 8.88504C3.18362 9.35504 3.57362 9.89504 4.01862 10.045L5.61362 10.575C5.81362 10.64 6.18362 10.64 6.38363 10.575L7.97862 10.045C8.42362 9.89504 8.81362 9.35504 8.81362 8.89004V6.57004C8.81362 6.36504 8.98362 6.19504 9.18862 6.19504C9.39362 6.19504 9.56362 6.36504 9.56362 6.57004V8.89004C9.56362 9.68504 8.97363 10.505 8.21863 10.76L6.62362 11.29C6.44362 11.345 6.21862 11.375 5.99862 11.375Z" fill="#383838" fill-opacity="0.6"/>
<path d="M10.6992 7.875C10.4942 7.875 10.3242 7.705 10.3242 7.5V4.5C10.3242 4.295 10.4942 4.125 10.6992 4.125C10.9042 4.125 11.0742 4.295 11.0742 4.5V7.5C11.0742 7.705 10.9042 7.875 10.6992 7.875Z" fill="#383838" fill-opacity="0.6"/>
</svg>
