<svg width="16" height="16" viewBox="0 0 16 16" fill="none" xmlns="http://www.w3.org/2000/svg">
<path d="M6.16536 3.33333C6.16536 2.32 6.98536 1.5 7.9987 1.5C9.01203 1.5 9.83203 2.32 9.83203 3.33333C9.83203 4.34667 9.01203 5.16667 7.9987 5.16667C6.98536 5.16667 6.16536 4.34667 6.16536 3.33333ZM8.83203 3.33333C8.83203 2.87333 8.4587 2.5 7.9987 2.5C7.5387 2.5 7.16536 2.87333 7.16536 3.33333C7.16536 3.79333 7.5387 4.16667 7.9987 4.16667C8.4587 4.16667 8.83203 3.79333 8.83203 3.33333Z" fill="#383838"/>
<path d="M6.16536 12.6668C6.16536 11.6535 6.98536 10.8335 7.9987 10.8335C9.01203 10.8335 9.83203 11.6535 9.83203 12.6668C9.83203 13.6802 9.01203 14.5002 7.9987 14.5002C6.98536 14.5002 6.16536 13.6802 6.16536 12.6668ZM8.83203 12.6668C8.83203 12.2068 8.4587 11.8335 7.9987 11.8335C7.5387 11.8335 7.16536 12.2068 7.16536 12.6668C7.16536 13.1268 7.5387 13.5002 7.9987 13.5002C8.4587 13.5002 8.83203 13.1268 8.83203 12.6668Z" fill="#383838"/>
<path d="M6.16536 7.99984C6.16536 6.9865 6.98536 6.1665 7.9987 6.1665C9.01203 6.1665 9.83203 6.9865 9.83203 7.99984C9.83203 9.01317 9.01203 9.83317 7.9987 9.83317C6.98536 9.83317 6.16536 9.01317 6.16536 7.99984ZM8.83203 7.99984C8.83203 7.53984 8.4587 7.1665 7.9987 7.1665C7.5387 7.1665 7.16536 7.53984 7.16536 7.99984C7.16536 8.45984 7.5387 8.83317 7.9987 8.83317C8.4587 8.83317 8.83203 8.45984 8.83203 7.99984Z" fill="#383838"/>
</svg>
