<svg width="12" height="13" viewBox="0 0 12 13" fill="none" xmlns="http://www.w3.org/2000/svg">
<path d="M3.44141 10.0501C3.23641 10.0501 3.06641 9.88014 3.06641 9.67514L3.06641 8.64014C3.06641 8.43514 3.23641 8.26514 3.44141 8.26514C3.64641 8.26514 3.81641 8.43514 3.81641 8.64014V9.67514C3.81641 9.88514 3.64641 10.0501 3.44141 10.0501Z" fill="#383838" fill-opacity="0.6"/>
<path d="M6 10.0501C5.795 10.0501 5.625 9.8801 5.625 9.6751V7.6001C5.625 7.3951 5.795 7.2251 6 7.2251C6.205 7.2251 6.375 7.3951 6.375 7.6001V9.6751C6.375 9.8851 6.205 10.0501 6 10.0501Z" fill="#383838" fill-opacity="0.6"/>
<path d="M8.55859 10.0499C8.35359 10.0499 8.18359 9.87994 8.18359 9.67494V6.56494C8.18359 6.35994 8.35359 6.18994 8.55859 6.18994C8.76359 6.18994 8.93359 6.35994 8.93359 6.56494V9.67494C8.93359 9.88494 8.76859 10.0499 8.55859 10.0499Z" fill="#383838" fill-opacity="0.6"/>
<path d="M3.43882 7.1903C3.26882 7.1903 3.11882 7.0753 3.07382 6.9053C3.02382 6.7053 3.14382 6.5003 3.34882 6.4503C5.18882 5.9903 6.80882 4.9853 8.04382 3.5503L8.27382 3.2803C8.40882 3.1253 8.64382 3.1053 8.80382 3.2403C8.95882 3.3753 8.97882 3.6103 8.84382 3.7703L8.61382 4.0403C7.27882 5.6003 5.51882 6.6853 3.52882 7.1803C3.49882 7.1903 3.46882 7.1903 3.43882 7.1903Z" fill="#383838" fill-opacity="0.6"/>
<path d="M8.55875 5.3599C8.35375 5.3599 8.18375 5.1899 8.18375 4.9849V3.8999H7.09375C6.88875 3.8999 6.71875 3.7299 6.71875 3.5249C6.71875 3.3199 6.88875 3.1499 7.09375 3.1499L8.55875 3.1499C8.76375 3.1499 8.93375 3.3199 8.93375 3.5249V4.9899C8.93375 5.1949 8.76875 5.3599 8.55875 5.3599Z" fill="#383838" fill-opacity="0.6"/>
<path d="M7.5 11.9751L4.5 11.9751C1.785 11.9751 0.625 10.8151 0.625 8.1001L0.625 5.1001C0.625 2.3851 1.785 1.2251 4.5 1.2251L7.5 1.2251C10.215 1.2251 11.375 2.3851 11.375 5.1001L11.375 8.1001C11.375 10.8151 10.215 11.9751 7.5 11.9751ZM4.5 1.9751C2.195 1.9751 1.375 2.7951 1.375 5.1001L1.375 8.1001C1.375 10.4051 2.195 11.2251 4.5 11.2251L7.5 11.2251C9.805 11.2251 10.625 10.4051 10.625 8.1001L10.625 5.1001C10.625 2.7951 9.805 1.9751 7.5 1.9751L4.5 1.9751Z" fill="#383838" fill-opacity="0.6"/>
</svg>
