<svg width="12" height="12" viewBox="0 0 12 12" fill="none" xmlns="http://www.w3.org/2000/svg">
<path d="M4.99295 11.2748C4.96795 11.2748 4.94294 11.2748 4.91794 11.2648C3.00294 10.8748 1.44795 9.46478 0.867946 7.59478C0.807946 7.39478 0.917948 7.18478 1.11295 7.12478C1.31295 7.06478 1.52295 7.17478 1.58295 7.36978C2.08295 8.97978 3.41795 10.1898 5.06795 10.5248C5.27295 10.5648 5.40295 10.7648 5.35795 10.9698C5.32295 11.1498 5.16295 11.2748 4.99295 11.2748Z" fill="#383838" fill-opacity="0.6"/>
<path d="M10.9741 5.865C10.7841 5.865 10.6191 5.72 10.5991 5.53C10.3591 3.16 8.37913 1.375 5.99913 1.375C3.61413 1.375 1.63914 3.16 1.39914 5.525C1.37914 5.73 1.19914 5.885 0.989135 5.86C0.784135 5.84 0.634133 5.655 0.654133 5.45C0.934133 2.7 3.23413 0.625 5.99913 0.625C8.76913 0.625 11.0691 2.7 11.3441 5.45C11.3641 5.655 11.2141 5.84 11.0091 5.86C10.9991 5.865 10.9841 5.865 10.9741 5.865Z" fill="#383838" fill-opacity="0.6"/>
<path d="M7.00504 11.2749C6.83004 11.2749 6.67504 11.1549 6.64004 10.9749C6.60004 10.7699 6.73004 10.5749 6.93004 10.5349C8.57004 10.1999 9.90504 8.99992 10.41 7.39992C10.47 7.19992 10.685 7.08992 10.88 7.15492C11.08 7.21492 11.185 7.42992 11.125 7.62492C10.535 9.48492 8.98505 10.8799 7.08005 11.2699C7.05505 11.2699 7.03004 11.2749 7.00504 11.2749Z" fill="#383838" fill-opacity="0.6"/>
</svg>
