<svg width="12" height="12" viewBox="0 0 12 12" fill="none" xmlns="http://www.w3.org/2000/svg">
<path d="M7 11.375L5 11.375C2.285 11.375 1.125 10.215 1.125 7.5L1.125 4.5C1.125 1.785 2.285 0.625 5 0.625L7 0.625C9.715 0.625 10.875 1.785 10.875 4.5L10.875 7.5C10.875 10.215 9.715 11.375 7 11.375ZM5 1.375C2.695 1.375 1.875 2.195 1.875 4.5L1.875 7.5C1.875 9.805 2.695 10.625 5 10.625L7 10.625C9.305 10.625 10.125 9.805 10.125 7.5L10.125 4.5C10.125 2.195 9.305 1.375 7 1.375L5 1.375Z" fill="#383838" fill-opacity="0.6"/>
<path d="M7.5353 6.2698C7.4453 6.2698 7.3553 6.2348 7.2853 6.1748C6.5553 5.5248 5.4453 5.5248 4.7153 6.1748C4.6353 6.2498 4.5253 6.2798 4.4103 6.2648C4.3003 6.2498 4.2053 6.1848 4.1453 6.0898L3.0553 4.3398C2.9603 4.1848 2.9903 3.9848 3.1253 3.8598C4.7653 2.4048 7.2353 2.4048 8.8753 3.8598C9.0103 3.9798 9.0403 4.1848 8.9453 4.3398L7.8553 6.0898C7.7953 6.1848 7.7003 6.2448 7.5903 6.2648C7.5703 6.2648 7.5503 6.2698 7.5353 6.2698ZM6.0003 4.9348C6.5003 4.9348 6.9953 5.0748 7.4303 5.3498L8.1303 4.2248C6.8653 3.2848 5.1303 3.2848 3.8653 4.2248L4.5653 5.3498C5.0053 5.0698 5.5003 4.9348 6.0003 4.9348Z" fill="#383838" fill-opacity="0.6"/>
</svg>
