<svg width="17" height="16" viewBox="0 0 17 16" fill="none" xmlns="http://www.w3.org/2000/svg">
<mask id="path-1-inside-1_687_8340" fill="white">
<path d="M10.4987 8.6333H5.83203C5.5587 8.6333 5.33203 8.40663 5.33203 8.1333C5.33203 7.85997 5.5587 7.6333 5.83203 7.6333H10.4987C10.772 7.6333 10.9987 7.85997 10.9987 8.1333C10.9987 8.40663 10.772 8.6333 10.4987 8.6333Z"/>
</mask>
<path d="M10.4987 8.6333H5.83203C5.5587 8.6333 5.33203 8.40663 5.33203 8.1333C5.33203 7.85997 5.5587 7.6333 5.83203 7.6333H10.4987C10.772 7.6333 10.9987 7.85997 10.9987 8.1333C10.9987 8.40663 10.772 8.6333 10.4987 8.6333Z" fill="#005F73"/>
<path d="M10.4987 7.6333H5.83203V9.6333H10.4987V7.6333ZM5.83203 7.6333C6.11098 7.6333 6.33203 7.85435 6.33203 8.1333H4.33203C4.33203 8.95892 5.00641 9.6333 5.83203 9.6333V7.6333ZM6.33203 8.1333C6.33203 8.41225 6.11098 8.6333 5.83203 8.6333V6.6333C5.00641 6.6333 4.33203 7.30768 4.33203 8.1333H6.33203ZM5.83203 8.6333H10.4987V6.6333H5.83203V8.6333ZM10.4987 8.6333C10.2197 8.6333 9.9987 8.41225 9.9987 8.1333H11.9987C11.9987 7.30768 11.3243 6.6333 10.4987 6.6333V8.6333ZM9.9987 8.1333C9.9987 7.85435 10.2197 7.6333 10.4987 7.6333V9.6333C11.3243 9.6333 11.9987 8.95892 11.9987 8.1333H9.9987Z" fill="#005F73" mask="url(#path-1-inside-1_687_8340)"/>
<path d="M8.75203 11.3H5.83203C5.5587 11.3 5.33203 11.0734 5.33203 10.8C5.33203 10.5267 5.5587 10.3 5.83203 10.3H8.75203C9.02536 10.3 9.25203 10.5267 9.25203 10.8C9.25203 11.0734 9.02536 11.3 8.75203 11.3Z" fill="#005F73"/>
<path d="M9.83203 4.49992H7.16536C6.52536 4.49992 5.33203 4.49992 5.33203 2.66659C5.33203 0.833252 6.52536 0.833252 7.16536 0.833252H9.83203C10.472 0.833252 11.6654 0.833252 11.6654 2.66659C11.6654 3.30659 11.6654 4.49992 9.83203 4.49992ZM7.16536 1.83325C6.50536 1.83325 6.33203 1.83325 6.33203 2.66659C6.33203 3.49992 6.50536 3.49992 7.16536 3.49992H9.83203C10.6654 3.49992 10.6654 3.32659 10.6654 2.66659C10.6654 1.83325 10.492 1.83325 9.83203 1.83325H7.16536Z" fill="#005F73"/>
<path d="M10.5 15.1667H6.5C2.75333 15.1667 2 13.4467 2 10.6667V6.6667C2 3.6267 3.1 2.3267 5.80667 2.1867C6.07333 2.17337 6.32 2.38004 6.33333 2.66004C6.34667 2.94004 6.13333 3.1667 5.86 3.18004C3.96667 3.2867 3 3.85337 3 6.6667V10.6667C3 13.1334 3.48667 14.1667 6.5 14.1667H10.5C13.5133 14.1667 14 13.1334 14 10.6667V6.6667C14 3.85337 13.0333 3.2867 11.14 3.18004C10.8667 3.1667 10.6533 2.9267 10.6667 2.65337C10.68 2.38004 10.92 2.1667 11.1933 2.18004C13.9 2.3267 15 3.6267 15 6.66004V10.66C15 13.4467 14.2467 15.1667 10.5 15.1667Z" fill="#005F73"/>
</svg>
