<svg width="17" height="16" viewBox="0 0 17 16" fill="none" xmlns="http://www.w3.org/2000/svg">
<path d="M4.5 9.39997C4.5 8.81246 4.81957 8.20856 5.46344 7.98586L5.87589 7.84321L5.8161 7.54427C5.84442 7.66205 5.87959 7.78029 5.9214 7.89849L5.88273 7.9019C5.41169 7.94346 5.04971 8.15105 4.8132 8.4561C4.58631 8.74872 4.5 9.0975 4.5 9.39997ZM4.5 9.39997C4.5 9.50833 4.51066 9.61783 4.53252 9.72573C4.51003 9.61419 4.5 9.50415 4.5 9.39997ZM9.01555 4.54268C8.1615 4.27628 7.15422 4.51225 6.4908 5.11219C7.15727 4.50579 8.16023 4.27619 9.02012 4.53804C9.80662 4.78074 10.3926 5.41098 10.6284 6.34863L10.6992 6.62994L10.9183 6.69128C10.8442 6.67371 10.7673 6.65992 10.6875 6.65034L10.6872 6.64978C10.6868 6.64906 10.6861 6.64765 10.6856 6.64529C10.5143 5.62107 9.94095 4.8309 9.01555 4.54268ZM9.01555 4.54268L8.86666 5.01999L9.01528 4.5426C9.01537 4.54263 9.01546 4.54266 9.01555 4.54268ZM12.3993 8.14416C12.332 7.91789 12.2165 7.67301 12.0489 7.44765C12.2005 7.64955 12.3209 7.8842 12.4018 8.14603C12.6548 8.98361 12.4196 9.81411 11.8188 10.3358L11.8187 10.3357L11.8088 10.3447C11.4216 10.6997 10.909 10.9 10.3733 10.9H10.3733H10.3733H10.3732H10.3732H10.3731H10.3731H10.3731H10.373H10.373H10.3729H10.3729H10.3729H10.3728H10.3728H10.3727H10.3727H10.3727H10.3726H10.3726H10.3726H10.3725H10.3725H10.3724H10.3724H10.3724H10.3723H10.3723H10.3722H10.3722H10.3722H10.3721H10.3721H10.372H10.372H10.372H10.3719H10.3719H10.3718H10.3718H10.3718H10.3717H10.3717H10.3717H10.3716H10.3716H10.3715H10.3715H10.3715H10.3714H10.3714H10.3713H10.3713H10.3713H10.3712H10.3712H10.3711H10.3711H10.3711H10.371H10.371H10.3709H10.3709H10.3709H10.3708H10.3708H10.3708H10.3707H10.3707H10.3706H10.3706H10.3706H10.3705H10.3705H10.3704H10.3704H10.3704H10.3703H10.3703H10.3702H10.3702H10.3702H10.3701H10.3701H10.3701H10.37H10.37H10.3699H10.3699H10.3699H10.3698H10.3698H10.3697H10.3697H10.3697H10.3696H10.3696H10.3695H10.3695H10.3695H10.3694H10.3694H10.3693H10.3693H10.3693H10.3692H10.3692H10.3692H10.3691H10.3691H10.369H10.369H10.369H10.3689H10.3689H10.3688H10.3688H10.3688H10.3687H10.3687H10.3686H10.3686H10.3686H10.3685H10.3685H10.3684H10.3684H10.3684H10.3683H10.3683H10.3683H10.3682H10.3682H10.3681H10.3681H10.3681H10.368H10.368H10.3679H10.3679H10.3679H10.3678H10.3678H10.3677H10.3677H10.3677H10.3676H10.3676H10.3676H10.3675H10.3675H10.3674H10.3674H10.3674H10.3673H10.3673H10.3672H10.3672H10.3672H10.3671H10.3671H10.367H10.367H10.367H10.3669H10.3669H10.3668H10.3668H10.3668H10.3667H10.3667H10.3667H10.3666H10.3666H10.3665H10.3665H10.3665H10.3664H10.3664H10.3663H10.3663H10.3663H10.3662H10.3662H10.3661H10.3661H10.3661H10.366H10.366H10.3659H10.3659H10.3659H10.3658H10.3658H10.3658H10.3657H10.3657H10.3656H10.3656H10.3656H10.3655H10.3655H10.3654H10.3654H10.3654H10.3653H10.3653H10.3652H10.3652H10.3652H10.3651H10.3651H10.3651H10.365H10.365H10.3649H10.3649H10.3649H10.3648H10.3648H10.3647H10.3647H10.3647H10.3646H10.3646H10.3645H10.3645H10.3645H10.3644H10.3644H10.3643H10.3643H10.3643H10.3642H10.3642H10.3642H10.3641H10.3641H10.364H10.364H10.364H10.3639H10.3639H10.3638H10.3638H10.3638H10.3637H10.3637H10.3636H10.3636H10.3636H10.3635H10.3635H10.3634H10.3634H10.3634H10.3633H10.3633H10.3633H10.3632H10.3632H10.3631H10.3631H10.3631H10.363H10.363H10.3629H10.3629H10.3629H10.3628H10.3628H10.3627H10.3627H10.3627H10.3626H10.3626H10.3626H10.3625H10.3625H10.3624H10.3624H10.3624H10.3623H10.3623H10.3622H10.3622H10.3622H10.3621H10.3621H10.362H10.362H10.362H10.3619H10.3619H10.3618H10.3618H10.3618H10.3617H10.3617H10.3617H10.3616H10.3616H10.3615H10.3615H10.3615H10.3614H10.3614H10.3613H10.3613H10.3613H10.3612H10.3612H10.3611H10.3611H10.3611H10.361H10.361H10.3609H10.3609H10.3609H10.3608H10.3608H10.3608H10.3607H10.3607H10.3606H10.3606H10.3606H10.3605H10.3605H10.3604H10.3604H10.3604H10.3603H10.3603H10.3602H10.3602H10.3602H10.3601H10.3601H10.3601H10.36H10.36H10.3599H10.3599H10.3599H10.3598H10.3598H10.3597H10.3597H10.3597H10.3596H10.3596H10.3595H10.3595H10.3595H10.3594H10.3594H10.3593H10.3593H10.3593H10.3592H10.3592H10.3592H10.3591H10.3591H10.359H10.359H10.359H10.3589H10.3589H10.3588H10.3588H10.3588H10.3587H10.3587H10.3586H10.3586H10.3586H10.3585H10.3585H10.3584H10.3584H10.3584H10.3583H10.3583H10.3583H10.3582H10.3582H10.3581H10.3581H10.3581H10.358H10.358H10.3579H10.3579H10.3579H10.3578H10.3578H10.3577H10.3577H10.3577H10.3576H10.3576H10.3576H10.3575H10.3575H10.3574H10.3574H10.3574H10.3573H10.3573H10.3572H10.3572H10.3572H10.3571H10.3571H10.357H10.357H10.357H10.3569H10.3569H10.3568H10.3568H10.3568H10.3567H10.3567H10.3567H10.3566H10.3566H10.3565H10.3565H10.3565H10.3564H10.3564H10.3563H10.3563H10.3563H10.3562H10.3562H10.3561H10.3561H10.3561H10.356H10.356H10.3559H10.3559H10.3559H10.3558H10.3558H10.3558H10.3557H10.3557H10.3556H10.3556H10.3556H10.3555H10.3555H10.3554H10.3554H10.3554H10.3553H10.3553H10.3552H10.3552H10.3552H10.3551H10.3551H10.3551H10.355H10.355H10.3549H10.3549H10.3549H10.3548H10.3548H10.3547H10.3547H10.3547H10.3546H10.3546H10.3545H10.3545H10.3545H10.3544H10.3544H10.3543H10.3543H10.3543H10.3542H10.3542H10.3542H10.3541H10.3541H10.354H10.354H10.354H10.3539H10.3539H10.3538H10.3538H10.3538H10.3537H10.3537H10.3536H10.3536H10.3536H10.3535H10.3535H10.3534H10.3534H10.3534H10.3533C10.9054 10.9 11.4064 10.7106 11.8081 10.3381C12.5565 9.68226 12.581 8.75553 12.3993 8.14416Z" fill="#005F73" stroke="#005F73"/>
<path d="M6.4987 15.1667C3.65203 15.1667 1.33203 12.8467 1.33203 10C1.33203 9.72667 1.5587 9.5 1.83203 9.5C2.10536 9.5 2.33203 9.72667 2.33203 10C2.33203 11.9733 3.70536 13.6267 5.55202 14.06L5.37203 13.76C5.23203 13.52 5.30537 13.2133 5.54537 13.0733C5.7787 12.9333 6.09203 13.0067 6.23204 13.2467L6.93203 14.4133C7.02536 14.5667 7.02537 14.76 6.9387 14.9133C6.84537 15.0667 6.6787 15.1667 6.4987 15.1667Z" fill="#005F73"/>
<path d="M15.1669 6.49992C14.8936 6.49992 14.6669 6.27325 14.6669 5.99992C14.6669 4.02659 13.2936 2.37323 11.447 1.9399L11.627 2.23991C11.767 2.47991 11.6936 2.78659 11.4536 2.92659C11.2203 3.06659 10.9069 2.99326 10.7669 2.75326L10.067 1.58659C9.97362 1.43326 9.97361 1.23992 10.0603 1.08659C10.1469 0.926589 10.3136 0.833252 10.4936 0.833252C13.3403 0.833252 15.6603 3.15325 15.6603 5.99992C15.6669 6.27325 15.4403 6.49992 15.1669 6.49992Z" fill="#005F73"/>
</svg>
