<svg width="17" height="19" viewBox="0 0 17 19" fill="none" xmlns="http://www.w3.org/2000/svg">
<mask id="path-1-inside-1_687_8359" fill="white">
<path d="M10.4792 15.1666H6.47917C2.85917 15.1666 1.3125 13.6199 1.3125 9.99992V5.99992C1.3125 2.37992 2.85917 0.833252 6.47917 0.833252H10.4792C14.0992 0.833252 15.6458 2.37992 15.6458 5.99992V9.99992C15.6458 13.6199 14.1058 15.1666 10.4792 15.1666ZM6.47917 1.83325C3.40583 1.83325 2.3125 2.92659 2.3125 5.99992V9.99992C2.3125 13.0733 3.40583 14.1666 6.47917 14.1666H10.4792C13.5525 14.1666 14.6458 13.0733 14.6458 9.99992V5.99992C14.6458 2.92659 13.5525 1.83325 10.4792 1.83325H6.47917Z"/>
</mask>
<path d="M10.4792 15.1666H6.47917C2.85917 15.1666 1.3125 13.6199 1.3125 9.99992V5.99992C1.3125 2.37992 2.85917 0.833252 6.47917 0.833252H10.4792C14.0992 0.833252 15.6458 2.37992 15.6458 5.99992V9.99992C15.6458 13.6199 14.1058 15.1666 10.4792 15.1666ZM6.47917 1.83325C3.40583 1.83325 2.3125 2.92659 2.3125 5.99992V9.99992C2.3125 13.0733 3.40583 14.1666 6.47917 14.1666H10.4792C13.5525 14.1666 14.6458 13.0733 14.6458 9.99992V5.99992C14.6458 2.92659 13.5525 1.83325 10.4792 1.83325H6.47917Z" fill="#005F73"/>
<path d="M10.4792 14.1666H6.47917V16.1666H10.4792V14.1666ZM6.47917 14.1666C4.78396 14.1666 3.81235 13.8006 3.24544 13.2336C2.67853 12.6667 2.3125 11.6951 2.3125 9.99992H0.3125C0.3125 11.9247 0.719801 13.5364 1.83123 14.6479C2.94265 15.7593 4.55438 16.1666 6.47917 16.1666V14.1666ZM2.3125 9.99992V5.99992H0.3125V9.99992H2.3125ZM2.3125 5.99992C2.3125 4.30471 2.67853 3.3331 3.24544 2.76619C3.81235 2.19928 4.78396 1.83325 6.47917 1.83325V-0.166748C4.55438 -0.166748 2.94265 0.240553 1.83123 1.35198C0.719801 2.4634 0.3125 4.07513 0.3125 5.99992H2.3125ZM6.47917 1.83325H10.4792V-0.166748H6.47917V1.83325ZM10.4792 1.83325C12.1744 1.83325 13.146 2.19928 13.7129 2.76619C14.2798 3.3331 14.6458 4.30471 14.6458 5.99992H16.6458C16.6458 4.07513 16.2385 2.4634 15.1271 1.35198C14.0157 0.240553 12.404 -0.166748 10.4792 -0.166748V1.83325ZM14.6458 5.99992V9.99992H16.6458V5.99992H14.6458ZM14.6458 9.99992C14.6458 11.6961 14.281 12.6675 13.715 13.234C13.1493 13.8003 12.1782 14.1666 10.4792 14.1666V16.1666C12.4068 16.1666 14.0191 15.7595 15.13 14.6475C16.2407 13.5357 16.6458 11.9237 16.6458 9.99992H14.6458ZM6.47917 0.833252C4.87195 0.833252 3.48448 1.10873 2.53623 2.05698C1.58797 3.00523 1.3125 4.3927 1.3125 5.99992H3.3125C3.3125 4.53381 3.58369 3.83794 3.95044 3.47119C4.31719 3.10444 5.01305 2.83325 6.47917 2.83325V0.833252ZM1.3125 5.99992V9.99992H3.3125V5.99992H1.3125ZM1.3125 9.99992C1.3125 11.6071 1.58797 12.9946 2.53623 13.9429C3.48448 14.8911 4.87195 15.1666 6.47917 15.1666V13.1666C5.01305 13.1666 4.31719 12.8954 3.95044 12.5286C3.58369 12.1619 3.3125 11.466 3.3125 9.99992H1.3125ZM6.47917 15.1666H10.4792V13.1666H6.47917V15.1666ZM10.4792 15.1666C12.0864 15.1666 13.4739 14.8911 14.4221 13.9429C15.3704 12.9946 15.6458 11.6071 15.6458 9.99992H13.6458C13.6458 11.466 13.3746 12.1619 13.0079 12.5286C12.6411 12.8954 11.9453 13.1666 10.4792 13.1666V15.1666ZM15.6458 9.99992V5.99992H13.6458V9.99992H15.6458ZM15.6458 5.99992C15.6458 4.3927 15.3704 3.00523 14.4221 2.05698C13.4739 1.10873 12.0864 0.833252 10.4792 0.833252V2.83325C11.9453 2.83325 12.6411 3.10444 13.0079 3.47119C13.3746 3.83794 13.6458 4.53381 13.6458 5.99992H15.6458ZM10.4792 0.833252H6.47917V2.83325H10.4792V0.833252Z" fill="#005F73" mask="url(#path-1-inside-1_687_8359)"/>
<path d="M5.15391 6.68643C5.15391 8.59136 6.70215 10.1396 8.60708 10.1396C10.512 10.1396 12.0603 8.59136 12.0603 6.68643C12.0603 4.78149 10.512 3.23325 8.60708 3.23325C6.70215 3.23325 5.15391 4.78149 5.15391 6.68643ZM5.82179 6.68643C5.82179 5.15085 7.0715 3.90114 8.60708 3.90114C10.1427 3.90114 11.3924 5.15085 11.3924 6.68643C11.3924 8.22201 10.1427 9.47172 8.60708 9.47172C7.0715 9.47172 5.82179 8.22201 5.82179 6.68643Z" fill="#005F73" stroke="#005F73" stroke-width="0.2"/>
<path d="M8.63232 7.38682L8.63236 7.38684L9.59738 7.96274C9.65347 7.99942 9.71335 8.01234 9.7691 8.01234C9.88171 8.01234 9.99166 7.9539 10.0566 7.84993L10.0567 7.84995L10.0582 7.84732C10.1501 7.68975 10.1035 7.48431 9.9416 7.38954L8.97503 6.81272L8.97503 6.81271L8.974 6.81211C8.94674 6.79628 8.91009 6.75745 8.87931 6.70333C8.8486 6.64933 8.83351 6.5973 8.83351 6.56483V5.28594C8.83351 5.10283 8.68268 4.952 8.49957 4.952C8.31645 4.952 8.16562 5.10283 8.16562 5.28594V6.56483C8.16562 6.87756 8.36185 7.22524 8.63232 7.38682Z" fill="#005F73" stroke="#005F73" stroke-width="0.2"/>
<path d="M5.95806 12.431H7.42326C7.57472 12.431 7.69304 12.2968 7.69304 12.1429C7.69304 11.989 7.57472 11.8548 7.42326 11.8548H5.95806C5.80661 11.8548 5.68828 11.989 5.68828 12.1429C5.68828 12.2968 5.80661 12.431 5.95806 12.431Z" fill="#005F73" stroke="#005F73" stroke-width="0.1"/>
<path d="M9.294 12.431H10.7592C10.9107 12.431 11.029 12.2968 11.029 12.1429C11.029 11.989 10.9107 11.8548 10.7592 11.8548H9.294C9.14255 11.8548 9.02422 11.989 9.02422 12.1429C9.02422 12.2968 9.14255 12.431 9.294 12.431Z" fill="#005F73" stroke="#005F73" stroke-width="0.1"/>
<path d="M3.78203 12.1426C3.78203 12.8274 4.33775 13.3831 5.02251 13.3831C5.70727 13.3831 6.26298 12.8274 6.26298 12.1426C6.26298 11.4579 5.70727 10.9021 5.02251 10.9021C4.33775 10.9021 3.78203 11.4579 3.78203 12.1426ZM4.35822 12.1426C4.35822 11.7766 4.65647 11.4783 5.02251 11.4783C5.38854 11.4783 5.68679 11.7766 5.68679 12.1426C5.68679 12.5087 5.38854 12.8069 5.02251 12.8069C4.65647 12.8069 4.35822 12.5087 4.35822 12.1426Z" fill="#005F73" stroke="#005F73" stroke-width="0.1"/>
<path d="M7.11797 12.1426C7.11797 12.8274 7.67369 13.3831 8.35845 13.3831C9.0432 13.3831 9.59892 12.8274 9.59892 12.1426C9.59892 11.4579 9.0432 10.9021 8.35845 10.9021C7.67369 10.9021 7.11797 11.4579 7.11797 12.1426ZM7.69416 12.1426C7.69416 11.7766 7.99241 11.4783 8.35845 11.4783C8.72448 11.4783 9.02273 11.7766 9.02273 12.1426C9.02273 12.5087 8.72448 12.8069 8.35845 12.8069C7.99241 12.8069 7.69416 12.5087 7.69416 12.1426Z" fill="#005F73" stroke="#005F73" stroke-width="0.1"/>
<path d="M10.4461 12.1426C10.4461 12.8274 11.0018 13.3831 11.6866 13.3831C12.3713 13.3831 12.927 12.8274 12.927 12.1426C12.927 11.4579 12.3713 10.9021 11.6866 10.9021C11.0018 10.9021 10.4461 11.4579 10.4461 12.1426ZM11.0223 12.1426C11.0223 11.7766 11.3205 11.4783 11.6866 11.4783C12.0526 11.4783 12.3509 11.7766 12.3509 12.1426C12.3509 12.5087 12.0526 12.8069 11.6866 12.8069C11.3205 12.8069 11.0223 12.5087 11.0223 12.1426Z" fill="#005F73" stroke="#005F73" stroke-width="0.1"/>
<circle cx="12.2829" cy="18.2143" r="0.357143" fill="#005F73"/>
</svg>
