<svg width="17" height="16" viewBox="0 0 17 16" fill="none" xmlns="http://www.w3.org/2000/svg">
<path d="M10.5448 12.9294L10.5448 12.9292L10.5317 12.9282C10.2435 12.9061 9.91177 12.8526 9.56105 12.7707C9.90546 12.8486 10.233 12.8983 10.5337 12.9246C11.1008 12.9806 11.6182 12.9515 12.0802 12.8078C11.7723 12.9044 11.4276 12.9534 11.04 12.9534C10.8799 12.9534 10.7175 12.9473 10.5448 12.9294ZM14.0485 10.5936C14.1384 10.3304 14.217 10.0479 14.287 9.74706C14.287 9.74691 14.287 9.74676 14.2871 9.74662L14.9402 6.96089L14.9403 6.96029C15.2491 5.63606 15.2454 4.56974 14.7386 3.7504C14.5968 3.52114 14.4202 3.31832 14.2101 3.1383C14.4285 3.32442 14.6031 3.52826 14.7418 3.75025C15.1893 4.47689 15.2986 5.46174 14.9466 6.95902L14.9466 6.95929L14.2933 9.74572C14.2933 9.7458 14.2933 9.74588 14.2932 9.74596C14.2209 10.054 14.1392 10.336 14.0485 10.5936ZM11.9527 2.14025C12.0722 2.16836 12.1876 2.19761 12.2989 2.228C12.1846 2.1971 12.0672 2.16773 11.9467 2.13977C11.9466 2.13974 11.9465 2.13972 11.9464 2.13969L10.8354 1.88025C10.7599 1.86207 10.6852 1.84499 10.6112 1.82905C10.6879 1.84539 10.7638 1.8625 10.839 1.88016L10.8397 1.88032L11.9523 2.14016C11.9524 2.14019 11.9526 2.14022 11.9527 2.14025ZM6.03109 4.76504C6.15866 4.23676 6.30335 3.81376 6.47022 3.46573C6.30219 3.82911 6.15686 4.25759 6.03109 4.76504ZM5.54923 10.8709C5.40649 10.6406 5.29949 10.3795 5.23147 10.0824C5.29844 10.3631 5.40408 10.6248 5.55432 10.867C5.72889 11.1484 5.9539 11.3878 6.22467 11.5934C5.93546 11.3771 5.71352 11.136 5.54923 10.8709Z" fill="#005F73" stroke="#005F73"/>
<path d="M6.05402 14.8334C4.34069 14.8334 3.24735 13.8067 2.54735 11.64L1.69402 9.0067C0.747352 6.07337 1.59402 4.42003 4.51402 3.47337L5.56735 3.13337C5.91402 3.0267 6.17402 2.95337 6.40735 2.91337C6.60069 2.87337 6.78735 2.9467 6.90069 3.10003C7.01402 3.25337 7.03402 3.45337 6.95402 3.6267C6.78069 3.98003 6.62735 4.4267 6.50069 4.9867L5.84735 7.78003C5.25402 10.3 5.94069 11.4 8.46069 12L9.58069 12.2667C9.94069 12.3534 10.2807 12.4067 10.5874 12.4334C10.8007 12.4534 10.974 12.6 11.034 12.8067C11.0874 13.0134 11.0074 13.2267 10.834 13.3467C10.394 13.6467 9.84069 13.9 9.14069 14.1267L8.08735 14.4734C7.32069 14.7134 6.65402 14.8334 6.05402 14.8334ZM5.68735 4.1467L4.82735 4.4267C2.44735 5.19337 1.88069 6.31337 2.64735 8.70003L3.50069 11.3334C4.27402 13.7134 5.39402 14.2867 7.77402 13.52L8.82735 13.1734C8.86735 13.16 8.90069 13.1467 8.94069 13.1334L8.23402 12.9667C5.16069 12.24 4.15402 10.6134 4.87402 7.5467L5.52735 4.75337C5.57402 4.54003 5.62735 4.33337 5.68735 4.1467Z" fill="#005F73"/>
<path d="M12.1609 7.00676C12.1209 7.00676 12.0809 7.0001 12.0342 6.99343L8.80089 6.17343C8.53423 6.10676 8.37423 5.83343 8.44089 5.56676C8.50756 5.3001 8.78089 5.1401 9.04756 5.20676L12.2809 6.02676C12.5476 6.09343 12.7076 6.36676 12.6409 6.63343C12.5876 6.85343 12.3809 7.00676 12.1609 7.00676Z" fill="#005F73"/>
<path d="M10.2074 9.25993C10.1674 9.25993 10.1274 9.25326 10.0807 9.2466L8.14074 8.75326C7.87407 8.6866 7.71407 8.41326 7.78074 8.1466C7.8474 7.87993 8.12074 7.71993 8.3874 7.7866L10.3274 8.27993C10.5941 8.3466 10.7541 8.61993 10.6874 8.8866C10.6341 9.11326 10.4341 9.25993 10.2074 9.25993Z" fill="#005F73"/>
</svg>
