<svg width="17" height="16" viewBox="0 0 17 16" fill="none" xmlns="http://www.w3.org/2000/svg">
<mask id="path-1-inside-1_687_8330" fill="white">
<path d="M12.2461 6.41333H8.74609C8.47276 6.41333 8.24609 6.18666 8.24609 5.91333C8.24609 5.64 8.47276 5.41333 8.74609 5.41333H12.2461C12.5194 5.41333 12.7461 5.64 12.7461 5.91333C12.7461 6.18666 12.5261 6.41333 12.2461 6.41333Z"/>
</mask>
<path d="M12.2461 6.41333H8.74609C8.47276 6.41333 8.24609 6.18666 8.24609 5.91333C8.24609 5.64 8.47276 5.41333 8.74609 5.41333H12.2461C12.5194 5.41333 12.7461 5.64 12.7461 5.91333C12.7461 6.18666 12.5261 6.41333 12.2461 6.41333Z" fill="#005F73"/>
<path d="M12.2461 5.41333H8.74609V7.41333H12.2461V5.41333ZM8.74609 5.41333C9.02505 5.41333 9.24609 5.63438 9.24609 5.91333H7.24609C7.24609 6.73895 7.92048 7.41333 8.74609 7.41333V5.41333ZM9.24609 5.91333C9.24609 6.19228 9.02505 6.41333 8.74609 6.41333V4.41333C7.92048 4.41333 7.24609 5.08771 7.24609 5.91333H9.24609ZM8.74609 6.41333H12.2461V4.41333H8.74609V6.41333ZM12.2461 6.41333C11.9671 6.41333 11.7461 6.19228 11.7461 5.91333H13.7461C13.7461 5.08771 13.0717 4.41333 12.2461 4.41333V6.41333ZM11.7461 5.91333C11.7461 5.64309 11.9651 5.41333 12.2461 5.41333V7.41333C13.087 7.41333 13.7461 6.73024 13.7461 5.91333H11.7461Z" fill="#005F73" mask="url(#path-1-inside-1_687_8330)"/>
<path d="M5.24833 6.91996C5.12167 6.91996 4.995 6.8733 4.895 6.7733L4.395 6.2733C4.20167 6.07996 4.20167 5.75996 4.395 5.56663C4.58833 5.3733 4.90833 5.3733 5.10167 5.56663L5.24833 5.7133L6.395 4.56663C6.58833 4.3733 6.90833 4.3733 7.10167 4.56663C7.295 4.75996 7.295 5.07996 7.10167 5.2733L5.60167 6.7733C5.50833 6.86663 5.38167 6.91996 5.24833 6.91996Z" fill="#005F73"/>
<path d="M12.2461 11.0801H8.74609C8.47276 11.0801 8.24609 10.8534 8.24609 10.5801C8.24609 10.3067 8.47276 10.0801 8.74609 10.0801H12.2461C12.5194 10.0801 12.7461 10.3067 12.7461 10.5801C12.7461 10.8534 12.5261 11.0801 12.2461 11.0801Z" fill="#005F73"/>
<path d="M5.24833 11.5867C5.12167 11.5867 4.995 11.54 4.895 11.44L4.395 10.94C4.20167 10.7467 4.20167 10.4267 4.395 10.2334C4.58833 10.04 4.90833 10.04 5.10167 10.2334L5.24833 10.38L6.395 9.23338C6.58833 9.04005 6.90833 9.04005 7.10167 9.23338C7.295 9.42671 7.295 9.74671 7.10167 9.94005L5.60167 11.44C5.50833 11.5334 5.38167 11.5867 5.24833 11.5867Z" fill="#005F73"/>
<path d="M10.4987 15.1666H6.4987C2.8787 15.1666 1.33203 13.6199 1.33203 9.99992V5.99992C1.33203 2.37992 2.8787 0.833252 6.4987 0.833252H10.4987C14.1187 0.833252 15.6654 2.37992 15.6654 5.99992V9.99992C15.6654 13.6199 14.1187 15.1666 10.4987 15.1666ZM6.4987 1.83325C3.42536 1.83325 2.33203 2.92659 2.33203 5.99992V9.99992C2.33203 13.0733 3.42536 14.1666 6.4987 14.1666H10.4987C13.572 14.1666 14.6654 13.0733 14.6654 9.99992V5.99992C14.6654 2.92659 13.572 1.83325 10.4987 1.83325H6.4987Z" fill="#005F73"/>
</svg>
