<svg width="20" height="20" viewBox="0 0 20 20" fill="none" xmlns="http://www.w3.org/2000/svg">
<path d="M9.87496 14.7917V14.2917H9.37496H8.01663C7.12628 14.2917 6.5788 14.0839 6.24766 13.7521C5.91628 13.4199 5.70829 12.87 5.70829 11.975V10.625V10.125H5.20829H3.84996C3.23393 10.125 2.65597 10.205 2.26334 10.5993C1.87145 10.9929 1.79163 11.572 1.79163 12.1917V16.15C1.79163 16.7661 1.87165 17.3434 2.26411 17.7358C2.65658 18.1283 3.23384 18.2083 3.84996 18.2083H7.80829C8.42792 18.2083 9.00705 18.1285 9.40066 17.7366C9.795 17.344 9.87496 16.766 9.87496 16.15V14.7917ZM7.80829 18.4583H3.84996C2.95962 18.4583 2.41183 18.2506 2.0806 17.9194C1.74936 17.5881 1.54163 17.0403 1.54163 16.15V12.1917C1.54163 11.2966 1.74962 10.7467 2.08099 10.4146C2.41213 10.0827 2.95961 9.875 3.84996 9.875H5.83329C5.86344 9.875 5.89472 9.88728 5.92036 9.91293C5.94601 9.93857 5.95829 9.96985 5.95829 10V11.975C5.95829 12.5946 6.03812 13.1738 6.43001 13.5674C6.82263 13.9617 7.4006 14.0417 8.01663 14.0417H9.99996C10.0301 14.0417 10.0614 14.054 10.087 14.0796C10.1127 14.1052 10.125 14.1365 10.125 14.1667V16.15C10.125 17.0404 9.91723 17.5878 9.58535 17.919C9.25322 18.2503 8.70334 18.4583 7.80829 18.4583Z" fill="#005F73" stroke="#005F73"/>
<path d="M11.975 14.7913H8.01671C6.10004 14.7913 5.20837 13.8997 5.20837 11.9747V8.01634C5.20837 6.09967 6.10004 5.20801 8.01671 5.20801H10C10.3417 5.20801 10.625 5.49134 10.625 5.83301V7.80801C10.625 9.02467 10.975 9.37467 12.1834 9.37467H14.1667C14.5084 9.37467 14.7917 9.65801 14.7917 9.99967V11.9747C14.7917 13.8997 13.9 14.7913 11.975 14.7913ZM8.01671 6.45801C6.80837 6.45801 6.45837 6.80801 6.45837 8.01634V11.9747C6.45837 13.1913 6.80837 13.5413 8.01671 13.5413H11.975C13.1917 13.5413 13.5417 13.1913 13.5417 11.9747V10.6247H12.1834C10.2667 10.6247 9.37504 9.73301 9.37504 7.80801V6.45801H8.01671Z" fill="#005F73"/>
<path d="M16.1417 10.6253H12.1833C10.2667 10.6253 9.375 9.73366 9.375 7.80866V3.85033C9.375 1.93366 10.2667 1.04199 12.1833 1.04199H16.1417C18.0667 1.04199 18.9583 1.93366 18.9583 3.85033V7.80866C18.9583 9.73366 18.0667 10.6253 16.1417 10.6253ZM12.1833 2.29199C10.975 2.29199 10.625 2.64199 10.625 3.85033V7.80866C10.625 9.02533 10.975 9.37533 12.1833 9.37533H16.1417C17.3583 9.37533 17.7083 9.02533 17.7083 7.80866V3.85033C17.7083 2.64199 17.3583 2.29199 16.1417 2.29199H12.1833Z" fill="#005F73"/>
</svg>
