<svg width="13" height="13" viewBox="0 0 13 13" fill="none" xmlns="http://www.w3.org/2000/svg">
<path d="M6.6001 12.0417C3.6351 12.0417 1.2251 9.63166 1.2251 6.66666C1.2251 3.70166 3.6351 1.29166 6.6001 1.29166C9.5651 1.29166 11.9751 3.70166 11.9751 6.66666C11.9751 9.63166 9.5651 12.0417 6.6001 12.0417ZM6.6001 2.04166C4.0501 2.04166 1.9751 4.11666 1.9751 6.66666C1.9751 9.21666 4.0501 11.2917 6.6001 11.2917C9.1501 11.2917 11.2251 9.21666 11.2251 6.66666C11.2251 4.11666 9.1501 2.04166 6.6001 2.04166Z" fill="#6CC24A"/>
<path d="M5.89007 8.45666C5.79007 8.45666 5.69507 8.41666 5.62507 8.34666L4.21007 6.93166C4.06507 6.78666 4.06507 6.54666 4.21007 6.40166C4.35507 6.25666 4.59507 6.25666 4.74007 6.40166L5.89007 7.55166L8.46007 4.98166C8.60507 4.83666 8.84507 4.83666 8.99007 4.98166C9.13507 5.12666 9.13507 5.36666 8.99007 5.51166L6.15507 8.34666C6.08507 8.41666 5.99007 8.45666 5.89007 8.45666Z" fill="#6CC24A"/>
</svg>
