<svg width="17" height="16" viewBox="0 0 17 16" fill="none" xmlns="http://www.w3.org/2000/svg">
<path d="M10.3327 15.1673H6.33268C2.71268 15.1673 1.16602 13.6207 1.16602 10.0007V6.00065C1.16602 2.38065 2.71268 0.833984 6.33268 0.833984H10.3327C13.9527 0.833984 15.4993 2.38065 15.4993 6.00065V10.0007C15.4993 13.6207 13.9527 15.1673 10.3327 15.1673ZM6.33268 1.83398C3.25935 1.83398 2.16602 2.92732 2.16602 6.00065V10.0007C2.16602 13.074 3.25935 14.1673 6.33268 14.1673H10.3327C13.406 14.1673 14.4993 13.074 14.4993 10.0007V6.00065C14.4993 2.92732 13.406 1.83398 10.3327 1.83398H6.33268Z" fill="url(#paint0_linear_6391_91576)"/>
<path d="M5.21942 10.16C5.11276 10.16 5.00609 10.1267 4.91276 10.0533C4.69276 9.88667 4.65276 9.57334 4.81942 9.35334L6.40609 7.29334C6.59942 7.04667 6.87276 6.88667 7.18609 6.84667C7.49276 6.80667 7.80609 6.89334 8.05276 7.08667L9.27276 8.04667C9.31942 8.08667 9.36609 8.08667 9.39942 8.08C9.42609 8.08 9.47276 8.06667 9.51276 8.01334L11.0528 6.02667C11.2194 5.80667 11.5394 5.76667 11.7528 5.94C11.9728 6.10667 12.0128 6.42 11.8394 6.64L10.2994 8.62667C10.1061 8.87334 9.83276 9.03334 9.51942 9.06667C9.20609 9.10667 8.89942 9.02 8.65276 8.82667L7.43276 7.86667C7.38609 7.82667 7.33276 7.82667 7.30609 7.83334C7.27942 7.83334 7.23276 7.84667 7.19276 7.90001L5.60609 9.96C5.51942 10.0933 5.37276 10.16 5.21942 10.16Z" fill="url(#paint1_linear_6391_91576)"/>
<defs>
<linearGradient id="paint0_linear_6391_91576" x1="1.58667" y1="14.371" x2="21.7891" y2="13.8478" gradientUnits="userSpaceOnUse">
<stop stop-color="#005F73"/>
<stop offset="1" stop-color="#6CC24A"/>
</linearGradient>
<linearGradient id="paint1_linear_6391_91576" x1="4.929" y1="9.91956" x2="15.1081" y2="9.47909" gradientUnits="userSpaceOnUse">
<stop stop-color="#005F73"/>
<stop offset="1" stop-color="#6CC24A"/>
</linearGradient>
</defs>
</svg>
