<svg width="13" height="12" viewBox="0 0 13 12" fill="none" xmlns="http://www.w3.org/2000/svg">
<rect x="1.04293" y="0.248981" width="11.413" height="11.413" rx="3.75" fill="white"/>
<rect x="1.04293" y="0.248981" width="11.413" height="11.413" rx="3.75" stroke="#6CC24A" stroke-width="0.326087"/>
<path fill-rule="evenodd" clip-rule="evenodd" d="M6.99186 6.1875V7.67075C6.99186 7.80457 6.88341 7.91304 6.74963 7.91304C6.61585 7.91304 6.5074 7.80457 6.5074 7.67075V6.1875H5.03016C4.90538 6.17458 4.81055 6.06939 4.81055 5.94391C4.81055 5.81842 4.90538 5.71324 5.03016 5.70032H6.5048V4.21967C6.51772 4.09485 6.62288 4 6.74833 4C6.87379 4 6.97894 4.09485 6.99186 4.21967V5.70032H8.4691C8.59389 5.71324 8.68872 5.81842 8.68872 5.94391C8.68872 6.06939 8.59389 6.17458 8.4691 6.1875H6.99186Z" fill="#383838"/>
</svg>
