<svg width="16" height="16" viewBox="0 0 16 16" fill="none" xmlns="http://www.w3.org/2000/svg">
<path d="M10.6666 8.5H5.33325C5.05992 8.5 4.83325 8.27333 4.83325 8C4.83325 7.72667 5.05992 7.5 5.33325 7.5H10.6666C10.9399 7.5 11.1666 7.72667 11.1666 8C11.1666 8.27333 10.9399 8.5 10.6666 8.5Z" fill="white"/>
<path d="M8 11.1667C7.72667 11.1667 7.5 10.94 7.5 10.6667V5.33337C7.5 5.06004 7.72667 4.83337 8 4.83337C8.27333 4.83337 8.5 5.06004 8.5 5.33337V10.6667C8.5 10.94 8.27333 11.1667 8 11.1667Z" fill="white"/>
<path d="M9.99992 15.1667H5.99992C2.37992 15.1667 0.833252 13.62 0.833252 10V6.00004C0.833252 2.38004 2.37992 0.833374 5.99992 0.833374H9.99992C13.6199 0.833374 15.1666 2.38004 15.1666 6.00004V10C15.1666 13.62 13.6199 15.1667 9.99992 15.1667ZM5.99992 1.83337C2.92659 1.83337 1.83325 2.92671 1.83325 6.00004V10C1.83325 13.0734 2.92659 14.1667 5.99992 14.1667H9.99992C13.0733 14.1667 14.1666 13.0734 14.1666 10V6.00004C14.1666 2.92671 13.0733 1.83337 9.99992 1.83337H5.99992Z" fill="white"/>
</svg>
