<svg width="13" height="12" viewBox="0 0 13 12" fill="none" xmlns="http://www.w3.org/2000/svg">
<path d="M8.5 6.375H4.5C4.295 6.375 4.125 6.205 4.125 6C4.125 5.795 4.295 5.625 4.5 5.625H8.5C8.705 5.625 8.875 5.795 8.875 6C8.875 6.205 8.705 6.375 8.5 6.375Z" fill="white"/>
<path d="M6.5 8.375C6.295 8.375 6.125 8.205 6.125 8V4C6.125 3.795 6.295 3.625 6.5 3.625C6.705 3.625 6.875 3.795 6.875 4V8C6.875 8.205 6.705 8.375 6.5 8.375Z" fill="white"/>
<path d="M8 11.375H5C2.285 11.375 1.125 10.215 1.125 7.5V4.5C1.125 1.785 2.285 0.625 5 0.625H8C10.715 0.625 11.875 1.785 11.875 4.5V7.5C11.875 10.215 10.715 11.375 8 11.375ZM5 1.375C2.695 1.375 1.875 2.195 1.875 4.5V7.5C1.875 9.805 2.695 10.625 5 10.625H8C10.305 10.625 11.125 9.805 11.125 7.5V4.5C11.125 2.195 10.305 1.375 8 1.375H5Z" fill="white"/>
</svg>
