<svg width="16" height="16" viewBox="0 0 16 16" fill="none" xmlns="http://www.w3.org/2000/svg">
<mask id="path-1-inside-1_11497_218630" fill="white">
<path d="M10.6666 8.5H5.33325C5.05992 8.5 4.83325 8.27333 4.83325 8C4.83325 7.72667 5.05992 7.5 5.33325 7.5H10.6666C10.9399 7.5 11.1666 7.72667 11.1666 8C11.1666 8.27333 10.9399 8.5 10.6666 8.5Z"/>
</mask>
<path d="M10.6666 8.5H5.33325C5.05992 8.5 4.83325 8.27333 4.83325 8C4.83325 7.72667 5.05992 7.5 5.33325 7.5H10.6666C10.9399 7.5 11.1666 7.72667 11.1666 8C11.1666 8.27333 10.9399 8.5 10.6666 8.5Z" fill="#005F73"/>
<path d="M10.6666 8.5V7.5H5.33325V8.5V9.5H10.6666V8.5ZM5.33325 8.5V7.5C5.6122 7.5 5.83325 7.72105 5.83325 8H4.83325H3.83325C3.83325 8.82562 4.50763 9.5 5.33325 9.5V8.5ZM4.83325 8H5.83325C5.83325 8.27895 5.6122 8.5 5.33325 8.5V7.5V6.5C4.50763 6.5 3.83325 7.17438 3.83325 8H4.83325ZM5.33325 7.5V8.5H10.6666V7.5V6.5H5.33325V7.5ZM10.6666 7.5V8.5C10.3876 8.5 10.1666 8.27895 10.1666 8H11.1666H12.1666C12.1666 7.17438 11.4922 6.5 10.6666 6.5V7.5ZM11.1666 8H10.1666C10.1666 7.72105 10.3876 7.5 10.6666 7.5V8.5V9.5C11.4922 9.5 12.1666 8.82562 12.1666 8H11.1666Z" fill="#005F73" mask="url(#path-1-inside-1_11497_218630)"/>
<path d="M8 11.1666C7.72667 11.1666 7.5 10.9399 7.5 10.6666V5.33325C7.5 5.05992 7.72667 4.83325 8 4.83325C8.27333 4.83325 8.5 5.05992 8.5 5.33325V10.6666C8.5 10.9399 8.27333 11.1666 8 11.1666Z" fill="#005F73"/>
<path d="M9.99992 15.1666H5.99992C2.37992 15.1666 0.833252 13.6199 0.833252 9.99992V5.99992C0.833252 2.37992 2.37992 0.833252 5.99992 0.833252H9.99992C13.6199 0.833252 15.1666 2.37992 15.1666 5.99992V9.99992C15.1666 13.6199 13.6199 15.1666 9.99992 15.1666ZM5.99992 1.83325C2.92659 1.83325 1.83325 2.92659 1.83325 5.99992V9.99992C1.83325 13.0733 2.92659 14.1666 5.99992 14.1666H9.99992C13.0733 14.1666 14.1666 13.0733 14.1666 9.99992V5.99992C14.1666 2.92659 13.0733 1.83325 9.99992 1.83325H5.99992Z" fill="#292D32"/>
</svg>
