<svg width="20" height="20" viewBox="0 0 20 20" fill="none" xmlns="http://www.w3.org/2000/svg">
<path d="M6.66699 13.4582H4.52533C3.49368 13.4582 2.76643 13.1757 2.29628 12.7064C1.82627 12.2372 1.54199 11.5102 1.54199 10.4748V4.52484C1.54199 3.49319 1.82445 2.76594 2.29377 2.29579C2.76295 1.82578 3.48996 1.5415 4.52533 1.5415H8.33366C9.3653 1.5415 10.0926 1.82396 10.5627 2.29329C11.0327 2.76246 11.317 3.48947 11.317 4.52484C11.317 4.55498 11.3047 4.58627 11.2791 4.61191C11.2534 4.63755 11.2221 4.64984 11.192 4.64984C11.1618 4.64984 11.1306 4.63755 11.1049 4.61191C11.0793 4.58626 11.067 4.55498 11.067 4.52484C11.067 3.68461 10.8902 2.96597 10.3914 2.46712C9.89253 1.96827 9.17389 1.7915 8.33366 1.7915H4.52533C3.6851 1.7915 2.96646 1.96827 2.46761 2.46712C1.96875 2.96597 1.79199 3.68461 1.79199 4.52484V10.4748C1.79199 11.3151 1.96875 12.0337 2.46761 12.5326C2.96646 13.0314 3.6851 13.2082 4.52533 13.2082H6.66699C6.69714 13.2082 6.72842 13.2205 6.75406 13.2461C6.77971 13.2717 6.79199 13.303 6.79199 13.3332C6.79199 13.3633 6.77971 13.3946 6.75406 13.4202C6.72842 13.4459 6.69714 13.4582 6.66699 13.4582Z" fill="white" stroke="white"/>
<path d="M15.4753 18.9582H11.6669C9.42526 18.9582 8.18359 17.7248 8.18359 15.4748V9.52484C8.18359 7.28317 9.41693 6.0415 11.6669 6.0415H15.4753C17.7169 6.0415 18.9586 7.27484 18.9586 9.52484V15.4748C18.9586 17.7248 17.7253 18.9582 15.4753 18.9582ZM11.6669 7.2915C10.1003 7.2915 9.43359 7.95817 9.43359 9.52484V15.4748C9.43359 17.0415 10.1003 17.7082 11.6669 17.7082H15.4753C17.0419 17.7082 17.7086 17.0415 17.7086 15.4748V9.52484C17.7086 7.95817 17.0419 7.2915 15.4753 7.2915H11.6669Z" fill="white"/>
<path d="M15.1087 13.125H12.4004C12.0587 13.125 11.7754 12.8417 11.7754 12.5C11.7754 12.1583 12.0587 11.875 12.4004 11.875H15.1087C15.4504 11.875 15.7337 12.1583 15.7337 12.5C15.7337 12.8417 15.4504 13.125 15.1087 13.125Z" fill="white"/>
<path d="M13.75 14.4832C13.4083 14.4832 13.125 14.1999 13.125 13.8582V11.1499C13.125 10.8082 13.4083 10.5249 13.75 10.5249C14.0917 10.5249 14.375 10.8082 14.375 11.1499V13.8582C14.375 14.1999 14.0917 14.4832 13.75 14.4832Z" fill="white"/>
</svg>
