<svg width="12" height="12" viewBox="0 0 12 12" fill="none" xmlns="http://www.w3.org/2000/svg">
<g clip-path="url(#clip0_3512_152825)">
<path d="M8.11135 6.26947L6.50503 7.07251C6.02322 7.31458 5.63229 7.70551 5.39023 8.18731L4.58707 9.79363C4.46719 10.0214 4.14355 10.0214 4.02367 9.79363L3.22051 8.18744C2.97844 7.70563 2.58751 7.3147 2.10571 7.07263L0.475507 6.26935C0.247748 6.14935 0.247748 5.82583 0.475507 5.70595L2.09371 4.91467C2.57551 4.67261 2.96644 4.28168 3.20851 3.79987L4.01167 2.19367C4.13167 1.96579 4.45519 1.96579 4.57507 2.19367L5.37823 3.79987C5.62029 4.28168 6.01122 4.67261 6.49303 4.91467L8.09935 5.71783C8.33911 5.82583 8.33911 6.16147 8.11135 6.26947ZM11.6236 9.86563L10.9283 9.51799C10.7242 9.40969 10.5571 9.24266 10.4488 9.03847L10.1012 8.34319C10.0532 8.24719 9.90943 8.24719 9.86143 8.34319L9.51379 9.03847C9.40548 9.24266 9.23845 9.40969 9.03427 9.51799L8.33899 9.86563C8.24299 9.91364 8.24299 10.0574 8.33899 10.1054L9.03427 10.453C9.23845 10.5613 9.40548 10.7284 9.51379 10.9326L9.86143 11.6278C9.90943 11.7237 10.0532 11.7237 10.1012 11.6278L10.4488 10.9326C10.5571 10.7284 10.7242 10.5613 10.9283 10.453L11.6236 10.1054C11.7195 10.0454 11.7195 9.91352 11.6236 9.86563ZM11.6236 1.89403L10.9283 1.54639C10.7242 1.43809 10.5571 1.27106 10.4488 1.06687L10.1012 0.371715C10.0532 0.275835 9.90943 0.275835 9.86143 0.371715L9.51379 1.06699C9.40548 1.27118 9.23845 1.43821 9.03427 1.54651L8.33899 1.89415C8.24299 1.94215 8.24299 2.08591 8.33899 2.13391L9.03427 2.48155C9.23845 2.58986 9.40548 2.75689 9.51379 2.96107L9.86143 3.65635C9.90943 3.75235 10.0532 3.75235 10.1012 3.65635L10.4488 2.96107C10.5571 2.75689 10.7242 2.58986 10.9283 2.48155L11.6236 2.13391C11.7195 2.07391 11.7195 1.94203 11.6236 1.89403Z" fill="#267E95"/>
</g>
<defs>
<clipPath id="clip0_3512_152825">
<rect width="12" height="12" fill="white"/>
</clipPath>
</defs>
</svg>
