<svg width="40" height="40" viewBox="0 0 40 40" fill="none" xmlns="http://www.w3.org/2000/svg">
<rect x="0.5" y="0.5" width="39" height="39" rx="19.5" stroke="#005F73"/>
<path fill-rule="evenodd" clip-rule="evenodd" d="M19.9939 8.62189C17.1098 8.62189 14.2324 9.60525 11.8891 11.5715C10.4787 12.7549 9.3887 14.1949 8.63167 15.7717C8.52661 15.7617 8.42437 15.7389 8.3165 15.7389C6.43276 15.7389 4.91602 17.2557 4.91602 19.1394V23.342C4.91602 25.2257 6.43276 26.7424 8.3165 26.7424C8.42438 26.7424 8.52661 26.7191 8.63167 26.7097C8.76721 26.9906 8.90745 27.2695 9.06551 27.5434C9.68339 28.6462 11.3341 27.702 10.6967 26.6103C8.08678 22.0898 9.09754 16.3614 13.0961 13.0062C17.0948 9.65088 22.9028 9.65088 26.9014 13.0062C30.9001 16.3614 31.9108 22.0897 29.3009 26.6103L29.2727 26.6571L29.2539 26.7039C29.2539 26.7039 27.9863 29.5081 25.4972 29.5081L22.3465 29.4799C22.051 29.0485 21.5781 28.748 21.0134 28.748H18.9824C18.0717 28.748 17.3391 29.483 17.3391 30.3937C17.3391 30.9554 17.6956 31.382 18.5112 31.382L25.4972 31.3825C29.2324 31.3825 30.8479 27.7155 30.9215 27.5458V27.5358C31.0781 27.2643 31.216 26.9854 31.3506 26.707C31.4604 26.717 31.5673 26.7397 31.6803 26.7397C33.564 26.7397 35.0808 25.223 35.0808 23.3393V19.1367C35.0808 17.253 33.564 15.7362 31.6803 15.7362C31.5715 15.7362 31.4688 15.7542 31.3628 15.769C30.6075 14.1921 29.5207 12.7523 28.1102 11.5688C25.767 9.60252 22.8775 8.61914 19.9933 8.61914L19.9939 8.62189ZM15.8955 14.5963C15.1635 14.5485 14.4948 14.7032 13.9105 15.3185C12.3524 16.9589 11.3898 19.1915 11.3898 21.5692C11.3898 23.5304 12.0453 25.728 13.1494 25.8082C14.7224 25.9226 17.2047 24.8896 19.9988 24.8896C22.9597 24.8896 25.5725 26.0487 27.122 25.7743C28.061 25.6083 28.6101 23.3636 28.6101 21.5692C28.6101 19.1915 27.6452 16.9589 26.0871 15.3185C24.529 13.6781 22.3764 15.3185 19.9988 15.3185C18.5128 15.3185 17.1155 14.6764 15.8955 14.5963ZM15.5465 18.6389C16.4152 18.6393 17.1192 19.3433 17.1195 20.212C17.1192 21.0806 16.4152 21.7846 15.5465 21.7849C14.6779 21.7846 13.9739 21.0806 13.9736 20.212C13.9739 19.3433 14.6779 18.6393 15.5465 18.6389ZM24.4512 18.6389C25.3198 18.6393 26.0238 19.3433 26.0242 20.212C26.0238 21.0806 25.3198 21.7846 24.4512 21.7849C23.5825 21.7846 22.8785 21.0806 22.8782 20.212C22.8785 19.3433 23.5825 18.6393 24.4512 18.6389Z" fill="#005F73"/>
</svg>
