<svg width="12" height="12" viewBox="0 0 12 12" fill="none" xmlns="http://www.w3.org/2000/svg">
<path d="M11 11.375H1C0.795 11.375 0.625 11.205 0.625 11C0.625 10.795 0.795 10.625 1 10.625H11C11.205 10.625 11.375 10.795 11.375 11C11.375 11.205 11.205 11.375 11 11.375Z" fill="#FFAB2C"/>
<path d="M10.5 11.375H1.5C1.295 11.375 1.125 11.205 1.125 11V7.5C1.125 4.81 3.31 2.625 6 2.625C8.69 2.625 10.875 4.81 10.875 7.5V11C10.875 11.205 10.705 11.375 10.5 11.375ZM1.875 10.625H10.125V7.5C10.125 5.225 8.275 3.375 6 3.375C3.725 3.375 1.875 5.225 1.875 7.5V10.625Z" fill="#FFAB2C"/>
<path d="M6 1.875C5.795 1.875 5.625 1.705 5.625 1.5V1C5.625 0.795 5.795 0.625 6 0.625C6.205 0.625 6.375 0.795 6.375 1V1.5C6.375 1.705 6.205 1.875 6 1.875Z" fill="#FFAB2C"/>
<path d="M2.49973 2.87375C2.40473 2.87375 2.30973 2.83875 2.23473 2.76375L1.73473 2.26375C1.58973 2.11875 1.58973 1.87875 1.73473 1.73375C1.87973 1.58875 2.11973 1.58875 2.26473 1.73375L2.76473 2.23375C2.90973 2.37875 2.90973 2.61875 2.76473 2.76375C2.68973 2.83875 2.59473 2.87375 2.49973 2.87375Z" fill="#F4A261"/>
<path d="M9.49973 2.87375C9.40473 2.87375 9.30973 2.83875 9.23473 2.76375C9.08973 2.61875 9.08973 2.37875 9.23473 2.23375L9.73473 1.73375C9.87973 1.58875 10.1197 1.58875 10.2647 1.73375C10.4097 1.87875 10.4097 2.11875 10.2647 2.26375L9.76473 2.76375C9.68973 2.83875 9.59473 2.87375 9.49973 2.87375Z" fill="#F4A261"/>
</svg>
