<svg width="20" height="20" viewBox="0 0 20 20" fill="none" xmlns="http://www.w3.org/2000/svg">
<path d="M12.417 18.9582H7.58366C6.842 18.9582 5.89199 18.5665 5.37532 18.0415L1.95866 14.6248C1.43366 14.0998 1.04199 13.1498 1.04199 12.4165V7.58318C1.04199 6.84151 1.43366 5.89151 1.95866 5.37485L5.37532 1.95818C5.90032 1.43318 6.85033 1.0415 7.58366 1.0415H12.417C13.1587 1.0415 14.1087 1.43318 14.6253 1.95818L18.042 5.37485C18.567 5.89985 18.9587 6.84984 18.9587 7.58318V12.4165C18.9587 13.1582 18.567 14.1082 18.042 14.6248L14.6253 18.0415C14.1003 18.5665 13.1587 18.9582 12.417 18.9582ZM7.58366 2.2915C7.17533 2.2915 6.54199 2.54984 6.25865 2.84151L2.842 6.25818C2.55866 6.54985 2.29199 7.17484 2.29199 7.58318V12.4165C2.29199 12.8248 2.55033 13.4582 2.842 13.7415L6.25865 17.1582C6.55032 17.4415 7.17533 17.7082 7.58366 17.7082H12.417C12.8253 17.7082 13.4587 17.4498 13.742 17.1582L17.1587 13.7415C17.442 13.4498 17.7087 12.8248 17.7087 12.4165V7.58318C17.7087 7.17484 17.4503 6.54151 17.1587 6.25818L13.742 2.84151C13.4503 2.55817 12.8253 2.2915 12.417 2.2915H7.58366Z" fill="#6CC24A"/>
<path d="M4.11706 16.5249C3.95872 16.5249 3.80039 16.4666 3.67539 16.3416C3.43372 16.0999 3.43372 15.6999 3.67539 15.4582L15.4587 3.6749C15.7004 3.43324 16.1004 3.43324 16.3421 3.6749C16.5837 3.91657 16.5837 4.31657 16.3421 4.55823L4.55872 16.3416C4.43372 16.4666 4.27539 16.5249 4.11706 16.5249Z" fill="#6CC24A"/>
<path d="M15.5 10C15.5 13.0376 13.0376 15.5 10 15.5C6.96243 15.5 4.5 13.0376 4.5 10C4.5 6.96243 6.96243 4.5 10 4.5C13.0376 4.5 15.5 6.96243 15.5 10Z" stroke="#6CC24A" stroke-linecap="round" stroke-linejoin="round"/>
<path d="M10.5 9C10.5 9.82843 9.82843 10.5 9 10.5C8.17157 10.5 7.5 9.82843 7.5 9C7.5 8.17157 8.17157 7.5 9 7.5C9.82843 7.5 10.5 8.17157 10.5 9Z" stroke="#6CC24A" stroke-linecap="round" stroke-linejoin="round"/>
<path d="M13.5 10.25C13.5 10.6642 13.1642 11 12.75 11C12.3358 11 12 10.6642 12 10.25C12 9.83579 12.3358 9.5 12.75 9.5C13.1642 9.5 13.5 9.83579 13.5 10.25Z" stroke="#6CC24A" stroke-linecap="round" stroke-linejoin="round"/>
<path d="M11 12.75C11 13.1642 10.6642 13.5 10.25 13.5C9.83579 13.5 9.5 13.1642 9.5 12.75C9.5 12.3358 9.83579 12 10.25 12C10.6642 12 11 12.3358 11 12.75Z" stroke="#6CC24A" stroke-linecap="round" stroke-linejoin="round"/>
</svg>
