<svg width="154" height="126" viewBox="0 0 154 126" fill="none" xmlns="http://www.w3.org/2000/svg">
<g opacity="0.8">
<path d="M77 125.451C119.526 125.451 154 105.199 154 80.2159C154 55.2331 119.526 34.9805 77 34.9805C34.4741 34.9805 0 55.2331 0 80.2159C0 105.199 34.4741 125.451 77 125.451Z" fill="#F5F5F5"/>
<path d="M26.107 97.7926C28.0115 98.1703 30.0097 98.0702 31.9175 98.4544C33.2243 98.7535 34.5022 99.1672 35.7364 99.6907C36.8555 100.121 37.9724 100.56 39.0872 101.008C39.3099 101.095 41.9925 102.018 41.9925 102.144C46.5118 103.829 51.1022 106.253 56.0799 105.963C56.6683 105.928 57.2439 105.777 57.773 105.517C58.3021 105.257 58.7742 104.895 59.1616 104.451C59.549 104.006 59.844 103.489 60.0293 102.93C60.2146 102.37 60.2866 101.779 60.2409 101.192C60.1699 100.246 59.7922 99.3098 59.9181 98.3672C60.2894 95.8428 62.6071 96.1075 64.4698 96.5369C65.5576 96.7887 66.6294 97.0953 67.6979 97.4375C70.4934 98.3349 73.4374 99.1742 75.6616 101.198C77.0917 102.49 78.4701 103.016 80.4037 103.232C81.7498 103.384 83.0798 103.468 84.371 103.916C85.6623 104.365 86.7534 105.208 87.922 105.853C89.5367 106.718 91.3589 107.121 93.1878 107.017C95.0167 106.912 96.7814 106.305 98.2874 105.262C98.7878 104.907 99.301 104.388 99.2042 103.781C98.9653 102.322 96.5216 102.025 95.4854 101.411C93.6163 100.301 91.7376 99.2001 89.8459 98.1251C86.0583 95.973 82.2276 93.9071 78.3538 91.9272C74.2154 89.8063 70.0156 87.7758 65.6416 86.1908C63.4884 85.4096 61.0318 84.7511 58.9723 85.7582C57.3098 86.5685 56.6545 88.1083 55.5763 89.477C54.5724 90.7489 53.2715 92.0595 51.7962 92.7794C50.6212 93.3475 49.288 93.4831 47.9838 93.5412C43.6549 93.7349 39.3228 93.2184 35.0714 92.4243C33.2701 92.1015 31.4495 91.7044 29.6191 91.8174C27.6564 91.9368 24.4542 92.4404 23.3663 94.3353C23.1813 94.6306 23.0573 94.9598 23.0015 95.3038C22.9868 95.5848 23.0374 95.8655 23.1494 96.1237C23.2615 96.3819 23.4318 96.6106 23.6471 96.7919C24.0792 97.1532 24.5866 97.4135 25.1321 97.5537C25.4526 97.6507 25.778 97.7304 26.107 97.7926Z" fill="#E0E0E0"/>
<path d="M123.91 81.8009C127.759 81.8009 130.879 79.9986 130.879 77.7754C130.879 75.5523 127.759 73.75 123.91 73.75C120.061 73.75 116.94 75.5523 116.94 77.7754C116.94 79.9986 120.061 81.8009 123.91 81.8009Z" fill="#E0E0E0"/>
<path d="M118.511 103.38L117.372 102.735C116.6 102.289 116.6 101.566 117.372 101.121L119.896 99.6519L110.728 94.3449L108.194 95.8105C107.761 96.0303 107.282 96.1448 106.797 96.1448C106.311 96.1448 105.832 96.0303 105.399 95.8105L104.259 95.1649C103.488 94.7194 103.488 93.9963 104.259 93.5508L111.955 89.096C112.388 88.8762 112.867 88.7617 113.353 88.7617C113.839 88.7617 114.317 88.8762 114.751 89.096L115.887 89.7416C116.662 90.1871 116.662 90.9102 115.887 91.3557L113.088 92.9697L122.266 98.2703L125.068 96.6562C125.501 96.4365 125.98 96.3219 126.465 96.3219C126.951 96.3219 127.43 96.4365 127.863 96.6562L129.003 97.3019C129.774 97.7473 129.774 98.4704 129.003 98.9159L121.307 103.358C120.876 103.581 120.398 103.699 119.912 103.703C119.426 103.707 118.946 103.597 118.511 103.38Z" fill="#E0E0E0"/>
<path d="M137.993 58.3923L134.917 56.6168C134.917 56.6168 134.165 50.0315 134.665 44.9311C135.369 37.7615 139.998 29.1392 145.521 31.1632C151.044 33.1872 142.987 40.4892 141.195 46.5677C139.404 52.6463 137.993 58.3923 137.993 58.3923Z" fill="#06C78D"/>
<path opacity="0.15" d="M137.993 58.3923L134.917 56.6168C134.917 56.6168 134.165 50.0315 134.665 44.9311C135.369 37.7615 139.998 29.1392 145.521 31.1632C151.044 33.1872 142.987 40.4892 141.195 46.5677C139.404 52.6463 137.993 58.3923 137.993 58.3923Z" fill="black"/>
<path d="M136.375 57.6451C136.423 57.6426 136.469 57.6213 136.502 57.5858C136.535 57.5503 136.553 57.5032 136.552 57.4547C136.013 41.5272 143.941 33.5183 144.022 33.4376C144.051 33.4018 144.065 33.3566 144.063 33.3106C144.061 33.2647 144.042 33.2212 144.009 33.1885C143.977 33.1557 143.934 33.1361 143.888 33.1332C143.842 33.1303 143.797 33.1444 143.76 33.1729C143.677 33.2536 135.635 41.3787 136.181 57.4676C136.182 57.492 136.187 57.5161 136.198 57.5383C136.208 57.5605 136.222 57.5805 136.24 57.597C136.258 57.6136 136.28 57.6263 136.303 57.6346C136.326 57.6428 136.35 57.6464 136.375 57.6451Z" fill="white"/>
<path d="M139.927 59.499L137.739 58.2335C137.739 58.2335 137.364 53.7142 139.582 48.2264C141.519 43.4456 146.296 39.4815 148.705 40.3143C151.113 41.1472 151.051 42.8549 149.876 44.6432C148.701 46.4316 141.564 50.7024 139.927 59.499Z" fill="#06C78D"/>
<path d="M138.771 59.0192C138.821 59.0192 138.869 58.9995 138.904 58.9644C138.939 58.9292 138.959 58.8816 138.959 58.832C138.913 48.7635 148.369 41.9587 148.465 41.8909C148.485 41.8765 148.502 41.8583 148.515 41.8373C148.528 41.8164 148.537 41.7931 148.541 41.7688C148.544 41.7445 148.543 41.7197 148.538 41.6958C148.532 41.6719 148.522 41.6493 148.507 41.6294C148.494 41.6092 148.476 41.592 148.455 41.5789C148.434 41.5658 148.411 41.557 148.387 41.5531C148.363 41.5492 148.338 41.5502 148.315 41.5561C148.291 41.562 148.269 41.5727 148.249 41.5874C148.152 41.6552 138.542 48.573 138.584 58.8352C138.586 58.884 138.606 58.9304 138.641 58.9646C138.676 58.9989 138.723 59.0184 138.771 59.0192Z" fill="white"/>
<path d="M20.5379 55.549L23.1204 54.0512C23.1204 54.0512 24.6667 47.6402 24.0598 41.8587C23.1947 33.7464 17.8522 30.6959 15.8217 31.3931C13.7912 32.0904 13.2037 34.4534 16.5642 39.2859C18.5333 42.146 20.9834 48.0857 20.5379 55.549Z" fill="#06C78D"/>
<g opacity="0.15">
<path d="M20.5379 55.549L23.1204 54.0512C23.1204 54.0512 24.6667 47.6402 24.0598 41.8587C23.1947 33.7464 17.8522 30.6959 15.8217 31.3931C13.7912 32.0904 13.2037 34.4534 16.5642 39.2859C18.5333 42.146 20.9834 48.0857 20.5379 55.549Z" fill="black"/>
</g>
<path d="M21.6125 52.3973H21.5867C21.5629 52.3938 21.5401 52.3856 21.5196 52.373C21.4991 52.3604 21.4814 52.3438 21.4675 52.3242C21.4536 52.3046 21.4438 52.2824 21.4388 52.2589C21.4338 52.2354 21.4336 52.2111 21.4382 52.1875C22.8585 44.7048 20.2438 36.2988 17.006 32.7995C16.9767 32.7639 16.9621 32.7185 16.9653 32.6725C16.9684 32.6265 16.9889 32.5834 17.0227 32.5521C17.0565 32.5208 17.101 32.5035 17.1471 32.5039C17.1932 32.5043 17.2374 32.5223 17.2707 32.5542C20.5666 36.1051 23.233 44.6628 21.79 52.2456C21.7845 52.2884 21.7632 52.3276 21.7304 52.3556C21.6976 52.3836 21.6556 52.3985 21.6125 52.3973Z" fill="white"/>
<path d="M13.7453 59.4723C13.3354 59.6822 12.2443 58.7492 11.9408 58.5233C11.4204 58.1292 11.0102 57.6078 10.7496 57.0093C10.4612 56.3298 10.3891 55.578 10.543 54.8561C10.6246 54.4747 10.7324 54.0993 10.8659 53.7328C10.9918 53.368 11.1144 53.0064 11.2403 52.6449C11.3866 52.2942 11.4601 51.9176 11.4566 51.5377C11.3985 50.779 10.7561 50.2174 10.1654 49.7299C9.51974 49.1908 8.85152 48.4903 8.89994 47.58C8.99318 46.8801 9.31555 46.2308 9.81673 45.7335C10.2783 45.2041 10.8174 44.7425 11.2403 44.184C11.5658 43.7878 11.7468 43.2926 11.7536 42.7798C11.7267 42.4659 11.6366 42.1607 11.4889 41.8824C11.1495 41.3007 10.857 40.693 10.6141 40.065C10.4236 39.4193 10.4946 38.6285 11.0144 38.1991C11.4405 37.8473 12.0473 37.8247 12.5994 37.8763C13.1115 37.9659 13.5983 38.1652 14.0262 38.4606C15.4304 39.3354 16.1664 41.0883 17.6643 41.7823C18.2644 42.0063 18.8778 42.1928 19.501 42.3408C20.1112 42.5345 20.7213 42.8799 20.9763 43.4642C21.4831 44.6134 20.3694 45.9466 20.7051 47.1571C21.0021 48.2288 21.9964 48.684 22.5322 49.6621C22.7459 50.0938 22.816 50.5824 22.7324 51.0567C22.6411 51.8612 22.4037 52.6423 22.0319 53.3615C21.6145 54.0985 21.152 54.809 20.647 55.4889L13.7453 59.4723Z" fill="#06C78D"/>
<path d="M17.7102 57.4033C17.662 57.3992 17.6173 57.3762 17.5859 57.3393C17.5544 57.3024 17.5388 57.2547 17.5424 57.2064C18.188 50.0884 15.2375 42.0343 12.9101 39.6358C12.8763 39.6019 12.8574 39.5561 12.8574 39.5083C12.8574 39.4605 12.8763 39.4146 12.9101 39.3808C12.9439 39.347 12.9898 39.3281 13.0376 39.3281C13.0854 39.3281 13.1312 39.347 13.1651 39.3808C15.5377 41.8567 18.5657 50.0206 17.8846 57.2386C17.8813 57.2829 17.8617 57.3243 17.8294 57.3548C17.7971 57.3853 17.7546 57.4026 17.7102 57.4033Z" fill="white"/>
<path d="M17.006 48.6382C16.9889 48.6413 16.9714 48.6413 16.9544 48.6382C15.2885 48.0872 13.5674 47.7202 11.8217 47.5439C11.7979 47.5419 11.7748 47.5352 11.7536 47.5241C11.7324 47.5131 11.7136 47.498 11.6983 47.4797C11.683 47.4614 11.6715 47.4403 11.6644 47.4175C11.6573 47.3947 11.6548 47.3707 11.657 47.347C11.6581 47.323 11.6642 47.2995 11.675 47.278C11.6858 47.2566 11.7009 47.2376 11.7195 47.2224C11.7381 47.2071 11.7596 47.196 11.7828 47.1897C11.806 47.1833 11.8302 47.1819 11.8539 47.1856C13.6305 47.3644 15.382 47.7379 17.077 48.2993C17.1164 48.315 17.149 48.344 17.1691 48.3813C17.1892 48.4186 17.1956 48.4617 17.1872 48.5033C17.1787 48.5448 17.1559 48.582 17.1228 48.6085C17.0897 48.6349 17.0484 48.6489 17.006 48.6479V48.6382Z" fill="white"/>
<path d="M113.828 84.9059C113.221 82.927 110.752 81.2904 108.441 81.936C108.077 82.0382 107.727 82.1868 107.401 82.3783C105.158 83.6695 103.343 86.8169 103.343 89.4058C103.336 89.843 103.397 90.2787 103.524 90.6971C104.128 92.6759 106.601 94.3029 108.912 93.654C109.276 93.5518 109.625 93.4032 109.951 93.2118C112.192 91.9205 114.009 88.7699 114.009 86.181C114.014 85.7492 113.953 85.3192 113.828 84.9059Z" fill="#455A64"/>
<path d="M109.947 93.2074C112.188 91.9162 114.005 88.7655 114.005 86.1766C114.005 83.5877 112.188 82.5385 109.947 83.8298C107.707 85.121 105.89 88.2684 105.89 90.8574C105.89 93.4463 107.707 94.5019 109.947 93.2074Z" fill="#909090"/>
<path d="M109.949 86.701C110.811 86.2039 111.508 86.6074 111.508 87.6049C111.479 88.1461 111.322 88.6728 111.051 89.1423C110.781 89.6118 110.403 90.0107 109.949 90.3068C109.087 90.804 108.39 90.4004 108.39 89.4062C108.419 88.8645 108.575 88.3374 108.846 87.8674C109.117 87.3974 109.495 86.9978 109.949 86.701Z" fill="#455A64"/>
<path d="M110.479 88.1959C110.47 88.3813 110.416 88.5618 110.324 88.7228C110.231 88.8837 110.102 89.0206 109.947 89.1223C109.896 89.1592 109.836 89.1829 109.774 89.1913C109.711 89.1998 109.648 89.1927 109.588 89.1708L109.55 89.1482C109.503 89.1089 109.466 89.0593 109.442 89.0032C109.418 88.9472 109.407 88.8863 109.411 88.8254C109.422 88.6398 109.476 88.4594 109.569 88.2985C109.662 88.1377 109.791 88.0008 109.947 87.8989C109.998 87.8623 110.058 87.839 110.12 87.8311C110.183 87.8232 110.246 87.831 110.305 87.8537L110.344 87.8731C110.39 87.9124 110.427 87.9622 110.45 88.0183C110.474 88.0743 110.484 88.1352 110.479 88.1959Z" fill="#909090"/>
<path d="M119.053 93.1445C119.043 93.3299 118.99 93.5103 118.897 93.6713C118.805 93.8322 118.676 93.9691 118.521 94.071C118.451 94.1158 118.371 94.1404 118.288 94.142C118.225 94.1408 118.164 94.123 118.111 94.0904L109.588 89.1708L109.55 89.1482C109.503 89.1089 109.466 89.0593 109.442 89.0032C109.418 88.9472 109.407 88.8863 109.411 88.8254C109.422 88.6398 109.476 88.4594 109.569 88.2985C109.662 88.1377 109.791 88.0008 109.947 87.8989C109.998 87.8623 110.058 87.839 110.12 87.8311C110.183 87.8232 110.246 87.831 110.305 87.8537L110.344 87.8731L118.866 92.7927C118.927 92.8278 118.977 92.8794 119.01 92.9416C119.043 93.0039 119.058 93.0742 119.053 93.1445Z" fill="#FAFAFA"/>
<path d="M127.418 92.7476C126.815 90.7688 124.342 89.1322 122.03 89.781C121.666 89.8837 121.315 90.0323 120.988 90.2233C118.747 91.5145 116.93 94.6651 116.93 97.2541C116.924 97.6912 116.985 98.1266 117.111 98.5453C117.718 100.524 120.187 102.151 122.499 101.505C122.863 101.404 123.212 101.255 123.538 101.063C125.778 99.772 127.596 96.6214 127.596 94.0356C127.603 93.5997 127.543 93.1653 127.418 92.7476Z" fill="#455A64"/>
<path d="M123.541 101.055C125.781 99.7639 127.599 96.6133 127.599 94.0276C127.599 91.4419 125.781 90.3895 123.541 91.6808C121.301 92.972 119.48 96.1226 119.483 98.7116C119.487 101.301 121.298 102.35 123.541 101.055Z" fill="#909090"/>
<path d="M123.541 94.5533C124.403 94.0561 125.1 94.4564 125.1 95.4539C125.071 95.9951 124.914 96.5218 124.644 96.9913C124.373 97.4608 123.995 97.8597 123.541 98.1558C122.679 98.6529 121.979 98.2494 121.979 97.2552C122.008 96.7137 122.165 96.1869 122.437 95.7175C122.708 95.248 123.087 94.8492 123.541 94.5533Z" fill="#455A64"/>
<path d="M124.085 96.0456C124.075 96.2309 124.021 96.4113 123.929 96.5723C123.836 96.7332 123.707 96.8701 123.552 96.972C123.501 97.0089 123.442 97.0326 123.379 97.041C123.317 97.0495 123.253 97.0424 123.194 97.0204C123.18 97.0156 123.166 97.0079 123.155 96.9978C123.108 96.9586 123.071 96.909 123.047 96.8529C123.023 96.7969 123.013 96.7359 123.016 96.675C123.026 96.4889 123.08 96.3077 123.173 96.1462C123.266 95.9847 123.396 95.8474 123.552 95.7453C123.603 95.7095 123.662 95.6867 123.724 95.6789C123.786 95.671 123.849 95.6783 123.907 95.7002L123.946 95.7227C123.993 95.7615 124.031 95.811 124.055 95.8672C124.079 95.9234 124.089 95.9846 124.085 96.0456Z" fill="#909090"/>
<path d="M125.376 96.7945C125.366 96.9795 125.313 97.1595 125.22 97.32C125.128 97.4804 124.999 97.6167 124.843 97.7177C124.774 97.7625 124.694 97.7871 124.611 97.7887C124.548 97.7892 124.486 97.7712 124.433 97.7371L123.194 97.0204C123.18 97.0156 123.166 97.0079 123.155 96.9978C123.108 96.9586 123.071 96.909 123.047 96.8529C123.023 96.7969 123.013 96.7359 123.016 96.675C123.026 96.4889 123.08 96.3077 123.173 96.1462C123.266 95.9847 123.396 95.8474 123.552 95.7453C123.603 95.7095 123.662 95.6867 123.724 95.6789C123.786 95.671 123.849 95.6783 123.907 95.7002L123.946 95.7227L125.189 96.4362C125.251 96.472 125.301 96.5247 125.334 96.5882C125.368 96.6516 125.382 96.7231 125.376 96.7945Z" fill="#FAFAFA"/>
<path d="M125.38 96.7874C125.37 96.9733 125.317 97.1544 125.225 97.3159C125.132 97.4774 125.003 97.6149 124.847 97.7171C124.796 97.7529 124.736 97.7757 124.674 97.7836C124.611 97.7915 124.548 97.7842 124.489 97.7623L124.45 97.7397C124.403 97.7008 124.366 97.6512 124.342 97.5951C124.318 97.539 124.307 97.4779 124.311 97.4169C124.322 97.2313 124.376 97.0508 124.469 96.8899C124.562 96.729 124.692 96.5922 124.847 96.4904C124.898 96.4536 124.958 96.4299 125.02 96.4214C125.083 96.413 125.147 96.4201 125.206 96.442L125.244 96.4646C125.291 96.504 125.327 96.5537 125.351 96.6098C125.374 96.6659 125.384 96.7267 125.38 96.7874Z" fill="#E0E0E0"/>
<path d="M128.81 69.1736C128.609 68.4469 128.336 67.7419 127.996 67.0689C127.961 66.9914 127.922 66.9139 127.883 66.8397C127.559 66.2088 127.395 65.5079 127.405 64.7987C127.415 64.0895 127.599 63.3937 127.941 62.7723L128.016 62.6431C128.44 61.9172 128.658 61.0888 128.645 60.2479C128.619 59.7884 128.481 59.3423 128.243 58.9485C128.005 58.5546 127.674 58.225 127.28 57.9882C127.072 57.8653 126.857 57.7575 126.634 57.6654C126.432 57.586 126.259 57.4479 126.136 57.2689C126.014 57.09 125.947 56.8784 125.946 56.6615V55.4219H121.979V56.6615C121.977 56.8782 121.91 57.0894 121.786 57.2673C121.662 57.4452 121.488 57.5817 121.285 57.659C121.062 57.7426 120.846 57.8441 120.639 57.9624C120.241 58.197 119.907 58.5258 119.665 58.9197C119.424 59.3137 119.283 59.7609 119.255 60.2221C119.236 61.0622 119.447 61.8916 119.865 62.6206L119.932 62.74C120.273 63.3645 120.454 64.0633 120.46 64.7745C120.465 65.4857 120.295 66.1873 119.965 66.8171C119.926 66.8946 119.887 66.9688 119.852 67.0463C119.505 67.7158 119.227 68.4188 119.022 69.1445C118.88 69.8477 118.815 70.5643 118.828 71.2816L118.825 77.047C118.825 77.7959 119.313 78.548 120.297 79.1194C121.182 79.6042 122.161 79.8906 123.167 79.9587C123.644 79.9974 124.123 79.9974 124.6 79.9587C125.599 79.896 126.572 79.6186 127.454 79.1452C128.445 78.5803 128.942 77.8346 128.945 77.0857V72.9085C128.945 72.3888 128.968 71.8465 128.971 71.2945C128.994 70.5838 128.94 69.8726 128.81 69.1736Z" fill="#FFD8E4"/>
<path opacity="0.3" d="M128.81 69.1736C128.609 68.4469 128.336 67.7419 127.996 67.0689C127.961 66.9914 127.922 66.9139 127.883 66.8397C127.559 66.2088 127.395 65.5079 127.405 64.7987C127.415 64.0895 127.599 63.3937 127.941 62.7723L128.016 62.6431C128.44 61.9172 128.658 61.0888 128.645 60.2479C128.619 59.7884 128.481 59.3423 128.243 58.9485C128.005 58.5546 127.674 58.225 127.28 57.9882C127.072 57.8653 126.857 57.7575 126.634 57.6654C126.432 57.586 126.259 57.4479 126.136 57.2689C126.014 57.09 125.947 56.8784 125.946 56.6615V55.4219H121.979V56.6615C121.977 56.8782 121.91 57.0894 121.786 57.2673C121.662 57.4452 121.488 57.5817 121.285 57.659C121.062 57.7426 120.846 57.8441 120.639 57.9624C120.241 58.197 119.907 58.5258 119.665 58.9197C119.424 59.3137 119.283 59.7609 119.255 60.2221C119.236 61.0622 119.447 61.8916 119.865 62.6206L119.932 62.74C120.273 63.3645 120.454 64.0633 120.46 64.7745C120.465 65.4857 120.295 66.1873 119.965 66.8171C119.926 66.8946 119.887 66.9688 119.852 67.0463C119.505 67.7158 119.227 68.4188 119.022 69.1445C118.88 69.8477 118.815 70.5643 118.828 71.2816L118.825 77.047C118.825 77.7959 119.313 78.548 120.297 79.1194C121.182 79.6042 122.161 79.8906 123.167 79.9587C123.644 79.9974 124.123 79.9974 124.6 79.9587C125.599 79.896 126.572 79.6186 127.454 79.1452C128.445 78.5803 128.942 77.8346 128.945 77.0857V72.9085C128.945 72.3888 128.968 71.8465 128.971 71.2945C128.994 70.5838 128.94 69.8726 128.81 69.1736Z" fill="black"/>
<path opacity="0.1" d="M127.941 62.7736L128.015 62.6444C128.375 62.0258 128.586 61.3317 128.632 60.6172C128.54 60.9051 128.413 61.1806 128.254 61.4371C127.766 62.1536 127.163 62.7841 126.469 63.303C125.788 63.8582 125.032 64.4877 124.948 65.3625C124.864 66.2373 125.462 66.9766 126.14 67.4866C126.817 67.9966 127.612 68.3582 128.222 68.9489C128.482 69.211 128.713 69.4999 128.912 69.8108C128.89 69.5939 128.855 69.3783 128.809 69.1652C128.609 68.4383 128.336 67.7333 127.996 67.0605C127.96 66.983 127.921 66.9055 127.883 66.8313C127.56 66.2016 127.397 65.5025 127.407 64.7952C127.417 64.0879 127.601 63.3938 127.941 62.7736Z" fill="black"/>
<path d="M121.322 56.8009V57.4691C121.322 57.8662 121.581 58.2665 122.11 58.5764C122.7 58.8768 123.353 59.0334 124.015 59.0334C124.677 59.0334 125.329 58.8768 125.919 58.5764C126.154 58.4525 126.357 58.277 126.513 58.0631C126.639 57.8949 126.709 57.6918 126.713 57.482V56.8041C126.715 56.7433 126.708 56.6825 126.694 56.6233C126.64 56.4241 126.544 56.2386 126.413 56.0794C126.281 55.9202 126.118 55.7909 125.932 55.7001L125.893 55.6775C125.307 55.3861 124.661 55.2344 124.007 55.2344C123.352 55.2344 122.706 55.3861 122.12 55.6775C121.933 55.766 121.767 55.8936 121.634 56.0518C121.501 56.21 121.403 56.395 121.348 56.5943C121.33 56.6616 121.321 56.7312 121.322 56.8009Z" fill="#FFD8E4"/>
<path opacity="0.1" d="M121.322 56.8009V57.4691C121.322 57.8662 121.581 58.2665 122.11 58.5764C122.7 58.8768 123.353 59.0334 124.015 59.0334C124.677 59.0334 125.329 58.8768 125.919 58.5764C126.154 58.4525 126.357 58.277 126.513 58.0631C126.639 57.8949 126.709 57.6918 126.713 57.482V56.8041C126.715 56.7433 126.708 56.6825 126.694 56.6233C126.64 56.4241 126.544 56.2386 126.413 56.0794C126.281 55.9202 126.118 55.7909 125.932 55.7001L125.893 55.6775C125.307 55.3861 124.661 55.2344 124.007 55.2344C123.352 55.2344 122.706 55.3861 122.12 55.6775C121.933 55.766 121.767 55.8936 121.634 56.0518C121.501 56.21 121.403 56.395 121.348 56.5943C121.33 56.6616 121.321 56.7312 121.322 56.8009Z" fill="black"/>
<path opacity="0.2" d="M125.92 57.9165C126.973 57.3128 126.979 56.3282 125.92 55.7149C125.331 55.4144 124.678 55.2578 124.016 55.2578C123.354 55.2578 122.701 55.4144 122.111 55.7149C121.056 56.3186 121.052 57.3031 122.111 57.9132C122.701 58.2142 123.353 58.3714 124.015 58.3719C124.677 58.3725 125.33 58.2164 125.92 57.9165Z" fill="black"/>
<path d="M121.327 56.0244V56.4279C121.327 56.491 121.334 56.5539 121.35 56.6152C121.404 56.8144 121.5 56.9997 121.632 57.1584C121.764 57.3171 121.929 57.4456 122.115 57.5352C122.632 57.8171 123.208 57.9731 123.797 57.9903C124.534 58.0428 125.272 57.8897 125.927 57.5481C126.158 57.4223 126.36 57.2484 126.518 57.038C126.606 56.9194 126.667 56.7827 126.695 56.6378C126.711 56.5777 126.719 56.5158 126.718 56.4537V56.0406C126.718 55.6403 126.46 55.2432 125.937 54.9365L125.792 54.8591C125.215 54.5945 124.586 54.4626 123.951 54.4732C123.316 54.4839 122.692 54.6367 122.124 54.9204C121.592 55.2271 121.327 55.6241 121.327 56.0244Z" fill="#FFD8E4"/>
<path opacity="0.1" d="M121.327 56.0244V56.4279C121.327 56.491 121.334 56.5539 121.35 56.6152C121.404 56.8144 121.5 56.9997 121.632 57.1584C121.764 57.3171 121.929 57.4456 122.115 57.5352C122.632 57.8171 123.208 57.9731 123.797 57.9903C124.534 58.0428 125.272 57.8897 125.927 57.5481C126.158 57.4223 126.36 57.2484 126.518 57.038C126.606 56.9194 126.667 56.7827 126.695 56.6378C126.711 56.5777 126.719 56.5158 126.718 56.4537V56.0406C126.718 55.6403 126.46 55.2432 125.937 54.9365L125.792 54.8591C125.215 54.5945 124.586 54.4626 123.951 54.4732C123.316 54.4839 122.692 54.6367 122.124 54.9204C121.592 55.2271 121.327 55.6241 121.327 56.0244Z" fill="black"/>
<path d="M121.327 56.0125C121.327 56.868 122.528 57.5652 124.016 57.5717C125.504 57.5781 126.712 56.8906 126.715 56.0351C126.718 55.1797 125.514 54.4792 124.026 54.4727C122.538 54.4662 121.33 55.1571 121.327 56.0125Z" fill="#FFD8E4"/>
<path d="M123.092 54.423V55.8175C123.089 55.8389 123.089 55.8607 123.092 55.8821C123.111 55.9518 123.144 56.0167 123.189 56.0724C123.235 56.1281 123.292 56.1733 123.357 56.2049C123.536 56.304 123.737 56.3582 123.941 56.3631C124.196 56.3801 124.451 56.3265 124.677 56.2081C124.757 56.1648 124.828 56.1054 124.884 56.0338C124.914 55.9922 124.934 55.9449 124.945 55.895C124.947 55.8735 124.947 55.8519 124.945 55.8304V54.4294C124.938 54.3476 124.909 54.2693 124.861 54.2024C124.813 54.1355 124.749 54.0824 124.674 54.0485L124.622 54.0227C124.423 53.93 124.206 53.8835 123.986 53.8869C123.766 53.8902 123.55 53.9433 123.354 54.042C123.281 54.0777 123.219 54.1315 123.173 54.1983C123.127 54.265 123.099 54.3424 123.092 54.423Z" fill="#FFD8E4"/>
<path opacity="0.1" d="M123.092 54.423V55.8175C123.089 55.8389 123.089 55.8607 123.092 55.8821C123.111 55.9518 123.144 56.0167 123.189 56.0724C123.235 56.1281 123.292 56.1733 123.357 56.2049C123.536 56.304 123.737 56.3582 123.941 56.3631C124.196 56.3801 124.451 56.3265 124.677 56.2081C124.757 56.1648 124.828 56.1054 124.884 56.0338C124.914 55.9922 124.934 55.9449 124.945 55.895C124.947 55.8735 124.947 55.8519 124.945 55.8304V54.4294C124.938 54.3476 124.909 54.2693 124.861 54.2024C124.813 54.1355 124.749 54.0824 124.674 54.0485L124.622 54.0227C124.423 53.93 124.206 53.8835 123.986 53.8869C123.766 53.8902 123.55 53.9433 123.354 54.042C123.281 54.0777 123.219 54.1315 123.173 54.1983C123.127 54.265 123.099 54.3424 123.092 54.423Z" fill="black"/>
<path d="M123.092 54.4155C123.092 54.7125 123.508 54.9546 124.025 54.9578C124.541 54.961 124.958 54.7189 124.961 54.4252C124.964 54.1314 124.544 53.8861 124.028 53.8828C123.511 53.8796 123.095 54.1282 123.092 54.4155Z" fill="#FFD8E4"/>
<path opacity="0.5" d="M123.695 54.4171C123.695 54.5236 123.844 54.6076 124.018 54.6076C124.192 54.6076 124.341 54.5236 124.341 54.4203C124.341 54.317 124.192 54.2299 124.018 54.2266C123.844 54.2234 123.695 54.3106 123.695 54.4171Z" fill="#FFD8E4"/>
<path opacity="0.3" d="M123.695 54.4171C123.695 54.5236 123.844 54.6076 124.018 54.6076C124.192 54.6076 124.341 54.5236 124.341 54.4203C124.341 54.317 124.192 54.2299 124.018 54.2266C123.844 54.2234 123.695 54.3106 123.695 54.4171Z" fill="black"/>
<path d="M105.626 0.089065L82.2092 13.6116C82.104 13.6803 82.0165 13.7728 81.9537 13.8816C81.8909 13.9904 81.8546 14.1124 81.8477 14.2379V23.9738C81.8544 24.0992 81.891 24.2212 81.9545 24.3296C82.0179 24.438 82.1064 24.5296 82.2124 24.5968L83.5037 25.3232C83.616 25.3789 83.7398 25.4079 83.8652 25.4079C83.9907 25.4079 84.1144 25.3789 84.2268 25.3232L107.634 11.7942C107.739 11.7264 107.827 11.6345 107.89 11.5262C107.952 11.4179 107.989 11.2962 107.995 11.1712V1.43196C107.989 1.3069 107.952 1.18521 107.89 1.07689C107.827 0.968579 107.739 0.876741 107.634 0.808934L106.343 0.0858362C106.231 0.0313836 106.108 0.00335472 105.984 0.00391447C105.86 0.00447423 105.737 0.0336083 105.626 0.089065Z" fill="#F4A261"/>
<path d="M83.8662 25.1105V15.3907C83.8698 15.2619 83.9046 15.1358 83.9676 15.0234C84.0305 14.911 84.1198 14.8155 84.2278 14.7451L107.632 1.22576C107.832 1.10955 107.993 1.20316 107.993 1.43236V11.1716C107.986 11.2966 107.95 11.4183 107.887 11.5266C107.824 11.6349 107.737 11.7268 107.632 11.7946L84.2148 25.3203C84.0276 25.4333 83.8662 25.3429 83.8662 25.1105Z" fill="#F4A261"/>
<path opacity="0.2" d="M84.2307 25.3173C84.1181 25.3723 83.9944 25.4009 83.8691 25.4009C83.7438 25.4009 83.6202 25.3723 83.5076 25.3173L82.2163 24.591C82.1107 24.524 82.0225 24.4329 81.9591 24.3251C81.8956 24.2173 81.8588 24.096 81.8516 23.9712V14.2352C81.8569 14.1044 81.897 13.9773 81.9678 13.8672L83.9789 15.0164C83.9134 15.1236 83.8767 15.2459 83.8724 15.3715V25.1075C83.8691 25.3173 84.0176 25.4399 84.2307 25.3173Z" fill="black"/>
<path opacity="0.4" d="M108.004 1.36541C107.975 1.1814 107.827 1.11684 107.646 1.22014L84.2293 14.7427C84.1218 14.8089 84.0338 14.9025 83.9743 15.0138L81.96 13.8646C82.0203 13.7594 82.1057 13.6707 82.2085 13.6064L105.628 0.0870765C105.74 0.0298429 105.864 0 105.99 0C106.116 0 106.24 0.0298429 106.352 0.0870765L107.643 0.810171C107.739 0.871709 107.821 0.953062 107.883 1.0488C107.946 1.14455 107.987 1.25248 108.004 1.36541Z" fill="white"/>
<path d="M80.8588 21.8438C80.6296 21.7082 78.9219 20.7527 78.8767 20.7204C78.832 20.6963 78.7936 20.662 78.7646 20.6202C78.7357 20.5785 78.717 20.5305 78.71 20.4802C78.7031 20.4299 78.7082 20.3786 78.7248 20.3306C78.7414 20.2826 78.7691 20.2392 78.8057 20.2039L81.8789 17.6602L83.8674 18.79L80.7974 21.337C80.7651 21.3729 80.7409 21.4154 80.7263 21.4615C80.7117 21.5076 80.7072 21.5563 80.713 21.6043C80.7188 21.6523 80.7348 21.6985 80.76 21.7398C80.7851 21.7811 80.8188 21.8166 80.8588 21.8438Z" fill="#F4A261"/>
<path opacity="0.1" d="M80.8588 21.8438C80.6296 21.7082 78.9219 20.7527 78.8767 20.7204C78.832 20.6963 78.7936 20.662 78.7646 20.6202C78.7357 20.5785 78.717 20.5305 78.71 20.4802C78.7031 20.4299 78.7082 20.3786 78.7248 20.3306C78.7414 20.2826 78.7691 20.2392 78.8057 20.2039L81.8789 17.6602L83.8674 18.79L80.7974 21.337C80.7651 21.3729 80.7409 21.4154 80.7263 21.4615C80.7117 21.5076 80.7072 21.5563 80.713 21.6043C80.7188 21.6523 80.7348 21.6985 80.76 21.7398C80.7851 21.7811 80.8188 21.8166 80.8588 21.8438Z" fill="black"/>
<path d="M83.8675 18.7773L80.7944 21.3211C80.75 21.3649 80.7192 21.4205 80.7058 21.4814C80.6924 21.5422 80.6969 21.6057 80.7187 21.6641C80.7406 21.7224 80.7788 21.7732 80.8289 21.8103C80.879 21.8474 80.9388 21.8692 81.001 21.8731L83.8675 21.5503V18.7773Z" fill="#F4A261"/>
<path d="M85.7079 17.874C85.6876 17.8307 85.6798 17.7826 85.6853 17.7351C85.6915 17.6789 85.7079 17.6242 85.7337 17.5737L86.6343 15.8241L86.715 15.6724C86.7413 15.6223 86.7803 15.58 86.828 15.5497L87.3381 15.256C87.3432 15.2504 87.3494 15.2459 87.3564 15.2429C87.3633 15.2399 87.3708 15.2383 87.3784 15.2383C87.386 15.2383 87.3935 15.2399 87.4004 15.2429C87.4074 15.2459 87.4136 15.2504 87.4188 15.256C87.4435 15.2919 87.4549 15.3352 87.4511 15.3786V20.1917C87.4513 20.2472 87.4403 20.3021 87.4188 20.3531C87.4045 20.3958 87.376 20.4322 87.3381 20.4564L86.7893 20.7793C86.7785 20.7897 86.764 20.7956 86.7489 20.7956C86.7339 20.7956 86.7194 20.7897 86.7086 20.7793C86.6839 20.7434 86.6725 20.7 86.6763 20.6566V17.3962L86.176 18.3646C86.1689 18.3842 86.1577 18.4021 86.1433 18.4171C86.1288 18.4322 86.1113 18.444 86.092 18.4518C86.063 18.4518 86.0371 18.4518 86.0178 18.4195L85.7079 17.874Z" fill="#FAFAFA"/>
<path d="M88.9248 19.3508C88.9251 19.4062 88.9141 19.4611 88.8925 19.5122C88.8782 19.5548 88.8497 19.5913 88.8118 19.6155L88.2631 19.9383C88.2567 19.9425 88.2496 19.9455 88.2421 19.947C88.2346 19.9485 88.2269 19.9485 88.2194 19.947C88.2119 19.9455 88.2047 19.9425 88.1984 19.9383C88.192 19.934 88.1866 19.9285 88.1824 19.9222C88.1579 19.8874 88.1464 19.8451 88.1501 19.8027V18.8343C88.1498 18.7788 88.1608 18.7239 88.1824 18.6729C88.1967 18.6302 88.2251 18.5938 88.2631 18.5696L88.8118 18.2468C88.8227 18.2363 88.8371 18.2305 88.8522 18.2305C88.8672 18.2305 88.8817 18.2363 88.8925 18.2468C88.9172 18.2827 88.9287 18.326 88.9248 18.3694V19.3508Z" fill="#FAFAFA"/>
<path d="M90.339 18.5368C90.3384 18.5925 90.3263 18.6474 90.3035 18.6982C90.2882 18.7403 90.2613 18.7772 90.226 18.8047L89.674 19.1275C89.6637 19.1378 89.6498 19.1435 89.6353 19.1435C89.6208 19.1435 89.6068 19.1378 89.5965 19.1275C89.5704 19.0922 89.5578 19.0487 89.561 19.0049V18.0364C89.5616 17.9808 89.5737 17.9258 89.5965 17.875C89.6101 17.832 89.6373 17.7946 89.674 17.7685L90.226 17.4457C90.2363 17.4354 90.2502 17.4297 90.2648 17.4297C90.2793 17.4297 90.2932 17.4354 90.3035 17.4457C90.3296 17.481 90.3422 17.5245 90.339 17.5684V18.5368Z" fill="#FAFAFA"/>
<path d="M91.752 17.7267C91.7523 17.7821 91.7413 17.837 91.7198 17.8881C91.7054 17.9307 91.677 17.9672 91.6391 17.9914L91.0903 18.3142C91.0794 18.3246 91.065 18.3305 91.0499 18.3305C91.0349 18.3305 91.0204 18.3246 91.0096 18.3142C90.9849 18.2783 90.9735 18.2349 90.9773 18.1915V17.2231C90.9768 17.1676 90.9877 17.1127 91.0096 17.0617C91.0249 17.0187 91.0531 16.9816 91.0903 16.9551L91.6391 16.6323C91.6502 16.6226 91.6646 16.6172 91.6794 16.6172C91.6942 16.6172 91.7086 16.6226 91.7198 16.6323C91.7442 16.6683 91.7556 16.7116 91.752 16.755V17.7267Z" fill="#FAFAFA"/>
<path d="M94.7187 12.6688C94.7181 12.8123 94.7095 12.9556 94.6929 13.0981C94.6752 13.2473 94.6472 13.3951 94.6089 13.5404C94.5647 13.6996 94.5108 13.8559 94.4475 14.0085C94.383 14.1699 94.3023 14.3313 94.2086 14.5217L93.6211 15.6483L94.6735 15.0415C94.6838 15.0312 94.6977 15.0255 94.7122 15.0255C94.7267 15.0255 94.7407 15.0312 94.751 15.0415C94.7766 15.0771 94.7891 15.1204 94.7865 15.1641V15.955C94.7855 16.0107 94.7735 16.0655 94.751 16.1164C94.7366 16.1581 94.7095 16.1943 94.6735 16.2197L92.459 17.511C92.4482 17.5214 92.4337 17.5273 92.4186 17.5273C92.4036 17.5273 92.3891 17.5214 92.3783 17.511C92.3549 17.4745 92.3436 17.4316 92.346 17.3883V16.7427C92.3468 16.658 92.3566 16.5736 92.3751 16.4909C92.3911 16.4011 92.4228 16.3148 92.4687 16.2359L93.7212 13.9149C93.802 13.7706 93.8639 13.6166 93.9052 13.4565C93.9289 13.3504 93.9419 13.2423 93.9439 13.1337C93.9463 13.0874 93.9463 13.0411 93.9439 12.9948C93.9351 12.9401 93.9188 12.8869 93.8955 12.8367C93.8738 12.7919 93.8356 12.7572 93.789 12.7398C93.7569 12.7317 93.7233 12.731 93.6909 12.7377C93.6585 12.7444 93.628 12.7584 93.6017 12.7786C93.5243 12.8222 93.4589 12.8843 93.4113 12.9593C93.3653 13.0302 93.3275 13.106 93.2983 13.1853C93.2713 13.2554 93.2507 13.3278 93.237 13.4016C93.237 13.4726 93.2176 13.521 93.2111 13.5565C93.2035 13.6189 93.1814 13.6786 93.1466 13.7309C93.1187 13.7686 93.0836 13.8004 93.0433 13.8245L92.5268 14.1215C92.5179 14.1294 92.5064 14.1338 92.4945 14.1338C92.4826 14.1338 92.4711 14.1294 92.4622 14.1215C92.4433 14.0916 92.4343 14.0566 92.4364 14.0214C92.4402 13.7968 92.465 13.5731 92.5106 13.3532C92.5591 13.1182 92.6316 12.8889 92.7269 12.6688C92.8204 12.4476 92.942 12.2393 93.0885 12.049C93.226 11.8673 93.3983 11.7148 93.5953 11.6003C93.7402 11.5037 93.9119 11.4551 94.086 11.4615C94.2224 11.4758 94.3482 11.5416 94.4378 11.6455C94.5432 11.7705 94.6174 11.9188 94.6541 12.0781C94.6997 12.2716 94.7214 12.47 94.7187 12.6688Z" fill="#FAFAFA"/>
<path d="M96.1641 15.1699C96.1647 15.2254 96.1537 15.2803 96.1319 15.3313C96.1175 15.3748 96.0891 15.4122 96.0512 15.4378L95.5024 15.7606C95.4916 15.7711 95.4771 15.7769 95.462 15.7769C95.447 15.7769 95.4325 15.7711 95.4217 15.7606C95.397 15.7248 95.3856 15.6814 95.3894 15.638V14.6695C95.3889 14.6141 95.3999 14.5591 95.4217 14.5081C95.4381 14.4658 95.466 14.4288 95.5024 14.4016L96.0512 14.0788C96.062 14.0683 96.0765 14.0625 96.0915 14.0625C96.1066 14.0625 96.121 14.0683 96.1319 14.0788C96.1566 14.1147 96.168 14.1581 96.1641 14.2015V15.1699Z" fill="#FAFAFA"/>
<path d="M97.5772 14.3608C97.5763 14.4165 97.5642 14.4714 97.5417 14.5223C97.5274 14.564 97.5003 14.6001 97.4642 14.6256L96.9155 14.9484C96.9091 14.9526 96.902 14.9556 96.8945 14.9571C96.887 14.9585 96.8793 14.9585 96.8718 14.957C96.8643 14.9555 96.8571 14.9526 96.8508 14.9483C96.8444 14.9441 96.839 14.9386 96.8348 14.9322C96.8101 14.8963 96.7986 14.853 96.8025 14.8096V13.8411C96.8022 13.7857 96.8132 13.7308 96.8348 13.6797C96.8501 13.6368 96.8783 13.5996 96.9155 13.5732L97.4642 13.2504C97.4745 13.2401 97.4885 13.2344 97.503 13.2344C97.5175 13.2344 97.5314 13.2401 97.5417 13.2504C97.5673 13.286 97.5799 13.3293 97.5772 13.373V14.3608Z" fill="#FAFAFA"/>
<path d="M98.987 13.5417C98.9875 13.5971 98.9765 13.6521 98.9547 13.7031C98.9394 13.746 98.9112 13.7832 98.874 13.8096L98.3252 14.1324C98.315 14.1427 98.301 14.1484 98.2865 14.1484C98.272 14.1484 98.258 14.1427 98.2478 14.1324C98.2222 14.0968 98.2096 14.0535 98.2123 14.0097V13.0413C98.2129 12.9867 98.225 12.9328 98.2478 12.8831C98.2601 12.8395 98.2876 12.8018 98.3252 12.7766L98.874 12.4538C98.8848 12.4433 98.8993 12.4375 98.9144 12.4375C98.9294 12.4375 98.9439 12.4433 98.9547 12.4538C98.9794 12.4897 98.9908 12.5331 98.987 12.5765V13.5417Z" fill="#FAFAFA"/>
<path d="M101.803 6.90272C101.813 6.89247 101.827 6.88672 101.842 6.88672C101.856 6.88672 101.87 6.89247 101.88 6.90272C101.905 6.93861 101.916 6.98199 101.913 7.02539V7.81628C101.912 7.87239 101.902 7.92802 101.884 7.98091C101.864 8.03579 101.848 8.08421 101.832 8.12295L101.322 9.32703C101.42 9.30987 101.521 9.31873 101.614 9.35272C101.707 9.3867 101.79 9.44464 101.854 9.52072C102.016 9.7606 102.089 10.0494 102.061 10.3374C102.074 10.8419 101.964 11.3418 101.738 11.7933C101.533 12.1971 101.216 12.5333 100.825 12.7617C100.664 12.865 100.48 12.927 100.289 12.9425C100.15 12.9533 100.012 12.9156 99.8982 12.836C99.7881 12.7532 99.7031 12.6415 99.6529 12.5132C99.5933 12.3576 99.5626 12.1924 99.5625 12.0257C99.563 11.9804 99.5717 11.9355 99.5883 11.8934C99.6022 11.8594 99.6244 11.8294 99.6529 11.8062L100.182 11.5028C100.24 11.4673 100.286 11.4673 100.318 11.5028L100.418 11.5964C100.461 11.6313 100.512 11.6547 100.566 11.6642C100.659 11.6682 100.75 11.6409 100.825 11.5867C100.956 11.5056 101.066 11.3951 101.148 11.2639C101.237 11.1292 101.283 10.9704 101.28 10.8087C101.28 10.6344 101.235 10.5343 101.148 10.5053C101.092 10.4945 101.034 10.4952 100.979 10.5074C100.923 10.5196 100.871 10.5431 100.825 10.5763L100.476 10.7797C100.465 10.7901 100.451 10.796 100.436 10.796C100.421 10.796 100.406 10.7901 100.395 10.7797C100.371 10.7438 100.359 10.7004 100.363 10.657V10.0114C100.363 9.95525 100.373 9.89957 100.392 9.84676C100.411 9.78865 100.431 9.737 100.45 9.69181L100.892 8.60716L99.7982 9.25278C99.7873 9.26324 99.7729 9.26908 99.7578 9.26908C99.7428 9.26908 99.7283 9.26324 99.7175 9.25278C99.6927 9.2169 99.6813 9.17352 99.6852 9.13012V8.32632C99.6846 8.27086 99.6956 8.2159 99.7175 8.16491C99.7318 8.12144 99.7602 8.08397 99.7982 8.05839L101.803 6.90272Z" fill="#FAFAFA"/>
<path d="M103.435 10.9707C103.436 11.0261 103.425 11.0811 103.403 11.1321C103.388 11.175 103.36 11.2122 103.322 11.2386L102.774 11.5614C102.763 11.5717 102.749 11.5774 102.735 11.5774C102.72 11.5774 102.706 11.5717 102.696 11.5614C102.67 11.5261 102.657 11.4826 102.661 11.4388V10.4703C102.661 10.4146 102.673 10.3597 102.696 10.3089C102.71 10.2659 102.737 10.2285 102.774 10.2024L103.322 9.87958C103.333 9.86912 103.348 9.86328 103.363 9.86328C103.378 9.86328 103.392 9.86912 103.403 9.87958C103.428 9.91547 103.439 9.95885 103.435 10.0022V10.9707Z" fill="#FAFAFA"/>
<path d="M104.858 10.1524C104.857 10.2077 104.846 10.2623 104.826 10.3138C104.811 10.3559 104.783 10.392 104.745 10.4171L104.197 10.74C104.192 10.7455 104.185 10.75 104.178 10.753C104.171 10.7561 104.164 10.7576 104.156 10.7576C104.149 10.7576 104.141 10.7561 104.134 10.753C104.127 10.75 104.121 10.7455 104.116 10.74C104.091 10.7041 104.08 10.6607 104.084 10.6173V9.64886C104.083 9.5934 104.094 9.53844 104.116 9.48745C104.131 9.44452 104.16 9.40733 104.197 9.38092L104.745 9.05811C104.757 9.04835 104.771 9.04297 104.786 9.04297C104.801 9.04297 104.815 9.04835 104.826 9.05811C104.849 9.09478 104.86 9.13756 104.858 9.18078V10.1524Z" fill="#FAFAFA"/>
<path d="M106.266 9.33825C106.267 9.39371 106.256 9.44867 106.234 9.49966C106.219 9.54173 106.192 9.57864 106.157 9.60618L105.605 9.92899C105.594 9.93925 105.58 9.945 105.566 9.945C105.551 9.945 105.537 9.93925 105.527 9.92899C105.501 9.89341 105.489 9.85009 105.492 9.80633V8.8379C105.492 8.78226 105.505 8.72738 105.527 8.67649C105.541 8.63477 105.568 8.59863 105.605 8.57319L106.157 8.25038C106.167 8.24013 106.181 8.23438 106.195 8.23438C106.21 8.23438 106.224 8.24013 106.234 8.25038C106.259 8.28627 106.27 8.32965 106.266 8.37305V9.33825Z" fill="#FAFAFA"/>
<g opacity="0.3">
<path d="M44.294 67.5889C44.2791 67.5922 44.2637 67.5922 44.2488 67.5889L42.3991 67.0659C42.3659 67.0571 42.3348 67.0416 42.3078 67.0203C42.2808 66.999 42.2585 66.9724 42.2422 66.9422C42.2258 66.912 42.2159 66.8787 42.2129 66.8445C42.2099 66.8102 42.2139 66.7757 42.2248 66.7431C42.234 66.7101 42.2498 66.6793 42.2711 66.6524C42.2924 66.6255 42.3189 66.6032 42.349 66.5867C42.379 66.5701 42.412 66.5597 42.4461 66.5561C42.4803 66.5525 42.5147 66.5557 42.5476 66.5656L44.3973 67.0885C44.4602 67.1044 44.5146 67.1437 44.5496 67.1983C44.5846 67.253 44.5974 67.3189 44.5854 67.3827C44.5735 67.4464 44.5377 67.5033 44.4854 67.5416C44.433 67.5799 44.3681 67.5968 44.3037 67.5889H44.294Z" fill="black"/>
<path d="M42.3986 69.0229C42.34 69.015 42.2859 68.9872 42.2453 68.9442C42.2047 68.9013 42.1801 68.8457 42.1756 68.7867C42.171 68.7278 42.1869 68.6691 42.2204 68.6204C42.2539 68.5717 42.3031 68.536 42.3598 68.5193L44.2192 68.0512C44.2525 68.0405 44.2876 68.0368 44.3224 68.0404C44.3571 68.044 44.3908 68.0548 44.4212 68.0721C44.4515 68.0894 44.4779 68.1129 44.4988 68.1409C44.5196 68.169 44.5343 68.2011 44.542 68.2352C44.5523 68.2685 44.5556 68.3035 44.5517 68.3381C44.5479 68.3727 44.537 68.4061 44.5198 68.4364C44.5026 68.4666 44.4793 68.493 44.4515 68.5139C44.4237 68.5349 44.3919 68.5499 44.358 68.558L42.4954 69.0293C42.463 69.0315 42.4304 69.0293 42.3986 69.0229Z" fill="black"/>
<path d="M43.3329 70.737C43.2719 70.7302 43.215 70.7029 43.1715 70.6596C43.1242 70.6113 43.0977 70.5464 43.0977 70.4788C43.0977 70.4112 43.1242 70.3463 43.1715 70.298L44.5499 68.9616C44.5733 68.9379 44.6012 68.919 44.632 68.9062C44.6627 68.8933 44.6957 68.8867 44.729 68.8867C44.7624 68.8867 44.7954 68.8933 44.8261 68.9062C44.8569 68.919 44.8848 68.9379 44.9082 68.9616C44.932 68.9853 44.9509 69.0135 44.9638 69.0445C44.9767 69.0755 44.9833 69.1088 44.9833 69.1424C44.9833 69.176 44.9767 69.2092 44.9638 69.2402C44.9509 69.2713 44.932 69.2994 44.9082 69.3231L43.5298 70.6628C43.5039 70.6881 43.473 70.7078 43.4391 70.7206C43.4052 70.7334 43.3691 70.739 43.3329 70.737Z" fill="black"/>
<path d="M45.0012 71.7585H44.956C44.923 71.7492 44.8921 71.7335 44.8653 71.7121C44.8384 71.6908 44.8161 71.6644 44.7995 71.6343C44.783 71.6043 44.7726 71.5712 44.769 71.5371C44.7654 71.503 44.7686 71.4685 44.7785 71.4357L45.3014 69.5892C45.31 69.5564 45.325 69.5256 45.3456 69.4986C45.3662 69.4716 45.392 69.449 45.4214 69.4322C45.4509 69.4153 45.4834 69.4045 45.5171 69.4003C45.5508 69.3962 45.585 69.3988 45.6176 69.4081C45.6503 69.4173 45.6808 69.433 45.7073 69.4541C45.7338 69.4753 45.7559 69.5016 45.7721 69.5314C45.7884 69.5612 45.7985 69.5939 45.8019 69.6277C45.8054 69.6614 45.802 69.6956 45.7921 69.728L45.2691 71.5745C45.2534 71.6319 45.2179 71.6818 45.1688 71.7155C45.1198 71.7492 45.0604 71.7644 45.0012 71.7585Z" fill="black"/>
</g>
<path d="M95.4332 43.096L90.8202 45.7592L80.6872 47.2248C80.6872 47.2248 73.282 36.1136 72.1489 34.3672C71.0158 32.6208 69.6923 31.5007 66.6191 31.5039L67.2002 40.3683C67.297 40.6524 73.4208 48.1997 77.4591 52.3123C78.8859 53.7617 79.764 54.1297 81.9946 53.5131C87.6858 51.9346 94.5842 47.2571 95.1395 46.0885C95.869 44.5616 95.3783 43.1251 95.4332 43.096Z" fill="#FFCFCE"/>
<path d="M93.5288 37.473C94.1356 35.4974 96.6052 33.8607 98.9165 34.5063C99.2814 34.6102 99.6318 34.7599 99.9592 34.9518C102.199 36.243 104.017 39.3904 104.017 41.9794C104.023 42.4168 103.961 42.8524 103.833 43.2706C103.226 45.2495 100.756 46.8764 98.4452 46.2276C98.0806 46.1256 97.731 45.9758 97.4057 45.7821C95.1654 44.4909 93.348 41.3435 93.348 38.7545C93.3425 38.3206 93.4035 37.8884 93.5288 37.473Z" fill="#455A64"/>
<path d="M97.4093 45.7734C95.169 44.4821 93.3516 41.3347 93.3516 38.7458C93.3516 36.1568 95.169 35.1077 97.4093 36.4022C99.6496 37.6966 101.467 40.8408 101.467 43.4297C101.467 46.0187 99.6496 47.0678 97.4093 45.7734Z" fill="#909090"/>
<path d="M97.4088 39.2753C96.5469 38.7782 95.8496 39.1817 95.8496 40.176C95.8788 40.7176 96.0352 41.2448 96.3061 41.7148C96.577 42.1848 96.9547 42.5843 97.4088 42.8811C98.2707 43.3783 98.9712 42.9747 98.9712 41.9805C98.9419 41.4385 98.7851 40.911 98.5136 40.441C98.2421 39.9709 97.8636 39.5716 97.4088 39.2753Z" fill="#455A64"/>
<path d="M96.8748 40.7679C96.8845 40.9533 96.9378 41.1338 97.0304 41.2948C97.1229 41.4558 97.2521 41.5926 97.4074 41.6944C97.459 41.7305 97.5184 41.7537 97.5807 41.7621C97.6431 41.7705 97.7065 41.7639 97.7658 41.7428L97.8045 41.7202C97.8509 41.6806 97.8875 41.6309 97.9116 41.575C97.9356 41.519 97.9465 41.4582 97.9433 41.3974C97.9324 41.2118 97.8783 41.0314 97.7853 40.8706C97.6922 40.7097 97.5628 40.5728 97.4074 40.4709C97.3563 40.434 97.2968 40.4103 97.2343 40.4019C97.1718 40.3935 97.1082 40.4005 97.0491 40.4225L97.0104 40.4451C96.9644 40.4848 96.9283 40.5346 96.9048 40.5906C96.8812 40.6466 96.871 40.7073 96.8748 40.7679Z" fill="#909090"/>
<path d="M88.3037 45.7361C88.314 45.9214 88.3675 46.1017 88.46 46.2626C88.5525 46.4235 88.6814 46.5605 88.8364 46.6626C88.9064 46.7059 88.9865 46.7303 89.0688 46.7336C89.1316 46.7328 89.1929 46.715 89.2463 46.6819L97.7685 41.7623L97.8073 41.7397C97.8536 41.7002 97.8903 41.6505 97.9143 41.5945C97.9384 41.5385 97.9493 41.4777 97.9461 41.4169C97.9352 41.2314 97.8811 41.051 97.7881 40.8901C97.695 40.7292 97.5656 40.5924 97.4102 40.4904C97.359 40.4536 97.2996 40.4299 97.2371 40.4214C97.1746 40.413 97.111 40.4201 97.0519 40.442L97.0132 40.4646L88.4942 45.3842C88.4321 45.4186 88.3812 45.47 88.3475 45.5323C88.3137 45.5947 88.2986 45.6654 88.3037 45.7361Z" fill="#FAFAFA"/>
<path d="M79.9387 45.3167C80.5423 43.3411 83.0151 41.7045 85.3264 42.3501C85.6904 42.4523 86.0398 42.6009 86.3658 42.7923C88.6061 44.0836 90.4236 47.231 90.4236 49.8199C90.4293 50.257 90.3683 50.6924 90.2428 51.1112C89.6391 53.09 87.1664 54.7169 84.8551 54.0681C84.4923 53.9653 84.1441 53.8167 83.8189 53.6258C81.5753 52.3346 79.7611 49.184 79.7611 46.595C79.7552 46.1624 79.8151 45.7314 79.9387 45.3167Z" fill="#455A64"/>
<path d="M83.8185 53.6228C81.5749 52.3316 79.7607 49.1809 79.7607 46.592C79.7607 44.0031 81.5749 42.9572 83.8185 44.2484C86.062 45.5396 87.8762 48.687 87.8762 51.276C87.8762 53.8649 86.0588 54.9141 83.8185 53.6228Z" fill="#909090"/>
<path d="M83.8183 47.119C82.9564 46.6219 82.2559 47.0254 82.2559 48.0229C82.2857 48.5643 82.4427 49.0911 82.7141 49.5606C82.9856 50.03 83.3639 50.4289 83.8183 50.7248C84.6802 51.2219 85.3774 50.8184 85.3774 49.8242C85.3482 49.2825 85.1918 48.7553 84.921 48.2853C84.6501 47.8154 84.2723 47.4158 83.8183 47.119Z" fill="#455A64"/>
<path d="M83.2821 48.6156C83.2923 48.8008 83.3458 48.9812 83.4383 49.1421C83.5308 49.3029 83.6597 49.4399 83.8147 49.542C83.8665 49.5789 83.9265 49.6026 83.9895 49.611C84.0525 49.6195 84.1166 49.6124 84.1762 49.5904L84.215 49.5678C84.2606 49.5278 84.2964 49.478 84.3199 49.422C84.3434 49.3661 84.3539 49.3056 84.3506 49.245C84.3402 49.0594 84.2863 48.8788 84.1932 48.7178C84.1001 48.5569 83.9705 48.4201 83.8147 48.3186C83.7641 48.2817 83.7052 48.258 83.6433 48.2496C83.5813 48.2411 83.5182 48.2482 83.4596 48.2701L83.4209 48.2927C83.3739 48.3318 83.3369 48.3814 83.3128 48.4375C83.2886 48.4936 83.2781 48.5546 83.2821 48.6156Z" fill="#909090"/>
<path d="M81.9912 49.3612C82.0012 49.5466 82.0546 49.727 82.1471 49.8879C82.2396 50.0489 82.3687 50.1858 82.5238 50.2877C82.5932 50.3325 82.6737 50.3571 82.7563 50.3587C82.819 50.3575 82.8802 50.3397 82.9338 50.3071L84.1766 49.5904L84.2154 49.5678C84.2609 49.5278 84.2968 49.478 84.3203 49.422C84.3438 49.3661 84.3543 49.3056 84.351 49.245C84.3406 49.0594 84.2867 48.8788 84.1936 48.7178C84.1005 48.5569 83.9708 48.4201 83.8151 48.3186C83.7645 48.2817 83.7056 48.258 83.6437 48.2496C83.5817 48.2411 83.5186 48.2482 83.46 48.2701L83.4213 48.2927L82.1784 49.0094C82.1173 49.0445 82.0672 49.0961 82.0341 49.1583C82.001 49.2206 81.9861 49.2909 81.9912 49.3612Z" fill="#FAFAFA"/>
<path d="M81.991 49.356C82.001 49.5414 82.0544 49.7218 82.1469 49.8827C82.2394 50.0437 82.3685 50.1806 82.5236 50.2825C82.5748 50.3194 82.6343 50.3431 82.6968 50.3515C82.7592 50.3599 82.8229 50.3529 82.882 50.3309L82.9207 50.3083C82.9675 50.2691 83.0044 50.2195 83.0285 50.1634C83.0526 50.1074 83.0632 50.0464 83.0595 49.9855C83.0489 49.7999 82.9949 49.6194 82.9018 49.4585C82.8088 49.2976 82.6792 49.1608 82.5236 49.0591C82.4729 49.0225 82.4139 48.9992 82.3518 48.9913C82.2898 48.9834 82.2268 48.9911 82.1686 49.0139L82.1266 49.0365C82.0807 49.0755 82.0445 49.1247 82.021 49.1802C81.9975 49.2357 81.9872 49.2959 81.991 49.356Z" fill="#E0E0E0"/>
<path d="M92.4775 48.3611C94.4337 46.8632 96.3124 46.8761 95.9735 43.2187C95.6862 41.6046 95.2891 41.4917 93.7138 40.8783C93.0198 40.6104 92.0998 40.407 91.5478 41.0397C91.4859 41.1182 91.4179 41.1916 91.3444 41.2592C91.1822 41.3643 90.9951 41.4245 90.8021 41.4335C90.4338 41.4532 90.0841 41.6018 89.8143 41.8532C89.6303 42.0598 89.5593 42.3503 89.3785 42.5602C89.2059 42.7246 89.0202 42.8746 88.8232 43.0089C88.6809 43.1318 88.566 43.2832 88.4859 43.4534C88.4058 43.6236 88.3624 43.8086 88.3584 43.9967C88.3725 44.2115 88.4332 44.4207 88.5363 44.6097C88.6394 44.7987 88.7825 44.9629 88.9556 45.091L89.924 44.5228C90.3308 44.242 91.1636 45.233 90.8053 45.7592C90.2501 46.5921 92.4775 48.3611 92.4775 48.3611Z" fill="#FFCFCE"/>
<path d="M69.654 55.7056C70.2802 53.1715 70.461 46.8477 70.461 46.8477L52.1318 47.3997L53.1293 51.3928C53.2949 52.2951 53.3834 53.2098 53.394 54.127C53.394 54.127 55.1727 57.4229 60.4442 58.0008C63.686 58.3083 66.9356 57.4985 69.654 55.7056Z" fill="#FFCFCE"/>
<path d="M70.4607 46.8451C70.4833 47.0484 70.3574 48.9627 70.3574 48.9627C68.0106 50.9351 60.4923 51.9326 52.6028 49.3081L50.9307 42.8519C50.9307 42.8519 56.6057 40.3598 52.7739 31.999L56.893 31.6762L64.2111 31.4922H66.6289C68.604 33.4081 70.273 35.616 71.5776 38.0388C72.5267 39.8336 73.7501 42.4516 70.4607 46.8451Z" fill="#455A64"/>
<path d="M60.0996 46.9069C56.8005 46.0643 55.9708 44.0016 55.7352 42.4844C55.7352 42.4844 55.1122 46.9069 59.8317 47.9399C64.8094 49.0245 66.856 45.083 66.856 45.083C66.856 45.083 64.0863 47.9237 60.0996 46.9069Z" fill="#37474F"/>
<path d="M31.9879 96.1249C31.0195 96.8319 28.7889 97.003 26.8229 96.0797C24.857 95.1565 24.0339 92.5288 24.4019 90.4983C24.8473 88.0224 26.0708 86.6666 26.3839 85.1784C26.697 83.6902 26.3839 81.6275 26.852 80.2975C27.0472 79.7868 27.35 79.3242 27.74 78.9409C28.1299 78.5577 28.5977 78.2629 29.1117 78.0766C29.4397 77.9498 29.7924 77.8999 30.1427 77.9307C30.493 77.9615 30.8316 78.0721 31.1325 78.2541L31.7167 78.5963L31.9879 96.1249Z" fill="#263238"/>
<path d="M34.2999 86.6799L32.7698 91.2671C32.7698 91.2671 33.7382 94.5436 33.1927 95.412C32.3856 96.7032 30.9717 96.9324 28.5861 96.2029C25.8552 95.3732 25.2128 92.9037 25.358 90.9862C25.5485 88.252 28.0761 86.1957 27.7856 83.5616C27.6468 82.2704 27.8211 80.8242 28.528 79.7169C29.3189 78.4741 30.6166 78.2417 31.966 78.6484C33.1184 78.9971 34.132 79.7234 35.1101 80.4045C35.3917 80.5823 35.6461 80.7997 35.8655 81.0501C36.0413 81.2823 36.1727 81.5449 36.2529 81.8249C36.4299 82.389 36.4827 82.9848 36.4078 83.5713C36.3368 84.1201 35.9882 84.4396 35.6622 84.8625L34.2999 86.6799Z" fill="#FC5474"/>
<path d="M40.8932 84.5053C40.7963 84.4665 36.122 81.4773 35.6184 81.2546C35.1148 81.0318 33.8785 80.709 32.6776 83.4787C31.8222 85.4543 33.0521 86.1839 33.0521 86.1839L38.5399 89.4443L40.8932 84.5053Z" fill="#FFCFCE"/>
<path d="M32.7686 91.2694C31.7789 90.7773 30.6842 90.5335 29.5792 90.5592C29.4969 90.5675 29.4138 90.5553 29.3373 90.5238C29.2608 90.4923 29.1932 90.4424 29.1405 90.3786C29.0879 90.3148 29.0517 90.239 29.0354 90.1579C29.019 90.0768 29.0228 89.9929 29.0466 89.9136C29.0775 89.8191 29.1357 89.7359 29.2138 89.6744C29.2919 89.613 29.3865 89.576 29.4856 89.5682C30.2248 89.5133 32.0197 89.4907 33.2108 90.4721C33.5272 91.1112 32.7686 91.2694 32.7686 91.2694Z" fill="#ACACAC"/>
<path d="M33.3289 89.1742C32.3672 88.6295 31.2864 88.3291 30.1815 88.2994C30.0982 88.3029 30.0153 88.2858 29.9401 88.2496C29.865 88.2134 29.7999 88.1592 29.7508 88.0918C29.7016 88.0244 29.6698 87.9459 29.6582 87.8633C29.6466 87.7807 29.6556 87.6965 29.6844 87.6182C29.7191 87.5256 29.7806 87.4454 29.8611 87.3878C29.9416 87.3303 30.0374 87.2982 30.1363 87.2954C30.8788 87.2761 32.6736 87.3471 33.8132 88.3898C34.0972 89.0515 33.3289 89.1742 33.3289 89.1742Z" fill="#ACACAC"/>
<path opacity="0.3" d="M32.7686 91.2694C31.7789 90.7773 30.6842 90.5335 29.5792 90.5592C29.4969 90.5675 29.4138 90.5553 29.3373 90.5238C29.2608 90.4923 29.1932 90.4424 29.1405 90.3786C29.0879 90.3148 29.0517 90.239 29.0354 90.1579C29.019 90.0768 29.0228 89.9929 29.0466 89.9136C29.0775 89.8191 29.1357 89.7359 29.2138 89.6744C29.2919 89.613 29.3865 89.576 29.4856 89.5682C30.2248 89.5133 32.0197 89.4907 33.2108 90.4721C33.5272 91.1112 32.7686 91.2694 32.7686 91.2694Z" fill="black"/>
<path opacity="0.3" d="M33.3289 89.1742C32.3672 88.6295 31.2864 88.3291 30.1815 88.2994C30.0982 88.3029 30.0153 88.2858 29.9401 88.2496C29.865 88.2134 29.7999 88.1592 29.7508 88.0918C29.7016 88.0244 29.6698 87.9459 29.6582 87.8633C29.6466 87.7807 29.6556 87.6965 29.6844 87.6182C29.7191 87.5256 29.7806 87.4454 29.8611 87.3878C29.9416 87.3303 30.0374 87.2982 30.1363 87.2954C30.8788 87.2761 32.6736 87.3471 33.8132 88.3898C34.0972 89.0515 33.3289 89.1742 33.3289 89.1742Z" fill="black"/>
<path d="M80.9683 96.6179L87.0372 94.2097C86.9339 92.6441 86.5497 90.5587 86.95 86.4623L80.0645 85.1484V92.0469L80.9683 96.6179Z" fill="#FFCFCE"/>
<path d="M98.2909 101.95C98.4538 102.44 98.4238 102.973 98.207 103.441C98.0004 103.877 95.7246 105.159 92.6546 104.952C90.3834 104.791 88.1967 104.025 86.3211 102.734C85.1493 101.96 83.9323 101.814 82.4119 101.727C80.8914 101.64 78.8965 100.881 78.5607 100.171C78.225 99.4611 78.6124 98.2344 78.6124 98.2344L98.2909 101.95Z" fill="#263238"/>
<path d="M85.9027 92.3731L86.1448 92.3214C86.2764 92.2866 86.4137 92.2789 86.5483 92.2988C86.6983 92.3449 86.831 92.4349 86.9292 92.5571C87.2297 92.9409 87.4924 93.3527 87.7137 93.787C88.3593 94.8361 89.7054 95.7045 91.1807 96.4986C92.1846 97.0377 93.1659 97.467 94.2022 97.9222C95.2384 98.3774 96.6588 98.6873 97.4851 99.2425C98.6925 100.056 98.8474 102.096 97.4851 102.9C96.3004 103.594 93.1853 104.349 89.9185 103.423C88.1398 102.919 86.1642 101.018 83.827 100.84C82.3421 100.724 79.5337 100.308 78.5749 99.1812C78.223 98.6808 78.6943 97.0926 79.0817 95.7239C79.5046 94.2292 79.6628 91.5951 80.1567 91.7275C80.1567 91.7275 80.0211 92.0987 80.2148 92.2988C80.4085 92.499 81.0928 92.896 81.2897 93.0671C81.6343 93.4071 81.9133 93.8076 82.1129 94.2486C82.194 94.4474 82.3442 94.6101 82.5358 94.707C82.7844 94.8006 82.9716 94.6424 83.1814 94.5424C83.4579 94.4197 83.7686 94.398 84.0595 94.481C84.0303 94.1859 83.9785 93.8934 83.9045 93.6062C83.87 93.5156 83.8621 93.417 83.8819 93.3221C83.9197 93.2317 83.9867 93.1567 84.0724 93.1091C84.6244 92.7386 85.2479 92.4879 85.9027 92.3731Z" fill="#FC5474"/>
<path d="M89.7953 95.6892C89.6882 95.4847 89.5317 95.3103 89.34 95.1818C89.1483 95.0533 88.9276 94.9747 88.6978 94.9532C88.0199 94.8273 86.8287 95.3276 86.0862 95.9216C86.0157 95.9788 85.9603 96.0525 85.9248 96.1362C85.8894 96.2198 85.875 96.3109 85.883 96.4014C85.891 96.4919 85.921 96.5791 85.9705 96.6553C86.02 96.7315 86.0875 96.7943 86.1669 96.8384C86.2683 96.8963 86.3853 96.9206 86.5013 96.9079C86.6173 96.8951 86.7263 96.8459 86.8126 96.7673C87.6289 96.034 88.6987 95.6473 89.7953 95.6892Z" fill="#ACACAC"/>
<path d="M91.892 96.8635C91.7451 96.6578 91.5515 96.4899 91.327 96.3737C91.1025 96.2575 90.8535 96.1964 90.6008 96.1953C90.6008 96.1953 88.835 96.2437 87.7439 97.2638C87.6764 97.3192 87.6234 97.3902 87.5894 97.4706C87.5554 97.5511 87.5415 97.6385 87.5488 97.7256C87.5561 97.8126 87.5844 97.8965 87.6313 97.9701C87.6782 98.0438 87.7424 98.1049 87.8181 98.1483C87.9146 98.2014 88.0252 98.2231 88.1345 98.2103C88.2439 98.1976 88.3466 98.1511 88.4282 98.0773C88.8781 97.6289 89.4228 97.2871 90.0223 97.0771C90.6217 96.867 91.2606 96.794 91.892 96.8635Z" fill="#ACACAC"/>
<path d="M94.2033 97.9194C94.0351 97.7274 93.8275 97.5737 93.5947 97.469C93.3618 97.3643 93.1092 97.3109 92.8539 97.3125C92.8539 97.3125 91.2076 97.3739 90.1165 98.394C90.0497 98.4498 89.9973 98.5208 89.9637 98.6012C89.9302 98.6815 89.9165 98.7687 89.9238 98.8555C89.9311 98.9422 89.9591 99.026 90.0056 99.0996C90.052 99.1732 90.1155 99.2346 90.1907 99.2785C90.287 99.332 90.3977 99.3539 90.5072 99.3412C90.6167 99.3285 90.7194 99.2817 90.8008 99.2074C91.2286 98.7428 91.7589 98.3844 92.3496 98.1608C92.9403 97.9371 93.575 97.8545 94.2033 97.9194Z" fill="#ACACAC"/>
<path opacity="0.3" d="M89.7953 95.6892C89.6882 95.4847 89.5317 95.3103 89.34 95.1818C89.1483 95.0533 88.9276 94.9747 88.6978 94.9532C88.0199 94.8273 86.8287 95.3276 86.0862 95.9216C86.0157 95.9788 85.9603 96.0525 85.9248 96.1362C85.8894 96.2198 85.875 96.3109 85.883 96.4014C85.891 96.4919 85.921 96.5791 85.9705 96.6553C86.02 96.7315 86.0875 96.7943 86.1669 96.8384C86.2683 96.8963 86.3853 96.9206 86.5013 96.9079C86.6173 96.8951 86.7263 96.8459 86.8126 96.7673C87.6289 96.034 88.6987 95.6473 89.7953 95.6892Z" fill="black"/>
<path opacity="0.3" d="M91.892 96.8635C91.7451 96.6578 91.5515 96.4899 91.327 96.3737C91.1025 96.2575 90.8535 96.1964 90.6008 96.1953C90.6008 96.1953 88.835 96.2437 87.7439 97.2638C87.6764 97.3192 87.6234 97.3902 87.5894 97.4706C87.5554 97.5511 87.5415 97.6385 87.5488 97.7256C87.5561 97.8126 87.5844 97.8965 87.6313 97.9701C87.6782 98.0438 87.7424 98.1049 87.8181 98.1483C87.9146 98.2014 88.0252 98.2231 88.1345 98.2103C88.2439 98.1976 88.3466 98.1511 88.4282 98.0773C88.8781 97.6289 89.4228 97.2871 90.0223 97.0771C90.6217 96.867 91.2606 96.794 91.892 96.8635Z" fill="black"/>
<path opacity="0.3" d="M94.2033 97.9194C94.0351 97.7274 93.8275 97.5737 93.5947 97.469C93.3618 97.3643 93.1092 97.3109 92.8539 97.3125C92.8539 97.3125 91.2076 97.3739 90.1165 98.394C90.0497 98.4498 89.9973 98.5208 89.9637 98.6012C89.9302 98.6815 89.9165 98.7687 89.9238 98.8555C89.9311 98.9422 89.9591 99.026 90.0056 99.0996C90.052 99.1732 90.1155 99.2346 90.1907 99.2785C90.287 99.332 90.3977 99.3539 90.5072 99.3412C90.6167 99.3285 90.7194 99.2817 90.8008 99.2074C91.2286 98.7428 91.7589 98.3844 92.3496 98.1608C92.9403 97.9371 93.575 97.8545 94.2033 97.9194Z" fill="black"/>
<path d="M85.1155 61.9926C80.509 60.9563 69.4753 58.6483 69.4753 58.6483L69.6529 55.7042C65.6597 57.7734 57.2666 57.1891 53.3929 54.1289L52.7796 57.2505C51.3114 59.0086 50.0405 60.9225 48.9898 62.9578C48.102 64.7106 46.6236 67.4448 48.0956 73.8139C48.9607 77.552 50.1164 87.401 50.1164 87.401L38.818 83.24C38.818 83.24 37.8496 83.4046 37.0296 85.519C36.5487 86.7747 36.384 87.9788 36.8747 88.6018C41.0067 91.8622 47.7018 97.1951 54.4679 100.184C58.9872 101.915 61.3889 98.1151 61.6117 96.7076C62.4574 91.3167 63.4388 73.9947 63.4388 73.9947L78.5269 73.4975C78.0298 76.3576 80.0635 87.5333 80.0635 87.5333C80.0635 87.5333 83.7791 89.1474 86.8587 87.4946C86.8587 87.4946 88.9182 74.6338 89.1184 70.3437C89.3346 65.5693 89.58 62.9933 85.1155 61.9926Z" fill="#ACACAC"/>
<path opacity="0.15" d="M78.5278 73.4972C78.5278 72.7257 79.041 70.027 80.7874 68.5938C80.7874 68.5938 78.3922 69.0231 77.2979 73.536L78.5278 73.4972Z" fill="black"/>
<path opacity="0.15" d="M50.1178 87.393C50.1178 87.393 50.4406 91.6476 51.2509 93.7168C51.2509 93.7168 49.214 90.0368 48.9912 86.9766L50.1178 87.393Z" fill="black"/>
<path opacity="0.15" d="M69.4728 58.6483L69.6536 55.7074C65.6604 57.7734 57.2673 57.1891 53.3936 54.1289L52.7803 57.2505C52.8093 57.2828 55.295 59.833 61.7576 60.1848C68.2203 60.5367 69.4728 58.6483 69.4728 58.6483Z" fill="black"/>
<path opacity="0.15" d="M63.4495 73.9892C63.3953 72.3912 63.0167 70.8209 62.3369 69.3736C61.6572 67.9264 60.6903 66.6324 59.4951 65.5703C59.4951 65.5703 62.9686 67.1844 64.1307 72.2945C64.1307 72.2945 66.7132 71.0904 68.0625 67.4813C68.0625 67.4813 67.6493 71.0904 65.5704 73.1402L71.8394 73.7213L63.4495 73.9892Z" fill="black"/>
<path d="M61.4169 8.69922C58.7415 8.69922 56.1756 9.76204 54.2838 11.6539C52.3919 13.5457 51.3291 16.1116 51.3291 18.787C51.3291 21.4628 52.3918 24.029 54.2836 25.9214C56.1753 27.8137 58.7412 28.8773 61.4169 28.8781C64.093 28.8773 66.6592 27.8138 68.5514 25.9216C70.4437 24.0293 71.5071 21.4631 71.508 18.787C71.5071 16.1113 70.4436 13.5454 68.5512 11.6537C66.6589 9.76194 64.0927 8.69922 61.4169 8.69922Z" fill="#263238"/>
<path d="M50.8916 14.8455C51.2564 14.8288 51.622 14.8493 51.9827 14.9068C52.1045 14.9137 52.2195 14.9654 52.3055 15.0521C52.3543 15.1264 52.3831 15.212 52.3894 15.3006C52.4688 15.8612 52.4169 16.4325 52.2377 16.9696C52.0924 17.3408 51.6502 17.5345 51.3693 17.8056C50.2782 18.8612 50.1911 20.6173 50.6204 22.0732C51.0497 23.5291 51.9116 24.8268 52.4701 26.231C53.0286 27.6352 53.3256 29.3364 52.5347 30.7503C52.2119 31.2959 51.6695 31.7188 51.7373 32.3644C51.8148 33.1553 52.5056 33.9139 52.8026 34.6241C53.1268 35.4708 53.2376 36.3843 53.1254 37.284C53.0352 38.3993 52.6149 39.4624 51.9181 40.3378C51.3868 40.956 50.7014 41.4225 49.9315 41.6901C49.1615 41.9577 48.3345 42.0169 47.5343 41.8615C47.197 41.8026 46.8777 41.6667 46.6014 41.4644C46.1269 41.0835 45.9397 40.4605 45.6814 39.9085C44.8486 38.1233 43.0989 36.8256 42.5631 34.9307C42.0014 32.9261 42.9633 30.8149 44.1448 29.1008C44.6968 28.3002 45.3134 27.5126 45.5846 26.5796C45.9493 25.3174 45.6298 23.9713 45.5458 22.6607C45.4608 21.377 45.604 20.0885 45.9687 18.8548C46.2366 17.9638 46.6434 16.9373 47.3407 16.2981C48.3183 15.414 49.5746 14.9001 50.8916 14.8455Z" fill="#263238"/>
<path d="M67.7384 13.3164C68.8456 13.9782 70.2015 16.7705 70.0433 22.6133C69.9077 27.5653 68.2969 28.7823 67.4898 29.1309C66.6828 29.4795 65.1301 29.26 63.6161 29.0018V31.9749C63.6161 31.9749 65.695 34.4088 65.553 35.7711C65.4109 37.1334 62.5315 37.4465 60.5817 36.0939C58.6319 34.7413 56.992 32.1782 56.992 32.1782L57.0534 25.3411C57.0534 25.3411 56.1592 26.203 54.6581 24.8763C53.4153 23.7819 53.0053 21.9451 53.9802 20.9638C54.9551 19.9824 56.7467 20.2601 57.4278 21.6675C57.4278 21.6675 59.836 21.7644 63.0544 20.0147C64.3079 19.3465 65.3857 18.3914 66.1997 17.2273C67.0137 16.0632 67.541 14.7231 67.7384 13.3164Z" fill="#FFCFCE"/>
<path d="M64.5185 21.3464C64.5191 21.4687 64.4836 21.5886 64.4164 21.6909C64.3493 21.7932 64.2535 21.8735 64.1411 21.9218C64.0286 21.97 63.9044 21.984 63.784 21.9621C63.6636 21.9402 63.5523 21.8834 63.464 21.7986C63.3757 21.7139 63.3144 21.605 63.2876 21.4856C63.2608 21.3662 63.2697 21.2415 63.3134 21.1272C63.357 21.0128 63.4333 20.9139 63.5328 20.8426C63.6323 20.7714 63.7506 20.731 63.8729 20.7266C64.0397 20.7264 64.2001 20.7909 64.3205 20.9064C64.4409 21.022 64.5118 21.1796 64.5185 21.3464Z" fill="#263238"/>
<g style="mix-blend-mode:multiply" opacity="0.5">
<path d="M64.6682 25.543L66.1112 26.011C66.0849 26.1079 66.0394 26.1985 65.9773 26.2773C65.9152 26.3562 65.8378 26.4217 65.7498 26.4699C65.6618 26.5181 65.5649 26.5481 65.465 26.558C65.3652 26.5679 65.2643 26.5575 65.1686 26.5275C64.9742 26.4598 64.8136 26.3194 64.7203 26.1359C64.6271 25.9524 64.6084 25.7399 64.6682 25.543Z" fill="#FFDDDD"/>
</g>
<path d="M69.6337 19.4593L68.3779 18.578C68.4311 18.4936 68.5009 18.4209 68.5831 18.3643C68.6652 18.3077 68.758 18.2684 68.8559 18.2488C68.9537 18.2291 69.0545 18.2296 69.1521 18.2501C69.2498 18.2707 69.3422 18.3108 69.4238 18.3682C69.5926 18.4881 69.7085 18.6684 69.7476 18.8717C69.7867 19.0749 69.7459 19.2854 69.6337 19.4593Z" fill="#263238"/>
<path d="M69.3378 20.9128C69.3384 21.0351 69.3029 21.155 69.2358 21.2573C69.1686 21.3596 69.0729 21.4399 68.9604 21.4882C68.8479 21.5364 68.7237 21.5505 68.6033 21.5286C68.4829 21.5067 68.3716 21.4498 68.2834 21.365C68.1951 21.2803 68.1337 21.1714 68.1069 21.052C68.0801 20.9326 68.0891 20.8079 68.1327 20.6936C68.1763 20.5792 68.2526 20.4803 68.3521 20.409C68.4516 20.3378 68.5699 20.2974 68.6922 20.293C68.8591 20.2928 69.0195 20.3573 69.1398 20.4728C69.2602 20.5884 69.3312 20.7461 69.3378 20.9128Z" fill="#263238"/>
<g style="mix-blend-mode:multiply" opacity="0.5">
<path d="M66.3984 20.5508L66.4824 24.3018L68.458 23.6982L66.3984 20.5508Z" fill="#FFDDDD"/>
</g>
<g style="mix-blend-mode:multiply" opacity="0.5">
<path d="M63.6206 29.0014C62.0291 28.7851 58.7558 27.8329 58.249 26.5352C58.4519 27.1909 58.8507 27.7688 59.3918 28.1912C60.3602 29.0337 63.6141 29.9925 63.6141 29.9925L63.6206 29.0014Z" fill="#FFDDDD"/>
</g>
<path d="M52.7816 32.0078C49.6568 32.2273 48.3655 32.6276 46.6256 36.4884C45.0632 39.9586 41.3153 48.936 40.3792 50.9406C39.443 52.9453 39.2655 53.7459 40.0564 55.8409C40.702 57.5486 45.9735 67.3588 46.5513 68.7888C47.1292 70.2189 47.3842 71.6651 48.3688 73.3308C49.3533 74.9965 50.9093 76.6235 52.1392 77.0076C53.9631 77.579 56.3357 76.7849 56.4067 75.6841C56.4778 74.5833 53.7306 72.7465 52.9817 70.3028C53.478 70.6289 54.0006 70.9129 54.5441 71.1518C55.2866 71.4553 56.1098 71.3875 56.3551 70.9678C56.6004 70.5482 55.8612 70.2899 55.2027 69.6378C54.8088 69.2472 54.1116 68.3692 53.2206 67.5944C52.6202 67.0715 51.6291 66.9165 51.1869 66.3419C50.9448 66.0353 49.8601 63.3785 49.0467 61.0091C48.0363 58.078 46.7095 54.172 46.7095 54.172L52.1392 42.8736C52.1392 42.8736 56.4003 38.6351 52.7816 32.0078Z" fill="#FFCFCE"/>
<path d="M46.5444 68.7909C46.5444 68.7909 47.7937 66.2633 51.1799 66.344L50.2858 64.3555C50.2858 64.3555 46.9802 64.5879 45.5889 66.8217L46.5444 68.7909Z" fill="#37474F"/>
<path d="M46.1784 66.642L46.9144 67.6718C46.9669 67.7467 47.0341 67.8103 47.1119 67.8586C47.1897 67.907 47.2764 67.939 47.3669 67.9529C47.4574 67.9668 47.5498 67.9622 47.6384 67.9394C47.7271 67.9166 47.8103 67.876 47.8828 67.8202L49.1741 66.8518C49.3235 66.7364 49.4236 66.5686 49.4542 66.3823C49.4847 66.1959 49.4435 66.005 49.3387 65.8479L48.664 64.8536C48.6139 64.7761 48.5484 64.7098 48.4715 64.6588C48.3946 64.6078 48.308 64.5732 48.2171 64.5571C48.1262 64.5411 48.033 64.5439 47.9433 64.5655C47.8536 64.5871 47.7693 64.6269 47.6956 64.6825L46.3237 65.651C46.1734 65.7634 46.0738 65.9308 46.0466 66.1165C46.0194 66.3022 46.0667 66.4911 46.1784 66.642Z" fill="#263238"/>
<path d="M45.9351 66.615L46.6712 67.6448C46.7237 67.7197 46.7909 67.7832 46.8685 67.8315C46.9462 67.8799 47.0328 67.9121 47.1232 67.9263C47.2135 67.9404 47.3059 67.9362 47.3946 67.9139C47.4833 67.8917 47.5666 67.8517 47.6396 67.7965L48.9308 66.8281C49.0808 66.7131 49.1815 66.5455 49.2127 66.3592C49.2439 66.1728 49.2031 65.9816 49.0987 65.8241L48.424 64.8299C48.373 64.7535 48.307 64.6883 48.23 64.638C48.1531 64.5878 48.0668 64.5537 47.9763 64.5377C47.8858 64.5217 47.7931 64.5242 47.7036 64.545C47.6141 64.5658 47.5297 64.6045 47.4556 64.6588L46.0869 65.6434C45.9397 65.7534 45.8415 65.9167 45.8131 66.0983C45.7848 66.2799 45.8286 66.4653 45.9351 66.615Z" fill="#455A64"/>
<path d="M48.9656 66.2745C48.9586 66.338 48.9387 66.3995 48.907 66.455C48.8754 66.5105 48.8327 66.5589 48.7816 66.5973L47.4904 67.5658C47.3977 67.6343 47.2816 67.6633 47.1676 67.6465C47.1126 67.6382 47.0599 67.6188 47.0127 67.5894C46.9655 67.5599 46.9248 67.5211 46.8932 67.4754L46.1572 66.4424C46.0943 66.3556 46.0656 66.2488 46.0765 66.1422C46.0817 66.0786 46.1006 66.0168 46.1318 65.9611C46.163 65.9054 46.2058 65.8571 46.2573 65.8194L47.626 64.8509C47.6718 64.817 47.7241 64.7928 47.7796 64.78C47.8352 64.7673 47.8928 64.7661 47.9488 64.7767C48.0043 64.7857 48.0574 64.8061 48.1046 64.8367C48.1518 64.8672 48.1922 64.9073 48.2232 64.9542L48.8979 65.9485C48.9612 66.0435 48.9886 66.1579 48.9753 66.2713L48.9656 66.2745Z" fill="#ACACAC"/>
</g>
</svg>
