<svg width="16" height="17" viewBox="0 0 16 17" fill="none" xmlns="http://www.w3.org/2000/svg">
<path d="M4.58667 12.7023C4.31334 12.7023 4.08667 12.4756 4.08667 12.2023V10.8223C4.08667 10.5489 4.31334 10.3223 4.58667 10.3223C4.86 10.3223 5.08667 10.5489 5.08667 10.8223V12.2023C5.08667 12.4823 4.86 12.7023 4.58667 12.7023Z" fill="white"/>
<path d="M8 12.7023C7.72667 12.7023 7.5 12.4757 7.5 12.2023V9.43567C7.5 9.16234 7.72667 8.93567 8 8.93567C8.27333 8.93567 8.5 9.16234 8.5 9.43567V12.2023C8.5 12.4823 8.27333 12.7023 8 12.7023Z" fill="white"/>
<path d="M11.4133 12.7023C11.14 12.7023 10.9133 12.4757 10.9133 12.2023V8.05566C10.9133 7.78233 11.14 7.55566 11.4133 7.55566C11.6867 7.55566 11.9133 7.78233 11.9133 8.05566V12.2023C11.9133 12.4823 11.6933 12.7023 11.4133 12.7023Z" fill="white"/>
<path d="M4.58672 8.88899C4.36005 8.88899 4.16005 8.73566 4.10005 8.50899C4.03338 8.24232 4.19338 7.96899 4.46672 7.90232C6.92005 7.28899 9.08005 5.94899 10.7267 4.03566L11.0334 3.67566C11.2134 3.46899 11.5267 3.44232 11.74 3.62232C11.9467 3.80232 11.9734 4.11566 11.7934 4.32899L11.4867 4.68899C9.70672 6.76899 7.36005 8.21566 4.70672 8.87566C4.66672 8.88899 4.62672 8.88899 4.58672 8.88899Z" fill="white"/>
<path d="M11.4133 6.44899C11.14 6.44899 10.9133 6.22232 10.9133 5.94899V4.50232H9.45996C9.18663 4.50232 8.95996 4.27565 8.95996 4.00232C8.95996 3.72899 9.18663 3.50232 9.45996 3.50232H11.4133C11.6866 3.50232 11.9133 3.72899 11.9133 4.00232V5.95565C11.9133 6.22899 11.6933 6.44899 11.4133 6.44899Z" fill="white"/>
<path d="M9.99992 15.269H5.99992C2.37992 15.269 0.833252 13.7223 0.833252 10.1023V6.10234C0.833252 2.48234 2.37992 0.935669 5.99992 0.935669H9.99992C13.6199 0.935669 15.1666 2.48234 15.1666 6.10234V10.1023C15.1666 13.7223 13.6199 15.269 9.99992 15.269ZM5.99992 1.93567C2.92659 1.93567 1.83325 3.029 1.83325 6.10234V10.1023C1.83325 13.1757 2.92659 14.269 5.99992 14.269H9.99992C13.0733 14.269 14.1666 13.1757 14.1666 10.1023V6.10234C14.1666 3.029 13.0733 1.93567 9.99992 1.93567H5.99992Z" fill="white"/>
</svg>
