<svg width="16" height="17" viewBox="0 0 16 17" fill="none" xmlns="http://www.w3.org/2000/svg">
<path d="M6.16513 15.5849C6.15861 15.5849 6.15209 15.5849 6.13904 15.5849C5.04339 15.5784 4.26078 14.5936 3.70643 13.7393C2.29121 11.5675 2.00426 8.83492 3.02817 7.25014C3.71295 6.18709 4.82165 5.52839 5.9173 5.52839C6.48469 5.52839 6.92817 5.68492 7.31947 5.8284C7.63252 5.93927 7.89991 6.03708 8.18034 6.03708C8.42817 6.03708 8.64339 5.95231 8.9173 5.84797C9.29556 5.70449 9.7586 5.52839 10.4303 5.52839C11.3956 5.52839 12.3377 6.01459 13.0782 6.91752C13.8233 7.82618 13.8804 9.25145 13.9195 9.8066C13.949 10.2336 13.684 11.7451 13.489 12.1349C13.2021 12.774 13.0586 13.0675 12.6869 13.6414C12.0673 14.5936 11.2847 15.5719 10.2151 15.5849C9.75208 15.5849 9.43904 15.448 9.16513 15.3175C8.89121 15.1936 8.62382 15.0958 8.19991 15.0828C7.74339 15.0828 7.50208 15.1936 7.22165 15.3175C6.93469 15.448 6.62165 15.5849 6.16513 15.5849ZM7.85426 5.39796C7.83469 5.39796 7.80861 5.39796 7.78904 5.39796C7.56078 5.39144 7.36513 5.22188 7.326 4.99362C7.18904 4.25666 7.44991 3.40882 8.0173 2.71752C8.53904 2.08491 9.39991 1.61535 10.163 1.56318C10.4303 1.55014 10.6456 1.72623 10.6782 1.98058C10.789 2.74362 10.5477 3.5784 10.0064 4.27622C9.47817 4.96101 8.63687 5.39796 7.85426 5.39796Z" fill="white"/>
</svg>
