<svg width="20" height="20" viewBox="0 0 20 20" fill="none" xmlns="http://www.w3.org/2000/svg">
<path d="M3.44664 9.64801L3.09309 10.0016L3.44664 10.3551L8.06331 14.9718C8.08484 14.9933 8.09811 15.024 8.09811 15.0599C8.09811 15.0957 8.08484 15.1265 8.06331 15.148L8.05722 15.1541L8.05134 15.1604C8.04806 15.1639 8.04098 15.1699 8.02706 15.1754C8.01245 15.1812 7.99411 15.1849 7.9752 15.1849C7.95751 15.1849 7.94199 15.1817 7.92867 15.1763C7.91581 15.1711 7.90176 15.1627 7.88708 15.148L2.82875 10.0897L2.48241 10.436L2.82875 10.0897C2.80722 10.0681 2.79395 10.0374 2.79395 10.0016C2.79395 9.96571 2.80722 9.93498 2.82875 9.91345L7.88708 4.85512C7.90861 4.83359 7.93934 4.82031 7.9752 4.82031C8.01105 4.82031 8.04178 4.83359 8.06331 4.85512C8.08484 4.87664 8.09811 4.90738 8.09811 4.94323C8.09811 4.97908 8.08484 5.00982 8.06331 5.03134L3.44664 9.64801Z" fill="#909090" stroke="#909090"/>
<path d="M17.0831 10.625H3.05811C2.71644 10.625 2.43311 10.3417 2.43311 10C2.43311 9.65833 2.71644 9.375 3.05811 9.375H17.0831C17.4248 9.375 17.7081 9.65833 17.7081 10C17.7081 10.3417 17.4248 10.625 17.0831 10.625Z" fill="#909090"/>
</svg>
