<svg width="12" height="12" viewBox="0 0 12 12" fill="none" xmlns="http://www.w3.org/2000/svg">
<path d="M6 11.375C3.035 11.375 0.625 8.965 0.625 6C0.625 3.035 3.035 0.625 6 0.625C8.965 0.625 11.375 3.035 11.375 6C11.375 8.965 8.965 11.375 6 11.375ZM6 1.375C3.45 1.375 1.375 3.45 1.375 6C1.375 8.55 3.45 10.625 6 10.625C8.55 10.625 10.625 8.55 10.625 6C10.625 3.45 8.55 1.375 6 1.375Z" fill="white"/>
<path d="M6.00008 7.50496C5.90508 7.50496 5.81008 7.46996 5.73508 7.39496L3.97008 5.62996C3.82508 5.48496 3.82508 5.24496 3.97008 5.09996C4.11508 4.95496 4.35508 4.95496 4.50008 5.09996L6.00008 6.59996L7.50008 5.09996C7.64508 4.95496 7.88508 4.95496 8.03008 5.09996C8.17508 5.24496 8.17508 5.48496 8.03008 5.62996L6.26508 7.39496C6.19008 7.46996 6.09508 7.50496 6.00008 7.50496Z" fill="white"/>
</svg>
