<svg width="12" height="12" viewBox="0 0 12 12" fill="none" xmlns="http://www.w3.org/2000/svg">
<path d="M6 11.375C3.035 11.375 0.625 8.965 0.625 6C0.625 3.035 3.035 0.625 6 0.625C8.965 0.625 11.375 3.035 11.375 6C11.375 8.965 8.965 11.375 6 11.375ZM6 1.375C3.45 1.375 1.375 3.45 1.375 6C1.375 8.55 3.45 10.625 6 10.625C8.55 10.625 10.625 8.55 10.625 6C10.625 3.45 8.55 1.375 6 1.375Z" fill="white"/>
<path d="M5.99813 7.50496C5.90313 7.50496 5.80813 7.46996 5.73313 7.39496L3.96813 5.62996C3.82313 5.48496 3.82313 5.24496 3.96813 5.09996C4.11313 4.95496 4.35313 4.95496 4.49813 5.09996L5.99813 6.59996L7.49813 5.09996C7.64313 4.95496 7.88313 4.95496 8.02813 5.09996C8.17313 5.24496 8.17313 5.48496 8.02813 5.62996L6.26313 7.39496C6.18813 7.46996 6.09313 7.50496 5.99813 7.50496Z" fill="white"/>
</svg>
