<svg width="16" height="16" viewBox="0 0 16 16" fill="none" xmlns="http://www.w3.org/2000/svg">
<path d="M9.99967 15.1673H5.99967C2.37967 15.1673 0.833008 13.6207 0.833008 10.0007V6.00065C0.833008 2.38065 2.37967 0.833984 5.99967 0.833984H9.99967C13.6197 0.833984 15.1663 2.38065 15.1663 6.00065V10.0007C15.1663 13.6207 13.6197 15.1673 9.99967 15.1673ZM5.99967 1.83398C2.92634 1.83398 1.83301 2.92732 1.83301 6.00065V10.0007C1.83301 13.074 2.92634 14.1673 5.99967 14.1673H9.99967C13.073 14.1673 14.1663 13.074 14.1663 10.0007V6.00065C14.1663 2.92732 13.073 1.83398 9.99967 1.83398H5.99967Z" fill="#005F73"/>
<path d="M8.0001 9.93956C7.87344 9.93956 7.74677 9.89289 7.64677 9.79289L5.29344 7.43956C5.1001 7.24622 5.1001 6.92622 5.29344 6.73289C5.48677 6.53956 5.80677 6.53956 6.0001 6.73289L8.0001 8.73289L10.0001 6.73289C10.1934 6.53956 10.5134 6.53956 10.7068 6.73289C10.9001 6.92622 10.9001 7.24622 10.7068 7.43956L8.35344 9.79289C8.25344 9.89289 8.12677 9.93956 8.0001 9.93956Z" fill="#005F73"/>
</svg>
