<svg width="12" height="12" viewBox="0 0 12 12" fill="none" xmlns="http://www.w3.org/2000/svg">
<path d="M7.21457 9.41055C7.11957 9.41055 7.02457 9.37555 6.94957 9.30055C6.80457 9.15555 6.80457 8.91555 6.94957 8.77055L9.71957 6.00055L6.94957 3.23055C6.80457 3.08555 6.80457 2.84555 6.94957 2.70055C7.09457 2.55555 7.33457 2.55555 7.47957 2.70055L10.5146 5.73555C10.6596 5.88055 10.6596 6.12055 10.5146 6.26555L7.47957 9.30055C7.40457 9.37555 7.30957 9.41055 7.21457 9.41055Z" fill="white"/>
<path d="M10.165 6.375H1.75C1.545 6.375 1.375 6.205 1.375 6C1.375 5.795 1.545 5.625 1.75 5.625H10.165C10.37 5.625 10.54 5.795 10.54 6C10.54 6.205 10.37 6.375 10.165 6.375Z" fill="white"/>
</svg>
