<svg width="16" height="16" viewBox="0 0 16 16" fill="none" xmlns="http://www.w3.org/2000/svg">
<path d="M8.00065 15.1666C4.04732 15.1666 0.833984 11.9533 0.833984 7.99998C0.833984 4.04665 4.04732 0.833313 8.00065 0.833313C11.954 0.833313 15.1673 4.04665 15.1673 7.99998C15.1673 11.9533 11.954 15.1666 8.00065 15.1666ZM8.00065 1.83331C4.60065 1.83331 1.83398 4.59998 1.83398 7.99998C1.83398 11.4 4.60065 14.1666 8.00065 14.1666C11.4007 14.1666 14.1673 11.4 14.1673 7.99998C14.1673 4.59998 11.4007 1.83331 8.00065 1.83331Z" fill="#005F73"/>
<path d="M10.3534 9.34001C10.2268 9.34001 10.1001 9.29334 10.0001 9.19334L8.0001 7.19334L6.0001 9.19334C5.80677 9.38668 5.48677 9.38668 5.29344 9.19334C5.1001 9.00001 5.1001 8.68001 5.29344 8.48668L7.64677 6.13334C7.8401 5.94001 8.1601 5.94001 8.35344 6.13334L10.7068 8.48668C10.9001 8.68001 10.9001 9.00001 10.7068 9.19334C10.6068 9.29334 10.4801 9.34001 10.3534 9.34001Z" fill="#005F73"/>
</svg>
