<svg width="16" height="16" viewBox="0 0 16 16" fill="none" xmlns="http://www.w3.org/2000/svg">
<path d="M8.00065 15.1666C4.04732 15.1666 0.833984 11.9533 0.833984 7.99998C0.833984 4.04665 4.04732 0.833313 8.00065 0.833313C11.954 0.833313 15.1673 4.04665 15.1673 7.99998C15.1673 11.9533 11.954 15.1666 8.00065 15.1666ZM8.00065 1.83331C4.60065 1.83331 1.83398 4.59998 1.83398 7.99998C1.83398 11.4 4.60065 14.1666 8.00065 14.1666C11.4007 14.1666 14.1673 11.4 14.1673 7.99998C14.1673 4.59998 11.4007 1.83331 8.00065 1.83331Z" fill="#005F73"/>
<path d="M8.0001 10.0067C7.87344 10.0067 7.74677 9.96003 7.64677 9.86003L5.29344 7.5067C5.1001 7.31336 5.1001 6.99336 5.29344 6.80003C5.48677 6.6067 5.80677 6.6067 6.0001 6.80003L8.0001 8.80003L10.0001 6.80003C10.1934 6.6067 10.5134 6.6067 10.7068 6.80003C10.9001 6.99336 10.9001 7.31336 10.7068 7.5067L8.35344 9.86003C8.25344 9.96003 8.12677 10.0067 8.0001 10.0067Z" fill="#005F73"/>
</svg>
