<svg width="16" height="16" viewBox="0 0 16 16" fill="none" xmlns="http://www.w3.org/2000/svg">
<path d="M13.7451 8.7134C13.4918 8.7134 13.2785 8.52007 13.2451 8.26673C13.0851 6.76007 12.2718 5.3934 11.0185 4.52673C10.7918 4.36673 10.7385 4.06007 10.8918 3.8334C11.0518 3.60673 11.3651 3.5534 11.5851 3.70673C13.0785 4.74007 14.0385 6.36673 14.2318 8.16007C14.2585 8.4334 14.0651 8.68007 13.7851 8.7134C13.7785 8.7134 13.7585 8.7134 13.7451 8.7134Z" fill="white"/>
<path d="M4.725 4.14481C3.49102 5.01404 2.65466 6.32953 2.38611 7.80111C2.65148 6.33145 3.48737 5.01911 4.72164 4.14181L4.72547 4.14279L4.72547 4.1428C4.72547 4.1428 4.72547 4.1428 4.72547 4.1428C4.72549 4.14289 4.72555 4.14335 4.72543 4.14404C4.72539 4.14428 4.72534 4.14446 4.7253 4.1446C4.7252 4.14467 4.7251 4.14474 4.725 4.14481ZM4.725 4.14481C4.72542 4.14451 4.72557 4.14437 4.72557 4.14437C4.72557 4.14437 4.72549 4.14444 4.72538 4.14459L5.01327 4.55334L4.72493 4.14486C4.72495 4.14484 4.72497 4.14483 4.725 4.14481Z" fill="white" stroke="white"/>
<path d="M10.2516 14.1284C8.71935 14.7669 6.9487 14.7111 5.46008 13.9599L5.45867 13.9591C5.45853 13.9593 5.45821 13.9596 5.45775 13.9602L10.2516 14.1284ZM10.2516 14.1284C9.54832 14.4253 8.80892 14.5735 8.03868 14.5735C7.13265 14.5735 6.2704 14.3663 5.45961 13.9616L10.2516 14.1284Z" fill="white" stroke="white"/>
<path d="M9.89416 3.27659C9.89416 3.2777 9.89416 3.27881 9.89416 3.27992C9.89054 4.2998 9.05673 5.12659 8.04083 5.12659C7.0192 5.12659 6.1911 4.30071 6.18751 3.27992L9.89416 3.27659ZM9.89416 3.27659C9.89417 3.2777 9.89417 3.27881 9.89417 3.27992C9.89417 4.30273 9.06364 5.13326 8.04083 5.13326C7.01803 5.13326 6.1875 4.30273 6.1875 3.27992C6.1875 2.25711 7.01803 1.42659 8.04083 1.42659C9.05427 1.42659 9.89235 2.25372 9.89416 3.27659Z" fill="white" stroke="white"/>
<path d="M3.22052 13.7799C1.92052 13.7799 0.867188 12.7266 0.867188 11.4266C0.867188 10.1332 1.92052 9.07324 3.22052 9.07324C4.52052 9.07324 5.57385 10.1266 5.57385 11.4266C5.57385 12.7199 4.52052 13.7799 3.22052 13.7799ZM3.22052 10.0732C2.47385 10.0732 1.86719 10.6799 1.86719 11.4266C1.86719 12.1732 2.47385 12.7799 3.22052 12.7799C3.96719 12.7799 4.57385 12.1732 4.57385 11.4266C4.57385 10.6799 3.96719 10.0732 3.22052 10.0732Z" fill="white"/>
<path d="M12.7791 13.7799C11.4791 13.7799 10.4258 12.7266 10.4258 11.4266C10.4258 10.1332 11.4791 9.07324 12.7791 9.07324C14.0791 9.07324 15.1324 10.1266 15.1324 11.4266C15.1258 12.7199 14.0724 13.7799 12.7791 13.7799ZM12.7791 10.0732C12.0324 10.0732 11.4258 10.6799 11.4258 11.4266C11.4258 12.1732 12.0324 12.7799 12.7791 12.7799C13.5258 12.7799 14.1324 12.1732 14.1324 11.4266C14.1258 10.6799 13.5258 10.0732 12.7791 10.0732Z" fill="white"/>
</svg>
