<svg width="16" height="16" viewBox="0 0 16 16" fill="none" xmlns="http://www.w3.org/2000/svg">
<path d="M13.749 8.7134C13.4957 8.7134 13.2824 8.52007 13.249 8.26673C13.089 6.76007 12.2757 5.3934 11.0224 4.52673C10.7957 4.36673 10.7424 4.06007 10.8957 3.8334C11.0557 3.60673 11.369 3.5534 11.589 3.70673C13.0824 4.74007 14.0424 6.36673 14.2357 8.16007C14.2624 8.4334 14.069 8.68007 13.789 8.7134C13.7824 8.7134 13.7624 8.7134 13.749 8.7134Z" fill="#6CC24A"/>
<path d="M2.3266 8.74668C2.3066 8.74668 2.29327 8.74668 2.27327 8.74668C1.99994 8.71334 1.79994 8.46668 1.8266 8.19334C2.0066 6.40001 2.95994 4.78001 4.43327 3.73334C4.65994 3.57334 4.97327 3.62668 5.13327 3.85334C5.29327 4.08001 5.23994 4.39334 5.01327 4.55334C3.77327 5.42668 2.97327 6.79334 2.81994 8.30001C2.79994 8.55334 2.57994 8.74668 2.3266 8.74668Z" fill="#6CC24A"/>
<path d="M8.03868 15.0735C7.05201 15.0735 6.11201 14.8468 5.23201 14.4068C4.98534 14.2801 4.88534 13.9801 5.01201 13.7335C5.13867 13.4868 5.43867 13.3868 5.68534 13.5135C7.12534 14.2401 8.85868 14.2535 10.312 13.5535C10.5587 13.4335 10.8587 13.5401 10.9787 13.7868C11.0987 14.0335 10.992 14.3335 10.7453 14.4535C9.89201 14.8668 8.98534 15.0735 8.03868 15.0735Z" fill="#6CC24A"/>
<path d="M8.04083 5.62659C6.74083 5.62659 5.6875 4.57326 5.6875 3.27326C5.6875 1.97326 6.74083 0.919922 8.04083 0.919922C9.34083 0.919922 10.3942 1.97326 10.3942 3.27326C10.3942 4.57326 9.33417 5.62659 8.04083 5.62659ZM8.04083 1.92659C7.29417 1.92659 6.6875 2.53326 6.6875 3.27992C6.6875 4.02659 7.29417 4.63326 8.04083 4.63326C8.7875 4.63326 9.39417 4.02659 9.39417 3.27992C9.39417 2.53326 8.78083 1.92659 8.04083 1.92659Z" fill="#6CC24A"/>
<path d="M3.22052 13.7799C1.92052 13.7799 0.867188 12.7266 0.867188 11.4266C0.867188 10.1332 1.92052 9.07324 3.22052 9.07324C4.52052 9.07324 5.57385 10.1266 5.57385 11.4266C5.57385 12.7199 4.52052 13.7799 3.22052 13.7799ZM3.22052 10.0732C2.47385 10.0732 1.86719 10.6799 1.86719 11.4266C1.86719 12.1732 2.47385 12.7799 3.22052 12.7799C3.96719 12.7799 4.57385 12.1732 4.57385 11.4266C4.57385 10.6799 3.96719 10.0732 3.22052 10.0732Z" fill="#6CC24A"/>
<path d="M12.7791 13.7799C11.4791 13.7799 10.4258 12.7266 10.4258 11.4266C10.4258 10.1332 11.4791 9.07324 12.7791 9.07324C14.0791 9.07324 15.1324 10.1266 15.1324 11.4266C15.1258 12.7199 14.0724 13.7799 12.7791 13.7799ZM12.7791 10.0732C12.0324 10.0732 11.4258 10.6799 11.4258 11.4266C11.4258 12.1732 12.0324 12.7799 12.7791 12.7799C13.5258 12.7799 14.1324 12.1732 14.1324 11.4266C14.1258 10.6799 13.5258 10.0732 12.7791 10.0732Z" fill="#6CC24A"/>
</svg>
