<svg width="24" height="24" viewBox="0 0 24 24" fill="none" xmlns="http://www.w3.org/2000/svg">
<path fill-rule="evenodd" clip-rule="evenodd" d="M17.3672 4.70585C16.2932 3.63191 14.552 3.63191 13.4781 4.70585L5.34635 12.8376C3.68663 14.4973 3.68663 17.1883 5.34635 18.848C7.00608 20.5077 9.69703 20.5077 11.3568 18.848L20.1188 10.086C20.4116 9.79312 20.8865 9.79312 21.1794 10.086C21.4723 10.3789 21.4723 10.8538 21.1794 11.1467L12.4174 19.9087C10.1719 22.1542 6.53122 22.1542 4.2857 19.9087C2.04018 17.6631 2.04018 14.0224 4.2857 11.7769L12.4174 3.64519C14.0772 1.98546 16.7681 1.98546 18.4278 3.64519C20.0876 5.30492 20.0876 7.99587 18.4278 9.6556L10.6343 17.4492C9.56034 18.5231 7.81915 18.5231 6.74519 17.4492C5.67125 16.3752 5.67125 14.634 6.74519 13.5601L13.9393 6.36601C14.2321 6.07312 14.707 6.07312 14.9999 6.36601C15.2928 6.65891 15.2928 7.13378 14.9999 7.42667L7.80585 14.6207C7.3177 15.1089 7.3177 15.9003 7.80585 16.3885C8.29401 16.8766 9.08547 16.8766 9.57362 16.3885L17.3672 8.59494C18.4411 7.52099 18.4411 5.77979 17.3672 4.70585Z" fill="#888888"/>
</svg>
