<svg width="12" height="17" viewBox="0 0 12 17" fill="none" xmlns="http://www.w3.org/2000/svg">
<g clip-path="url(#clip0_6470_122904)">
<path d="M1.93803 11.1705C1.92753 10.1436 2.25445 9.19285 2.81548 8.42088C3.32582 7.71858 3.61248 6.88091 3.61248 6.01509V5.67631C3.61248 4.33585 4.50981 3.20344 5.74095 2.83838C5.46985 2.75803 5.18267 2.71484 4.88534 2.71484C3.23725 2.71484 1.90126 4.04075 1.90126 5.67631V6.01509C1.90126 6.88091 1.61459 7.71858 1.10426 8.42088C0.543193 9.19285 0.21628 10.1436 0.226809 11.1705C0.25288 13.7184 2.37862 15.778 4.94572 15.7456C5.21806 15.7423 5.4847 15.7155 5.7438 15.6677C3.60428 15.2703 1.96093 13.4088 1.93803 11.1705Z" fill="#E5E5E5"/>
<path d="M6.59877 8.47656C5.12796 8.47656 3.93555 9.65994 3.93555 11.1196C3.93555 12.5794 5.12796 13.7628 6.59877 13.7628C8.0697 13.7628 9.26211 12.5794 9.26211 11.1196C9.26211 9.65994 8.0697 8.47656 6.59877 8.47656ZM7.26816 11.4226C6.88917 11.4226 6.58194 11.1176 6.58194 10.7416C6.58194 10.3655 6.88917 10.0605 7.26816 10.0605C7.64715 10.0605 7.95438 10.3655 7.95438 10.7416C7.95438 11.1176 7.64715 11.4226 7.26816 11.4226Z" fill="#E5E5E5"/>
<path d="M10.5841 8.20945C10.1249 7.59103 9.87214 6.82018 9.87214 6.03886V5.67571C9.87214 3.9799 8.5581 2.58314 6.88808 2.4369V1.4775C6.88808 1.31736 6.75817 1.1875 6.59806 1.1875C6.43795 1.1875 6.30815 1.31736 6.30815 1.4775V2.4369C4.63813 2.58314 3.32409 3.9799 3.32409 5.67571V6.01452C3.32409 6.80929 3.06765 7.58225 2.58249 8.24979C1.96142 9.10441 1.63883 10.1152 1.64968 11.173C1.66298 12.4754 2.18855 13.6991 3.12953 14.6189C4.06562 15.5338 5.29515 16.0354 6.59806 16.0354C6.61946 16.0354 6.64087 16.0353 6.66215 16.035C7.97025 16.0185 9.19731 15.5004 10.1176 14.5761C11.0392 13.6503 11.5467 12.4237 11.5467 11.1219C11.5469 10.0649 11.2139 9.05788 10.5841 8.20945ZM6.65485 15.4551C5.48335 15.4696 4.37545 15.0255 3.53493 14.204C2.70492 13.3927 2.24136 12.3142 2.22959 11.1669C2.22007 10.2347 2.50432 9.34383 3.05164 8.59067C3.60931 7.8234 3.90409 6.93253 3.90409 6.01449V5.67569C3.90409 4.20264 5.11265 3.00423 6.59806 3.00423C8.08359 3.00423 9.29209 4.20264 9.29209 5.67569V6.03882C9.29209 6.94379 9.58558 7.83738 10.1185 8.55516C10.6734 9.30275 10.9668 10.1904 10.9668 11.1219C10.9668 13.4812 9.0325 15.425 6.65485 15.4551Z" fill="#383838"/>
<path d="M7.26824 9.77344C6.72988 9.77344 6.29199 10.2091 6.29199 10.7446C6.29199 11.28 6.72988 11.7155 7.26824 11.7155C7.80648 11.7155 8.24449 11.28 8.24449 10.7446C8.24449 10.2091 7.80648 9.77344 7.26824 9.77344ZM7.26824 11.1356C7.04973 11.1356 6.87193 10.9602 6.87193 10.7446C6.87193 10.5289 7.04973 10.3535 7.26824 10.3535C7.48675 10.3535 7.66443 10.5289 7.66443 10.7446C7.66443 10.9602 7.48675 11.1356 7.26824 11.1356Z" fill="#383838"/>
</g>
<defs>
<clipPath id="clip0_6470_122904">
<rect width="11.3834" height="15.6522" fill="white" transform="translate(0.231445 0.785156)"/>
</clipPath>
</defs>
</svg>
