<svg width="43" height="43" viewBox="0 0 43 43" fill="none" xmlns="http://www.w3.org/2000/svg">
<path d="M41.5 21.543C41.5 32.5887 32.5457 41.543 21.5 41.543C10.4543 41.543 1.5 32.5887 1.5 21.543C1.5 10.4973 10.4543 1.54297 21.5 1.54297" stroke="#FFAB2C" stroke-width="2"/>
<path d="M21.5 1.54297C32.5457 1.54297 41.5 10.4973 41.5 21.543" stroke="#06C78D" stroke-width="2"/>
<path d="M41.5 21.543C41.5 32.5887 32.5457 41.543 21.5 41.543" stroke="#7F39FB" stroke-width="2"/>
<path d="M28.0064 11.543L24.2386 15.3107C23.4576 16.0918 22.1889 16.0169 21.1315 15.6974C20.065 15.3752 18.9785 15.5663 18.31 16.2347C17.1919 17.3528 17.2353 19.2089 18.4069 20.3805C19.5785 21.5521 20.7938 20.3285 21.749 21.2856C22.7027 22.2411 21.4779 23.4515 22.6495 24.6231C23.8211 25.7947 25.6772 25.8381 26.7953 24.72C27.4594 24.0559 27.6746 23.0015 27.3773 21.9579C27.0747 20.8956 26.9931 19.6273 27.7742 18.8463L31.5419 15.0785M15.0346 31.531L17.5848 28.9656C18.3652 28.1806 19.6416 28.2597 20.7117 28.5426C21.8011 28.8306 22.9414 28.5803 23.731 27.8393C24.4101 27.2019 24.667 26.3634 24.5646 25.543M11.499 27.9955L14.0679 25.4571C14.8569 24.6775 14.7777 23.3982 14.4965 22.3252C14.2125 21.2415 14.4712 20.1143 15.2457 19.354C15.8965 18.715 16.7068 18.4524 17.4991 18.5281" stroke="#005F73" stroke-width="1.5" stroke-linecap="round" stroke-linejoin="round"/>
</svg>
