<svg width="16" height="16" viewBox="0 0 16 16" fill="none" xmlns="http://www.w3.org/2000/svg">
<path d="M2.33301 12.5007C2.05967 12.5007 1.83301 12.274 1.83301 12.0007V4.66732C1.83301 1.72732 2.72634 0.833984 5.66634 0.833984H10.333C13.273 0.833984 14.1663 1.72732 14.1663 4.66732V11.334C14.1663 11.4407 14.1663 11.5407 14.1597 11.6473C14.1397 11.9207 13.893 12.134 13.6263 12.114C13.353 12.094 13.1397 11.854 13.1597 11.5807C13.1663 11.5007 13.1663 11.414 13.1663 11.334V4.66732C13.1663 2.28732 12.7197 1.83398 10.333 1.83398H5.66634C3.27967 1.83398 2.83301 2.28732 2.83301 4.66732V12.0007C2.83301 12.274 2.60634 12.5007 2.33301 12.5007Z" fill="url(#paint0_linear_6391_73026)"/>
<path d="M11.333 15.1667H4.66634C3.10634 15.1667 1.83301 13.8933 1.83301 12.3333V11.9C1.83301 10.5733 2.91301 9.5 4.23301 9.5H13.6663C13.9397 9.5 14.1663 9.72667 14.1663 10V12.3333C14.1663 13.8933 12.893 15.1667 11.333 15.1667ZM4.23301 10.5C3.45967 10.5 2.83301 11.1267 2.83301 11.9V12.3333C2.83301 13.3467 3.65301 14.1667 4.66634 14.1667H11.333C12.3463 14.1667 13.1663 13.3467 13.1663 12.3333V10.5H4.23301Z" fill="url(#paint1_linear_6391_73026)"/>
<path d="M10.6663 5.16602H5.33301C5.05967 5.16602 4.83301 4.93935 4.83301 4.66602C4.83301 4.39268 5.05967 4.16602 5.33301 4.16602H10.6663C10.9397 4.16602 11.1663 4.39268 11.1663 4.66602C11.1663 4.93935 10.9397 5.16602 10.6663 5.16602Z" fill="url(#paint2_linear_6391_73026)"/>
<path d="M8.66634 7.5H5.33301C5.05967 7.5 4.83301 7.27333 4.83301 7C4.83301 6.72667 5.05967 6.5 5.33301 6.5H8.66634C8.93967 6.5 9.16634 6.72667 9.16634 7C9.16634 7.27333 8.93967 7.5 8.66634 7.5Z" fill="url(#paint3_linear_6391_73026)"/>
<defs>
<linearGradient id="paint0_linear_6391_73026" x1="2.19496" y1="11.8525" x2="19.5771" y2="11.3766" gradientUnits="userSpaceOnUse">
<stop stop-color="#005F73"/>
<stop offset="1" stop-color="#6CC24A"/>
</linearGradient>
<linearGradient id="paint1_linear_6391_73026" x1="2.19496" y1="14.8519" x2="19.535" y2="13.8743" gradientUnits="userSpaceOnUse">
<stop stop-color="#005F73"/>
<stop offset="1" stop-color="#6CC24A"/>
</linearGradient>
<linearGradient id="paint2_linear_6391_73026" x1="5.01888" y1="5.11046" x2="13.7175" y2="3.68354" gradientUnits="userSpaceOnUse">
<stop stop-color="#005F73"/>
<stop offset="1" stop-color="#6CC24A"/>
</linearGradient>
<linearGradient id="paint3_linear_6391_73026" x1="4.96018" y1="7.44444" x2="10.996" y2="6.767" gradientUnits="userSpaceOnUse">
<stop stop-color="#005F73"/>
<stop offset="1" stop-color="#6CC24A"/>
</linearGradient>
</defs>
</svg>
