<svg width="16" height="17" viewBox="0 0 16 17" fill="none" xmlns="http://www.w3.org/2000/svg">
<path d="M8.00004 15.22C7.80004 15.22 7.60004 15.1733 7.43337 15.08C6.18671 14.4 3.99337 13.68 2.62004 13.5L2.42671 13.4733C1.55337 13.3667 0.833374 12.5467 0.833374 11.66V3.60666C0.833374 3.07999 1.04004 2.6 1.42004 2.25333C1.80004 1.90666 2.29337 1.73999 2.81337 1.78666C4.28004 1.89999 6.49337 2.63333 7.74671 3.42L7.90671 3.51333C7.95337 3.53999 8.05337 3.54 8.09337 3.52L8.20004 3.45333C9.45337 2.66666 11.6667 1.92 13.14 1.79333C13.1534 1.79333 13.2067 1.79333 13.22 1.79333C13.7067 1.74666 14.2067 1.92 14.58 2.26666C14.96 2.61333 15.1667 3.09333 15.1667 3.61999V11.6667C15.1667 12.56 14.4467 13.3733 13.5667 13.48L13.3467 13.5067C11.9734 13.6867 9.77337 14.4133 8.55337 15.0867C8.39337 15.18 8.20004 15.22 8.00004 15.22ZM2.65337 2.78C2.44004 2.78 2.24671 2.85333 2.09337 2.99333C1.92671 3.14666 1.83337 3.36666 1.83337 3.60666V11.66C1.83337 12.0533 2.17337 12.4333 2.55337 12.4867L2.75337 12.5133C4.25337 12.7133 6.55337 13.4667 7.88671 14.1933C7.94671 14.22 8.03337 14.2267 8.06671 14.2133C9.40004 13.4733 11.7134 12.7133 13.22 12.5133L13.4467 12.4867C13.8267 12.44 14.1667 12.0533 14.1667 11.66V3.61333C14.1667 3.36666 14.0734 3.15333 13.9067 2.99333C13.7334 2.84 13.5134 2.76666 13.2667 2.78C13.2534 2.78 13.2 2.78 13.1867 2.78C11.9134 2.89333 9.86004 3.58 8.74004 4.27999L8.63337 4.35333C8.26671 4.58 7.74671 4.57999 7.39337 4.35999L7.23337 4.26666C6.09337 3.56666 4.04004 2.88666 2.73337 2.78C2.70671 2.78 2.68004 2.78 2.65337 2.78Z" fill="#005F73"/>
<path d="M8 14.66C7.72667 14.66 7.5 14.4333 7.5 14.16V4.16C7.5 3.88667 7.72667 3.66 8 3.66C8.27333 3.66 8.5 3.88667 8.5 4.16V14.16C8.5 14.44 8.27333 14.66 8 14.66Z" fill="#005F73"/>
<path d="M5.16663 6.66H3.66663C3.39329 6.66 3.16663 6.43334 3.16663 6.16C3.16663 5.88667 3.39329 5.66 3.66663 5.66H5.16663C5.43996 5.66 5.66663 5.88667 5.66663 6.16C5.66663 6.43334 5.43996 6.66 5.16663 6.66Z" fill="#292D32"/>
<path d="M5.66663 8.66H3.66663C3.39329 8.66 3.16663 8.43334 3.16663 8.16C3.16663 7.88667 3.39329 7.66 3.66663 7.66H5.66663C5.93996 7.66 6.16663 7.88667 6.16663 8.16C6.16663 8.43334 5.93996 8.66 5.66663 8.66Z" fill="#292D32"/>
</svg>
