<svg width="16" height="16" viewBox="0 0 16 16" fill="none" xmlns="http://www.w3.org/2000/svg">
<path d="M7.99924 8.86788C7.91258 8.86788 7.82591 8.84789 7.74591 8.80123L1.85925 5.39457C1.61925 5.25457 1.53924 4.94788 1.67924 4.70788C1.81924 4.46788 2.11924 4.38787 2.3659 4.52787L7.99924 7.78788L13.5992 4.54789C13.8392 4.40789 14.1459 4.49457 14.2859 4.7279C14.4259 4.9679 14.3392 5.27455 14.1059 5.41455L8.25925 8.80123C8.17259 8.84123 8.08591 8.86788 7.99924 8.86788Z" fill="#005F73"/>
<path d="M8 14.906C7.72667 14.906 7.5 14.6794 7.5 14.406V8.35938C7.5 8.08604 7.72667 7.85938 8 7.85938C8.27333 7.85938 8.5 8.08604 8.5 8.35938V14.406C8.5 14.6794 8.27333 14.906 8 14.906Z" fill="#005F73"/>
<path d="M8.00041 15.1673C7.41374 15.1673 6.83374 15.0406 6.37374 14.7873L2.81374 12.8073C1.84707 12.274 1.09375 10.9873 1.09375 9.88065V6.11397C1.09375 5.0073 1.84707 3.72733 2.81374 3.18733L6.37374 1.21398C7.28707 0.707318 8.71374 0.707318 9.62708 1.21398L13.1871 3.19396C14.1537 3.7273 14.9071 5.01397 14.9071 6.12064V9.88732C14.9071 10.994 14.1537 12.274 13.1871 12.814L9.62708 14.7873C9.16708 15.0406 8.58707 15.1673 8.00041 15.1673ZM8.00041 1.83398C7.58041 1.83398 7.16708 1.92065 6.86041 2.08732L3.30042 4.0673C2.66042 4.4273 2.09375 5.38064 2.09375 6.12064V9.88732C2.09375 10.6207 2.66042 11.5806 3.30042 11.9406L6.86041 13.9206C7.46708 14.2606 8.53373 14.2606 9.1404 13.9206L12.7004 11.9406C13.3404 11.5806 13.9071 10.6273 13.9071 9.88732V6.12064C13.9071 5.38731 13.3404 4.4273 12.7004 4.0673L9.1404 2.08732C8.83373 1.92065 8.42041 1.83398 8.00041 1.83398Z" fill="#005F73"/>
<path d="M11.3338 9.32637C11.0604 9.32637 10.8338 9.09971 10.8338 8.82637V6.67973L4.75378 3.17305C4.51378 3.03305 4.43377 2.72637 4.57377 2.49304C4.71377 2.25304 5.01378 2.17303 5.25378 2.31303L11.5804 5.96639C11.7338 6.05305 11.8338 6.2197 11.8338 6.3997V8.83972C11.8338 9.09972 11.6071 9.32637 11.3338 9.32637Z" fill="#005F73"/>
</svg>
