<svg width="200" height="203" viewBox="0 0 200 203" fill="none" xmlns="http://www.w3.org/2000/svg">
<g opacity="0.8">
<path d="M148.14 10.35C148.795 11.4478 151.161 13.0576 151.161 13.0622C151.161 13.0668 151.752 11.1803 151.775 11.0557C152.024 9.62121 151.669 6.70143 150.23 5.94035C149.987 5.81938 149.721 5.75108 149.45 5.73991C149.178 5.72875 148.908 5.77496 148.656 5.87554C148.404 5.97612 148.176 6.1288 147.987 6.32358C147.798 6.51836 147.652 6.75086 147.559 7.00586C147.13 8.07599 147.582 9.41825 148.14 10.35Z" fill="#6CC24A"/>
<path d="M171.331 27.6935C171.331 27.7212 172.858 26.4481 172.946 26.3559C173.947 25.2996 175.252 22.6658 174.482 21.2405C174.346 21.0061 174.161 20.803 173.941 20.6446C173.721 20.4862 173.47 20.376 173.205 20.3211C172.939 20.2663 172.665 20.268 172.4 20.3263C172.136 20.3846 171.886 20.4981 171.668 20.6593C170.718 21.3097 170.354 22.6796 170.284 23.7682C170.243 25.0413 171.331 27.6935 171.331 27.6935Z" fill="#6CC24A"/>
<path d="M144.122 17.6711C145.007 18.5198 147.517 19.4008 147.715 19.47C147.208 20.8984 146.798 22.3592 146.488 23.8427C146.299 24.7053 146.137 25.5863 145.985 26.4673C145.985 26.0568 145.985 25.6831 145.985 25.6324C145.851 24.1841 144.74 21.4811 143.144 21.1074C142.877 21.0538 142.601 21.0573 142.335 21.1177C142.07 21.178 141.82 21.2939 141.602 21.4577C141.384 21.6215 141.203 21.8294 141.072 22.068C140.94 22.3065 140.86 22.5702 140.838 22.8418C140.704 23.9857 141.493 25.1481 142.277 25.9138C143.061 26.6795 145.196 27.4728 145.764 27.6758C145.708 28.0171 145.648 28.3538 145.598 28.6952C145.344 30.3234 145.095 31.924 144.804 33.5384C144.703 34.0965 144.583 34.6454 144.463 35.1897C144.463 34.8253 144.463 34.5163 144.463 34.4702C144.329 33.0172 143.218 30.3188 141.626 29.9406C141.359 29.8877 141.084 29.8917 140.819 29.9524C140.553 30.0131 140.303 30.129 140.086 30.2927C139.868 30.4563 139.687 30.664 139.556 30.9022C139.424 31.1403 139.343 31.4036 139.32 31.6749C139.186 32.8188 139.975 33.9812 140.759 34.7515C141.543 35.5218 143.476 36.2322 144.145 36.4766C144.006 37.0302 143.868 37.5929 143.707 38.1233C143.591 38.4877 143.504 38.8429 143.365 39.2027L142.978 40.259C142.71 40.9232 142.438 41.6105 142.157 42.2516C141.968 42.7129 141.778 43.1234 141.589 43.5478C141.695 42.9943 141.885 41.9011 141.889 41.8088C141.977 40.3558 141.29 37.496 139.767 36.9056C139.511 36.8148 139.239 36.7792 138.968 36.801C138.697 36.8228 138.434 36.9016 138.196 37.0323C137.958 37.163 137.75 37.3425 137.586 37.5591C137.422 37.7758 137.305 38.0246 137.244 38.2894C136.935 39.401 137.54 40.6833 138.199 41.5459C138.928 42.4961 141.179 43.7092 141.46 43.8522C141.142 44.5533 140.828 45.236 140.538 45.8771C139.652 47.7222 138.831 49.3043 138.176 50.4897L139.066 51.1263C139.707 49.8855 140.528 48.2388 141.414 46.2738C141.742 45.5635 142.074 44.7932 142.406 43.9998C143.205 44.1979 144.015 44.3518 144.832 44.4611C144.984 45.6788 146.11 47.7821 146.257 48.0543C145.602 48.4694 144.966 48.8615 144.357 49.2259C142.623 50.2683 141.1 51.1078 139.906 51.7444L140.874 52.4363C141.991 51.7997 143.347 51.0063 144.86 50.0515C145.529 49.6318 146.244 49.1751 146.945 48.6954C147.157 48.9261 148.905 50.7988 150.007 51.2646C151.013 51.689 152.406 51.9473 153.402 51.3707C153.641 51.2425 153.85 51.0656 154.016 50.8514C154.182 50.6372 154.301 50.3906 154.365 50.1274C154.429 49.8643 154.438 49.5906 154.389 49.324C154.341 49.0574 154.237 48.804 154.085 48.5801C153.13 47.2563 150.187 47.3163 148.803 47.7637C148.72 47.7914 147.881 48.1788 147.332 48.4325C147.627 48.2388 147.909 48.0497 148.208 47.8421C148.799 47.4408 149.38 47.021 150.003 46.569L150.893 45.8771C151.193 45.6557 151.483 45.379 151.788 45.1299C152.471 44.5302 153.135 43.8937 153.79 43.2387C154.145 43.7553 155.432 45.5727 156.364 46.1447C157.295 46.7166 158.628 47.1779 159.698 46.7581C159.954 46.6688 160.188 46.5263 160.385 46.3402C160.582 46.154 160.738 45.9283 160.841 45.6779C160.945 45.4275 160.995 45.158 160.987 44.8871C160.979 44.6162 160.914 44.3499 160.796 44.1059C160.054 42.6575 157.138 42.2608 155.699 42.5007C155.612 42.5007 154.602 42.8005 154.048 42.962C154.435 42.5607 154.828 42.1686 155.21 41.7535C156.313 40.5542 157.392 39.3042 158.476 38.0634L159.477 36.9333C159.602 37.1178 161.082 39.3134 162.125 39.9545C163.047 40.5219 164.394 40.9878 165.464 40.568C165.719 40.4774 165.952 40.3343 166.148 40.1479C166.345 39.9615 166.499 39.736 166.603 39.486C166.706 39.236 166.756 38.967 166.749 38.6966C166.742 38.4261 166.678 38.1601 166.562 37.9158C165.819 36.4628 162.904 36.0707 161.465 36.3106C161.359 36.3106 159.901 36.7396 159.537 36.8641C160.27 36.0338 161.013 35.2174 161.774 34.4379C162.813 33.3847 163.919 32.4001 165.086 31.4904C165.146 31.5781 166.682 33.8751 167.752 34.5301C168.675 35.0975 170.017 35.5633 171.092 35.1436C171.347 35.0536 171.581 34.9108 171.777 34.7246C171.974 34.5383 172.129 34.3127 172.232 34.0625C172.336 33.8123 172.386 33.543 172.378 33.2723C172.371 33.0016 172.306 32.7355 172.189 32.4914C171.442 31.043 168.527 30.6463 167.092 30.8862C166.996 30.8862 165.889 31.2183 165.363 31.3797L165.321 31.2967C166.505 30.408 167.767 29.6269 169.09 28.9627C169.814 28.5845 170.524 28.2708 171.225 27.9756C171.47 28.4369 172.609 30.5079 173.495 31.2044C174.38 31.9009 175.635 32.4821 176.747 32.1823C177.011 32.1217 177.259 32.006 177.475 31.8428C177.691 31.6795 177.871 31.4725 178.001 31.2352C178.132 30.9978 178.211 30.7356 178.233 30.4656C178.255 30.1956 178.22 29.924 178.13 29.6684C177.549 28.1417 174.694 27.4359 173.241 27.5144C173.163 27.5144 172.36 27.6481 171.779 27.7542C172.097 27.6251 172.425 27.4867 172.734 27.3714C173.882 26.9101 174.966 26.6011 175.926 26.3151C176.475 26.1582 176.973 26.0245 177.439 25.9046C177.9 26.232 179.832 27.5144 180.926 27.7173C182.019 27.9203 183.412 27.8649 184.261 27.0854C184.466 26.9095 184.633 26.6922 184.749 26.4477C184.865 26.2032 184.929 25.9369 184.935 25.6663C184.942 25.3956 184.891 25.1267 184.787 24.8768C184.683 24.627 184.527 24.402 184.33 24.2163C183.112 23.1324 180.252 23.8197 178.998 24.5577C178.892 24.6223 177.309 25.8123 177.332 25.8308H177.36C176.899 25.9368 176.438 26.0568 175.898 26.1951C174.929 26.4581 173.836 26.7671 172.669 27.1822C171.411 27.619 170.179 28.1272 168.979 28.7044C167.616 29.3511 166.313 30.1183 165.086 30.9969L165.044 31.0292C165.326 30.6463 166.087 29.5439 166.133 29.4516C166.82 28.1693 167.397 25.3003 166.262 24.1103C166.068 23.9214 165.837 23.7753 165.583 23.6815C165.33 23.5877 165.059 23.5482 164.789 23.5656C164.519 23.5829 164.256 23.6568 164.016 23.7825C163.776 23.9081 163.566 24.0826 163.398 24.2948C162.655 25.1758 162.664 26.6011 162.9 27.6527C163.172 28.852 164.777 30.9692 164.906 31.1399C163.691 32.0558 162.539 33.0512 161.456 34.1196C160.824 34.7377 160.206 35.3835 159.611 36.0338C159.846 35.6971 160.072 35.3881 160.072 35.3466C160.759 34.0596 161.336 31.1952 160.201 30.0005C160.007 29.8117 159.776 29.6656 159.522 29.5718C159.269 29.478 158.998 29.4385 158.728 29.4559C158.458 29.4732 158.195 29.5471 157.955 29.6727C157.715 29.7984 157.505 29.9729 157.337 30.185C156.59 31.0661 156.603 32.4914 156.839 33.543C157.074 34.5947 158.416 36.4536 158.776 36.9379C158.541 37.187 158.315 37.4407 158.075 37.6944C156.968 38.9121 155.865 40.1298 154.745 41.2968C154.352 41.7073 153.947 42.0948 153.545 42.4869C153.753 42.1824 153.928 41.9287 153.951 41.8872C154.638 40.6003 155.21 37.7359 154.076 36.5458C153.883 36.356 153.652 36.2091 153.398 36.1144C153.144 36.0198 152.874 35.9797 152.603 35.9966C152.333 36.0136 152.07 36.0873 151.83 36.2129C151.59 36.3385 151.379 36.5133 151.211 36.7257C150.469 37.6067 150.478 39.032 150.718 40.0837C150.958 41.1354 152.161 42.819 152.563 43.3909C152.143 43.7784 151.719 44.1705 151.29 44.5256C150.99 44.7655 150.722 45.0146 150.409 45.236L149.486 45.9048C148.896 46.3107 148.287 46.7351 147.701 47.1133C147.295 47.3808 146.903 47.6299 146.511 47.8836C146.908 47.4777 147.669 46.6705 147.724 46.5967C148.453 45.5431 148.901 44.3204 149.025 43.045C149.111 42.9325 149.187 42.812 149.251 42.6852C149.38 42.4466 149.457 42.1835 149.478 41.913C149.498 41.6426 149.462 41.3708 149.37 41.1154C149.279 40.86 149.135 40.6267 148.947 40.4307C148.76 40.2347 148.533 40.0803 148.282 39.9776C146.755 39.4056 144.338 41.0754 143.43 42.2147C143.374 42.2793 142.876 43.0773 142.572 43.5985C142.706 43.271 142.839 42.9573 142.978 42.6206C143.245 41.9564 143.499 41.2876 143.771 40.568C143.886 40.2175 144.011 39.8623 144.131 39.5025C144.251 39.1427 144.348 38.7599 144.463 38.3816C144.703 37.5099 144.924 36.6104 145.09 35.7017C145.672 35.937 147.747 36.7442 148.84 36.7073C149.934 36.6704 151.34 36.2967 152.005 35.3742C152.168 35.1582 152.284 34.9101 152.345 34.6462C152.406 34.3823 152.411 34.1084 152.359 33.8425C152.308 33.5766 152.2 33.3246 152.045 33.1029C151.889 32.8812 151.688 32.6949 151.456 32.5559C150.035 31.7533 147.387 33.0172 146.322 34.0273C146.253 34.0919 145.565 34.8853 145.196 35.3327C145.307 34.7838 145.413 34.2395 145.505 33.6814C145.764 32.0716 145.967 30.4526 146.193 28.8059C146.257 28.3031 146.331 27.8096 146.4 27.3114C146.608 27.3944 149.053 28.4092 150.28 28.3677C151.363 28.3308 152.738 27.9802 153.402 27.0393C153.565 26.8226 153.681 26.5741 153.741 26.31C153.802 26.0458 153.807 25.7719 153.755 25.5058C153.703 25.2398 153.596 24.9875 153.441 24.7654C153.286 24.5433 153.086 24.3562 152.853 24.2163C151.433 23.4184 148.785 24.7053 147.72 25.6924C147.637 25.7662 146.649 26.9147 146.414 27.2191C146.571 26.1213 146.737 25.0282 146.945 23.9626C147.209 22.5168 147.568 21.09 148.019 19.6914C148.116 19.7329 150.662 20.7984 151.917 20.7569C153.001 20.72 154.376 20.3694 155.04 19.4285C155.203 19.2124 155.319 18.9643 155.38 18.7004C155.441 18.4365 155.446 18.1627 155.395 17.8968C155.343 17.6309 155.235 17.3788 155.08 17.1572C154.924 16.9355 154.723 16.7491 154.491 16.6102C153.07 15.8122 150.423 17.0945 149.357 18.0816C149.288 18.1462 148.531 19.0041 148.185 19.4654L148.102 19.4192C148.597 18.0251 149.215 16.6776 149.947 15.3924C150.344 14.6821 150.764 14.0086 151.184 13.3906C151.645 13.6396 153.73 14.7467 154.874 14.8343C156.018 14.9219 157.364 14.719 158.126 13.8564C158.312 13.6593 158.454 13.4253 158.544 13.1695C158.633 12.9137 158.668 12.6419 158.646 12.3718C158.624 12.1017 158.545 11.8392 158.415 11.6015C158.285 11.3638 158.106 11.1561 157.89 10.992C156.567 10.0418 153.794 11.0289 152.623 11.9145C152.558 11.9607 151.963 12.5096 151.539 12.9201C151.732 12.6387 151.931 12.3435 152.12 12.076C152.84 11.075 153.559 10.1986 154.205 9.43295C154.574 8.99936 154.915 8.6119 155.238 8.25673C155.815 8.25673 158.121 8.25673 159.145 7.8416C160.169 7.42646 161.304 6.59158 161.58 5.47533C161.655 5.21498 161.674 4.94185 161.636 4.67372C161.598 4.4056 161.504 4.14849 161.36 3.91916C161.216 3.68983 161.025 3.49342 160.8 3.34271C160.575 3.19201 160.321 3.0904 160.054 3.04449C158.439 2.81386 156.433 4.96333 155.796 6.27331C155.741 6.38402 155.077 8.25212 155.109 8.25212H155.141C154.823 8.58884 154.486 8.95785 154.122 9.36376C153.462 10.1156 152.738 10.9782 151.977 11.9699C151.165 13.0281 150.415 14.1323 149.731 15.2771C148.958 16.5562 148.301 17.9024 147.77 19.2993C147.768 19.3161 147.768 19.3332 147.77 19.35C147.798 18.8888 147.821 17.5373 147.812 17.4312C147.678 15.9828 146.566 13.2799 144.975 12.9062C144.708 12.8526 144.432 12.8561 144.167 12.9165C143.901 12.9768 143.651 13.0927 143.433 13.2565C143.215 13.4202 143.035 13.6282 142.903 13.8668C142.771 14.1053 142.691 14.369 142.669 14.6406C142.549 15.7384 143.338 16.9238 144.122 17.6711Z" fill="#6CC24A"/>
<path d="M101.376 34.0819C102.576 33.6206 104.605 31.6142 104.605 31.6142C104.605 31.6142 102.866 30.6916 102.76 30.6409C101.399 30.1289 98.4657 29.9398 97.451 31.2175C97.2885 31.4337 97.1734 31.6817 97.1131 31.9453C97.0527 32.2089 97.0485 32.4823 97.1007 32.7477C97.1529 33.013 97.2604 33.2644 97.4161 33.4856C97.5718 33.7067 97.7722 33.8926 98.0045 34.0312C98.9501 34.6539 100.357 34.4509 101.376 34.0819Z" fill="#6CC24A"/>
<path d="M122.7 14.4959C122.732 14.4959 121.777 12.7615 121.685 12.6508C120.832 11.47 118.488 9.69413 116.939 10.1969C116.683 10.2878 116.45 10.4314 116.254 10.6184C116.058 10.8054 115.904 11.0316 115.801 11.2823C115.698 11.533 115.65 11.8025 115.658 12.0732C115.667 12.344 115.732 12.61 115.85 12.8538C116.311 13.9101 117.594 14.5235 118.655 14.7726C119.881 15.0817 122.7 14.4959 122.7 14.4959Z" fill="#6CC24A"/>
<path d="M107.831 39.3848C108.832 38.6698 110.16 36.3682 110.266 36.1837C111.581 36.9467 112.944 37.6216 114.348 38.204C115.165 38.5499 116 38.8682 116.839 39.1818C116.433 39.0942 116.069 39.0204 116.018 39.0158C114.57 38.882 111.687 39.4771 111.046 40.9761C110.947 41.2281 110.902 41.498 110.914 41.7685C110.926 42.0389 110.994 42.3038 111.115 42.5461C111.236 42.7883 111.406 43.0024 111.615 43.1745C111.824 43.3467 112.067 43.473 112.328 43.5454C113.426 43.8867 114.731 43.3286 115.617 42.6967C116.502 42.0647 117.688 40.1136 117.988 39.597L118.956 39.9475C120.511 40.4964 122.065 41.0407 123.569 41.6173C124.099 41.8249 124.611 42.0417 125.128 42.2631C124.773 42.1847 124.468 42.1247 124.422 42.1201C122.969 41.9863 120.091 42.5813 119.45 44.0758C119.349 44.3277 119.303 44.5979 119.314 44.8689C119.325 45.1398 119.393 45.4054 119.513 45.6483C119.634 45.8912 119.804 46.106 120.014 46.2785C120.223 46.4511 120.466 46.5775 120.727 46.6497C121.83 46.991 123.131 46.4329 124.016 45.8009C124.902 45.169 125.972 43.407 126.323 42.7935C126.844 43.0334 127.37 43.2548 127.863 43.5269C128.195 43.7114 128.532 43.8636 128.859 44.0666L129.828 44.6386C130.432 45.026 131.055 45.4181 131.632 45.8102C132.038 46.0823 132.42 46.3452 132.803 46.6128C132.277 46.4052 131.24 46.0177 131.147 45.9947C129.736 45.6395 126.798 45.7871 125.935 47.1755C125.799 47.4091 125.713 47.6688 125.684 47.9377C125.655 48.2066 125.682 48.4786 125.765 48.7361C125.847 48.9937 125.983 49.2309 126.164 49.4325C126.344 49.6341 126.565 49.7955 126.811 49.9062C127.849 50.4135 129.219 50.0584 130.193 49.5694C131.258 49.0298 132.868 47.0417 133.066 46.8019C133.698 47.2631 134.312 47.6783 134.884 48.098C136.549 49.3157 137.937 50.4043 138.993 51.2715L139.782 50.5196C138.68 49.6571 137.213 48.5454 135.446 47.2908C134.805 46.8295 134.109 46.3683 133.389 45.907C133.73 45.1566 134.026 44.3865 134.275 43.6007C135.502 43.6745 137.776 42.955 138.071 42.8627C138.357 43.5777 138.629 44.2788 138.873 44.9476C139.575 46.8434 140.119 48.4947 140.525 49.7862L141.383 48.9606C140.968 47.7474 140.432 46.2668 139.773 44.6017C139.487 43.8729 139.169 43.0979 138.827 42.2954C139.095 42.1293 141.258 40.7594 141.918 39.7584C142.517 38.8359 143.029 37.5259 142.647 36.442C142.565 36.1836 142.43 35.9452 142.25 35.7425C142.071 35.5397 141.85 35.3771 141.604 35.2653C141.357 35.1534 141.089 35.0948 140.818 35.0933C140.547 35.0918 140.279 35.1474 140.031 35.2565C138.555 35.9484 138.071 38.8497 138.26 40.2935C138.26 40.3811 138.491 41.2898 138.643 41.8618C138.504 41.5389 138.371 41.2252 138.223 40.8931C137.937 40.2381 137.628 39.5924 137.301 38.8959C137.134 38.5638 136.959 38.2316 136.789 37.8949C136.618 37.5582 136.406 37.2215 136.217 36.8755C135.755 36.096 135.253 35.3257 134.727 34.5692C135.303 34.3155 137.328 33.3884 138.062 32.5766C138.795 31.7648 139.496 30.5424 139.279 29.4124C139.239 29.1444 139.142 28.8881 138.995 28.6601C138.849 28.4321 138.656 28.2375 138.429 28.0891C138.202 27.9407 137.947 27.8418 137.679 27.7987C137.412 27.7557 137.138 27.7696 136.876 27.8395C135.313 28.3007 134.39 31.096 134.358 32.5535C134.358 32.6458 134.45 33.6928 134.51 34.2648C134.192 33.8035 133.878 33.3423 133.541 32.881C132.563 31.5757 131.539 30.2841 130.52 28.9926C130.206 28.5959 129.897 28.1992 129.597 27.7979C129.8 27.7103 132.231 26.6586 133.052 25.7546C133.781 24.9474 134.487 23.7158 134.275 22.5857C134.233 22.3177 134.136 22.0614 133.989 21.8335C133.842 21.6056 133.649 21.4114 133.421 21.2634C133.194 21.1154 132.938 21.0169 132.67 20.9746C132.402 20.9322 132.129 20.9468 131.867 21.0174C130.308 21.4787 129.385 24.2739 129.353 25.7315C129.353 25.8376 129.487 27.3459 129.538 27.7288C128.859 26.8524 128.191 25.9713 127.568 25.0811C126.719 23.8793 125.948 22.6236 125.262 21.3218C125.354 21.2803 127.9 20.1964 128.74 19.2646C129.468 18.462 130.174 17.2305 129.962 16.1004C129.92 15.8326 129.822 15.5766 129.675 15.349C129.528 15.1213 129.334 14.9271 129.108 14.7789C128.881 14.6306 128.625 14.5316 128.357 14.4883C128.09 14.445 127.816 14.4584 127.554 14.5275C125.99 14.9887 125.073 17.7886 125.04 19.2416C125.04 19.3384 125.137 20.487 125.202 21.0313L125.109 21.0589C124.456 19.725 123.922 18.3358 123.513 16.9076C123.278 16.1281 123.098 15.3716 122.937 14.629C123.435 14.4721 125.681 13.7433 126.535 12.9915C127.388 12.2396 128.186 11.1464 128.094 9.97945C128.084 9.70712 128.018 9.43984 127.898 9.19515C127.778 8.95046 127.608 8.73389 127.398 8.55966C127.188 8.38542 126.944 8.25747 126.682 8.18418C126.42 8.11089 126.145 8.09393 125.875 8.13441C124.27 8.42501 123.052 11.1003 122.858 12.5441C122.858 12.6225 122.826 13.4343 122.822 14.0247C122.757 13.688 122.679 13.342 122.623 13.0192C122.402 11.8014 122.277 10.6806 122.162 9.68425C122.107 9.11228 122.07 8.60029 122.037 8.12057C122.443 7.71467 124.062 6.06797 124.459 5.02552C124.856 3.98307 125.068 2.60851 124.459 1.63064C124.324 1.39581 124.141 1.19209 123.922 1.03276C123.703 0.873423 123.452 0.762056 123.187 0.705914C122.922 0.649773 122.648 0.650118 122.384 0.706926C122.119 0.763735 121.869 0.875731 121.65 1.03562C120.358 2.03194 120.506 4.97017 121 6.34011C121.041 6.45542 121.922 8.23128 121.945 8.21283L121.968 8.18515C121.968 8.64641 122.014 9.14919 122.056 9.68886C122.139 10.6898 122.24 11.8245 122.434 13.0468C122.626 14.3673 122.897 15.675 123.246 16.9629C123.625 18.4076 124.133 19.8155 124.763 21.1696L124.791 21.2158C124.464 20.8652 123.523 19.9196 123.444 19.832C122.31 18.9095 119.579 17.8209 118.218 18.7203C117.996 18.8752 117.809 19.0752 117.669 19.3073C117.529 19.5394 117.439 19.7984 117.406 20.0673C117.373 20.3363 117.397 20.6092 117.477 20.8683C117.556 21.1274 117.689 21.3668 117.868 21.5709C118.596 22.4612 119.989 22.7149 121.096 22.6733C122.323 22.6318 124.704 21.4464 124.893 21.3495C125.571 22.7134 126.342 24.0295 127.199 25.2887C127.688 26.0267 128.209 26.7509 128.735 27.4751C128.444 27.1799 128.186 26.9215 128.145 26.8893C127.01 25.9667 124.279 24.8782 122.918 25.7776C122.696 25.9325 122.509 26.1325 122.369 26.3646C122.229 26.5967 122.14 26.8556 122.106 27.1246C122.073 27.3936 122.097 27.6665 122.177 27.9256C122.256 28.1847 122.39 28.4241 122.568 28.6282C123.297 29.5184 124.69 29.7721 125.797 29.7352C126.904 29.6983 128.947 28.7251 129.487 28.4575C129.694 28.7343 129.893 29.0111 130.1 29.2832C131.092 30.6024 132.088 31.9124 133.025 33.2224C133.357 33.6836 133.666 34.1449 133.975 34.6061L133.463 34.0941C132.328 33.1716 129.597 32.0877 128.237 32.9825C128.014 33.1374 127.827 33.3373 127.687 33.5694C127.547 33.8015 127.458 34.0605 127.425 34.3295C127.392 34.5985 127.416 34.8714 127.495 35.1305C127.575 35.3896 127.708 35.629 127.886 35.8331C128.61 36.7279 130.008 36.9816 131.115 36.9401C132.222 36.8986 134.067 36.0176 134.708 35.7132C135.013 36.2021 135.317 36.691 135.589 37.1754C135.765 37.5121 135.958 37.8257 136.12 38.1717C136.281 38.5176 136.452 38.8497 136.613 39.1865C136.904 39.8414 137.204 40.5149 137.471 41.1607C137.66 41.6219 137.831 42.0417 138.006 42.4752C137.683 42.014 137.028 41.0915 136.968 41.0453C136.067 40.1331 134.948 39.4663 133.717 39.108C133.622 39.0021 133.517 38.9062 133.403 38.8221C133.192 38.6515 132.947 38.5275 132.685 38.4579C132.423 38.3884 132.149 38.3749 131.881 38.4184C131.614 38.462 131.358 38.5615 131.131 38.7105C130.905 38.8596 130.712 39.0548 130.566 39.2833C129.722 40.6671 130.912 43.3655 131.867 44.4633C131.922 44.5279 132.614 45.1644 133.052 45.5611C132.757 45.3673 132.476 45.1782 132.171 44.9845C131.567 44.597 130.954 44.2234 130.299 43.8267L129.316 43.2732C128.993 43.0795 128.624 42.9181 128.278 42.7428C127.462 42.3415 126.618 41.9771 125.76 41.6265C126.097 41.1007 127.273 39.2095 127.439 38.1302C127.605 37.0508 127.513 35.6394 126.71 34.8137C126.529 34.6122 126.307 34.4512 126.06 34.3409C125.812 34.2306 125.544 34.1736 125.273 34.1736C125.002 34.1736 124.734 34.2306 124.487 34.3409C124.239 34.4512 124.018 34.6122 123.836 34.8137C122.789 36.0637 123.564 38.9005 124.339 40.132C124.385 40.2105 125.045 41.0546 125.414 41.4743C124.893 41.2714 124.376 41.0638 123.846 40.8701C122.314 40.3212 120.746 39.8092 119.182 39.2925L117.752 38.8313C117.872 38.6468 119.321 36.4281 119.505 35.215C119.667 34.1403 119.579 32.7242 118.776 31.9032C118.595 31.7017 118.374 31.5406 118.126 31.4303C117.878 31.3201 117.61 31.2631 117.339 31.2631C117.069 31.2631 116.801 31.3201 116.553 31.4303C116.305 31.5406 116.084 31.7017 115.903 31.9032C114.856 33.1532 115.631 35.9945 116.405 37.2261C116.461 37.3184 117.406 38.4992 117.665 38.7898C116.613 38.43 115.571 38.0702 114.56 37.6689C113.191 37.1386 111.857 36.5224 110.566 35.8239C110.621 35.7362 112.143 33.4253 112.333 32.1891C112.499 31.1144 112.406 29.6983 111.604 28.8727C111.422 28.6712 111.201 28.5101 110.953 28.3998C110.706 28.2896 110.438 28.2326 110.167 28.2326C109.896 28.2326 109.628 28.2896 109.38 28.3998C109.133 28.5101 108.911 28.6712 108.73 28.8727C107.683 30.1227 108.458 32.9594 109.233 34.191C109.284 34.274 110.003 35.1735 110.354 35.5748L110.294 35.6486C109.016 34.9012 107.807 34.0414 106.682 33.0794C106.055 32.5581 105.483 32.0231 104.943 31.4926C105.271 31.0913 106.747 29.2417 107.037 28.1485C107.328 27.0553 107.388 25.6808 106.677 24.7721C106.519 24.5526 106.315 24.3691 106.081 24.2335C105.847 24.0978 105.586 24.0131 105.317 23.9848C105.047 23.9565 104.775 23.9853 104.518 24.0693C104.26 24.1533 104.023 24.2906 103.822 24.4723C102.641 25.6023 103.103 28.5083 103.735 29.8183C103.772 29.8874 104.196 30.5747 104.523 31.0683C104.284 30.8238 104.03 30.5793 103.804 30.3395C102.95 29.4493 102.222 28.5821 101.59 27.8072C101.23 27.3459 100.916 26.9538 100.621 26.571C100.741 26.0083 101.179 23.7435 100.939 22.6549C100.7 21.5663 100.109 20.3025 99.062 19.8227C98.8103 19.699 98.5347 19.6315 98.2543 19.625C97.9739 19.6185 97.6954 19.6731 97.4382 19.785C97.181 19.8969 96.9513 20.0635 96.7649 20.2731C96.5786 20.4827 96.4401 20.7304 96.3591 20.999C95.8332 22.5442 97.5768 24.9104 98.7438 25.7822C98.8453 25.856 100.557 26.8524 100.566 26.8247C100.575 26.797 100.566 26.797 100.566 26.7878C100.838 27.166 101.133 27.5673 101.488 27.9963C102.106 28.785 102.817 29.6707 103.652 30.584C104.541 31.5795 105.488 32.5221 106.488 33.4069C107.603 34.4014 108.804 35.2951 110.077 36.0776H110.128C109.666 35.9669 108.352 35.6901 108.25 35.6809C106.802 35.5471 103.919 36.1421 103.278 37.6366C103.178 37.8888 103.133 38.1592 103.144 38.4302C103.156 38.7012 103.224 38.9667 103.345 39.2095C103.466 39.4522 103.637 39.6668 103.846 39.8393C104.056 40.0117 104.299 40.1382 104.56 40.2105C105.644 40.5749 106.968 40.0167 107.831 39.3848Z" fill="#6CC24A"/>
<path d="M33.0917 172.072C33.9496 172.367 35.398 173.783 35.398 173.783C35.398 173.783 34.171 174.471 34.088 174.503C33.124 174.89 31.0345 175.07 30.2918 174.175C30.174 174.023 30.0893 173.848 30.0432 173.661C29.997 173.473 29.9905 173.279 30.0239 173.089C30.0574 172.899 30.1301 172.719 30.2373 172.559C30.3446 172.399 30.4842 172.263 30.647 172.16C31.3527 171.698 32.3583 171.818 33.0917 172.072Z" fill="#6CC24A"/>
<path d="M48.5878 185.716C48.5878 185.716 47.942 186.966 47.8913 187.04C47.3009 187.893 45.6542 189.194 44.5426 188.857C44.3601 188.795 44.1926 188.696 44.0509 188.565C43.9091 188.435 43.7962 188.276 43.7193 188.099C43.6424 187.923 43.6033 187.732 43.6045 187.539C43.6057 187.346 43.6471 187.156 43.7261 186.98C44.0444 186.224 44.9439 185.767 45.6957 185.573C46.5767 185.347 48.5878 185.716 48.5878 185.716Z" fill="#6CC24A"/>
<path d="M37.6118 168.219C38.336 168.713 39.3184 170.336 39.3969 170.465C40.3231 169.9 41.2863 169.398 42.2797 168.962C42.8563 168.708 43.4467 168.464 44.0371 168.233C43.7512 168.297 43.4929 168.357 43.4559 168.357C42.4273 168.477 40.3655 168.099 39.8812 167.038C39.8087 166.86 39.7741 166.669 39.7795 166.477C39.785 166.285 39.8304 166.096 39.9128 165.923C39.9953 165.749 40.113 165.595 40.2584 165.469C40.4038 165.343 40.5738 165.249 40.7576 165.193C41.5371 164.93 42.4735 165.309 43.1146 165.747C43.7558 166.185 44.6322 167.559 44.8536 167.924L45.5408 167.656C46.6386 167.241 47.7364 166.831 48.802 166.397C49.1802 166.245 49.5446 166.079 49.909 165.936L49.4062 166.047C48.373 166.162 46.3112 165.784 45.8314 164.723C45.759 164.545 45.7243 164.354 45.7298 164.162C45.7352 163.969 45.7806 163.781 45.8631 163.607C45.9455 163.434 46.0632 163.279 46.2087 163.153C46.3541 163.028 46.5241 162.934 46.7078 162.878C47.4828 162.615 48.4191 162.998 49.0603 163.431C49.7014 163.865 50.4902 165.11 50.7623 165.544C51.1267 165.364 51.5003 165.184 51.8463 164.995C52.0815 164.861 52.3075 164.746 52.5474 164.598L53.2301 164.174C53.6544 163.892 54.0972 163.597 54.5031 163.311L55.3057 162.684C54.9321 162.841 54.1987 163.145 54.1341 163.145C53.1332 163.417 51.0345 163.353 50.4025 162.379C50.3025 162.214 50.2381 162.03 50.2135 161.838C50.189 161.647 50.2048 161.452 50.26 161.267C50.3152 161.082 50.4085 160.911 50.5339 160.764C50.6594 160.617 50.8141 160.498 50.9883 160.415C51.7171 160.041 52.6996 160.272 53.4007 160.608C54.1018 160.945 55.3426 162.37 55.4902 162.546C55.9515 162.223 56.3666 161.9 56.7679 161.595C57.9349 160.701 58.9082 159.898 59.6508 159.289L60.2228 159.815C59.4479 160.442 58.4192 161.259 57.1784 162.163C56.7172 162.495 56.2559 162.841 55.7347 163.187C55.9876 163.716 56.2094 164.26 56.3989 164.815C57.3214 164.843 58.2356 164.998 59.1157 165.276C59.3095 164.76 59.494 164.257 59.6554 163.777C60.1167 162.416 60.4949 161.231 60.7624 160.304L61.3851 160.876C61.1084 161.748 60.7486 162.813 60.3058 164.012C60.1121 164.534 59.8953 165.092 59.6646 165.664C59.8584 165.774 61.422 166.72 61.9064 167.426C62.3907 168.131 62.732 168.999 62.4737 169.778C62.4184 169.963 62.3253 170.134 62.2001 170.28C62.0749 170.427 61.9206 170.545 61.7469 170.629C61.5732 170.712 61.3841 170.758 61.1915 170.764C60.9989 170.77 60.8072 170.736 60.6287 170.664C59.5678 170.202 59.1757 168.127 59.2864 167.094C59.2864 167.034 59.4386 166.383 59.5401 165.973C59.4432 166.203 59.3556 166.434 59.2541 166.669C59.0604 167.13 58.8482 167.592 58.6268 168.108C58.5115 168.344 58.3962 168.57 58.2762 168.828C58.1563 169.086 58.0133 169.317 57.8842 169.561C57.5659 170.129 57.22 170.682 56.8556 171.236C57.2707 171.411 58.7283 172.043 59.2633 172.619C59.7984 173.196 60.315 174.049 60.1859 174.861C60.159 175.052 60.0926 175.234 59.9911 175.398C59.8896 175.561 59.7551 175.702 59.5962 175.81C59.4373 175.919 59.2576 175.993 59.0684 176.028C58.8793 176.063 58.6849 176.059 58.4977 176.014C57.3768 175.71 56.6757 173.731 56.6526 172.693C56.6526 172.629 56.6987 171.881 56.7356 171.471C56.5142 171.803 56.2744 172.131 56.0622 172.458C55.3841 173.404 54.6784 174.34 53.9635 175.276C53.7467 175.562 53.5345 175.853 53.3223 176.139C53.4699 176.199 55.2181 176.914 55.8177 177.55C56.3482 178.113 56.8694 178.98 56.7403 179.787C56.7134 179.978 56.647 180.162 56.5451 180.326C56.4433 180.489 56.3084 180.63 56.149 180.739C55.9896 180.847 55.8093 180.921 55.6196 180.956C55.4299 180.991 55.235 180.986 55.0474 180.941C53.9266 180.636 53.2301 178.657 53.2024 177.62C53.2024 177.541 53.2716 176.466 53.3039 176.194C52.8426 176.826 52.3813 177.463 51.9201 178.108C51.3351 178.979 50.8052 179.884 50.3333 180.821C50.4025 180.848 52.2337 181.586 52.8472 182.237C53.3777 182.8 53.8989 183.667 53.7697 184.478C53.7429 184.669 53.6764 184.853 53.5746 185.017C53.4728 185.18 53.3379 185.321 53.1785 185.43C53.0191 185.538 52.8387 185.612 52.649 185.647C52.4593 185.682 52.2645 185.677 52.0769 185.632C50.956 185.323 50.2595 183.325 50.2319 182.311C50.2319 182.241 50.2826 181.42 50.3195 181.033H50.2549C49.8085 181.989 49.4488 182.983 49.1802 184.003C49.0234 184.562 48.9034 185.106 48.802 185.641C49.1571 185.742 50.7715 186.227 51.3896 186.752C52.0077 187.278 52.5935 188.058 52.5474 188.874C52.5418 189.067 52.496 189.256 52.4129 189.43C52.3299 189.604 52.2114 189.759 52.065 189.885C51.9187 190.01 51.7477 190.104 51.5631 190.159C51.3785 190.215 51.1843 190.231 50.9929 190.207C49.8444 190.027 48.9357 188.136 48.7743 187.112C48.7743 187.057 48.742 186.48 48.7282 186.056C48.6866 186.3 48.6359 186.545 48.6036 186.776C48.4652 187.647 48.3914 188.45 48.3315 189.16C48.2992 189.566 48.2807 189.935 48.2669 190.277C48.5621 190.563 49.7383 191.711 50.0381 192.449C50.338 193.187 50.4994 194.16 50.0889 194.866C49.9946 195.034 49.8664 195.18 49.7124 195.296C49.5583 195.411 49.3819 195.493 49.1944 195.537C49.0069 195.58 48.8123 195.584 48.6232 195.548C48.4341 195.512 48.2546 195.437 48.0962 195.327C47.1737 194.64 47.2198 192.56 47.5519 191.559C47.5842 191.471 48.1839 190.175 48.1977 190.207C48.1977 189.875 48.1977 189.52 48.2392 189.133C48.2807 188.418 48.3361 187.61 48.456 186.739C48.5767 185.795 48.7507 184.858 48.9772 183.934C49.2273 182.898 49.5684 181.885 49.9966 180.908C49.9981 180.898 49.9981 180.887 49.9966 180.876C49.7706 181.13 49.1156 181.822 49.0741 181.868C48.2761 182.537 46.3481 183.358 45.361 182.74C45.201 182.631 45.0654 182.491 44.9629 182.327C44.8604 182.164 44.7933 181.98 44.766 181.789C44.7386 181.598 44.7515 181.403 44.804 181.217C44.8564 181.031 44.9471 180.859 45.0704 180.71C45.5777 180.064 46.5648 179.866 47.3444 179.875C48.2162 179.875 49.932 180.701 50.0658 180.765C50.5191 179.779 51.0368 178.824 51.6156 177.906C51.957 177.37 52.3168 176.845 52.6812 176.323C52.4782 176.536 52.2937 176.725 52.266 176.748C51.4727 177.417 49.54 178.238 48.5759 177.62C48.4159 177.511 48.2803 177.371 48.1779 177.207C48.0754 177.044 48.0083 176.86 47.981 176.669C47.9536 176.478 47.9665 176.283 48.0189 176.097C48.0714 175.912 48.1621 175.739 48.2853 175.59C48.7881 174.944 49.7798 174.746 50.5547 174.755C51.3297 174.764 52.8195 175.429 53.207 175.608L53.6314 175.013C54.3186 174.059 55.0151 173.108 55.6609 172.158C55.8869 171.826 56.1222 171.485 56.3159 171.148C56.136 171.337 55.9838 171.499 55.9561 171.517C55.1581 172.186 53.2301 173.007 52.266 172.389C52.1067 172.281 51.9718 172.141 51.8697 171.977C51.7677 171.814 51.7009 171.631 51.6735 171.441C51.6462 171.25 51.6589 171.056 51.7109 170.87C51.7629 170.685 51.853 170.512 51.9754 170.364C52.4782 169.714 53.4699 169.515 54.2448 169.524C55.0197 169.534 56.362 170.133 56.8233 170.345C57.0355 169.995 57.243 169.644 57.4321 169.294C57.5521 169.049 57.6858 168.833 57.7965 168.574C57.9072 168.316 58.0226 168.085 58.1333 167.845C58.327 167.384 58.5346 166.886 58.7144 166.425C58.8436 166.102 58.9589 165.793 59.0742 165.479C58.8528 165.816 58.4008 166.462 58.3547 166.512C57.7297 167.178 56.9431 167.671 56.0714 167.942C56.0034 168.017 55.9293 168.087 55.85 168.15C55.7022 168.274 55.5301 168.365 55.3449 168.419C55.1595 168.472 54.9651 168.487 54.774 168.461C54.5829 168.434 54.3994 168.369 54.2352 168.268C54.0709 168.166 53.9297 168.032 53.8205 167.873C53.1978 166.891 54.0096 164.958 54.6692 164.155C54.7107 164.109 55.1904 163.648 55.4995 163.357C55.2919 163.5 55.0936 163.639 54.8768 163.782C54.457 164.068 54.0234 164.34 53.5622 164.635L52.8703 165.046C52.6443 165.189 52.3813 165.309 52.1369 165.438C51.5649 165.737 50.9653 166.01 50.3564 166.268C50.6055 166.642 51.4727 167.975 51.6064 168.74C51.7402 169.506 51.6987 170.516 51.1452 171.116C51.0174 171.26 50.8609 171.376 50.6856 171.457C50.5103 171.537 50.3201 171.58 50.1273 171.583C49.9345 171.585 49.7432 171.548 49.5658 171.472C49.3884 171.396 49.2288 171.284 49.0972 171.143C48.3361 170.267 48.8435 168.233 49.3785 167.343C49.4108 167.287 49.8675 166.692 50.1212 166.369C49.7568 166.526 49.3924 166.678 49.0141 166.831C47.9302 167.246 46.8185 167.633 45.7115 168.025C45.3748 168.141 45.0381 168.265 44.7014 168.39C44.789 168.519 45.8545 170.078 46.0021 170.94C46.1359 171.702 46.0944 172.712 45.5408 173.311C45.4134 173.455 45.2574 173.571 45.0827 173.652C44.908 173.732 44.7185 173.775 44.5263 173.778C44.334 173.781 44.1432 173.744 43.9661 173.669C43.789 173.594 43.6294 173.484 43.4975 173.344C42.7318 172.467 43.2392 170.433 43.7742 169.543C43.8111 169.474 44.4707 168.62 44.646 168.408C43.9034 168.68 43.1654 168.952 42.4504 169.257C41.4808 169.654 40.5392 170.116 39.6321 170.641C39.6736 170.701 40.7899 172.324 40.9467 173.205C41.0758 173.966 41.0343 174.977 40.4854 175.576C40.358 175.721 40.2017 175.837 40.0266 175.918C39.8515 175.999 39.6614 176.042 39.4686 176.045C39.2757 176.048 39.0844 176.011 38.9068 175.936C38.7293 175.861 38.5694 175.749 38.4374 175.608C37.6717 174.732 38.1791 172.698 38.7142 171.808C38.7511 171.748 39.2493 171.097 39.4937 170.793L39.4476 170.742C38.5477 171.293 37.6987 171.923 36.9107 172.624C36.4725 173.007 36.0758 173.394 35.6976 173.782C35.9328 174.063 37.0121 175.359 37.2382 176.134C37.4642 176.909 37.5241 177.892 37.0352 178.547C36.9242 178.705 36.7813 178.838 36.6159 178.937C36.4504 179.037 36.2659 179.1 36.0743 179.124C35.8827 179.148 35.6883 179.132 35.5034 179.076C35.3186 179.02 35.1475 178.926 35.001 178.8C34.1431 178.016 34.4245 175.941 34.8581 174.995C34.8811 174.944 35.1809 174.451 35.4023 174.072C35.2363 174.248 35.0564 174.428 34.8996 174.603C34.3045 175.249 33.8018 175.881 33.359 176.448C33.1099 176.766 32.8977 177.066 32.6901 177.343C32.7824 177.739 33.1283 179.349 32.9715 180.11C32.8147 180.871 32.418 181.799 31.6754 182.154C31.5046 182.242 31.3172 182.294 31.1252 182.307C30.9332 182.319 30.7408 182.291 30.5602 182.224C30.3797 182.158 30.2149 182.055 30.0765 181.921C29.9382 181.787 29.8292 181.626 29.7565 181.448C29.3598 180.355 30.5683 178.639 31.3848 178.002C31.4586 177.947 32.6625 177.214 32.6671 177.232C32.8562 176.96 33.0638 176.669 33.2944 176.36C33.7234 175.788 34.2169 175.143 34.7981 174.483C35.4191 173.761 36.0814 173.076 36.7815 172.43C37.5489 171.725 38.3761 171.088 39.2539 170.525H39.2862C38.9587 170.613 38.0269 170.83 37.9577 170.839C36.9245 170.954 34.8627 170.576 34.383 169.515C34.3104 169.338 34.2756 169.147 34.2807 168.955C34.2859 168.763 34.3309 168.574 34.4129 168.401C34.4949 168.227 34.6121 168.073 34.757 167.947C34.9019 167.821 35.0714 167.727 35.2547 167.67C36.0343 167.38 36.9706 167.758 37.6118 168.219Z" fill="#6CC24A"/>
<path d="M61.0353 178.667C61.884 178.331 63.9228 178.45 63.9228 178.45C63.9228 178.45 63.4338 179.77 63.3923 179.834C62.9311 180.757 61.4412 182.247 60.2926 182.048C60.1043 182.009 59.9263 181.93 59.77 181.818C59.6137 181.706 59.4825 181.562 59.3848 181.396C59.2871 181.231 59.2251 181.046 59.2028 180.855C59.1804 180.664 59.1981 180.47 59.2548 180.286C59.4578 179.511 60.3157 178.949 61.0353 178.667Z" fill="#6CC24A"/>
<path d="M81.6818 178.965C81.6818 178.965 82.0047 180.349 82.0139 180.422C82.12 181.456 81.7187 183.513 80.6301 183.979C80.451 184.051 80.2587 184.085 80.0656 184.078C79.8726 184.072 79.6831 184.025 79.5093 183.94C79.3355 183.856 79.1813 183.736 79.0565 183.589C78.9318 183.441 78.8394 183.269 78.7851 183.084C78.5314 182.304 78.9235 181.368 79.3663 180.736C79.9152 179.989 81.6818 178.965 81.6818 178.965Z" fill="#6CC24A"/>
<path d="M61.955 172.784C62.8267 172.692 64.6257 173.287 64.7687 173.333C65.1071 172.301 65.5139 171.294 65.9864 170.316C66.2539 169.749 66.5491 169.182 66.8443 168.619C66.6737 168.854 66.5122 169.08 66.4892 169.08C65.7788 169.837 63.9661 170.893 62.9144 170.399C62.7421 170.312 62.5901 170.189 62.468 170.04C62.346 169.89 62.2567 169.716 62.2058 169.53C62.155 169.343 62.1438 169.148 62.1728 168.957C62.2019 168.766 62.2707 168.583 62.3747 168.421C62.7945 167.719 63.7585 167.397 64.5242 167.314C65.2899 167.231 66.8535 167.701 67.2641 167.835L67.61 167.189C68.1774 166.156 68.7447 165.132 69.2706 164.108C69.4597 163.748 69.6257 163.388 69.7964 163.024C69.6442 163.236 69.5104 163.411 69.4874 163.434C68.7816 164.195 66.9643 165.247 65.9126 164.754C65.741 164.666 65.5895 164.544 65.4679 164.394C65.3463 164.245 65.2573 164.072 65.2065 163.886C65.1557 163.7 65.1442 163.505 65.1729 163.315C65.2015 163.124 65.2697 162.942 65.3729 162.779C65.7973 162.074 66.7567 161.755 67.527 161.672C68.2973 161.589 69.7041 162.014 70.1885 162.17C70.3499 161.792 70.516 161.419 70.6497 161.045C70.742 160.791 70.8481 160.551 70.9219 160.289C70.9957 160.026 71.0879 159.777 71.1663 159.523C71.3047 159.029 71.4477 158.527 71.5722 158.042C71.6599 157.705 71.7337 157.383 71.8121 157.06C71.6322 157.42 71.2632 158.121 71.2263 158.176C70.6405 159.034 69.0076 160.349 67.8914 160.021C67.7083 159.96 67.5399 159.862 67.3971 159.732C67.2542 159.603 67.14 159.445 67.0618 159.268C66.9836 159.092 66.9432 158.901 66.9431 158.708C66.943 158.516 66.9832 158.325 67.0611 158.148C67.3702 157.392 68.2696 156.926 69.0215 156.728C69.8471 156.506 71.6414 156.801 71.8674 156.838C71.9966 156.303 72.1165 155.782 72.218 155.288C72.5271 153.849 72.7438 152.609 72.9007 151.645L73.6756 151.677C73.5003 152.655 73.2466 153.942 72.8914 155.436C72.7623 155.98 72.6193 156.562 72.4625 157.157C72.9982 157.392 73.5189 157.66 74.0215 157.959C74.7441 157.391 75.542 156.925 76.3924 156.575C76.2033 156.054 76.0142 155.556 75.8297 155.086C75.3038 153.743 74.8103 152.604 74.409 151.723L75.2577 151.755C75.6129 152.599 76.0326 153.637 76.4708 154.841C76.6692 155.362 76.8629 155.93 77.0612 156.511C77.2826 156.474 79.0816 156.174 79.9072 156.391C80.6591 156.589 81.5585 157.051 81.8722 157.812C81.9501 157.988 81.9904 158.179 81.9902 158.372C81.9901 158.565 81.9497 158.755 81.8715 158.932C81.7933 159.108 81.6791 159.266 81.5362 159.396C81.3934 159.525 81.225 159.624 81.0419 159.684C79.9257 160.016 78.2744 158.702 77.707 157.839C77.6701 157.789 77.3564 157.198 77.1673 156.824C77.2457 157.06 77.3242 157.286 77.4026 157.539C77.5594 158.024 77.707 158.513 77.8638 159.039C77.9284 159.297 77.9976 159.555 78.0622 159.813C78.1268 160.072 78.1821 160.358 78.2421 160.63C78.3666 161.262 78.4681 161.912 78.5511 162.567C78.9755 162.429 80.493 161.963 81.2679 162.046C82.0429 162.129 82.9977 162.447 83.422 163.153C83.5254 163.315 83.5938 163.498 83.6228 163.688C83.6518 163.878 83.6407 164.072 83.5904 164.258C83.54 164.444 83.4515 164.617 83.3303 164.767C83.2092 164.917 83.0582 165.039 82.887 165.127C81.8353 165.625 80.0179 164.574 79.3122 163.817C79.2661 163.766 78.8186 163.167 78.5788 162.83C78.6249 163.227 78.6757 163.619 78.7126 164.02C78.814 165.178 78.8786 166.354 78.9524 167.526C78.9524 167.886 78.9985 168.241 79.0216 168.6C79.1738 168.55 80.9681 167.955 81.8353 168.047C82.6056 168.13 83.565 168.448 83.9894 169.149C84.0936 169.312 84.1626 169.494 84.192 169.685C84.2214 169.876 84.2106 170.071 84.1602 170.257C84.1098 170.444 84.0209 170.617 83.8994 170.767C83.7778 170.917 83.6262 171.04 83.4543 171.128C82.4026 171.622 80.5853 170.575 79.8749 169.814C79.8242 169.758 79.1784 168.891 79.0262 168.665C79.0816 169.454 79.1415 170.238 79.2338 171.008C79.3551 172.049 79.5415 173.081 79.7919 174.099C79.8657 174.076 81.7338 173.448 82.6194 173.545C83.3897 173.624 84.3492 173.946 84.7735 174.648C84.8777 174.81 84.9467 174.993 84.9761 175.183C85.0056 175.374 84.9947 175.569 84.9443 175.756C84.8939 175.942 84.8051 176.116 84.6835 176.266C84.562 176.416 84.4104 176.539 84.2385 176.626C83.1868 177.12 81.3694 176.073 80.6637 175.312C80.6176 175.261 80.124 174.601 79.898 174.283L79.838 174.311C80.1195 175.33 80.4932 176.321 80.9543 177.272C81.1988 177.798 81.4617 178.287 81.7292 178.757C82.0659 178.605 83.6111 177.923 84.4183 177.923C85.2256 177.923 86.185 178.13 86.6785 178.785C86.7991 178.935 86.887 179.108 86.9368 179.294C86.9865 179.48 86.997 179.674 86.9675 179.864C86.938 180.055 86.8691 180.236 86.7654 180.398C86.6616 180.56 86.5252 180.699 86.3649 180.805C85.3731 181.414 83.4543 180.57 82.6748 179.883C82.6333 179.846 82.2135 179.422 81.9552 179.113C82.0798 179.32 82.2043 179.542 82.3288 179.74C82.7901 180.492 83.2514 181.147 83.6711 181.728C83.911 182.055 84.1324 182.346 84.3492 182.618C84.7551 182.618 86.3971 182.747 87.1167 183.112C87.8363 183.476 88.5835 184.113 88.7265 184.92C88.7649 185.109 88.7632 185.304 88.7217 185.492C88.6802 185.681 88.5998 185.859 88.4855 186.014C88.3713 186.17 88.2258 186.299 88.0584 186.395C87.891 186.491 87.7053 186.551 87.5134 186.571C86.3556 186.654 85.0364 185.021 84.649 184.057C84.6167 183.974 84.2431 182.614 84.2661 182.614H84.2892C84.077 182.36 83.8556 182.083 83.6204 181.774C83.1868 181.202 82.6978 180.552 82.2366 179.809C81.7138 179.015 81.2379 178.191 80.8113 177.341C80.3275 176.392 79.9292 175.401 79.6212 174.38C79.6212 174.38 79.6212 174.352 79.6212 174.343C79.6212 174.684 79.5659 175.635 79.552 175.727C79.3814 176.751 78.4496 178.628 77.3011 178.799C77.1093 178.821 76.9151 178.802 76.7309 178.745C76.5467 178.687 76.3766 178.592 76.2315 178.464C76.0864 178.337 75.9696 178.181 75.8885 178.006C75.8073 177.831 75.7637 177.64 75.7605 177.447C75.7236 176.626 76.3463 175.828 76.9413 175.335C77.6148 174.777 79.446 174.279 79.5936 174.237C79.3056 173.192 79.0883 172.129 78.9432 171.054C78.8555 170.427 78.7864 169.795 78.7218 169.159C78.7218 169.454 78.6941 169.717 78.6849 169.754C78.5142 170.778 77.5825 172.655 76.4339 172.826C76.2381 172.852 76.0389 172.836 75.8498 172.779C75.6606 172.722 75.4859 172.625 75.3373 172.495C75.1888 172.365 75.0698 172.204 74.9884 172.024C74.9071 171.844 74.8652 171.649 74.8656 171.451C74.8287 170.635 75.4514 169.837 76.0465 169.338C76.6415 168.84 78.2052 168.384 78.6157 168.268C78.6157 168.024 78.5742 167.779 78.5511 167.535C78.4542 166.363 78.362 165.196 78.2375 164.052C78.1959 163.647 78.136 163.25 78.0806 162.858C78.0806 163.116 78.053 163.319 78.0483 163.37C77.8777 164.394 76.9459 166.276 75.7928 166.442C75.6014 166.463 75.4077 166.444 75.224 166.386C75.0404 166.328 74.8708 166.232 74.7263 166.105C74.5817 165.978 74.4653 165.822 74.3844 165.647C74.3036 165.473 74.2601 165.283 74.2568 165.09C74.2199 164.274 74.8426 163.476 75.4376 162.982C76.0326 162.489 77.4441 162.06 77.933 161.926C77.8638 161.525 77.7946 161.119 77.707 160.731C77.6424 160.468 77.5963 160.21 77.5179 159.947L77.2965 159.177C77.1397 158.688 76.9828 158.185 76.8352 157.715C76.7245 157.387 76.6092 157.078 76.4985 156.765C76.5446 157.166 76.623 157.955 76.623 158.019C76.5773 158.931 76.2977 159.816 75.8112 160.588C75.8116 160.69 75.8023 160.792 75.7836 160.893C75.7516 161.083 75.6802 161.265 75.5739 161.426C75.4675 161.587 75.3287 161.724 75.1662 161.828C75.0037 161.933 74.8212 162.002 74.6304 162.031C74.4397 162.061 74.2448 162.05 74.0584 162C72.9468 161.659 72.3057 159.661 72.2918 158.623C72.2918 158.563 72.3518 157.899 72.4025 157.479C72.3333 157.719 72.2734 157.941 72.2042 158.204C72.0704 158.697 71.9182 159.186 71.7429 159.712C71.6599 159.961 71.5722 160.215 71.4846 160.468C71.397 160.722 71.2863 160.985 71.1848 161.243C70.9403 161.843 70.6636 162.438 70.373 163.033C70.8019 163.153 72.3287 163.6 72.9283 164.099C73.528 164.597 74.1507 165.385 74.1138 166.207C74.1111 166.399 74.0681 166.59 73.9875 166.765C73.907 166.94 73.7906 167.097 73.646 167.225C73.5013 167.352 73.3316 167.448 73.1476 167.507C72.9637 167.565 72.7696 167.584 72.5778 167.563C71.4246 167.392 70.4929 165.519 70.3176 164.495C70.3176 164.431 70.2669 163.679 70.253 163.268C70.0731 163.623 69.8979 163.979 69.7041 164.334C69.1506 165.353 68.5602 166.373 67.9698 167.387L67.4394 168.31C67.5916 168.351 69.4182 168.845 70.087 169.398C70.7558 169.952 71.3093 170.69 71.277 171.511C71.2738 171.704 71.2302 171.894 71.1491 172.069C71.068 172.244 70.9511 172.401 70.806 172.528C70.6609 172.655 70.4908 172.751 70.3066 172.808C70.1224 172.866 69.9282 172.884 69.7364 172.863C68.5879 172.696 67.6515 170.819 67.4809 169.795C67.4809 169.717 67.4071 168.642 67.4071 168.365C67.0196 169.052 66.6368 169.749 66.2862 170.436C65.8137 171.372 65.3994 172.337 65.0454 173.324C65.1192 173.324 67.0242 173.85 67.7115 174.417C68.3111 174.915 68.9338 175.708 68.8969 176.53C68.8936 176.722 68.8501 176.912 68.7693 177.087C68.6885 177.261 68.572 177.417 68.4275 177.545C68.2829 177.672 68.1133 177.767 67.9297 177.825C67.7461 177.883 67.5523 177.902 67.3609 177.881C66.2124 177.715 65.276 175.838 65.1008 174.814C65.1008 174.749 65.0454 173.928 65.0362 173.536H64.967C64.6422 174.54 64.4076 175.571 64.2659 176.617C64.1782 177.194 64.1275 177.747 64.0952 178.287C64.4596 178.347 66.1201 178.628 66.7982 179.071C67.4763 179.514 68.1543 180.22 68.2097 181.041C68.2277 181.233 68.2053 181.427 68.1438 181.61C68.0824 181.793 67.9833 181.961 67.853 182.104C67.7227 182.246 67.564 182.36 67.3871 182.437C67.2102 182.515 67.019 182.554 66.8259 182.554C65.6635 182.512 64.5196 180.75 64.2428 179.754C64.2428 179.698 64.1321 179.126 64.0675 178.711C64.0675 178.956 64.0353 179.209 64.0306 179.44C63.9984 180.321 64.0306 181.128 64.0537 181.843C64.0537 182.249 64.0998 182.614 64.1275 182.955C64.455 183.199 65.765 184.196 66.1524 184.892C66.5399 185.589 66.8305 186.534 66.4984 187.286C66.4262 187.465 66.3175 187.626 66.1793 187.76C66.0412 187.894 65.8765 187.998 65.6959 188.065C65.5153 188.132 65.3227 188.16 65.1305 188.149C64.9382 188.137 64.7506 188.085 64.5795 187.996C63.5648 187.424 63.371 185.335 63.5786 184.306C63.5786 184.219 64.0399 182.876 64.0399 182.886C64.0076 182.554 63.9753 182.198 63.9476 181.816C63.9015 181.101 63.8554 180.289 63.8692 179.408C63.8699 178.457 63.9269 177.506 64.0399 176.562C64.163 175.503 64.3775 174.456 64.681 173.434V173.398C64.4873 173.679 63.9199 174.445 63.8692 174.5C63.1635 175.261 61.3507 176.313 60.299 175.819C60.1274 175.732 59.976 175.609 59.8544 175.46C59.7328 175.31 59.6437 175.137 59.5929 174.951C59.5421 174.766 59.5307 174.571 59.5593 174.381C59.588 174.19 59.6561 174.008 59.7594 173.845C60.2252 173.19 61.1847 172.872 61.955 172.784Z" fill="#6CC24A"/>
<path d="M166.998 37.3242H38.1816C36.4314 37.3242 35.0127 38.743 35.0127 40.4931V165.721C35.0127 167.471 36.4314 168.889 38.1816 168.889H166.998C168.748 168.889 170.167 167.471 170.167 165.721V40.4931C170.167 38.743 168.748 37.3242 166.998 37.3242Z" fill="white" stroke="#263238" stroke-width="0.612239" stroke-linecap="round" stroke-linejoin="round"/>
<path d="M167.085 37.3242H38.1031C37.2843 37.3242 36.4989 37.6492 35.9195 38.2278C35.3401 38.8063 35.0139 39.5912 35.0127 40.41V45.8575H170.153V40.41C170.152 39.5952 169.829 38.8138 169.254 38.2359C168.68 37.6579 167.9 37.3303 167.085 37.3242Z" fill="#DFDFDF" stroke="#263238" stroke-width="0.612239" stroke-linecap="round" stroke-linejoin="round"/>
<path d="M41.4954 41.4442C41.4963 41.6962 41.4224 41.9428 41.2831 42.1528C41.1437 42.3627 40.9452 42.5266 40.7127 42.6237C40.4801 42.7208 40.224 42.7466 39.9768 42.698C39.7295 42.6494 39.5022 42.5286 39.3237 42.3507C39.1452 42.1728 39.0235 41.946 38.974 41.6989C38.9245 41.4518 38.9495 41.1956 39.0457 40.9627C39.1419 40.7299 39.3051 40.5307 39.5145 40.3907C39.724 40.2506 39.9703 40.1758 40.2223 40.1758C40.5588 40.177 40.8812 40.3109 41.1195 40.5484C41.3579 40.7859 41.4929 41.1078 41.4954 41.4442Z" fill="white" stroke="#263238" stroke-width="0.612239" stroke-linecap="round" stroke-linejoin="round"/>
<path d="M46.8372 41.4442C46.8381 41.6962 46.7642 41.9428 46.6249 42.1528C46.4855 42.3627 46.287 42.5266 46.0545 42.6237C45.8219 42.7208 45.5658 42.7466 45.3186 42.698C45.0713 42.6494 44.844 42.5286 44.6655 42.3507C44.487 42.1728 44.3653 41.946 44.3158 41.6989C44.2663 41.4518 44.2913 41.1956 44.3875 40.9627C44.4837 40.7299 44.6469 40.5307 44.8563 40.3907C45.0658 40.2506 45.3121 40.1758 45.5641 40.1758C45.9009 40.1758 46.224 40.3093 46.4627 40.547C46.7013 40.7848 46.8359 41.1074 46.8372 41.4442Z" fill="white" stroke="#263238" stroke-width="0.612239" stroke-linecap="round" stroke-linejoin="round"/>
<path d="M52.1692 41.4443C52.1701 41.6964 52.0961 41.9432 51.9566 42.1533C51.817 42.3633 51.6182 42.5272 51.3854 42.6241C51.1526 42.7211 50.8963 42.7467 50.6489 42.6977C50.4015 42.6487 50.1742 42.5274 49.9959 42.3491C49.8176 42.1707 49.6963 41.9435 49.6473 41.6961C49.5983 41.4487 49.6239 41.1924 49.7208 40.9595C49.8178 40.7267 49.9817 40.528 50.1917 40.3884C50.4018 40.2489 50.6486 40.1749 50.9007 40.1758C51.2368 40.177 51.5587 40.311 51.7963 40.5487C52.034 40.7863 52.168 41.1082 52.1692 41.4443Z" fill="white" stroke="#263238" stroke-width="0.612239" stroke-linecap="round" stroke-linejoin="round"/>
<path d="M104.656 61.3939V52.7545H102.885V51.7812H107.497V52.7545H105.726V61.3939H104.656Z" fill="#263238"/>
<path d="M108.161 54.0967C108.161 52.6253 108.89 51.6797 110.357 51.6797C111.824 51.6797 112.571 52.6022 112.571 54.0967V59.0645C112.571 60.522 111.842 61.4815 110.357 61.4815C108.871 61.4815 108.161 60.522 108.161 59.0645V54.0967ZM109.217 59.1198C109.217 60.0008 109.591 60.5036 110.357 60.5036C111.122 60.5036 111.496 59.9962 111.496 59.1198V54.046C111.496 53.1788 111.141 52.6622 110.357 52.6622C109.573 52.6622 109.217 53.1834 109.217 54.046V59.1198Z" fill="#263238"/>
<path d="M115.835 51.7812C117.329 51.7812 118.017 52.7038 118.017 54.1706V59.0184C118.017 60.4852 117.329 61.3939 115.835 61.3939H113.584V51.7812H115.835ZM115.835 60.416C116.605 60.416 116.974 59.9548 116.974 59.0599V54.1152C116.974 53.2342 116.605 52.7545 115.821 52.7545H114.668V60.416H115.835Z" fill="#263238"/>
<path d="M120.09 59.4566L119.721 61.3939H118.733L120.578 51.7812H122.128L123.973 61.3939H122.903L122.53 59.4566H120.09ZM120.228 58.5341H122.373L121.284 52.999L120.228 58.5341Z" fill="#263238"/>
<path d="M125.83 57.9437L123.796 51.7812H124.908L126.407 56.5046L127.915 51.7812H128.93L126.886 57.9437V61.3939H125.83V57.9437Z" fill="#263238"/>
<path d="M43.4438 52.0437V52.1821H42.9042V52.0114C42.9042 51.5501 42.7289 51.2826 42.3184 51.2826C41.9078 51.2826 41.7372 51.5548 41.7372 52.0068C41.7372 53.1507 43.4484 53.2614 43.4484 54.6959C43.4484 55.4662 43.0794 55.969 42.2999 55.969C41.5204 55.969 41.1514 55.4662 41.1514 54.6959V54.4053H41.6864V54.7467C41.6864 55.2079 41.8755 55.4755 42.2815 55.4755C42.6874 55.4755 42.8811 55.2079 42.8811 54.7467C42.8811 53.612 41.1744 53.5013 41.1744 52.0668C41.1744 51.278 41.5388 50.7891 42.3045 50.7891C43.0702 50.7891 43.4438 51.2688 43.4438 52.0437Z" fill="#263238"/>
<path d="M46.1975 52.044V52.5053H45.6578V52.0163C45.6578 51.5551 45.4779 51.2783 45.0628 51.2783C44.6476 51.2783 44.4631 51.5551 44.4631 52.0163V54.7147C44.4631 55.176 44.6522 55.4481 45.0628 55.4481C45.4733 55.4481 45.6578 55.1714 45.6578 54.7147V54.0505H46.1975V54.6824C46.1975 55.4573 45.8331 55.9647 45.0489 55.9647C44.2648 55.9647 43.9004 55.4573 43.9004 54.6824V52.044C43.9004 51.2737 44.2648 50.7617 45.0489 50.7617C45.8331 50.7617 46.1975 51.2737 46.1975 52.044Z" fill="#263238"/>
<path d="M47.289 53.6216V55.9279H46.7217V50.8125H47.289V53.1188H48.5437V50.8125H49.111V55.914H48.5437V53.6077L47.289 53.6216Z" fill="#263238"/>
<path d="M51.5071 53.0727V53.5847H50.2617V55.3974H51.7931V55.914H49.6943V50.8125H51.7931V51.3291H50.2617V53.0727H51.5071Z" fill="#263238"/>
<path d="M53.5111 50.8125C54.3044 50.8125 54.6688 51.2738 54.6688 52.081V54.6548C54.6688 55.4343 54.3044 55.914 53.5111 55.914H52.3164V50.8125H53.5111ZM53.5111 55.3974C53.9216 55.3974 54.1153 55.1437 54.1153 54.6779V52.0533C54.1153 51.592 53.9216 51.3291 53.5065 51.3291H52.893V55.3974H53.5111Z" fill="#263238"/>
<path d="M55.761 54.7148C55.761 55.176 55.9409 55.4482 56.356 55.4482C56.7711 55.4482 56.9464 55.1714 56.9464 54.7148V50.8125H57.4815V54.6825C57.4815 55.4574 57.1217 55.974 56.3376 55.974C55.5534 55.974 55.1982 55.4574 55.1982 54.6825V50.8125H55.761V54.7148Z" fill="#263238"/>
<path d="M58.0244 55.914V50.8125H58.5964V55.3974H60.054V55.914H58.0244Z" fill="#263238"/>
<path d="M62.3017 53.0727V53.5847H61.0517V55.3974H62.5831V55.914H60.4844V50.8125H62.5831V51.3291H61.0517V53.0727H62.3017Z" fill="#263238"/>
<path d="M76.3307 67.3602V67.5124C76.3573 67.7165 76.318 67.9237 76.2184 68.1038C76.1188 68.2839 75.9642 68.4274 75.7771 68.5133C75.9665 68.6028 76.1223 68.7503 76.2219 68.9345C76.3214 69.1187 76.3596 69.3299 76.3307 69.5373V69.8971C76.3307 70.2029 76.2092 70.4963 75.9929 70.7125C75.7766 70.9288 75.4833 71.0503 75.1775 71.0503C74.8717 71.0503 74.5784 70.9288 74.3621 70.7125C74.1458 70.4963 74.0244 70.2029 74.0244 69.8971V69.5373C73.9947 69.3287 74.0335 69.1161 74.135 68.9315C74.2364 68.7468 74.3951 68.6001 74.5871 68.5133C74.3969 68.4307 74.239 68.2882 74.1374 68.1075C74.0358 67.9268 73.9961 67.7178 74.0244 67.5124V67.3602C74.0244 67.0543 74.1458 66.761 74.3621 66.5448C74.5784 66.3285 74.8717 66.207 75.1775 66.207C75.4833 66.207 75.7766 66.3285 75.9929 66.5448C76.2092 66.761 76.3307 67.0543 76.3307 67.3602ZM74.5779 67.3602V67.5954C74.5779 68.0567 74.8039 68.2781 75.1867 68.2781C75.5696 68.2781 75.7956 68.0659 75.7956 67.5954V67.3602C75.7956 66.862 75.5696 66.636 75.1867 66.636C74.8039 66.636 74.5779 66.8759 74.5779 67.374V67.3602ZM74.5779 69.4589V69.8694C74.5779 70.3676 74.7993 70.6028 75.1867 70.6028C75.5742 70.6028 75.791 70.3676 75.7956 69.8694V69.4589C75.7956 68.9977 75.588 68.7624 75.1867 68.7624C74.7854 68.7624 74.5779 69.0023 74.5779 69.4728V69.4589Z" fill="#263238"/>
<path d="M77.3406 67.7461V68.4195H76.8193V67.7461H77.3406ZM77.3406 70.3891V71.0579H76.8193V70.3891H77.3406Z" fill="#263238"/>
<path d="M77.8545 67.3786C77.8545 66.636 78.2235 66.1562 78.9661 66.1562C79.7088 66.1562 80.0778 66.6175 80.0778 67.3786V69.8786C80.0778 70.6212 79.7134 71.1056 78.9661 71.1056C78.2189 71.1056 77.8545 70.6212 77.8545 69.8786V67.3786ZM78.3896 69.9109C78.3896 70.3722 78.5741 70.612 78.9661 70.612C79.3582 70.612 79.5381 70.3491 79.5381 69.9109V67.3509C79.5381 66.8897 79.3582 66.6452 78.9661 66.6452C78.5741 66.6452 78.3896 66.9081 78.3896 67.3509V69.9109Z" fill="#263238"/>
<path d="M80.5488 67.3786C80.5488 66.636 80.9178 66.1562 81.6605 66.1562C82.4031 66.1562 82.7721 66.6175 82.7721 67.3786V69.8786C82.7721 70.6212 82.4077 71.1056 81.6605 71.1056C80.9132 71.1056 80.5488 70.6212 80.5488 69.8786V67.3786ZM81.0839 69.9109C81.0839 70.3722 81.2684 70.612 81.6605 70.612C82.0525 70.612 82.2324 70.3491 82.2324 69.9109V67.3509C82.2324 66.8897 82.0525 66.6452 81.6605 66.6452C81.2684 66.6452 81.0839 66.9081 81.0839 67.3509V69.9109Z" fill="#263238"/>
<path d="M88.4205 67.0909C88.2165 67.2144 87.9852 67.2857 87.7471 67.2984V66.8372C87.9387 66.842 88.1262 66.7802 88.2775 66.6625C88.4288 66.5448 88.5348 66.3784 88.5773 66.1914H88.9694V71.0393H88.4343L88.4205 67.0909Z" fill="#263238"/>
<path d="M89.7305 67.3786C89.7305 66.636 90.0949 66.1562 90.8375 66.1562C91.5801 66.1562 91.9537 66.6175 91.9537 67.3786V69.8786C91.9537 70.6212 91.5847 71.1056 90.8375 71.1056C90.0902 71.1056 89.7305 70.6212 89.7305 69.8786V67.3786ZM90.2609 69.9109C90.2609 70.3722 90.45 70.612 90.8375 70.612C91.2249 70.612 91.4141 70.3491 91.4141 69.9109V67.3509C91.4141 66.8897 91.2342 66.6452 90.8375 66.6452C90.4408 66.6452 90.2609 66.9081 90.2609 67.3509V69.9109Z" fill="#263238"/>
<path d="M92.9815 67.7461V68.4195H92.4648V67.7461H92.9815ZM92.9815 70.3891V71.0579H92.4648V70.3891H92.9815Z" fill="#263238"/>
<path d="M93.5 67.3786C93.5 66.636 93.8644 66.1562 94.607 66.1562C95.3497 66.1562 95.7233 66.6175 95.7233 67.3786V69.8786C95.7233 70.6212 95.3543 71.1056 94.607 71.1056C93.8598 71.1056 93.5 70.6212 93.5 69.8786V67.3786ZM94.0304 69.9109C94.0304 70.3722 94.2196 70.612 94.607 70.612C94.9945 70.612 95.1836 70.3491 95.1836 69.9109V67.3509C95.1836 66.8897 94.9991 66.6452 94.607 66.6452C94.215 66.6452 94.0304 66.9081 94.0304 67.3509V69.9109Z" fill="#263238"/>
<path d="M96.1934 67.3786C96.1934 66.636 96.5578 66.1562 97.3004 66.1562C98.043 66.1562 98.4166 66.6175 98.4166 67.3786V69.8786C98.4166 70.6212 98.0476 71.1056 97.3004 71.1056C96.5531 71.1056 96.1934 70.6212 96.1934 69.8786V67.3786ZM96.7238 69.9109C96.7238 70.3722 96.9129 70.612 97.3004 70.612C97.6878 70.612 97.877 70.3491 97.877 69.9109V67.3509C97.877 66.8897 97.6971 66.6452 97.3004 66.6452C96.9037 66.6452 96.7238 66.9081 96.7238 67.3509V69.9109Z" fill="#263238"/>
<path d="M104.411 67.0909C104.207 67.2144 103.975 67.2857 103.737 67.2984V66.8372C103.929 66.842 104.116 66.7802 104.268 66.6625C104.419 66.5448 104.525 66.3784 104.568 66.1914H104.946V71.0393H104.411V67.0909Z" fill="#263238"/>
<path d="M107.943 67.3825C107.943 68.8447 106.301 69.3705 106.292 70.4868V70.5652H107.884V71.0541H105.762V70.639C105.762 69.0753 107.404 68.7709 107.404 67.4102C107.404 66.912 107.238 66.6491 106.832 66.6491C106.426 66.6491 106.264 66.9305 106.264 67.3594V67.7884H105.762V67.3963C105.762 66.6537 106.098 66.1602 106.85 66.1602C107.602 66.1602 107.943 66.6445 107.943 67.3825Z" fill="#263238"/>
<path d="M108.962 67.7461V68.4195H108.44V67.7461H108.962ZM108.962 70.3891V71.0579H108.44V70.3891H108.962Z" fill="#263238"/>
<path d="M109.475 67.3786C109.475 66.636 109.839 66.1562 110.582 66.1562C111.324 66.1562 111.698 66.6175 111.698 67.3786V69.8786C111.698 70.6212 111.329 71.1056 110.582 71.1056C109.834 71.1056 109.475 70.6212 109.475 69.8786V67.3786ZM110.005 69.9109C110.005 70.3722 110.194 70.612 110.582 70.612C110.969 70.612 111.158 70.3491 111.158 69.9109V67.3509C111.158 66.8897 110.974 66.6452 110.582 66.6452C110.19 66.6452 110.005 66.9081 110.005 67.3509V69.9109Z" fill="#263238"/>
<path d="M112.169 67.3786C112.169 66.636 112.533 66.1562 113.276 66.1562C114.019 66.1562 114.392 66.6175 114.392 67.3786V69.8786C114.392 70.6212 114.023 71.1056 113.276 71.1056C112.529 71.1056 112.169 70.6212 112.169 69.8786V67.3786ZM112.699 69.9109C112.699 70.3722 112.889 70.612 113.276 70.612C113.663 70.612 113.853 70.3491 113.853 69.9109V67.3509C113.853 66.8897 113.673 66.6452 113.276 66.6452C112.879 66.6452 112.699 66.9081 112.699 67.3509V69.9109Z" fill="#263238"/>
<path d="M122.184 67.3825C122.184 68.8447 120.542 69.3705 120.532 70.4868V70.5652H122.128V71.0541H120.002V70.639C120.002 69.0753 121.639 68.7709 121.639 67.4102C121.639 66.912 121.473 66.6491 121.072 66.6491C120.671 66.6491 120.505 66.9305 120.505 67.3594V67.7884H120.002V67.3963C120.002 66.6537 120.339 66.1602 121.086 66.1602C121.833 66.1602 122.184 66.6445 122.184 67.3825Z" fill="#263238"/>
<path d="M123.196 67.7461V68.4195H122.68V67.7461H123.196ZM123.196 70.3891V71.0579H122.68V70.3891H123.196Z" fill="#263238"/>
<path d="M123.71 67.3786C123.71 66.636 124.079 66.1562 124.822 66.1562C125.564 66.1562 125.933 66.6175 125.933 67.3786V69.8786C125.933 70.6212 125.569 71.1056 124.822 71.1056C124.074 71.1056 123.71 70.6212 123.71 69.8786V67.3786ZM124.245 69.9109C124.245 70.3722 124.434 70.612 124.822 70.612C125.209 70.612 125.394 70.3491 125.394 69.9109V67.3509C125.394 66.8897 125.214 66.6452 124.822 66.6452C124.43 66.6452 124.245 66.9081 124.245 67.3509V69.9109Z" fill="#263238"/>
<path d="M126.403 67.3786C126.403 66.636 126.772 66.1562 127.515 66.1562C128.258 66.1562 128.631 66.6175 128.631 67.3786V69.8786C128.631 70.6212 128.262 71.1056 127.515 71.1056C126.768 71.1056 126.403 70.6212 126.403 69.8786V67.3786ZM126.938 69.9109C126.938 70.3722 127.128 70.612 127.515 70.612C127.902 70.612 128.087 70.3491 128.087 69.9109V67.3509C128.087 66.8897 127.907 66.6452 127.515 66.6452C127.123 66.6452 126.938 66.9081 126.938 67.3509V69.9109Z" fill="#263238"/>
<path d="M137.361 70.0809V71.0588H136.83V70.0809H135.267V69.592L136.77 66.2109H137.361V69.592H137.748V70.0809H137.361ZM135.765 69.592H136.83V67.2026L135.765 69.592Z" fill="#263238"/>
<path d="M138.68 67.7461V68.4195H138.163V67.7461H138.68ZM138.68 70.3891V71.0579H138.163V70.3891H138.68Z" fill="#263238"/>
<path d="M139.193 67.3786C139.193 66.636 139.562 66.1562 140.305 66.1562C141.048 66.1562 141.417 66.6175 141.417 67.3786V69.8786C141.417 70.6212 141.052 71.1056 140.305 71.1056C139.558 71.1056 139.193 70.6212 139.193 69.8786V67.3786ZM139.728 69.9109C139.728 70.3722 139.918 70.612 140.305 70.612C140.692 70.612 140.877 70.3491 140.877 69.9109V67.3509C140.877 66.8897 140.697 66.6452 140.305 66.6452C139.913 66.6452 139.728 66.9081 139.728 67.3509V69.9109Z" fill="#263238"/>
<path d="M141.892 67.3786C141.892 66.636 142.256 66.1562 142.999 66.1562C143.741 66.1562 144.115 66.6175 144.115 67.3786V69.8786C144.115 70.6212 143.746 71.1056 142.999 71.1056C142.251 71.1056 141.892 70.6212 141.892 69.8786V67.3786ZM142.422 69.9109C142.422 70.3722 142.611 70.612 142.999 70.612C143.386 70.612 143.575 70.3491 143.575 69.9109V67.3509C143.575 66.8897 143.391 66.6452 142.999 66.6452C142.607 66.6452 142.422 66.9081 142.422 67.3509V69.9109Z" fill="#263238"/>
<path d="M153.852 67.3694V67.4616H153.345V67.3371C153.345 66.8758 153.165 66.6452 152.773 66.6452C152.381 66.6452 152.182 66.9081 152.182 67.4247V68.5133C152.238 68.3528 152.345 68.215 152.487 68.1209C152.628 68.0268 152.797 67.9816 152.966 67.9921C153.589 67.9921 153.866 68.4533 153.866 69.1452V69.8786C153.866 70.6212 153.497 71.1056 152.754 71.1056C152.012 71.1056 151.643 70.6212 151.643 69.8786V67.4063C151.643 66.636 151.989 66.1562 152.754 66.1562C153.52 66.1562 153.852 66.6313 153.852 67.3694ZM152.164 69.1867V69.9109C152.164 70.3722 152.344 70.612 152.736 70.612C153.128 70.612 153.312 70.3491 153.312 69.9109V69.1867C153.312 68.7485 153.128 68.4856 152.736 68.4856C152.344 68.4856 152.164 68.7485 152.164 69.1867Z" fill="#263238"/>
<path d="M154.887 67.7461V68.4195H154.366V67.7461H154.887ZM154.887 70.3891V71.0579H154.366V70.3891H154.887Z" fill="#263238"/>
<path d="M155.392 67.3786C155.392 66.636 155.761 66.1562 156.499 66.1562C157.237 66.1562 157.615 66.6175 157.615 67.3786V69.8786C157.615 70.6212 157.25 71.1056 156.499 71.1056C155.747 71.1056 155.392 70.6212 155.392 69.8786V67.3786ZM155.927 69.9109C155.927 70.3722 156.111 70.612 156.499 70.612C156.886 70.612 157.075 70.3491 157.075 69.9109V67.3509C157.075 66.8897 156.895 66.6452 156.499 66.6452C156.102 66.6452 155.927 66.9081 155.927 67.3509V69.9109Z" fill="#263238"/>
<path d="M158.095 67.3786C158.095 66.636 158.464 66.1562 159.206 66.1562C159.949 66.1562 160.318 66.6175 160.318 67.3786V69.8786C160.318 70.6212 159.954 71.1056 159.206 71.1056C158.459 71.1056 158.095 70.6212 158.095 69.8786V67.3786ZM158.63 69.9109C158.63 70.3722 158.814 70.612 159.206 70.612C159.598 70.612 159.778 70.3491 159.778 69.9109V67.3509C159.778 66.8897 159.598 66.6452 159.206 66.6452C158.814 66.6452 158.63 66.9081 158.63 67.3509V69.9109Z" fill="#263238"/>
<path d="M86.4405 125.113H71.6709V139.03H86.4405V125.113Z" stroke="#8B8B8B" stroke-width="0.612239" stroke-miterlimit="10"/>
<path d="M101.634 125.113H86.8643V139.03H101.634V125.113Z" stroke="#8B8B8B" stroke-width="0.612239" stroke-miterlimit="10"/>
<path d="M116.838 125.113H102.068V139.03H116.838V125.113Z" stroke="#8B8B8B" stroke-width="0.612239" stroke-miterlimit="10"/>
<path d="M132.042 125.113H117.272V139.03H132.042V125.113Z" stroke="#8B8B8B" stroke-width="0.612239" stroke-miterlimit="10"/>
<path d="M147.24 125.113H132.471V139.03H147.24V125.113Z" stroke="#8B8B8B" stroke-width="0.612239" stroke-miterlimit="10"/>
<path d="M162.5 125.113H147.73V139.03H162.5V125.113Z" stroke="#8B8B8B" stroke-width="0.612239" stroke-miterlimit="10"/>
<path d="M41.2979 73.9805H65.2142" stroke="#8B8B8B" stroke-width="0.612239" stroke-miterlimit="10"/>
<path d="M41.2979 76.6055H65.2142" stroke="#8B8B8B" stroke-width="0.612239" stroke-miterlimit="10"/>
<path d="M41.2979 79.2227H65.2142" stroke="#8B8B8B" stroke-width="0.612239" stroke-miterlimit="10"/>
<path d="M41.2979 81.8438H65.2142" stroke="#8B8B8B" stroke-width="0.612239" stroke-miterlimit="10"/>
<path d="M41.2979 84.4648H65.2142" stroke="#8B8B8B" stroke-width="0.612239" stroke-miterlimit="10"/>
<path d="M41.2979 87.0898H65.2142" stroke="#8B8B8B" stroke-width="0.612239" stroke-miterlimit="10"/>
<path d="M41.2979 89.707H65.2142" stroke="#8B8B8B" stroke-width="0.612239" stroke-miterlimit="10"/>
<path d="M41.2979 92.332H65.2142" stroke="#8B8B8B" stroke-width="0.612239" stroke-miterlimit="10"/>
<path d="M41.2979 132.359H65.2142" stroke="#8B8B8B" stroke-width="0.612239" stroke-miterlimit="10"/>
<path d="M41.2979 134.98H65.2142" stroke="#8B8B8B" stroke-width="0.612239" stroke-miterlimit="10"/>
<path d="M41.2979 137.598H65.2142" stroke="#8B8B8B" stroke-width="0.612239" stroke-miterlimit="10"/>
<path d="M41.2979 140.223H65.2142" stroke="#8B8B8B" stroke-width="0.612239" stroke-miterlimit="10"/>
<path d="M41.2979 142.844H65.2142" stroke="#8B8B8B" stroke-width="0.612239" stroke-miterlimit="10"/>
<path d="M41.2979 145.461H65.2142" stroke="#8B8B8B" stroke-width="0.612239" stroke-miterlimit="10"/>
<path d="M41.2979 148.086H65.2142" stroke="#8B8B8B" stroke-width="0.612239" stroke-miterlimit="10"/>
<path d="M41.2979 150.703H65.2142" stroke="#8B8B8B" stroke-width="0.612239" stroke-miterlimit="10"/>
<path d="M86.4405 73.9922H71.6709V87.9084H86.4405V73.9922Z" stroke="#8B8B8B" stroke-width="0.612239" stroke-miterlimit="10"/>
<path d="M101.634 73.9922H86.8643V87.9084H101.634V73.9922Z" fill="#DFDFDF" stroke="#8B8B8B" stroke-width="0.612239" stroke-miterlimit="10"/>
<path d="M116.838 73.9922H102.068V87.9084H116.838V73.9922Z" fill="#DFDFDF" stroke="#8B8B8B" stroke-width="0.612239" stroke-miterlimit="10"/>
<path d="M132.042 73.9922H117.272V87.9084H132.042V73.9922Z" stroke="#8B8B8B" stroke-width="0.612239" stroke-miterlimit="10"/>
<path d="M147.24 73.9922H132.471V87.9084H147.24V73.9922Z" stroke="#8B8B8B" stroke-width="0.612239" stroke-miterlimit="10"/>
<path d="M162.5 73.9922H147.73V87.9084H162.5V73.9922Z" stroke="#8B8B8B" stroke-width="0.612239" stroke-miterlimit="10"/>
<path d="M89.457 77.9609H99.7847" stroke="#8B8B8B" stroke-width="0.612239" stroke-miterlimit="10"/>
<path d="M89.457 79.5352H99.7847" stroke="#8B8B8B" stroke-width="0.612239" stroke-miterlimit="10"/>
<path d="M89.457 81.1055H99.7847" stroke="#8B8B8B" stroke-width="0.612239" stroke-miterlimit="10"/>
<path d="M89.457 82.6758H99.7847" stroke="#8B8B8B" stroke-width="0.612239" stroke-miterlimit="10"/>
<path d="M89.457 84.25H99.7847" stroke="#8B8B8B" stroke-width="0.612239" stroke-miterlimit="10"/>
<path d="M86.4405 91.0156H71.6709V104.932H86.4405V91.0156Z" stroke="#8B8B8B" stroke-width="0.612239" stroke-miterlimit="10"/>
<path d="M101.634 91.0156H86.8643V104.932H101.634V91.0156Z" fill="#DFDFDF" stroke="#8B8B8B" stroke-width="0.612239" stroke-miterlimit="10"/>
<path d="M116.838 91.0156H102.068V104.932H116.838V91.0156Z" stroke="#8B8B8B" stroke-width="0.612239" stroke-miterlimit="10"/>
<path d="M132.042 91.0156H117.272V104.932H132.042V91.0156Z" stroke="#8B8B8B" stroke-width="0.612239" stroke-miterlimit="10"/>
<path d="M147.24 91.0156H132.471V104.932H147.24V91.0156Z" stroke="#8B8B8B" stroke-width="0.612239" stroke-miterlimit="10"/>
<path d="M162.5 91.0156H147.73V104.932H162.5V91.0156Z" stroke="#8B8B8B" stroke-width="0.612239" stroke-miterlimit="10"/>
<path d="M89.457 94.8008H99.7847" stroke="#8B8B8B" stroke-width="0.612239" stroke-miterlimit="10"/>
<path d="M89.457 96.3711H99.7847" stroke="#8B8B8B" stroke-width="0.612239" stroke-miterlimit="10"/>
<path d="M89.457 97.9414H99.7847" stroke="#8B8B8B" stroke-width="0.612239" stroke-miterlimit="10"/>
<path d="M89.457 99.5156H99.7847" stroke="#8B8B8B" stroke-width="0.612239" stroke-miterlimit="10"/>
<path d="M89.457 101.086H99.7847" stroke="#8B8B8B" stroke-width="0.612239" stroke-miterlimit="10"/>
<path d="M86.4405 108.043H71.6709V121.959H86.4405V108.043Z" stroke="#8B8B8B" stroke-width="0.612239" stroke-miterlimit="10"/>
<path d="M101.634 108.043H86.8643V121.959H101.634V108.043Z" stroke="#8B8B8B" stroke-width="0.612239" stroke-miterlimit="10"/>
<path d="M116.838 108.043H102.068V121.959H116.838V108.043Z" stroke="#8B8B8B" stroke-width="0.612239" stroke-miterlimit="10"/>
<path d="M132.042 108.043H117.272V121.959H132.042V108.043Z" stroke="#8B8B8B" stroke-width="0.612239" stroke-miterlimit="10"/>
<path d="M147.24 108.043H132.471V121.959H147.24V108.043Z" fill="#DFDFDF" stroke="#8B8B8B" stroke-width="0.612239" stroke-miterlimit="10"/>
<path d="M162.5 108.043H147.73V121.959H162.5V108.043Z" stroke="#8B8B8B" stroke-width="0.612239" stroke-miterlimit="10"/>
<path d="M135.256 111.863H145.583" stroke="#8B8B8B" stroke-width="0.612239" stroke-miterlimit="10"/>
<path d="M135.256 113.441H145.583" stroke="#8B8B8B" stroke-width="0.612239" stroke-miterlimit="10"/>
<path d="M135.256 115.004H145.583" stroke="#8B8B8B" stroke-width="0.612239" stroke-miterlimit="10"/>
<path d="M135.256 116.582H145.583" stroke="#8B8B8B" stroke-width="0.612239" stroke-miterlimit="10"/>
<path d="M135.256 118.152H145.583" stroke="#8B8B8B" stroke-width="0.612239" stroke-miterlimit="10"/>
<path d="M86.4405 142.18H71.6709V156.096H86.4405V142.18Z" stroke="#8B8B8B" stroke-width="0.612239" stroke-miterlimit="10"/>
<path d="M101.634 142.18H86.8643V156.096H101.634V142.18Z" stroke="#8B8B8B" stroke-width="0.612239" stroke-miterlimit="10"/>
<path d="M116.838 142.18H102.068V156.096H116.838V142.18Z" fill="#DFDFDF" stroke="#8B8B8B" stroke-width="0.612239" stroke-miterlimit="10"/>
<path d="M132.042 142.18H117.272V156.096H132.042V142.18Z" fill="#DFDFDF" stroke="#8B8B8B" stroke-width="0.612239" stroke-miterlimit="10"/>
<path d="M147.24 142.18H132.471V156.096H147.24V142.18Z" fill="#DFDFDF" stroke="#8B8B8B" stroke-width="0.612239" stroke-miterlimit="10"/>
<path d="M162.5 142.18H147.73V156.096H162.5V142.18Z" stroke="#8B8B8B" stroke-width="0.612239" stroke-miterlimit="10"/>
<path d="M104.503 145.988H114.831" stroke="#8B8B8B" stroke-width="0.612239" stroke-miterlimit="10"/>
<path d="M104.503 147.562H114.831" stroke="#8B8B8B" stroke-width="0.612239" stroke-miterlimit="10"/>
<path d="M104.503 149.133H114.831" stroke="#8B8B8B" stroke-width="0.612239" stroke-miterlimit="10"/>
<path d="M104.503 150.703H114.831" stroke="#8B8B8B" stroke-width="0.612239" stroke-miterlimit="10"/>
<path d="M104.503 152.273H114.831" stroke="#8B8B8B" stroke-width="0.612239" stroke-miterlimit="10"/>
<path d="M119.54 145.988H129.868" stroke="#8B8B8B" stroke-width="0.612239" stroke-miterlimit="10"/>
<path d="M119.54 147.562H129.868" stroke="#8B8B8B" stroke-width="0.612239" stroke-miterlimit="10"/>
<path d="M119.54 149.133H129.868" stroke="#8B8B8B" stroke-width="0.612239" stroke-miterlimit="10"/>
<path d="M119.54 150.703H129.868" stroke="#8B8B8B" stroke-width="0.612239" stroke-miterlimit="10"/>
<path d="M119.54 152.273H129.868" stroke="#8B8B8B" stroke-width="0.612239" stroke-miterlimit="10"/>
<path d="M134.587 145.988H144.915" stroke="#8B8B8B" stroke-width="0.612239" stroke-miterlimit="10"/>
<path d="M134.587 147.562H144.915" stroke="#8B8B8B" stroke-width="0.612239" stroke-miterlimit="10"/>
<path d="M134.587 149.133H144.915" stroke="#8B8B8B" stroke-width="0.612239" stroke-miterlimit="10"/>
<path d="M134.587 150.703H144.915" stroke="#8B8B8B" stroke-width="0.612239" stroke-miterlimit="10"/>
<path d="M134.587 152.273H144.915" stroke="#8B8B8B" stroke-width="0.612239" stroke-miterlimit="10"/>
</g>
</svg>
