<svg width="16" height="16" viewBox="0 0 16 16" fill="none" xmlns="http://www.w3.org/2000/svg">
<path d="M5.33301 3.83398C5.05967 3.83398 4.83301 3.60732 4.83301 3.33398V1.33398C4.83301 1.06065 5.05967 0.833984 5.33301 0.833984C5.60634 0.833984 5.83301 1.06065 5.83301 1.33398V3.33398C5.83301 3.60732 5.60634 3.83398 5.33301 3.83398Z" fill="#005F73"/>
<path d="M10.667 3.83398C10.3937 3.83398 10.167 3.60732 10.167 3.33398V1.33398C10.167 1.06065 10.3937 0.833984 10.667 0.833984C10.9403 0.833984 11.167 1.06065 11.167 1.33398V3.33398C11.167 3.60732 10.9403 3.83398 10.667 3.83398Z" fill="#005F73"/>
<path d="M5.66667 9.66679C5.49333 9.66679 5.32 9.59345 5.19333 9.47345C5.07333 9.34679 5 9.18012 5 9.00012C5 8.91346 5.02 8.82679 5.05333 8.74679C5.08667 8.66679 5.13333 8.59346 5.19333 8.5268C5.44 8.28013 5.88667 8.28013 6.14 8.5268C6.26 8.65346 6.33333 8.82679 6.33333 9.00012C6.33333 9.04012 6.32667 9.0868 6.32 9.13347C6.31334 9.17347 6.3 9.21346 6.28 9.25346C6.26667 9.29346 6.24667 9.33346 6.22 9.37346C6.19333 9.40679 6.16667 9.44012 6.14 9.47345C6.01333 9.59345 5.84 9.66679 5.66667 9.66679Z" fill="#005F73"/>
<path d="M7.99967 9.66753C7.91301 9.66753 7.82634 9.64753 7.74634 9.6142C7.65968 9.58087 7.59301 9.53419 7.52634 9.47419C7.40634 9.34752 7.33301 9.18086 7.33301 9.00086C7.33301 8.91419 7.35301 8.82752 7.38634 8.74752C7.41968 8.66752 7.46634 8.5942 7.52634 8.52753C7.59301 8.46753 7.65968 8.42085 7.74634 8.38752C7.99301 8.28752 8.28634 8.34086 8.47301 8.52753C8.59301 8.6542 8.66634 8.82753 8.66634 9.00086C8.66634 9.04086 8.65968 9.08753 8.65301 9.1342C8.64634 9.1742 8.63301 9.2142 8.61301 9.2542C8.59967 9.2942 8.57968 9.33419 8.55301 9.37419C8.53301 9.40752 8.49967 9.44085 8.47301 9.47419C8.34634 9.59419 8.17301 9.66753 7.99967 9.66753Z" fill="#005F73"/>
<path d="M5.66667 12.0005C5.58 12.0005 5.49334 11.9805 5.41334 11.9472C5.32667 11.9138 5.25333 11.8672 5.19333 11.8072C5.13333 11.7472 5.08667 11.6738 5.05333 11.5872C5.02 11.5072 5 11.4205 5 11.3338C5 11.2472 5.02 11.1605 5.05333 11.0805C5.08667 10.9938 5.13333 10.9205 5.19333 10.8605C5.25333 10.8005 5.32667 10.7538 5.41334 10.7205C5.57334 10.6538 5.76 10.6472 5.92 10.7205C6.00666 10.7538 6.08 10.8005 6.14 10.8605C6.2 10.9205 6.24667 10.9938 6.28 11.0805C6.31333 11.1605 6.33333 11.2472 6.33333 11.3338C6.33333 11.4205 6.31333 11.5072 6.28 11.5872C6.24667 11.6738 6.2 11.7472 6.14 11.8072C6.08 11.8672 6.00666 11.9138 5.92 11.9472C5.84 11.9805 5.75333 12.0005 5.66667 12.0005Z" fill="#005F73"/>
<path d="M13.6663 6.56055H2.33301C2.05967 6.56055 1.83301 6.33388 1.83301 6.06055C1.83301 5.78721 2.05967 5.56055 2.33301 5.56055H13.6663C13.9397 5.56055 14.1663 5.78721 14.1663 6.06055C14.1663 6.33388 13.9397 6.56055 13.6663 6.56055Z" fill="#005F73"/>
<path d="M11.9997 15.8333C11.2197 15.8333 10.4797 15.5533 9.91301 15.04C9.67301 14.84 9.45967 14.5867 9.28634 14.2933C8.99301 13.8133 8.83301 13.2467 8.83301 12.6667C8.83301 10.92 10.253 9.5 11.9997 9.5C12.9063 9.5 13.773 9.89332 14.373 10.5733C14.8863 11.16 15.1663 11.9 15.1663 12.6667C15.1663 13.2467 15.0063 13.8133 14.7063 14.3C14.1463 15.2467 13.1063 15.8333 11.9997 15.8333ZM11.9997 10.5C10.8063 10.5 9.83301 11.4733 9.83301 12.6667C9.83301 13.06 9.93968 13.4467 10.1463 13.78C10.2597 13.98 10.4063 14.1467 10.5663 14.2867C10.9663 14.6467 11.4663 14.8333 11.9997 14.8333C12.7663 14.8333 13.4597 14.44 13.853 13.7867C14.0597 13.4467 14.1663 13.0667 14.1663 12.6667C14.1663 12.1467 13.973 11.64 13.6263 11.2333C13.213 10.7667 12.6197 10.5 11.9997 10.5Z" fill="#005F73"/>
<path d="M11.6202 13.8257C11.4936 13.8257 11.3669 13.779 11.2669 13.679L10.6069 13.0191C10.4136 12.8257 10.4136 12.5057 10.6069 12.3124C10.8002 12.1191 11.1202 12.1191 11.3136 12.3124L11.6336 12.6324L12.7002 11.6457C12.9002 11.4591 13.2202 11.4724 13.4069 11.6724C13.5936 11.8724 13.5802 12.1924 13.3802 12.3791L11.9602 13.6924C11.8602 13.7791 11.7402 13.8257 11.6202 13.8257Z" fill="#005F73"/>
<path d="M10.2467 15.1673H5.33333C2.9 15.1673 1.5 13.7673 1.5 11.334V5.66732C1.5 3.23398 2.9 1.83398 5.33333 1.83398H10.6667C13.1 1.83398 14.5 3.23398 14.5 5.66732V10.9073C14.5 11.114 14.3733 11.3006 14.1733 11.374C13.98 11.4473 13.76 11.394 13.62 11.234C13.2067 10.7673 12.6133 10.5007 11.9933 10.5007C10.8 10.5007 9.82667 11.474 9.82667 12.6673C9.82667 13.0607 9.93333 13.4473 10.14 13.7807C10.2533 13.9807 10.4 14.1473 10.56 14.2873C10.72 14.4206 10.78 14.6407 10.7067 14.8407C10.6467 15.034 10.46 15.1673 10.2467 15.1673ZM5.33333 2.83398C3.42667 2.83398 2.5 3.76065 2.5 5.66732V11.334C2.5 13.2407 3.42667 14.1673 5.33333 14.1673H9.21333C8.96667 13.714 8.83333 13.2007 8.83333 12.6673C8.83333 10.9207 10.2533 9.50065 12 9.50065C12.5267 9.50065 13.0467 9.63399 13.5 9.88066V5.66732C13.5 3.76065 12.5733 2.83398 10.6667 2.83398H5.33333Z" fill="#005F73"/>
</svg>
