<svg width="17" height="17" viewBox="0 0 17 17" fill="none" xmlns="http://www.w3.org/2000/svg">
<path d="M6.14062 4.45697C5.86729 4.45697 5.64062 4.2303 5.64062 3.95697V1.95697C5.64062 1.68364 5.86729 1.45697 6.14062 1.45697C6.41396 1.45697 6.64062 1.68364 6.64062 1.95697V3.95697C6.64062 4.2303 6.41396 4.45697 6.14062 4.45697Z" fill="#005F73"/>
<path d="M11.4766 4.45697C11.2032 4.45697 10.9766 4.2303 10.9766 3.95697V1.95697C10.9766 1.68364 11.2032 1.45697 11.4766 1.45697C11.7499 1.45697 11.9766 1.68364 11.9766 1.95697V3.95697C11.9766 4.2303 11.7499 4.45697 11.4766 4.45697Z" fill="#005F73"/>
<path d="M14.474 7.18362H3.14062C2.86729 7.18362 2.64062 6.95696 2.64062 6.68362C2.64062 6.41029 2.86729 6.18362 3.14062 6.18362H14.474C14.7473 6.18362 14.974 6.41029 14.974 6.68362C14.974 6.95696 14.7473 7.18362 14.474 7.18362Z" fill="#005F73"/>
<path d="M11.4753 15.7903H6.14193C3.70859 15.7903 2.30859 14.3903 2.30859 11.957V6.2903C2.30859 3.85697 3.70859 2.45697 6.14193 2.45697H11.4753C13.9086 2.45697 15.3086 3.85697 15.3086 6.2903V11.957C15.3086 14.3903 13.9086 15.7903 11.4753 15.7903ZM6.14193 3.45697C4.23526 3.45697 3.30859 4.38364 3.30859 6.2903V11.957C3.30859 13.8636 4.23526 14.7903 6.14193 14.7903H11.4753C13.3819 14.7903 14.3086 13.8636 14.3086 11.957V6.2903C14.3086 4.38364 13.3819 3.45697 11.4753 3.45697H6.14193Z" fill="#005F73"/>
<path d="M6.47526 10.2903C6.38859 10.2903 6.30192 10.2703 6.22192 10.237C6.14192 10.2037 6.0686 10.157 6.00193 10.097C5.94193 10.0303 5.89525 9.95698 5.86192 9.87698C5.82858 9.79698 5.80859 9.71031 5.80859 9.62364C5.80859 9.45031 5.88193 9.27698 6.00193 9.15032C6.0686 9.09032 6.14192 9.04364 6.22192 9.0103C6.34192 8.95697 6.47527 8.94364 6.6086 8.9703C6.6486 8.97697 6.6886 8.9903 6.7286 9.0103C6.7686 9.02364 6.80859 9.04365 6.84859 9.07032C6.88193 9.09699 6.91525 9.12365 6.94859 9.15032C6.97525 9.18365 7.00858 9.21698 7.02858 9.25031C7.05525 9.29031 7.07527 9.33031 7.0886 9.37031C7.1086 9.41031 7.12193 9.4503 7.1286 9.4903C7.13527 9.53697 7.14193 9.57698 7.14193 9.62364C7.14193 9.79698 7.06859 9.97031 6.94859 10.097C6.82192 10.217 6.64859 10.2903 6.47526 10.2903Z" fill="#005F73"/>
<path d="M8.80729 10.2903C8.63396 10.2903 8.46063 10.217 8.33396 10.097C8.3073 10.0636 8.28063 10.0303 8.25397 9.99697C8.2273 9.95697 8.20728 9.91697 8.19395 9.87697C8.17395 9.83697 8.16062 9.79698 8.15395 9.75698C8.14728 9.71031 8.14062 9.6703 8.14062 9.62363C8.14062 9.53697 8.16062 9.4503 8.19395 9.3703C8.22728 9.2903 8.27396 9.21697 8.33396 9.15031C8.52063 8.96364 8.82063 8.90362 9.06063 9.01029C9.14729 9.04362 9.21395 9.09031 9.28062 9.15031C9.40062 9.27697 9.47396 9.4503 9.47396 9.62363C9.47396 9.6703 9.4673 9.71031 9.46063 9.75698C9.45397 9.79698 9.44063 9.83697 9.42063 9.87697C9.4073 9.91697 9.38728 9.95697 9.36062 9.99697C9.33395 10.0303 9.30729 10.0636 9.28062 10.097C9.21395 10.157 9.14729 10.2036 9.06063 10.237C8.98063 10.2703 8.89396 10.2903 8.80729 10.2903Z" fill="#005F73"/>
<path d="M6.47526 12.6236C6.38859 12.6236 6.30192 12.6037 6.22192 12.5703C6.14192 12.537 6.0686 12.4903 6.00193 12.4303C5.94193 12.3636 5.89525 12.297 5.86192 12.2103C5.82858 12.1303 5.80859 12.0436 5.80859 11.957C5.80859 11.7836 5.88193 11.6103 6.00193 11.4836C6.0686 11.4236 6.14192 11.377 6.22192 11.3436C6.46859 11.237 6.76192 11.297 6.94859 11.4836C6.97525 11.517 7.00858 11.5503 7.02858 11.5836C7.05525 11.6236 7.07527 11.6636 7.0886 11.7036C7.1086 11.7436 7.12193 11.7836 7.1286 11.8303C7.13527 11.8703 7.14193 11.917 7.14193 11.957C7.14193 12.1303 7.06859 12.3036 6.94859 12.4303C6.82192 12.5503 6.64859 12.6236 6.47526 12.6236Z" fill="#005F73"/>
</svg>
