<svg width="6" height="6" viewBox="0 0 6 6" fill="none" xmlns="http://www.w3.org/2000/svg">
<path d="M0.948526 1.02689L0.984835 0.984835C1.11797 0.851702 1.3263 0.839599 1.47311 0.948526L1.51517 0.984835L3 2.4695L4.48484 0.984835C4.63128 0.838388 4.86872 0.838388 5.01516 0.984835C5.16161 1.13128 5.16161 1.36872 5.01516 1.51517L3.5305 3L5.01516 4.48484C5.1483 4.61797 5.1604 4.8263 5.05147 4.97311L5.01516 5.01516C4.88203 5.1483 4.6737 5.1604 4.52689 5.05147L4.48484 5.01516L3 3.5305L1.51517 5.01516C1.36872 5.16161 1.13128 5.16161 0.984835 5.01516C0.838388 4.86872 0.838388 4.63128 0.984835 4.48484L2.4695 3L0.984835 1.51517C0.851702 1.38203 0.839599 1.1737 0.948526 1.02689L0.984835 0.984835L0.948526 1.02689Z" fill="#FC5474"/>
</svg>
