<svg width="16" height="16" viewBox="0 0 16 16" fill="none" xmlns="http://www.w3.org/2000/svg">
<path d="M11.4866 14.3466C11.3599 14.3466 11.2333 14.2999 11.1333 14.1999C10.9399 14.0066 10.9399 13.6866 11.1333 13.4933L13.4933 11.1333C13.6866 10.9399 14.0066 10.9399 14.1999 11.1333C14.3933 11.3266 14.3933 11.6466 14.1999 11.8399L11.8399 14.1999C11.7466 14.2933 11.6133 14.3466 11.4866 14.3466Z" fill="white"/>
<mask id="path-2-inside-1_698_33486" fill="white">
<path d="M13.8466 14.3466C13.7199 14.3466 13.5933 14.2999 13.4933 14.1999L11.1333 11.8399C10.9399 11.6466 10.9399 11.3266 11.1333 11.1333C11.3266 10.9399 11.6466 10.9399 11.8399 11.1333L14.1999 13.4933C14.3933 13.6866 14.3933 14.0066 14.1999 14.1999C14.0999 14.2933 13.9733 14.3466 13.8466 14.3466Z"/>
</mask>
<path d="M13.8466 14.3466C13.7199 14.3466 13.5933 14.2999 13.4933 14.1999L11.1333 11.8399C10.9399 11.6466 10.9399 11.3266 11.1333 11.1333C11.3266 10.9399 11.6466 10.9399 11.8399 11.1333L14.1999 13.4933C14.3933 13.6866 14.3933 14.0066 14.1999 14.1999C14.0999 14.2933 13.9733 14.3466 13.8466 14.3466Z" fill="white"/>
<path d="M13.4933 14.1999L12.7862 14.9071L13.4933 14.1999ZM11.1333 11.8399L11.8404 11.1328V11.1328L11.1333 11.8399ZM11.8399 11.1333L11.1328 11.8404L11.1328 11.8404L11.8399 11.1333ZM14.1999 13.4933L14.9071 12.7862H14.9071L14.1999 13.4933ZM14.1999 14.1999L14.8823 14.931L14.8949 14.9192L14.9071 14.9071L14.1999 14.1999ZM13.8466 13.3466C13.9709 13.3466 14.103 13.3954 14.2004 13.4928L12.7862 14.9071C13.0836 15.2045 13.469 15.3466 13.8466 15.3466V13.3466ZM14.2004 13.4928L11.8404 11.1328L10.4262 12.5471L12.7862 14.9071L14.2004 13.4928ZM11.8404 11.1328C12.0376 11.33 12.0376 11.6432 11.8404 11.8404L10.4262 10.4262C9.84232 11.01 9.84232 11.9632 10.4262 12.5471L11.8404 11.1328ZM11.8404 11.8404C11.6432 12.0376 11.33 12.0376 11.1328 11.8404L12.5471 10.4262C11.9632 9.84232 11.01 9.84232 10.4262 10.4262L11.8404 11.8404ZM11.1328 11.8404L13.4928 14.2004L14.9071 12.7862L12.5471 10.4262L11.1328 11.8404ZM13.4928 14.2004C13.2956 14.0032 13.2956 13.69 13.4928 13.4928L14.9071 14.9071C15.4909 14.3232 15.4909 13.37 14.9071 12.7862L13.4928 14.2004ZM13.5176 13.4689C13.5821 13.4088 13.693 13.3466 13.8466 13.3466V15.3466C14.2536 15.3466 14.6178 15.1778 14.8823 14.931L13.5176 13.4689Z" fill="white" mask="url(#path-2-inside-1_698_33486)"/>
<mask id="path-4-inside-2_698_33486" fill="white">
<path d="M4.66797 9.5C4.39464 9.5 4.16797 9.27333 4.16797 9V7C4.16797 6.72667 4.39464 6.5 4.66797 6.5C4.9413 6.5 5.16797 6.72667 5.16797 7V9C5.16797 9.27333 4.9413 9.5 4.66797 9.5Z"/>
</mask>
<path d="M4.66797 9.5C4.39464 9.5 4.16797 9.27333 4.16797 9V7C4.16797 6.72667 4.39464 6.5 4.66797 6.5C4.9413 6.5 5.16797 6.72667 5.16797 7V9C5.16797 9.27333 4.9413 9.5 4.66797 9.5Z" fill="white"/>
<path d="M4.66797 8.5C4.94692 8.5 5.16797 8.72105 5.16797 9H3.16797C3.16797 9.82562 3.84235 10.5 4.66797 10.5V8.5ZM5.16797 9V7H3.16797V9H5.16797ZM5.16797 7C5.16797 7.27895 4.94692 7.5 4.66797 7.5V5.5C3.84235 5.5 3.16797 6.17438 3.16797 7H5.16797ZM4.66797 7.5C4.38902 7.5 4.16797 7.27895 4.16797 7H6.16797C6.16797 6.17438 5.49359 5.5 4.66797 5.5V7.5ZM4.16797 7V9H6.16797V7H4.16797ZM4.16797 9C4.16797 8.72105 4.38902 8.5 4.66797 8.5V10.5C5.49359 10.5 6.16797 9.82562 6.16797 9H4.16797Z" fill="white" mask="url(#path-4-inside-2_698_33486)"/>
<mask id="path-6-inside-3_698_33486" fill="white">
<path d="M8 9.5C7.72667 9.5 7.5 9.27333 7.5 9V7C7.5 6.72667 7.72667 6.5 8 6.5C8.27333 6.5 8.5 6.72667 8.5 7V9C8.5 9.27333 8.27333 9.5 8 9.5Z"/>
</mask>
<path d="M8 9.5C7.72667 9.5 7.5 9.27333 7.5 9V7C7.5 6.72667 7.72667 6.5 8 6.5C8.27333 6.5 8.5 6.72667 8.5 7V9C8.5 9.27333 8.27333 9.5 8 9.5Z" fill="white"/>
<path d="M8 8.5C8.27895 8.5 8.5 8.72105 8.5 9H6.5C6.5 9.82562 7.17438 10.5 8 10.5V8.5ZM8.5 9V7H6.5V9H8.5ZM8.5 7C8.5 7.27895 8.27895 7.5 8 7.5V5.5C7.17438 5.5 6.5 6.17438 6.5 7H8.5ZM8 7.5C7.72105 7.5 7.5 7.27895 7.5 7H9.5C9.5 6.17438 8.82562 5.5 8 5.5V7.5ZM7.5 7V9H9.5V7H7.5ZM7.5 9C7.5 8.72105 7.72105 8.5 8 8.5V10.5C8.82562 10.5 9.5 9.82562 9.5 9H7.5Z" fill="white" mask="url(#path-6-inside-3_698_33486)"/>
<path d="M11.332 9.5C11.0587 9.5 10.832 9.27333 10.832 9V7C10.832 6.72667 11.0587 6.5 11.332 6.5C11.6054 6.5 11.832 6.72667 11.832 7V9C11.832 9.27333 11.6054 9.5 11.332 9.5Z" fill="white"/>
<path d="M8.66536 15.1668H5.9987C2.3787 15.1668 0.832031 13.6202 0.832031 10.0002V6.00016C0.832031 2.38016 2.3787 0.833496 5.9987 0.833496H9.9987C13.6187 0.833496 15.1654 2.38016 15.1654 6.00016V8.66683C15.1654 8.94016 14.9387 9.16683 14.6654 9.16683C14.392 9.16683 14.1654 8.94016 14.1654 8.66683V6.00016C14.1654 2.92683 13.072 1.8335 9.9987 1.8335H5.9987C2.92536 1.8335 1.83203 2.92683 1.83203 6.00016V10.0002C1.83203 13.0735 2.92536 14.1668 5.9987 14.1668H8.66536C8.9387 14.1668 9.16537 14.3935 9.16537 14.6668C9.16537 14.9402 8.9387 15.1668 8.66536 15.1668Z" fill="white"/>
</svg>
