<svg width="20" height="20" viewBox="0 0 20 20" fill="none" xmlns="http://www.w3.org/2000/svg">
<path d="M9.99996 18.9583C5.05829 18.9583 1.04163 14.9416 1.04163 9.99996C1.04163 5.05829 5.05829 1.04163 9.99996 1.04163C14.9416 1.04163 18.9583 5.05829 18.9583 9.99996C18.9583 14.9416 14.9416 18.9583 9.99996 18.9583ZM9.99996 2.29163C5.74996 2.29163 2.29163 5.74996 2.29163 9.99996C2.29163 14.25 5.74996 17.7083 9.99996 17.7083C14.25 17.7083 17.7083 14.25 17.7083 9.99996C17.7083 5.74996 14.25 2.29163 9.99996 2.29163Z" fill="#FC5474"/>
<path d="M7.64172 12.9834C7.48338 12.9834 7.32505 12.925 7.20005 12.8C6.95838 12.5584 6.95838 12.1584 7.20005 11.9167L11.9167 7.20005C12.1584 6.95838 12.5584 6.95838 12.8 7.20005C13.0417 7.44172 13.0417 7.84172 12.8 8.08338L8.08338 12.8C7.96671 12.925 7.80005 12.9834 7.64172 12.9834Z" fill="#FC5474"/>
<path d="M12.3584 12.9834C12.2 12.9834 12.0417 12.925 11.9167 12.8L7.20005 8.08338C6.95838 7.84172 6.95838 7.44172 7.20005 7.20005C7.44172 6.95838 7.84172 6.95838 8.08338 7.20005L12.8 11.9167C13.0417 12.1584 13.0417 12.5584 12.8 12.8C12.675 12.925 12.5167 12.9834 12.3584 12.9834Z" fill="#FC5474"/>
</svg>
