<svg width="18" height="17" viewBox="0 0 18 17" fill="none" xmlns="http://www.w3.org/2000/svg">
<g clip-path="url(#clip0_6470_122924)">
<path d="M14.9613 5.7707C16.2785 5.7707 17.3464 4.70099 17.3464 3.38144C17.3464 2.0619 16.2785 0.992188 14.9613 0.992188C13.6441 0.992188 12.5762 2.0619 12.5762 3.38144C12.5762 4.70099 13.6441 5.7707 14.9613 5.7707Z" fill="#E5E5E5"/>
<path d="M10.55 5.81643C10.3738 5.81643 10.2309 5.95928 10.2309 6.13542V8.86378C10.2309 9.11421 10.0272 9.31796 9.77688 9.31796H9.43198V6.1354C9.43198 5.95925 9.28907 5.81641 9.11295 5.81641C8.93683 5.81641 8.79392 5.95925 8.79392 6.1354V9.31796H7.99484V6.1354C7.99484 5.95925 7.85207 5.81641 7.67595 5.81641C7.49969 5.81641 7.35691 5.95925 7.35691 6.1354V9.31796H7.01202C6.76159 9.31796 6.55784 9.11421 6.55784 8.86378V6.13542C6.55784 5.95928 6.41506 5.81643 6.23894 5.81643C6.06276 5.81643 5.91992 5.95928 5.91992 6.13542V8.86378C5.91992 9.46604 6.40989 9.95589 7.01202 9.95589H8.07542V11.1719H7.50554C7.32928 11.1719 7.18651 11.3148 7.18651 11.4909V15.023C7.18651 15.6891 7.72835 16.2309 8.39445 16.2309C9.06055 16.2309 9.60239 15.6891 9.60239 15.023V11.4909C9.60239 11.3148 9.45948 11.1719 9.28336 11.1719H8.71348V9.95589H9.77688C10.379 9.95589 10.869 9.46604 10.869 8.86378V6.13542C10.8689 5.95925 10.7261 5.81643 10.55 5.81643ZM8.96432 15.023C8.96432 15.3374 8.70872 15.593 8.39445 15.593C8.08018 15.593 7.82444 15.3372 7.82444 15.023V11.8099H8.96432V15.023Z" fill="#383838"/>
<path d="M13.3064 7.5277C13.1927 7.8044 12.904 7.96718 12.6082 7.92132L5.5395 6.82702C4.38453 6.64818 3.70108 5.43605 4.14578 4.35526L4.56595 3.33414C5.01067 2.25335 6.34926 1.87328 7.29561 2.55907L13.0876 6.75652C13.3299 6.93224 13.4204 7.25086 13.3064 7.5277Z" fill="#FF5D17"/>
<path d="M15.7263 2.77821C15.5981 2.6574 15.3961 2.66343 15.2754 2.7917L14.7874 3.30977L14.6413 3.16354C14.5169 3.03897 14.3147 3.03897 14.1902 3.16351C14.0655 3.28805 14.0655 3.49003 14.1901 3.61462L14.5687 3.99329C14.6286 4.05317 14.7097 4.08676 14.7942 4.08676C14.7959 4.08676 14.7975 4.08676 14.799 4.08673C14.8853 4.08545 14.9674 4.04927 15.0264 3.98647L15.7398 3.22913C15.8606 3.10086 15.8546 2.89898 15.7263 2.77821Z" fill="#383838"/>
<path d="M4.32232 1.41166C3.83361 1.21054 3.28249 1.31101 2.89894 1.64978C2.89852 1.64959 2.89811 1.64944 2.89769 1.64924C2.56046 1.51055 2.18943 1.51118 1.85301 1.65122C1.51638 1.79129 1.25462 2.05404 1.11595 2.39101C0.977289 2.72803 0.97831 3.09891 1.11885 3.43533C1.25933 3.77158 1.52243 4.03317 1.85968 4.17197C1.86009 4.17212 1.86049 4.17231 1.86092 4.17248C1.89496 4.68312 2.21576 5.14227 2.70454 5.34342C2.87418 5.41322 3.04981 5.44626 3.2228 5.44626C3.75973 5.4462 4.26979 5.12769 4.48626 4.60162C4.58993 4.34965 4.61442 4.07225 4.56045 3.80838C4.78451 3.65884 4.96235 3.44458 5.06605 3.19257C5.35221 2.49708 5.01859 1.69818 4.32232 1.41166ZM4.47608 2.94982C4.39904 3.13707 4.25215 3.27988 4.06251 3.35191C3.98011 3.3832 3.91434 3.4472 3.88082 3.52872C3.84729 3.61026 3.84899 3.702 3.88548 3.78222C3.9695 3.96682 3.97332 4.17162 3.89628 4.35883C3.74399 4.72899 3.31828 4.90602 2.9473 4.75339C2.64008 4.62697 2.45733 4.30977 2.50285 3.98194C2.52623 3.81339 2.41321 3.65613 2.24596 3.62458C2.1971 3.61537 2.14877 3.60104 2.10242 3.58193C1.92264 3.50799 1.78241 3.36857 1.70751 3.18932C1.63271 3.01031 1.63216 2.81301 1.70592 2.63377C1.77967 2.45449 1.91894 2.31471 2.09808 2.24017C2.18813 2.20268 2.28284 2.18397 2.37759 2.18397C2.47146 2.18397 2.56543 2.20237 2.6549 2.23919C2.70136 2.25828 2.74573 2.28205 2.78672 2.3098C2.92774 2.40528 3.11882 2.37309 3.22086 2.23685C3.41923 1.97193 3.77236 1.87512 4.07955 2.0016C4.45053 2.1543 4.6284 2.57964 4.47608 2.94982Z" fill="#383838"/>
<path d="M7.60155 3.86103C7.44788 3.77497 7.25339 3.82977 7.16737 3.98346L6.72339 4.77618C6.63724 4.92987 6.69209 5.1243 6.84575 5.21036C6.89516 5.23798 6.94865 5.2511 7.00146 5.2511C7.11306 5.2511 7.22154 5.1923 7.27993 5.08793L7.72391 4.29521C7.81006 4.14152 7.75521 3.94709 7.60155 3.86103Z" fill="#383838"/>
<path d="M8.88116 4.88446C8.72764 4.79843 8.53314 4.8532 8.44698 5.00689L8.25943 5.34165C8.17341 5.49534 8.22826 5.68974 8.38193 5.77583C8.4312 5.80346 8.48482 5.81657 8.5375 5.81657C8.64924 5.81657 8.75758 5.75778 8.8161 5.6534L9.00366 5.31865C9.08981 5.16496 9.03496 4.97059 8.88116 4.88446Z" fill="#383838"/>
</g>
<defs>
<clipPath id="clip0_6470_122924">
<rect width="17.2174" height="15.6522" fill="white" transform="translate(0.401367 0.785156)"/>
</clipPath>
</defs>
</svg>
