<svg width="16" height="17" viewBox="0 0 16 17" fill="none" xmlns="http://www.w3.org/2000/svg">
<path d="M7.9987 15.269C4.04536 15.269 0.832031 12.0556 0.832031 8.10231C0.832031 6.52897 1.33203 5.03564 2.2787 3.78231C2.44536 3.56231 2.7587 3.52231 2.9787 3.68897C3.1987 3.85564 3.24536 4.16897 3.0787 4.38897C2.26536 5.46231 1.83203 6.74897 1.83203 8.10231C1.83203 11.5023 4.5987 14.269 7.9987 14.269C11.3987 14.269 14.1654 11.5023 14.1654 8.10231C14.1654 4.70231 11.3987 1.93564 7.9987 1.93564C7.72536 1.93564 7.4987 1.70897 7.4987 1.43564C7.4987 1.16231 7.72536 0.935638 7.9987 0.935638C11.952 0.935638 15.1654 4.14897 15.1654 8.10231C15.1654 12.0556 11.952 15.269 7.9987 15.269Z" fill="white"/>
<path d="M7.9987 13.269C5.15203 13.269 2.83203 10.949 2.83203 8.10231C2.83203 7.82897 3.0587 7.60231 3.33203 7.60231C3.60536 7.60231 3.83203 7.82897 3.83203 8.10231C3.83203 10.4023 5.6987 12.269 7.9987 12.269C10.2987 12.269 12.1654 10.4023 12.1654 8.10231C12.1654 5.80231 10.2987 3.93564 7.9987 3.93564C7.72536 3.93564 7.4987 3.70897 7.4987 3.43564C7.4987 3.16231 7.72536 2.93564 7.9987 2.93564C10.8454 2.93564 13.1654 5.25564 13.1654 8.10231C13.1654 10.949 10.8454 13.269 7.9987 13.269Z" fill="white"/>
<path d="M8 11.269C7.72667 11.269 7.5 11.0423 7.5 10.769C7.5 10.4956 7.72667 10.269 8 10.269C9.19333 10.269 10.1667 9.29564 10.1667 8.10231C10.1667 6.90897 9.19333 5.93564 8 5.93564C7.72667 5.93564 7.5 5.70897 7.5 5.43564C7.5 5.16231 7.72667 4.93564 8 4.93564C9.74667 4.93564 11.1667 6.35564 11.1667 8.10231C11.1667 9.84897 9.74667 11.269 8 11.269Z" fill="white"/>
</svg>
