<svg width="32" height="32" viewBox="0 0 32 32" fill="none" xmlns="http://www.w3.org/2000/svg">
<g filter="url(#filter0_d_10810_230007)">
<circle cx="16" cy="16" r="12" fill="white"/>
<path d="M12.8001 16.001C12.8001 15.5343 12.9801 15.0677 13.3334 14.7143L17.6801 10.3677C17.8734 10.1743 18.1934 10.1743 18.3867 10.3677C18.5801 10.561 18.5801 10.881 18.3867 11.0743L14.0401 15.421C13.7201 15.741 13.7201 16.261 14.0401 16.581L18.3867 20.9277C18.5801 21.121 18.5801 21.441 18.3867 21.6343C18.1934 21.8277 17.8734 21.8277 17.6801 21.6343L13.3334 17.2877C12.9801 16.9343 12.8001 16.4677 12.8001 16.001Z" fill="#005F73"/>
</g>
<defs>
<filter id="filter0_d_10810_230007" x="0" y="0" width="32" height="32" filterUnits="userSpaceOnUse" color-interpolation-filters="sRGB">
<feFlood flood-opacity="0" result="BackgroundImageFix"/>
<feColorMatrix in="SourceAlpha" type="matrix" values="0 0 0 0 0 0 0 0 0 0 0 0 0 0 0 0 0 0 127 0" result="hardAlpha"/>
<feOffset/>
<feGaussianBlur stdDeviation="2"/>
<feColorMatrix type="matrix" values="0 0 0 0 0 0 0 0 0 0 0 0 0 0 0 0 0 0 0.15 0"/>
<feBlend mode="normal" in2="BackgroundImageFix" result="effect1_dropShadow_10810_230007"/>
<feBlend mode="normal" in="SourceGraphic" in2="effect1_dropShadow_10810_230007" result="shape"/>
</filter>
</defs>
</svg>
