<svg width="32" height="32" viewBox="0 0 32 32" fill="none" xmlns="http://www.w3.org/2000/svg">
<g filter="url(#filter0_d_10810_230010)">
<circle cx="16" cy="16" r="12" transform="rotate(180 16 16)" fill="white"/>
<path d="M19.1999 15.999C19.1999 16.4657 19.0199 16.9323 18.6666 17.2857L14.3199 21.6323C14.1266 21.8257 13.8066 21.8257 13.6133 21.6323C13.4199 21.439 13.4199 21.119 13.6133 20.9257L17.9599 16.579C18.2799 16.259 18.2799 15.739 17.9599 15.419L13.6133 11.0723C13.4199 10.879 13.4199 10.559 13.6133 10.3657C13.8066 10.1723 14.1266 10.1723 14.3199 10.3657L18.6666 14.7123C19.0199 15.0657 19.1999 15.5323 19.1999 15.999Z" fill="#005F73"/>
</g>
<defs>
<filter id="filter0_d_10810_230010" x="0" y="0" width="32" height="32" filterUnits="userSpaceOnUse" color-interpolation-filters="sRGB">
<feFlood flood-opacity="0" result="BackgroundImageFix"/>
<feColorMatrix in="SourceAlpha" type="matrix" values="0 0 0 0 0 0 0 0 0 0 0 0 0 0 0 0 0 0 127 0" result="hardAlpha"/>
<feOffset/>
<feGaussianBlur stdDeviation="2"/>
<feColorMatrix type="matrix" values="0 0 0 0 0 0 0 0 0 0 0 0 0 0 0 0 0 0 0.15 0"/>
<feBlend mode="normal" in2="BackgroundImageFix" result="effect1_dropShadow_10810_230010"/>
<feBlend mode="normal" in="SourceGraphic" in2="effect1_dropShadow_10810_230010" result="shape"/>
</filter>
</defs>
</svg>
