<svg width="17" height="16" viewBox="0 0 17 16" fill="none" xmlns="http://www.w3.org/2000/svg">
<path d="M9.64387 12.6666C9.46827 12.6666 9.29662 12.6119 9.15063 12.5095C9.00463 12.407 8.89084 12.2615 8.82365 12.0912C8.75645 11.9209 8.73887 11.7335 8.77312 11.5527C8.80737 11.3719 8.89191 11.2058 9.01606 11.0754L11.9402 8.00571L9.01606 4.93601C8.93125 4.85002 8.8636 4.74716 8.81706 4.63343C8.77052 4.5197 8.74602 4.39738 8.745 4.2736C8.74397 4.14983 8.76644 4.02708 8.81109 3.91251C8.85574 3.79795 8.92168 3.69387 9.00505 3.60634C9.08843 3.51882 9.18757 3.4496 9.29671 3.40273C9.40584 3.35586 9.52277 3.33227 9.64068 3.33335C9.75858 3.33442 9.87511 3.36014 9.98344 3.40899C10.0918 3.45785 10.1898 3.52887 10.2717 3.6179L13.8237 7.34665C13.9901 7.52146 14.0837 7.75852 14.0837 8.00571C14.0837 8.25289 13.9901 8.48995 13.8237 8.66476L10.2717 12.3935C10.1052 12.5683 9.87936 12.6666 9.64387 12.6666Z" fill="#888888"/>
<path d="M4.3159 12.6666C4.1403 12.6666 3.96865 12.6119 3.82265 12.5095C3.67666 12.407 3.56287 12.2615 3.49568 12.0912C3.42848 11.9209 3.4109 11.7335 3.44515 11.5527C3.47939 11.3719 3.56394 11.2058 3.68809 11.0754L6.61226 8.00571L3.68809 4.93601C3.60327 4.85002 3.53562 4.74716 3.48909 4.63343C3.44255 4.5197 3.41805 4.39738 3.41703 4.2736C3.416 4.14983 3.43847 4.02708 3.48312 3.91251C3.52777 3.79795 3.5937 3.69387 3.67708 3.60634C3.76046 3.51882 3.8596 3.4496 3.96873 3.40273C4.07787 3.35586 4.1948 3.33227 4.3127 3.33335C4.43061 3.33442 4.54713 3.36014 4.65547 3.40899C4.76381 3.45785 4.8618 3.52887 4.94371 3.6179L8.49569 7.34665C8.66217 7.52146 8.75569 7.75852 8.75569 8.00571C8.75569 8.25289 8.66217 8.48995 8.49569 8.66476L4.94371 12.3935C4.77722 12.5683 4.55139 12.6666 4.3159 12.6666Z" fill="#888888"/>
</svg>
