<svg width="21" height="20" viewBox="0 0 21 20" fill="none" xmlns="http://www.w3.org/2000/svg">
<path d="M10.5001 18.9583C5.55841 18.9583 1.54175 14.9416 1.54175 9.99996C1.54175 5.05829 5.55841 1.04163 10.5001 1.04163C15.4417 1.04163 19.4584 5.05829 19.4584 9.99996C19.4584 14.9416 15.4417 18.9583 10.5001 18.9583ZM10.5001 2.29163C6.25008 2.29163 2.79175 5.74996 2.79175 9.99996C2.79175 14.25 6.25008 17.7083 10.5001 17.7083C14.7501 17.7083 18.2084 14.25 18.2084 9.99996C18.2084 5.74996 14.7501 2.29163 10.5001 2.29163Z" fill="#FC5474"/>
<path d="M8.14172 12.9834C7.98338 12.9834 7.82505 12.925 7.70005 12.8C7.45838 12.5584 7.45838 12.1584 7.70005 11.9167L12.4167 7.20005C12.6584 6.95838 13.0584 6.95838 13.3 7.20005C13.5417 7.44172 13.5417 7.84172 13.3 8.08338L8.58338 12.8C8.46671 12.925 8.30005 12.9834 8.14172 12.9834Z" fill="#FC5474"/>
<path d="M12.8584 12.9834C12.7 12.9834 12.5417 12.925 12.4167 12.8L7.70005 8.08338C7.45838 7.84172 7.45838 7.44172 7.70005 7.20005C7.94172 6.95838 8.34172 6.95838 8.58338 7.20005L13.3 11.9167C13.5417 12.1584 13.5417 12.5584 13.3 12.8C13.175 12.925 13.0167 12.9834 12.8584 12.9834Z" fill="#FC5474"/>
</svg>
