<svg width="24" height="24" viewBox="0 0 24 24" fill="none" xmlns="http://www.w3.org/2000/svg">
<path d="M9.16986 15.5794C8.97986 15.5794 8.78986 15.5094 8.63986 15.3594C8.34986 15.0694 8.34986 14.5894 8.63986 14.2994L14.2999 8.63938C14.5899 8.34938 15.0699 8.34938 15.3599 8.63938C15.6499 8.92937 15.6499 9.40937 15.3599 9.69937L9.69986 15.3594C9.55986 15.5094 9.35986 15.5794 9.16986 15.5794Z" fill="#005F73"/>
<path d="M14.8299 15.5794C14.6399 15.5794 14.4499 15.5094 14.2999 15.3594L8.63986 9.69937C8.34986 9.40937 8.34986 8.92937 8.63986 8.63938C8.92986 8.34938 9.40986 8.34938 9.69986 8.63938L15.3599 14.2994C15.6499 14.5894 15.6499 15.0694 15.3599 15.3594C15.2099 15.5094 15.0199 15.5794 14.8299 15.5794Z" fill="#005F73"/>
<path d="M15 22.75L9 22.75C3.57 22.75 1.25 20.43 1.25 15L1.25 9C1.25 3.57 3.57 1.25 9 1.25L15 1.25C20.43 1.25 22.75 3.57 22.75 9L22.75 15C22.75 20.43 20.43 22.75 15 22.75ZM9 2.75C4.39 2.75 2.75 4.39 2.75 9L2.75 15C2.75 19.61 4.39 21.25 9 21.25L15 21.25C19.61 21.25 21.25 19.61 21.25 15L21.25 9C21.25 4.39 19.61 2.75 15 2.75L9 2.75Z" fill="#005F73"/>
</svg>
