<svg width="17" height="18" viewBox="0 0 17 18" fill="none" xmlns="http://www.w3.org/2000/svg">
<path d="M3.24754 3.71116L3.30806 3.64107C3.52995 3.41918 3.87717 3.39901 4.12184 3.58055L4.19194 3.64107L8.33333 7.78217L12.4747 3.64107C12.6966 3.41918 13.0438 3.39901 13.2885 3.58055L13.3586 3.64107C13.5805 3.86295 13.6007 4.21017 13.4191 4.45485L13.3586 4.52495L9.2175 8.66634L13.3586 12.8077C13.5805 13.0296 13.6007 13.3768 13.4191 13.6215L13.3586 13.6916C13.1367 13.9135 12.7895 13.9337 12.5448 13.7521L12.4747 13.6916L8.33333 9.55051L4.19194 13.6916C3.97005 13.9135 3.62283 13.9337 3.37816 13.7521L3.30806 13.6916C3.08617 13.4697 3.066 13.1225 3.24754 12.8778L3.30806 12.8077L7.44917 8.66634L3.30806 4.52495C3.08617 4.30306 3.066 3.95584 3.24754 3.71116L3.30806 3.64107L3.24754 3.71116Z" fill="#FC5474"/>
</svg>
