<svg width="17" height="17" viewBox="0 0 17 17" fill="none" xmlns="http://www.w3.org/2000/svg">
<path d="M5.70605 2.16638H11.293C12.4401 2.16638 13.3158 2.50783 13.9033 3.09607C14.4904 3.68418 14.8293 4.55904 14.8262 5.70544V11.2933C14.8262 12.4404 14.4859 13.3162 13.8975 13.9047C13.309 14.493 12.4331 14.8334 11.2861 14.8334H5.70605C4.55923 14.8333 3.68403 14.4927 3.0957 13.9037C2.50728 13.3145 2.16602 12.4371 2.16602 11.2865V5.70642C2.16607 4.55952 2.50734 3.68444 3.0957 3.09607C3.68407 2.5077 4.55915 2.16644 5.70605 2.16638ZM10.9756 6.02478C10.6521 5.70127 10.1204 5.70127 9.79688 6.02478L8.49902 7.32166L7.20215 6.02478C6.87864 5.70127 6.34792 5.70127 6.02441 6.02478C5.70091 6.34829 5.70091 6.87901 6.02441 7.20251L7.32129 8.49939L6.02441 9.79724C5.7009 10.1207 5.70091 10.6524 6.02441 10.976C6.19017 11.1415 6.40312 11.2201 6.61328 11.2201C6.82347 11.22 7.03642 11.1417 7.20215 10.976L8.49902 9.6781L9.79688 10.976C9.96268 11.1418 10.1764 11.2201 10.3867 11.2201C10.5969 11.22 10.8099 11.1417 10.9756 10.976C11.2991 10.6524 11.2991 10.1207 10.9756 9.79724L9.67773 8.49939L10.9756 7.20251C11.2989 6.87911 11.2988 6.3483 10.9756 6.02478Z" fill="#FC5474" stroke="#FC5474" stroke-width="0.666667"/>
</svg>
