<svg width="16" height="16" viewBox="0 0 16 16" fill="none" xmlns="http://www.w3.org/2000/svg">
<path d="M10.7935 1.33398H5.20683C2.78016 1.33398 1.3335 2.78065 1.3335 5.20732V10.7873C1.3335 13.2207 2.78016 14.6673 5.20683 14.6673H10.7868C13.2135 14.6673 14.6602 13.2207 14.6602 10.794V5.20732C14.6668 2.78065 13.2202 1.33398 10.7935 1.33398ZM10.2402 9.53398C10.4335 9.72732 10.4335 10.0473 10.2402 10.2407C10.1402 10.3407 10.0135 10.3873 9.88683 10.3873C9.76016 10.3873 9.6335 10.3407 9.5335 10.2407L8.00016 8.70732L6.46683 10.2407C6.36683 10.3407 6.24016 10.3873 6.1135 10.3873C5.98683 10.3873 5.86016 10.3407 5.76016 10.2407C5.56683 10.0473 5.56683 9.72732 5.76016 9.53398L7.2935 8.00065L5.76016 6.46732C5.56683 6.27398 5.56683 5.95398 5.76016 5.76065C5.9535 5.56732 6.2735 5.56732 6.46683 5.76065L8.00016 7.29398L9.5335 5.76065C9.72683 5.56732 10.0468 5.56732 10.2402 5.76065C10.4335 5.95398 10.4335 6.27398 10.2402 6.46732L8.70683 8.00065L10.2402 9.53398Z" fill="#FC5474"/>
</svg>
