<svg width="20" height="20" viewBox="0 0 20 20" fill="none" xmlns="http://www.w3.org/2000/svg">
<path d="M10.0003 18.9587C5.05866 18.9587 1.04199 14.942 1.04199 10.0003C1.04199 5.05866 5.05866 1.04199 10.0003 1.04199C14.942 1.04199 18.9587 5.05866 18.9587 10.0003C18.9587 14.942 14.942 18.9587 10.0003 18.9587ZM10.0003 2.29199C5.75033 2.29199 2.29199 5.75033 2.29199 10.0003C2.29199 14.2503 5.75033 17.7087 10.0003 17.7087C14.2503 17.7087 17.7087 14.2503 17.7087 10.0003C17.7087 5.75033 14.2503 2.29199 10.0003 2.29199Z" fill="#005F73"/>
<path d="M7.72958 12.4463L7.72349 12.4523L7.71761 12.4586C7.71433 12.4622 7.70725 12.4681 7.69333 12.4737C7.67873 12.4795 7.66039 12.4831 7.64147 12.4831C7.62379 12.4831 7.60827 12.4799 7.59494 12.4746C7.58209 12.4694 7.56804 12.4609 7.55336 12.4463C7.53183 12.4247 7.51855 12.394 7.51855 12.3581C7.51855 12.3223 7.53183 12.2916 7.55336 12.27L7.1998 11.9165L7.55336 12.27L12.27 7.55336L11.9201 7.20345L12.27 7.55336C12.2916 7.53183 12.3223 7.51855 12.3581 7.51855C12.394 7.51855 12.4247 7.53183 12.4463 7.55336C12.4678 7.57489 12.4811 7.60562 12.4811 7.64147C12.4811 7.67732 12.4678 7.70806 12.4463 7.72958L7.72958 12.4463Z" fill="#005F73" stroke="#005F73"/>
<path d="M12.3581 12.4831C12.3405 12.4831 12.3249 12.4799 12.3116 12.4746C12.2988 12.4694 12.2847 12.4609 12.27 12.4463L7.55336 7.72958C7.53183 7.70806 7.51855 7.67732 7.51855 7.64147C7.51855 7.60562 7.53183 7.57489 7.55336 7.55336C7.57489 7.53183 7.60562 7.51855 7.64147 7.51855C7.67732 7.51855 7.70806 7.53183 7.72958 7.55336L12.4463 12.27C12.4678 12.2916 12.4811 12.3223 12.4811 12.3581C12.4811 12.394 12.4678 12.4247 12.4463 12.4463C12.4316 12.4609 12.4175 12.4694 12.4047 12.4746C12.3913 12.4799 12.3758 12.4831 12.3581 12.4831Z" fill="#005F73" stroke="#005F73"/>
</svg>
