<svg width="17" height="16" viewBox="0 0 17 16" fill="none" xmlns="http://www.w3.org/2000/svg">
<path d="M8.24967 1.33301C4.57634 1.33301 1.58301 4.32634 1.58301 7.99967C1.58301 11.673 4.57634 14.6663 8.24967 14.6663C11.923 14.6663 14.9163 11.673 14.9163 7.99967C14.9163 4.32634 11.923 1.33301 8.24967 1.33301ZM10.4897 9.53301C10.683 9.72634 10.683 10.0463 10.4897 10.2397C10.3897 10.3397 10.263 10.3863 10.1363 10.3863C10.0097 10.3863 9.88301 10.3397 9.78301 10.2397L8.24967 8.70634L6.71634 10.2397C6.61634 10.3397 6.48967 10.3863 6.36301 10.3863C6.23634 10.3863 6.10967 10.3397 6.00968 10.2397C5.81634 10.0463 5.81634 9.72634 6.00968 9.53301L7.54301 7.99967L6.00968 6.46634C5.81634 6.27301 5.81634 5.95301 6.00968 5.75968C6.20301 5.56634 6.52301 5.56634 6.71634 5.75968L8.24967 7.29301L9.78301 5.75968C9.97634 5.56634 10.2963 5.56634 10.4897 5.75968C10.683 5.95301 10.683 6.27301 10.4897 6.46634L8.95634 7.99967L10.4897 9.53301Z" fill="#FC5474"/>
</svg>
