<svg width="17" height="16" viewBox="0 0 17 16" fill="none" xmlns="http://www.w3.org/2000/svg">
<mask id="path-1-inside-1_11658_181389" fill="white">
<path d="M6.61357 10.3869C6.4869 10.3869 6.36023 10.3402 6.26023 10.2402C6.0669 10.0469 6.0669 9.7269 6.26023 9.53357L10.0336 5.76023C10.2269 5.5669 10.5469 5.5669 10.7402 5.76023C10.9336 5.95357 10.9336 6.27357 10.7402 6.4669L6.9669 10.2402C6.87357 10.3402 6.74023 10.3869 6.61357 10.3869Z"/>
</mask>
<path d="M6.61357 10.3869C6.4869 10.3869 6.36023 10.3402 6.26023 10.2402C6.0669 10.0469 6.0669 9.7269 6.26023 9.53357L10.0336 5.76023C10.2269 5.5669 10.5469 5.5669 10.7402 5.76023C10.9336 5.95357 10.9336 6.27357 10.7402 6.4669L6.9669 10.2402C6.87357 10.3402 6.74023 10.3869 6.61357 10.3869Z" fill="#6CC24A"/>
<path d="M6.9669 10.2402L6.25979 9.53313L6.24761 9.54532L6.23585 9.55792L6.9669 10.2402ZM6.61357 10.3869V9.3869C6.73781 9.3869 6.86992 9.43571 6.96734 9.53313L6.26023 10.2402L5.55313 10.9473C5.85055 11.2448 6.23599 11.3869 6.61357 11.3869V10.3869ZM6.26023 10.2402L6.96734 9.53313C7.16453 9.73032 7.16453 10.0435 6.96734 10.2407L6.26023 9.53357L5.55313 8.82646C4.96927 9.41032 4.96927 10.3635 5.55313 10.9473L6.26023 10.2402ZM6.26023 9.53357L6.96734 10.2407L10.7407 6.46734L10.0336 5.76023L9.32646 5.05313L5.55313 8.82646L6.26023 9.53357ZM10.0336 5.76023L10.7407 6.46734C10.5435 6.66453 10.2303 6.66453 10.0331 6.46734L10.7402 5.76023L11.4473 5.05313C10.8635 4.46927 9.91032 4.46927 9.32646 5.05313L10.0336 5.76023ZM10.7402 5.76023L10.0331 6.46734C9.83594 6.27015 9.83594 5.95698 10.0331 5.75979L10.7402 6.4669L11.4473 7.17401C12.0312 6.59015 12.0312 5.63699 11.4473 5.05313L10.7402 5.76023ZM10.7402 6.4669L10.0331 5.75979L6.25979 9.53313L6.9669 10.2402L7.67401 10.9473L11.4473 7.17401L10.7402 6.4669ZM6.9669 10.2402L6.23585 9.55792C6.36201 9.42274 6.51095 9.3869 6.61357 9.3869V10.3869V11.3869C6.96952 11.3869 7.38512 11.2577 7.69796 10.9226L6.9669 10.2402Z" fill="#6CC24A" mask="url(#path-1-inside-1_11658_181389)"/>
<path d="M10.3869 10.3869C10.2602 10.3869 10.1336 10.3402 10.0336 10.2402L6.26023 6.4669C6.0669 6.27357 6.0669 5.95357 6.26023 5.76023C6.45357 5.5669 6.77357 5.5669 6.9669 5.76023L10.7402 9.53357C10.9336 9.7269 10.9336 10.0469 10.7402 10.2402C10.6402 10.3402 10.5136 10.3869 10.3869 10.3869Z" fill="#6CC24A"/>
<path d="M10.4997 15.1663H6.49967C2.87967 15.1663 1.33301 13.6197 1.33301 9.99967V5.99967C1.33301 2.37967 2.87967 0.833008 6.49967 0.833008H10.4997C14.1197 0.833008 15.6663 2.37967 15.6663 5.99967V9.99967C15.6663 13.6197 14.1197 15.1663 10.4997 15.1663ZM6.49967 1.83301C3.42634 1.83301 2.33301 2.92634 2.33301 5.99967V9.99967C2.33301 13.073 3.42634 14.1663 6.49967 14.1663H10.4997C13.573 14.1663 14.6663 13.073 14.6663 9.99967V5.99967C14.6663 2.92634 13.573 1.83301 10.4997 1.83301H6.49967Z" fill="#6CC24A"/>
</svg>
