<svg width="16" height="16" viewBox="0 0 16 16" fill="none" xmlns="http://www.w3.org/2000/svg">
<path d="M14.2465 9.07247C13.8132 11.6991 11.8599 13.7191 9.24653 14.2125C7.8132 14.4858 6.45319 14.2725 5.27986 13.7191C5.08652 13.6258 4.77319 13.5858 4.56652 13.6325C4.12652 13.7391 3.38654 13.9191 2.75988 14.0658C2.15988 14.2125 1.78655 13.8391 1.93322 13.2391L2.36653 11.4391C2.41986 11.2325 2.37319 10.9125 2.27986 10.7191C1.74652 9.59914 1.5332 8.29914 1.7532 6.93247C2.17987 4.30581 4.29988 2.17914 6.92654 1.74581C11.2599 1.04581 14.9532 4.73914 14.2465 9.07247Z" stroke="#005F73" stroke-width="1.25" stroke-miterlimit="10" stroke-linecap="round" stroke-linejoin="round"/>
<path d="M9.39355 4.38672C10.4202 4.78672 11.2335 5.60672 11.6202 6.64005" stroke="#005F73" stroke-width="1.25" stroke-miterlimit="10" stroke-linecap="round" stroke-linejoin="round"/>
</svg>
