<svg width="16" height="16" viewBox="0 0 16 16" fill="none" xmlns="http://www.w3.org/2000/svg">
<path d="M7.39967 15.1654H4.59967C1.99301 15.1654 0.833008 14.0054 0.833008 11.3987V8.5987C0.833008 5.99203 1.99301 4.83203 4.59967 4.83203H7.39967C10.0063 4.83203 11.1663 5.99203 11.1663 8.5987V11.3987C11.1663 14.0054 10.0063 15.1654 7.39967 15.1654ZM4.59967 5.83203C2.53301 5.83203 1.83301 6.53203 1.83301 8.5987V11.3987C1.83301 13.4654 2.53301 14.1654 4.59967 14.1654H7.39967C9.46634 14.1654 10.1663 13.4654 10.1663 11.3987V8.5987C10.1663 6.53203 9.46634 5.83203 7.39967 5.83203H4.59967Z" fill="#383838"/>
<path d="M11.3997 11.1654H10.6663C10.393 11.1654 10.1663 10.9387 10.1663 10.6654V8.5987C10.1663 6.53203 9.46634 5.83203 7.39967 5.83203H5.33301C5.05967 5.83203 4.83301 5.60536 4.83301 5.33203V4.5987C4.83301 1.99203 5.99301 0.832031 8.59967 0.832031H11.3997C14.0063 0.832031 15.1663 1.99203 15.1663 4.5987V7.3987C15.1663 10.0054 14.0063 11.1654 11.3997 11.1654ZM11.1663 10.1654H11.3997C13.4663 10.1654 14.1663 9.46537 14.1663 7.3987V4.5987C14.1663 2.53203 13.4663 1.83203 11.3997 1.83203H8.59967C6.53301 1.83203 5.83301 2.53203 5.83301 4.5987V4.83203H7.39967C10.0063 4.83203 11.1663 5.99203 11.1663 8.5987V10.1654Z" fill="#888888"/>
</svg>
