<svg width="16" height="16" viewBox="0 0 16 16" fill="none" xmlns="http://www.w3.org/2000/svg">
<path d="M7.40016 15.1673H4.60016C1.9935 15.1673 0.833496 14.0073 0.833496 11.4007V8.60065C0.833496 5.99398 1.9935 4.83398 4.60016 4.83398H7.40016C10.0068 4.83398 11.1668 5.99398 11.1668 8.60065V11.4007C11.1668 14.0073 10.0068 15.1673 7.40016 15.1673ZM4.60016 5.83398C2.5335 5.83398 1.8335 6.53398 1.8335 8.60065V11.4007C1.8335 13.4673 2.5335 14.1673 4.60016 14.1673H7.40016C9.46683 14.1673 10.1668 13.4673 10.1668 11.4007V8.60065C10.1668 6.53398 9.46683 5.83398 7.40016 5.83398H4.60016V5.83398Z" fill="#005F73"/>
<path d="M11.4002 11.1673H10.6668C10.3935 11.1673 10.1668 10.9407 10.1668 10.6673V8.60065C10.1668 6.53398 9.46683 5.83398 7.40016 5.83398H5.3335C5.06016 5.83398 4.8335 5.60732 4.8335 5.33398V4.60065C4.8335 1.99398 5.9935 0.833984 8.60016 0.833984H11.4002C14.0068 0.833984 15.1668 1.99398 15.1668 4.60065V7.40065C15.1668 10.0073 14.0068 11.1673 11.4002 11.1673ZM11.1668 10.1673H11.4002C13.4668 10.1673 14.1668 9.46732 14.1668 7.40065V4.60065C14.1668 2.53398 13.4668 1.83398 11.4002 1.83398H8.60016C6.5335 1.83398 5.8335 2.53398 5.8335 4.60065V4.83398H7.40016C10.0068 4.83398 11.1668 5.99398 11.1668 8.60065V10.1673Z" fill="#005F73"/>
</svg>
