<svg width="20" height="21" viewBox="0 0 20 21" fill="none" xmlns="http://www.w3.org/2000/svg">
<path opacity="0.4" d="M14.2508 2.16663H10.7508C7.87578 2.16663 6.70911 3.30829 6.67578 6.12496H9.25078C12.7508 6.12496 14.3758 7.74996 14.3758 11.25V13.825C17.1924 13.7916 18.3341 12.625 18.3341 9.74996V6.24996C18.3341 3.33329 17.1674 2.16663 14.2508 2.16663Z" fill="#06C78D"/>
<path d="M9.24935 7.16663H5.74935C2.83268 7.16663 1.66602 8.33329 1.66602 11.25V14.75C1.66602 17.6666 2.83268 18.8333 5.74935 18.8333H9.24935C12.166 18.8333 13.3327 17.6666 13.3327 14.75V11.25C13.3327 8.33329 12.166 7.16663 9.24935 7.16663ZM10.241 11.875L7.14935 14.9666C7.03268 15.0833 6.88268 15.1416 6.72435 15.1416C6.56602 15.1416 6.41602 15.0833 6.29935 14.9666L4.74935 13.4166C4.51602 13.1833 4.51602 12.8083 4.74935 12.575C4.98268 12.3416 5.35768 12.3416 5.59102 12.575L6.71602 13.7L9.39102 11.025C9.62435 10.7916 9.99935 10.7916 10.2327 11.025C10.466 11.2583 10.4743 11.6416 10.241 11.875Z" fill="#06C78D"/>
</svg>
