<svg width="16" height="16" viewBox="0 0 16 16" fill="none" xmlns="http://www.w3.org/2000/svg">
<path d="M11.3337 14.6665H4.66699C4.39366 14.6665 4.16699 14.4398 4.16699 14.1665C4.16699 13.8932 4.39366 13.6665 4.66699 13.6665H11.3337C11.607 13.6665 11.8337 13.8932 11.8337 14.1665C11.8337 14.4398 11.607 14.6665 11.3337 14.6665Z" fill="#D4AF37"/>
<path d="M13.5668 3.67986L10.9001 5.58653C10.5468 5.83986 10.0401 5.68653 9.88681 5.27986L8.62681 1.91986C8.41348 1.33986 7.59348 1.33986 7.38015 1.91986L6.11348 5.2732C5.96015 5.68653 5.46015 5.83986 5.10681 5.57986L2.44015 3.6732C1.90681 3.29986 1.20015 3.82653 1.42015 4.44653L4.19348 12.2132C4.28681 12.4799 4.54015 12.6532 4.82015 12.6532H11.1735C11.4535 12.6532 11.7068 12.4732 11.8001 12.2132L14.5735 4.44653C14.8001 3.82653 14.0935 3.29986 13.5668 3.67986ZM9.66681 9.8332H6.33348C6.06015 9.8332 5.83348 9.60653 5.83348 9.3332C5.83348 9.05986 6.06015 8.8332 6.33348 8.8332H9.66681C9.94015 8.8332 10.1668 9.05986 10.1668 9.3332C10.1668 9.60653 9.94015 9.8332 9.66681 9.8332Z" fill="#D4AF37"/>
</svg>
