<svg width="24" height="25" viewBox="0 0 24 25" fill="none" xmlns="http://www.w3.org/2000/svg">
<path opacity="0.4" d="M21.76 16.42L15.36 4.9C14.5 3.35 13.31 2.5 12 2.5C10.69 2.5 9.49998 3.35 8.63998 4.9L2.23998 16.42C1.42998 17.89 1.33998 19.3 1.98998 20.41C2.63998 21.52 3.91998 22.13 5.59998 22.13H18.4C20.08 22.13 21.36 21.52 22.01 20.41C22.66 19.3 22.57 17.88 21.76 16.42Z" fill="url(#paint0_linear_3730_241295)"/>
<path d="M12 15.25C11.59 15.25 11.25 14.91 11.25 14.5V9.5C11.25 9.09 11.59 8.75 12 8.75C12.41 8.75 12.75 9.09 12.75 9.5V14.5C12.75 14.91 12.41 15.25 12 15.25Z" fill="url(#paint1_linear_3730_241295)"/>
<path d="M12 18.5001C11.94 18.5001 11.87 18.4901 11.8 18.4801C11.74 18.4701 11.68 18.4501 11.62 18.4201C11.56 18.4001 11.5 18.3701 11.44 18.3301C11.39 18.2901 11.34 18.2501 11.29 18.2101C11.11 18.0201 11 17.7601 11 17.5001C11 17.2401 11.11 16.9801 11.29 16.7901C11.34 16.7501 11.39 16.7101 11.44 16.6701C11.5 16.6301 11.56 16.6001 11.62 16.5801C11.68 16.5501 11.74 16.5301 11.8 16.5201C11.93 16.4901 12.07 16.4901 12.19 16.5201C12.26 16.5301 12.32 16.5501 12.38 16.5801C12.44 16.6001 12.5 16.6301 12.56 16.6701C12.61 16.7101 12.66 16.7501 12.71 16.7901C12.89 16.9801 13 17.2401 13 17.5001C13 17.7601 12.89 18.0201 12.71 18.2101C12.66 18.2501 12.61 18.2901 12.56 18.3301C12.5 18.3701 12.44 18.4001 12.38 18.4201C12.32 18.4501 12.26 18.4701 12.19 18.4801C12.13 18.4901 12.06 18.5001 12 18.5001Z" fill="url(#paint2_linear_3730_241295)"/>
<defs>
<linearGradient id="paint0_linear_3730_241295" x1="2.17284" y1="21.0394" x2="31.5998" y2="20.2287" gradientUnits="userSpaceOnUse">
<stop stop-color="#005F73"/>
<stop offset="1" stop-color="#6CC24A"/>
</linearGradient>
<linearGradient id="paint1_linear_3730_241295" x1="11.294" y1="14.8889" x2="13.4096" y2="14.8762" gradientUnits="userSpaceOnUse">
<stop stop-color="#005F73"/>
<stop offset="1" stop-color="#6CC24A"/>
</linearGradient>
<linearGradient id="paint2_linear_3730_241295" x1="11.0587" y1="18.3888" x2="13.8776" y2="18.3159" gradientUnits="userSpaceOnUse">
<stop stop-color="#005F73"/>
<stop offset="1" stop-color="#6CC24A"/>
</linearGradient>
</defs>
</svg>
