<svg width="20" height="20" viewBox="0 0 20 20" fill="none" xmlns="http://www.w3.org/2000/svg">
<path opacity="0.4" d="M18.134 13.2665L12.8007 3.6665C12.084 2.37484 11.0924 1.6665 10.0007 1.6665C8.90905 1.6665 7.91738 2.37484 7.20071 3.6665L1.86738 13.2665C1.19238 14.4915 1.11738 15.6665 1.65905 16.5915C2.20071 17.5165 3.26738 18.0248 4.66738 18.0248H15.334C16.734 18.0248 17.8007 17.5165 18.3424 16.5915C18.884 15.6665 18.809 14.4832 18.134 13.2665Z" fill="#FC5474"/>
<path d="M10 12.2917C9.65833 12.2917 9.375 12.0083 9.375 11.6667V7.5C9.375 7.15833 9.65833 6.875 10 6.875C10.3417 6.875 10.625 7.15833 10.625 7.5V11.6667C10.625 12.0083 10.3417 12.2917 10 12.2917Z" fill="#FC5474"/>
<path d="M9.99935 15.0003C9.94935 15.0003 9.89102 14.992 9.83268 14.9836C9.78268 14.9753 9.73268 14.9586 9.68268 14.9336C9.63268 14.917 9.58268 14.892 9.53268 14.8586C9.49102 14.8253 9.44935 14.792 9.40768 14.7586C9.25768 14.6003 9.16602 14.3836 9.16602 14.167C9.16602 13.9503 9.25768 13.7336 9.40768 13.5753C9.44935 13.542 9.49102 13.5086 9.53268 13.4753C9.58268 13.442 9.63268 13.417 9.68268 13.4003C9.73268 13.3753 9.78268 13.3586 9.83268 13.3503C9.94102 13.3253 10.0577 13.3253 10.1577 13.3503C10.216 13.3586 10.266 13.3753 10.316 13.4003C10.366 13.417 10.416 13.442 10.466 13.4753C10.5077 13.5086 10.5493 13.542 10.591 13.5753C10.741 13.7336 10.8327 13.9503 10.8327 14.167C10.8327 14.3836 10.741 14.6003 10.591 14.7586C10.5493 14.792 10.5077 14.8253 10.466 14.8586C10.416 14.892 10.366 14.917 10.316 14.9336C10.266 14.9586 10.216 14.9753 10.1577 14.9836C10.1077 14.992 10.0493 15.0003 9.99935 15.0003Z" fill="#FC5474"/>
</svg>
