<svg width="20" height="21" viewBox="0 0 20 21" fill="none" xmlns="http://www.w3.org/2000/svg">
<path opacity="0.4" d="M18.134 13.7666L12.8007 4.16663C12.084 2.87496 11.0924 2.16663 10.0007 2.16663C8.90905 2.16663 7.91738 2.87496 7.20071 4.16663L1.86738 13.7666C1.19238 14.9916 1.11738 16.1666 1.65905 17.0916C2.20071 18.0166 3.26738 18.525 4.66738 18.525H15.334C16.734 18.525 17.8007 18.0166 18.3424 17.0916C18.884 16.1666 18.809 14.9833 18.134 13.7666Z" fill="#FFAB2C"/>
<path d="M10 12.7917C9.65833 12.7917 9.375 12.5083 9.375 12.1667V8C9.375 7.65833 9.65833 7.375 10 7.375C10.3417 7.375 10.625 7.65833 10.625 8V12.1667C10.625 12.5083 10.3417 12.7917 10 12.7917Z" fill="#FFAB2C"/>
<path d="M9.99935 15.5C9.94935 15.5 9.89102 15.4917 9.83268 15.4834C9.78268 15.475 9.73268 15.4584 9.68268 15.4334C9.63268 15.4167 9.58268 15.3917 9.53268 15.3584C9.49102 15.325 9.44935 15.2917 9.40768 15.2584C9.25768 15.1 9.16602 14.8834 9.16602 14.6667C9.16602 14.45 9.25768 14.2334 9.40768 14.075C9.44935 14.0417 9.49102 14.0084 9.53268 13.975C9.58268 13.9417 9.63268 13.9167 9.68268 13.9C9.73268 13.875 9.78268 13.8584 9.83268 13.85C9.94102 13.825 10.0577 13.825 10.1577 13.85C10.216 13.8584 10.266 13.875 10.316 13.9C10.366 13.9167 10.416 13.9417 10.466 13.975C10.5077 14.0084 10.5493 14.0417 10.591 14.075C10.741 14.2334 10.8327 14.45 10.8327 14.6667C10.8327 14.8834 10.741 15.1 10.591 15.2584C10.5493 15.2917 10.5077 15.325 10.466 15.3584C10.416 15.3917 10.366 15.4167 10.316 15.4334C10.266 15.4584 10.216 15.475 10.1577 15.4834C10.1077 15.4917 10.0493 15.5 9.99935 15.5Z" fill="#FFAB2C"/>
</svg>
