<svg width="12" height="12" viewBox="0 0 12 12" fill="none" xmlns="http://www.w3.org/2000/svg">
<path d="M6 7.375C5.795 7.375 5.625 7.205 5.625 7V4.5C5.625 4.295 5.795 4.125 6 4.125C6.205 4.125 6.375 4.295 6.375 4.5V7C6.375 7.205 6.205 7.375 6 7.375Z" fill="#FFAB2C"/>
<path d="M6 8.9993C5.97 8.9993 5.935 8.9943 5.9 8.9893C5.87 8.9843 5.84 8.9743 5.81 8.9593C5.78 8.9493 5.75 8.9343 5.72 8.9143C5.695 8.8943 5.67 8.8743 5.645 8.8543C5.555 8.7593 5.5 8.6293 5.5 8.4993C5.5 8.3693 5.555 8.2393 5.645 8.1443C5.67 8.1243 5.695 8.1043 5.72 8.0843C5.75 8.0643 5.78 8.0493 5.81 8.0393C5.84 8.0243 5.87 8.0143 5.9 8.0093C5.965 7.9943 6.035 7.9943 6.095 8.0093C6.13 8.0143 6.16 8.0243 6.19 8.0393C6.22 8.0493 6.25 8.0643 6.28 8.0843C6.305 8.1043 6.33 8.1243 6.355 8.1443C6.445 8.2393 6.5 8.3693 6.5 8.4993C6.5 8.6293 6.445 8.7593 6.355 8.8543C6.33 8.8743 6.305 8.8943 6.28 8.9143C6.25 8.9343 6.22 8.9493 6.19 8.9593C6.16 8.9743 6.13 8.9843 6.095 8.9893C6.065 8.9943 6.03 8.9993 6 8.9993Z" fill="#FFAB2C"/>
<path d="M9.02999 11.0799H2.96999C1.99499 11.0799 1.24999 10.7249 0.869988 10.0849C0.494988 9.44492 0.544988 8.61992 1.01999 7.76492L4.04999 2.31492C4.54999 1.41492 5.23999 0.919922 5.99999 0.919922C6.75999 0.919922 7.44999 1.41492 7.94999 2.31492L10.98 7.76992C11.455 8.62492 11.51 9.44492 11.13 10.0899C10.75 10.7249 10.005 11.0799 9.02999 11.0799ZM5.99999 1.66992C5.52999 1.66992 5.06999 2.02992 4.70499 2.67992L1.67999 8.13492C1.33999 8.74492 1.28499 9.30492 1.51999 9.70992C1.75499 10.1149 2.27499 10.3349 2.97499 10.3349H9.03499C9.73499 10.3349 10.25 10.1149 10.49 9.70992C10.73 9.30492 10.67 8.74992 10.33 8.13492L7.29499 2.67992C6.92999 2.02992 6.46999 1.66992 5.99999 1.66992Z" fill="#FFAB2C"/>
</svg>
