<svg width="24" height="24" viewBox="0 0 24 24" fill="none" xmlns="http://www.w3.org/2000/svg">
<path opacity="0.4" d="M21.7605 15.92L15.3605 4.4C14.5005 2.85 13.3105 2 12.0005 2C10.6905 2 9.50047 2.85 8.64047 4.4L2.24047 15.92C1.43047 17.39 1.34047 18.8 1.99047 19.91C2.64047 21.02 3.92047 21.63 5.60047 21.63H18.4005C20.0805 21.63 21.3605 21.02 22.0105 19.91C22.6605 18.8 22.5705 17.38 21.7605 15.92Z" fill="url(#paint0_linear_4134_330024)"/>
<path d="M12 14.75C11.59 14.75 11.25 14.41 11.25 14V9C11.25 8.59 11.59 8.25 12 8.25C12.41 8.25 12.75 8.59 12.75 9V14C12.75 14.41 12.41 14.75 12 14.75Z" fill="url(#paint1_linear_4134_330024)"/>
<path d="M12 18C11.94 18 11.87 17.99 11.8 17.98C11.74 17.97 11.68 17.95 11.62 17.92C11.56 17.9 11.5 17.87 11.44 17.83C11.39 17.79 11.34 17.75 11.29 17.71C11.11 17.52 11 17.26 11 17C11 16.74 11.11 16.48 11.29 16.29C11.34 16.25 11.39 16.21 11.44 16.17C11.5 16.13 11.56 16.1 11.62 16.08C11.68 16.05 11.74 16.03 11.8 16.02C11.93 15.99 12.07 15.99 12.19 16.02C12.26 16.03 12.32 16.05 12.38 16.08C12.44 16.1 12.5 16.13 12.56 16.17C12.61 16.21 12.66 16.25 12.71 16.29C12.89 16.48 13 16.74 13 17C13 17.26 12.89 17.52 12.71 17.71C12.66 17.75 12.61 17.79 12.56 17.83C12.5 17.87 12.44 17.9 12.38 17.92C12.32 17.95 12.26 17.97 12.19 17.98C12.13 17.99 12.06 18 12 18Z" fill="url(#paint2_linear_4134_330024)"/>
<defs>
<linearGradient id="paint0_linear_4134_330024" x1="2.17332" y1="20.5394" x2="31.6003" y2="19.7287" gradientUnits="userSpaceOnUse">
<stop stop-color="#005F73"/>
<stop offset="1" stop-color="#6CC24A"/>
</linearGradient>
<linearGradient id="paint1_linear_4134_330024" x1="11.294" y1="14.3889" x2="13.4096" y2="14.3762" gradientUnits="userSpaceOnUse">
<stop stop-color="#005F73"/>
<stop offset="1" stop-color="#6CC24A"/>
</linearGradient>
<linearGradient id="paint2_linear_4134_330024" x1="11.0587" y1="17.8887" x2="13.8776" y2="17.8158" gradientUnits="userSpaceOnUse">
<stop stop-color="#005F73"/>
<stop offset="1" stop-color="#6CC24A"/>
</linearGradient>
</defs>
</svg>
