<svg width="20" height="20" viewBox="0 0 20 20" fill="none" xmlns="http://www.w3.org/2000/svg">
<path d="M17.4991 5.60827C17.4824 5.60827 17.4574 5.60827 17.4324 5.60827C13.0241 5.16661 8.62408 4.99994 4.26574 5.44161L2.56574 5.60827C2.21574 5.64161 1.90741 5.39161 1.87408 5.04161C1.84074 4.69161 2.09074 4.39161 2.43241 4.35827L4.13241 4.19161C8.56574 3.74161 13.0574 3.91661 17.5574 4.35827C17.8991 4.39161 18.1491 4.69994 18.1157 5.04161C18.0907 5.36661 17.8157 5.60827 17.4991 5.60827Z" fill="#6CC24A"/>
<path d="M7.08265 4.76663C7.04932 4.76663 7.01598 4.76663 6.97432 4.75829C6.64098 4.69996 6.40765 4.37496 6.46598 4.04163L6.64932 2.94996C6.78265 2.14996 6.96598 1.04163 8.90765 1.04163H11.091C13.041 1.04163 13.2243 2.19163 13.3493 2.95829L13.5326 4.04163C13.591 4.38329 13.3576 4.70829 13.0243 4.75829C12.6826 4.81663 12.3576 4.58329 12.3076 4.24996L12.1243 3.16663C12.0076 2.44163 11.9826 2.29996 11.0993 2.29996H8.91598C8.03265 2.29996 8.01598 2.41663 7.89098 3.15829L7.69932 4.24163C7.64932 4.54996 7.38265 4.76663 7.08265 4.76663Z" fill="#6CC24A"/>
<path d="M12.674 18.9583H7.32402C4.41569 18.9583 4.29902 17.3499 4.20735 16.0499L3.66569 7.65827C3.64069 7.31661 3.90735 7.01661 4.24902 6.99161C4.59902 6.97494 4.89069 7.23327 4.91569 7.57494L5.45735 15.9666C5.54902 17.2333 5.58235 17.7083 7.32402 17.7083H12.674C14.424 17.7083 14.4574 17.2333 14.5407 15.9666L15.0824 7.57494C15.1074 7.23327 15.4074 6.97494 15.749 6.99161C16.0907 7.01661 16.3574 7.30827 16.3324 7.65827L15.7907 16.0499C15.699 17.3499 15.5824 18.9583 12.674 18.9583Z" fill="#6CC24A"/>
<path d="M11.3844 14.375H8.60938C8.26771 14.375 7.98438 14.0917 7.98438 13.75C7.98438 13.4083 8.26771 13.125 8.60938 13.125H11.3844C11.726 13.125 12.0094 13.4083 12.0094 13.75C12.0094 14.0917 11.726 14.375 11.3844 14.375Z" fill="#6CC24A"/>
<path d="M12.0846 11.0416H7.91797C7.5763 11.0416 7.29297 10.7583 7.29297 10.4166C7.29297 10.075 7.5763 9.79163 7.91797 9.79163H12.0846C12.4263 9.79163 12.7096 10.075 12.7096 10.4166C12.7096 10.7583 12.4263 11.0416 12.0846 11.0416Z" fill="#6CC24A"/>
</svg>
