<svg width="16" height="16" viewBox="0 0 16 16" fill="none" xmlns="http://www.w3.org/2000/svg">
<path d="M10.6667 1.33325H5.33333C3.49333 1.33325 2 2.82659 2 4.66659V11.3333C2 13.1733 3.49333 14.6666 5.33333 14.6666H10.6667C12.5067 14.6666 14 13.1733 14 11.3333V4.66659C14 2.82659 12.5067 1.33325 10.6667 1.33325ZM5.90667 12.4199C5.78 12.5466 5.61333 12.6133 5.44 12.6133C5.26 12.6133 5.09333 12.5466 4.96667 12.4199C4.84 12.2933 4.76667 12.1266 4.76667 11.9466C4.76667 11.7733 4.84 11.5999 4.96667 11.4733C5.02667 11.4133 5.1 11.3666 5.18 11.3333C5.34667 11.2666 5.52667 11.2666 5.69333 11.3333C5.73333 11.3466 5.77333 11.3666 5.80667 11.3933C5.84667 11.4133 5.88 11.4466 5.90667 11.4733C6.03333 11.5999 6.10667 11.7733 6.10667 11.9466C6.10667 12.1266 6.03333 12.2933 5.90667 12.4199ZM4.76667 9.27992C4.76667 9.19325 4.78667 9.10659 4.82 9.02659C4.85333 8.93992 4.9 8.87325 4.96667 8.80659C5.12 8.65325 5.35333 8.57992 5.56667 8.62659C5.60667 8.63325 5.65333 8.64659 5.69333 8.66659C5.73333 8.67992 5.77333 8.69992 5.80667 8.72659C5.84667 8.74659 5.88 8.77992 5.90667 8.80659C5.96667 8.87325 6.02 8.93992 6.05333 9.02659C6.08667 9.10659 6.1 9.19325 6.1 9.27992C6.1 9.45992 6.03333 9.62659 5.90667 9.75325C5.78 9.87992 5.61333 9.94659 5.44 9.94659C5.34667 9.94659 5.26 9.92659 5.18 9.89325C5.1 9.85992 5.02667 9.81325 4.96667 9.75325C4.84 9.62659 4.76667 9.45992 4.76667 9.27992ZM8.57333 12.4199C8.51333 12.4799 8.44 12.5266 8.36 12.5599C8.28 12.5933 8.19333 12.6133 8.1 12.6133C7.92667 12.6133 7.76 12.5466 7.63333 12.4199C7.50667 12.2933 7.43333 12.1266 7.43333 11.9466C7.43333 11.8999 7.44 11.8599 7.44667 11.8133C7.46 11.7733 7.47333 11.7333 7.48667 11.6933C7.50667 11.6533 7.52667 11.6133 7.54667 11.5733C7.57333 11.5399 7.6 11.5066 7.63333 11.4733C7.69333 11.4133 7.76667 11.3666 7.84667 11.3333C8.09333 11.2333 8.38667 11.2866 8.57333 11.4733C8.7 11.5999 8.76667 11.7733 8.76667 11.9466C8.76667 12.1266 8.7 12.2933 8.57333 12.4199ZM8.57333 9.75325C8.44667 9.87992 8.28 9.94659 8.1 9.94659C7.92667 9.94659 7.76 9.87992 7.63333 9.75325C7.50667 9.62659 7.43333 9.45992 7.43333 9.27992C7.43333 9.10659 7.50667 8.93325 7.63333 8.80659C7.88 8.55992 8.32667 8.55992 8.57333 8.80659C8.63333 8.87325 8.68667 8.93992 8.72 9.02659C8.75333 9.10659 8.76667 9.19325 8.76667 9.27992C8.76667 9.45992 8.7 9.62659 8.57333 9.75325ZM6 6.97325C5.31333 6.97325 4.74667 6.41325 4.74667 5.71992V5.05325C4.74667 4.36659 5.30667 3.79992 6 3.79992H10C10.6867 3.79992 11.2533 4.35992 11.2533 5.05325V5.71992C11.2533 6.40659 10.6933 6.97325 10 6.97325H6ZM11.24 12.4199C11.1133 12.5466 10.9467 12.6133 10.7667 12.6133C10.68 12.6133 10.5933 12.5933 10.5133 12.5599C10.4333 12.5266 10.36 12.4799 10.3 12.4199C10.1733 12.2933 10.1067 12.1266 10.1067 11.9466C10.1067 11.7733 10.1733 11.5999 10.3 11.4733C10.48 11.2866 10.78 11.2333 11.0267 11.3333C11.1067 11.3666 11.18 11.4133 11.24 11.4733C11.3667 11.5999 11.4333 11.7733 11.4333 11.9466C11.4333 12.1266 11.3667 12.2933 11.24 12.4199ZM11.3867 9.53325C11.3533 9.61325 11.3067 9.68659 11.24 9.75325C11.1133 9.87992 10.9467 9.94659 10.7667 9.94659C10.5933 9.94659 10.4267 9.87992 10.3 9.75325C10.1733 9.62659 10.1 9.45992 10.1 9.27992C10.1 9.10659 10.1733 8.93325 10.3 8.80659C10.5467 8.55992 10.9933 8.55992 11.24 8.80659C11.3667 8.93325 11.44 9.10659 11.44 9.27992C11.44 9.36659 11.42 9.45325 11.3867 9.53325Z" fill="#7F39FB"/>
</svg>
