<svg width="154" height="140" viewBox="0 0 154 140" fill="none" xmlns="http://www.w3.org/2000/svg">
<g opacity="0.8">
<path d="M136.729 68.3313H81.0594C80.0639 68.3313 79.2539 67.6777 79.2539 66.8747V1.45652C79.2539 0.653264 80.0639 0 81.0594 0H136.729C137.725 0 138.535 0.653264 138.535 1.45652V66.8744C138.535 67.6777 137.725 68.3313 136.729 68.3313ZM81.0594 0.0622156C80.1061 0.0622156 79.3309 0.68776 79.3309 1.45652V66.8744C79.3309 67.6435 80.1064 68.2691 81.0594 68.2691H136.729C137.682 68.2691 138.458 67.6435 138.458 66.8744V1.45652C138.458 0.68776 137.682 0.0622156 136.729 0.0622156H81.0594Z" fill="#E0E0E0"/>
<path d="M72.5342 68.3313H16.8641C15.8686 68.3313 15.0586 67.6777 15.0586 66.8747V1.45652C15.0586 0.653264 15.8683 0 16.8641 0H72.5342C73.5296 0 74.3397 0.653264 74.3397 1.45652V66.8744C74.3397 67.6777 73.5296 68.3313 72.5342 68.3313ZM16.8641 0.0622156C15.9111 0.0622156 15.1356 0.68776 15.1356 1.45652V66.8744C15.1356 67.6435 15.9111 68.2691 16.8641 68.2691H72.5342C73.4874 68.2691 74.2627 67.6435 74.2627 66.8744V1.45652C74.2627 0.68776 73.4871 0.0622156 72.5342 0.0622156H16.8641Z" fill="#E0E0E0"/>
<path d="M154 76.875H0V76.952H154V76.875Z" fill="#E0E0E0"/>
<path d="M20.8615 81.2695H15.915V81.3465H20.8615V81.2695Z" fill="#E0E0E0"/>
<path d="M68.957 80.4375H52.4697V80.5145H68.957V80.4375Z" fill="#E0E0E0"/>
<path d="M32.333 84.1328H21.168V84.2098H32.333V84.1328Z" fill="#E0E0E0"/>
<path d="M129.836 80.3945H116.533V80.4715H129.836V80.3945Z" fill="#E0E0E0"/>
<path d="M134.53 80.3945H132.58V80.4715H134.53V80.3945Z" fill="#E0E0E0"/>
<path d="M113.991 82.3164H97.3926V82.3934H113.991V82.3164Z" fill="#E0E0E0"/>
<path d="M9.98803 59.4453H2.93945V66.4942H9.98803V59.4453Z" fill="#F0F0F0"/>
<path d="M9.98803 66.957H2.93945V74.0059H9.98803V66.957Z" fill="#F5F5F5"/>
<path d="M17.6023 59.4453H10.5537V66.4942H17.6023V59.4453Z" fill="#F0F0F0"/>
<path d="M17.6023 66.957H10.5537V74.0059H17.6023V66.957Z" fill="#F0F0F0"/>
<path d="M25.2712 59.4453H18.2227V66.4942H25.2712V59.4453Z" fill="#E6E6E6"/>
<path d="M25.2712 66.957H18.2227V74.0059H25.2712V66.957Z" fill="#F0F0F0"/>
<path d="M32.7117 59.4453H25.6631V66.4942H32.7117V59.4453Z" fill="#F0F0F0"/>
<path d="M32.7117 66.957H25.6631V74.0059H32.7117V66.957Z" fill="#F0F0F0"/>
<path d="M40.1026 59.4453H33.0537V66.4942H40.1026V59.4453Z" fill="#F0F0F0"/>
<path d="M40.1026 66.957H33.0537V74.0059H40.1026V66.957Z" fill="#F5F5F5"/>
<path d="M47.4968 59.4453H40.4482V66.4942H47.4968V59.4453Z" fill="#F0F0F0"/>
<path d="M47.4968 66.957H40.4482V74.0059H47.4968V66.957Z" fill="#F0F0F0"/>
<path d="M54.8904 59.4453H47.8418V66.4942H54.8904V59.4453Z" fill="#F0F0F0"/>
<path d="M54.8904 66.957H47.8418V74.0059H54.8904V66.957Z" fill="#E6E6E6"/>
<path d="M62.2869 59.4453H55.2383V66.4942H62.2869V59.4453Z" fill="#F5F5F5"/>
<path d="M62.2869 66.957H55.2383V74.0059H62.2869V66.957Z" fill="#F0F0F0"/>
<path d="M69.6775 59.4453H62.6289V66.4942H69.6775V59.4453Z" fill="#F0F0F0"/>
<path d="M69.6775 66.957H62.6289V74.0059H69.6775V66.957Z" fill="#F0F0F0"/>
<path d="M77.0652 59.4453H70.0166V66.4942H77.0652V59.4453Z" fill="#F0F0F0"/>
<path d="M77.0652 66.957H70.0166V74.0059H77.0652V66.957Z" fill="#F5F5F5"/>
<path d="M84.4597 59.4453H77.4111V66.4942H84.4597V59.4453Z" fill="#F5F5F5"/>
<path d="M84.4597 66.957H77.4111V74.0059H84.4597V66.957Z" fill="#E6E6E6"/>
<path d="M91.8542 59.4453H84.8057V66.4942H91.8542V59.4453Z" fill="#F0F0F0"/>
<path d="M91.8542 66.957H84.8057V74.0059H91.8542V66.957Z" fill="#F0F0F0"/>
<path d="M99.2478 59.4453H92.1992V66.4942H99.2478V59.4453Z" fill="#F0F0F0"/>
<path d="M99.2478 66.957H92.1992V74.0059H99.2478V66.957Z" fill="#F0F0F0"/>
<path d="M106.64 59.4453H99.5918V66.4942H106.64V59.4453Z" fill="#F5F5F5"/>
<path d="M106.64 66.957H99.5918V74.0059H106.64V66.957Z" fill="#F0F0F0"/>
<path d="M114.034 59.4453H106.985V66.4942H114.034V59.4453Z" fill="#F0F0F0"/>
<path d="M114.034 66.957H106.985V74.0059H114.034V66.957Z" fill="#E6E6E6"/>
<path d="M121.427 59.4453H114.378V66.4942H121.427V59.4453Z" fill="#F0F0F0"/>
<path d="M121.427 66.957H114.378V74.0059H121.427V66.957Z" fill="#F5F5F5"/>
<path d="M128.821 59.4453H121.772V66.4942H128.821V59.4453Z" fill="#F5F5F5"/>
<path d="M128.821 66.957H121.772V74.0059H128.821V66.957Z" fill="#F0F0F0"/>
<path d="M136.215 59.4453H129.166V66.4942H136.215V59.4453Z" fill="#F0F0F0"/>
<path d="M136.215 66.957H129.166V74.0059H136.215V66.957Z" fill="#E6E6E6"/>
<path d="M143.607 59.4453H136.559V66.4942H143.607V59.4453Z" fill="#F5F5F5"/>
<path d="M143.607 66.957H136.559V74.0059H143.607V66.957Z" fill="#F0F0F0"/>
<path d="M151.002 59.4453H143.953V66.4942H151.002V59.4453Z" fill="#F0F0F0"/>
<path d="M151.002 66.957H143.953V74.0059H151.002V66.957Z" fill="#F5F5F5"/>
<path d="M9.98803 44.4453H2.93945V51.4939H9.98803V44.4453Z" fill="#E6E6E6"/>
<path d="M9.98803 51.957H2.93945V59.0056H9.98803V51.957Z" fill="#F0F0F0"/>
<path d="M17.6023 44.4453H10.5537V51.4939H17.6023V44.4453Z" fill="#F5F5F5"/>
<path d="M17.6023 51.957H10.5537V59.0056H17.6023V51.957Z" fill="#F0F0F0"/>
<path d="M25.2712 44.4453H18.2227V51.4939H25.2712V44.4453Z" fill="#F0F0F0"/>
<path d="M25.2712 51.957H18.2227V59.0056H25.2712V51.957Z" fill="#F0F0F0"/>
<path d="M32.7117 44.4453H25.6631V51.4939H32.7117V44.4453Z" fill="#F0F0F0"/>
<path d="M32.7117 51.957H25.6631V59.0056H32.7117V51.957Z" fill="#E6E6E6"/>
<path d="M40.1026 44.4453H33.0537V51.4939H40.1026V44.4453Z" fill="#F0F0F0"/>
<path d="M40.1026 51.957H33.0537V59.0056H40.1026V51.957Z" fill="#F0F0F0"/>
<path d="M47.4968 44.4453H40.4482V51.4939H47.4968V44.4453Z" fill="#E6E6E6"/>
<path d="M47.4968 51.957H40.4482V59.0056H47.4968V51.957Z" fill="#F5F5F5"/>
<path d="M54.8904 44.4453H47.8418V51.4939H54.8904V44.4453Z" fill="#F0F0F0"/>
<path d="M54.8904 51.957H47.8418V59.0056H54.8904V51.957Z" fill="#F0F0F0"/>
<path d="M62.2869 44.4453H55.2383V51.4939H62.2869V44.4453Z" fill="#F0F0F0"/>
<path d="M62.2869 51.957H55.2383V59.0056H62.2869V51.957Z" fill="#F0F0F0"/>
<path d="M69.6775 44.4453H62.6289V51.4939H69.6775V44.4453Z" fill="#F0F0F0"/>
<path d="M69.6775 51.957H62.6289V59.0056H69.6775V51.957Z" fill="#E6E6E6"/>
<path d="M77.0652 44.4453H70.0166V51.4939H77.0652V44.4453Z" fill="#F5F5F5"/>
<path d="M77.0652 51.957H70.0166V59.0056H77.0652V51.957Z" fill="#F0F0F0"/>
<path d="M84.4597 44.4453H77.4111V51.4939H84.4597V44.4453Z" fill="#F0F0F0"/>
<path d="M84.4597 51.957H77.4111V59.0056H84.4597V51.957Z" fill="#F0F0F0"/>
<path d="M91.8542 44.4453H84.8057V51.4939H91.8542V44.4453Z" fill="#F0F0F0"/>
<path d="M91.8542 51.957H84.8057V59.0056H91.8542V51.957Z" fill="#E6E6E6"/>
<path d="M99.2478 44.4453H92.1992V51.4939H99.2478V44.4453Z" fill="#F0F0F0"/>
<path d="M99.2478 51.957H92.1992V59.0056H99.2478V51.957Z" fill="#F5F5F5"/>
<path d="M106.64 44.4453H99.5918V51.4939H106.64V44.4453Z" fill="#E6E6E6"/>
<path d="M106.64 51.957H99.5918V59.0056H106.64V51.957Z" fill="#F0F0F0"/>
<path d="M114.034 44.4453H106.985V51.4939H114.034V44.4453Z" fill="#F5F5F5"/>
<path d="M114.034 51.957H106.985V59.0056H114.034V51.957Z" fill="#F0F0F0"/>
<path d="M121.427 44.4453H114.378V51.4939H121.427V44.4453Z" fill="#F0F0F0"/>
<path d="M121.427 51.957H114.378V59.0056H121.427V51.957Z" fill="#F0F0F0"/>
<path d="M128.821 44.4453H121.772V51.4939H128.821V44.4453Z" fill="#F0F0F0"/>
<path d="M128.821 51.957H121.772V59.0056H128.821V51.957Z" fill="#E6E6E6"/>
<path d="M136.215 44.4453H129.166V51.4939H136.215V44.4453Z" fill="#F5F5F5"/>
<path d="M136.215 51.957H129.166V59.0056H136.215V51.957Z" fill="#F0F0F0"/>
<path d="M143.607 44.4453H136.559V51.4939H143.607V44.4453Z" fill="#F0F0F0"/>
<path d="M143.607 51.957H136.559V59.0056H143.607V51.957Z" fill="#F0F0F0"/>
<path d="M151.002 44.4453H143.953V51.4939H151.002V44.4453Z" fill="#E6E6E6"/>
<path d="M151.002 51.957H143.953V59.0056H151.002V51.957Z" fill="#F5F5F5"/>
<path d="M131.711 8.375H90.8164V34.1655H131.711V8.375Z" fill="#E6E6E6"/>
<path d="M130.548 8.375H90.8164V33.1313H130.548V8.375Z" fill="#F0F0F0"/>
<path d="M127.018 12.1367H94.3447V29.3557H127.018V12.1367Z" fill="white"/>
<path d="M120.14 17.4297H101.047V24.2996H120.14V17.4297Z" fill="#F0F0F0"/>
<path d="M66.1001 8.375H25.2051V34.1655H66.1001V8.375Z" fill="#E6E6E6"/>
<path d="M64.9368 8.375H25.2051V33.1313H64.9368V8.375Z" fill="#F0F0F0"/>
<path d="M61.407 12.1367H28.7334V29.3557H61.407V12.1367Z" fill="white"/>
<path d="M54.5285 17.4297H35.4355V24.2996H54.5285V17.4297Z" fill="#F0F0F0"/>
<path d="M143.907 108.073C143.907 121.029 115.104 131.532 79.5737 131.532C44.0432 131.532 15.2402 121.029 15.2402 108.073C15.2402 95.1166 44.0432 84.6133 79.5737 84.6133C115.104 84.6133 143.907 95.1163 143.907 108.073Z" fill="#F5F5F5"/>
<path d="M103.565 111.465C103.565 111.465 105.32 111.021 110.494 111.647C115.667 112.273 121.91 112.586 124.046 112.023C126.183 111.459 126.633 110.645 124.89 110.645C123.147 110.645 107.681 109.919 103.127 110.896C101.566 111.23 99.6408 112.148 98.2351 111.897C98.2351 111.897 91.469 105.819 87.1607 106.677C86.3377 106.84 85.8298 107.803 86.0882 108.688C86.313 109.458 87.5866 111.023 88.7971 111.785C91.1684 113.277 93.8658 115.192 97.8443 114.064C98.4282 113.898 98.9718 113.596 99.4742 113.225C100.18 112.705 101.575 111.856 103.565 111.465V111.465Z" fill="#263238"/>
<path opacity="0.6" d="M103.565 111.465C103.565 111.465 105.32 111.021 110.494 111.647C115.667 112.273 121.91 112.586 124.046 112.023C126.183 111.459 126.633 110.645 124.89 110.645C123.147 110.645 107.681 109.919 103.127 110.896C101.566 111.23 99.6408 112.148 98.2351 111.897C98.2351 111.897 91.469 105.819 87.1607 106.677C86.3377 106.84 85.8298 107.803 86.0882 108.688C86.313 109.458 87.5866 111.023 88.7971 111.785C91.1684 113.277 93.8658 115.192 97.8443 114.064C98.4282 113.898 98.9718 113.596 99.4742 113.225C100.18 112.705 101.575 111.856 103.565 111.465V111.465Z" fill="white"/>
<path opacity="0.2" d="M86.8222 109.045C86.8222 109.045 89.8492 113.099 94.8505 113.753C94.8505 113.753 97.1143 113.941 97.6407 113.072C97.6407 113.072 98.1409 112.941 97.3774 111.914C96.6141 110.888 92.3557 107.943 90.1914 107.361C88.1383 106.808 85.7691 107.15 86.8222 109.045Z" fill="black"/>
<path d="M52.4909 139.077C72.9253 139.077 89.4907 132.178 89.4907 123.668C89.4907 115.157 72.9253 108.258 52.4909 108.258C32.0566 108.258 15.4912 115.157 15.4912 123.668C15.4912 132.178 32.0566 139.077 52.4909 139.077Z" fill="#979797"/>
<path opacity="0.2" d="M52.4909 139.077C72.9253 139.077 89.4907 132.178 89.4907 123.668C89.4907 115.157 72.9253 108.258 52.4909 108.258C32.0566 108.258 15.4912 115.157 15.4912 123.668C15.4912 132.178 32.0566 139.077 52.4909 139.077Z" fill="white"/>
<g opacity="0.2">
<path d="M53.3262 135.098C68.48 135.098 80.7647 129.981 80.7647 123.67C80.7647 117.359 68.48 112.242 53.3262 112.242C38.1723 112.242 25.8877 117.359 25.8877 123.67C25.8877 129.981 38.1723 135.098 53.3262 135.098Z" fill="white"/>
<path opacity="0.2" d="M53.3262 135.098C68.48 135.098 80.7647 129.981 80.7647 123.67C80.7647 117.359 68.48 112.242 53.3262 112.242C38.1723 112.242 25.8877 117.359 25.8877 123.67C25.8877 129.981 38.1723 135.098 53.3262 135.098Z" fill="white"/>
</g>
<path d="M80.6421 116.654C80.6421 116.654 81.2116 121.493 79.9777 123.486C78.7439 125.479 63.561 136.391 59.4806 134.399C55.4003 132.406 37.1799 118.001 37.7494 115.059C38.3189 112.118 38.9977 109.612 40.0415 108.948C41.0853 108.283 54.7359 100.711 58.5317 101.66C62.3275 102.609 80.0726 115.42 80.6421 116.654Z" fill="#979797"/>
<path opacity="0.4" d="M57.6519 123.716L60.1969 122.488C60.1969 122.488 60.4908 119.304 60.4406 119.475C60.3904 119.647 55.665 122.09 55.665 122.09L57.6523 123.716L57.6519 123.716Z" fill="black"/>
<path opacity="0.2" d="M60.1973 122.485L63.3179 125.202C63.3179 125.202 66.0379 123.684 65.8682 123.69C65.6985 123.697 60.4409 119.473 60.4409 119.473L60.1973 122.485Z" fill="black"/>
<path opacity="0.3" d="M63.318 125.205C63.318 125.205 61.2753 126.536 60.9276 126.397C60.5799 126.258 57.6523 123.717 57.6523 123.717L60.1973 122.488L63.318 125.205Z" fill="black"/>
<path opacity="0.4" d="M64.0678 120.023L66.4108 118.893C66.4108 118.893 66.6812 115.961 66.635 116.119C66.5888 116.278 62.2383 118.527 62.2383 118.527L64.0678 120.024V120.023Z" fill="black"/>
<path opacity="0.2" d="M66.4102 118.89L69.2832 121.392C69.2832 121.392 71.7872 119.994 71.6311 120C71.4749 120.006 66.6344 116.117 66.6344 116.117L66.4102 118.89Z" fill="black"/>
<path opacity="0.3" d="M69.2843 121.395C69.2843 121.395 67.4037 122.621 67.0837 122.493C66.7637 122.364 64.0684 120.025 64.0684 120.025L66.4113 118.895L69.2843 121.395Z" fill="black"/>
<path opacity="0.4" d="M70.3751 116.465L72.578 115.402C72.578 115.402 72.8321 112.646 72.7886 112.795C72.7452 112.944 68.6553 115.058 68.6553 115.058L70.3755 116.465H70.3751Z" fill="black"/>
<path opacity="0.2" d="M72.5781 115.4L75.279 117.752C75.279 117.752 77.6333 116.438 77.4861 116.443C77.3392 116.449 72.7888 112.793 72.7888 112.793L72.5781 115.4Z" fill="black"/>
<path opacity="0.3" d="M75.2806 117.754C75.2806 117.754 73.5127 118.906 73.2118 118.785C72.9109 118.665 70.377 116.466 70.377 116.466L72.5798 115.402L75.2806 117.754V117.754Z" fill="black"/>
<path opacity="0.4" d="M50.676 117.906L53.265 116.773C53.265 116.773 53.6774 113.602 53.6208 113.772C53.5641 113.942 48.751 116.207 48.751 116.207L50.6763 117.906L50.676 117.906Z" fill="black"/>
<path opacity="0.2" d="M53.2656 116.77L56.2828 119.602C56.2828 119.602 59.0576 118.186 58.8876 118.186C58.7175 118.186 53.6214 113.77 53.6214 113.77L53.2656 116.771V116.77Z" fill="black"/>
<path opacity="0.3" d="M56.2836 119.605C56.2836 119.605 54.1926 120.858 53.8508 120.706C53.5086 120.554 50.6777 117.906 50.6777 117.906L53.2668 116.773L56.2839 119.605L56.2836 119.605Z" fill="black"/>
<path opacity="0.4" d="M57.546 114.288L59.9296 113.246C59.9296 113.246 60.309 110.326 60.257 110.483C60.2049 110.639 55.7734 112.724 55.7734 112.724L57.546 114.288Z" fill="black"/>
<path opacity="0.2" d="M59.9277 113.244L62.7053 115.85C62.7053 115.85 65.2598 114.547 65.1034 114.547C64.9469 114.547 60.2551 110.48 60.2551 110.48L59.9277 113.244Z" fill="black"/>
<path opacity="0.3" d="M62.7071 115.853C62.7071 115.853 60.7821 117.007 60.4673 116.867C60.1522 116.727 57.5459 114.289 57.5459 114.289L59.9295 113.246L62.7071 115.853Z" fill="black"/>
<path opacity="0.4" d="M63.269 111.045L65.4586 109.955C65.4586 109.955 65.6794 107.196 65.6379 107.346C65.5963 107.495 61.5322 109.659 61.5322 109.659L63.269 111.045Z" fill="black"/>
<path opacity="0.2" d="M65.4583 109.953L68.1875 112.272C68.1875 112.272 70.5255 110.929 70.3786 110.937C70.2317 110.944 65.6373 107.344 65.6373 107.344L65.458 109.953H65.4583Z" fill="black"/>
<path opacity="0.3" d="M68.1893 112.275C68.1893 112.275 66.4355 113.449 66.1331 113.332C65.8309 113.215 63.2705 111.047 63.2705 111.047L65.4601 109.957L68.1893 112.276V112.275Z" fill="black"/>
<path opacity="0.4" d="M44.2051 111.908L46.7239 110.814C46.7239 110.814 47.1148 107.773 47.0603 107.936C47.0058 108.099 42.3232 110.287 42.3232 110.287L44.2051 111.909V111.908Z" fill="black"/>
<path opacity="0.2" d="M46.7239 110.812L49.6737 113.515C49.6737 113.515 52.3727 112.148 52.207 112.149C52.0416 112.149 47.06 107.934 47.06 107.934L46.7236 110.811L46.7239 110.812Z" fill="black"/>
<path opacity="0.3" d="M49.6736 113.519C49.6736 113.519 47.6405 114.728 47.3066 114.584C46.9728 114.439 44.2051 111.911 44.2051 111.911L46.7239 110.816L49.6736 113.519Z" fill="black"/>
<path opacity="0.4" d="M50.7079 108.686L53.1106 107.736C53.1106 107.736 53.4932 105.078 53.4408 105.22C53.3881 105.363 48.9209 107.262 48.9209 107.262L50.7079 108.686Z" fill="black"/>
<path opacity="0.2" d="M53.1104 107.734L55.9107 110.108C55.9107 110.108 58.4859 108.922 58.3282 108.922C58.1705 108.922 53.4405 105.219 53.4405 105.219L53.1104 107.735V107.734Z" fill="black"/>
<path opacity="0.3" d="M55.9114 110.112C55.9114 110.112 53.9707 111.163 53.6531 111.035C53.3356 110.908 50.708 108.688 50.708 108.688L53.1107 107.738L55.9114 110.112Z" fill="black"/>
<path opacity="0.4" d="M56.6558 105.918L58.8965 105.107C58.8965 105.107 59.2532 102.836 59.2042 102.958C59.1553 103.08 54.9893 104.701 54.9893 104.701L56.6558 105.918Z" fill="black"/>
<path opacity="0.2" d="M58.8955 105.106L61.5067 107.133C61.5067 107.133 63.9082 106.12 63.7613 106.12C63.6144 106.12 59.2032 102.957 59.2032 102.957L58.8955 105.106Z" fill="black"/>
<path opacity="0.3" d="M61.5085 107.133C61.5085 107.133 59.6987 108.03 59.4027 107.921C59.1067 107.813 56.6562 105.916 56.6562 105.916L58.897 105.105L61.5082 107.133H61.5085Z" fill="black"/>
<path opacity="0.2" d="M59.2682 132.995C59.5525 131.365 59.8097 129.599 60.0502 127.754L60.0508 127.75C65.0512 126.964 75.696 120.103 80.6548 116.758C80.73 117.486 81.1026 121.664 79.9784 123.48C78.7449 125.472 63.5617 136.385 59.4813 134.392C59.3584 134.332 59.2217 134.26 59.0732 134.177C59.137 133.802 59.2026 133.404 59.2682 132.995V132.995Z" fill="black"/>
<path opacity="0.4" d="M60.0495 127.757C60.0424 127.808 59.6562 130.574 59.2675 132.998C59.1979 133.397 59.1265 133.787 59.0531 134.169C54.2376 131.459 37.1981 117.905 37.7494 115.056C38.1698 112.882 38.6577 110.975 39.2968 109.828L60.0498 127.752L60.0492 127.757L60.0495 127.757Z" fill="black"/>
<path opacity="0.2" d="M59.0721 134.181C59.0657 134.178 59.0595 134.174 59.0527 134.171C59.126 133.789 59.1972 133.399 59.2671 133C59.2015 133.408 59.1362 133.807 59.0721 134.181Z" fill="white"/>
<path opacity="0.2" d="M59.0721 134.181C59.0657 134.178 59.0595 134.174 59.0527 134.171C59.126 133.789 59.1972 133.399 59.2671 133C59.2015 133.408 59.1362 133.807 59.0721 134.181Z" fill="black"/>
<path d="M74.4548 119.508C74.3406 118.863 73.7153 118.454 73.1369 118.147C72.0111 117.549 70.8414 117.034 69.6399 116.608C70.3553 116.442 71.0924 116.266 71.6856 115.833C72.2788 115.4 72.6961 114.639 72.5027 113.93C72.3151 113.243 71.644 112.819 71.0145 112.487C68.6918 111.26 66.1943 110.364 63.6212 109.836L58.7539 120.662C59.2661 122.74 61.7591 124.079 63.7749 123.359C64.6912 123.032 65.4569 122.367 66.3723 122.037C67.5987 121.595 68.9475 121.797 70.2494 121.864C71.5513 121.93 72.9897 121.8 73.9149 120.882C74.2783 120.521 74.5438 120.012 74.4545 119.507L74.4548 119.508Z" fill="#A24E3F"/>
<path opacity="0.2" d="M80.6401 116.654C80.6401 116.654 81.2096 121.493 79.9758 123.486C78.7419 125.479 63.5591 136.391 59.4787 134.399C55.3983 132.406 37.1779 118.001 37.7474 115.059C38.3169 112.118 38.9958 109.612 40.0396 108.948C41.0834 108.283 54.7339 100.711 58.5297 101.66C62.3255 102.609 80.0706 115.42 80.6401 116.654Z" fill="black"/>
<path d="M73.3562 111.807C73.5309 111.617 73.5909 111.329 73.5062 111.086C73.4218 110.842 73.1967 110.653 72.942 110.612C72.7248 110.577 72.4763 110.636 72.3019 110.501C72.1941 110.418 72.1449 110.28 72.0571 110.176C71.8945 109.983 71.6111 109.928 71.3641 109.979C71.1171 110.029 70.8984 110.169 70.6914 110.313C70.5217 110.085 70.2171 109.965 69.9371 110.017C69.6572 110.068 69.4157 110.289 69.339 110.564C69.0104 110.347 68.5641 110.471 68.2277 110.675C68.0438 110.786 67.8655 110.929 67.7845 111.128C67.7035 111.327 67.7528 111.592 67.9407 111.697C67.6656 111.65 67.3681 111.81 67.2563 112.066C67.1442 112.321 67.228 112.648 67.4494 112.819C67.1547 112.908 66.9572 113.241 67.0207 113.542C67.0841 113.844 67.3989 114.069 67.7044 114.032C67.6391 114.276 67.7278 114.555 67.9222 114.717C68.1165 114.879 68.4067 114.915 68.6352 114.807C68.5548 115.058 68.6306 115.353 68.8225 115.535C69.0144 115.716 69.3128 115.775 69.5595 115.681C69.5238 115.984 69.7046 116.301 69.9842 116.424C70.2639 116.547 70.6197 116.467 70.8192 116.236C71.0786 116.527 71.455 116.749 71.8418 116.702C72.2286 116.655 72.5714 116.251 72.4519 115.881C72.7492 116.055 73.1687 115.904 73.3384 115.604C73.5081 115.304 73.4502 114.91 73.2515 114.628C73.4788 114.715 73.7529 114.581 73.8626 114.363C73.9719 114.146 73.934 113.874 73.8075 113.666C73.6809 113.458 73.4773 113.307 73.2601 113.198C73.5235 113.102 73.7126 112.831 73.7111 112.55C73.7095 112.27 73.5173 112 73.2527 111.908" fill="#263238"/>
<g opacity="0.3">
<path d="M72.6889 113.461C72.4964 113.311 72.3772 113.071 72.3741 112.827C72.371 112.583 72.4844 112.34 72.6729 112.185C72.5241 112.206 72.4431 112.124 72.3569 112.001C72.2709 111.878 72.2768 111.733 72.2546 111.586C72.0831 111.826 72.0769 112.136 71.8231 112.064C72.1074 112.356 72.1311 112.73 71.4945 113.006C71.7356 113.08 71.9134 113.324 71.9097 113.576C71.906 113.828 71.7209 114.067 71.4775 114.134C71.8262 114.312 72.0701 114.679 72.0985 115.07C72.2303 114.873 72.3621 114.677 72.4939 114.48C72.2608 114.168 72.3572 113.664 72.6889 113.46V113.461Z" fill="black"/>
</g>
<g opacity="0.3">
<path d="M68.2756 112.168C68.3865 112.243 68.4422 112.341 68.4354 112.456C68.4287 112.572 68.3437 112.681 68.2309 112.707C68.0837 112.741 67.9396 112.639 67.8404 112.524C67.7785 112.453 67.7218 112.362 67.7443 112.27C67.7609 112.203 67.8191 112.151 67.8835 112.125C67.9479 112.098 67.9639 112.092 68.0332 112.086C68.0332 112.086 68.1376 112.075 68.2756 112.168V112.168Z" fill="white"/>
</g>
<g opacity="0.3">
<path d="M69.034 111.209C68.9515 111.143 68.8018 111.115 68.7035 111.155C68.6515 111.177 68.5985 111.198 68.5548 111.234C68.511 111.269 68.4765 111.32 68.4747 111.376C68.4716 111.476 68.5662 111.549 68.6524 111.6C68.7282 111.644 68.8107 111.687 68.8985 111.683C69.0044 111.678 69.1012 111.597 69.1289 111.495C69.1566 111.392 69.1162 111.276 69.0337 111.21L69.034 111.209Z" fill="white"/>
</g>
<g opacity="0.3">
<path d="M70.424 110.761C70.3316 110.65 70.1776 110.627 70.0488 110.692C70.0153 110.709 69.9841 110.731 69.9573 110.757C69.8865 110.827 69.8526 110.941 69.8967 111.03C69.929 111.096 69.9965 111.138 70.0667 111.158C70.1619 111.185 70.2694 111.177 70.3528 111.123C70.4363 111.07 70.4911 110.97 70.4797 110.872C70.4757 110.836 70.4542 110.797 70.424 110.761Z" fill="white"/>
</g>
<g opacity="0.3">
<path d="M70.2753 111.774C70.1875 111.709 70.0769 111.682 69.9682 111.668L69.9205 111.66C69.8222 111.66 69.72 111.672 69.6362 111.723C69.5524 111.775 69.4921 111.874 69.5115 111.971C69.5339 112.083 69.6479 112.15 69.7529 112.196C69.8697 112.248 69.995 112.292 70.1219 112.28C70.2488 112.268 70.3769 112.184 70.4019 112.059C70.4231 111.951 70.3631 111.84 70.2753 111.774Z" fill="white"/>
</g>
<g opacity="0.3">
<path d="M71.84 116.701C72.2269 116.653 72.5697 116.25 72.4502 115.879C72.7474 116.054 73.1669 115.902 73.3366 115.602C73.4145 115.465 73.4425 115.307 73.4327 115.15C73.2756 115.208 73.1025 115.221 72.9417 115.171C72.7813 115.494 72.3378 115.639 72.0174 115.473C72.0636 115.742 71.8477 116.026 71.5764 116.055C71.305 116.083 71.0349 115.849 71.0251 115.576C70.8261 115.711 70.547 115.716 70.3435 115.588C70.1399 115.46 70.0237 115.206 70.0598 114.968C69.8584 115.139 69.5402 115.154 69.3237 115.002C69.1071 114.851 69.012 114.547 69.1034 114.299C68.8838 114.35 68.6421 114.364 68.4428 114.259C68.2435 114.154 68.1108 113.899 68.2032 113.693C67.9792 113.848 67.6605 113.85 67.4341 113.699C67.2246 113.559 67.1085 113.296 67.1372 113.047C67.034 113.188 66.9832 113.369 67.0195 113.541C67.083 113.842 67.3977 114.068 67.7033 114.031C67.638 114.275 67.7267 114.554 67.921 114.716C68.1154 114.877 68.4055 114.914 68.6341 114.806C68.5537 115.057 68.6294 115.352 68.8213 115.533C69.0132 115.715 69.3116 115.774 69.5584 115.68C69.5226 115.983 69.7034 116.3 69.9831 116.423C70.2628 116.546 70.6185 116.466 70.8181 116.235C71.0774 116.525 71.4538 116.748 71.8406 116.701H71.84Z" fill="black"/>
</g>
<path d="M22.6859 115.564C22.6859 115.564 22.0486 120.982 23.4294 123.212C24.8105 125.443 41.8068 137.659 46.3748 135.428C50.9427 133.198 71.3391 117.072 70.7015 113.779C70.0643 110.486 69.3041 107.681 68.1356 106.937C66.967 106.194 51.6859 97.7172 47.4368 98.7795C43.1876 99.8417 23.3228 114.182 22.6856 115.564L22.6859 115.564Z" fill="#979797"/>
<path opacity="0.4" d="M48.4237 123.47L45.575 122.095C45.575 122.095 45.246 118.53 45.3024 118.722C45.3588 118.915 50.6487 121.65 50.6487 121.65L48.4237 123.47Z" fill="black"/>
<path opacity="0.2" d="M45.5765 122.095L42.0831 125.136C42.0831 125.136 39.0382 123.437 39.2283 123.444C39.4183 123.451 45.3039 118.723 45.3039 118.723L45.5765 122.095Z" fill="black"/>
<path opacity="0.3" d="M42.082 125.135C42.082 125.135 44.3686 126.625 44.7576 126.469C45.1466 126.313 48.4241 123.469 48.4241 123.469L45.5754 122.094L42.082 125.135V125.135Z" fill="black"/>
<path opacity="0.4" d="M41.2432 119.334L38.6203 118.069C38.6203 118.069 38.3175 114.787 38.3692 114.964C38.421 115.141 43.2911 117.659 43.2911 117.659L41.2429 119.334L41.2432 119.334Z" fill="black"/>
<path opacity="0.2" d="M38.6197 118.066L35.4036 120.866C35.4036 120.866 32.6005 119.301 32.7754 119.307C32.9504 119.314 38.3687 114.961 38.3687 114.961L38.6197 118.066Z" fill="black"/>
<path opacity="0.3" d="M35.4046 120.866C35.4046 120.866 37.5098 122.238 37.868 122.094C38.2262 121.951 41.2434 119.332 41.2434 119.332L38.6204 118.066L35.4046 120.866Z" fill="black"/>
<path opacity="0.4" d="M34.181 115.353L31.7152 114.163C31.7152 114.163 31.4306 111.078 31.4792 111.245C31.5279 111.411 36.1063 113.778 36.1063 113.778L34.1807 115.354L34.181 115.353Z" fill="black"/>
<path opacity="0.2" d="M31.715 114.165L28.6914 116.797C28.6914 116.797 26.0558 115.326 26.2203 115.332C26.3848 115.338 31.4788 111.246 31.4788 111.246L31.7147 114.165H31.715Z" fill="black"/>
<path opacity="0.3" d="M28.6888 116.797C28.6888 116.797 30.668 118.086 31.0046 117.951C31.3413 117.816 34.178 115.354 34.178 115.354L31.7121 114.164L28.6888 116.797Z" fill="black"/>
<path opacity="0.4" d="M56.2289 116.963L53.3309 115.695C53.3309 115.695 52.8696 112.145 52.9327 112.335C52.9961 112.526 58.3843 115.061 58.3843 115.061L56.2289 116.963Z" fill="black"/>
<path opacity="0.2" d="M53.3301 115.695L49.9526 118.865C49.9526 118.865 46.8464 117.28 47.0367 117.28C47.2271 117.28 52.9318 112.336 52.9318 112.336L53.3301 115.696V115.695Z" fill="black"/>
<path opacity="0.3" d="M49.9531 118.865C49.9531 118.865 52.2936 120.268 52.6768 120.098C53.0596 119.928 56.2286 116.963 56.2286 116.963L53.3307 115.695L49.9531 118.865V118.865Z" fill="black"/>
<path opacity="0.4" d="M48.5402 112.915L45.872 111.748C45.872 111.748 45.4473 108.48 45.5055 108.655C45.5637 108.83 50.5243 111.165 50.5243 111.165L48.5402 112.915Z" fill="black"/>
<path opacity="0.2" d="M45.8721 111.745L42.7626 114.663C42.7626 114.663 39.9031 113.204 40.078 113.204C40.253 113.204 45.5056 108.652 45.5056 108.652L45.8721 111.745Z" fill="black"/>
<path opacity="0.3" d="M42.761 114.668C42.761 114.668 44.9158 115.96 45.2685 115.803C45.6211 115.646 48.5385 112.917 48.5385 112.917L45.8703 111.75L42.761 114.668Z" fill="black"/>
<path opacity="0.4" d="M42.134 109.285L39.6829 108.065C39.6829 108.065 39.4359 104.976 39.4824 105.143C39.5292 105.311 44.0787 107.733 44.0787 107.733L42.1343 109.284L42.134 109.285Z" fill="black"/>
<path opacity="0.2" d="M39.6827 108.062L36.6273 110.657C36.6273 110.657 34.01 109.155 34.1744 109.163C34.3389 109.171 39.4822 105.141 39.4822 105.141L39.6827 108.062Z" fill="black"/>
<path opacity="0.3" d="M36.626 110.662C36.626 110.662 38.5895 111.976 38.9277 111.845C39.2658 111.714 42.1324 109.286 42.1324 109.286L39.6813 108.066L36.626 110.662V110.662Z" fill="black"/>
<path opacity="0.4" d="M63.4754 110.254L60.6556 109.029C60.6556 109.029 60.2183 105.625 60.2793 105.808C60.3403 105.991 65.5821 108.439 65.5821 108.439L63.4754 110.254Z" fill="black"/>
<path opacity="0.2" d="M60.6551 109.026L57.353 112.052C57.353 112.052 54.3316 110.522 54.517 110.523C54.7024 110.524 60.2787 105.805 60.2787 105.805L60.6551 109.026Z" fill="black"/>
<path opacity="0.3" d="M57.3535 112.053C57.3535 112.053 59.6296 113.407 60.0032 113.245C60.3772 113.083 63.4753 110.253 63.4753 110.253L60.6556 109.027L57.3535 112.053Z" fill="black"/>
<path opacity="0.4" d="M56.1987 106.644L53.5089 105.581C53.5089 105.581 53.0805 102.605 53.1393 102.764C53.1982 102.924 58.1992 105.049 58.1992 105.049L56.1987 106.644Z" fill="black"/>
<path opacity="0.2" d="M53.5072 105.578L50.3724 108.235C50.3724 108.235 47.4895 106.907 47.666 106.907C47.8425 106.907 53.1376 102.762 53.1376 102.762L53.5072 105.578Z" fill="black"/>
<path opacity="0.3" d="M50.375 108.236C50.375 108.236 52.5473 109.412 52.9028 109.269C53.2582 109.127 56.1996 106.641 56.1996 106.641L53.5098 105.578L50.375 108.235V108.236Z" fill="black"/>
<path opacity="0.4" d="M49.5379 103.541L47.0295 102.633C47.0295 102.633 46.63 100.092 46.6849 100.228C46.7397 100.364 51.4034 102.18 51.4034 102.18L49.5379 103.541V103.541Z" fill="black"/>
<path opacity="0.2" d="M47.0304 102.632L44.1072 104.901C44.1072 104.901 41.4187 103.767 41.5834 103.767C41.7482 103.767 46.6861 100.227 46.6861 100.227L47.0304 102.632Z" fill="black"/>
<path opacity="0.3" d="M44.1064 104.902C44.1064 104.902 46.1325 105.907 46.4639 105.785C46.7953 105.663 49.5383 103.54 49.5383 103.54L47.03 102.633L44.1064 104.902Z" fill="black"/>
<path opacity="0.2" d="M46.6128 133.864C46.2947 132.039 46.007 130.063 45.7375 127.997L45.7369 127.992C40.1393 127.113 28.2231 119.432 22.6717 115.688C22.5876 116.502 22.1703 121.179 23.4287 123.212C24.8095 125.443 41.8062 137.659 46.3741 135.428C46.5115 135.361 46.6649 135.28 46.8312 135.187C46.7597 134.768 46.6864 134.322 46.6131 133.864H46.6128Z" fill="black"/>
<path opacity="0.4" d="M45.7369 127.996C45.745 128.053 46.1774 131.149 46.6123 133.863C46.6902 134.31 46.7703 134.747 46.8522 135.174C52.2428 132.141 71.3179 116.968 70.7003 113.778C70.2294 111.345 69.6836 109.21 68.9682 107.926L45.7363 127.991L45.7369 127.996Z" fill="black"/>
<path opacity="0.2" d="M46.8326 135.186C46.84 135.182 46.8468 135.178 46.8542 135.174C46.7723 134.747 46.6922 134.31 46.6143 133.863C46.6876 134.321 46.7609 134.767 46.8323 135.186L46.8326 135.186Z" fill="white"/>
<path opacity="0.2" d="M46.8326 135.186C46.84 135.182 46.8468 135.178 46.8542 135.174C46.7723 134.747 46.6922 134.31 46.6143 133.863C46.6876 134.321 46.7609 134.767 46.8323 135.186L46.8326 135.186Z" fill="black"/>
<path d="M58.2365 108.171C57.8555 107.221 56.8835 106.478 55.7654 106.075C54.6474 105.672 53.3941 105.58 52.1744 105.636C51.5406 105.666 50.8947 105.737 50.3289 105.974C49.7634 106.21 49.2854 106.637 49.1902 107.151C49.0778 107.758 49.4992 108.346 49.5435 108.959C49.6254 110.095 48.3602 111.05 47.0105 111.32C45.6609 111.59 44.2481 111.354 42.8781 111.165C39.7614 110.735 36.4267 110.577 33.5663 111.678C32.9177 111.928 32.2327 112.33 32.1886 112.916C32.1563 113.345 32.5003 113.747 32.9389 113.984C33.3772 114.22 33.8999 114.324 34.4109 114.424L37.1782 114.963C37.5651 115.039 38.0379 115.196 38.0453 115.522C38.0536 115.891 37.4761 116.037 37.0307 116.097C36.1295 116.219 35.2498 116.449 34.4281 116.776C33.7671 117.039 33.0483 117.553 33.2697 118.127C33.404 118.475 33.8386 118.674 34.2408 118.832C39.4072 120.851 45.3963 121.419 50.9936 120.436C51.5326 120.341 52.0802 120.228 52.5416 119.981C53.003 119.734 53.3704 119.326 53.3781 118.875C53.3892 118.235 52.6977 117.725 51.9733 117.486C51.2489 117.248 50.4496 117.187 49.732 116.935C49.3393 116.797 48.93 116.533 48.9586 116.184C48.998 115.703 49.7573 115.55 50.3434 115.509C52.115 115.385 53.8694 115.095 55.5612 114.646C56.1686 114.485 56.8878 114.16 56.8283 113.64C56.7741 113.165 56.1091 112.933 55.5498 112.8C53.8928 112.406 52.2354 112.012 50.5784 111.618C52.6928 110.974 54.8072 110.331 56.922 109.688C57.2623 109.584 57.6177 109.472 57.8533 109.246C58.089 109.02 58.502 108.375 58.2371 108.171" fill="#A24E3F"/>
<path opacity="0.2" d="M40.4041 111.399C40.2923 111.389 32.9856 111.736 33.3093 112.813C33.633 113.89 39.392 114.175 39.221 115.378C39.0501 116.582 33.6921 116.993 35.0168 118.007C36.3415 119.02 40.048 119.971 41.2415 118.799C42.435 117.627 42.7883 111.6 40.4041 111.399Z" fill="white"/>
<path d="M48.8285 102.85C48.8038 102.48 48.5633 102.133 48.2257 101.98C47.8884 101.826 47.4683 101.874 47.1736 102.098C46.9222 102.29 46.7371 102.607 46.4248 102.656C46.2314 102.686 46.0392 102.6 45.8439 102.589C45.482 102.568 45.1442 102.808 44.9523 103.115C44.7604 103.423 44.6889 103.788 44.635 104.147C44.2291 104.097 43.8025 104.296 43.5792 104.639C43.3559 104.982 43.347 105.452 43.5567 105.804C43.0063 105.932 42.6931 106.519 42.5724 107.071C42.5065 107.373 42.4784 107.7 42.6059 107.982C42.7334 108.264 43.0581 108.475 43.3535 108.383C43.0316 108.622 42.9041 109.091 43.0593 109.46C43.2145 109.83 43.6384 110.066 44.0347 110.004C43.8361 110.4 43.9876 110.935 44.3643 111.167C44.7407 111.4 45.2874 111.295 45.5513 110.94C45.7414 111.25 46.1193 111.433 46.4803 111.391C46.8412 111.349 47.1665 111.082 47.2795 110.737C47.4619 111.07 47.8438 111.283 48.2226 111.263C48.6015 111.242 48.9587 110.99 49.1044 110.64C49.385 110.978 49.8938 111.102 50.2992 110.933C50.7042 110.764 50.9728 110.314 50.9296 109.877C51.4893 109.895 52.0936 109.723 52.4271 109.274C52.7607 108.824 52.68 108.068 52.1755 107.825C52.6514 107.688 52.9092 107.101 52.7647 106.628C52.6202 106.154 52.1524 105.824 51.6624 105.752C51.9781 105.602 52.1096 105.183 51.9913 104.854C51.873 104.525 51.5527 104.295 51.2108 104.221C50.8693 104.148 50.5104 104.21 50.1809 104.328C50.342 103.958 50.2462 103.493 49.953 103.217C49.6594 102.941 49.1888 102.875 48.8303 103.058" fill="#263238"/>
<g opacity="0.3">
<path d="M49.8892 105.189C49.5424 105.241 49.1747 105.128 48.9175 104.889C48.6603 104.651 48.5195 104.293 48.5454 103.943C48.4194 104.118 48.2537 104.121 48.0403 104.089C47.8268 104.057 47.6824 103.908 47.5068 103.785C47.5869 104.201 47.9038 104.514 47.578 104.708C48.1638 104.701 48.5762 105.046 48.2334 105.983C48.5491 105.805 48.9797 105.861 49.2387 106.115C49.4977 106.369 49.5634 106.798 49.3918 107.117C49.9222 106.93 50.5468 107.04 50.9814 107.397C50.9072 107.065 50.8326 106.733 50.7584 106.401C50.2028 106.335 49.7734 105.736 49.8895 105.189H49.8892Z" fill="black"/>
</g>
<g opacity="0.3">
<path d="M44.1787 108.501C44.3663 108.459 44.5237 108.498 44.6374 108.619C44.751 108.741 44.7803 108.937 44.6959 109.08C44.5856 109.267 44.3364 109.316 44.1193 109.307C43.9841 109.301 43.8326 109.269 43.7596 109.155C43.7057 109.071 43.7097 108.96 43.7454 108.866C43.7814 108.773 43.7907 108.75 43.8538 108.672C43.8538 108.672 43.9453 108.552 44.1784 108.5L44.1787 108.501Z" fill="white"/>
</g>
<g opacity="0.3">
<path d="M43.9217 106.757C43.7708 106.778 43.5937 106.906 43.5379 107.048C43.5087 107.123 43.4788 107.2 43.472 107.28C43.4652 107.36 43.4843 107.447 43.5413 107.504C43.6426 107.607 43.8117 107.58 43.9503 107.541C44.0717 107.506 44.198 107.462 44.2805 107.366C44.38 107.251 44.3917 107.071 44.3125 106.94C44.2337 106.81 44.0726 106.737 43.9217 106.757Z" fill="white"/>
</g>
<g opacity="0.3">
<path d="M44.83 104.864C44.6234 104.851 44.4472 104.989 44.3874 105.187C44.3717 105.239 44.3634 105.292 44.3643 105.346C44.3674 105.489 44.4521 105.637 44.5889 105.68C44.689 105.711 44.7995 105.682 44.8901 105.629C45.0127 105.557 45.11 105.436 45.1371 105.297C45.1642 105.157 45.1143 105.001 45.0007 104.916C44.9594 104.885 44.8975 104.868 44.83 104.864V104.864Z" fill="white"/>
</g>
<g opacity="0.3">
<path d="M45.7419 106.027C45.5867 106.053 45.4493 106.142 45.328 106.242L45.2722 106.284C45.1746 106.386 45.0859 106.504 45.0566 106.642C45.0274 106.781 45.0711 106.942 45.1906 107.017C45.3301 107.105 45.5128 107.053 45.6646 106.989C45.8337 106.918 46.0043 106.832 46.1174 106.688C46.2304 106.543 46.2695 106.326 46.1636 106.177C46.0727 106.048 45.8972 106 45.7419 106.027Z" fill="white"/>
</g>
<g opacity="0.3">
<path d="M52.4249 109.272C52.7585 108.823 52.6778 108.067 52.1733 107.824C52.6492 107.686 52.907 107.1 52.7625 106.626C52.6963 106.409 52.5598 106.224 52.3864 106.078C52.2913 106.299 52.1336 106.492 51.9226 106.611C52.1003 107.098 51.812 107.703 51.3217 107.872C51.6475 108.09 51.7307 108.597 51.4914 108.908C51.2521 109.218 50.7408 109.267 50.4466 109.008C50.3906 109.349 50.1192 109.645 49.7844 109.73C49.4497 109.815 49.0699 109.685 48.858 109.412C48.8364 109.791 48.5371 110.137 48.165 110.212C47.7929 110.288 47.3824 110.086 47.2145 109.746C47.0509 110.025 46.8258 110.291 46.5187 110.394C46.2117 110.498 45.8156 110.384 45.6927 110.084C45.632 110.471 45.3191 110.805 44.9375 110.891C44.5845 110.971 44.1955 110.831 43.9639 110.555C44.0088 110.803 44.1471 111.034 44.3621 111.167C44.7385 111.399 45.2852 111.294 45.5491 110.939C45.7392 111.249 46.1171 111.432 46.4781 111.39C46.839 111.348 47.1643 111.082 47.2773 110.737C47.4597 111.07 47.8416 111.282 48.2204 111.262C48.5993 111.242 48.9565 110.99 49.1022 110.639C49.3828 110.977 49.8916 111.102 50.297 110.933C50.702 110.763 50.9709 110.313 50.9274 109.877C51.4871 109.894 52.0914 109.723 52.4249 109.273V109.272Z" fill="black"/>
</g>
<path d="M48.7175 110.37C48.9426 110.125 49.0199 109.754 48.9112 109.439C48.8025 109.125 48.5117 108.881 48.1834 108.828C47.9034 108.783 47.5825 108.858 47.358 108.685C47.2188 108.578 47.1556 108.4 47.0423 108.266C46.8325 108.017 46.4669 107.946 46.1482 108.011C45.8294 108.076 45.5472 108.256 45.2808 108.443C45.0618 108.148 44.6688 107.993 44.3079 108.06C43.9469 108.127 43.6352 108.412 43.5363 108.765C43.1125 108.487 42.5365 108.646 42.1026 108.909C41.8651 109.053 41.6353 109.237 41.5309 109.494C41.4265 109.751 41.49 110.093 41.7324 110.228C41.3775 110.167 40.9941 110.373 40.8493 110.703C40.7049 111.033 40.813 111.455 41.0985 111.674C40.7184 111.789 40.4637 112.219 40.5456 112.608C40.6273 112.996 41.0335 113.287 41.4277 113.239C41.3437 113.554 41.4579 113.914 41.7086 114.123C41.9594 114.331 42.3336 114.379 42.6283 114.239C42.5245 114.563 42.6222 114.943 42.8698 115.177C43.1174 115.411 43.5021 115.487 43.8203 115.366C43.7741 115.757 44.0076 116.166 44.3682 116.325C44.7289 116.484 45.1878 116.38 45.4453 116.082C45.7798 116.456 46.2652 116.744 46.7642 116.683C47.2631 116.622 47.7051 116.102 47.5511 115.623C47.9345 115.848 48.4757 115.653 48.6944 115.266C48.9131 114.88 48.8385 114.371 48.5823 114.008C48.8755 114.12 49.2294 113.947 49.3704 113.666C49.5115 113.386 49.4625 113.036 49.2993 112.768C49.1361 112.5 48.8733 112.305 48.5934 112.163C48.9331 112.04 49.177 111.69 49.1752 111.328C49.173 110.966 48.9254 110.619 48.5841 110.499" fill="#D7504D"/>
<g opacity="0.3">
<path d="M47.8542 112.508C47.6059 112.315 47.4519 112.005 47.4482 111.691C47.4442 111.376 47.5902 111.063 47.8338 110.863C47.6416 110.89 47.5372 110.784 47.4264 110.625C47.3155 110.466 47.3229 110.28 47.2942 110.09C47.0731 110.399 47.0651 110.799 46.7377 110.707C47.1045 111.084 47.135 111.566 46.3139 111.922C46.6249 112.017 46.8544 112.332 46.8495 112.658C46.8445 112.983 46.6058 113.291 46.292 113.377C46.7417 113.607 47.0564 114.081 47.0931 114.584C47.2631 114.331 47.4331 114.077 47.6031 113.823C47.3022 113.421 47.4267 112.771 47.8545 112.509L47.8542 112.508Z" fill="black"/>
</g>
<g opacity="0.3">
<path d="M42.1664 110.84C42.3096 110.936 42.3811 111.063 42.3724 111.212C42.3638 111.361 42.2538 111.501 42.1085 111.535C41.9184 111.579 41.7327 111.447 41.6049 111.3C41.5251 111.208 41.4521 111.09 41.4811 110.972C41.5026 110.885 41.5775 110.818 41.6606 110.784C41.7438 110.75 41.7641 110.742 41.8538 110.735C41.8538 110.735 41.9884 110.72 42.1664 110.84V110.84Z" fill="white"/>
</g>
<g opacity="0.3">
<path d="M43.1414 109.59C43.0348 109.504 42.8417 109.468 42.7151 109.52C42.6479 109.547 42.5799 109.575 42.5232 109.621C42.4665 109.666 42.4222 109.732 42.42 109.805C42.416 109.934 42.538 110.028 42.6495 110.093C42.7471 110.15 42.8537 110.206 42.967 110.2C43.1035 110.194 43.2282 110.089 43.2642 109.958C43.3003 109.826 43.2479 109.676 43.1414 109.59Z" fill="white"/>
</g>
<g opacity="0.3">
<path d="M44.9331 109.014C44.8139 108.871 44.6152 108.842 44.4492 108.925C44.4058 108.947 44.3657 108.975 44.3312 109.009C44.2401 109.099 44.196 109.246 44.253 109.361C44.2946 109.445 44.3818 109.5 44.4723 109.526C44.5949 109.561 44.7335 109.55 44.8413 109.481C44.9491 109.412 45.0196 109.283 45.0048 109.157C44.9996 109.111 44.9722 109.06 44.9331 109.013V109.014Z" fill="white"/>
</g>
<g opacity="0.3">
<path d="M44.7431 110.327C44.6298 110.242 44.4872 110.208 44.3467 110.19L44.2851 110.18C44.1582 110.179 44.0267 110.195 43.9186 110.261C43.8105 110.328 43.7329 110.456 43.7575 110.58C43.7865 110.725 43.9337 110.812 44.0692 110.871C44.2198 110.938 44.3812 110.996 44.5451 110.98C44.7089 110.964 44.874 110.855 44.906 110.694C44.9335 110.555 44.8561 110.411 44.7428 110.327H44.7431Z" fill="white"/>
</g>
<g opacity="0.3">
<path d="M46.7642 116.685C47.2631 116.624 47.7051 116.104 47.5511 115.625C47.9346 115.85 48.4757 115.655 48.6944 115.268C48.7948 115.091 48.8308 114.888 48.8185 114.685C48.6158 114.759 48.3929 114.776 48.185 114.712C47.978 115.129 47.4057 115.316 46.9927 115.101C47.0524 115.448 46.774 115.816 46.4238 115.852C46.0736 115.889 45.7256 115.586 45.7126 115.235C45.4561 115.409 45.096 115.415 44.8333 115.25C44.5709 115.085 44.4209 114.757 44.4674 114.45C44.2074 114.671 43.7972 114.69 43.5181 114.495C43.2388 114.299 43.1162 113.907 43.2339 113.587C42.9508 113.654 42.6388 113.672 42.3816 113.536C42.1241 113.401 41.9535 113.072 42.0724 112.807C41.7835 113.006 41.3723 113.009 41.0803 112.814C40.8102 112.634 40.6602 112.294 40.6972 111.973C40.5641 112.155 40.4985 112.388 40.5453 112.61C40.6269 112.999 41.0332 113.29 41.4274 113.242C41.3434 113.557 41.4576 113.916 41.7083 114.125C41.959 114.334 42.3333 114.381 42.628 114.241C42.5242 114.565 42.6219 114.945 42.8695 115.18C43.1171 115.414 43.5018 115.49 43.82 115.368C43.7738 115.76 44.0069 116.168 44.3679 116.327C44.7289 116.486 45.1875 116.383 45.445 116.084C45.7795 116.459 46.2649 116.746 46.7638 116.685L46.7642 116.685Z" fill="black"/>
</g>
<path opacity="0.2" d="M45.9003 117.908C45.9003 118.251 45.2135 118.53 44.3662 118.53C43.5189 118.53 42.832 118.251 42.832 117.908C42.832 117.564 43.5189 117.285 44.3662 117.285C45.2135 117.285 45.9003 117.564 45.9003 117.908Z" fill="white"/>
<path d="M39.1271 85.5075C38.9192 82.3379 37.4642 80.1554 36.8926 78.5963C36.3209 77.0375 36.0139 73.7266 36.0139 73.7266L26.805 74.4839L17.5961 73.7266C17.5961 73.7266 17.289 77.0372 16.7174 78.5963C16.1457 80.1551 14.6907 82.3376 14.4828 85.5075C14.2749 88.6771 14.5934 99.0015 15.165 100.404C15.7367 101.807 18.5881 105.097 24.252 105.305H29.3583C35.0221 105.097 37.8736 101.808 38.4452 100.404C39.0169 99.0015 39.335 88.6771 39.1271 85.5075Z" fill="#979797"/>
<path opacity="0.6" d="M39.1271 85.5075C38.9192 82.3379 37.4642 80.1554 36.8926 78.5963C36.3209 77.0375 36.0139 73.7266 36.0139 73.7266L26.805 74.4839L17.5961 73.7266C17.5961 73.7266 17.289 77.0372 16.7174 78.5963C16.1457 80.1551 14.6907 82.3376 14.4828 85.5075C14.2749 88.6771 14.5934 99.0015 15.165 100.404C15.7367 101.807 18.5881 105.097 24.252 105.305H29.3583C35.0221 105.097 37.8736 101.808 38.4452 100.404C39.0169 99.0015 39.335 88.6771 39.1271 85.5075Z" fill="white"/>
<path d="M24.2773 103.908C19.0653 103.707 16.7815 100.677 16.4547 99.8748C16.0389 98.69 15.6447 89.0736 15.8726 85.5948C16.0096 83.5032 16.7793 81.848 17.3978 80.5178C17.6343 80.0096 17.8573 79.5294 18.0252 79.0723C18.4096 78.0236 18.6745 76.3894 18.8269 75.2227L26.8044 75.8787L34.7816 75.2227C34.9344 76.3897 35.199 78.0236 35.5833 79.0723C35.7512 79.5294 35.9742 80.0096 36.2107 80.5178C36.8292 81.848 37.5989 83.5032 37.736 85.5948C37.9639 89.074 37.5696 98.6903 37.1498 99.8859C36.8274 100.677 34.5435 103.707 29.3316 103.908H24.2773Z" fill="#979797"/>
<g opacity="0.2">
<path d="M32.4721 102.999C31.4074 103.399 30.2077 103.431 29.1236 103.086C30.5173 102.67 31.911 102.253 33.3047 101.837C33.6592 101.731 34.0248 101.619 34.3081 101.381C34.5915 101.144 34.7735 100.743 34.646 100.396C34.4378 99.8281 33.6582 99.7948 33.0573 99.8641C31.4286 100.052 29.767 100.241 28.1617 99.9091C26.184 99.5001 24.2907 98.3081 22.2964 98.6281C21.9949 98.6765 21.662 98.7895 21.5363 99.068C21.41 99.3479 21.5588 99.6907 21.7993 99.8817C22.0402 100.072 22.3506 100.146 22.6513 100.21C24.1845 100.537 25.7411 100.755 27.3051 100.861C27.5531 100.878 27.8115 100.895 28.0271 101.019C28.2427 101.142 28.3988 101.409 28.3123 101.642C28.2153 101.903 27.8925 101.985 27.6168 102.023C23.6966 102.561 19.5888 101.594 16.3203 99.3639C16.3203 99.3639 16.385 100.204 17.1821 100.949C17.9792 101.695 19.9137 103.654 24.2775 103.91C28.6412 104.167 32.0757 103.793 33.536 102.983C34.9965 102.173 35.6695 101.663 35.6695 101.663L32.4721 102.999Z" fill="black"/>
</g>
<path d="M26.64 75.6481C32.0628 75.6481 36.4588 73.8871 36.4588 71.7147C36.4588 69.5423 32.0628 67.7812 26.64 67.7812C21.2173 67.7812 16.8213 69.5423 16.8213 71.7147C16.8213 73.8871 21.2173 75.6481 26.64 75.6481Z" fill="#979797"/>
<path d="M37.0087 72.314C37.0087 74.8152 32.389 76.8428 26.6904 76.8428C22.7024 76.8428 19.2426 75.8498 17.5249 74.3963C16.7882 73.773 16.3721 73.0649 16.3721 72.314C16.3721 69.8127 20.9918 67.7852 26.6904 67.7852C32.389 67.7852 37.0087 69.8127 37.0087 72.314Z" fill="#979797"/>
<path opacity="0.6" d="M37.0087 72.314C37.0087 74.8152 32.389 76.8428 26.6904 76.8428C22.7024 76.8428 19.2426 75.8498 17.5249 74.3963C16.7882 73.773 16.3721 73.0649 16.3721 72.314C16.3721 69.8127 20.9918 67.7852 26.6904 67.7852C32.389 67.7852 37.0087 69.8127 37.0087 72.314Z" fill="white"/>
<path opacity="0.3" d="M26.7019 75.2259C31.3913 75.2259 35.1928 73.8427 35.1928 72.1364C35.1928 70.4301 31.3913 69.0469 26.7019 69.0469C22.0125 69.0469 18.2109 70.4301 18.2109 72.1364C18.2109 73.8427 22.0125 75.2259 26.7019 75.2259Z" fill="black"/>
<path d="M19.5918 73.6777C20.9562 74.5974 23.6281 75.2227 26.7023 75.2227C29.7764 75.2227 32.5324 74.6427 33.8969 73.723C32.5327 72.8033 29.7761 72.1328 26.7023 72.1328C23.6284 72.1328 20.9562 72.7577 19.5918 73.6777Z" fill="#979797"/>
<path opacity="0.2" d="M24.4748 76.1866C24.4748 76.1866 23.0568 81.6415 22.276 84.339C21.4952 87.0364 22.5785 103.083 22.5785 103.083C22.5785 103.083 17.5005 102.055 17.2288 97.9479C16.9572 93.8404 16.5983 85.741 17.0034 84.1228C17.4084 82.5045 18.8486 79.9294 19.2641 77.8901C19.6796 75.8508 19.8326 74.7969 19.8326 74.7969L24.4748 76.1863V76.1866Z" fill="white"/>
<path opacity="0.2" d="M21.1742 89.9519C21.1425 90.032 20.5554 89.1502 18.882 89.4437C17.2087 89.7372 16.0469 91.5646 16.6056 93.9518C17.2136 96.5495 19.0126 97.978 22.0181 97.747C25.0236 97.516 25.7224 95.3563 25.93 94.8484C26.4813 93.4988 26.5472 90.4835 24.7692 89.5157C22.8127 88.4507 21.4169 89.3405 21.1739 89.9519H21.1742Z" fill="#FF0000"/>
<g opacity="0.3">
<path d="M22.3743 89.8841C22.1174 90.2346 21.745 90.5155 21.312 90.55C21.02 90.5731 20.7295 90.5017 20.4493 90.4167C20.1819 90.3357 19.9186 90.2417 19.6602 90.1355C19.6602 90.1355 20.6923 90.0843 21.0665 90.1382C21.4407 90.1918 21.7478 89.7397 22.0327 89.6889C22.3176 89.6381 22.5301 89.6713 22.3743 89.8841Z" fill="black"/>
</g>
<g opacity="0.1">
<path d="M18.4002 90.3594C17.6576 90.5802 17.227 91.0709 17.0148 91.8159C16.8026 92.5613 16.8811 93.6913 17.5187 94.6569C17.4605 93.8619 17.7947 92.4732 18.3457 91.8975C18.8967 91.3219 19.6975 90.9935 20.494 91.017C19.2589 90.7154 19.0223 90.493 18.4002 90.3594Z" fill="white"/>
</g>
<g opacity="0.1">
<path d="M24.3964 90.0493C24.1066 89.6125 23.489 89.4287 23.0076 89.6359L22.9741 89.732C22.8573 89.9772 22.7406 90.2224 22.6239 90.4675C22.5971 90.5239 22.5694 90.5852 22.5808 90.6468C22.6017 90.7586 22.7332 90.8066 22.8453 90.8273C23.2556 90.9037 23.6819 90.8935 24.0878 90.7977C24.2286 90.7644 24.3782 90.7133 24.458 90.5926C24.5646 90.4315 24.5033 90.2104 24.3964 90.0493Z" fill="white"/>
</g>
<path opacity="0.1" d="M19.0047 90.8271C18.9625 90.7473 18.8941 90.6829 18.8152 90.6389C18.2639 90.33 17.9929 90.7202 17.6461 91.1101C17.3217 91.4745 17.0889 92.2626 17.2642 92.3652C17.4394 92.4678 18.0015 91.6254 18.7847 91.2099C19.0425 91.0732 19.0777 90.9657 19.0047 90.8274V90.8271Z" fill="white"/>
<path opacity="0.2" d="M34.9468 95.3756C34.8963 95.3057 35.9552 95.2835 36.6051 93.7136C37.255 92.1441 36.3362 90.1834 34.0216 89.3743C31.5031 88.494 29.3326 89.2458 27.9152 91.9063C26.4978 94.5668 27.9457 96.315 28.2629 96.7625C29.1062 97.9517 31.6155 99.6248 33.3862 98.6435C35.3343 97.5636 35.3324 95.9084 34.9468 95.3753V95.3756Z" fill="#FF0000"/>
<g opacity="0.3">
<path d="M34.3573 96.4252C34.1993 96.0205 34.162 95.5554 34.3653 95.1713C34.5024 94.9126 34.7186 94.7056 34.9406 94.515C35.1525 94.3329 35.3731 94.1611 35.6013 94C35.6013 94 35.0906 94.8984 34.8448 95.1855C34.5988 95.4725 34.8156 95.9743 34.7056 96.2419C34.5957 96.5096 34.4534 96.6713 34.3573 96.4252Z" fill="black"/>
</g>
<g opacity="0.1">
<path d="M36.0917 92.8153C36.3036 92.07 36.1207 91.4435 35.6054 90.8648C35.0904 90.2858 34.0943 89.7461 32.9375 89.7662C33.6394 90.1435 34.6324 91.1703 34.8228 91.9443C35.0131 92.7183 34.8607 93.5699 34.4134 94.2297C35.3304 93.3488 35.6454 93.2687 36.0917 92.8153Z" fill="white"/>
</g>
<g opacity="0.1">
<path d="M33.1328 98.0442C33.657 98.034 34.1433 97.6114 34.2268 97.0937L34.1637 97.0136C34.0195 96.7835 33.8751 96.5535 33.7309 96.3234C33.6977 96.2704 33.6607 96.2144 33.6028 96.1909C33.4972 96.1484 33.3863 96.2341 33.3087 96.3172C33.0241 96.6225 32.8042 96.9874 32.6671 97.3817C32.6197 97.5184 32.5827 97.6721 32.6418 97.8042C32.7207 97.9807 32.94 98.0473 33.1334 98.0436L33.1328 98.0442Z" fill="white"/>
</g>
<path opacity="0.1" d="M35.3717 93.0726C35.4616 93.0799 35.5528 93.0565 35.6322 93.0137C36.1888 92.7144 36.0046 92.2761 35.8617 91.7743C35.728 91.3053 35.1878 90.6859 35.0073 90.7789C34.8268 90.8719 35.2362 91.7981 35.1669 92.682C35.1441 92.9728 35.2158 93.0602 35.3717 93.0729V93.0726Z" fill="white"/>
<path opacity="0.2" d="M26.5656 81.3644C26.5447 81.4479 25.8474 80.6505 24.2267 81.1602C22.606 81.67 21.6931 83.6334 22.5595 85.9274C23.5019 88.4231 25.4722 89.6043 28.4219 88.9825C31.3716 88.3606 31.7819 86.1279 31.9211 85.5972C32.2913 84.1872 31.9624 81.1892 30.0731 80.462C27.9944 79.6621 26.7264 80.7266 26.5656 81.3644Z" fill="#FF0000"/>
<g opacity="0.3">
<path d="M27.7446 81.1424C27.5358 81.5234 27.2035 81.8508 26.7784 81.9414C26.4923 82.0024 26.1948 81.9694 25.9059 81.922C25.6302 81.8764 25.357 81.8179 25.0869 81.7464C25.0869 81.7464 26.1036 81.5607 26.4815 81.5653C26.8595 81.5696 27.1049 81.0811 27.3809 80.9937C27.6569 80.9062 27.8718 80.9114 27.745 81.1427L27.7446 81.1424Z" fill="black"/>
</g>
<g opacity="0.1">
<path d="M23.8687 82.1289C23.1612 82.4452 22.7987 82.9876 22.6856 83.7542C22.5726 84.5208 22.7984 85.6308 23.5567 86.5046C23.395 85.7242 23.5447 84.3037 24.0156 83.6609C24.4865 83.0181 25.2374 82.5878 26.0302 82.5071C24.7662 82.3698 24.5028 82.18 23.8687 82.1289Z" fill="white"/>
</g>
<g opacity="0.1">
<path d="M29.7708 81.0423C29.4262 80.6471 28.7902 80.5455 28.3399 80.8141L28.3192 80.9139C28.2355 81.1723 28.1517 81.4304 28.0682 81.6888C28.0488 81.7482 28.0297 81.8126 28.0491 81.872C28.0845 81.9802 28.2213 82.0103 28.3349 82.0165C28.7517 82.0387 29.1727 81.9728 29.5629 81.8249C29.6981 81.7735 29.8398 81.7033 29.9033 81.573C29.988 81.3993 29.898 81.1883 29.7711 81.0426L29.7708 81.0423Z" fill="white"/>
</g>
<path opacity="0.1" d="M24.5281 82.5142C24.4757 82.4405 24.3997 82.3857 24.3156 82.3521C23.7288 82.1178 23.5111 82.5403 23.2182 82.9721C22.9444 83.3759 22.8162 84.1878 23.0035 84.2664C23.1908 84.3449 23.6377 83.4363 24.3599 82.9219C24.5974 82.7528 24.6184 82.6414 24.5278 82.5138L24.5281 82.5142Z" fill="white"/>
<path opacity="0.2" d="M15.9199 91.9845C15.9292 92.2654 16.3721 92.8026 19.801 92.5352C24.5609 92.1641 27.1955 87.8789 31.9837 86.7723C36.7718 85.6656 37.8483 84.9727 37.8483 84.9727L38.0069 87.7853C38.0069 87.7853 33.1633 86.6485 30.8733 87.9267C28.5833 89.2046 26.354 93.268 21.2582 95.0488C16.1623 96.8297 16.0394 95.3771 16.0394 95.3771L15.9199 91.9849V91.9845Z" fill="white"/>
<path d="M45.5811 70.9414C45.2858 71.039 46.8874 92.9694 70.2528 95.9429C74.0945 96.4317 78.004 96.2318 81.7502 95.2569C89.2146 93.315 101.152 87.715 102.973 71.6741L45.5811 70.9414Z" fill="#979797"/>
<path opacity="0.3" d="M45.5811 70.9414C45.2858 71.039 46.8874 92.9694 70.2528 95.9429C74.0945 96.4317 78.004 96.2318 81.7502 95.2569C89.2146 93.315 101.152 87.715 102.973 71.6741L45.5811 70.9414Z" fill="white"/>
<path d="M74.2602 83.4564C90.1181 83.4564 102.973 78.0332 102.973 71.3434C102.973 64.6536 90.1181 59.2305 74.2602 59.2305C58.4023 59.2305 45.5469 64.6536 45.5469 71.3434C45.5469 78.0332 58.4023 83.4564 74.2602 83.4564Z" fill="#979797"/>
<path d="M74.0918 81.8427C88.7403 81.8427 100.615 77.1428 100.615 71.3452C100.615 65.5476 88.7403 60.8477 74.0918 60.8477C59.4433 60.8477 47.5684 65.5476 47.5684 71.3452C47.5684 77.1428 59.4433 81.8427 74.0918 81.8427Z" fill="#979797"/>
<path opacity="0.3" d="M74.0918 81.8427C88.7403 81.8427 100.615 77.1428 100.615 71.3452C100.615 65.5476 88.7403 60.8477 74.0918 60.8477C59.4433 60.8477 47.5684 65.5476 47.5684 71.3452C47.5684 77.1428 59.4433 81.8427 74.0918 81.8427Z" fill="black"/>
<path d="M99.1835 74.7457C99.0277 74.1026 98.6612 73.5082 98.1342 73.101C97.3706 72.5106 96.3034 72.3279 95.384 72.6307C95.2978 71.533 94.5611 70.5095 93.5416 70.0709C92.5221 69.6323 91.2639 69.7977 90.3954 70.4846C89.8924 67.9707 87.3255 66.2764 84.7617 65.9308C82.1979 65.5849 79.6218 66.2955 77.1335 66.9986C74.9994 64.3166 70.8007 63.5192 67.8162 65.2292C66.7132 65.8612 65.7732 66.7833 64.5816 67.2299C63.057 67.8013 61.3476 67.5148 59.7441 67.805C56.9201 68.3159 54.5836 70.8092 54.279 73.6366C52.7682 73.814 51.3736 74.7747 50.6797 76.1157C50.6797 76.1157 50.7505 76.229 50.8879 76.4286C55.4124 79.6558 64.1057 81.8414 74.0923 81.8414C85.731 81.8414 95.6117 78.8732 99.1835 74.7457Z" fill="#FFF4E9"/>
<g opacity="0.2">
<path d="M63.3418 71.5012C63.6985 72.7575 64.6733 73.7739 65.8052 74.4419C66.9371 75.11 68.2242 75.4691 69.5046 75.7771C70.768 76.0811 72.251 76.2955 73.2406 75.4602C73.6533 75.1118 73.9225 74.6178 74.3436 74.2796C75.1363 73.6433 76.2581 73.6923 77.2736 73.595C79.4465 73.3867 81.4531 72.3811 83.3455 71.3031C83.8946 70.9902 84.4555 70.6557 84.8269 70.1472C85.1984 69.6387 85.3342 68.9084 84.9846 68.3852C84.7078 67.9706 84.1842 67.7695 83.6824 67.7584C83.1807 67.7473 82.6907 67.8985 82.2151 68.0575C80.6523 68.5801 79.1253 69.2044 77.6296 69.8931C75.5327 70.859 73.4624 71.9638 71.1933 72.4058C68.6976 72.8918 66.0411 72.525 63.7752 71.3811" fill="black"/>
</g>
<path d="M62.0267 66.4709C62.5149 66.3062 63.028 66.2279 63.5377 66.1506C62.7499 65.9754 62.0057 65.6101 61.3879 65.0957C62.3267 64.8309 63.3736 64.9673 64.211 65.4641C63.6252 64.7083 63.1974 63.8329 62.9624 62.9089C63.9369 63.2262 64.7374 64.0261 65.0491 64.9941C65.1609 64.1049 65.2727 63.216 65.3842 62.3268C65.3971 62.2243 65.419 62.1072 65.5092 62.0552C65.6272 61.9871 65.7732 62.0764 65.8702 62.1713C66.4215 62.71 66.6054 63.5348 66.533 64.2986C66.4607 65.0625 66.1637 65.785 65.8702 66.495L65.0805 67.0574C63.7681 67.7827 62.1145 67.8677 60.7334 67.2807C61.0707 66.8941 61.5379 66.6363 62.0264 66.4716L62.0267 66.4709Z" fill="#263238"/>
<path d="M63.0288 71.3333C62.6592 70.535 62.7051 69.5851 63.0377 68.7708C63.3707 67.9568 64.0973 67.0263 65.2464 66.6154C65.2061 66.685 66.3829 64.3319 67.967 64.0119C69.3145 63.74 71.1696 64.513 72.0353 65.5713C72.7046 66.3894 72.9978 67.4489 73.1386 68.4927C73.2794 69.5365 73.2846 70.5963 73.4629 71.6346C73.5969 72.4141 73.8066 73.2941 73.3394 73.9353C73.0952 74.2704 72.6978 74.4728 72.2891 74.5581C71.8807 74.6434 71.4575 74.6228 71.0417 74.5864C69.4919 74.4509 67.9673 74.1013 66.4787 73.6529C65.7925 73.4462 65.1069 73.2158 64.4909 72.8521C63.8749 72.4883 63.3276 71.9792 63.0288 71.3333Z" fill="#FF3939"/>
<g opacity="0.2">
<path d="M71.2054 74.3982C71.5217 74.4247 71.8882 74.4281 72.0977 74.1916C72.2412 74.0296 72.3555 73.1952 72.3635 72.9796C72.4522 70.6419 71.2461 68.4606 69.9521 66.5033C69.6032 65.9754 69.2401 65.4478 68.7676 65.0243C68.3493 64.6495 67.8328 64.36 67.2781 64.282C67.4965 64.1561 67.7265 64.0603 67.9662 64.0119C69.3137 63.74 71.1687 64.513 72.0345 65.5713C72.7038 66.3894 72.997 67.4489 73.1378 68.4927C73.2785 69.5365 73.2838 70.5963 73.4621 71.6346C73.5961 72.4141 73.8058 73.2941 73.3386 73.9353C73.0944 74.2704 72.697 74.4728 72.2883 74.5581C71.8799 74.6434 71.4567 74.6228 71.0409 74.5864C69.4911 74.4509 67.9665 74.1013 66.4779 73.6529C65.7917 73.4462 65.1061 73.2158 64.4901 72.8521C64.4057 72.8022 64.3225 72.7492 64.2412 72.6941C65.7452 73.417 68.8326 74.1999 71.2054 74.3982Z" fill="black"/>
</g>
<path d="M69.6807 71.6177L69.7207 71.5234C69.8498 71.5567 69.9662 71.6356 70.0447 71.7427C70.0777 71.788 70.1048 71.8398 70.1088 71.8952C70.1128 71.9506 70.09 72.0107 70.0423 72.0403C69.9964 72.0686 69.9351 72.064 69.8873 72.039C69.8396 72.0141 69.8032 71.9716 69.7746 71.9263C69.7161 71.8342 69.6831 71.7264 69.6807 71.6177Z" fill="white"/>
<path d="M71.5303 73.2192L71.5703 73.125C71.6994 73.1583 71.8161 73.2371 71.8943 73.3443C71.9273 73.3896 71.9544 73.4413 71.9584 73.4968C71.9624 73.5525 71.9396 73.6123 71.8919 73.6418C71.846 73.6702 71.7847 73.6655 71.7369 73.6406C71.6892 73.6156 71.6529 73.5731 71.6242 73.5279C71.5657 73.4358 71.5327 73.328 71.5303 73.2192Z" fill="white"/>
<path d="M72.0908 71.1255L72.1309 71.0312C72.2599 71.0645 72.3766 71.1434 72.4549 71.2505C72.4878 71.2958 72.5149 71.3476 72.5189 71.403C72.5229 71.4588 72.5002 71.5185 72.4524 71.5481C72.4065 71.5764 72.3452 71.5718 72.2975 71.5468C72.2497 71.5219 72.2134 71.4794 72.1848 71.4341C72.1262 71.342 72.0936 71.2342 72.0911 71.1255H72.0908Z" fill="white"/>
<path d="M70.4268 69.7114L70.4668 69.6172C70.5959 69.6505 70.7126 69.7293 70.7908 69.8365C70.8238 69.8818 70.8509 69.9335 70.8549 69.9889C70.8589 70.0447 70.8361 70.1044 70.7883 70.134C70.7425 70.1623 70.6812 70.1577 70.6334 70.1328C70.5857 70.1078 70.5493 70.0653 70.5207 70.02C70.4622 69.928 70.4292 69.8202 70.4268 69.7114Z" fill="white"/>
<path d="M71.873 68.1177L71.9131 68.0234C72.0421 68.0567 72.1589 68.1356 72.2371 68.2427C72.2701 68.288 72.2972 68.3398 72.3012 68.3952C72.3052 68.4509 72.2824 68.5107 72.2346 68.5403C72.1887 68.5686 72.1275 68.564 72.0797 68.539C72.032 68.5141 71.9956 68.4716 71.967 68.4263C71.9085 68.3342 71.8755 68.2264 71.873 68.1177Z" fill="white"/>
<path d="M67.1611 71.4653L67.2012 71.3711C67.3302 71.4044 67.4466 71.4832 67.5252 71.5904C67.5581 71.6357 67.5852 71.6874 67.5893 71.7428C67.5933 71.7983 67.5705 71.8583 67.5227 71.8879C67.4768 71.9163 67.4155 71.9116 67.3678 71.8867C67.3201 71.8617 67.2837 71.8192 67.2548 71.774C67.1962 71.6819 67.1636 71.5741 67.1611 71.4653Z" fill="white"/>
<path d="M66.1895 72.7935L66.2295 72.6992C66.3585 72.7325 66.475 72.8113 66.5535 72.9185C66.5865 72.9638 66.6136 73.0155 66.6176 73.071C66.6216 73.1267 66.5988 73.1865 66.551 73.216C66.5052 73.2444 66.4439 73.2398 66.3961 73.2148C66.3484 73.1899 66.312 73.1474 66.2834 73.1021C66.2249 73.01 66.1919 72.9022 66.1895 72.7935Z" fill="white"/>
<path d="M68.5835 73.3243L68.5742 73.2227C68.7039 73.1919 68.8443 73.2069 68.9641 73.2648C69.0147 73.2892 69.063 73.3225 69.0932 73.3696C69.1231 73.4167 69.1317 73.4801 69.1034 73.5285C69.0763 73.5747 69.0202 73.5993 68.966 73.5996C68.9118 73.6 68.8597 73.5793 68.8129 73.5528C68.7174 73.4989 68.6374 73.4192 68.5835 73.3243Z" fill="white"/>
<path d="M69.792 67.6958L69.832 67.6016C69.9611 67.6348 70.0775 67.714 70.156 67.8209C70.189 67.8661 70.2161 67.9179 70.2201 67.9733C70.2241 68.0291 70.2013 68.0888 70.1536 68.1184C70.1077 68.1467 70.0464 68.1421 69.9987 68.1172C69.9509 68.0922 69.9146 68.0497 69.8859 68.0044C69.8274 67.9123 69.7945 67.8045 69.792 67.6958Z" fill="white"/>
<path d="M70.3984 65.6841L70.4385 65.5898C70.5675 65.6231 70.6843 65.7023 70.7625 65.8091C70.7955 65.8544 70.8226 65.9062 70.8266 65.9616C70.8306 66.0173 70.8078 66.0771 70.76 66.1067C70.7141 66.135 70.6528 66.1304 70.6051 66.1054C70.5574 66.0805 70.521 66.038 70.4924 65.9927C70.4339 65.9006 70.4012 65.7928 70.3987 65.6841H70.3984Z" fill="white"/>
<path d="M68.2822 69.688L68.3223 69.5938C68.4513 69.627 68.5681 69.7062 68.6463 69.813C68.6792 69.8583 68.7063 69.9101 68.7103 69.9655C68.7144 70.0213 68.6916 70.081 68.6438 70.1106C68.5979 70.1389 68.5366 70.1343 68.4889 70.1093C68.4412 70.0844 68.4048 70.0419 68.3762 69.9966C68.3176 69.9045 68.285 69.7967 68.2825 69.688H68.2822Z" fill="white"/>
<path d="M66.1631 69.5825L66.2031 69.4883C66.3322 69.5215 66.4489 69.6004 66.5271 69.7076C66.5601 69.7528 66.5872 69.8046 66.5912 69.86C66.5952 69.9155 66.5724 69.9755 66.5247 70.0051C66.4788 70.0334 66.4175 70.0288 66.3698 70.0039C66.322 69.9789 66.2857 69.9364 66.257 69.8911C66.1985 69.7991 66.1659 69.6913 66.1634 69.5825H66.1631Z" fill="white"/>
<path d="M64.5078 71.6528L64.5478 71.5586C64.6769 71.5919 64.7936 71.6707 64.8719 71.7779C64.9048 71.8232 64.9319 71.8749 64.9359 71.9303C64.9399 71.9858 64.9171 72.0458 64.8694 72.0754C64.8235 72.1038 64.7622 72.0991 64.7145 72.0742C64.6667 72.0492 64.6304 72.0067 64.6018 71.9615C64.5432 71.8694 64.5103 71.7616 64.5078 71.6528Z" fill="white"/>
<path d="M67.8477 66.8889L67.8692 66.7891C68.0023 66.798 68.1316 66.8537 68.229 66.9443C68.2699 66.9825 68.3063 67.0284 68.3207 67.0823C68.3352 67.1362 68.3241 67.1993 68.2829 67.2369C68.2431 67.2732 68.1821 67.28 68.1304 67.2643C68.0787 67.2486 68.0352 67.2138 67.9983 67.1744C67.9234 67.0949 67.8708 66.9948 67.848 66.8885L67.8477 66.8889Z" fill="white"/>
<path d="M65.8086 67.5142L65.8302 67.4141C65.9632 67.423 66.0926 67.4787 66.1899 67.5693C66.2309 67.6075 66.2672 67.6534 66.2817 67.7073C66.2962 67.7612 66.2851 67.8243 66.2438 67.8619C66.2041 67.8982 66.1431 67.905 66.0913 67.8893C66.0396 67.8736 65.9962 67.8388 65.9592 67.7994C65.8844 67.7199 65.8317 67.6198 65.8089 67.5135L65.8086 67.5142Z" fill="white"/>
<path d="M63.9619 69.2404L63.9835 69.1406C64.1165 69.1496 64.2459 69.2053 64.3432 69.2959C64.3842 69.3341 64.4205 69.3799 64.435 69.4338C64.4495 69.4877 64.4384 69.5509 64.3968 69.5885C64.3571 69.6248 64.2961 69.6316 64.2443 69.6159C64.1926 69.6002 64.1492 69.5654 64.1122 69.5259C64.0374 69.4465 63.9847 69.3467 63.9619 69.2404Z" fill="white"/>
<path d="M68.3164 64.674L68.338 64.5742C68.471 64.5832 68.6004 64.6389 68.6977 64.7294C68.7387 64.7676 68.775 64.8135 68.7895 64.8674C68.804 64.9213 68.7929 64.9845 68.7513 65.022C68.7116 65.0584 68.6506 65.0652 68.5988 65.0495C68.5471 65.0338 68.5037 64.9989 68.4667 64.9598C68.3919 64.8804 68.3392 64.7803 68.3164 64.674Z" fill="white"/>
<path d="M86.1239 61.7336C85.5384 61.6021 84.9347 61.574 84.335 61.5463C85.2255 61.2476 86.0414 60.7344 86.6931 60.0636C85.5735 59.8711 84.3785 60.1563 83.4708 60.8333C84.0554 59.8871 84.4422 58.8218 84.5993 57.7237C83.5105 58.2095 82.6829 59.2326 82.4421 60.391L81.7235 57.3443C81.6958 57.2273 81.6557 57.0945 81.5449 57.0452C81.3998 56.9809 81.2418 57.1019 81.1414 57.2236C80.57 57.9144 80.4592 58.8914 80.6378 59.7664C80.8161 60.6417 81.2495 61.4422 81.6773 62.2282L82.6614 62.7832C84.2704 63.4636 86.1954 63.3607 87.7212 62.5131C87.2826 62.1069 86.7097 61.8651 86.1239 61.7336Z" fill="#263238"/>
<path d="M85.5626 67.4818C85.8916 66.5128 85.7209 65.4185 85.2346 64.5167C84.7486 63.6148 83.7922 62.6259 82.4109 62.2904C82.4663 62.3662 80.8123 59.7852 78.9391 59.6075C77.3455 59.4562 75.2939 60.5767 74.4229 61.907C73.7493 62.9354 73.5414 64.1973 73.5078 65.4228C73.4742 66.648 73.5993 67.8757 73.5217 69.0991C73.4632 70.0178 73.3292 71.0616 73.9498 71.7472C74.2741 72.1057 74.7592 72.2915 75.2428 72.3404C75.7263 72.3894 76.2133 72.3142 76.6901 72.2215C78.4672 71.876 80.1886 71.2862 81.8565 70.5864C82.6252 70.2639 83.3903 69.9137 84.0584 69.4175C84.7264 68.9216 85.2971 68.2656 85.5629 67.4818H85.5626Z" fill="#FF3939"/>
<g opacity="0.3">
<path d="M76.4766 72.0196C76.1135 72.0886 75.69 72.1373 75.418 71.889C75.2317 71.7187 74.9964 70.767 74.96 70.5184C74.5677 67.8231 75.6937 65.1515 76.9488 62.7285C77.2873 62.0749 77.6424 61.4201 78.1368 60.8725C78.5744 60.388 79.1365 59.9898 79.7691 59.8324C79.5009 59.7129 79.2225 59.6304 78.9391 59.6036C77.3455 59.4523 75.2939 60.5728 74.4229 61.9031C73.7493 62.9315 73.5414 64.1934 73.5078 65.4189C73.4742 66.6441 73.5993 67.8718 73.5217 69.0951C73.4632 70.0139 73.3292 71.0577 73.9498 71.7433C74.2741 72.1018 74.7592 72.2875 75.2428 72.3365C75.7263 72.3855 76.2133 72.3103 76.6901 72.2176C78.4672 71.8721 80.1886 71.2822 81.8565 70.5825C82.6252 70.26 83.3903 69.9098 84.0584 69.4136C84.1498 69.3455 84.2395 69.2744 84.3269 69.2005C82.6754 70.2203 79.1987 71.5015 76.4766 72.0196Z" fill="white"/>
</g>
<path d="M77.8977 68.6197L77.8395 68.5156C77.6941 68.5698 77.5691 68.6755 77.4918 68.8088C77.4591 68.8652 77.4345 68.9283 77.4367 68.9933C77.4388 69.0583 77.4727 69.1248 77.5318 69.1532C77.5885 69.1803 77.6587 69.1677 77.7111 69.1329C77.7634 69.0981 77.8001 69.0445 77.8278 68.9887C77.8842 68.8751 77.9088 68.746 77.898 68.62L77.8977 68.6197Z" fill="white"/>
<path d="M75.9563 70.6979L75.8981 70.5938C75.7527 70.648 75.6277 70.7536 75.5504 70.887C75.5177 70.9433 75.4931 71.0065 75.4952 71.0715C75.4974 71.1364 75.5313 71.203 75.5904 71.2313C75.6471 71.2584 75.7173 71.2458 75.7697 71.211C75.822 71.1762 75.8587 71.1226 75.8864 71.0668C75.9428 70.9532 75.9674 70.8241 75.9566 70.6982L75.9563 70.6979Z" fill="white"/>
<path d="M75.0471 68.3424L74.9889 68.2383C74.8436 68.2925 74.7185 68.3981 74.6412 68.5315C74.6086 68.5879 74.5839 68.651 74.5861 68.716C74.5882 68.781 74.6221 68.8475 74.6812 68.8758C74.7379 68.9029 74.8081 68.8903 74.8605 68.8555C74.9129 68.8207 74.9495 68.7671 74.9772 68.7114C75.0336 68.5977 75.0582 68.469 75.0475 68.3427L75.0471 68.3424Z" fill="white"/>
<path d="M76.8001 66.5064L76.7419 66.4023C76.5965 66.4566 76.4714 66.5622 76.3941 66.6956C76.3615 66.7519 76.3368 66.8151 76.339 66.8801C76.3412 66.945 76.375 67.0116 76.4342 67.0396C76.4908 67.0667 76.5611 67.0541 76.6134 67.0193C76.6658 66.9845 76.7024 66.9309 76.7302 66.8751C76.7865 66.7615 76.8109 66.6327 76.8001 66.5064Z" fill="white"/>
<path d="M74.927 64.8385L74.8688 64.7344C74.7234 64.7886 74.5984 64.8942 74.5211 65.0276C74.4884 65.084 74.4638 65.1471 74.466 65.2121C74.4681 65.2771 74.502 65.3436 74.5611 65.3716C74.6178 65.3987 74.688 65.3861 74.7404 65.3513C74.7927 65.3165 74.8294 65.2629 74.8571 65.2072C74.9135 65.0935 74.9381 64.9644 74.9273 64.8385H74.927Z" fill="white"/>
<path d="M80.7971 68.1393L80.7389 68.0352C80.5936 68.0894 80.4685 68.195 80.3912 68.3284C80.3586 68.3847 80.3339 68.4479 80.3361 68.5129C80.3382 68.5779 80.3721 68.6444 80.4312 68.6724C80.4879 68.6995 80.5581 68.6869 80.6105 68.6521C80.6629 68.6173 80.6995 68.5637 80.7272 68.5079C80.7836 68.3943 80.8082 68.2652 80.7975 68.1393H80.7971Z" fill="white"/>
<path d="M82.0872 69.5572L82.029 69.4531C81.8836 69.5073 81.7586 69.613 81.6812 69.7463C81.6486 69.8027 81.624 69.8658 81.6261 69.9308C81.6283 69.9958 81.6622 70.0623 81.7213 70.0907C81.778 70.1178 81.8482 70.1052 81.9005 70.0704C81.9529 70.0355 81.9896 69.982 82.0173 69.9262C82.0736 69.8126 82.0983 69.6838 82.0875 69.5575L82.0872 69.5572Z" fill="white"/>
<path d="M79.3814 70.4643L79.3796 70.3454C79.2256 70.3254 79.0651 70.3602 78.9333 70.4418C78.8779 70.4763 78.8258 70.5203 78.7968 70.5788C78.7679 70.637 78.766 70.7116 78.8049 70.7639C78.8418 70.8141 78.9099 70.8357 78.9727 70.8295C79.0352 70.8234 79.0931 70.7932 79.1443 70.7569C79.2481 70.6829 79.3309 70.5807 79.3814 70.4643Z" fill="white"/>
<path d="M77.2835 64.0924L77.2253 63.9883C77.0799 64.0425 76.9548 64.1481 76.8775 64.2815C76.8449 64.3379 76.8202 64.401 76.8224 64.466C76.8246 64.531 76.8584 64.5975 76.9176 64.6258C76.9742 64.6529 77.0445 64.6403 77.0968 64.6055C77.1492 64.5707 77.1858 64.5171 77.2136 64.4614C77.2699 64.3477 77.2946 64.2187 77.2838 64.0927L77.2835 64.0924Z" fill="white"/>
<path d="M76.3313 61.8424L76.2731 61.7383C76.1277 61.7925 76.0027 61.8981 75.9254 62.0315C75.8927 62.0879 75.8681 62.151 75.8702 62.216C75.8724 62.281 75.9063 62.3475 75.9654 62.3755C76.0221 62.4026 76.0923 62.39 76.1447 62.3552C76.197 62.3204 76.2337 62.2668 76.2614 62.2111C76.3178 62.0974 76.3424 61.9687 76.3316 61.8424H76.3313Z" fill="white"/>
<path d="M79.2786 66.2213L79.2204 66.1172C79.075 66.1714 78.9499 66.277 78.8726 66.4104C78.84 66.4668 78.8154 66.5299 78.8175 66.5949C78.8197 66.6599 78.8535 66.7264 78.9127 66.7547C78.9694 66.7819 79.0396 66.7692 79.0919 66.7344C79.1443 66.6996 79.181 66.646 79.2087 66.5903C79.265 66.4766 79.2897 66.3479 79.2789 66.2216L79.2786 66.2213Z" fill="white"/>
<path d="M81.718 65.8424L81.6598 65.7383C81.5145 65.7925 81.3894 65.8981 81.3121 66.0315C81.2794 66.0879 81.2548 66.151 81.257 66.216C81.2591 66.281 81.293 66.3475 81.3521 66.3758C81.4088 66.4029 81.479 66.39 81.5314 66.3555C81.5838 66.3207 81.6204 66.2671 81.6481 66.2114C81.7045 66.0977 81.7291 65.969 81.7183 65.8427L81.718 65.8424Z" fill="white"/>
<path d="M83.8909 68.0377L83.8327 67.9336C83.6873 67.9878 83.5623 68.0934 83.4849 68.2268C83.4523 68.2832 83.4277 68.3463 83.4298 68.4113C83.432 68.4763 83.4659 68.5428 83.525 68.5708C83.5817 68.5979 83.6519 68.5853 83.7042 68.5505C83.7566 68.5157 83.7933 68.4621 83.821 68.4064C83.8773 68.2927 83.9017 68.1637 83.8909 68.0377Z" fill="white"/>
<path d="M79.4353 62.9216L79.3977 62.8086C79.2446 62.8351 79.1017 62.9155 79.0007 63.0322C78.9579 63.0815 78.9219 63.1391 78.9117 63.2031C78.9015 63.2672 78.9222 63.339 78.9748 63.3775C79.0253 63.4147 79.0968 63.415 79.1547 63.3907C79.2126 63.3664 79.2588 63.3205 79.2967 63.2706C79.3734 63.1696 79.422 63.0473 79.4353 62.9213V62.9216Z" fill="white"/>
<path d="M81.8718 63.4021L81.8342 63.2891C81.6812 63.3156 81.5382 63.3959 81.4372 63.5127C81.3944 63.5619 81.3584 63.6195 81.3482 63.6836C81.338 63.7477 81.3587 63.8194 81.4114 63.8579C81.4619 63.8949 81.5333 63.8955 81.5912 63.8712C81.6491 63.8468 81.6953 63.801 81.7332 63.7511C81.8099 63.65 81.8586 63.5278 81.8718 63.4018V63.4021Z" fill="white"/>
<path d="M84.2224 65.1794L84.1848 65.0664C84.0317 65.0929 83.8888 65.1733 83.7878 65.29C83.745 65.3393 83.709 65.3969 83.6988 65.461C83.6886 65.525 83.7093 65.5968 83.7619 65.6353C83.8125 65.6722 83.8839 65.6729 83.9418 65.6485C83.9997 65.6242 84.0459 65.5783 84.0838 65.5284C84.1605 65.4274 84.2092 65.3054 84.2224 65.1794Z" fill="white"/>
<path d="M78.6179 60.4138L78.5803 60.3008C78.4273 60.3273 78.2843 60.4077 78.1833 60.5244C78.1405 60.5737 78.1045 60.6313 78.0943 60.6953C78.0841 60.7597 78.1048 60.8312 78.1574 60.87C78.208 60.9069 78.2794 60.9075 78.3373 60.8832C78.3952 60.8589 78.4414 60.813 78.4793 60.7631C78.556 60.6621 78.6047 60.5398 78.6179 60.4138Z" fill="white"/>
<path opacity="0.2" d="M94.219 74.4847C88.3766 77.8736 81.6575 79.7647 74.8889 79.9258C68.1203 80.0866 61.3172 78.517 55.3174 75.4096C55.3174 75.4096 66.2702 79.8168 75.4979 78.7076C84.7252 77.5989 94.219 74.4844 94.219 74.4844V74.4847Z" fill="black"/>
<path opacity="0.2" d="M90.3952 70.4835C90.7851 69.8894 86.3025 74.0369 77.9033 75.697C77.9033 75.697 86.495 76.4239 90.3952 70.4835Z" fill="black"/>
<path d="M119.638 108.498C132.975 108.498 143.787 103.995 143.787 98.4405C143.787 92.8858 132.975 88.3828 119.638 88.3828C106.301 88.3828 95.4893 92.8858 95.4893 98.4405C95.4893 103.995 106.301 108.498 119.638 108.498Z" fill="#979797"/>
<path opacity="0.2" d="M119.638 108.498C132.975 108.498 143.787 103.995 143.787 98.4405C143.787 92.8858 132.975 88.3828 119.638 88.3828C106.301 88.3828 95.4893 92.8858 95.4893 98.4405C95.4893 103.995 106.301 108.498 119.638 108.498Z" fill="white"/>
<g opacity="0.2">
<path d="M120.183 105.894C130.073 105.894 138.091 102.554 138.091 98.435C138.091 94.3158 130.073 90.9766 120.183 90.9766C110.292 90.9766 102.274 94.3158 102.274 98.435C102.274 102.554 110.292 105.894 120.183 105.894Z" fill="white"/>
<path opacity="0.2" d="M120.183 105.894C130.073 105.894 138.091 102.554 138.091 98.435C138.091 94.3158 130.073 90.9766 120.183 90.9766C110.292 90.9766 102.274 94.3158 102.274 98.435C102.274 102.554 110.292 105.894 120.183 105.894Z" fill="white"/>
</g>
<path d="M135.409 85.9198C135.644 85.6321 135.903 85.3814 136.18 85.1344C136.486 84.8618 135.909 85.3121 136.134 85.1729C136.22 85.1199 136.301 85.0589 136.387 85.0056C136.558 84.8997 136.735 84.8082 136.915 84.7189C137.226 84.5646 136.808 84.7826 136.792 84.77C136.81 84.7839 137.036 84.6844 137.073 84.673C137.243 84.6197 137.415 84.5818 137.589 84.5436C137.906 84.4737 137.473 84.5643 137.434 84.5602C137.502 84.5673 137.596 84.5458 137.668 84.5421C137.766 84.5375 137.864 84.5365 137.962 84.5387C138.04 84.5405 138.448 84.6028 138.121 84.5368C137.788 84.47 138.325 84.587 138.41 84.6114C138.479 84.6311 138.548 84.6576 138.617 84.6767C138.983 84.7771 138.293 84.514 138.518 84.6283C138.666 84.7032 138.813 84.7743 138.955 84.8612C139.017 84.8997 139.077 84.9434 139.14 84.9816C139.459 85.1772 138.852 84.7161 139.107 84.9551C139.243 85.0829 139.38 85.2043 139.506 85.3432C139.555 85.3974 139.599 85.4621 139.651 85.5129C139.345 85.2123 139.481 85.2779 139.555 85.3974C139.652 85.5576 139.745 85.7168 139.839 85.8797C139.908 85.9998 139.908 86.1649 139.786 85.7343C139.817 85.8421 139.865 85.9469 139.898 86.0544C139.919 86.1267 139.939 86.2 139.956 86.2736C139.972 86.3433 139.989 86.6796 139.985 86.3682C139.98 86.022 139.985 86.4578 139.987 86.5031C139.991 86.5906 139.992 86.679 139.99 86.7664C139.988 86.8542 139.978 86.9411 139.976 87.0285C139.964 87.4613 140.05 86.711 139.982 86.979C139.923 87.2146 139.878 87.448 139.801 87.6793C139.786 87.7268 139.704 87.8971 139.712 87.9285C139.704 87.8971 139.904 87.5183 139.747 87.842C139.66 88.0225 139.571 88.2005 139.471 88.3745C139.372 88.5479 139.265 88.7173 139.153 88.8824C139.103 88.9554 139.05 89.0262 138.999 89.0989C138.762 89.4389 139.223 88.846 138.971 89.1291C138.761 89.3641 138.547 89.5785 138.314 89.7898C138.043 90.034 138.626 89.5825 138.415 89.7143C138.343 89.7602 138.274 89.8159 138.203 89.8643C138.057 89.9628 137.907 90.0556 137.754 90.143C137.47 90.3056 137.173 90.4378 136.877 90.5779C137.415 90.3238 136.898 90.5622 136.76 90.6124C136.565 90.6833 136.368 90.7492 136.17 90.8101C135.428 91.0387 134.666 91.2035 133.899 91.3236C133.808 91.3378 133.712 91.3436 133.623 91.3649C133.719 91.3522 133.814 91.3396 133.909 91.327C133.837 91.3365 133.765 91.3455 133.692 91.3541C133.515 91.3753 133.337 91.3944 133.159 91.4114C132.791 91.4465 132.421 91.4708 132.052 91.4874C131.061 91.5318 130.107 92.3286 130.154 93.385C130.198 94.3752 130.99 95.3303 132.052 95.2826C133.755 95.2062 135.49 94.9823 137.125 94.4864C138.84 93.9665 140.586 93.1294 141.738 91.712C143.225 89.8825 144.225 87.5361 143.588 85.1547C143.05 83.1398 141.342 81.4341 139.314 80.924C136.909 80.3191 134.276 81.3395 132.726 83.2362C132.398 83.6375 132.17 84.0403 132.17 84.5781C132.17 85.0435 132.377 85.5994 132.726 85.9201C133.421 86.5582 134.739 86.7409 135.409 85.9201L135.409 85.9198Z" fill="#979797"/>
<path d="M121.666 86.5451C129.305 86.5451 135.498 84.1504 135.498 81.1964C135.498 78.2423 129.305 75.8477 121.666 75.8477C114.027 75.8477 107.835 78.2423 107.835 81.1964C107.835 84.1504 114.027 86.5451 121.666 86.5451Z" fill="#979797"/>
<path d="M107.835 81.0391C107.835 81.0391 107.755 102.332 121.253 102.491C134.75 102.649 135.498 81.0391 135.498 81.0391H107.835Z" fill="#979797"/>
<path opacity="0.3" d="M121.665 85.8121C128.719 85.8121 134.437 83.7406 134.437 81.1853C134.437 78.6301 128.719 76.5586 121.665 76.5586C114.611 76.5586 108.893 78.6301 108.893 81.1853C108.893 83.7406 114.611 85.8121 121.665 85.8121Z" fill="black"/>
<path d="M110.148 83.1945C112.21 84.7468 116.592 85.8186 121.665 85.8186C126.739 85.8186 131.121 84.7471 133.182 83.1945C131.121 81.6422 126.739 80.5703 121.665 80.5703C116.591 80.5703 112.209 81.6418 110.148 83.1945Z" fill="#A24E3F"/>
<path d="M131.835 95.5804C131.807 95.5804 131.778 95.5724 131.751 95.5554C131.681 95.5089 131.66 95.4134 131.706 95.3423C134.358 91.2742 134.99 86.1806 135.547 81.6863C135.557 81.6019 135.634 81.5403 135.719 81.5523C135.803 81.5628 135.863 81.6394 135.853 81.7241C135.292 86.2514 134.656 91.3827 131.965 95.5108C131.935 95.5557 131.886 95.5807 131.836 95.5807L131.835 95.5804Z" fill="#263238"/>
<path opacity="0.2" d="M129.186 83.8623C129.186 84.9964 125.819 85.9161 121.666 85.9161C117.513 85.9161 114.146 84.9967 114.146 83.8623C114.146 82.728 117.513 81.8086 121.666 81.8086C125.819 81.8086 129.186 82.728 129.186 83.8623Z" fill="white"/>
<path d="M97.8639 98.8281C97.8236 98.7597 96.5217 97.9017 96.8485 95.997C97.1753 94.0923 98.4569 93.4265 101.074 92.8717C103.69 92.317 104.899 92.0229 106.237 92.5964C107.575 93.1699 109.055 94.6625 109.181 96.0755C109.306 97.4886 109.817 98.0184 108.564 99.1404C107.312 100.262 107.684 101.234 104.858 101.486C102.031 101.737 99.5281 101.638 97.8639 98.8284V98.8281Z" fill="#B97964"/>
<path d="M100.856 97.6562C100.738 97.7212 99.9429 97.9328 100.297 98.7185C100.652 99.5039 101.165 99.5972 101.733 99.1322C102.301 98.6671 102.413 98.1222 102.068 97.9337C101.722 97.7453 101.3 97.4123 100.856 97.6565V97.6562Z" fill="#A24E3F"/>
<path d="M100.175 94.7837C100.263 94.7969 100.766 95.0042 100.894 94.4495C101.022 93.8948 100.79 93.6404 100.306 93.657C99.821 93.6736 99.5434 93.9148 99.6494 94.1523C99.7553 94.3897 99.8441 94.7341 100.175 94.7834V94.7837Z" fill="#A24E3F"/>
<path d="M102.765 95.2667C102.652 95.3243 102.403 96.0355 103.083 96.1701C103.763 96.3043 104.368 95.9936 104.114 95.6197C103.859 95.2457 103.676 94.8001 102.765 95.2667Z" fill="#A24E3F"/>
<path d="M98.2304 96.3817C98.147 96.4245 97.9631 96.9512 98.4664 97.0504C98.9696 97.1499 99.2293 96.7581 99.0408 96.4812C98.8523 96.2043 98.9053 96.0358 98.2304 96.3814V96.3817Z" fill="#A24E3F"/>
<path d="M104.207 92.788C104.124 92.8308 103.94 93.3575 104.443 93.4566C104.946 93.5561 105.206 93.1643 105.017 92.8874C104.829 92.6106 104.882 92.4421 104.207 92.7877V92.788Z" fill="#A24E3F"/>
<path d="M106.567 93.4944C106.511 93.5501 106.358 94.0901 107.026 94.0365C107.694 93.9829 108.067 93.9468 107.568 93.5776C107.07 93.2086 106.897 93.1688 106.567 93.4941V93.4944Z" fill="#A24E3F"/>
<path d="M106.404 97.1231C106.404 97.1231 105.91 97.2962 106.01 97.7077C106.111 98.1192 105.971 98.4801 106.432 98.3406C106.893 98.2011 107.396 98.1604 107.196 97.7736C106.995 97.3868 106.657 96.9676 106.404 97.1231Z" fill="#A24E3F"/>
<g opacity="0.3">
<path d="M109.35 98.0149C109.348 98.03 109.343 98.0442 109.34 98.0587C109.356 98.0002 109.368 97.9416 109.376 97.8828C109.363 97.933 109.353 97.9789 109.35 98.0146V98.0149Z" fill="#A24E3F"/>
<path d="M107.571 99.2505C106.825 99.8307 106.982 100.072 105.719 100.618C104.456 101.165 104.957 100.764 102.738 100.825C100.519 100.886 99.4723 100.024 99.2939 99.4624C99.1156 98.9009 98.774 98.9573 98.1205 98.4023C97.5174 97.8897 96.947 97.2651 96.8447 97.1133C97.0431 98.2412 97.834 98.7746 97.8654 98.8276C99.5296 101.637 102.033 101.737 104.859 101.485C107.686 101.233 107.313 100.262 108.566 99.1396C109.005 98.746 109.225 98.4257 109.323 98.114C109.156 98.4863 108.258 98.7158 107.571 99.2505H107.571Z" fill="#A24E3F"/>
</g>
<path opacity="0.4" d="M97.8639 98.8281C97.8236 98.7597 96.5217 97.9017 96.8485 95.997C97.1753 94.0923 98.4569 93.4265 101.074 92.8717C103.69 92.317 104.899 92.0229 106.237 92.5964C107.575 93.1699 109.055 94.6625 109.181 96.0755C109.306 97.4886 109.817 98.0184 108.564 99.1404C107.312 100.262 107.684 101.234 104.858 101.486C102.031 101.737 99.5281 101.638 97.8639 98.8284V98.8281Z" fill="#A24E3F"/>
<path d="M104.554 102.661C104.509 102.571 102.943 101.378 103.518 99.0075C104.093 96.6365 105.765 95.9078 109.109 95.4338C112.452 94.9597 114 94.693 115.636 95.5305C117.272 96.3676 119.008 98.3748 119.045 100.166C119.082 101.957 119.68 102.667 118.005 103.973C116.331 105.279 116.717 106.535 113.135 106.609C109.554 106.683 106.409 106.343 104.554 102.661H104.554Z" fill="#B97964"/>
<path d="M108.422 101.442C108.268 101.513 107.248 101.712 107.627 102.731C108.006 103.751 108.644 103.913 109.399 103.376C110.155 102.839 110.343 102.162 109.924 101.895C109.505 101.628 109.001 101.172 108.422 101.442H108.422Z" fill="#A24E3F"/>
<path d="M107.812 97.7644C107.921 97.7884 108.537 98.093 108.746 97.4053C108.955 96.7175 108.685 96.3772 108.073 96.3565C107.461 96.3359 107.091 96.6159 107.204 96.9242C107.317 97.2322 107.399 97.6738 107.811 97.7644H107.812Z" fill="#A24E3F"/>
<path d="M111.034 98.5964C110.887 98.6596 110.512 99.534 111.357 99.7616C112.202 99.9892 112.991 99.6498 112.703 99.157C112.414 98.6642 112.222 98.0867 111.034 98.5964Z" fill="#A24E3F"/>
<path d="M105.229 99.6104C105.12 99.6569 104.843 100.305 105.469 100.473C106.094 100.642 106.454 100.171 106.241 99.8057C106.028 99.4407 106.109 99.2331 105.229 99.6104Z" fill="#A24E3F"/>
<path d="M113.06 95.5987C112.951 95.6455 112.674 96.2929 113.3 96.4614C113.925 96.6299 114.286 96.1589 114.072 95.794C113.859 95.429 113.94 95.2214 113.06 95.5987Z" fill="#A24E3F"/>
<path d="M115.976 96.6902C115.9 96.7555 115.662 97.4226 116.508 97.4124C117.354 97.4023 117.826 97.3887 117.23 96.8811C116.634 96.3736 116.419 96.3086 115.976 96.6902Z" fill="#A24E3F"/>
<path d="M115.461 101.251C115.461 101.251 114.825 101.427 114.915 101.954C115.006 102.481 114.799 102.923 115.392 102.787C115.985 102.651 116.622 102.643 116.402 102.139C116.182 101.634 115.793 101.077 115.461 101.251Z" fill="#A24E3F"/>
<g opacity="0.3">
<path d="M119.092 102.625C119.089 102.644 119.081 102.661 119.075 102.679C119.1 102.607 119.121 102.534 119.136 102.461C119.115 102.523 119.099 102.58 119.092 102.625Z" fill="#A24E3F"/>
<path d="M116.743 104.027C115.754 104.694 115.931 105.011 114.293 105.591C112.656 106.171 113.321 105.709 110.521 105.595C107.721 105.482 106.476 104.306 106.3 103.583C106.123 102.861 105.688 102.903 104.913 102.147C104.197 101.45 103.532 100.614 103.417 100.414C103.57 101.852 104.52 102.592 104.555 102.661C106.41 106.343 109.555 106.683 113.137 106.609C116.718 106.535 116.332 105.279 118.007 103.973C118.594 103.515 118.898 103.131 119.049 102.747C118.806 103.201 117.655 103.413 116.744 104.028L116.743 104.027Z" fill="#A24E3F"/>
</g>
<path d="M144.716 116.264C143.78 113.195 141.129 110.9 137.936 110.596C137.299 110.535 136.694 110.548 136.164 110.639C134.103 110.992 131.972 112.011 130.684 113.704C130.394 112.693 129.6 111.884 128.648 111.454C127.19 110.795 125.529 110.604 123.946 110.859C121.353 111.276 119.04 112.909 117.506 115.042C115.813 117.395 115.01 120.373 115.291 123.258C115.572 126.143 116.934 128.91 119.049 130.893C119.999 131.783 122.054 133.21 123.181 133.862C123.181 133.862 128.468 136.186 133.822 135.008C139.176 133.83 143.846 131.405 145.402 123.85C146.026 120.818 145.265 118.064 144.716 116.264H144.716Z" fill="#6AB43C"/>
<path opacity="0.3" d="M139.795 111.016C142.039 112.856 143.472 114.535 143.752 118.009C144.107 122.412 143.601 128.75 138.834 132.43C137.32 133.598 134.502 134.528 130.202 135.332C131.363 135.361 132.59 135.276 133.821 135.006C139.176 133.828 143.845 131.402 145.401 123.847C146.026 120.816 145.265 118.062 144.715 116.261C143.968 113.813 142.129 111.861 139.795 111.016L139.795 111.016Z" fill="black"/>
<path d="M131.217 113.813C131.217 113.813 126.087 104.209 142.131 101.59C142.131 101.59 144.532 115.123 131.217 113.813Z" fill="#263238"/>
<path d="M130.234 114.793C130.234 114.793 130.442 110.209 126.573 106.607L130.237 103.879C130.237 103.879 132.308 109.336 131.762 114.793H130.234Z" fill="#979797"/>
<path opacity="0.3" d="M130.234 114.793C130.234 114.793 130.442 110.209 126.573 106.607L130.237 103.879C130.237 103.879 132.308 109.336 131.762 114.793H130.234Z" fill="black"/>
<g opacity="0.2">
<path d="M121.677 112.711C119.334 113.946 117.69 116.416 117.452 119.053C117.374 119.93 117.479 120.905 118.108 121.521C118.597 121.998 119.326 122.167 120.007 122.109C120.688 122.052 121.335 121.795 121.96 121.517C123.755 120.722 125.492 119.724 126.861 118.316C127.035 118.137 127.203 117.947 127.364 117.746C129.416 115.187 127.147 111.357 123.919 111.943C123.139 112.085 122.38 112.341 121.677 112.711V112.711Z" fill="white"/>
</g>
<path opacity="0.3" d="M115.321 121.113C115.321 121.113 130.009 123.364 131.045 125.031C132.081 126.698 130.202 135.332 130.202 135.332C130.202 135.332 127.036 136.248 121.86 134.397C116.683 132.546 115.321 121.113 115.321 121.113Z" fill="black"/>
<path d="M113.671 137.257C113.671 137.257 117.678 139.231 124.138 138.367C130.598 137.502 130.649 126.872 129.453 125.809C129.042 125.444 113.671 137.257 113.671 137.257Z" fill="#6AB43C"/>
<path opacity="0.2" d="M113.671 137.257C113.671 137.257 117.678 139.231 124.138 138.367C130.598 137.502 130.649 126.872 129.453 125.809C129.042 125.444 113.671 137.257 113.671 137.257Z" fill="black"/>
<path d="M106.31 121.23C105.894 121.261 100.133 132.193 109.601 136.624C110.953 137.257 112.617 137.757 114.651 138.074C130.923 140.609 129.451 125.809 129.451 125.809C129.451 125.809 119.23 120.249 106.31 121.23Z" fill="#6AB43C"/>
<path opacity="0.2" d="M106.31 121.23C105.894 121.261 100.133 132.193 109.601 136.624C110.953 137.257 112.617 137.757 114.651 138.074C130.923 140.609 129.451 125.809 129.451 125.809C129.451 125.809 119.23 120.249 106.31 121.23Z" fill="white"/>
<path opacity="0.2" d="M112.26 121.212C112.26 121.212 112.027 122.041 112.25 123.245C112.435 124.243 113.063 128.939 118.425 128.458C123.786 127.977 122.232 123.69 121.568 122.949C120.872 122.172 112.317 121.068 112.261 121.212L112.26 121.212Z" fill="white"/>
<path d="M115.324 123.143C115.324 123.143 116.093 125.018 117.469 125.029C118.506 125.036 118.687 124.015 118.615 123.697C118.493 123.155 116.618 122.773 115.324 123.143Z" fill="#263238"/>
<path opacity="0.2" d="M109.6 136.625C110.953 137.258 112.616 137.758 114.65 138.075C130.923 140.61 129.451 125.809 129.451 125.809C129.451 125.809 129.062 125.599 128.348 125.269C128.347 125.274 128.956 136.28 119.189 136.723C113.328 136.99 108.814 136.625 106.106 132.194C103.397 127.762 106.31 121.23 106.31 121.23C105.894 121.262 100.133 132.194 109.601 136.625H109.6Z" fill="white"/>
</g>
</svg>
