<svg width="16" height="16" viewBox="0 0 16 16" fill="none" xmlns="http://www.w3.org/2000/svg">
<path d="M6.15174 15.1667C6.14508 15.1667 6.1384 15.1667 6.12508 15.1667C5.00508 15.16 4.20507 14.1534 3.6384 13.28C2.19174 11.06 1.8984 8.26666 2.94507 6.64667C3.64507 5.56 4.7784 4.88666 5.8984 4.88666C6.4784 4.88666 6.93174 5.04667 7.33174 5.19334C7.65174 5.30667 7.92507 5.40666 8.21172 5.40666C8.46508 5.40666 8.68508 5.32001 8.96508 5.21334C9.35172 5.06667 9.82508 4.88666 10.5117 4.88666C11.4984 4.88666 12.4615 5.38367 13.2184 6.30666C13.9801 7.23552 14.0385 8.69242 14.0784 9.25994C14.1086 9.69642 13.8376 11.2415 13.6384 11.64C13.3451 12.2933 13.1984 12.5933 12.8184 13.18C12.1851 14.1533 11.3851 15.1533 10.2917 15.1667C9.81844 15.1667 9.49844 15.0267 9.21844 14.8933C8.93844 14.7667 8.66508 14.6667 8.23172 14.6533C7.76507 14.6533 7.5184 14.7667 7.23174 14.8933C6.9384 15.0267 6.6184 15.1667 6.15174 15.1667ZM7.8784 4.75334C7.8584 4.75334 7.83174 4.75334 7.81174 4.75334C7.5784 4.74667 7.3784 4.57334 7.3384 4.34001C7.1984 3.58667 7.46507 2.71999 8.04508 2.01333C8.57844 1.36666 9.45844 0.886672 10.2384 0.833336C10.5117 0.82 10.7317 1.00001 10.7651 1.26001C10.8784 2.04001 10.6317 2.89334 10.0784 3.60667C9.53844 4.30667 8.67844 4.75334 7.8784 4.75334Z" fill="url(#paint0_linear_727_59245)"/>
<defs>
<linearGradient id="paint0_linear_727_59245" x1="2.66546" y1="14.3703" x2="19.2451" y2="14.018" gradientUnits="userSpaceOnUse">
<stop stop-color="#005F73"/>
<stop offset="1" stop-color="#6CC24A"/>
</linearGradient>
</defs>
</svg>
