<svg width="24" height="24" viewBox="0 0 24 24" fill="none" xmlns="http://www.w3.org/2000/svg">
<rect width="24" height="24" rx="8" fill="white"/>
<path d="M10.1517 19.1661C10.1451 19.1661 10.1384 19.1661 10.1251 19.1661C9.00507 19.1594 8.20507 18.1527 7.63841 17.2794C6.19174 15.0594 5.8984 12.2661 6.94507 10.6461C7.64507 9.55939 8.77841 8.88605 9.89841 8.88605C10.4784 8.88605 10.9317 9.04606 11.3317 9.19273C11.6517 9.30606 11.9251 9.40605 12.2117 9.40605C12.4651 9.40605 12.6851 9.3194 12.9651 9.21273C13.3517 9.06606 13.8251 8.88605 14.5117 8.88605C15.4984 8.88605 16.4615 9.38306 17.2184 10.3061C17.9801 11.2349 18.0385 12.6919 18.0784 13.2593C18.1086 13.6958 17.8377 15.2409 17.6384 15.6394C17.3451 16.2927 17.1984 16.5927 16.8184 17.1794C16.1851 18.1527 15.3851 19.1527 14.2917 19.1661C13.8184 19.1661 13.4984 19.0261 13.2184 18.8927C12.9384 18.7661 12.6651 18.6661 12.2317 18.6527C11.7651 18.6527 11.5184 18.7661 11.2317 18.8927C10.9384 19.0261 10.6184 19.1661 10.1517 19.1661ZM11.8784 8.75273C11.8584 8.75273 11.8317 8.75273 11.8117 8.75273C11.5784 8.74606 11.3784 8.57273 11.3384 8.3394C11.1984 7.58607 11.4651 6.71938 12.0451 6.01272C12.5784 5.36605 13.4584 4.88606 14.2384 4.83273C14.5117 4.81939 14.7317 4.9994 14.7651 5.2594C14.8784 6.0394 14.6317 6.89273 14.0784 7.60606C13.5384 8.30606 12.6784 8.75273 11.8784 8.75273Z" fill="url(#paint0_linear_9859_212927)"/>
<defs>
<linearGradient id="paint0_linear_9859_212927" x1="6.66546" y1="18.3697" x2="23.2451" y2="18.0174" gradientUnits="userSpaceOnUse">
<stop stop-color="#005F73"/>
<stop offset="1" stop-color="#6CC24A"/>
</linearGradient>
</defs>
</svg>
