<svg width="16" height="16" viewBox="0 0 16 16" fill="none" xmlns="http://www.w3.org/2000/svg">
<path d="M7.99964 5.83349C7.7263 5.83349 7.49964 5.60682 7.49964 5.33349V2.54016L7.01964 3.02016C6.8263 3.21349 6.5063 3.21349 6.31297 3.02016C6.11964 2.82682 6.11964 2.50682 6.31297 2.31349L7.6463 0.980155C7.7863 0.840155 8.0063 0.793489 8.19297 0.873489C8.37964 0.946822 8.49964 1.13349 8.49964 1.33349V5.33349C8.49964 5.60682 8.27297 5.83349 7.99964 5.83349Z" fill="#6CC24A"/>
<path d="M9.33557 3.16663C9.20891 3.16663 9.08224 3.11996 8.98224 3.01996L7.64891 1.68663C7.45557 1.49329 7.45557 1.17329 7.64891 0.979961C7.84224 0.786628 8.16224 0.786628 8.35557 0.979961L9.68891 2.31329C9.88224 2.50663 9.88224 2.82663 9.68891 3.01996C9.58891 3.11996 9.46224 3.16663 9.33557 3.16663Z" fill="#6CC24A"/>
<path d="M10.6667 15.1667H5.33333C1.5 15.1667 1.5 13.1333 1.5 11.3333V10.6667C1.5 9.18 1.5 7.5 4.66667 7.5C5.46 7.5 5.75333 7.69333 6.16667 8C6.18667 8.02 6.21333 8.03333 6.23333 8.06L6.91333 8.78C7.48667 9.38667 8.52667 9.38667 9.1 8.78L9.78 8.06C9.8 8.04 9.82 8.02 9.84667 8C10.26 7.68667 10.5533 7.5 11.3467 7.5C14.5133 7.5 14.5133 9.18 14.5133 10.6667V11.3333C14.5 13.88 13.2133 15.1667 10.6667 15.1667ZM4.66667 8.5C2.5 8.5 2.5 9.18 2.5 10.6667V11.3333C2.5 13.16 2.5 14.1667 5.33333 14.1667H10.6667C12.6533 14.1667 13.5 13.32 13.5 11.3333V10.6667C13.5 9.18 13.5 8.5 11.3333 8.5C10.8533 8.5 10.7533 8.56 10.4667 8.77333L9.82 9.46C9.34 9.96667 8.69333 10.2467 8 10.2467C7.30667 10.2467 6.66 9.96667 6.18 9.46L5.53333 8.77333C5.24667 8.56 5.14667 8.5 4.66667 8.5Z" fill="#6CC24A"/>
<path d="M3.33203 8.49998C3.0587 8.49998 2.83203 8.27332 2.83203 7.99998V6.66665C2.83203 5.37332 2.83203 3.76665 5.28536 3.53332C5.55203 3.49998 5.80536 3.70665 5.83203 3.98665C5.8587 4.25998 5.6587 4.50665 5.3787 4.53332C3.83203 4.67332 3.83203 5.29998 3.83203 6.66665V7.99998C3.83203 8.27332 3.60536 8.49998 3.33203 8.49998Z" fill="#6CC24A"/>
<path d="M12.6676 8.49998C12.3943 8.49998 12.1676 8.27332 12.1676 7.99998V6.66665C12.1676 5.29998 12.1676 4.67332 10.6209 4.52665C10.3476 4.49998 10.1476 4.25332 10.1743 3.97998C10.2009 3.70665 10.4409 3.49998 10.7209 3.53332C13.1743 3.76665 13.1743 5.37332 13.1743 6.66665V7.99998C13.1676 8.27332 12.9409 8.49998 12.6676 8.49998Z" fill="#6CC24A"/>
</svg>
