<svg width="16" height="16" viewBox="0 0 16 16" fill="none" xmlns="http://www.w3.org/2000/svg">
<path d="M10.6667 15.1667H5.33333C1.5 15.1667 1.5 13.1333 1.5 11.3333V10.6667C1.5 9.18 1.5 7.5 4.66667 7.5C5.46 7.5 5.75333 7.69333 6.16667 8C6.18667 8.02 6.21333 8.03333 6.23333 8.06L6.91333 8.78C7.48667 9.38667 8.52667 9.38667 9.1 8.78L9.78 8.06C9.8 8.04 9.82 8.02 9.84667 8C10.26 7.68667 10.5533 7.5 11.3467 7.5C14.5133 7.5 14.5133 9.18 14.5133 10.6667V11.3333C14.5 13.88 13.2133 15.1667 10.6667 15.1667ZM4.66667 8.5C2.5 8.5 2.5 9.18 2.5 10.6667V11.3333C2.5 13.16 2.5 14.1667 5.33333 14.1667H10.6667C12.6533 14.1667 13.5 13.32 13.5 11.3333V10.6667C13.5 9.18 13.5 8.5 11.3333 8.5C10.8533 8.5 10.7533 8.56 10.4667 8.77333L9.82 9.46C9.34 9.96667 8.69333 10.2467 8 10.2467C7.30667 10.2467 6.66 9.96667 6.18 9.46L5.53333 8.77333C5.24667 8.56 5.14667 8.5 4.66667 8.5Z" fill="#005F73"/>
<path d="M12.6663 8.4987C12.393 8.4987 12.1663 8.27203 12.1663 7.9987V3.9987C12.1663 2.51203 12.1663 1.83203 9.99967 1.83203H5.99967C3.83301 1.83203 3.83301 2.51203 3.83301 3.9987V7.9987C3.83301 8.27203 3.60634 8.4987 3.33301 8.4987C3.05967 8.4987 2.83301 8.27203 2.83301 7.9987V3.9987C2.83301 2.51203 2.83301 0.832031 5.99967 0.832031H9.99967C13.1663 0.832031 13.1663 2.51203 13.1663 3.9987V7.9987C13.1663 8.27203 12.9397 8.4987 12.6663 8.4987Z" fill="#005F73"/>
</svg>
