<svg width="13" height="13" viewBox="0 0 13 13" fill="none" xmlns="http://www.w3.org/2000/svg">
<path d="M8.20601 11.5632H4.29297C2.50764 11.5632 1.48047 10.536 1.48047 8.75068V3.85937C1.48047 2.07405 2.50764 1.04688 4.29297 1.04688H8.20601C9.99134 1.04688 11.0185 2.07405 11.0185 3.85937V8.75068C11.0185 10.536 9.99134 11.5632 8.20601 11.5632ZM4.29297 1.78057C2.89406 1.78057 2.21416 2.46046 2.21416 3.85937V8.75068C2.21416 10.1496 2.89406 10.8295 4.29297 10.8295H8.20601C9.60493 10.8295 10.2848 10.1496 10.2848 8.75068V3.85937C10.2848 2.46046 9.60493 1.78057 8.20601 1.78057H4.29297Z" fill="#888888"/>
<path d="M9.42884 4.95975H8.45058C7.7071 4.95975 7.10547 4.35812 7.10547 3.61464V2.63638C7.10547 2.43584 7.27177 2.26953 7.47232 2.26953C7.67286 2.26953 7.83916 2.43584 7.83916 2.63638V3.61464C7.83916 3.95214 8.11308 4.22605 8.45058 4.22605H9.42884C9.62938 4.22605 9.79569 4.39236 9.79569 4.5929C9.79569 4.79344 9.62938 4.95975 9.42884 4.95975Z" fill="#888888"/>
<path d="M6.24915 7.15948H4.29263C4.09209 7.15948 3.92578 6.99317 3.92578 6.79263C3.92578 6.59209 4.09209 6.42578 4.29263 6.42578H6.24915C6.44969 6.42578 6.616 6.59209 6.616 6.79263C6.616 6.99317 6.44969 7.15948 6.24915 7.15948Z" fill="#888888"/>
<path d="M8.20567 9.11651H4.29263C4.09209 9.11651 3.92578 8.9502 3.92578 8.74966C3.92578 8.54912 4.09209 8.38281 4.29263 8.38281H8.20567C8.40622 8.38281 8.57252 8.54912 8.57252 8.74966C8.57252 8.9502 8.40622 9.11651 8.20567 9.11651Z" fill="#888888"/>
</svg>
