<svg width="134" height="108" viewBox="0 0 134 108" fill="none" xmlns="http://www.w3.org/2000/svg">
<path fill-rule="evenodd" clip-rule="evenodd" d="M110.952 35.1016C113.025 35.1016 114.704 36.7939 114.704 38.8816C114.704 40.9692 113.025 42.6616 110.952 42.6616H89.5124C91.5846 42.6616 93.2644 44.3539 93.2644 46.4416C93.2644 48.5292 91.5846 50.2216 89.5124 50.2216H101.304C103.377 50.2216 105.056 51.9139 105.056 54.0016C105.056 56.0892 103.377 57.7816 101.304 57.7816H95.8512C93.2384 57.7816 91.1204 59.4739 91.1204 61.5616C91.1204 62.9533 92.1924 64.2133 94.3364 65.3416C96.4086 65.3416 98.0884 67.0339 98.0884 69.1216C98.0884 71.2092 96.4086 72.9016 94.3364 72.9016H49.8484C47.7762 72.9016 46.0964 71.2092 46.0964 69.1216C46.0964 67.0339 47.7762 65.3416 49.8484 65.3416H28.9444C26.8722 65.3416 25.1924 63.6492 25.1924 61.5616C25.1924 59.4739 26.8722 57.7816 28.9444 57.7816H50.3844C52.4566 57.7816 54.1364 56.0892 54.1364 54.0016C54.1364 51.9139 52.4566 50.2216 50.3844 50.2216H36.9844C34.9122 50.2216 33.2324 48.5292 33.2324 46.4416C33.2324 44.3539 34.9122 42.6616 36.9844 42.6616H58.4244C56.3522 42.6616 54.6724 40.9692 54.6724 38.8816C54.6724 36.7939 56.3522 35.1016 58.4244 35.1016H110.952ZM110.952 50.2216C113.025 50.2216 114.704 51.9139 114.704 54.0016C114.704 56.0892 113.025 57.7816 110.952 57.7816C108.88 57.7816 107.2 56.0892 107.2 54.0016C107.2 51.9139 108.88 50.2216 110.952 50.2216Z" fill="#F4F4F4"/>
<path opacity="0.4" d="M89.8955 46.0517H82.7909C76.9647 46.0517 72.2201 41.3071 72.2201 35.4809V28.3763C72.2201 27.0242 71.1138 25.918 69.7618 25.918H59.3384C51.7668 25.918 45.6455 30.8346 45.6455 39.6109V61.3917C45.6455 70.168 51.7668 75.0846 59.3384 75.0846H78.6609C86.2326 75.0846 92.3538 70.168 92.3538 61.3917V48.51C92.3538 47.158 91.2476 46.0517 89.8955 46.0517Z" fill="url(#paint0_linear_4120_292200)"/>
<path d="M78.3412 26.4321C77.3333 25.4242 75.5879 26.1126 75.5879 27.5138V36.0934C75.5879 39.6826 78.6362 42.6571 82.3483 42.6571C84.6837 42.6817 87.9287 42.6817 90.7066 42.6817C92.1079 42.6817 92.8454 41.0346 91.8621 40.0513C88.3221 36.4867 81.9796 30.0705 78.3412 26.4321Z" fill="url(#paint1_linear_4120_292200)"/>
<path d="M72.6875 54.8008H57.9375C56.9296 54.8008 56.0938 53.9649 56.0938 52.957C56.0938 51.9491 56.9296 51.1133 57.9375 51.1133H72.6875C73.6954 51.1133 74.5312 51.9491 74.5312 52.957C74.5312 53.9649 73.6954 54.8008 72.6875 54.8008Z" fill="url(#paint2_linear_4120_292200)"/>
<path d="M67.7708 64.6367H57.9375C56.9296 64.6367 56.0938 63.8009 56.0938 62.793C56.0938 61.7851 56.9296 60.9492 57.9375 60.9492H67.7708C68.7788 60.9492 69.6146 61.7851 69.6146 62.793C69.6146 63.8009 68.7788 64.6367 67.7708 64.6367Z" fill="url(#paint3_linear_4120_292200)"/>
<defs>
<linearGradient id="paint0_linear_4120_292200" x1="47.0163" y1="72.3532" x2="112.855" y2="70.7331" gradientUnits="userSpaceOnUse">
<stop stop-color="#005F73"/>
<stop offset="1" stop-color="#6CC24A"/>
</linearGradient>
<linearGradient id="paint1_linear_4120_292200" x1="76.0787" y1="41.7524" x2="99.6511" y2="41.142" gradientUnits="userSpaceOnUse">
<stop stop-color="#005F73"/>
<stop offset="1" stop-color="#6CC24A"/>
</linearGradient>
<linearGradient id="paint2_linear_4120_292200" x1="56.6349" y1="54.5959" x2="82.2105" y2="51.2837" gradientUnits="userSpaceOnUse">
<stop stop-color="#005F73"/>
<stop offset="1" stop-color="#6CC24A"/>
</linearGradient>
<linearGradient id="paint3_linear_4120_292200" x1="56.4906" y1="64.4319" x2="75.3901" y2="62.637" gradientUnits="userSpaceOnUse">
<stop stop-color="#005F73"/>
<stop offset="1" stop-color="#6CC24A"/>
</linearGradient>
</defs>
</svg>
