<svg width="60" height="59" viewBox="0 0 60 59" fill="none" xmlns="http://www.w3.org/2000/svg">
<path opacity="0.4" d="M50.8955 25.0503H43.7909C37.9647 25.0503 33.2201 20.3057 33.2201 14.4794V7.37484C33.2201 6.02275 32.1138 4.9165 30.7618 4.9165H20.3384C12.7668 4.9165 6.64551 9.83317 6.64551 18.6094V40.3903C6.64551 49.1665 12.7668 54.0832 20.3384 54.0832H39.6609C47.2326 54.0832 53.3538 49.1665 53.3538 40.3903V27.5086C53.3538 26.1565 52.2476 25.0503 50.8955 25.0503Z" fill="url(#paint0_linear_1764_57559)"/>
<path d="M39.3412 5.43312C38.3333 4.42521 36.5879 5.11354 36.5879 6.51479V15.0944C36.5879 18.6835 39.6362 21.6581 43.3483 21.6581C45.6837 21.6827 48.9287 21.6827 51.7066 21.6827C53.1079 21.6827 53.8454 20.0356 52.8621 19.0523C49.3221 15.4877 42.9796 9.07146 39.3412 5.43312Z" fill="url(#paint1_linear_1764_57559)"/>
<path d="M33.6875 33.8022H18.9375C17.9296 33.8022 17.0938 32.9664 17.0938 31.9585C17.0938 30.9506 17.9296 30.1147 18.9375 30.1147H33.6875C34.6954 30.1147 35.5312 30.9506 35.5312 31.9585C35.5312 32.9664 34.6954 33.8022 33.6875 33.8022Z" fill="url(#paint2_linear_1764_57559)"/>
<path d="M28.7708 43.6353H18.9375C17.9296 43.6353 17.0938 42.7994 17.0938 41.7915C17.0938 40.7836 17.9296 39.9478 18.9375 39.9478H28.7708C29.7788 39.9478 30.6146 40.7836 30.6146 41.7915C30.6146 42.7994 29.7788 43.6353 28.7708 43.6353Z" fill="url(#paint3_linear_1764_57559)"/>
<defs>
<linearGradient id="paint0_linear_1764_57559" x1="8.0163" y1="51.3517" x2="73.8547" y2="49.7317" gradientUnits="userSpaceOnUse">
<stop stop-color="#005F73"/>
<stop offset="1" stop-color="#6CC24A"/>
</linearGradient>
<linearGradient id="paint1_linear_1764_57559" x1="37.0787" y1="20.7533" x2="60.6511" y2="20.1429" gradientUnits="userSpaceOnUse">
<stop stop-color="#005F73"/>
<stop offset="1" stop-color="#6CC24A"/>
</linearGradient>
<linearGradient id="paint2_linear_1764_57559" x1="17.6349" y1="33.5974" x2="43.2105" y2="30.2852" gradientUnits="userSpaceOnUse">
<stop stop-color="#005F73"/>
<stop offset="1" stop-color="#6CC24A"/>
</linearGradient>
<linearGradient id="paint3_linear_1764_57559" x1="17.4906" y1="43.4304" x2="36.3901" y2="41.6355" gradientUnits="userSpaceOnUse">
<stop stop-color="#005F73"/>
<stop offset="1" stop-color="#6CC24A"/>
</linearGradient>
</defs>
</svg>
