<svg width="20" height="20" viewBox="0 0 20 20" fill="none" xmlns="http://www.w3.org/2000/svg">
<path d="M7.5 14.7915C7.41667 14.7915 7.34167 14.7748 7.25833 14.7415C7.025 14.6498 6.875 14.4165 6.875 14.1665V9.1665C6.875 8.82484 7.15833 8.5415 7.5 8.5415C7.84167 8.5415 8.125 8.82484 8.125 9.1665V12.6582L8.725 12.0582C8.96667 11.8165 9.36667 11.8165 9.60833 12.0582C9.85 12.2998 9.85 12.6998 9.60833 12.9415L7.94167 14.6082C7.825 14.7248 7.65833 14.7915 7.5 14.7915Z" fill="#005F73"/>
<path d="M7.49954 14.7915C7.34121 14.7915 7.18288 14.7332 7.05788 14.6082L5.39121 12.9415C5.14954 12.6999 5.14954 12.2999 5.39121 12.0582C5.63288 11.8165 6.03288 11.8165 6.27454 12.0582L7.94121 13.7249C8.18288 13.9665 8.18288 14.3665 7.94121 14.6082C7.81621 14.7332 7.65788 14.7915 7.49954 14.7915Z" fill="#005F73"/>
<path d="M12.5003 18.9582H7.50033C2.97533 18.9582 1.04199 17.0248 1.04199 12.4998V7.49984C1.04199 2.97484 2.97533 1.0415 7.50033 1.0415H11.667C12.0087 1.0415 12.292 1.32484 12.292 1.6665C12.292 2.00817 12.0087 2.2915 11.667 2.2915H7.50033C3.65866 2.2915 2.29199 3.65817 2.29199 7.49984V12.4998C2.29199 16.3415 3.65866 17.7082 7.50033 17.7082H12.5003C16.342 17.7082 17.7087 16.3415 17.7087 12.4998V8.33317C17.7087 7.9915 17.992 7.70817 18.3337 7.70817C18.6753 7.70817 18.9587 7.9915 18.9587 8.33317V12.4998C18.9587 17.0248 17.0253 18.9582 12.5003 18.9582Z" fill="#005F73"/>
<path d="M18.3337 8.95841H15.0003C12.1503 8.95841 11.042 7.85007 11.042 5.00007V1.66674C11.042 1.41674 11.192 1.18341 11.4253 1.09174C11.6587 0.991739 11.9253 1.05007 12.1087 1.22507L18.7753 7.89174C18.9503 8.06674 19.0087 8.34174 18.9087 8.57507C18.8087 8.80841 18.5837 8.95841 18.3337 8.95841ZM12.292 3.17507V5.00007C12.292 7.15007 12.8503 7.70841 15.0003 7.70841H16.8253L12.292 3.17507Z" fill="#005F73"/>
</svg>
