<svg width="16" height="16" viewBox="0 0 16 16" fill="none" xmlns="http://www.w3.org/2000/svg">
<path d="M6.00012 11.833C5.72679 11.833 5.50012 11.6063 5.50012 11.333V8.53967L5.02012 9.01967C4.82679 9.213 4.50679 9.213 4.31346 9.01967C4.12012 8.82633 4.12012 8.50633 4.31346 8.313L5.64679 6.97967C5.78679 6.83967 6.00679 6.793 6.19346 6.873C6.38012 6.94633 6.50012 7.133 6.50012 7.333V11.333C6.50012 11.6063 6.27346 11.833 6.00012 11.833Z" fill="#005F73"/>
<path d="M7.33313 9.16565C7.20646 9.16565 7.0798 9.11898 6.9798 9.01898L5.64646 7.68565C5.45313 7.49232 5.45313 7.17232 5.64646 6.97898C5.8398 6.78565 6.1598 6.78565 6.35313 6.97898L7.68646 8.31232C7.8798 8.50565 7.8798 8.82565 7.68646 9.01898C7.58646 9.11898 7.4598 9.16565 7.33313 9.16565Z" fill="#005F73"/>
<path d="M10.0002 15.1673H6.00016C2.38016 15.1673 0.833496 13.6207 0.833496 10.0007V6.00065C0.833496 2.38065 2.38016 0.833984 6.00016 0.833984H9.3335C9.60683 0.833984 9.8335 1.06065 9.8335 1.33398C9.8335 1.60732 9.60683 1.83398 9.3335 1.83398H6.00016C2.92683 1.83398 1.8335 2.92732 1.8335 6.00065V10.0007C1.8335 13.074 2.92683 14.1673 6.00016 14.1673H10.0002C13.0735 14.1673 14.1668 13.074 14.1668 10.0007V6.66732C14.1668 6.39398 14.3935 6.16732 14.6668 6.16732C14.9402 6.16732 15.1668 6.39398 15.1668 6.66732V10.0007C15.1668 13.6207 13.6202 15.1673 10.0002 15.1673Z" fill="#005F73"/>
<path d="M14.6668 7.16633H12.0002C9.72016 7.16633 8.8335 6.27967 8.8335 3.99967V1.333C8.8335 1.133 8.9535 0.946334 9.14016 0.873C9.32683 0.793 9.54016 0.839667 9.68683 0.979667L15.0202 6.313C15.1602 6.453 15.2068 6.673 15.1268 6.85967C15.0468 7.04633 14.8668 7.16633 14.6668 7.16633ZM9.8335 2.53967V3.99967C9.8335 5.71967 10.2802 6.16633 12.0002 6.16633H13.4602L9.8335 2.53967Z" fill="#005F73"/>
</svg>
