<svg width="57" height="57" viewBox="0 0 57 57" fill="none" xmlns="http://www.w3.org/2000/svg">
<g clip-path="url(#clip0_11419_228649)">
<path opacity="0.4" d="M19.3301 5.58398H29.2227C30.2758 5.58398 31.1395 6.44693 31.1396 7.5V14.2441C31.1399 20.004 35.8299 24.6934 41.5898 24.6934H48.333C49.3862 24.6934 50.25 25.5571 50.25 26.6104V38.8369C50.25 42.8996 48.8361 46.0345 46.5781 48.1553C44.316 50.2799 41.1739 51.4169 37.6699 51.417H19.3301C15.8261 51.417 12.6841 50.2799 10.4219 48.1553C8.16381 46.0345 6.75 42.8997 6.75 38.8369V18.1641C6.75 14.1013 8.16384 10.9665 10.4219 8.8457C12.6841 6.72104 15.826 5.58398 19.3301 5.58398Z" fill="url(#paint0_linear_11419_228649)" stroke="url(#paint1_linear_11419_228649)" stroke-width="0.833333"/>
<path d="M37.3663 5.65681C36.4096 4.70015 34.7529 5.35348 34.7529 6.68348V14.8268C34.7529 18.2335 37.6463 21.0568 41.1696 21.0568C43.3863 21.0801 46.4663 21.0801 49.1029 21.0801C50.4329 21.0801 51.1329 19.5168 50.1996 18.5835C46.8396 15.2001 40.8196 9.11015 37.3663 5.65681Z" fill="url(#paint2_linear_11419_228649)"/>
<path d="M27.403 29.597L22.7364 24.9303C22.713 24.907 22.6897 24.907 22.6897 24.8837C22.5497 24.7437 22.363 24.627 22.1764 24.5337C22.153 24.5337 22.153 24.5337 22.1297 24.5337C21.943 24.4637 21.7564 24.4403 21.5697 24.417C21.4997 24.417 21.453 24.417 21.383 24.417C21.243 24.417 21.0797 24.4637 20.9397 24.5103C20.8697 24.5337 20.823 24.557 20.7764 24.5803C20.5897 24.6737 20.403 24.767 20.263 24.9303L15.5964 29.597C14.9197 30.2737 14.9197 31.3937 15.5964 32.0703C16.273 32.747 17.393 32.747 18.0697 32.0703L19.7497 30.3903V40.167C19.7497 41.1237 20.543 41.917 21.4997 41.917C22.4564 41.917 23.2497 41.1237 23.2497 40.167V30.3903L24.9297 32.0703C25.2797 32.4203 25.723 32.5837 26.1664 32.5837C26.6097 32.5837 27.053 32.4203 27.403 32.0703C28.0797 31.3937 28.0797 30.2737 27.403 29.597Z" fill="url(#paint3_linear_11419_228649)"/>
</g>
<defs>
<linearGradient id="paint0_linear_11419_228649" x1="7.63409" y1="49.2411" x2="70.1248" y2="47.7034" gradientUnits="userSpaceOnUse">
<stop stop-color="#005F73"/>
<stop offset="1" stop-color="#6CC24A"/>
</linearGradient>
<linearGradient id="paint1_linear_11419_228649" x1="7.63409" y1="49.2411" x2="70.1248" y2="47.7034" gradientUnits="userSpaceOnUse">
<stop stop-color="#005F73"/>
<stop offset="1" stop-color="#6CC24A"/>
</linearGradient>
<linearGradient id="paint2_linear_11419_228649" x1="35.2188" y1="20.198" x2="57.5925" y2="19.6187" gradientUnits="userSpaceOnUse">
<stop stop-color="#005F73"/>
<stop offset="1" stop-color="#6CC24A"/>
</linearGradient>
<linearGradient id="paint3_linear_11419_228649" x1="15.4652" y1="40.9448" x2="33.5426" y2="40.6017" gradientUnits="userSpaceOnUse">
<stop stop-color="#005F73"/>
<stop offset="1" stop-color="#6CC24A"/>
</linearGradient>
<clipPath id="clip0_11419_228649">
<rect width="56" height="56" fill="white" transform="translate(0.5 0.5)"/>
</clipPath>
</defs>
</svg>
