<svg width="12" height="12" viewBox="0 0 12 12" fill="none" xmlns="http://www.w3.org/2000/svg">
<path d="M5.5 8.87521C5.405 8.87521 5.31 8.84021 5.235 8.76521C5.09 8.62021 5.09 8.38021 5.235 8.23521L5.595 7.87521H3.5C3.295 7.87521 3.125 7.70521 3.125 7.50021C3.125 7.29521 3.295 7.12521 3.5 7.12521H5.595L5.235 6.76521C5.16 6.69021 5.125 6.59521 5.125 6.50021C5.125 6.40521 5.16 6.31021 5.235 6.23521C5.38 6.09021 5.62 6.09021 5.765 6.23521L6.765 7.23521C6.83 7.30021 6.865 7.38521 6.87 7.46521C6.87 7.49021 6.87 7.52021 6.87 7.54521C6.86 7.61521 6.83 7.68021 6.78 7.74021C6.775 7.74521 6.765 7.75521 6.76 7.76021L5.76 8.76021C5.69 8.84021 5.595 8.87521 5.5 8.87521Z" fill="white"/>
<path d="M7.5 11.375H4.5C1.785 11.375 0.625 10.215 0.625 7.5V4.5C0.625 1.785 1.785 0.625 4.5 0.625H7C7.205 0.625 7.375 0.795 7.375 1C7.375 1.205 7.205 1.375 7 1.375H4.5C2.195 1.375 1.375 2.195 1.375 4.5V7.5C1.375 9.805 2.195 10.625 4.5 10.625H7.5C9.805 10.625 10.625 9.805 10.625 7.5V5C10.625 4.795 10.795 4.625 11 4.625C11.205 4.625 11.375 4.795 11.375 5V7.5C11.375 10.215 10.215 11.375 7.5 11.375Z" fill="white"/>
<path d="M11 5.37524H9C7.29 5.37524 6.625 4.71024 6.625 3.00024V1.00024C6.625 0.850239 6.715 0.710238 6.855 0.655238C6.995 0.595238 7.155 0.630239 7.265 0.735239L11.265 4.73524C11.37 4.84024 11.405 5.00524 11.345 5.14524C11.285 5.28524 11.15 5.37524 11 5.37524ZM7.375 1.90524V3.00024C7.375 4.29024 7.71 4.62524 9 4.62524H10.095L7.375 1.90524Z" fill="white"/>
</svg>
