<svg width="20" height="20" viewBox="0 0 20 20" fill="none" xmlns="http://www.w3.org/2000/svg">
<path d="M12.5003 18.9596H7.50033C2.97533 18.9596 1.04199 17.0263 1.04199 12.5013V7.5013C1.04199 2.9763 2.97533 1.04297 7.50033 1.04297H11.667C12.0087 1.04297 12.292 1.3263 12.292 1.66797C12.292 2.00964 12.0087 2.29297 11.667 2.29297H7.50033C3.65866 2.29297 2.29199 3.65964 2.29199 7.5013V12.5013C2.29199 16.343 3.65866 17.7096 7.50033 17.7096H12.5003C16.342 17.7096 17.7087 16.343 17.7087 12.5013V8.33464C17.7087 7.99297 17.992 7.70964 18.3337 7.70964C18.6753 7.70964 18.9587 7.99297 18.9587 8.33464V12.5013C18.9587 17.0263 17.0253 18.9596 12.5003 18.9596Z" fill="#005F73"/>
<path d="M11.6082 1.55711L11.6153 1.55432L11.6223 1.55131C11.6561 1.5368 11.7108 1.53847 11.7605 1.584L18.4218 8.24529C18.4563 8.27981 18.4663 8.33796 18.4491 8.37811C18.4263 8.43132 18.3796 8.45841 18.3337 8.45841H15.0003C13.6212 8.45841 12.7982 8.18669 12.306 7.69444C11.8137 7.20218 11.542 6.37917 11.542 5.00007V1.66674C11.542 1.64137 11.5498 1.61601 11.5635 1.59522C11.5769 1.57493 11.593 1.56305 11.6082 1.55711ZM12.6455 2.82152L11.792 1.96797V3.17507V5.00007C11.792 6.07541 11.9203 6.94794 12.4864 7.51404C13.0525 8.08014 13.925 8.20841 15.0003 8.20841H16.8253H18.0324L17.1789 7.35485L12.6455 2.82152Z" fill="#005F73" stroke="#005F73"/>
<path d="M10.833 10.957H5.83301C5.80286 10.957 5.77158 10.9447 5.74594 10.9191C5.72029 10.8935 5.70801 10.8622 5.70801 10.832C5.70801 10.8019 5.72029 10.7706 5.74594 10.745C5.77158 10.7193 5.80286 10.707 5.83301 10.707H10.833C10.8632 10.707 10.8944 10.7193 10.9201 10.745C10.9457 10.7706 10.958 10.8019 10.958 10.832C10.958 10.8622 10.9457 10.8935 10.9201 10.9191C10.8944 10.9447 10.8632 10.957 10.833 10.957Z" fill="#005F73" stroke="#005F73"/>
<path d="M9.16634 14.293H5.83301C5.80286 14.293 5.77158 14.2807 5.74594 14.255C5.72029 14.2294 5.70801 14.1981 5.70801 14.168C5.70801 14.1378 5.72029 14.1065 5.74594 14.0809C5.77158 14.0553 5.80286 14.043 5.83301 14.043H9.16634C9.19649 14.043 9.22777 14.0553 9.25341 14.0809C9.27906 14.1065 9.29134 14.1378 9.29134 14.168C9.29134 14.1981 9.27906 14.2294 9.25341 14.255C9.22777 14.2807 9.19649 14.293 9.16634 14.293Z" fill="#005F73" stroke="#005F73"/>
</svg>
