<svg width="59" height="59" viewBox="0 0 59 59" fill="none" xmlns="http://www.w3.org/2000/svg">
<path opacity="0.4" d="M29.4998 54.0827C43.0768 54.0827 54.0832 43.0763 54.0832 29.4993C54.0832 15.9223 43.0768 4.91602 29.4998 4.91602C15.9228 4.91602 4.9165 15.9223 4.9165 29.4993C4.9165 43.0763 15.9228 54.0827 29.4998 54.0827Z" fill="url(#paint0_linear_3730_163232)"/>
<path d="M26.009 38.3017C25.5174 38.3017 25.0503 38.1051 24.7061 37.7609L17.749 30.8038C17.0361 30.0909 17.0361 28.9109 17.749 28.198C18.462 27.4851 19.642 27.4851 20.3549 28.198L26.009 33.8522L38.6449 21.2163C39.3578 20.5034 40.5378 20.5034 41.2507 21.2163C41.9636 21.9292 41.9636 23.1092 41.2507 23.8222L27.312 37.7609C26.9678 38.1051 26.5007 38.3017 26.009 38.3017Z" fill="url(#paint1_linear_3730_163232)"/>
<defs>
<linearGradient id="paint0_linear_3730_163232" x1="6.35944" y1="51.3512" x2="75.6585" y2="49.5563" gradientUnits="userSpaceOnUse">
<stop stop-color="#005F73"/>
<stop offset="1" stop-color="#6CC24A"/>
</linearGradient>
<linearGradient id="paint1_linear_3730_163232" x1="17.9355" y1="37.3229" x2="52.5458" y2="36.0728" gradientUnits="userSpaceOnUse">
<stop stop-color="#005F73"/>
<stop offset="1" stop-color="#6CC24A"/>
</linearGradient>
</defs>
</svg>
