<svg width="20" height="20" viewBox="0 0 20 20" fill="none" xmlns="http://www.w3.org/2000/svg">
<path d="M12.5013 18.9583H7.5013C2.9763 18.9583 1.04297 17.025 1.04297 12.5V7.49996C1.04297 2.97496 2.9763 1.04163 7.5013 1.04163H9.16797C9.50964 1.04163 9.79297 1.32496 9.79297 1.66663C9.79297 2.00829 9.50964 2.29163 9.16797 2.29163H7.5013C3.65964 2.29163 2.29297 3.65829 2.29297 7.49996V12.5C2.29297 16.3416 3.65964 17.7083 7.5013 17.7083H12.5013C16.343 17.7083 17.7096 16.3416 17.7096 12.5V10.8333C17.7096 10.4916 17.993 10.2083 18.3346 10.2083C18.6763 10.2083 18.9596 10.4916 18.9596 10.8333V12.5C18.9596 17.025 17.0263 18.9583 12.5013 18.9583Z" fill="#6CC24A"/>
<path d="M7.08214 14.7417C6.5738 14.7417 6.10714 14.5584 5.76547 14.225C5.35714 13.8167 5.18214 13.225 5.2738 12.6L5.63214 10.0917C5.69881 9.60838 6.01547 8.98338 6.35714 8.64172L12.9238 2.07505C14.5821 0.416716 16.2655 0.416716 17.9238 2.07505C18.8321 2.98338 19.2405 3.90838 19.1571 4.83338C19.0821 5.58338 18.6821 6.31672 17.9238 7.06672L11.3571 13.6334C11.0155 13.975 10.3905 14.2917 9.90714 14.3584L7.3988 14.7167C7.29047 14.7417 7.18214 14.7417 7.08214 14.7417ZM13.8071 2.95838L7.24047 9.52505C7.08214 9.68338 6.8988 10.05 6.86547 10.2667L6.50714 12.775C6.4738 13.0167 6.5238 13.2167 6.6488 13.3417C6.7738 13.4667 6.9738 13.5167 7.21547 13.4834L9.7238 13.125C9.94047 13.0917 10.3155 12.9084 10.4655 12.75L17.0321 6.18338C17.5738 5.64172 17.8571 5.15838 17.8988 4.70838C17.9488 4.16672 17.6655 3.59172 17.0321 2.95005C15.6988 1.61672 14.7821 1.99172 13.8071 2.95838Z" fill="#6CC24A"/>
<path d="M16.5403 8.19161C16.482 8.19161 16.4237 8.18327 16.3737 8.16661C14.182 7.54994 12.4403 5.80827 11.8237 3.61661C11.732 3.28327 11.9237 2.94161 12.257 2.84161C12.5903 2.74994 12.932 2.94161 13.0237 3.27494C13.5237 5.04994 14.932 6.45827 16.707 6.95827C17.0403 7.04994 17.232 7.39994 17.1403 7.73327C17.0653 8.01661 16.8153 8.19161 16.5403 8.19161Z" fill="#6CC24A"/>
</svg>
