<svg width="16" height="16" viewBox="0 0 16 16" fill="none" xmlns="http://www.w3.org/2000/svg">
<path d="M10.0002 15.1673H6.00016C2.38016 15.1673 0.833496 13.6207 0.833496 10.0007V6.00065C0.833496 2.38065 2.38016 0.833984 6.00016 0.833984H10.0002C13.6202 0.833984 15.1668 2.38065 15.1668 6.00065V10.0007C15.1668 13.6207 13.6202 15.1673 10.0002 15.1673ZM6.00016 1.83398C2.92683 1.83398 1.8335 2.92732 1.8335 6.00065V10.0007C1.8335 13.074 2.92683 14.1673 6.00016 14.1673H10.0002C13.0735 14.1673 14.1668 13.074 14.1668 10.0007V6.00065C14.1668 2.92732 13.0735 1.83398 10.0002 1.83398H6.00016Z" fill="#005F73"/>
<path d="M5.88012 6.50029C5.31346 6.50029 4.74679 6.28695 4.31346 5.85362C4.12012 5.66029 4.12012 5.34029 4.31346 5.14695C4.50679 4.95362 4.82679 4.95362 5.02012 5.14695C5.49346 5.62029 6.26679 5.62029 6.74012 5.14695C6.93346 4.95362 7.25346 4.95362 7.44679 5.14695C7.64012 5.34029 7.64012 5.66029 7.44679 5.85362C7.01346 6.28029 6.44679 6.50029 5.88012 6.50029Z" fill="#005F73"/>
<path d="M10.1199 6.50029C9.5532 6.50029 8.98654 6.28695 8.5532 5.85362C8.35987 5.66029 8.35987 5.34029 8.5532 5.14695C8.74654 4.95362 9.06654 4.95362 9.25987 5.14695C9.7332 5.62029 10.5065 5.62029 10.9799 5.14695C11.1732 4.95362 11.4932 4.95362 11.6865 5.14695C11.8799 5.34029 11.8799 5.66029 11.6865 5.85362C11.2532 6.28029 10.6865 6.50029 10.1199 6.50029Z" fill="#005F73"/>
<path d="M8 12.766C6.06667 12.766 4.5 11.1927 4.5 9.26602C4.5 8.65935 4.99333 8.16602 5.6 8.16602H10.4C11.0067 8.16602 11.5 8.65935 11.5 9.26602C11.5 11.1927 9.93333 12.766 8 12.766ZM5.6 9.16602C5.54667 9.16602 5.5 9.21268 5.5 9.26602C5.5 10.646 6.62 11.766 8 11.766C9.38 11.766 10.5 10.646 10.5 9.26602C10.5 9.21268 10.4533 9.16602 10.4 9.16602H5.6V9.16602Z" fill="#005F73"/>
</svg>
