<svg width="135" height="108" viewBox="0 0 135 108" fill="none" xmlns="http://www.w3.org/2000/svg">
<path fill-rule="evenodd" clip-rule="evenodd" d="M111.452 35.0996C113.525 35.0996 115.204 36.792 115.204 38.8796C115.204 40.9672 113.525 42.6596 111.452 42.6596H90.0124C92.0846 42.6596 93.7644 44.352 93.7644 46.4396C93.7644 48.5272 92.0846 50.2196 90.0124 50.2196H101.804C103.877 50.2196 105.556 51.912 105.556 53.9996C105.556 56.0872 103.877 57.7796 101.804 57.7796H96.3512C93.7384 57.7796 91.6204 59.472 91.6204 61.5596C91.6204 62.9514 92.6924 64.2114 94.8364 65.3396C96.9086 65.3396 98.5884 67.032 98.5884 69.1196C98.5884 71.2072 96.9086 72.8996 94.8364 72.8996H50.3484C48.2762 72.8996 46.5964 71.2072 46.5964 69.1196C46.5964 67.032 48.2762 65.3396 50.3484 65.3396H29.4444C27.3722 65.3396 25.6924 63.6472 25.6924 61.5596C25.6924 59.472 27.3722 57.7796 29.4444 57.7796H50.8844C52.9566 57.7796 54.6364 56.0872 54.6364 53.9996C54.6364 51.912 52.9566 50.2196 50.8844 50.2196H37.4844C35.4122 50.2196 33.7324 48.5272 33.7324 46.4396C33.7324 44.352 35.4122 42.6596 37.4844 42.6596H58.9244C56.8522 42.6596 55.1724 40.9672 55.1724 38.8796C55.1724 36.792 56.8522 35.0996 58.9244 35.0996H111.452ZM111.452 50.2196C113.525 50.2196 115.204 51.912 115.204 53.9996C115.204 56.0872 113.525 57.7796 111.452 57.7796C109.38 57.7796 107.7 56.0872 107.7 53.9996C107.7 51.912 109.38 50.2196 111.452 50.2196Z" fill="#F4F4F4"/>
<path opacity="0.4" d="M69.5003 75.0837C83.0773 75.0837 94.0837 64.0773 94.0837 50.5003C94.0837 36.9233 83.0773 25.917 69.5003 25.917C55.9233 25.917 44.917 36.9233 44.917 50.5003C44.917 64.0773 55.9233 75.0837 69.5003 75.0837Z" fill="url(#paint0_linear_6239_94227)"/>
<path d="M66.0095 59.3008C65.5179 59.3008 65.0508 59.1041 64.7066 58.7599L57.7495 51.8029C57.0366 51.0899 57.0366 49.9099 57.7495 49.197C58.4624 48.4841 59.6424 48.4841 60.3554 49.197L66.0095 54.8512L78.6454 42.2154C79.3583 41.5024 80.5383 41.5024 81.2512 42.2154C81.9641 42.9283 81.9641 44.1083 81.2512 44.8212L67.3124 58.7599C66.9683 59.1041 66.5012 59.3008 66.0095 59.3008Z" fill="url(#paint1_linear_6239_94227)"/>
<defs>
<linearGradient id="paint0_linear_6239_94227" x1="46.3599" y1="72.3522" x2="115.659" y2="70.5573" gradientUnits="userSpaceOnUse">
<stop stop-color="#005F73"/>
<stop offset="1" stop-color="#6CC24A"/>
</linearGradient>
<linearGradient id="paint1_linear_6239_94227" x1="57.936" y1="58.3219" x2="92.5463" y2="57.0718" gradientUnits="userSpaceOnUse">
<stop stop-color="#005F73"/>
<stop offset="1" stop-color="#6CC24A"/>
</linearGradient>
</defs>
</svg>
