<svg width="134" height="108" viewBox="0 0 134 108" fill="none" xmlns="http://www.w3.org/2000/svg">
<path fill-rule="evenodd" clip-rule="evenodd" d="M33.768 72.1701H82.544C82.82 72.1701 83.089 72.1403 83.348 72.084C83.607 72.1403 83.876 72.1701 84.152 72.1701H112.024C114.096 72.1701 115.776 70.4952 115.776 68.4292C115.776 66.3632 114.096 64.6884 112.024 64.6884H108.808C106.736 64.6884 105.056 63.0136 105.056 60.9476C105.056 58.8815 106.736 57.2067 108.808 57.2067H118.992C121.064 57.2067 122.744 55.5319 122.744 53.4659C122.744 51.3999 121.064 49.7251 118.992 49.7251H107.2C109.272 49.7251 110.952 48.0502 110.952 45.9842C110.952 43.9182 109.272 42.2434 107.2 42.2434H72.896C74.9682 42.2434 76.648 40.5686 76.648 38.5026C76.648 36.4365 74.9682 34.7617 72.896 34.7617H42.344C40.2718 34.7617 38.592 36.4365 38.592 38.5026C38.592 40.5686 40.2718 42.2434 42.344 42.2434H20.904C18.8318 42.2434 17.152 43.9182 17.152 45.9842C17.152 48.0502 18.8318 49.7251 20.904 49.7251H34.304C36.3762 49.7251 38.056 51.3999 38.056 53.4659C38.056 55.5319 36.3762 57.2067 34.304 57.2067H12.864C10.7918 57.2067 9.112 58.8815 9.112 60.9476C9.112 63.0136 10.7918 64.6884 12.864 64.6884H33.768C31.6958 64.6884 30.016 66.3632 30.016 68.4292C30.016 70.4952 31.6958 72.1701 33.768 72.1701ZM121.136 72.1701C123.208 72.1701 124.888 70.4952 124.888 68.4292C124.888 66.3632 123.208 64.6884 121.136 64.6884C119.064 64.6884 117.384 66.3632 117.384 68.4292C117.384 70.4952 119.064 72.1701 121.136 72.1701Z" fill="#F4F4F4"/>
<path opacity="0.4" d="M80.0946 39.6607C79.9225 39.6361 79.7504 39.6361 79.5783 39.6607C75.7679 39.5378 72.7441 36.4157 72.7441 32.5807C72.7441 28.6719 75.9154 25.4761 79.8487 25.4761C83.7575 25.4761 86.9533 28.6473 86.9533 32.5807C86.9287 36.4157 83.905 39.5378 80.0946 39.6607Z" fill="url(#paint0_linear_8555_191948)"/>
<path opacity="0.4" d="M88.1088 56.6971C85.3554 58.5408 81.4959 59.2291 77.9313 58.7621C78.8654 56.7462 79.3571 54.5092 79.3817 52.1492C79.3817 49.6908 78.8408 47.3554 77.8083 45.315C81.4467 44.8233 85.3063 45.5116 88.0842 47.3554C91.9683 49.9121 91.9684 54.1158 88.1088 56.6971Z" fill="url(#paint1_linear_8555_191948)"/>
<path opacity="0.4" d="M52.8316 39.6607C53.0037 39.6361 53.1758 39.6361 53.3479 39.6607C57.1583 39.5378 60.1821 36.4157 60.1821 32.5807C60.1821 28.6719 57.0108 25.4761 53.0775 25.4761C49.1687 25.4761 45.9729 28.6473 45.9729 32.5807C45.9975 36.4157 49.0212 39.5378 52.8316 39.6607Z" fill="url(#paint2_linear_8555_191948)"/>
<path opacity="0.4" d="M53.1021 52.1492C53.1021 54.5337 53.6183 56.7954 54.5525 58.8358C51.0862 59.2046 47.4725 58.4671 44.8175 56.7217C40.9333 54.1404 40.9333 49.9366 44.8175 47.3554C47.4479 45.5854 51.16 44.8725 54.6508 45.2658C53.6429 47.3308 53.1021 49.6662 53.1021 52.1492Z" fill="url(#paint3_linear_8555_191948)"/>
<path d="M66.795 59.5733C66.5983 59.5487 66.3771 59.5487 66.1558 59.5733C61.6325 59.4258 58.0187 55.7137 58.0187 51.1412C58.0187 46.4704 61.78 42.6846 66.4754 42.6846C71.1462 42.6846 74.9321 46.4704 74.9321 51.1412C74.9321 55.7137 71.3429 59.4258 66.795 59.5733Z" fill="url(#paint4_linear_8555_191948)"/>
<path d="M58.8054 64.6623C55.0933 67.1452 55.0933 71.2261 58.8054 73.6844C63.0338 76.5115 69.9663 76.5115 74.1946 73.6844C77.9067 71.2015 77.9067 67.1206 74.1946 64.6623C69.9908 61.8352 63.0583 61.8352 58.8054 64.6623Z" fill="url(#paint5_linear_8555_191948)"/>
<defs>
<linearGradient id="paint0_linear_8555_191948" x1="73.1611" y1="38.8726" x2="93.1885" y2="38.353" gradientUnits="userSpaceOnUse">
<stop stop-color="#005F73"/>
<stop offset="1" stop-color="#6CC24A"/>
</linearGradient>
<linearGradient id="paint1_linear_8555_191948" x1="78.1955" y1="58.1402" x2="96.7903" y2="57.6779" gradientUnits="userSpaceOnUse">
<stop stop-color="#005F73"/>
<stop offset="1" stop-color="#6CC24A"/>
</linearGradient>
<linearGradient id="paint2_linear_8555_191948" x1="46.3899" y1="38.8726" x2="66.4173" y2="38.353" gradientUnits="userSpaceOnUse">
<stop stop-color="#005F73"/>
<stop offset="1" stop-color="#6CC24A"/>
</linearGradient>
<linearGradient id="paint3_linear_8555_191948" x1="42.2784" y1="58.1636" x2="60.246" y2="57.7327" gradientUnits="userSpaceOnUse">
<stop stop-color="#005F73"/>
<stop offset="1" stop-color="#6CC24A"/>
</linearGradient>
<linearGradient id="paint4_linear_8555_191948" x1="58.5151" y1="58.635" x2="82.354" y2="58.0167" gradientUnits="userSpaceOnUse">
<stop stop-color="#005F73"/>
<stop offset="1" stop-color="#6CC24A"/>
</linearGradient>
<linearGradient id="paint5_linear_8555_191948" x1="56.6364" y1="75.0679" x2="86.1455" y2="73.8601" gradientUnits="userSpaceOnUse">
<stop stop-color="#005F73"/>
<stop offset="1" stop-color="#6CC24A"/>
</linearGradient>
</defs>
</svg>
