<svg width="201" height="162" viewBox="0 0 201 162" fill="none" xmlns="http://www.w3.org/2000/svg">
<path fill-rule="evenodd" clip-rule="evenodd" d="M166.1 52.7891C169.192 52.7891 171.7 55.315 171.7 58.4309C171.7 61.5467 169.192 64.0726 166.1 64.0726H134.1C137.192 64.0726 139.7 66.5986 139.7 69.7144C139.7 72.8303 137.192 75.3562 134.1 75.3562H151.7C154.792 75.3562 157.3 77.8821 157.3 80.998C157.3 84.1139 154.792 86.6398 151.7 86.6398H143.56C139.661 86.6398 136.5 89.1657 136.5 92.2816C136.5 94.3589 138.1 96.2394 141.3 97.9234C144.392 97.9234 146.9 100.449 146.9 103.565C146.9 106.681 144.392 109.207 141.3 109.207H74.8996C71.8068 109.207 69.2996 106.681 69.2996 103.565C69.2996 100.449 71.8068 97.9234 74.8996 97.9234H43.6996C40.6068 97.9234 38.0996 95.3975 38.0996 92.2816C38.0996 89.1657 40.6068 86.6398 43.6996 86.6398H75.6996C78.7924 86.6398 81.2996 84.1139 81.2996 80.998C81.2996 77.8821 78.7924 75.3562 75.6996 75.3562H55.6996C52.6068 75.3562 50.0996 72.8303 50.0996 69.7144C50.0996 66.5986 52.6068 64.0726 55.6996 64.0726H87.6996C84.6068 64.0726 82.0996 61.5467 82.0996 58.4309C82.0996 55.315 84.6068 52.7891 87.6996 52.7891H166.1ZM166.1 75.3562C169.192 75.3562 171.7 77.8821 171.7 80.998C171.7 84.1139 169.192 86.6398 166.1 86.6398C163.007 86.6398 160.5 84.1139 160.5 80.998C160.5 77.8821 163.007 75.3562 166.1 75.3562Z" fill="#F4F4F4"/>
<path d="M110.986 72.0234H92.9863C91.7563 72.0234 90.7363 71.0034 90.7363 69.7734C90.7363 68.5434 91.7563 67.5234 92.9863 67.5234H110.986C112.216 67.5234 113.236 68.5434 113.236 69.7734C113.236 71.0034 112.216 72.0234 110.986 72.0234Z" fill="url(#paint0_linear_9531_206069)"/>
<path d="M101.986 81.0234H92.9863C91.7563 81.0234 90.7363 80.0034 90.7363 78.7734C90.7363 77.5434 91.7563 76.5234 92.9863 76.5234H101.986C103.216 76.5234 104.236 77.5434 104.236 78.7734C104.236 80.0034 103.216 81.0234 101.986 81.0234Z" fill="url(#paint1_linear_9531_206069)"/>
<path opacity="0.4" d="M101.986 102.773C117.726 102.773 130.486 90.0135 130.486 74.2734C130.486 58.5333 117.726 45.7734 101.986 45.7734C86.2462 45.7734 73.4863 58.5333 73.4863 74.2734C73.4863 90.0135 86.2462 102.773 101.986 102.773Z" fill="url(#paint2_linear_9531_206069)"/>
<path d="M131.386 105.773C130.846 105.773 130.306 105.563 129.916 105.173L124.336 99.5931C123.526 98.7831 123.526 97.4631 124.336 96.6231C125.146 95.8131 126.466 95.8131 127.306 96.6231L132.886 102.203C133.696 103.013 133.696 104.333 132.886 105.173C132.466 105.563 131.926 105.773 131.386 105.773Z" fill="url(#paint3_linear_9531_206069)"/>
<defs>
<linearGradient id="paint0_linear_9531_206069" x1="91.3967" y1="71.7734" x2="122.608" y2="67.7315" gradientUnits="userSpaceOnUse">
<stop stop-color="#005F73"/>
<stop offset="1" stop-color="#6CC24A"/>
</linearGradient>
<linearGradient id="paint1_linear_9531_206069" x1="91.1325" y1="80.7734" x2="110.059" y2="79.3028" gradientUnits="userSpaceOnUse">
<stop stop-color="#005F73"/>
<stop offset="1" stop-color="#6CC24A"/>
</linearGradient>
<linearGradient id="paint2_linear_9531_206069" x1="75.1592" y1="99.6068" x2="155.499" y2="97.5259" gradientUnits="userSpaceOnUse">
<stop stop-color="#005F73"/>
<stop offset="1" stop-color="#6CC24A"/>
</linearGradient>
<linearGradient id="paint3_linear_9531_206069" x1="124.015" y1="105.231" x2="137.779" y2="104.874" gradientUnits="userSpaceOnUse">
<stop stop-color="#005F73"/>
<stop offset="1" stop-color="#6CC24A"/>
</linearGradient>
</defs>
</svg>
