<svg width="134" height="108" viewBox="0 0 134 108" fill="none" xmlns="http://www.w3.org/2000/svg">
<path fill-rule="evenodd" clip-rule="evenodd" d="M110.952 35.1001C113.024 35.1001 114.704 36.7925 114.704 38.8801C114.704 40.9677 113.024 42.6601 110.952 42.6601H89.5119C91.5841 42.6601 93.2639 44.3525 93.2639 46.4401C93.2639 48.5277 91.5841 50.2201 89.5119 50.2201H101.304C103.376 50.2201 105.056 51.9125 105.056 54.0001C105.056 56.0877 103.376 57.7801 101.304 57.7801H95.8507C93.2379 57.7801 91.1199 59.4725 91.1199 61.5601C91.1199 62.9519 92.1919 64.2119 94.3359 65.3401C96.4081 65.3401 98.0879 67.0325 98.0879 69.1201C98.0879 71.2077 96.4081 72.9001 94.3359 72.9001H49.8479C47.7757 72.9001 46.0959 71.2077 46.0959 69.1201C46.0959 67.0325 47.7757 65.3401 49.8479 65.3401H28.9439C26.8717 65.3401 25.1919 63.6477 25.1919 61.5601C25.1919 59.4725 26.8717 57.7801 28.9439 57.7801H50.3839C52.4561 57.7801 54.1359 56.0877 54.1359 54.0001C54.1359 51.9125 52.4561 50.2201 50.3839 50.2201H36.9839C34.9117 50.2201 33.2319 48.5277 33.2319 46.4401C33.2319 44.3525 34.9117 42.6601 36.9839 42.6601H58.4239C56.3517 42.6601 54.6719 40.9677 54.6719 38.8801C54.6719 36.7925 56.3517 35.1001 58.4239 35.1001H110.952ZM110.952 50.2201C113.024 50.2201 114.704 51.9125 114.704 54.0001C114.704 56.0877 113.024 57.7801 110.952 57.7801C108.88 57.7801 107.2 56.0877 107.2 54.0001C107.2 51.9125 108.88 50.2201 110.952 50.2201Z" fill="#F4F4F4"/>
<path opacity="0.4" d="M93.2473 48.665L90.8381 58.9408C88.7731 67.8154 84.6923 71.4046 77.0223 70.6671C75.7931 70.5687 74.4656 70.3475 73.0398 70.0033L68.9098 69.02C58.6585 66.5863 55.4873 61.5221 57.8965 51.2463L60.3056 40.9458C60.7973 38.8563 61.3873 37.0371 62.1248 35.5375C65.001 29.5883 69.8931 27.9904 78.104 29.9325L82.2094 30.8913C92.5098 33.3004 95.6565 38.3892 93.2473 48.665Z" fill="url(#paint0_linear_1764_60332)"/>
<path d="M77.0226 70.6672C75.4984 71.6997 73.5809 72.5601 71.2455 73.3222L67.3614 74.6005C57.6018 77.7472 52.4639 75.1168 49.2926 65.3572L46.1459 55.6468C42.9993 45.8872 45.6051 40.7247 55.3647 37.578L59.2489 36.2997C60.2568 35.9801 61.2155 35.7097 62.1251 35.5376C61.3876 37.0372 60.7976 38.8563 60.3059 40.9459L57.8968 51.2463C55.4876 61.5222 58.6589 66.5863 68.9101 69.0201L73.0401 70.0034C74.4659 70.3476 75.7934 70.5688 77.0226 70.6672Z" fill="url(#paint1_linear_1764_60332)"/>
<defs>
<linearGradient id="paint0_linear_1764_60332" x1="58.2133" y1="68.449" x2="110.208" y2="67.2553" gradientUnits="userSpaceOnUse">
<stop stop-color="#005F73"/>
<stop offset="1" stop-color="#6CC24A"/>
</linearGradient>
<linearGradient id="paint1_linear_1764_60332" x1="45.8256" y1="73.6198" x2="91.1375" y2="72.6843" gradientUnits="userSpaceOnUse">
<stop stop-color="#005F73"/>
<stop offset="1" stop-color="#6CC24A"/>
</linearGradient>
</defs>
</svg>
