<svg width="260" height="197" viewBox="0 0 260 197" fill="none" xmlns="http://www.w3.org/2000/svg">
<g opacity="0.8">
<path d="M0 25.9248C0.003461 24.8319 0.438765 23.7847 1.21088 23.0118C1.983 22.239 3.02923 21.8033 4.12117 21.7998H188.012C189.104 21.8033 190.15 22.239 190.922 23.0118C191.694 23.7847 192.129 24.8319 192.133 25.9248V39.1998H0V25.9248Z" fill="#A4A4A4"/>
<path d="M33.3174 33.9778C32.6295 33.9778 31.9571 33.7736 31.3851 33.3911C30.8131 33.0085 30.3674 32.4648 30.1041 31.8287C29.8409 31.1926 29.772 30.4926 29.9062 29.8173C30.0404 29.142 30.3716 28.5217 30.8581 28.0348C31.3445 27.5479 31.9642 27.2164 32.6389 27.082C33.3135 26.9477 34.0129 27.0166 34.6484 27.2801C35.2839 27.5436 35.8271 27.9898 36.2093 28.5623C36.5915 29.1348 36.7955 29.8079 36.7955 30.4965C36.7955 31.4198 36.429 32.3052 35.7768 32.9581C35.1245 33.611 34.2398 33.9778 33.3174 33.9778ZM33.3174 27.7442C32.7736 27.7442 32.242 27.9057 31.7898 28.2081C31.3376 28.5105 30.9852 28.9403 30.7771 29.4432C30.569 29.9461 30.5145 30.4995 30.6206 31.0334C30.7267 31.5673 30.9886 32.0577 31.3731 32.4426C31.7577 32.8275 32.2476 33.0896 32.781 33.1958C33.3144 33.302 33.8672 33.2475 34.3696 33.0392C34.8721 32.8309 35.3015 32.4781 35.6036 32.0255C35.9058 31.5729 36.067 31.0408 36.067 30.4965C36.0653 29.7671 35.7751 29.068 35.2598 28.5523C34.7445 28.0365 34.0461 27.746 33.3174 27.7442Z" fill="#F0F0F0"/>
<path d="M22.2728 33.9778C21.5851 33.9765 20.9134 33.7712 20.3423 33.3879C19.7712 33.0045 19.3264 32.4604 19.0641 31.8241C18.8019 31.1879 18.734 30.4881 18.8689 29.8133C19.0038 29.1384 19.3356 28.5187 19.8223 28.0325C20.309 27.5463 20.9287 27.2153 21.6032 27.0816C22.2777 26.9478 22.9767 27.0171 23.6118 27.2808C24.247 27.5445 24.7898 27.9907 25.1717 28.563C25.5536 29.1354 25.7574 29.8082 25.7574 30.4964C25.7574 30.9542 25.6672 31.4074 25.492 31.8302C25.3168 32.253 25.06 32.6371 24.7364 32.9604C24.4127 33.2838 24.0285 33.5401 23.6058 33.7147C23.183 33.8892 22.7301 33.9786 22.2728 33.9778ZM22.2728 27.7442C21.7292 27.7455 21.1983 27.9081 20.7469 28.2113C20.2956 28.5145 19.9442 28.9448 19.7371 29.4478C19.53 29.9508 19.4765 30.5039 19.5833 31.0374C19.6902 31.5708 19.9526 32.0606 20.3374 32.4449C20.7222 32.8291 21.2121 33.0906 21.7453 33.1962C22.2785 33.3019 22.831 33.247 23.3331 33.0385C23.8351 32.83 24.2642 32.4773 24.566 32.0248C24.8679 31.5724 25.029 31.0405 25.029 30.4964C25.0272 29.7659 24.7361 29.0659 24.2194 28.5499C23.7027 28.034 23.0026 27.7442 22.2728 27.7442Z" fill="#F0F0F0"/>
<path d="M11.2347 33.9778C10.5471 33.9765 9.87526 33.7712 9.30417 33.3879C8.73307 33.0045 8.28829 32.4604 8.02605 31.8241C7.76381 31.1879 7.69588 30.4881 7.83082 29.8133C7.96576 29.1384 8.29753 28.5187 8.7842 28.0325C9.27088 27.5463 9.89062 27.2153 10.5651 27.0816C11.2396 26.9478 11.9386 27.0171 12.5737 27.2808C13.2089 27.5445 13.7517 27.9907 14.1336 28.563C14.5155 29.1354 14.7193 29.8082 14.7193 30.4964C14.7193 30.9542 14.6291 31.4074 14.4539 31.8302C14.2787 32.253 14.0219 32.6371 13.6983 32.9604C13.3746 33.2838 12.9904 33.5401 12.5677 33.7147C12.1449 33.8892 11.692 33.9786 11.2347 33.9778ZM11.2347 27.7442C10.6908 27.7442 10.1592 27.9057 9.70706 28.2081C9.25489 28.5105 8.90246 28.9403 8.69435 29.4432C8.48623 29.9461 8.43178 30.4995 8.53788 31.0334C8.64397 31.5673 8.90585 32.0576 9.29039 32.4426C9.67493 32.8275 10.1649 33.0896 10.6982 33.1958C11.2316 33.302 11.7845 33.2475 12.2869 33.0392C12.7893 32.8308 13.2188 32.4781 13.5209 32.0255C13.823 31.5729 13.9843 31.0408 13.9843 30.4964C13.9826 29.767 13.6923 29.068 13.177 28.5523C12.6618 28.0365 11.9634 27.746 11.2347 27.7442Z" fill="#F0F0F0"/>
<path d="M188.012 165.861H4.12117C3.02923 165.858 1.983 165.422 1.21088 164.649C0.438765 163.876 0.003461 162.829 0 161.736V39.2002H192.133V161.736C192.129 162.829 191.694 163.876 190.922 164.649C190.15 165.422 189.104 165.858 188.012 165.861Z" fill="#C7C7C7"/>
<path d="M190.965 42.7271H1.16797V151.324H190.965V42.7271Z" fill="white"/>
<path d="M85.2646 52.0347H12.9671C11.5862 52.0347 10.4668 53.1551 10.4668 54.5373V64.1996C10.4668 65.5817 11.5862 66.7022 12.9671 66.7022H85.2646C86.6455 66.7022 87.7649 65.5817 87.7649 64.1996V54.5373C87.7649 53.1551 86.6455 52.0347 85.2646 52.0347Z" fill="#C7C7C7"/>
<path d="M179.166 52.6915C179.655 52.6915 180.124 52.886 180.47 53.2321C180.816 53.5783 181.01 54.0477 181.01 54.5373V64.1996C181.01 64.6891 180.816 65.1586 180.47 65.5047C180.124 65.8509 179.655 66.0453 179.166 66.0453H106.868C106.379 66.0453 105.91 65.8509 105.565 65.5047C105.219 65.1586 105.024 64.6891 105.024 64.1996V54.5373C105.024 54.0477 105.219 53.5783 105.565 53.2321C105.91 52.886 106.379 52.6915 106.868 52.6915H179.166ZM179.166 52.0347H106.868C106.206 52.0364 105.571 52.3006 105.102 52.7696C104.634 53.2385 104.37 53.8741 104.368 54.5373V64.1996C104.368 64.8633 104.632 65.4999 105.1 65.9692C105.569 66.4385 106.205 66.7022 106.868 66.7022H179.166C179.829 66.7022 180.465 66.4385 180.934 65.9692C181.403 65.4999 181.666 64.8633 181.666 64.1996V54.5373C181.665 53.8741 181.401 53.2385 180.932 52.7696C180.464 52.3006 179.829 52.0364 179.166 52.0347Z" fill="#C7C7C7"/>
<path d="M23.3159 73.2706C25.7274 73.2706 28.0848 73.9864 30.0899 75.3274C32.095 76.6684 33.6578 78.5745 34.5807 80.8045C35.5035 83.0346 35.745 85.4885 35.2745 87.8559C34.804 90.2233 33.6428 92.3979 31.9376 94.1047C30.2324 95.8115 28.0598 96.9738 25.6946 97.4447C23.3294 97.9156 20.8779 97.674 18.6499 96.7502C16.4219 95.8265 14.5177 94.2623 13.1779 92.2553C11.8381 90.2483 11.123 87.8887 11.123 85.4749C11.1265 82.2392 12.4122 79.137 14.6981 76.849C16.9839 74.561 20.0832 73.2741 23.3159 73.2706ZM23.3159 72.6138C20.7746 72.6138 18.2904 73.3681 16.1773 74.7813C14.0643 76.1945 12.4174 78.2031 11.4449 80.5532C10.4724 82.9032 10.2179 85.4892 10.7137 87.984C11.2095 90.4788 12.4332 92.7705 14.2302 94.5691C16.0272 96.3678 18.3167 97.5927 20.8092 98.089C23.3017 98.5852 25.8852 98.3305 28.2331 97.3571C30.5809 96.3837 32.5877 94.7352 33.9996 92.6202C35.4114 90.5052 36.165 88.0186 36.165 85.4749C36.165 82.0639 34.8113 78.7927 32.4016 76.3807C29.9919 73.9688 26.7237 72.6138 23.3159 72.6138Z" fill="#C7C7C7"/>
<path opacity="0.4" d="M32.6149 90.5327C31.7045 92.2127 30.3579 93.6155 28.7171 94.593C27.0764 95.5705 25.2024 96.0865 23.293 96.0865C21.3836 96.0865 19.5097 95.5705 17.8689 94.593C16.2282 93.6155 14.8816 92.2127 13.9712 90.5327C16.7302 88.6866 19.9743 87.7012 23.293 87.7012C26.6117 87.7012 29.8559 88.6866 32.6149 90.5327Z" fill="#C7C7C7"/>
<path opacity="0.4" d="M23.3162 86.5719C25.9257 86.5719 28.0411 84.4546 28.0411 81.8426C28.0411 79.2307 25.9257 77.1133 23.3162 77.1133C20.7067 77.1133 18.5913 79.2307 18.5913 81.8426C18.5913 84.4546 20.7067 86.5719 23.3162 86.5719Z" fill="#C7C7C7"/>
<path opacity="0.4" d="M175.058 92.0896H49.9921C48.2395 92.0896 46.5586 91.3927 45.3193 90.1523C44.08 88.9118 43.3838 87.2294 43.3838 85.4751C43.3838 84.6068 43.5548 83.747 43.8869 82.9449C44.2191 82.1427 44.706 81.414 45.3197 80.8003C45.9334 80.1866 46.662 79.7 47.4637 79.3683C48.2654 79.0366 49.1246 78.8663 49.9921 78.8672H175.058C175.925 78.8663 176.784 79.0366 177.586 79.3683C178.388 79.7 179.116 80.1866 179.73 80.8003C180.344 81.414 180.831 82.1427 181.163 82.9449C181.495 83.747 181.666 84.6068 181.666 85.4751C181.666 87.2294 180.97 88.9118 179.73 90.1523C178.491 91.3927 176.81 92.0896 175.058 92.0896Z" fill="#C7C7C7"/>
<path d="M23.3159 108.34C25.7274 108.34 28.0848 109.056 30.0899 110.397C32.095 111.738 33.6578 113.644 34.5807 115.874C35.5035 118.104 35.745 120.558 35.2745 122.925C34.804 125.293 33.6428 127.467 31.9376 129.174C30.2324 130.881 28.0598 132.043 25.6946 132.514C23.3294 132.985 20.8779 132.743 18.6499 131.82C16.4219 130.896 14.5177 129.332 13.1779 127.325C11.8381 125.318 11.123 122.958 11.123 120.544C11.1248 117.308 12.4099 114.205 14.6962 111.916C16.9824 109.628 20.0827 108.342 23.3159 108.34ZM23.3159 107.683C20.7746 107.683 18.2904 108.437 16.1773 109.851C14.0643 111.264 12.4174 113.272 11.4449 115.623C10.4724 117.973 10.2179 120.559 10.7137 123.053C11.2095 125.548 12.4332 127.84 14.2302 129.638C16.0272 131.437 18.3167 132.662 20.8092 133.158C23.3017 133.655 25.8852 133.4 28.2331 132.426C30.5809 131.453 32.5877 129.805 33.9996 127.69C35.4114 125.575 36.165 123.088 36.165 120.544C36.165 117.133 34.8113 113.862 32.4016 111.45C29.9919 109.038 26.7237 107.683 23.3159 107.683Z" fill="#C7C7C7"/>
<path opacity="0.4" d="M32.6149 125.563C31.7045 127.243 30.3579 128.645 28.7171 129.623C27.0764 130.6 25.2024 131.116 23.293 131.116C21.3836 131.116 19.5097 130.6 17.8689 129.623C16.2282 128.645 14.8816 127.243 13.9712 125.563C16.7318 123.721 19.9753 122.738 23.293 122.738C26.6108 122.738 29.8543 123.721 32.6149 125.563Z" fill="#C7C7C7"/>
<path opacity="0.4" d="M23.3162 121.609C25.9257 121.609 28.0411 119.491 28.0411 116.879C28.0411 114.267 25.9257 112.15 23.3162 112.15C20.7067 112.15 18.5913 114.267 18.5913 116.879C18.5913 119.491 20.7067 121.609 23.3162 121.609Z" fill="#C7C7C7"/>
<path opacity="0.4" d="M49.9921 113.897H175.058C176.81 113.897 178.491 114.594 179.73 115.834C180.97 117.075 181.666 118.757 181.666 120.511C181.666 122.266 180.97 123.948 179.73 125.189C178.491 126.429 176.81 127.126 175.058 127.126H49.9921C48.2395 127.126 46.5586 126.429 45.3193 125.189C44.08 123.948 43.3838 122.266 43.3838 120.511C43.3838 118.759 44.0793 117.078 45.3174 115.839C46.5555 114.6 48.2346 113.904 49.9855 113.904L49.9921 113.897Z" fill="#C7C7C7"/>
<path opacity="0.1" d="M144.254 126.929C144.253 130.947 144.647 134.956 145.429 138.897C141.759 141.079 138.717 144.176 136.602 147.887C134.487 151.598 133.37 155.795 133.36 160.067C133.347 162.018 133.567 163.963 134.017 165.861H188.012C189.104 165.857 190.15 165.421 190.922 164.649C191.694 163.876 192.129 162.829 192.133 161.736V67.1489C178.555 70.1884 166.416 77.7644 157.714 88.63C149.011 99.4955 144.264 113.003 144.254 126.929Z" fill="#D5D5D5"/>
<path d="M205.408 184.156C235.558 184.156 260 159.691 260 129.512C260 99.3334 235.558 74.8687 205.408 74.8687C175.257 74.8687 150.815 99.3334 150.815 129.512C150.815 159.691 175.257 184.156 205.408 184.156Z" fill="#C7C7C7"/>
<path d="M205.662 179.26C233.149 179.26 255.431 156.957 255.431 129.444C255.431 101.932 233.149 79.6284 205.662 79.6284C178.175 79.6284 155.893 101.932 155.893 129.444C155.893 156.957 178.175 179.26 205.662 179.26Z" fill="white"/>
<path d="M188.871 96.0244L185.695 100.097C185.695 100.097 182.906 102.212 181.849 104.038C180.616 105.26 179.487 106.514 178.371 107.835C177.093 109.344 175.901 110.925 174.801 112.571C173.597 114.33 172.602 116.223 171.835 118.213C171.35 119.472 171.081 120.805 171.041 122.154C171.024 123.108 171.193 124.057 171.54 124.946C171.975 126.035 172.693 126.987 173.62 127.704L174.316 128.23L175.359 128.427C177.419 128.819 179.51 129.025 181.607 129.044L182.434 128.972L181.58 120.643C180.878 120.643 179.369 120.781 178.68 120.768C178.68 120.637 178.732 120.505 178.765 120.374C179.181 118.789 179.752 117.249 180.471 115.776C181.206 114.18 182.053 112.584 182.932 110.994C183.707 109.588 184.54 108.176 185.347 106.797L189.285 104.314L191.588 100.222L188.871 96.0244ZM178.627 121.97C178.622 121.907 178.622 121.843 178.627 121.78C178.655 121.826 178.675 121.877 178.686 121.931C178.706 122.088 178.66 122.095 178.627 121.97Z" fill="#FBBB8B"/>
<path d="M211.236 104.826C211.334 104.32 207.882 102.586 205.507 103.998C203.453 105.22 203.19 106.889 203.939 108.879C203.939 109.017 203.991 109.155 204.011 109.293C204.057 109.614 204.096 109.949 204.116 110.252C204.267 112.347 203.715 114.298 201.36 115.408C201.36 115.539 201.038 115.677 200.933 115.769C200.061 116.537 199.504 117.602 199.371 118.758C199.371 119.612 200.178 120.288 201.117 121.103L202.429 121.99L204.227 121.819C209.746 120.196 212.325 115.152 212.207 114.777C210.79 112.439 210.809 108.34 211.236 104.826Z" fill="#FBBB8B"/>
<path d="M223.166 116.794L222.169 116.623C220.856 116.413 215.002 115.086 212.174 114.836C211.518 116.236 209.365 119.651 203.846 121.274L202.481 121.595L201.169 120.939C200.763 120.646 200.426 120.269 200.179 119.834C199.932 119.398 199.782 118.915 199.738 118.416C199.783 117.903 199.933 117.405 200.18 116.953C200.426 116.501 200.763 116.105 201.169 115.789C201.217 115.747 201.255 115.696 201.281 115.638C201.281 115.48 201.281 115.375 201.281 115.362C200.867 115.414 195.63 116.209 195.191 116.281C190.254 117.195 185.407 118.542 180.708 120.308L180.76 120.781L181.712 129.051L182.066 132.184C182.066 132.184 184.691 131.888 188.136 131.284C187.198 139.652 187.014 151.778 189.882 167.365L201.084 167.155L220.548 166.793C220.626 165.48 220.482 162.76 220.344 159.043L220.167 153.302C220.062 148.231 220.082 142.135 220.534 135.619C220.607 134.588 220.692 133.55 220.784 132.499C224.761 136.802 228.744 140.913 228.744 140.913L230.627 139.101C233.036 137.938 234.932 135.856 236.586 133.353L238.798 131.218C238.798 131.218 228.547 117.7 223.166 116.794Z" fill="#C7C7C7"/>
<path opacity="0.3" d="M217.778 129.123C217.928 130.49 218.364 131.811 219.058 132.998L220.567 135.586C220.64 134.555 220.725 133.517 220.817 132.466C219.78 131.33 218.743 130.207 217.778 129.123Z" fill="#D5D5D5"/>
<path opacity="0.3" d="M220.824 132.473C220.732 133.524 220.646 134.562 220.574 135.593C220.64 134.562 220.732 133.518 220.824 132.473Z" fill="#D5D5D5"/>
<path d="M203.938 108.879C203.938 109.017 203.984 109.155 204.011 109.292C204.011 109.155 203.965 109.017 203.938 108.879Z" fill="#FBBB8B"/>
<path opacity="0.2" d="M204.116 110.251C204.116 109.936 204.057 109.594 204.011 109.292C204.057 109.614 204.096 109.936 204.116 110.251Z" fill="#D5D5D5"/>
<path d="M208.197 107.322C208.066 107.414 207.942 107.513 207.804 107.605C206.656 108.375 205.319 108.815 203.938 108.879C203.938 109.017 203.984 109.155 204.011 109.293C204.057 109.615 204.096 109.95 204.116 110.252C204.116 110.252 204.116 110.291 204.116 110.311C205.818 109.895 207.286 108.82 208.197 107.322Z" fill="#FBBB8B"/>
<path d="M215.567 115.835C215.509 115.565 215.376 115.317 215.183 115.119C214.99 114.922 214.746 114.783 214.477 114.718L213.112 114.39C212.942 114.35 212.763 114.366 212.602 114.435C212.441 114.505 212.307 114.625 212.22 114.777L212.174 114.837C211.518 116.236 209.365 119.651 203.846 121.274L203.42 121.372L202.481 121.596L201.169 120.939C200.763 120.646 200.426 120.269 200.179 119.834C199.932 119.398 199.782 118.915 199.738 118.416C199.783 117.903 199.933 117.405 200.179 116.953C200.426 116.501 200.762 116.105 201.169 115.789C201.241 115.715 201.305 115.634 201.359 115.546C201.418 115.395 201.405 115.323 201.3 115.257C199.85 114.213 196.608 115.822 196.477 116.098C196.339 116.236 196.201 116.38 196.063 116.544C195.659 117.021 195.357 117.577 195.176 118.175C194.995 118.774 194.94 119.404 195.013 120.026C195.15 121.071 195.52 122.072 196.096 122.954C196.672 123.836 197.439 124.578 198.341 125.123C198.37 125.132 198.403 125.132 198.432 125.123C198.467 125.133 198.503 125.133 198.537 125.123C198.566 125.103 198.589 125.076 198.605 125.045C198.621 125.015 198.629 124.98 198.629 124.945C198.632 124.169 198.864 123.41 199.296 122.765C199.728 122.12 200.341 121.617 201.057 121.32L202.206 121.937C197.271 142.208 200.618 166.504 200.71 167.161H201.09C201.09 166.912 197.612 142.405 202.586 122.022L203.787 121.733C205.185 123.441 204.522 125.977 204.516 126.003C204.506 126.038 204.507 126.075 204.518 126.11C204.528 126.145 204.548 126.176 204.575 126.2C204.612 126.23 204.658 126.247 204.706 126.246C204.73 126.253 204.755 126.253 204.778 126.246C205.041 126.128 211.249 123.408 213.421 120.814C214.446 119.574 215.17 118.112 215.534 116.544C215.606 116.315 215.617 116.07 215.567 115.835Z" fill="white"/>
<path opacity="0.2" d="M208.197 107.322C208.066 107.414 207.942 107.513 207.804 107.605C206.656 108.375 205.319 108.815 203.938 108.879C203.938 109.017 203.984 109.155 204.011 109.293C204.057 109.615 204.096 109.95 204.116 110.252C204.116 110.252 204.116 110.291 204.116 110.311C205.818 109.895 207.286 108.82 208.197 107.322Z" fill="#D5D5D5"/>
<path d="M200.093 92.8186C202.659 89.5343 201.031 87.5638 199.942 87.7477C198.912 88.2338 197.934 89.6066 197.429 92.6806C197.307 93.4058 197.29 94.1444 197.376 94.8745C198.433 94.822 200.093 92.8186 200.093 92.8186Z" fill="#A4A4A4"/>
<path d="M210.849 100.064C217.956 87.5507 203.919 86.0925 201.058 88.8973C200.093 89.7936 199.279 90.8406 198.649 91.9976L198.052 93.1734C197.805 93.729 197.586 94.2968 197.396 94.8746C196.674 96.9514 196.297 99.1326 196.28 101.331C196.276 102.336 196.472 103.33 196.858 104.257C197.244 105.184 197.812 106.024 198.527 106.728C199.243 107.431 200.093 107.984 201.025 108.353C201.958 108.723 202.955 108.902 203.958 108.879C205.339 108.815 206.675 108.374 207.824 107.604C207.961 107.512 208.086 107.414 208.217 107.322C209.155 106.653 209.954 105.81 210.573 104.839C212.03 102.481 211.649 101.292 210.849 100.064Z" fill="#FBBB8B"/>
<path d="M197.691 92.7859C197.648 92.843 197.629 92.9146 197.637 92.9857C197.646 93.0568 197.682 93.1218 197.737 93.1669C197.786 93.2048 197.846 93.2255 197.908 93.226C197.96 93.2246 198.011 93.2062 198.052 93.1735C198.078 93.1619 198.101 93.1438 198.118 93.1209C198.328 92.8437 198.598 92.6184 198.909 92.4624C199.22 92.3064 199.562 92.2238 199.909 92.221C199.981 92.2246 200.052 92.1998 200.106 92.1519C200.16 92.104 200.193 92.0369 200.198 91.9649C200.201 91.9295 200.196 91.8939 200.185 91.8602C200.174 91.8265 200.157 91.7953 200.133 91.7684C200.11 91.7416 200.082 91.7196 200.05 91.7037C200.019 91.6878 199.984 91.6783 199.949 91.6758C199.491 91.673 199.04 91.7836 198.636 91.9977C198.27 92.1924 197.949 92.4608 197.691 92.7859Z" fill="#A4A4A4"/>
<path d="M204.792 100.655C204.766 100.631 204.732 100.617 204.697 100.617C204.661 100.617 204.627 100.631 204.601 100.655C204.152 101.032 203.623 101.301 203.055 101.442C202.486 101.583 201.893 101.593 201.32 101.47C201.286 101.464 201.25 101.472 201.221 101.491C201.191 101.511 201.171 101.541 201.163 101.575C201.157 101.61 201.164 101.647 201.183 101.677C201.203 101.708 201.233 101.73 201.268 101.739C201.581 101.801 201.9 101.83 202.219 101.825C203.159 101.816 204.064 101.471 204.772 100.852C204.787 100.841 204.799 100.827 204.807 100.81C204.816 100.794 204.822 100.776 204.824 100.758C204.825 100.74 204.824 100.721 204.818 100.703C204.813 100.686 204.804 100.669 204.792 100.655Z" fill="#A4A4A4"/>
<path d="M201.268 95.9653C200.399 97.2384 199.364 98.3893 198.19 99.3875C198.846 100.294 200.264 100.228 200.264 100.228L201.268 95.9653Z" fill="#FFB178"/>
<path d="M198.944 96.1229C199.24 96.182 199.601 95.8668 199.673 95.4135C199.745 94.9603 199.627 94.5531 199.332 94.4939C199.036 94.4348 198.708 94.7501 198.603 95.2033C198.498 95.6566 198.642 96.0638 198.944 96.1229Z" fill="#A4A4A4"/>
<path d="M204.077 97.1737C204.372 97.2328 204.694 96.9175 204.805 96.4643C204.917 96.0111 204.753 95.6038 204.457 95.5447C204.162 95.4856 203.834 95.8009 203.729 96.2541C203.624 96.7073 203.775 97.0883 204.077 97.1737Z" fill="#A4A4A4"/>
<path d="M215.344 90.0139C218.119 87.6361 211.793 82.7886 211.793 82.7886C211.793 82.7886 212.502 84.5227 211.032 85.0022C209.562 85.4817 199.22 81.6194 199.371 86.0006C199.399 86.618 199.596 87.2157 199.942 87.7281C200.249 88.1689 200.626 88.5571 201.057 88.8776C203.459 90.7036 207.83 91.262 210.192 91.262C209.817 92.1769 209.555 93.1342 209.411 94.1127C209.23 95.144 209.264 96.2016 209.512 97.2191C209.759 98.2365 210.214 99.1916 210.848 100.024C212.161 102.31 213.913 102.245 215.409 100.504C217.811 98.2312 220.128 93.6266 215.344 90.0139Z" fill="#A4A4A4"/>
<path d="M214.136 99.1901C213.047 98.7434 211.82 99.2689 210.855 100.064C210.326 100.485 209.867 100.988 209.497 101.555C208.571 103.006 208.9 104.695 210.56 104.839H210.849H211.242C212.549 104.706 213.771 104.126 214.701 103.197C215.045 102.864 215.294 102.444 215.42 101.982C215.546 101.519 215.544 101.031 215.416 100.569C215.322 100.257 215.158 99.9701 214.936 99.731C214.714 99.4919 214.441 99.3068 214.136 99.1901Z" fill="#FBBB8B"/>
<path d="M189.915 167.332C189.915 167.332 189.738 168.869 189.462 171.45C199.512 174.852 210.384 174.953 220.495 171.739C220.561 168.619 220.607 166.754 220.607 166.754L201.117 167.122H200.736L189.915 167.332Z" fill="#A4A4A4"/>
<path d="M240.642 140.881C240.586 140.321 240.458 139.772 240.261 139.245C240.167 138.984 240.055 138.729 239.927 138.483L239.736 138.129L239.631 137.945C238.693 136.329 237.663 134.798 236.613 133.347L230.654 139.094C231.441 140.079 232.209 141.065 232.918 142.076C232.787 142.412 232.617 142.732 232.413 143.029C231.459 144.355 230.358 145.569 229.131 146.648C226.562 148.965 223.869 151.142 221.066 153.17L220.154 153.289L216.492 153.788L212.89 156.225L215.259 161.046L218.238 159.522C218.95 159.424 219.651 159.259 220.331 159.03C221.384 158.755 222.301 158.106 222.91 157.204C224.653 156.512 226.36 155.732 228.022 154.865C229.81 153.942 231.541 152.913 233.207 151.785C234.051 151.206 234.887 150.574 235.714 149.886C236.592 149.165 237.404 148.367 238.142 147.502C239.086 146.433 239.813 145.19 240.281 143.843C240.611 142.893 240.734 141.883 240.642 140.881ZM232.97 141.919C232.97 141.886 232.97 141.846 232.97 141.82C232.97 141.662 233.03 141.603 233.03 141.695C233.026 141.772 233.011 141.847 232.984 141.919H232.97Z" fill="#FBBB8B"/>
<path d="M175.733 160.295C177.328 150.466 170.661 141.206 160.84 139.612C151.02 138.018 141.766 144.693 140.17 154.523C138.575 164.352 145.242 173.612 155.063 175.206C164.883 176.8 174.137 170.124 175.733 160.295Z" fill="#A4A4A4"/>
<path d="M167.839 155.712H159.623V147.488C159.623 147.041 159.445 146.611 159.129 146.295C158.813 145.978 158.384 145.8 157.936 145.8C157.489 145.8 157.06 145.978 156.744 146.295C156.427 146.611 156.25 147.041 156.25 147.488V155.712H148.034C147.586 155.712 147.157 155.89 146.841 156.207C146.525 156.523 146.347 156.953 146.347 157.4C146.347 157.848 146.525 158.277 146.841 158.594C147.157 158.911 147.586 159.088 148.034 159.088H156.25V167.312C156.25 167.534 156.293 167.753 156.378 167.958C156.463 168.163 156.587 168.349 156.744 168.506C156.9 168.663 157.086 168.787 157.291 168.872C157.496 168.957 157.715 169 157.936 169C158.158 169 158.377 168.957 158.582 168.872C158.786 168.787 158.972 168.663 159.129 168.506C159.285 168.349 159.41 168.163 159.494 167.958C159.579 167.753 159.623 167.534 159.623 167.312V159.088H167.839C168.286 159.088 168.715 158.911 169.031 158.594C169.348 158.277 169.525 157.848 169.525 157.4C169.525 156.953 169.348 156.523 169.031 156.207C168.715 155.89 168.286 155.712 167.839 155.712Z" fill="white"/>
<path d="M205.054 93.732C205.384 93.7989 205.692 93.9451 205.953 94.158C206.214 94.3708 206.419 94.6439 206.55 94.9538C206.573 95.001 206.608 95.0409 206.652 95.0688C206.696 95.0967 206.748 95.1115 206.8 95.1114C206.836 95.1206 206.875 95.1206 206.911 95.1114C206.944 95.0966 206.973 95.0754 206.997 95.0491C207.022 95.0229 207.041 94.992 207.053 94.9584C207.065 94.9247 207.07 94.889 207.069 94.8532C207.067 94.8175 207.058 94.7825 207.043 94.7502C206.872 94.3582 206.608 94.014 206.274 93.7473C205.94 93.4806 205.546 93.2995 205.126 93.2197C205.055 93.2101 204.983 93.2293 204.926 93.273C204.868 93.3168 204.831 93.3815 204.821 93.4529C204.812 93.5243 204.831 93.5966 204.875 93.6539C204.918 93.7112 204.983 93.7487 205.054 93.7583V93.732Z" fill="#A4A4A4"/>
</g>
</svg>
