<svg width="137" height="114" viewBox="0 0 137 114" fill="none" xmlns="http://www.w3.org/2000/svg">
<path fill-rule="evenodd" clip-rule="evenodd" d="M113.108 37.0498C115.211 37.0498 116.916 38.8362 116.916 41.0398C116.916 43.2434 115.211 45.0298 113.108 45.0298H91.3484C93.4515 45.0298 95.1564 46.8162 95.1564 49.0198C95.1564 51.2234 93.4515 53.0098 91.3484 53.0098H103.316C105.419 53.0098 107.124 54.7962 107.124 56.9998C107.124 59.2034 105.419 60.9898 103.316 60.9898H97.7817C95.13 60.9898 92.9804 62.7762 92.9804 64.9798C92.9804 66.4489 94.0684 67.7789 96.2444 68.9698C98.3475 68.9698 100.052 70.7562 100.052 72.9598C100.052 75.1634 98.3475 76.9498 96.2444 76.9498H51.0924C48.9893 76.9498 47.2844 75.1634 47.2844 72.9598C47.2844 70.7562 48.9893 68.9698 51.0924 68.9698H29.8764C27.7733 68.9698 26.0684 67.1834 26.0684 64.9798C26.0684 62.7762 27.7733 60.9898 29.8764 60.9898H51.6364C53.7395 60.9898 55.4444 59.2034 55.4444 56.9998C55.4444 54.7962 53.7395 53.0098 51.6364 53.0098H38.0364C35.9333 53.0098 34.2284 51.2234 34.2284 49.0198C34.2284 46.8162 35.9333 45.0298 38.0364 45.0298H59.7964C57.6933 45.0298 55.9884 43.2434 55.9884 41.0398C55.9884 38.8362 57.6933 37.0498 59.7964 37.0498H113.108ZM113.108 53.0098C115.211 53.0098 116.916 54.7962 116.916 56.9998C116.916 59.2034 115.211 60.9898 113.108 60.9898C111.005 60.9898 109.3 59.2034 109.3 56.9998C109.3 54.7962 111.005 53.0098 113.108 53.0098Z" fill="#F4F4F4"/>
<path opacity="0.4" d="M74.1911 45.7427V70.5377H65.5481C58.0397 70.5377 53.5635 66.0539 53.5635 58.5328V45.7427H74.1911Z" fill="url(#paint0_linear_11419_231271)"/>
<path d="M94.8187 41.2173V45.7424H53.5635V41.2173C53.5635 33.6962 58.0397 29.2124 65.5481 29.2124H82.8341C90.3425 29.2124 94.8187 33.6962 94.8187 41.2173Z" fill="url(#paint1_linear_11419_231271)"/>
<path opacity="0.6" d="M94.818 45.7427V58.5328C94.818 66.0539 90.3419 70.5377 82.8334 70.5377H74.1904V45.7427H94.818Z" fill="url(#paint2_linear_11419_231271)"/>
<defs>
<linearGradient id="paint0_linear_11419_231271" x1="54.1689" y1="69.1602" x2="83.2489" y2="68.5336" gradientUnits="userSpaceOnUse">
<stop stop-color="#005F73"/>
<stop offset="1" stop-color="#6CC24A"/>
</linearGradient>
<linearGradient id="paint1_linear_11419_231271" x1="54.7742" y1="44.8241" x2="112.719" y2="41.0783" gradientUnits="userSpaceOnUse">
<stop stop-color="#005F73"/>
<stop offset="1" stop-color="#6CC24A"/>
</linearGradient>
<linearGradient id="paint2_linear_11419_231271" x1="74.7958" y1="69.1602" x2="103.876" y2="68.5336" gradientUnits="userSpaceOnUse">
<stop stop-color="#005F73"/>
<stop offset="1" stop-color="#6CC24A"/>
</linearGradient>
</defs>
</svg>
