<svg width="135" height="108" viewBox="0 0 135 108" fill="none" xmlns="http://www.w3.org/2000/svg">
<path fill-rule="evenodd" clip-rule="evenodd" d="M111.452 35.0996C113.525 35.0996 115.204 36.792 115.204 38.8796C115.204 40.9672 113.525 42.6596 111.452 42.6596H90.0124C92.0846 42.6596 93.7644 44.352 93.7644 46.4396C93.7644 48.5272 92.0846 50.2196 90.0124 50.2196H101.804C103.877 50.2196 105.556 51.912 105.556 53.9996C105.556 56.0872 103.877 57.7796 101.804 57.7796H96.3512C93.7384 57.7796 91.6204 59.472 91.6204 61.5596C91.6204 62.9514 92.6924 64.2114 94.8364 65.3396C96.9086 65.3396 98.5884 67.032 98.5884 69.1196C98.5884 71.2072 96.9086 72.8996 94.8364 72.8996H50.3484C48.2762 72.8996 46.5964 71.2072 46.5964 69.1196C46.5964 67.032 48.2762 65.3396 50.3484 65.3396H29.4444C27.3722 65.3396 25.6924 63.6472 25.6924 61.5596C25.6924 59.472 27.3722 57.7796 29.4444 57.7796H50.8844C52.9566 57.7796 54.6364 56.0872 54.6364 53.9996C54.6364 51.912 52.9566 50.2196 50.8844 50.2196H37.4844C35.4122 50.2196 33.7324 48.5272 33.7324 46.4396C33.7324 44.352 35.4122 42.6596 37.4844 42.6596H58.9244C56.8522 42.6596 55.1724 40.9672 55.1724 38.8796C55.1724 36.792 56.8522 35.0996 58.9244 35.0996H111.452ZM111.452 50.2196C113.525 50.2196 115.204 51.912 115.204 53.9996C115.204 56.0872 113.525 57.7796 111.452 57.7796C109.38 57.7796 107.7 56.0872 107.7 53.9996C107.7 51.912 109.38 50.2196 111.452 50.2196Z" fill="#F4F4F4"/>
<path opacity="0.4" d="M90.3955 46.0507H83.2909C77.4647 46.0507 72.7201 41.3062 72.7201 35.4799V28.3753C72.7201 27.0232 71.6138 25.917 70.2618 25.917H59.8384C52.2668 25.917 46.1455 30.8337 46.1455 39.6099V61.3907C46.1455 70.167 52.2668 75.0837 59.8384 75.0837H79.1609C86.7326 75.0837 92.8538 70.167 92.8538 61.3907V48.5091C92.8538 47.157 91.7476 46.0507 90.3955 46.0507Z" fill="url(#paint0_linear_6239_102093)"/>
<path d="M78.8412 26.4331C77.8333 25.4252 76.0879 26.1135 76.0879 27.5148V36.0944C76.0879 39.6835 79.1362 42.6581 82.8483 42.6581C85.1837 42.6827 88.4287 42.6827 91.2066 42.6827C92.6079 42.6827 93.3454 41.0356 92.3621 40.0523C88.8221 36.4877 82.4796 30.0715 78.8412 26.4331Z" fill="url(#paint1_linear_6239_102093)"/>
<path d="M73.1875 54.8018H58.4375C57.4296 54.8018 56.5938 53.9659 56.5938 52.958C56.5938 51.9501 57.4296 51.1143 58.4375 51.1143H73.1875C74.1954 51.1143 75.0312 51.9501 75.0312 52.958C75.0312 53.9659 74.1954 54.8018 73.1875 54.8018Z" fill="url(#paint2_linear_6239_102093)"/>
<path d="M68.2708 64.6357H58.4375C57.4296 64.6357 56.5938 63.7999 56.5938 62.792C56.5938 61.7841 57.4296 60.9482 58.4375 60.9482H68.2708C69.2788 60.9482 70.1146 61.7841 70.1146 62.792C70.1146 63.7999 69.2788 64.6357 68.2708 64.6357Z" fill="url(#paint3_linear_6239_102093)"/>
<defs>
<linearGradient id="paint0_linear_6239_102093" x1="47.5163" y1="72.3522" x2="113.355" y2="70.7322" gradientUnits="userSpaceOnUse">
<stop stop-color="#005F73"/>
<stop offset="1" stop-color="#6CC24A"/>
</linearGradient>
<linearGradient id="paint1_linear_6239_102093" x1="76.5787" y1="41.7533" x2="100.151" y2="41.1429" gradientUnits="userSpaceOnUse">
<stop stop-color="#005F73"/>
<stop offset="1" stop-color="#6CC24A"/>
</linearGradient>
<linearGradient id="paint2_linear_6239_102093" x1="57.1349" y1="54.5969" x2="82.7105" y2="51.2847" gradientUnits="userSpaceOnUse">
<stop stop-color="#005F73"/>
<stop offset="1" stop-color="#6CC24A"/>
</linearGradient>
<linearGradient id="paint3_linear_6239_102093" x1="56.9906" y1="64.4309" x2="75.8901" y2="62.636" gradientUnits="userSpaceOnUse">
<stop stop-color="#005F73"/>
<stop offset="1" stop-color="#6CC24A"/>
</linearGradient>
</defs>
</svg>
