<svg width="76" height="56" viewBox="0 0 76 56" fill="none" xmlns="http://www.w3.org/2000/svg">
<g opacity="0.8">
<path d="M75.5789 49.2148H0.421875V49.2524H75.5789V49.2148Z" fill="#EBEBEB"/>
<path d="M68.0487 51.6328H63.0703V51.6704H68.0487V51.6328Z" fill="#EBEBEB"/>
<path d="M61.175 51.6328H50.5312V51.6704H61.175V51.6328Z" fill="#EBEBEB"/>
<path d="M44.6619 50.2383H41.7773V50.2759H44.6619V50.2383Z" fill="#EBEBEB"/>
<path d="M13.4629 50.4883H8.30859V50.5259H13.4629V50.4883Z" fill="#EBEBEB"/>
<path d="M24.1729 50.4883H14.8008V50.5259H24.1729V50.4883Z" fill="#EBEBEB"/>
<path d="M34.2635 51.125H28.7305V51.1626H34.2635V51.125Z" fill="#EBEBEB"/>
<path d="M36.0489 42.5088H7.02476C6.79739 42.5084 6.57946 42.4178 6.41883 42.2569C6.25819 42.096 6.16797 41.8779 6.16797 41.6505V0.850777C6.16995 0.624709 6.26104 0.40855 6.42146 0.249253C6.58189 0.0899566 6.79868 0.000387267 7.02476 0H36.0489C36.2765 0 36.4948 0.0904271 36.6558 0.251388C36.8168 0.412349 36.9072 0.630659 36.9072 0.858293V41.6505C36.9072 41.8781 36.8168 42.0965 36.6558 42.2574C36.4948 42.4184 36.2765 42.5088 36.0489 42.5088ZM7.02476 0.0300629C6.80735 0.0304611 6.59899 0.117104 6.4454 0.270975C6.29181 0.424846 6.20555 0.63337 6.20555 0.850777V41.6505C6.20555 41.8679 6.29181 42.0764 6.4454 42.2303C6.59899 42.3842 6.80735 42.4708 7.02476 42.4712H36.0489C36.2664 42.4708 36.475 42.3842 36.6288 42.2304C36.7826 42.0766 36.8692 41.8681 36.8696 41.6505V0.850777C36.8692 0.633232 36.7826 0.424711 36.6288 0.270883C36.475 0.117056 36.2664 0.0304603 36.0489 0.0300629H7.02476Z" fill="#EBEBEB"/>
<path d="M68.5597 42.5088H39.5341C39.3066 42.5084 39.0885 42.4179 38.9276 42.257C38.7667 42.0961 38.6762 41.878 38.6758 41.6505V0.850777C38.6782 0.624572 38.7696 0.408415 38.9302 0.249159C39.0909 0.0899041 39.3079 0.000383044 39.5341 0H68.5597C68.7855 0.000782309 69.0019 0.0905265 69.162 0.249781C69.3221 0.409035 69.413 0.624968 69.415 0.850777V41.6505C69.415 41.8776 69.325 42.0955 69.1647 42.2564C69.0044 42.4172 68.7868 42.508 68.5597 42.5088ZM39.5341 0.0300629C39.3165 0.0304603 39.108 0.117056 38.9542 0.270883C38.8004 0.424711 38.7138 0.633232 38.7134 0.850777V41.6505C38.7138 41.8681 38.8004 42.0766 38.9542 42.2304C39.108 42.3842 39.3165 42.4708 39.5341 42.4712H68.5597C68.7773 42.4708 68.9858 42.3842 69.1396 42.2304C69.2934 42.0766 69.38 41.8681 69.3804 41.6505V0.850777C69.38 0.633232 69.2934 0.424711 69.1396 0.270883C68.9858 0.117056 68.7773 0.0304603 68.5597 0.0300629H39.5341Z" fill="#EBEBEB"/>
<path d="M21.7734 23.7109L54.9102 23.7109V2.18747L21.7734 2.18747V23.7109Z" fill="#E6E6E6"/>
<path d="M21.0939 23.7109L54.4922 23.7109V2.18747L21.0939 2.18747V23.7109Z" fill="#F0F0F0"/>
<path d="M53.8008 22.5415V3.35547L21.7824 3.35547V22.5415L53.8008 22.5415Z" fill="#FAFAFA"/>
<path d="M49.8727 22.5415L45.8232 3.35547H40.5156L44.5651 22.5415H49.8727Z" fill="white"/>
<path d="M43.7048 22.5415L39.6553 3.35547H37.2578L41.3073 22.5415H43.7048Z" fill="white"/>
<path d="M34.1909 22.5415L30.1414 3.35547H26.0469L30.0963 22.5415H34.1909Z" fill="white"/>
<path d="M21.8711 22.5415V3.35547H21.7839V22.5415H21.8711Z" fill="#E6E6E6"/>
<path d="M36.795 23.7109H38.7852V2.18747H36.795V23.7109Z" fill="#F0F0F0"/>
<path d="M38.8711 22.5415V3.35547H38.7839V22.5415H38.8711Z" fill="#E6E6E6"/>
<path d="M37.7551 23.7109H37.8242V2.18747H37.7551V23.7109Z" fill="#E6E6E6"/>
<path d="M61.4384 48.2148H67.4766V32.4619H61.4384V48.2148Z" fill="#F0F0F0"/>
<path d="M36.5392 49.2148L66.3164 49.2148V48.2168L36.5392 48.2168V49.2148Z" fill="#F0F0F0"/>
<path d="M61.4358 32.4609H35.3789V48.2138H61.4358V32.4609Z" fill="#F5F5F5"/>
<path d="M59.0639 34.4023H37.7539V39.5686H59.0639V34.4023Z" fill="#F0F0F0"/>
<path d="M59.0639 41.1094H37.7539V46.2757H59.0639V41.1094Z" fill="#F0F0F0"/>
<path d="M45.7163 37.3359H51.102C51.2614 37.3359 51.3906 37.2067 51.3906 37.0473V36.9166C51.3906 36.7572 51.2614 36.628 51.102 36.628H45.7163C45.5569 36.628 45.4277 36.7572 45.4277 36.9166V37.0473C45.4277 37.2067 45.5569 37.3359 45.7163 37.3359Z" fill="#F5F5F5"/>
<path d="M45.7163 44.0469H51.102C51.2614 44.0469 51.3906 43.9177 51.3906 43.7583V43.6275C51.3906 43.4681 51.2614 43.3389 51.102 43.3389H45.7163C45.5569 43.3389 45.4277 43.4681 45.4277 43.6275V43.7583C45.4277 43.9177 45.5569 44.0469 45.7163 44.0469Z" fill="#F5F5F5"/>
<path d="M47.0752 29.8086C47.0752 29.8086 47.0031 32.4616 44.2192 32.4616C41.4354 32.4616 41.3633 29.8086 41.3633 29.8086H47.0752Z" fill="#F0F0F0"/>
<path d="M53.5869 29.8086C53.5869 29.8086 53.5133 32.4616 50.731 32.4616C47.9487 32.4616 47.875 29.8086 47.875 29.8086H53.5869Z" fill="#F0F0F0"/>
<path d="M47.0752 28.0508C47.0752 28.0508 47.0031 30.7038 44.2192 30.7038C41.4354 30.7038 41.3633 28.0508 41.3633 28.0508H47.0752Z" fill="#F0F0F0"/>
<path d="M53.5869 28.0508C53.5869 28.0508 53.5133 30.7038 50.731 30.7038C47.9487 30.7038 47.875 28.0508 47.875 28.0508H53.5869Z" fill="#F0F0F0"/>
<path d="M60.0947 29.8086C60.0947 29.8086 60.0181 32.4676 57.2388 32.4676C54.4595 32.4676 54.3828 29.8146 54.3828 29.8146L60.0947 29.8086Z" fill="#F0F0F0"/>
<path d="M60.0947 28.0508C60.0947 28.0508 60.0211 30.7038 57.2388 30.7038C54.4565 30.7038 54.3828 28.0508 54.3828 28.0508H60.0947Z" fill="#F0F0F0"/>
<path d="M58.3419 17.9727H62.1328V10.8252H58.3419V17.9727Z" fill="#E6E6E6"/>
<path d="M57.493 17.9727H61.9453V10.8252H57.493V17.9727Z" fill="#F5F5F5"/>
<path d="M61.2695 17.3343V11.457H58.1731V17.3343H61.2695Z" fill="white"/>
<path d="M64.0841 22.5898H67.875V15.4424H64.0841V22.5898Z" fill="#E6E6E6"/>
<path d="M63.2352 22.5898H67.6875V15.4424H63.2352V22.5898Z" fill="#F5F5F5"/>
<path d="M67.0078 21.9515V16.0742H63.9113V21.9515H67.0078Z" fill="white"/>
<path d="M11.3555 17.4727H16.7773V7.2513H11.3555V17.4727Z" fill="#E6E6E6"/>
<path d="M10.1468 17.4727H16.5156V7.2513H10.1468V17.4727Z" fill="#F5F5F5"/>
<path d="M15.543 16.5657V8.16016H11.1132V16.5657H15.543Z" fill="white"/>
<path d="M9.24715 35.419C8.53015 33.3146 6.34308 32.53 5.70875 31.2012C4.87752 29.4606 5.18115 26.8496 6.1597 25.9072C7.01498 25.0879 8.90744 30.6255 9.12088 31.2448C9.85592 33.3717 9.95963 34.9515 9.96865 36.4802C10.0949 35.18 10.2122 33.9865 10.3008 33.0651C10.5894 30.0588 10.633 29.0938 10.636 28.7962C10.5474 28.6459 10.4421 28.482 10.3805 28.3918C9.85742 27.6237 8.60681 26.7098 8.05666 25.5945C7.25398 23.9651 7.63578 22.0155 8.4129 21.2895C9.2246 20.5379 10.3008 22.3252 10.7788 24.1019C11.2568 25.8786 10.7788 27.5816 10.7939 29.0622C10.7939 29.3523 10.7172 30.4511 10.5819 31.9768C10.9758 30.3354 11.5124 29.2366 12.3857 28.219C13.468 26.9593 14.451 25.4231 15.2011 25.6216C15.9511 25.82 15.3033 27.8507 14.5307 29.2772C13.8407 30.5458 11.0118 31.813 10.5008 32.8336C10.3114 34.9019 10.0498 37.5204 9.80631 39.96C10.1611 38.7004 10.0273 38.5937 11.114 36.6651C11.7604 35.5182 14.0361 34.1098 14.1985 34.8929C14.3608 35.6761 13.8077 37.1702 12.8908 38.2119C12.1512 39.0536 10.7232 39.0521 10.3354 39.5752C10.2452 39.697 9.93709 40.1629 9.75972 40.432C9.45909 43.4097 9.17049 46.0387 9.05174 46.9346L8.91194 46.9436C8.94501 46.7121 9.10134 45.1969 9.30276 43.1857C9.07729 42.1185 6.81356 41.4962 6.21982 40.3869C5.59752 39.2265 5.20971 37.8706 5.6366 36.9642C5.99285 36.2127 8.00254 37.2363 8.72255 38.4899C9.20205 39.3242 9.45307 40.2155 9.47412 41.412C9.6094 40.0457 9.75521 38.5786 9.89049 37.1942C9.76873 36.8455 9.46209 36.0488 9.24715 35.419Z" fill="#E6E6E6"/>
<path d="M11.3713 49.2138H6.88592C6.63941 49.2138 6.43498 48.9267 6.37937 48.5283L6.05469 45.9219H12.1965L11.8763 48.5283C11.8282 48.9267 11.6163 49.2138 11.3713 49.2138Z" fill="#E6E6E6"/>
<path d="M12.3228 46.1145H5.92541C5.86052 46.1212 5.79531 46.1054 5.74061 46.0699C5.68592 46.0343 5.64505 45.9811 5.62479 45.9191L5.49401 45.0653C5.47447 44.9346 5.61426 44.8203 5.79464 44.8203H12.4536C12.6339 44.8203 12.7737 44.9346 12.7542 45.0653L12.6234 45.9191C12.6036 45.9814 12.5629 46.035 12.5081 46.0706C12.4532 46.1062 12.3878 46.1218 12.3228 46.1145Z" fill="#F0F0F0"/>
<path d="M38.0038 56.0008C54.0998 56.0008 67.1481 55.239 67.1481 54.2992C67.1481 53.3595 54.0998 52.5977 38.0038 52.5977C21.9078 52.5977 8.85938 53.3595 8.85938 54.2992C8.85938 55.239 21.9078 56.0008 38.0038 56.0008Z" fill="#F5F5F5"/>
<path d="M37.4069 21.244L39.5654 23.8234C39.7591 24.0547 40.0049 24.2367 40.2828 24.3543C40.5606 24.4719 40.8624 24.5218 41.1633 24.4998L50.7518 23.7949C51.4671 23.7423 52.1741 23.9759 52.7172 24.4444C53.2604 24.9128 53.5953 25.5778 53.6483 26.2931L54.9516 44.0046C55.0029 44.7192 54.7687 45.4249 54.3004 45.9671C53.832 46.5092 53.1678 46.8435 52.4533 46.8966L25.8688 48.8507C25.1532 48.9033 24.4461 48.6694 23.9029 48.2007C23.3597 47.7319 23.0249 47.0665 22.9723 46.351L21.2902 23.5423C21.2534 23.0398 21.4177 22.5433 21.7469 22.1619C22.0762 21.7805 22.5434 21.5455 23.0459 21.5086L35.8106 20.5676C36.1113 20.5455 36.4129 20.5953 36.6905 20.713C36.9681 20.8306 37.2137 21.0126 37.4069 21.244Z" fill="url(#paint0_linear_9859_213393)"/>
<g opacity="0.3">
<path d="M37.4069 21.244L39.5654 23.8234C39.7591 24.0547 40.0049 24.2367 40.2828 24.3543C40.5606 24.4719 40.8624 24.5218 41.1633 24.4998L50.7518 23.7949C51.4671 23.7423 52.1741 23.9759 52.7172 24.4444C53.2604 24.9128 53.5953 25.5778 53.6483 26.2931L54.9516 44.0046C55.0029 44.7192 54.7687 45.4249 54.3004 45.9671C53.832 46.5092 53.1678 46.8435 52.4533 46.8966L25.8688 48.8507C25.1532 48.9033 24.4461 48.6694 23.9029 48.2007C23.3597 47.7319 23.0249 47.0665 22.9723 46.351L21.2902 23.5423C21.2534 23.0398 21.4177 22.5433 21.7469 22.1619C22.0762 21.7805 22.5434 21.5455 23.0459 21.5086L35.8106 20.5676C36.1113 20.5455 36.4129 20.5953 36.6905 20.713C36.9681 20.8306 37.2137 21.0126 37.4069 21.244Z" fill="black"/>
</g>
<path d="M32.5875 22.1112L23.4866 22.7811C23.2804 22.7963 23.1256 22.9757 23.1408 23.1819L23.1414 23.1909C23.1566 23.397 23.336 23.5518 23.5422 23.5367L32.6431 22.8667C32.8493 22.8516 33.0041 22.6721 32.9889 22.466L32.9882 22.457C32.9731 22.2508 32.7936 22.096 32.5875 22.1112Z" fill="white"/>
<path d="M31.2813 23.8919L23.5266 24.4347C23.3199 24.4492 23.1641 24.6285 23.1785 24.8352L23.1792 24.8442C23.1936 25.0509 23.3729 25.2068 23.5797 25.1923L31.3344 24.6495C31.5411 24.635 31.6969 24.4557 31.6824 24.249L31.6818 24.24C31.6673 24.0333 31.488 23.8774 31.2813 23.8919Z" fill="white"/>
<path d="M53.3284 45.8931L25.3986 47.9509C25.0613 47.975 24.7282 47.8645 24.4722 47.6436C24.2162 47.4228 24.058 47.1096 24.0322 46.7725L22.7651 29.551C22.7406 29.2136 22.851 28.8804 23.0719 28.6242C23.2928 28.3681 23.6062 28.21 23.9435 28.1846L51.8749 26.1283C52.2122 26.1039 52.5455 26.2142 52.8016 26.4352C53.0578 26.6561 53.2158 26.9695 53.2412 27.3068L54.5099 44.5268C54.5335 44.8644 54.4224 45.1977 54.2011 45.4537C53.9797 45.7098 53.6659 45.8677 53.3284 45.8931Z" fill="#E0E0E0"/>
<path d="M51.8698 26.1258L24.3391 28.1524C23.6362 28.2041 23.1084 28.8159 23.1601 29.5188L24.4277 46.7388C24.4794 47.4417 25.0912 47.9696 25.7941 47.9178L53.3248 45.8913C54.0277 45.8395 54.5555 45.2278 54.5038 44.5249L53.2362 27.3049C53.1845 26.602 52.5727 26.0741 51.8698 26.1258Z" fill="white"/>
<path d="M26.6992 47.8548L32.4623 47.4294L27.2449 30.2695L26.6992 47.8548Z" fill="#F5F5F5"/>
<path d="M58.7597 41.0834L31.144 45.7327C30.8094 45.7875 30.4668 45.7075 30.191 45.5103C29.9152 45.3132 29.7287 45.0148 29.6724 44.6805L26.8059 27.6559C26.7511 27.3215 26.8311 26.9791 27.0283 26.7035C27.2255 26.428 27.5239 26.2418 27.8581 26.1858L55.4738 21.5366C55.8084 21.4814 56.1513 21.5612 56.4271 21.7584C56.703 21.9557 56.8894 22.2543 56.9454 22.5888L59.8119 39.6149C59.8658 39.949 59.7854 40.2909 59.5883 40.566C59.3912 40.8411 59.0934 41.0271 58.7597 41.0834Z" fill="white"/>
<path opacity="0.3" d="M55.4724 21.5393L28.2506 26.124C27.5556 26.241 27.0871 26.8994 27.2041 27.5944L30.0718 44.6212C30.1888 45.3162 30.8471 45.7847 31.5422 45.6677L58.764 41.083C59.459 40.9659 59.9275 40.3076 59.8105 39.6126L56.9428 22.5858C56.8258 21.8908 56.1674 21.4223 55.4724 21.5393Z" fill="url(#paint1_linear_9859_213393)"/>
<path opacity="0.2" d="M55.121 25.2032L29.775 29.4691C29.6278 29.4935 29.4769 29.4587 29.3552 29.3722C29.2336 29.2858 29.151 29.1547 29.1257 29.0077L28.9844 28.1614C28.9721 28.0885 28.9743 28.014 28.9909 27.942C29.0074 27.87 29.038 27.802 29.0808 27.7418C29.1237 27.6817 29.178 27.6305 29.2406 27.5914C29.3033 27.5522 29.373 27.5257 29.4458 27.5135L54.7918 23.2461C54.9391 23.2213 55.0902 23.256 55.212 23.3425C55.3337 23.429 55.4161 23.5603 55.4411 23.7076L55.5839 24.5538C55.6079 24.7012 55.5727 24.8522 55.486 24.9737C55.3993 25.0953 55.2681 25.1778 55.121 25.2032Z" fill="url(#paint2_linear_9859_213393)"/>
<path opacity="0.2" d="M55.3951 26.7296L30.0131 31.003C29.9421 31.0145 29.8741 31.0399 29.8131 31.0777C29.752 31.1156 29.6989 31.1651 29.657 31.2235C29.6151 31.2819 29.5852 31.3479 29.5689 31.4179C29.5526 31.4879 29.5503 31.5604 29.5621 31.6313L29.6869 32.3829C29.6984 32.4538 29.7238 32.5218 29.7616 32.5829C29.7994 32.644 29.849 32.697 29.9073 32.7389C29.9657 32.7808 30.0318 32.8108 30.1018 32.827C30.1718 32.8433 30.2443 32.8456 30.3152 32.8338L55.6972 28.5604C55.768 28.5489 55.8358 28.5236 55.8968 28.4858C55.9578 28.4481 56.0107 28.3987 56.0526 28.3405C56.0945 28.2823 56.1245 28.2164 56.1409 28.1465C56.1573 28.0767 56.1597 28.0044 56.1482 27.9336L56.0219 27.182C55.9986 27.039 55.9196 26.911 55.8021 26.8262C55.6845 26.7413 55.5382 26.7066 55.3951 26.7296Z" fill="url(#paint3_linear_9859_213393)"/>
<path d="M58.8002 46.8219L58.7461 46.6806C59.0936 46.5488 59.4144 46.3553 59.6931 46.1094L59.7923 46.2221C59.5005 46.4803 59.1644 46.6835 58.8002 46.8219Z" fill="url(#paint4_linear_9859_213393)"/>
<path d="M60.5557 45.2336L60.4219 45.166C60.6746 44.6641 60.7858 44.1029 60.7435 43.5426L60.5782 41.2879L60.7285 41.2773L60.8939 43.5321C60.9375 44.1194 60.8206 44.7076 60.5557 45.2336Z" fill="url(#paint5_linear_9859_213393)"/>
<path d="M57.8375 46.5018L28.5984 48.6543L25.8672 48.8512C26.5919 48.7978 27.2658 48.4586 27.7405 47.9084C28.2152 47.3581 28.4519 46.6419 28.3985 45.9171L27.5206 33.9341C27.5024 33.6969 27.5313 33.4586 27.6055 33.2326C27.6798 33.0067 27.798 32.7977 27.9533 32.6176C28.1087 32.4375 28.2981 32.2899 28.5107 32.1833C28.7233 32.0768 28.9549 32.0133 29.1921 31.9965L57.5474 29.9117C57.7846 29.8932 58.0232 29.9219 58.2493 29.9961C58.4754 30.0703 58.6846 30.1884 58.8648 30.3438C59.0451 30.4992 59.1928 30.6887 59.2995 30.9014C59.4062 31.1141 59.4697 31.3458 59.4864 31.5832L60.3688 43.5737C60.4209 44.2976 60.1836 45.0125 59.709 45.5615C59.2344 46.1105 58.5613 46.4487 57.8375 46.5018Z" fill="url(#paint6_linear_9859_213393)"/>
</g>
<defs>
<linearGradient id="paint0_linear_9859_213393" x1="22.2734" y1="47.286" x2="69.7219" y2="45.8235" gradientUnits="userSpaceOnUse">
<stop stop-color="#005F73"/>
<stop offset="1" stop-color="#6CC24A"/>
</linearGradient>
<linearGradient id="paint1_linear_9859_213393" x1="30.9736" y1="44.6468" x2="72.5746" y2="35.9431" gradientUnits="userSpaceOnUse">
<stop stop-color="#005F73"/>
<stop offset="1" stop-color="#6CC24A"/>
</linearGradient>
<linearGradient id="paint2_linear_9859_213393" x1="29.7576" y1="29.1301" x2="66.8427" y2="25.0322" gradientUnits="userSpaceOnUse">
<stop stop-color="#005F73"/>
<stop offset="1" stop-color="#6CC24A"/>
</linearGradient>
<linearGradient id="paint3_linear_9859_213393" x1="30.3354" y1="32.5013" x2="67.3836" y2="28.3295" gradientUnits="userSpaceOnUse">
<stop stop-color="#005F73"/>
<stop offset="1" stop-color="#6CC24A"/>
</linearGradient>
<linearGradient id="paint4_linear_9859_213393" x1="58.7768" y1="46.7823" x2="60.2502" y2="46.7262" gradientUnits="userSpaceOnUse">
<stop stop-color="#005F73"/>
<stop offset="1" stop-color="#6CC24A"/>
</linearGradient>
<linearGradient id="paint5_linear_9859_213393" x1="60.436" y1="45.0138" x2="61.1143" y2="45.0117" gradientUnits="userSpaceOnUse">
<stop stop-color="#005F73"/>
<stop offset="1" stop-color="#6CC24A"/>
</linearGradient>
<linearGradient id="paint6_linear_9859_213393" x1="26.8799" y1="47.7987" x2="75.4435" y2="45.5075" gradientUnits="userSpaceOnUse">
<stop stop-color="#005F73"/>
<stop offset="1" stop-color="#6CC24A"/>
</linearGradient>
</defs>
</svg>
