<svg width="137" height="114" viewBox="0 0 137 114" fill="none" xmlns="http://www.w3.org/2000/svg">
<path fill-rule="evenodd" clip-rule="evenodd" d="M113.108 37.0498C115.211 37.0498 116.916 38.8362 116.916 41.0398C116.916 43.2434 115.211 45.0298 113.108 45.0298H91.3484C93.4515 45.0298 95.1564 46.8162 95.1564 49.0198C95.1564 51.2234 93.4515 53.0098 91.3484 53.0098H103.316C105.419 53.0098 107.124 54.7962 107.124 56.9998C107.124 59.2034 105.419 60.9898 103.316 60.9898H97.7817C95.13 60.9898 92.9804 62.7762 92.9804 64.9798C92.9804 66.4489 94.0684 67.7789 96.2444 68.9698C98.3475 68.9698 100.052 70.7562 100.052 72.9598C100.052 75.1634 98.3475 76.9498 96.2444 76.9498H51.0924C48.9893 76.9498 47.2844 75.1634 47.2844 72.9598C47.2844 70.7562 48.9893 68.9698 51.0924 68.9698H29.8764C27.7733 68.9698 26.0684 67.1834 26.0684 64.9798C26.0684 62.7762 27.7733 60.9898 29.8764 60.9898H51.6364C53.7395 60.9898 55.4444 59.2034 55.4444 56.9998C55.4444 54.7962 53.7395 53.0098 51.6364 53.0098H38.0364C35.9333 53.0098 34.2284 51.2234 34.2284 49.0198C34.2284 46.8162 35.9333 45.0298 38.0364 45.0298H59.7964C57.6933 45.0298 55.9884 43.2434 55.9884 41.0398C55.9884 38.8362 57.6933 37.0498 59.7964 37.0498H113.108ZM113.108 53.0098C115.211 53.0098 116.916 54.7962 116.916 56.9998C116.916 59.2034 115.211 60.9898 113.108 60.9898C111.005 60.9898 109.3 59.2034 109.3 56.9998C109.3 54.7962 111.005 53.0098 113.108 53.0098Z" fill="#F4F4F4"/>
<path opacity="0.4" d="M91.7244 46.135H85.7631C80.8743 46.135 76.8932 42.1471 76.8932 37.2501V31.2787C76.8932 30.1422 75.9649 29.2124 74.8304 29.2124H66.0843C59.731 29.2124 54.5947 33.3449 54.5947 40.7214V59.0284C54.5947 66.4049 59.731 70.5374 66.0843 70.5374H82.2976C88.6509 70.5374 93.7872 66.4049 93.7872 59.0284V48.2012C93.7872 47.0648 92.859 46.135 91.7244 46.135Z" fill="url(#paint0_linear_11419_230368)"/>
<path d="M82.029 29.6463C81.1833 28.7991 79.7188 29.3777 79.7188 30.5554V37.7666C79.7188 40.7834 82.2766 43.2835 85.3913 43.2835C87.351 43.3042 90.0738 43.3042 92.4047 43.3042C93.5805 43.3042 94.1993 41.9198 93.3742 41.0933C90.4038 38.0972 85.0819 32.7043 82.029 29.6463Z" fill="url(#paint1_linear_11419_230368)"/>
<path d="M73.2212 50.8464L69.0957 46.7139C69.075 46.6932 69.0544 46.6932 69.0544 46.6725C68.9306 46.5486 68.7656 46.4452 68.6006 46.3626C68.58 46.3626 68.58 46.3626 68.5593 46.3626C68.3943 46.3006 68.2293 46.2799 68.0643 46.2593C68.0024 46.2593 67.9611 46.2593 67.8993 46.2593C67.7755 46.2593 67.6311 46.3006 67.5073 46.3419C67.4455 46.3626 67.4042 46.3833 67.3629 46.4039C67.1979 46.4866 67.0329 46.5692 66.9091 46.7139L62.7836 50.8464C62.1854 51.4456 62.1854 52.4374 62.7836 53.0366C63.3818 53.6358 64.3719 53.6358 64.9701 53.0366L66.4553 51.5489V60.2065C66.4553 61.0536 67.1567 61.7562 68.0024 61.7562C68.8481 61.7562 69.5495 61.0536 69.5495 60.2065V51.5489L71.0347 53.0366C71.3441 53.3465 71.736 53.4912 72.1279 53.4912C72.5198 53.4912 72.9118 53.3465 73.2212 53.0366C73.8194 52.4374 73.8194 51.4456 73.2212 50.8464Z" fill="url(#paint2_linear_11419_230368)"/>
<defs>
<linearGradient id="paint0_linear_11419_230368" x1="55.7449" y1="68.2416" x2="110.989" y2="66.8845" gradientUnits="userSpaceOnUse">
<stop stop-color="#005F73"/>
<stop offset="1" stop-color="#6CC24A"/>
</linearGradient>
<linearGradient id="paint1_linear_11419_230368" x1="80.1306" y1="42.523" x2="99.9099" y2="42.0117" gradientUnits="userSpaceOnUse">
<stop stop-color="#005F73"/>
<stop offset="1" stop-color="#6CC24A"/>
</linearGradient>
<linearGradient id="paint2_linear_11419_230368" x1="62.6676" y1="60.8952" x2="78.6488" y2="60.5925" gradientUnits="userSpaceOnUse">
<stop stop-color="#005F73"/>
<stop offset="1" stop-color="#6CC24A"/>
</linearGradient>
</defs>
</svg>
