<svg width="134" height="108" viewBox="0 0 134 108" fill="none" xmlns="http://www.w3.org/2000/svg">
<path d="M72.8962 34.7617C74.9683 34.7618 76.6482 36.437 76.6482 38.5029C76.648 40.5687 74.9682 42.2431 72.8962 42.2432H107.2C109.272 42.2432 110.952 43.9184 110.952 45.9844C110.952 48.0503 109.272 49.7246 107.2 49.7246H118.992C121.064 49.7246 122.744 51.3998 122.744 53.4658C122.744 55.5318 121.064 57.207 118.992 57.207H108.808C106.736 57.207 105.057 58.8814 105.056 60.9473C105.056 63.0133 106.736 64.6885 108.808 64.6885H112.024C114.096 64.6885 115.776 66.3637 115.776 68.4297C115.776 70.4954 114.096 72.1699 112.024 72.1699H84.1521C83.8762 72.1699 83.6073 72.1403 83.3484 72.084C83.0894 72.1404 82.8197 72.1699 82.5437 72.1699H33.7683C31.6963 72.1699 30.0166 70.4955 30.0164 68.4297C30.0164 66.3637 31.6961 64.6885 33.7683 64.6885H12.864C10.7919 64.6885 9.11206 63.0133 9.11206 60.9473C9.11222 58.8814 10.792 57.2071 12.864 57.207H34.3044C36.3764 57.2068 38.0564 55.5317 38.0564 53.4658C38.0564 51.4 36.3764 49.7248 34.3044 49.7246H20.9041C18.8319 49.7246 17.1522 48.0503 17.1521 45.9844C17.1521 43.9184 18.8319 42.2432 20.9041 42.2432H42.3445C40.2724 42.2432 38.5927 40.5688 38.5925 38.5029C38.5925 36.4369 40.2723 34.7617 42.3445 34.7617H72.8962ZM121.136 64.6885C123.208 64.6887 124.888 66.3638 124.888 68.4297C124.888 70.4953 123.208 72.1697 121.136 72.1699C119.064 72.1699 117.385 70.4955 117.385 68.4297C117.385 66.3637 119.064 64.6885 121.136 64.6885Z" fill="#F4F4F4"/>
<path opacity="0.4" d="M76.8005 25.4761H56.1997C47.2513 25.4761 41.9167 30.8107 41.9167 39.759V60.3352C41.9167 69.3082 47.2513 74.6427 56.1997 74.6427H76.7759C85.7242 74.6427 91.0588 69.3082 91.0588 60.3598V39.759C91.0834 30.8107 85.7488 25.4761 76.8005 25.4761Z" fill="url(#paint0_linear_9161_208216)"/>
<path d="M89.3626 50.625H80.8076C78.3984 50.625 76.2597 51.9525 75.178 54.1158L73.113 58.1967C72.6213 59.18 71.638 59.7946 70.5563 59.7946H62.493C61.7309 59.7946 60.6492 59.6225 59.9363 58.1967L57.8713 54.1404C56.7897 52.0017 54.6263 50.6496 52.2417 50.6496H43.6376C42.6788 50.6496 41.9167 51.4117 41.9167 52.3704V60.3846C41.9167 69.3083 47.2759 74.6429 56.2242 74.6429H76.8251C85.2572 74.6429 90.4442 70.0212 91.0834 61.8104V52.3458C91.0834 51.4117 90.3213 50.625 89.3626 50.625Z" fill="#005F73"/>
<path d="M70.3104 39.7346H62.6896C61.7308 39.7346 60.9688 38.9726 60.9688 38.0138C60.9688 37.0551 61.7308 36.293 62.6896 36.293H70.3104C71.2692 36.293 72.0312 37.0551 72.0312 38.0138C72.0312 38.9726 71.2446 39.7346 70.3104 39.7346Z" fill="#005F73"/>
<path d="M72.2279 46.5935H60.7721C59.8134 46.5935 59.0513 45.8314 59.0513 44.8727C59.0513 43.9139 59.8134 43.1519 60.7721 43.1519H72.2034C73.1621 43.1519 73.9242 43.9139 73.9242 44.8727C73.9242 45.8314 73.1621 46.5935 72.2279 46.5935Z" fill="#005F73"/>
<defs>
<linearGradient id="paint0_linear_9161_208216" x1="43.359" y1="71.9113" x2="112.624" y2="70.1181" gradientUnits="userSpaceOnUse">
<stop stop-color="#005F73"/>
<stop offset="1" stop-color="#6CC24A"/>
</linearGradient>
</defs>
</svg>
