<svg width="112" height="94" viewBox="0 0 112 94" fill="none" xmlns="http://www.w3.org/2000/svg">
<path fill-rule="evenodd" clip-rule="evenodd" d="M92.7362 30.55C94.4681 30.55 95.8722 32.023 95.8722 33.84C95.8722 35.6571 94.4681 37.13 92.7362 37.13H74.8162C76.5481 37.13 77.9522 38.603 77.9522 40.42C77.9522 42.2371 76.5481 43.71 74.8162 43.71H84.6722C86.4041 43.71 87.8082 45.183 87.8082 47C87.8082 48.8171 86.4041 50.2901 84.6722 50.2901H80.1142C77.9305 50.2901 76.1602 51.763 76.1602 53.58C76.1602 54.7914 77.0562 55.8881 78.8482 56.8701C80.5801 56.8701 81.9842 58.343 81.9842 60.1601C81.9842 61.9771 80.5801 63.4501 78.8482 63.4501H41.6642C39.9322 63.4501 38.5282 61.9771 38.5282 60.1601C38.5282 58.343 39.9322 56.8701 41.6642 56.8701H24.1922C22.4602 56.8701 21.0562 55.3971 21.0562 53.58C21.0562 51.763 22.4602 50.2901 24.1922 50.2901H42.1122C43.8441 50.2901 45.2482 48.8171 45.2482 47C45.2482 45.183 43.8441 43.71 42.1122 43.71H30.9122C29.1802 43.71 27.7762 42.2371 27.7762 40.42C27.7762 38.603 29.1802 37.13 30.9122 37.13H48.8322C47.1002 37.13 45.6962 35.6571 45.6962 33.84C45.6962 32.023 47.1002 30.55 48.8322 30.55H92.7362ZM92.7362 43.71C94.4681 43.71 95.8722 45.183 95.8722 47C95.8722 48.8171 94.4681 50.2901 92.7362 50.2901C91.0042 50.2901 89.6002 48.8171 89.6002 47C89.6002 45.183 91.0042 43.71 92.7362 43.71Z" fill="#F4F4F4"/>
<path opacity="0.4" d="M65.6125 24.0874H55.7598C54.6047 24.0874 52.9739 24.7689 52.1585 25.5867L45.1936 32.5721C44.3782 33.3899 43.6987 35.0255 43.6987 36.184V46.0658C43.6987 47.2243 44.3782 48.8599 45.1936 49.6777L52.1585 56.6631C52.9739 57.4809 54.6047 58.1624 55.7598 58.1624H65.6125C66.7677 58.1624 68.3985 57.4809 69.2139 56.6631L76.1787 49.6777C76.9941 48.8599 77.6736 47.2243 77.6736 46.0658V36.184C77.6736 35.0255 76.9941 33.3899 76.1787 32.5721L69.2139 25.5867C68.3985 24.7689 66.7677 24.0874 65.6125 24.0874Z" fill="url(#paint0_linear_12299_325854)"/>
<path d="M45.4314 57.7366C45.1087 57.7366 44.7859 57.6173 44.5311 57.3617C44.0385 56.8676 44.0385 56.0499 44.5311 55.5558L75.0745 24.9223C75.5672 24.4282 76.3826 24.4282 76.8752 24.9223C77.3678 25.4164 77.3678 26.2342 76.8752 26.7283L46.3318 57.3617C46.0939 57.6173 45.7712 57.7366 45.4314 57.7366Z" fill="url(#paint1_linear_12299_325854)"/>
<defs>
<linearGradient id="paint0_linear_12299_325854" x1="44.6958" y1="56.2693" x2="92.5827" y2="55.0327" gradientUnits="userSpaceOnUse">
<stop stop-color="#005F73"/>
<stop offset="1" stop-color="#6CC24A"/>
</linearGradient>
<linearGradient id="paint1_linear_12299_325854" x1="45.1325" y1="55.893" x2="91.7624" y2="54.6889" gradientUnits="userSpaceOnUse">
<stop stop-color="#005F73"/>
<stop offset="1" stop-color="#6CC24A"/>
</linearGradient>
</defs>
</svg>
