<svg width="100" height="80" viewBox="0 0 100 80" fill="none" xmlns="http://www.w3.org/2000/svg">
<path fill-rule="evenodd" clip-rule="evenodd" d="M82.2232 26C83.7581 26 85.0025 27.2536 85.0025 28.8C85.0025 30.3464 83.7581 31.6 82.2232 31.6H66.3417C67.8767 31.6 69.121 32.8536 69.121 34.4C69.121 35.9464 67.8767 37.2 66.3417 37.2H75.0765C76.6115 37.2 77.8558 38.4536 77.8558 40C77.8558 41.5464 76.6115 42.8 75.0765 42.8H71.0371C69.1017 42.8 67.5328 44.0536 67.5328 45.6C67.5328 46.6309 68.3269 47.5643 69.915 48.4C71.45 48.4 72.6943 49.6536 72.6943 51.2C72.6943 52.7464 71.45 54 69.915 54H36.961C35.426 54 34.1817 52.7464 34.1817 51.2C34.1817 49.6536 35.426 48.4 36.961 48.4H21.4765C19.9416 48.4 18.6973 47.1464 18.6973 45.6C18.6973 44.0536 19.9416 42.8 21.4765 42.8H37.358C38.893 42.8 40.1373 41.5464 40.1373 40C40.1373 38.4536 38.893 37.2 37.358 37.2H27.4321C25.8971 37.2 24.6528 35.9464 24.6528 34.4C24.6528 32.8536 25.8971 31.6 27.4321 31.6H43.3136C41.7786 31.6 40.5343 30.3464 40.5343 28.8C40.5343 27.2536 41.7786 26 43.3136 26H82.2232ZM82.2232 37.2C83.7581 37.2 85.0025 38.4536 85.0025 40C85.0025 41.5464 83.7581 42.8 82.2232 42.8C80.6883 42.8 79.4439 41.5464 79.4439 40C79.4439 38.4536 80.6883 37.2 82.2232 37.2Z" fill="#F4F4F4"/>
<path opacity="0.4" d="M66.5747 60.2027H57.3424C52.7161 60.2027 50.4131 57.8997 50.4131 53.2735V38.8492C50.4131 34.223 52.7161 31.9199 57.3424 31.9199H66.5747C71.201 31.9199 73.504 34.223 73.504 38.8492V53.2735C73.504 57.8997 71.201 60.2027 66.5747 60.2027Z" fill="url(#paint0_linear_6926_164896)"/>
<path d="M56.1905 26.7281V29.4352C50.8976 29.8594 47.8875 33.2534 47.8875 38.8493V48.0817H40.0289C35.4026 48.0817 33.0996 45.7786 33.0996 41.1524V26.7281C33.0996 22.1019 35.4026 19.7988 40.0289 19.7988H49.2612C53.8875 19.7988 56.1905 22.1019 56.1905 26.7281Z" fill="url(#paint1_linear_6926_164896)"/>
<path d="M65.686 44.5449H63.9082V42.7671C63.9082 41.9388 63.2213 41.252 62.393 41.252C61.5648 41.252 60.8779 41.9388 60.8779 42.7671V44.5449H59.1001C58.2718 44.5449 57.585 45.2318 57.585 46.06C57.585 46.8883 58.2718 47.5752 59.1001 47.5752H60.8779V49.353C60.8779 50.1812 61.5648 50.8681 62.393 50.8681C63.2213 50.8681 63.9082 50.1812 63.9082 49.353V47.5752H65.686C66.5143 47.5752 67.2011 46.8883 67.2011 46.06C67.2011 45.2318 66.5143 44.5449 65.686 44.5449Z" fill="url(#paint2_linear_6926_164896)"/>
<defs>
<linearGradient id="paint0_linear_6926_164896" x1="51.0908" y1="58.6315" x2="83.644" y2="57.9431" gradientUnits="userSpaceOnUse">
<stop stop-color="#005F73"/>
<stop offset="1" stop-color="#6CC24A"/>
</linearGradient>
<linearGradient id="paint1_linear_6926_164896" x1="33.7773" y1="46.5104" x2="66.3306" y2="45.822" gradientUnits="userSpaceOnUse">
<stop stop-color="#005F73"/>
<stop offset="1" stop-color="#6CC24A"/>
</linearGradient>
<linearGradient id="paint2_linear_6926_164896" x1="57.8672" y1="50.3339" x2="71.4209" y2="49.9828" gradientUnits="userSpaceOnUse">
<stop stop-color="#005F73"/>
<stop offset="1" stop-color="#6CC24A"/>
</linearGradient>
</defs>
</svg>
