<svg width="115" height="92" viewBox="0 0 115 92" fill="none" xmlns="http://www.w3.org/2000/svg">
<path fill-rule="evenodd" clip-rule="evenodd" d="M95.2201 29.8999C96.9985 29.8999 98.4401 31.3415 98.4401 33.1199C98.4401 34.8983 96.9985 36.3399 95.2201 36.3399H76.8201C78.5985 36.3399 80.0401 37.7815 80.0401 39.5599C80.0401 41.3383 78.5985 42.7799 76.8201 42.7799H86.9401C88.7185 42.7799 90.1601 44.2215 90.1601 45.9999C90.1601 47.7783 88.7185 49.2199 86.9401 49.2199H82.2601C80.0178 49.2199 78.2001 50.6615 78.2001 52.4399C78.2001 53.6255 79.1201 54.6988 80.9601 55.6599C82.7385 55.6599 84.1801 57.1015 84.1801 58.8799C84.1801 60.6583 82.7385 62.0999 80.9601 62.0999H42.7801C41.0018 62.0999 39.5601 60.6583 39.5601 58.8799C39.5601 57.1015 41.0018 55.6599 42.7801 55.6599H24.8401C23.0618 55.6599 21.6201 54.2183 21.6201 52.4399C21.6201 50.6615 23.0618 49.2199 24.8401 49.2199H43.2401C45.0185 49.2199 46.4601 47.7783 46.4601 45.9999C46.4601 44.2215 45.0185 42.7799 43.2401 42.7799H31.7401C29.9618 42.7799 28.5201 41.3383 28.5201 39.5599C28.5201 37.7815 29.9618 36.3399 31.7401 36.3399H50.1401C48.3618 36.3399 46.9201 34.8983 46.9201 33.1199C46.9201 31.3415 48.3618 29.8999 50.1401 29.8999H95.2201ZM95.2201 42.7799C96.9985 42.7799 98.4401 44.2215 98.4401 45.9999C98.4401 47.7783 96.9985 49.2199 95.2201 49.2199C93.4418 49.2199 92.0001 47.7783 92.0001 45.9999C92.0001 44.2215 93.4418 42.7799 95.2201 42.7799Z" fill="#F4F4F4"/>
<path opacity="0.4" d="M80.0257 41.4552L77.9582 50.2087C76.186 57.7685 72.6837 60.826 66.1013 60.1977C65.0464 60.1139 63.9071 59.9255 62.6835 59.6323L59.1391 58.7946C50.3413 56.7214 47.6197 52.4075 49.6873 43.654L51.7549 34.8796C52.1768 33.0996 52.6832 31.5499 53.3161 30.2725C55.7845 25.2047 59.983 23.8435 67.0296 25.4979L70.5529 26.3146C79.3928 28.3668 82.0933 32.7017 80.0257 41.4552Z" fill="url(#paint0_linear_12146_303413)"/>
<path d="M66.1016 60.1979C64.7936 61.0774 63.148 61.8104 61.1437 62.4596L57.8103 63.5485C49.4345 66.229 45.0251 63.9883 42.3035 55.6746L39.603 47.4027C36.9025 39.089 39.1389 34.6913 47.5146 32.0108L50.848 30.9219C51.713 30.6496 52.5359 30.4193 53.3165 30.2727C52.6835 31.5501 52.1772 33.0998 51.7552 34.8798L49.6877 43.6542C47.6201 52.4077 50.3417 56.7216 59.1394 58.7948L62.6838 59.6325C63.9075 59.9257 65.0468 60.1141 66.1016 60.1979Z" fill="url(#paint1_linear_12146_303413)"/>
<defs>
<linearGradient id="paint0_linear_12146_303413" x1="49.9593" y1="58.3083" x2="94.5815" y2="57.2762" gradientUnits="userSpaceOnUse">
<stop stop-color="#005F73"/>
<stop offset="1" stop-color="#6CC24A"/>
</linearGradient>
<linearGradient id="paint1_linear_12146_303413" x1="39.3281" y1="62.7131" x2="78.2149" y2="61.9042" gradientUnits="userSpaceOnUse">
<stop stop-color="#005F73"/>
<stop offset="1" stop-color="#6CC24A"/>
</linearGradient>
</defs>
</svg>
