<svg width="241" height="150" viewBox="0 0 241 150" fill="none" xmlns="http://www.w3.org/2000/svg">
<g opacity="0.8">
<path d="M90.484 142.985C88.5675 138.638 85.1492 135.126 80.8552 133.094C76.5933 131.099 67.0901 132.018 67.0901 132.018L42.1143 131.964C42.6273 134.159 44.2667 139.792 45.4685 141.686C46.6703 143.58 48.482 145.18 50.6488 145.794C53.3 146.543 56.1089 145.768 58.8605 145.589C63.7 145.277 68.4354 146.841 73.0956 148.186C77.7557 149.532 82.7028 150.672 87.4167 149.532C88.7548 149.205 90.1575 148.61 90.8068 147.397C91.5279 146.059 91.0831 144.391 90.484 142.985Z" fill="#E0E0E0"/>
<path d="M13.7944 54.4461C13.7944 54.4461 10.9532 54.2416 11.215 60.6129C11.4769 66.9842 12.1263 70.3815 12.1263 70.3815C12.1263 70.3815 12.0437 71.7914 10.9496 71.5152C9.8554 71.239 7.7962 69.865 6.77736 70.9089C5.75852 71.9529 6.09933 73.6103 7.49485 75.5367C8.89037 77.4632 11.7998 81.7933 12.0653 82.1879C12.3307 82.5825 12.424 83.2964 11.6491 83.2246C10.8742 83.1529 5.63655 81.3807 4.94417 83.917C4.25179 86.4534 9.02669 91.178 9.5397 91.7054C10.0527 92.2328 10.0814 92.5628 9.87334 92.8821C9.66526 93.2014 7.96122 92.4372 6.4509 91.996C4.94058 91.5547 3.11456 91.2821 2.83115 92.7924C2.54775 94.3027 4.65717 98.6687 12.5388 103.268L16.3308 105.162L19.9182 102.873C27.2976 97.492 28.955 92.9395 28.5281 91.4794C28.1012 90.0193 26.3075 90.4498 24.851 91.0417C23.3945 91.6337 21.7729 92.5628 21.5362 92.2686C21.2994 91.9745 21.2922 91.6372 21.7478 91.0632C22.2034 90.4893 26.4869 85.3233 25.5434 82.8551C24.5999 80.387 19.5666 82.6901 18.8025 82.8372C18.0384 82.9843 18.085 82.256 18.2859 81.8471C18.4868 81.4381 20.9658 76.8246 22.1676 74.7726C23.3694 72.7206 23.5738 71.0488 22.4187 70.1089C21.2635 69.169 19.3945 70.7618 18.3326 71.1493C17.2707 71.5367 17.0483 70.134 17.0483 70.134C17.0483 70.134 17.3532 66.6936 16.9765 60.3259C16.5998 53.9582 13.7263 54.4748 13.7263 54.4748" fill="#EBEBEB"/>
<path d="M14.021 60.1465C14.021 60.1465 14.021 60.1895 14.021 60.2792C14.021 60.3689 14.021 60.5016 14.0497 60.6703C14.0748 61.029 14.1071 61.5241 14.1537 62.1734C14.2398 63.4828 14.351 65.3734 14.4802 67.7124C14.7421 72.3761 15.0434 78.8515 15.3555 85.9905C15.6676 93.1296 15.9546 99.5978 16.1878 104.287C16.3062 106.622 16.403 108.513 16.4712 109.826C16.5035 110.475 16.5286 110.981 16.5465 111.332C16.5465 111.501 16.5465 111.63 16.5465 111.723C16.5489 111.769 16.5489 111.814 16.5465 111.86C16.5465 111.86 16.5465 111.813 16.5465 111.727C16.5465 111.641 16.5465 111.501 16.5178 111.336C16.4927 110.977 16.4569 110.479 16.4138 109.829C16.3277 108.523 16.2165 106.633 16.0873 104.294C15.8255 99.6301 15.5241 93.1511 15.212 85.9977C14.8999 78.8443 14.6129 72.3941 14.3797 67.7017C14.2577 65.3698 14.1645 63.4792 14.0963 62.1626C14.064 61.5133 14.0389 61.0075 14.021 60.6559C14.021 60.4909 14.021 60.3581 14.021 60.2649C14.0191 60.2254 14.0191 60.1859 14.021 60.1465Z" fill="#E0E0E0"/>
<path d="M9.58301 72.9316C9.66891 72.9857 9.74731 73.0508 9.81619 73.1254C9.96328 73.2581 10.1749 73.4554 10.4189 73.7029C10.9211 74.2016 11.592 74.9012 12.3202 75.694L14.175 77.7245L14.7382 78.3379C14.8143 78.4063 14.8807 78.4847 14.9355 78.5711C14.8488 78.5167 14.7692 78.4517 14.6987 78.3774C14.5552 78.2447 14.34 78.0474 14.0996 77.7962C13.6046 77.294 12.9409 76.5837 12.2126 75.7944L10.3651 73.7783C10.1391 73.5415 9.95252 73.337 9.79467 73.1684C9.71355 73.0996 9.64232 73.0199 9.58301 72.9316Z" fill="#E0E0E0"/>
<path d="M15.312 78.4443C15.2833 78.4156 16.6716 76.9663 18.4079 75.2156C20.1443 73.4649 21.5828 72.0479 21.6115 72.0766C21.6402 72.1053 20.2519 73.5546 18.512 75.3053C16.7721 77.056 15.3407 78.473 15.312 78.4443Z" fill="#E0E0E0"/>
<path d="M15.2979 89.4303C15.38 89.3647 15.469 89.3082 15.5633 89.2617L16.3023 88.8455C16.9301 88.4868 17.7911 88.0061 18.7239 87.4321C19.6566 86.8581 20.4853 86.3164 21.0808 85.9146L21.7983 85.4446C21.881 85.3799 21.9714 85.3257 22.0674 85.2832C21.9974 85.3621 21.9178 85.432 21.8306 85.4913C21.6728 85.6132 21.4396 85.789 21.149 86.0007C20.5642 86.424 19.7427 86.9837 18.8064 87.5577C17.8701 88.1316 17.0127 88.6088 16.3597 88.9352C16.0405 89.1003 15.7786 89.2294 15.5956 89.3119C15.5024 89.3651 15.4022 89.405 15.2979 89.4303Z" fill="#E0E0E0"/>
<path d="M9.0166 85.5859C9.10814 85.6168 9.19597 85.6577 9.27849 85.7079L9.96728 86.0918C10.5449 86.4182 11.3341 86.881 12.2059 87.3976C13.0776 87.9142 13.8597 88.3913 14.4229 88.7429C14.7063 88.9187 14.9323 89.0622 15.0902 89.1662C15.1741 89.2134 15.2523 89.2699 15.3234 89.3348C15.2294 89.3073 15.14 89.2662 15.0579 89.2129L14.3727 88.8469C13.7951 88.5169 13.0023 88.0577 12.1305 87.5375C11.2588 87.0173 10.4767 86.5438 9.91347 86.1958C9.63006 86.02 9.40405 85.8765 9.24979 85.7725C9.16438 85.7206 9.08601 85.6579 9.0166 85.5859Z" fill="#E0E0E0"/>
<path d="M7.77148 95.3027C7.88871 95.3431 8.00071 95.3973 8.10512 95.4642L8.98763 95.9485C9.72665 96.3646 10.7491 96.9494 11.8576 97.6023C12.9661 98.2552 14.0101 98.8543 14.7276 99.292L15.5886 99.8193C15.6971 99.8795 15.7992 99.9504 15.8935 100.031C15.778 99.9866 15.6663 99.9326 15.5599 99.8696L14.6702 99.3637C13.9276 98.9476 12.9087 98.3628 11.8002 97.7099C10.6917 97.057 9.64773 96.4579 8.93023 96.0202L8.07283 95.4929C7.96632 95.4396 7.86537 95.376 7.77148 95.3027Z" fill="#E0E0E0"/>
<path d="M15.7471 99.8459C15.8487 99.76 15.9593 99.6854 16.0771 99.6235L16.9991 99.0639C17.774 98.5903 18.8466 97.9302 20.0126 97.1733C21.1785 96.4163 22.2117 95.7024 22.9615 95.1822L23.8476 94.5652C23.9517 94.4841 24.0634 94.4132 24.1812 94.3535C24.0899 94.4498 23.9889 94.5364 23.8798 94.6118C23.6789 94.7697 23.3884 94.9921 23.0188 95.2647C22.3014 95.8064 21.2574 96.5347 20.0915 97.2952C18.9256 98.0558 17.8421 98.7015 17.0493 99.1535C16.6511 99.376 16.3318 99.5553 16.1022 99.6737C15.989 99.7412 15.8702 99.7988 15.7471 99.8459Z" fill="#E0E0E0"/>
<path d="M21.4321 106.391H10.9424L14.3684 132.306H18.0097L21.4321 106.391Z" fill="#E0E0E0"/>
<path d="M11.4873 109.576C11.4873 109.576 11.4873 109.611 11.5447 109.669C11.6129 109.748 11.699 109.809 11.7958 109.848C11.9788 109.911 12.1738 109.932 12.3659 109.908C12.558 109.885 12.7422 109.818 12.9044 109.712C13.3277 109.479 13.6972 109.019 14.264 108.819C14.8934 108.616 15.5726 108.628 16.1941 108.854C16.8247 109.072 17.4269 109.365 17.9878 109.726C18.4578 110.019 18.9468 110.28 19.4515 110.508C19.7937 110.663 20.156 110.768 20.5277 110.82C20.6286 110.836 20.7306 110.843 20.8326 110.842C20.9008 110.842 20.9367 110.842 20.9367 110.842C20.4408 110.765 19.9579 110.62 19.5017 110.411C19.0082 110.169 18.5291 109.898 18.0667 109.601C17.4986 109.225 16.885 108.924 16.2407 108.704C15.5836 108.466 14.865 108.458 14.203 108.682C13.9232 108.796 13.6648 108.956 13.4389 109.156C13.2488 109.324 13.0474 109.478 12.8362 109.619C12.6894 109.72 12.5223 109.789 12.3464 109.82C12.1705 109.851 11.9901 109.843 11.8174 109.798C11.6945 109.745 11.5825 109.67 11.4873 109.576Z" fill="#F5F5F5"/>
<path d="M11.8709 114.345C11.8709 114.345 11.9534 114.241 12.1185 114.069C12.3555 113.834 12.6407 113.652 12.9543 113.538C13.4217 113.369 13.918 113.294 14.4144 113.319C15.0265 113.363 15.6352 113.446 16.2369 113.567C16.8527 113.684 17.4824 113.711 18.1059 113.645C18.6148 113.58 19.1107 113.437 19.5768 113.222C19.891 113.082 20.1882 112.906 20.4629 112.698C20.5687 112.63 20.6631 112.545 20.7427 112.447C20.3551 112.699 19.9499 112.922 19.5301 113.115C19.0702 113.298 18.5875 113.419 18.0952 113.473C17.4865 113.529 16.873 113.499 16.2727 113.384C15.663 113.263 15.0457 113.184 14.4252 113.147C13.9087 113.128 13.3941 113.219 12.9149 113.412C12.591 113.54 12.3029 113.744 12.0754 114.008C12.0155 114.08 11.9626 114.158 11.9176 114.241C11.8781 114.316 11.8637 114.345 11.8709 114.345Z" fill="#F5F5F5"/>
<path d="M20.2451 116.905C20.1586 116.837 20.06 116.786 19.9545 116.754C19.6761 116.649 19.3834 116.586 19.0863 116.568C18.6472 116.54 18.2064 116.566 17.7733 116.643C17.2818 116.722 16.7581 116.858 16.2092 116.973C15.6969 117.095 15.1716 117.154 14.645 117.149C14.2195 117.139 13.7997 117.049 13.4074 116.884C13.0456 116.714 12.724 116.469 12.4639 116.166C12.5034 116.27 12.5645 116.364 12.6432 116.442C12.843 116.668 13.0873 116.85 13.3607 116.977C13.7633 117.167 14.2001 117.275 14.645 117.292C15.1845 117.308 15.7236 117.252 16.2486 117.127C16.8083 117.009 17.3249 116.869 17.8056 116.769C18.2275 116.687 18.6568 116.651 19.0863 116.661C19.4813 116.694 19.8705 116.776 20.2451 116.905Z" fill="#F5F5F5"/>
<path d="M12.798 120.499C13.1185 120.359 13.4746 120.322 13.8168 120.395C14.1896 120.486 14.5507 120.619 14.893 120.793C15.3274 121 15.795 121.129 16.2742 121.173C17.1518 121.251 18.0315 121.048 18.7854 120.592C19.01 120.454 19.2193 120.293 19.4097 120.111C19.5388 119.975 19.6034 119.896 19.5926 119.889C19.3158 120.106 19.0258 120.306 18.7244 120.488C17.9816 120.894 17.136 121.073 16.2921 121.004C15.2984 120.947 14.5343 120.355 13.8455 120.287C13.581 120.241 13.309 120.264 13.0563 120.355C12.8769 120.416 12.7944 120.491 12.798 120.499Z" fill="#F5F5F5"/>
<path d="M13.3809 125.471C13.682 125.481 13.9813 125.422 14.2562 125.299C14.7836 125.123 15.4365 124.718 16.197 124.416C16.5513 124.27 16.9296 124.191 17.3127 124.183C17.6234 124.182 17.9302 124.252 18.2096 124.388C18.4637 124.523 18.6843 124.713 18.8553 124.944C18.8407 124.864 18.8061 124.788 18.7549 124.725C18.6276 124.538 18.4564 124.385 18.2562 124.28C17.9648 124.119 17.6384 124.032 17.3056 124.025C16.9022 124.026 16.5027 124.104 16.1289 124.255C15.3396 124.571 14.6939 124.972 14.2024 125.184C13.7109 125.396 13.3773 125.439 13.3809 125.471Z" fill="#F5F5F5"/>
<path d="M13.8945 127.786C14.1041 127.89 14.3277 127.964 14.5582 128.005C15.1054 128.133 15.6602 128.227 16.2192 128.285C16.7783 128.339 17.3405 128.354 17.9017 128.331C18.1364 128.336 18.3706 128.308 18.5977 128.249C18.5977 128.199 17.5215 128.249 16.2371 128.113C14.9528 127.976 13.9089 127.736 13.8945 127.786Z" fill="#F5F5F5"/>
<path d="M209.382 62.5984L177.482 69.8867L182.395 91.3883L214.294 84.1L209.382 62.5984Z" fill="#F5F5F5"/>
<path d="M209.548 62.8223C209.482 62.9491 209.404 63.0693 209.315 63.181L208.597 64.1604L205.939 67.7478C203.654 70.7757 200.525 74.9228 197.056 79.5147L196.985 79.6116L196.873 79.5578L196.611 79.4322L183.169 72.903L179.108 70.8976L178.032 70.338C177.9 70.278 177.774 70.206 177.655 70.1227C177.794 70.1646 177.928 70.2186 178.057 70.2842L179.176 70.7936L183.28 72.7021L196.758 79.1595L197.024 79.2887L196.841 79.3318C200.335 74.7613 203.489 70.6322 205.81 67.6187C206.947 66.1478 207.876 64.9532 208.543 64.0958L209.297 63.1487C209.369 63.0317 209.453 62.9223 209.548 62.8223Z" fill="#E0E0E0"/>
<path d="M182.563 91.6169C182.491 91.5774 184.217 88.0832 186.416 83.8106C188.615 79.5379 190.462 76.1011 190.534 76.137C190.606 76.1729 188.88 79.6706 186.681 83.9469C184.482 88.2231 182.631 91.6528 182.563 91.6169Z" fill="#E0E0E0"/>
<path d="M201.074 73.4446C201.124 73.3801 204.163 75.7657 207.861 78.7684C211.56 81.7711 214.513 84.2608 214.459 84.3254C214.405 84.39 211.37 82.0043 207.671 78.998C203.973 75.9917 201.02 73.5092 201.074 73.4446Z" fill="#E0E0E0"/>
<path d="M67.2799 4.13345L64.3545 16.8047L83.1534 21.1447L86.0787 8.47351L67.2799 4.13345Z" fill="#F5F5F5"/>
<path d="M86.1108 8.64551C86.0429 8.69477 85.9709 8.73798 85.8955 8.77466L85.2677 9.11188L82.9359 10.3244L75.1977 14.2706L75.1332 14.3029L75.0865 14.2491L74.9789 14.1128L69.5295 7.20335L67.8937 5.09034L67.456 4.51276C67.4 4.4494 67.3518 4.37955 67.3125 4.30469C67.3744 4.36142 67.4309 4.42388 67.4811 4.49124L67.9475 5.05088L69.6264 7.12443L75.1188 14.0159L75.2264 14.1487L75.1188 14.1271L82.8785 10.2168L85.2354 9.0509L85.8812 8.74237C85.954 8.70195 86.031 8.66948 86.1108 8.64551Z" fill="#E0E0E0"/>
<path d="M64.3851 16.9769C64.3564 16.9375 66.1788 15.5419 68.4389 13.8271C70.699 12.1123 72.5681 10.7778 72.5968 10.8173C72.6255 10.8567 70.8031 12.2522 68.543 13.967C66.2829 15.6819 64.4138 17.0164 64.3851 16.9769Z" fill="#E0E0E0"/>
<path d="M78.8855 12.0998C78.9285 12.0783 79.9294 14.1267 81.1169 16.6702C82.3043 19.2137 83.2299 21.2944 83.1868 21.3339C83.1438 21.3734 82.1465 19.307 80.959 16.7635C79.7716 14.22 78.8388 12.1177 78.8855 12.0998Z" fill="#E0E0E0"/>
<path d="M186.448 7.3158L172.713 13.2168L176.691 22.4756L190.426 16.5746L186.448 7.3158Z" fill="#F5F5F5"/>
<path d="M186.537 7.41211C186.517 7.4726 186.492 7.53137 186.462 7.58789L186.225 8.08655C186.006 8.5314 185.698 9.16279 185.325 9.91616L182.3 15.9359L182.275 15.9861H182.221L182.092 15.9538L175.516 14.1242L173.525 13.5108L172.987 13.3494L172.801 13.2848C172.867 13.291 172.932 13.3042 172.995 13.3242L173.54 13.4606L175.542 13.9879L182.128 15.7817L182.257 15.8175L182.182 15.8534C183.373 13.5108 184.453 11.3942 185.239 9.85158C185.63 9.09822 185.956 8.48117 186.178 8.05785L186.437 7.56996C186.465 7.51393 186.498 7.46102 186.537 7.41211Z" fill="#E0E0E0"/>
<path d="M176.78 22.5543C176.744 22.5543 177.232 20.8287 177.856 18.7265C178.481 16.6242 179.055 14.9453 179.091 14.9453C179.126 14.9453 178.638 16.6673 178.014 18.7695C177.39 20.8718 176.823 22.5651 176.78 22.5543Z" fill="#E0E0E0"/>
<path d="M183.603 12.8644C183.621 12.8285 185.185 13.6501 187.093 14.6976C189.002 15.7451 190.534 16.6169 190.516 16.6492C190.498 16.6815 188.937 15.8635 187.029 14.816C185.12 13.7685 183.585 12.8967 183.603 12.8644Z" fill="#E0E0E0"/>
<path d="M204.633 100.96C203.166 100.037 201.506 99.4643 199.782 99.2849C198.99 99.206 198.121 99.2275 197.483 99.7082C197.41 99.7514 197.35 99.8129 197.309 99.8866C197.267 99.9602 197.246 100.043 197.246 100.128C197.286 100.247 197.366 100.349 197.472 100.415C198.504 101.152 199.719 101.592 200.984 101.689C202.248 101.785 203.515 101.533 204.647 100.96" fill="url(#paint0_linear_9433_199270)"/>
<path d="M204.507 100.819C203.382 99.9925 202.331 99.0681 201.368 98.0566C200.401 97.0403 199.723 95.7847 199.402 94.419C199.338 94.2166 199.319 94.0027 199.346 93.7921C199.372 93.5816 199.444 93.3793 199.557 93.1992C202.068 95.1544 204.023 97.6835 204.507 100.819Z" fill="url(#paint1_linear_9433_199270)"/>
<path d="M204.607 100.937C204.373 99.5726 204.393 98.1765 204.665 96.8189C204.944 95.4498 205.728 94.2357 206.86 93.418C207.291 94.426 207.108 95.592 206.803 96.6467C206.331 98.2832 205.596 99.8318 204.625 101.231" fill="url(#paint2_linear_9433_199270)"/>
<path d="M207.061 105.35C205.569 105.533 204.274 106.318 203.161 107.323C202.044 108.34 201.266 109.676 200.934 111.151C202.394 111.061 203.631 110.031 204.521 108.876C205.411 107.721 206.042 106.455 207.032 105.375" fill="url(#paint3_linear_9433_199270)"/>
<path d="M207.592 106.034C207.006 104.546 206.801 102.936 206.995 101.348C207.188 99.761 207.774 98.247 208.7 96.9434C209.55 99.9604 209.238 103.368 207.592 106.034Z" fill="url(#paint4_linear_9433_199270)"/>
<path d="M210.832 109.896C209.471 109.813 208.116 110.131 206.935 110.812C205.753 111.492 204.798 112.505 204.188 113.724C204.134 113.798 204.102 113.886 204.094 113.977C204.086 114.069 204.102 114.161 204.141 114.244C204.199 114.299 204.269 114.34 204.346 114.363C204.423 114.385 204.504 114.389 204.582 114.373C205.892 114.287 207.054 113.501 208.012 112.604C208.97 111.707 209.806 110.667 210.864 109.892" fill="url(#paint5_linear_9433_199270)"/>
<path d="M210.731 109.687C210.032 107.441 209.989 105.041 210.606 102.771C210.85 101.881 211.259 100.945 212.08 100.525C212.147 100.483 212.229 100.468 212.306 100.486C212.373 100.521 212.424 100.58 212.45 100.651C212.731 101.272 212.854 101.954 212.808 102.635C212.761 103.312 212.658 103.983 212.5 104.643C212.238 105.87 212.102 107.191 211.424 108.249C211.265 108.504 211.123 108.769 210.997 109.042C210.868 109.311 210.868 109.4 210.753 109.619" fill="url(#paint6_linear_9433_199270)"/>
<path d="M219.308 110.965C218.673 108.547 219.348 105.616 220.872 103.632C220.984 103.489 221.131 103.331 221.314 103.349C221.597 103.374 221.672 103.747 221.672 104.031C221.558 106.517 220.745 108.92 219.326 110.965" fill="url(#paint7_linear_9433_199270)"/>
<path d="M220.084 111.491C221.585 111.842 223.145 111.864 224.656 111.554C226.166 111.244 227.592 110.611 228.834 109.697C227.369 108.962 225.694 108.757 224.095 109.116C222.513 109.475 221.067 110.192 220.084 111.476" fill="url(#paint8_linear_9433_199270)"/>
<path d="M220.732 109.881C222.379 107.201 225.532 105.45 228.675 105.289C228.316 106.57 227.262 107.564 226.078 108.159C224.865 108.712 223.582 109.094 222.264 109.296C221.758 109.393 221.062 109.501 220.732 109.899" fill="url(#paint9_linear_9433_199270)"/>
<path d="M219.474 102.071C219.973 100.556 220.314 98.9929 220.49 97.4074C220.664 95.814 220.339 94.2057 219.561 92.8047C218.025 95.7787 217.871 99.2621 219.428 102.218" fill="url(#paint10_linear_9433_199270)"/>
<path d="M224.647 99.4554C226.441 96.1908 230.111 93.5827 233.821 93.2168C232.386 96.7791 228.486 99.5343 224.647 99.4554Z" fill="url(#paint11_linear_9433_199270)"/>
<path d="M223.514 100.097C226.197 100.502 228.479 102.217 230.983 103.254C231.508 103.507 232.091 103.619 232.672 103.577C232.943 103.574 233.206 103.488 233.427 103.33C233.647 103.173 233.813 102.951 233.903 102.696C233.993 102.441 234.003 102.164 233.93 101.903C233.857 101.642 233.706 101.41 233.498 101.238C233.144 100.911 232.728 100.658 232.274 100.495C229.544 99.358 226.62 99.3293 223.747 100.018" fill="url(#paint12_linear_9433_199270)"/>
<path d="M221.963 101.978C222.569 102.151 222.777 102.466 223.258 102.875C224.897 104.269 226.835 105.265 228.923 105.785C229.138 105.839 229.421 105.857 229.529 105.663C229.636 105.469 229.504 105.286 229.382 105.132C228.47 104.066 227.29 103.265 225.963 102.811C224.657 102.326 223.523 101.735 221.963 101.864" fill="url(#paint13_linear_9433_199270)"/>
<path d="M220.23 90.6399C221.329 91.6531 222.629 92.4252 224.044 92.9065C225.459 93.3878 226.96 93.5676 228.449 93.4346C228.581 93.4344 228.708 93.3874 228.808 93.3018C229.016 93.0758 228.765 92.7278 228.524 92.5413C226.11 90.6579 223.183 89.8758 220.216 90.6399" fill="url(#paint14_linear_9433_199270)"/>
<path d="M222.291 89.8635C223.746 88.7936 225.433 88.0828 227.215 87.7892C228.996 87.4955 230.822 87.6273 232.544 88.1738C231.203 89.4193 229.482 90.1775 227.658 90.3263C225.851 90.4909 224.03 90.3367 222.276 89.8707" fill="url(#paint15_linear_9433_199270)"/>
<path d="M221.465 84.647C221.228 82.2363 221.382 80.3421 221.214 77.9098C221.214 77.7161 221.16 77.4829 220.977 77.4147C220.726 77.3178 220.514 77.6264 220.432 77.8847C220.081 79.0075 219.992 80.1955 220.17 81.358C220.349 82.5206 220.79 83.6271 221.461 84.5932" fill="url(#paint16_linear_9433_199270)"/>
<path d="M221.308 84.9009C222.883 83.8846 224.24 82.5651 225.3 81.0193C226.09 79.9431 226.735 78.648 226.574 77.3242C226.02 77.341 225.477 77.478 224.981 77.7258C224.486 77.9736 224.05 78.3262 223.704 78.7592C223.016 79.631 222.516 80.6364 222.237 81.7117C221.917 82.7879 221.691 83.8642 221.318 84.9045" fill="url(#paint17_linear_9433_199270)"/>
<path d="M225.214 83.8241C228.81 82.4924 232.139 80.5292 235.044 78.0268C233.871 77.5532 232.533 77.8366 231.352 78.3102C228.688 79.3199 226.486 81.2715 225.164 83.7954" fill="url(#paint18_linear_9433_199270)"/>
<path d="M222.383 86.2326C224.192 86.4896 226.028 86.4992 227.839 86.2613C229.612 85.9635 231.283 85.2639 232.937 84.568C233.087 84.53 233.216 84.4347 233.296 84.3025C233.322 84.2263 233.324 84.144 233.302 84.0665C233.28 83.989 233.236 83.92 233.174 83.8684C233.046 83.7685 232.898 83.6986 232.74 83.6639C230.946 83.1617 229.002 83.3985 227.233 83.994C225.543 84.569 223.917 85.3192 222.383 86.2326Z" fill="url(#paint19_linear_9433_199270)"/>
<path d="M212.033 90.7061C210.795 88.1948 210.874 85.2926 211.943 82.7168C212.697 83.8612 212.79 85.3249 212.661 86.6881C212.532 88.0514 212.108 89.4576 212.083 90.8316" fill="url(#paint20_linear_9433_199270)"/>
<path d="M207.086 88.212C205.537 88.1904 204 88.493 202.574 89.1003C201.148 89.7076 199.865 90.6062 198.807 91.7385C200.368 91.927 201.95 91.6341 203.341 90.899C204.721 90.1662 206.023 89.2947 207.226 88.2981" fill="url(#paint21_linear_9433_199270)"/>
<path d="M203.765 87.0993C202.251 86.9774 200.798 86.7872 199.341 87.2357C198.606 87.4432 197.925 87.807 197.343 88.3024C196.762 88.7977 196.294 89.4128 195.973 90.1056C197.399 90.2207 198.83 89.9506 200.116 89.3235C201.395 88.6962 202.616 87.9567 203.765 87.1137" fill="url(#paint22_linear_9433_199270)"/>
<path d="M208.687 87.1493C207.327 86.256 205.928 85.3555 204.346 84.9968C202.764 84.638 200.927 84.8999 199.822 86.073C201.103 86.8264 202.66 86.9161 204.127 86.9161C205.594 86.9161 207.438 86.8982 208.838 87.3932" fill="url(#paint23_linear_9433_199270)"/>
<path d="M208.695 87.2216C206.37 84.9364 205.488 80.8359 206.424 77.7148C208.259 80.525 209.062 83.8853 208.695 87.2216Z" fill="url(#paint24_linear_9433_199270)"/>
<path d="M215.09 80.7507C215.528 79.7319 215.836 78.6628 216.227 77.626C216.589 76.5774 217.141 75.6045 217.856 74.7561C218.58 73.9017 219.61 73.3658 220.726 73.2637C220.369 74.8395 219.687 76.3235 218.724 77.6207C217.761 78.918 216.538 79.9999 215.133 80.7973" fill="url(#paint25_linear_9433_199270)"/>
<path d="M213.932 82.0999C213.215 81.1026 212.368 79.7465 211.385 79.0003C210.402 78.2541 209.118 77.8021 207.916 78.0891C208.538 79.1794 209.406 80.1096 210.45 80.8058C211.494 81.5021 212.687 81.9452 213.932 82.0999Z" fill="url(#paint26_linear_9433_199270)"/>
<path d="M214.164 80.836C213.641 79.6449 213.256 78.398 213.016 77.1194C212.777 75.8307 212.982 74.4989 213.598 73.3418C214.875 75.7562 215.284 78.3642 214.229 80.8755" fill="url(#paint27_linear_9433_199270)"/>
<path d="M215.102 73.3431C215.819 70.9502 218.015 69.1888 220.379 68.3816C220.672 68.2626 220.989 68.2147 221.304 68.2417C221.461 68.2592 221.61 68.3226 221.731 68.4241C221.852 68.5256 221.941 68.6605 221.986 68.8121C222.072 69.2175 221.738 69.5834 221.419 69.8525C219.571 71.4313 217.422 72.6188 215.102 73.3431Z" fill="url(#paint28_linear_9433_199270)"/>
<path d="M215.126 71.3872C215.219 69.8445 215.316 68.2804 215.815 66.8167C216.313 65.353 217.286 63.9862 218.685 63.3477C218.925 64.9046 218.236 66.4544 217.408 67.7925C216.579 69.1306 215.578 70.4006 215.083 71.893" fill="url(#paint29_linear_9433_199270)"/>
<path d="M215.09 72.448C214.49 70.7045 214.429 68.5018 213.386 66.97C212.668 65.8937 211.488 65.1762 210.874 64.0605C210.497 65.1399 210.55 66.3231 211.021 67.3646C211.497 68.3927 212.152 69.328 212.955 70.1269C213.726 70.9521 214.39 71.5619 215.108 72.448" fill="url(#paint30_linear_9433_199270)"/>
<path d="M215.101 123.786C215.054 123.786 215.015 112.159 215.011 97.8166C215.007 83.474 215.043 71.8398 215.09 71.8398C215.137 71.8398 215.176 83.4668 215.18 97.8166C215.183 112.166 215.147 123.786 215.101 123.786Z" fill="#263238"/>
<path d="M225.254 88.9512C225.113 89.0186 224.966 89.0738 224.816 89.1162L223.611 89.5216C222.599 89.8803 221.203 90.3682 219.689 90.9853C218.176 91.6023 216.78 92.1512 215.976 92.8471C215.655 93.1158 215.4 93.4545 215.23 93.8373C215.115 94.1099 215.094 94.275 215.08 94.2714C215.065 94.2678 215.08 94.2319 215.08 94.1494C215.098 94.0345 215.126 93.9216 215.166 93.8122C215.314 93.4078 215.561 93.0466 215.883 92.7611C216.368 92.3492 216.911 92.0107 217.494 91.7566C218.14 91.4588 218.854 91.1431 219.614 90.831C221.132 90.2104 222.534 89.7261 223.56 89.396C224.073 89.2382 224.493 89.1198 224.784 89.0373C224.937 88.9937 225.095 88.9649 225.254 88.9512Z" fill="#263238"/>
<path d="M228.594 80.7695C228.56 80.8184 228.519 80.862 228.472 80.8987L228.113 81.2574L226.721 82.5238L222.083 86.653C220.289 88.2637 218.71 89.8028 217.627 90.9579C217.082 91.5391 216.655 92.0162 216.364 92.3498L216.027 92.7373C215.99 92.7838 215.948 92.8259 215.901 92.8629C215.901 92.8629 215.93 92.809 216.002 92.7158C216.074 92.6225 216.174 92.4826 216.314 92.3104C216.59 91.9516 217.006 91.4673 217.537 90.8754C218.938 89.3469 220.418 87.8932 221.971 86.5202C223.787 84.913 225.44 83.4673 226.635 82.4269L228.07 81.2C228.228 81.0709 228.361 80.9632 228.465 80.8736C228.504 80.8343 228.547 80.7995 228.594 80.7695Z" fill="#263238"/>
<path d="M220.117 88.281C220.067 88.2631 220.447 87.3877 220.834 86.2828C221.222 85.1779 221.394 84.2487 221.441 84.2559C221.4 84.9685 221.249 85.6705 220.992 86.3366C220.831 86.8131 220.643 87.2802 220.429 87.7357C220.351 87.931 220.245 88.1145 220.117 88.281Z" fill="#263238"/>
<path d="M215.111 95.3223C215.007 95.2231 214.913 95.1137 214.831 94.9958L214.114 94.081C213.515 93.3061 212.679 92.2335 211.753 91.0604C210.828 89.8873 209.959 88.8397 209.349 88.0792L208.632 87.1752C208.538 87.0634 208.453 86.9434 208.381 86.8164C208.492 86.906 208.593 87.007 208.682 87.1178C208.869 87.3186 209.131 87.6164 209.454 87.9859C210.096 88.7285 210.967 89.7796 211.9 90.942C212.833 92.1043 213.647 93.2021 214.221 93.9949C214.512 94.3931 214.741 94.7124 214.896 94.9456C214.98 95.0638 215.052 95.19 215.111 95.3223Z" fill="#263238"/>
<path d="M212.885 92.4584C212.433 91.9622 212.111 91.362 211.948 90.7113C211.775 90.1412 211.703 89.5449 211.737 88.9499H211.812C211.78 89.0826 211.754 89.1544 211.74 89.1508C211.726 89.1472 211.74 89.0755 211.74 88.9355H211.812C211.85 89.5161 211.95 90.0909 212.11 90.6504C212.321 91.2722 212.58 91.8767 212.885 92.4584Z" fill="#263238"/>
<path d="M210.007 88.8476C209.805 88.6972 209.586 88.5708 209.354 88.4709C208.773 88.2988 208.162 88.2499 207.56 88.3274C206.946 88.3744 206.336 88.4728 205.738 88.6215C205.492 88.6977 205.242 88.7576 204.988 88.8009C205.211 88.6658 205.453 88.5666 205.706 88.5067C206.304 88.3183 206.921 88.1979 207.546 88.148C208.175 88.064 208.815 88.1329 209.412 88.3489C209.662 88.4414 209.872 88.6176 210.007 88.8476Z" fill="#263238"/>
<path d="M209.325 87.9643C209.325 87.9894 208.945 87.8136 208.324 87.6056C206.71 87.0531 204.981 86.921 203.302 87.2217C202.656 87.3365 202.269 87.4549 202.258 87.4298C202.34 87.3787 202.43 87.34 202.523 87.315C202.77 87.2296 203.022 87.1589 203.277 87.1033C204.977 86.7324 206.749 86.8671 208.374 87.4908C208.62 87.5843 208.86 87.6934 209.092 87.8172C209.176 87.8545 209.255 87.9041 209.325 87.9643Z" fill="#263238"/>
<path d="M215.09 84.2557C214.795 83.4294 214.555 82.5845 214.372 81.7265C214.127 80.8824 213.938 80.0232 213.806 79.1543C214.098 79.9825 214.338 80.8285 214.523 81.687C214.766 82.5305 214.955 83.3884 215.09 84.2557Z" fill="#263238"/>
<path d="M215.137 84.2545C214.902 83.7324 214.632 83.2267 214.33 82.7406C213.986 82.2829 213.586 81.8707 213.139 81.5137C213.308 81.556 213.465 81.637 213.598 81.7504C213.936 81.9969 214.229 82.2989 214.466 82.6437C214.826 83.1132 215.057 83.6684 215.137 84.2545Z" fill="#263238"/>
<path d="M215.101 117.587C215.083 117.587 215.047 117.308 214.918 116.816C214.726 116.12 214.465 115.445 214.14 114.8C213.02 112.696 211.634 110.744 210.018 108.992C209.096 107.941 208.202 106.947 207.445 106C206.765 105.164 206.15 104.276 205.605 103.345C205.241 102.717 204.931 102.059 204.676 101.379C204.593 101.135 204.529 100.945 204.497 100.816C204.474 100.751 204.457 100.684 204.446 100.615C204.446 100.615 204.547 100.881 204.737 101.354C205.013 102.022 205.338 102.668 205.709 103.288C206.265 104.202 206.885 105.076 207.564 105.903C208.328 106.843 209.221 107.83 210.143 108.881C212.005 110.972 213.465 113.082 214.247 114.75C214.56 115.404 214.801 116.091 214.965 116.798C215.01 116.991 215.045 117.186 215.069 117.383C215.086 117.45 215.097 117.518 215.101 117.587Z" fill="#263238"/>
<path d="M224.284 107.216C224.133 107.319 223.978 107.415 223.817 107.503C223.382 107.748 222.965 108.024 222.569 108.328C221.984 108.782 221.436 109.283 220.93 109.824C220.352 110.433 219.76 111.137 219.154 111.894C217.945 113.411 216.815 114.764 216.137 115.84C215.778 116.374 215.541 116.823 215.38 117.135C215.303 117.302 215.214 117.464 215.114 117.619C215.114 117.619 215.114 117.573 215.157 117.483C215.2 117.393 215.243 117.268 215.319 117.106C215.531 116.65 215.77 116.206 216.036 115.779C216.954 114.397 217.952 113.07 219.025 111.804C219.631 111.047 220.23 110.337 220.818 109.73C221.337 109.19 221.9 108.695 222.501 108.249C222.907 107.95 223.338 107.686 223.789 107.459C223.95 107.381 224.079 107.33 224.147 107.294C224.216 107.259 224.28 107.208 224.284 107.216Z" fill="#263238"/>
<path d="M224.465 110.58C224.135 110.655 223.799 110.705 223.461 110.731C222.644 110.816 221.837 110.976 221.05 111.208C220.273 111.459 219.545 111.843 218.898 112.341C218.399 112.725 218.162 113.059 218.141 113.023C218.177 112.938 218.228 112.859 218.291 112.79C218.449 112.591 218.627 112.41 218.822 112.248C219.465 111.711 220.206 111.303 221.003 111.046C221.802 110.807 222.625 110.662 223.457 110.612C223.792 110.571 224.129 110.56 224.465 110.58Z" fill="#263238"/>
<path d="M218.416 112.649C218.363 112.621 218.822 111.932 219.177 110.978C219.532 110.023 219.59 109.184 219.647 109.205C219.678 109.386 219.678 109.57 219.647 109.751C219.594 110.188 219.495 110.619 219.349 111.035C219.194 111.448 218.995 111.844 218.757 112.215C218.564 112.499 218.438 112.664 218.416 112.649Z" fill="#263238"/>
<path d="M227.259 98.1758C227.206 98.2085 227.151 98.2373 227.093 98.2619L226.616 98.4771C226.408 98.5668 226.154 98.6816 225.867 98.8359C225.58 98.9901 225.246 99.1372 224.894 99.3489L224.338 99.6646C224.148 99.7722 223.958 99.9049 223.754 100.023C223.345 100.274 222.936 100.579 222.498 100.891C221.566 101.594 220.689 102.365 219.872 103.198C219.068 104.042 218.327 104.944 217.655 105.896C217.357 106.344 217.067 106.764 216.833 107.184C216.715 107.388 216.589 107.586 216.475 107.779C216.36 107.973 216.274 108.167 216.177 108.346C215.98 108.705 215.84 109.042 215.7 109.336C215.56 109.631 215.452 109.885 215.37 110.097C215.287 110.309 215.223 110.456 215.169 110.581C215.149 110.639 215.122 110.694 215.09 110.746C215.098 110.686 215.115 110.626 215.14 110.57C215.183 110.438 215.241 110.276 215.309 110.072C215.377 109.867 215.481 109.595 215.614 109.297C215.746 108.999 215.879 108.655 216.069 108.292L216.36 107.718C216.46 107.521 216.586 107.324 216.719 107.112C216.952 106.689 217.239 106.262 217.536 105.81C218.205 104.843 218.947 103.931 219.757 103.08C220.581 102.243 221.468 101.469 222.408 100.766C222.853 100.454 223.269 100.152 223.682 99.9085C223.89 99.783 224.084 99.6538 224.277 99.5498C224.471 99.4457 224.661 99.3417 224.841 99.2413C225.199 99.0404 225.537 98.8825 225.831 98.7534C226.079 98.6298 226.334 98.5197 226.595 98.4233L227.086 98.2332C227.14 98.2043 227.198 98.1849 227.259 98.1758Z" fill="#263238"/>
<path d="M219.991 103.05C220.058 102.815 220.197 102.607 220.389 102.455C220.838 102.067 221.408 101.849 222 101.838C222.581 101.836 223.156 101.948 223.693 102.168C223.921 102.24 224.138 102.346 224.336 102.48C224.104 102.436 223.877 102.37 223.658 102.283C223.127 102.1 222.569 102.006 222.007 102.007C221.45 102.017 220.911 102.205 220.468 102.545C220.297 102.701 220.137 102.87 219.991 103.05Z" fill="#263238"/>
<path d="M218.904 104.169C219.392 103.235 219.52 102.153 219.263 101.131C219.361 101.258 219.426 101.407 219.453 101.565C219.55 101.936 219.577 102.321 219.532 102.702C219.487 103.079 219.371 103.444 219.191 103.778C219.044 104.051 218.922 104.184 218.904 104.169Z" fill="#263238"/>
<path d="M207.069 119.254C207.32 123.699 208.659 128.223 210.718 132.786H219.686C221.652 128.262 222.897 123.749 223.12 119.254H207.069Z" fill="#455A64"/>
<path d="M221.666 126.444C221.666 126.49 218.714 126.53 215.076 126.53C211.438 126.53 208.489 126.49 208.489 126.444C208.489 126.397 211.438 126.361 215.076 126.361C218.714 126.361 221.666 126.401 221.666 126.444Z" fill="#FAFAFA"/>
<path d="M221.458 128.055C221.458 128.102 218.692 128.141 215.28 128.141C211.869 128.141 209.106 128.102 209.106 128.055C209.106 128.009 211.872 127.973 215.28 127.973C218.689 127.973 221.458 128.009 221.458 128.055Z" fill="#FAFAFA"/>
<path d="M181.788 39.4473H54.2972C51.4105 39.4473 49.0703 41.7874 49.0703 44.6742V125.442C49.0703 128.329 51.4105 130.669 54.2972 130.669H181.788C184.675 130.669 187.015 128.329 187.015 125.442V44.6742C187.015 41.7874 184.675 39.4473 181.788 39.4473Z" fill="#455A64"/>
<path d="M43.6787 124.779H193.132V126.376C193.132 128.069 192.459 129.694 191.262 130.891C190.064 132.089 188.44 132.761 186.747 132.761H50.0644C48.3708 132.761 46.7466 132.089 45.549 130.891C44.3515 129.694 43.6787 128.069 43.6787 126.376V124.779Z" fill="#455A64"/>
<path d="M182.925 43.0703H52.7725V120.104H182.925V43.0703Z" fill="#263238"/>
<path d="M104.447 123.922L106.298 126.874H132.397L134.119 123.922H104.447Z" fill="#263238"/>
<path d="M179.343 45.6797H56.6301C55.9822 45.6797 55.457 46.2049 55.457 46.8528V118.688C55.457 119.336 55.9822 119.861 56.6301 119.861H179.343C179.991 119.861 180.516 119.336 180.516 118.688V46.8528C180.516 46.2049 179.991 45.6797 179.343 45.6797Z" fill="#EBEBEB"/>
<path d="M180.379 119.967H55.3203L55.4566 51.2246H180.379V119.967Z" fill="#FAFAFA"/>
<path d="M65.7127 48.5442C65.7134 48.7423 65.6553 48.9362 65.5458 49.1012C65.4362 49.2663 65.2802 49.3952 65.0974 49.4715C64.9145 49.5478 64.7132 49.5681 64.5188 49.5299C64.3244 49.4917 64.1457 49.3966 64.0054 49.2568C63.865 49.117 63.7693 48.9386 63.7304 48.7444C63.6915 48.5501 63.7111 48.3487 63.7868 48.1656C63.8624 47.9825 63.9907 47.826 64.1554 47.7158C64.3201 47.6057 64.5137 47.5469 64.7118 47.5469C64.8431 47.5464 64.9732 47.5719 65.0946 47.6218C65.216 47.6717 65.3264 47.7451 65.4194 47.8377C65.5123 47.9304 65.5861 48.0405 65.6365 48.1617C65.6868 48.2829 65.7127 48.4129 65.7127 48.5442Z" fill="#263238"/>
<path d="M59.658 48.5442C59.6588 48.7425 59.6006 48.9365 59.4909 49.1016C59.3812 49.2668 59.2249 49.3956 59.0418 49.4718C58.8588 49.548 58.6573 49.5681 58.4628 49.5296C58.2683 49.4911 58.0896 49.3957 57.9494 49.2555C57.8092 49.1153 57.7138 48.9367 57.6753 48.7422C57.6368 48.5477 57.6569 48.3461 57.7331 48.1631C57.8093 47.9801 57.9382 47.8238 58.1033 47.7141C58.2685 47.6044 58.4625 47.5462 58.6607 47.5469C58.7918 47.5464 58.9217 47.5719 59.043 47.6218C59.1642 47.6718 59.2743 47.7452 59.367 47.8379C59.4597 47.9306 59.5331 48.0408 59.5831 48.162C59.633 48.2832 59.6585 48.4131 59.658 48.5442Z" fill="#263238"/>
<path d="M62.5633 48.5442C62.564 48.7425 62.5058 48.9365 62.3961 49.1016C62.2864 49.2668 62.1301 49.3956 61.9471 49.4718C61.7641 49.548 61.5625 49.5681 61.368 49.5296C61.1735 49.4911 60.9949 49.3957 60.8547 49.2555C60.7145 49.1153 60.6191 48.9367 60.5806 48.7422C60.5421 48.5477 60.5622 48.3461 60.6384 48.1631C60.7146 47.9801 60.8434 47.8238 61.0086 47.7141C61.1737 47.6044 61.3677 47.5462 61.566 47.5469C61.6971 47.5464 61.827 47.5719 61.9482 47.6218C62.0694 47.6718 62.1796 47.7452 62.2723 47.8379C62.365 47.9306 62.4384 48.0408 62.4884 48.162C62.5383 48.2832 62.5638 48.4131 62.5633 48.5442Z" fill="#263238"/>
<path d="M185.828 123.922C185.828 123.972 155.212 124.011 117.454 124.011C79.6965 124.011 49.0703 123.972 49.0703 123.922C49.0703 123.871 79.6821 123.832 117.454 123.832C155.227 123.832 185.828 123.875 185.828 123.922Z" fill="#263238"/>
<path d="M95.5003 78.0771L146.381 77.6035L147.87 112.19L95.1846 111.814L95.5003 78.0771Z" fill="url(#paint31_linear_9433_199270)"/>
<path d="M95.499 78.084L119.535 58.5503C120.029 58.1488 120.646 57.9297 121.282 57.9297C121.918 57.9297 122.535 58.1488 123.029 58.5503L146.376 77.6069" fill="url(#paint32_linear_9433_199270)"/>
<g opacity="0.3">
<path d="M95.499 78.0859L119.535 58.5522C120.029 58.1508 120.646 57.9316 121.282 57.9316C121.918 57.9316 122.535 58.1508 123.029 58.5522L146.376 77.6088" fill="black"/>
</g>
<path d="M95.1833 111.806C95.1223 111.745 99.1833 107.29 104.26 101.855C109.336 96.4196 113.504 92.0752 113.569 92.1254C113.634 92.1757 109.569 96.6385 104.489 102.077C99.4093 107.516 95.2479 111.871 95.1833 111.806Z" fill="#263238"/>
<path d="M147.869 112.189C147.805 112.25 143.83 107.884 138.99 102.478C134.151 97.0719 130.28 92.6126 130.345 92.5552C130.409 92.4978 134.384 96.8602 139.227 102.27C144.07 107.68 147.934 112.132 147.869 112.189Z" fill="#263238"/>
<g opacity="0.5">
<path d="M146.38 77.6055L120.873 98.0683L95.499 78.079" fill="black"/>
</g>
<path d="M98.0679 79.9626L97.9531 64.0702L142.506 63.4531L143.04 80.1707L120.87 97.7959L98.0679 79.9626Z" fill="#FAFAFA"/>
<path d="M98.069 79.9634C98.069 79.9634 98.216 80.0674 98.4923 80.2791L99.7048 81.2154L104.318 84.8029C108.293 87.906 114.004 92.3366 120.917 97.7464H120.824L142.984 80.1069L142.952 80.1822C142.848 76.993 142.74 73.6459 142.632 70.2414C142.557 67.949 142.485 65.6817 142.414 63.4611L142.507 63.5508L97.9578 64.1391L98.0152 64.0781C98.0367 69.0755 98.0582 73.0468 98.069 75.7661C98.069 77.1257 98.069 78.1733 98.069 78.8872C98.069 79.2459 98.069 79.5078 98.069 79.6943C98.069 79.8809 98.069 79.9706 98.069 79.9706C98.069 79.9706 98.069 79.8809 98.069 79.7015C98.069 79.5222 98.069 79.2495 98.069 78.9015C98.069 78.184 98.0474 77.1437 98.0331 75.7876C98.008 73.0576 97.9685 69.0862 97.9219 64.0781V64.0207H97.9793L142.503 63.375H142.596V63.4683C142.668 65.6889 142.74 67.9526 142.815 70.245C142.923 73.6495 143.031 76.9966 143.131 80.1858V80.2325L143.095 80.2612L120.91 97.8756L120.864 97.9151L120.817 97.8756L104.236 84.8639L99.6582 81.2549L98.4636 80.3078L98.069 79.9634Z" fill="#263238"/>
<path d="M135.481 71.4675C135.481 71.5177 128.665 71.6146 120.263 71.6827C111.861 71.7509 105.045 71.7652 105.045 71.715C105.045 71.6648 111.861 71.5679 120.263 71.4962C128.665 71.4244 135.481 71.4137 135.481 71.4675Z" fill="#263238"/>
<path d="M135.489 75.9577C135.489 76.0079 128.673 76.1084 120.275 76.1765C111.876 76.2447 105.057 76.259 105.057 76.2052C105.057 76.1514 111.873 76.0581 120.275 75.99C128.676 75.9218 135.489 75.9075 135.489 75.9577Z" fill="#263238"/>
<path d="M135.5 81.1296C135.5 81.1834 128.684 81.2803 120.285 81.3484C111.887 81.4166 105.067 81.4309 105.067 81.3771C105.067 81.3233 111.884 81.23 120.285 81.1619C128.687 81.0937 135.5 81.0793 135.5 81.1296Z" fill="#263238"/>
<path d="M135.511 86.303C135.511 86.3568 129.014 86.4501 120.996 86.5147C112.978 86.5793 106.478 86.5936 106.478 86.5398C106.478 86.486 112.974 86.3927 120.996 86.3281C129.018 86.2636 135.511 86.2528 135.511 86.303Z" fill="#263238"/>
<path d="M129.829 90.8558C129.77 90.8721 129.71 90.8794 129.649 90.8774L129.136 90.8989L127.256 90.9455L121.046 91.0603C118.621 91.1034 116.422 91.1177 114.833 91.1177H112.953H112.44C112.38 91.1193 112.32 91.1133 112.261 91.0998C112.319 91.0835 112.38 91.0762 112.44 91.0783L112.95 91.0567L114.833 91.0101L121.043 90.8989C123.468 90.8522 125.663 90.8379 127.253 90.8379H129.136H129.649C129.709 90.8379 129.769 90.844 129.829 90.8558Z" fill="#263238"/>
<path d="M124.088 95.2334C123.015 95.3301 121.937 95.3636 120.86 95.3339C119.783 95.3679 118.705 95.3391 117.631 95.2478C118.704 95.1533 119.782 95.1197 120.86 95.1473C121.937 95.1155 123.015 95.1442 124.088 95.2334Z" fill="#263238"/>
<path d="M240.321 132.453C240.321 132.506 186.674 132.546 120.5 132.546C54.3256 132.546 0.678711 132.506 0.678711 132.453C0.678711 132.399 54.3148 132.359 120.5 132.359C186.685 132.359 240.321 132.402 240.321 132.453Z" fill="#263238"/>
<path d="M130.1 63.3127C130.15 63.3127 130.172 63.5208 130.147 63.7683C130.121 64.0158 130.061 64.2096 130.01 64.206C129.96 64.2024 129.939 63.9943 129.964 63.7468C129.989 63.4992 130.046 63.3055 130.1 63.3127Z" fill="#263238"/>
<path d="M130.576 59.8184C130.623 60.1121 130.61 60.4125 130.537 60.7009C130.52 60.999 130.443 61.2906 130.311 61.5583C130.274 60.966 130.365 60.3728 130.576 59.8184Z" fill="#263238"/>
<path d="M131.28 56.3613C131.309 56.659 131.276 56.9596 131.183 57.2438C131.146 57.54 131.05 57.8256 130.899 58.0833C130.871 57.7865 130.905 57.487 131 57.2044C131.034 56.907 131.129 56.6198 131.28 56.3613Z" fill="#263238"/>
<path d="M132.239 52.9707C132.191 53.5643 132.016 54.1407 131.726 54.6604C131.722 54.3614 131.78 54.0648 131.894 53.7886C131.95 53.4947 132.067 53.2158 132.239 52.9707Z" fill="#263238"/>
<path d="M133.468 49.6621C133.447 49.9601 133.365 50.2505 133.228 50.5159C133.147 50.8036 133.006 51.0712 132.815 51.3016C132.839 51.0074 132.92 50.7208 133.056 50.4585C133.135 50.1667 133.276 49.8952 133.468 49.6621Z" fill="#263238"/>
<path d="M134.996 46.4877C134.841 47.0606 134.567 47.5947 134.192 48.0554C134.241 47.7612 134.349 47.4802 134.512 47.2303C134.734 46.7962 134.949 46.4625 134.996 46.4877Z" fill="#263238"/>
<path d="M136.841 43.4823C136.759 43.7696 136.618 44.0369 136.429 44.268C136.17 44.677 135.923 44.9855 135.88 44.9604C135.952 44.6699 136.085 44.3983 136.271 44.164C136.544 43.7586 136.798 43.4536 136.841 43.4823Z" fill="#263238"/>
<path d="M139.014 40.7057C138.902 40.9824 138.734 41.2337 138.523 41.4447C138.211 41.8035 137.927 42.094 137.884 42.0617C137.841 42.0295 138.064 41.703 138.379 41.3263C138.695 40.9496 138.975 40.6734 139.014 40.7057Z" fill="#263238"/>
<path d="M141.497 38.2054C141.533 38.2449 141.274 38.5462 140.923 38.8799C140.571 39.2135 140.255 39.4538 140.205 39.418C140.155 39.3821 140.424 39.0808 140.779 38.7435C141.134 38.4063 141.464 38.166 141.497 38.2054Z" fill="#263238"/>
<path d="M144.275 36.0312C144.303 36.0743 144.009 36.3434 143.618 36.6304C143.397 36.8294 143.136 36.9808 142.854 37.0752C142.822 37.0357 143.116 36.7667 143.51 36.4797C143.731 36.278 143.991 36.1251 144.275 36.0312Z" fill="#263238"/>
<path d="M147.315 34.248C146.863 34.6348 146.334 34.921 145.762 35.0875C145.737 35.0409 146.063 34.8185 146.48 34.5853C146.731 34.4143 147.016 34.2992 147.315 34.248Z" fill="#263238"/>
<path d="M150.58 32.9219C150.343 33.1028 150.072 33.2345 149.784 33.3093C149.515 33.4396 149.222 33.5117 148.923 33.521C149.159 33.3388 149.43 33.207 149.719 33.1335C149.988 33.0016 150.281 32.9294 150.58 32.9219Z" fill="#263238"/>
<path d="M154.01 32.1209C153.746 32.2558 153.457 32.3363 153.16 32.3576C152.877 32.448 152.577 32.4785 152.281 32.4473C152.821 32.1941 153.416 32.0818 154.01 32.1209Z" fill="#263238"/>
<path d="M157.53 31.9263C157.247 32.0195 156.948 32.0537 156.651 32.0268C156.354 32.0624 156.053 32.0343 155.769 31.9443C156.051 31.8501 156.35 31.8147 156.647 31.8402C156.944 31.8057 157.245 31.835 157.53 31.9263Z" fill="#263238"/>
<path d="M161.037 32.3391C160.742 32.3833 160.44 32.3662 160.151 32.2888C159.852 32.2722 159.56 32.1928 159.294 32.0556C159.889 32.0272 160.482 32.1238 161.037 32.3391Z" fill="#263238"/>
<path d="M164.406 33.3488C163.815 33.2765 163.246 33.0783 162.738 32.7676C163.037 32.7769 163.331 32.8452 163.603 32.9685C163.895 33.037 164.168 33.1666 164.406 33.3488Z" fill="#263238"/>
<path d="M167.546 34.9473C167.254 34.883 166.979 34.7611 166.735 34.5885C166.463 34.4662 166.218 34.2892 166.018 34.0684C166.31 34.1304 166.586 34.2526 166.828 34.4271C167.252 34.6746 167.575 34.9042 167.546 34.9473Z" fill="#263238"/>
<path d="M170.307 37.1297C170.037 37.0077 169.793 36.8334 169.59 36.6167C169.231 36.301 168.959 36.0068 168.991 35.9674C169.023 35.9279 169.35 36.1539 169.708 36.4768C170.067 36.7997 170.343 37.0938 170.307 37.1297Z" fill="#263238"/>
<path d="M172.052 39.1379C172.009 39.1666 171.855 39.0339 171.693 38.8402C171.532 38.6464 171.453 38.4635 171.492 38.4276C171.532 38.3917 171.686 38.5281 171.851 38.7254C172.016 38.9227 172.095 39.1056 172.052 39.1379Z" fill="#263238"/>
<path d="M188.64 60.753C188.339 60.7146 188.05 60.6145 187.79 60.4589C187.338 60.2508 186.99 60.0427 187.015 59.9961C187.316 60.0378 187.606 60.1377 187.869 60.2903C188.154 60.3911 188.417 60.5485 188.64 60.753Z" fill="#263238"/>
<path d="M192.026 61.9398C191.425 61.8858 190.841 61.7075 190.312 61.416C190.914 61.4683 191.498 61.6468 192.026 61.9398Z" fill="#263238"/>
<path d="M195.567 62.4966C195.269 62.5587 194.961 62.5587 194.663 62.4966C194.36 62.4947 194.061 62.43 193.784 62.3064C194.081 62.2468 194.387 62.2468 194.685 62.3064C194.989 62.3097 195.289 62.3744 195.567 62.4966Z" fill="#263238"/>
<path d="M199.149 62.3846C198.867 62.497 198.565 62.5507 198.262 62.5424C197.963 62.5982 197.655 62.5896 197.358 62.5173C197.642 62.4065 197.944 62.3517 198.248 62.3559C198.547 62.3029 198.854 62.3127 199.149 62.3846Z" fill="#263238"/>
<path d="M202.672 61.7242C202.411 61.8797 202.122 61.9821 201.821 62.0255C201.53 62.1161 201.224 62.1466 200.921 62.1152C201.187 61.9685 201.48 61.877 201.782 61.8461C202.067 61.7444 202.37 61.7029 202.672 61.7242Z" fill="#263238"/>
<path d="M206.001 60.4004C206.026 60.447 205.678 60.6515 205.226 60.8632C204.965 61.018 204.674 61.1158 204.372 61.1502C204.857 60.7902 205.412 60.5348 206.001 60.4004Z" fill="#263238"/>
<path d="M208.974 58.4023C209.007 58.4418 208.727 58.736 208.329 59.0373C208.104 59.2441 207.836 59.3964 207.543 59.4822C207.514 59.4391 207.823 59.1844 208.217 58.8902C208.438 58.6833 208.695 58.518 208.974 58.4023Z" fill="#263238"/>
<path d="M211.413 55.7849C211.315 56.0752 211.152 56.3392 210.936 56.5562C210.616 56.9401 210.308 57.2055 210.272 57.1697C210.236 57.1338 210.48 56.8109 210.792 56.4522C211.104 56.0934 211.37 55.7562 211.413 55.7849Z" fill="#263238"/>
<path d="M213.093 52.6113C213.081 52.9175 212.996 53.2165 212.845 53.4831C212.746 53.7725 212.581 54.0351 212.364 54.2508C212.418 53.953 212.522 53.6666 212.673 53.4042C212.768 53.1185 212.91 52.8506 213.093 52.6113Z" fill="#263238"/>
<path d="M213.774 49.1172C213.86 49.4109 213.873 49.7211 213.813 50.0212C213.813 50.3281 213.736 50.63 213.591 50.9002C213.554 50.6012 213.567 50.2984 213.627 50.0033C213.626 49.7018 213.676 49.4024 213.774 49.1172Z" fill="#263238"/>
<path d="M213.239 45.582C213.412 45.8351 213.522 46.1251 213.562 46.4287C213.659 46.7185 213.685 47.0273 213.638 47.3291C213.504 47.0599 213.416 46.77 213.379 46.4717C213.284 46.185 213.236 45.8843 213.239 45.582Z" fill="#263238"/>
<path d="M211.679 42.3676C211.718 42.3353 211.991 42.6438 212.242 43.085C212.421 43.3319 212.537 43.6189 212.579 43.9209C212.533 43.946 212.324 43.6016 212.081 43.1783C211.903 42.9319 211.767 42.658 211.679 42.3676Z" fill="#263238"/>
<path d="M209.189 39.8047C209.48 39.9023 209.743 40.0698 209.953 40.2926C210.334 40.619 210.581 40.9419 210.545 40.9778C210.51 41.0137 210.187 40.7518 209.828 40.4325C209.469 40.1132 209.161 39.8477 209.189 39.8047Z" fill="#263238"/>
<path d="M205.936 38.3496C206.242 38.3209 206.551 38.3715 206.832 38.4967C207.131 38.5655 207.409 38.7072 207.64 38.9093C207.341 38.8772 207.049 38.7973 206.775 38.6725C206.48 38.6086 206.197 38.4997 205.936 38.3496Z" fill="#263238"/>
<path d="M202.38 38.4103C202.641 38.2475 202.941 38.1571 203.248 38.1484C203.548 38.08 203.861 38.0899 204.156 38.1771C203.567 38.3108 202.966 38.3889 202.362 38.4103H202.38Z" fill="#263238"/>
<path d="M199.287 40.1381C199.248 40.1058 199.495 39.7794 199.901 39.4672C200.128 39.2582 200.409 39.1155 200.712 39.0547C200.737 39.1049 200.399 39.3237 199.994 39.6179C199.589 39.9121 199.327 40.174 199.287 40.1381Z" fill="#263238"/>
<path d="M197.866 43.3613C197.798 43.0598 197.817 42.7451 197.92 42.4537C197.962 42.1466 198.093 41.8585 198.297 41.625C198.265 41.9222 198.199 42.2147 198.1 42.4968C198.06 42.7938 197.981 43.0845 197.866 43.3613Z" fill="#263238"/>
<path d="M198.568 46.8359C198.355 46.6133 198.206 46.3386 198.134 46.0394C198.003 45.7598 197.951 45.4497 197.983 45.1426C198.13 45.4046 198.24 45.686 198.31 45.9785C198.437 46.2502 198.524 46.539 198.568 46.8359Z" fill="#263238"/>
<path d="M200.913 49.5052C200.619 49.4138 200.353 49.2482 200.142 49.0245C199.762 48.6944 199.528 48.3572 199.568 48.3249C199.607 48.2926 199.898 48.5617 200.264 48.8845C200.63 49.2074 200.942 49.4621 200.913 49.5052Z" fill="#263238"/>
<path d="M204.17 50.9659C203.864 50.9825 203.558 50.9246 203.28 50.7973C202.98 50.7303 202.702 50.5883 202.473 50.3848C202.772 50.4168 203.064 50.4968 203.337 50.6215C203.632 50.6881 203.914 50.8046 204.17 50.9659Z" fill="#263238"/>
<path d="M207.729 51.3031C207.139 51.4553 206.518 51.4416 205.936 51.2637C206.23 51.2017 206.533 51.1872 206.832 51.2206C207.134 51.196 207.437 51.2239 207.729 51.3031Z" fill="#263238"/>
<path d="M211.263 50.6504C210.735 50.9533 210.135 51.107 209.526 51.0952C209.791 50.9515 210.079 50.8555 210.377 50.8118C210.661 50.7095 210.96 50.6549 211.263 50.6504Z" fill="#263238"/>
<path d="M214.491 49.1621C214.277 49.3785 214.022 49.5493 213.741 49.6644C213.488 49.8326 213.204 49.9474 212.905 50.0016C213.37 49.6151 213.91 49.3292 214.491 49.1621Z" fill="#263238"/>
<path d="M217.362 47.0234C217.398 47.0629 217.114 47.3499 216.73 47.6656C216.514 47.8794 216.258 48.0488 215.977 48.1643C215.945 48.1212 216.232 47.8342 216.612 47.5221C216.828 47.3093 217.082 47.14 217.362 47.0234Z" fill="#263238"/>
<path d="M219.818 44.4002C219.858 44.4325 219.628 44.759 219.305 45.1428C218.982 45.5267 218.688 45.7993 218.652 45.7635C218.616 45.7276 218.842 45.4047 219.162 45.0209C219.481 44.637 219.775 44.3608 219.818 44.4002Z" fill="#263238"/>
<path d="M221.788 41.4096C221.719 41.7055 221.59 41.984 221.408 42.2275C221.15 42.6544 220.909 42.9773 220.866 42.945C220.936 42.6492 221.065 42.3708 221.246 42.1271C221.501 41.7073 221.742 41.3845 221.788 41.4096Z" fill="#263238"/>
<path d="M223.246 38.1289C223.224 38.4325 223.142 38.7287 223.005 39.0007C222.926 39.2945 222.781 39.5667 222.582 39.7971C222.613 39.4965 222.697 39.2038 222.83 38.9325C222.913 38.6393 223.054 38.3659 223.246 38.1289Z" fill="#263238"/>
<path d="M224.245 34.6758C224.263 34.9784 224.218 35.2814 224.113 35.5655C224.066 35.8662 223.958 36.1542 223.797 36.4121C223.822 35.8082 223.975 35.2165 224.245 34.6758Z" fill="#263238"/>
<path d="M224.873 31.1602C224.922 31.46 224.908 31.7669 224.83 32.0606C224.814 32.3634 224.737 32.6598 224.604 32.9324C224.554 32.6325 224.569 32.3257 224.647 32.0319C224.664 31.7292 224.741 31.4329 224.873 31.1602Z" fill="#263238"/>
<path d="M225.203 27.5879C225.287 28.1885 225.241 28.7999 225.071 29.3816C225.003 29.0848 224.995 28.7777 225.045 28.4776C225.038 28.1734 225.091 27.8708 225.203 27.5879Z" fill="#263238"/>
<path d="M225.318 24.002C225.406 24.2923 225.432 24.5979 225.393 24.8988C225.42 25.2023 225.382 25.508 225.282 25.7957C225.199 25.5032 225.173 25.1974 225.207 24.8952C225.184 24.593 225.222 24.2894 225.318 24.002Z" fill="#263238"/>
<path d="M225.292 20.416C225.389 20.7046 225.425 21.0097 225.4 21.3129C225.436 21.6143 225.408 21.92 225.318 22.2097C225.222 21.9211 225.185 21.616 225.21 21.3129C225.178 21.0114 225.206 20.7066 225.292 20.416Z" fill="#263238"/>
<path d="M225.253 18.209C225.303 18.209 225.35 18.2987 225.354 18.4135C225.357 18.5283 225.318 18.618 225.264 18.6215C225.21 18.6251 225.167 18.5319 225.167 18.4171C225.167 18.3023 225.189 18.209 225.253 18.209Z" fill="#263238"/>
<path d="M233.1 7.55613L208.716 10.2051L210.502 26.643L234.886 23.994L233.1 7.55613Z" fill="url(#paint33_linear_9433_199270)"/>
<path d="M210.492 26.6608L208.698 10.2159L233.093 7.56836L234.887 24.0169L210.492 26.6608ZM208.727 10.2231L210.521 26.6429L234.887 23.9953L233.093 7.57553L208.727 10.2231Z" fill="#263238"/>
<path d="M233.2 7.76953C233.139 7.85714 233.071 7.93882 232.995 8.01348L232.382 8.68433L230.089 11.1166L222.452 19.088L222.391 19.1561L222.312 19.1059L222.125 18.9875L212.697 12.957L209.827 11.1095L209.06 10.5964C208.968 10.5398 208.88 10.4763 208.798 10.4063C208.898 10.4468 208.994 10.4973 209.085 10.557L209.874 11.0341L212.744 12.8278L222.219 18.8046L222.405 18.9229H222.265L229.978 10.9982L232.321 8.61617L232.963 7.9776C233.035 7.90125 233.115 7.83161 233.2 7.76953Z" fill="#263238"/>
<path d="M210.6 26.8409C210.55 26.8086 212.139 24.3548 214.148 21.3664C216.157 18.3781 217.832 15.9852 217.882 16.0139C217.933 16.0426 216.347 18.5 214.334 21.4884C212.322 24.4767 210.65 26.8768 210.6 26.8409Z" fill="#263238"/>
<path d="M225.972 14.944C226.018 14.901 228.074 16.9422 230.564 19.5001C233.053 22.058 235.037 24.1638 234.994 24.2104C234.951 24.2571 232.895 22.2158 230.402 19.6544C227.909 17.0929 225.921 14.9691 225.972 14.944Z" fill="#263238"/>
<path d="M121.744 57.4023C121.794 57.4023 121.87 57.5853 121.913 57.8292C121.956 58.0732 121.945 58.2777 121.895 58.2884C121.844 58.2992 121.769 58.1055 121.726 57.8579C121.683 57.6104 121.694 57.4095 121.744 57.4023Z" fill="#263238"/>
<path d="M121.172 53.9004C121.307 54.1687 121.386 54.4616 121.405 54.7614C121.482 55.0514 121.499 55.3542 121.455 55.6511C121.317 55.3837 121.238 55.0903 121.222 54.7901C121.144 54.5001 121.127 54.1973 121.172 53.9004Z" fill="#263238"/>
<path d="M120.657 50.3945C120.789 50.6646 120.862 50.9591 120.873 51.2591C120.944 51.5504 120.955 51.8531 120.905 52.1488C120.772 51.8794 120.699 51.5845 120.69 51.2842C120.619 50.9929 120.608 50.6902 120.657 50.3945Z" fill="#263238"/>
<path d="M120.256 46.875C120.376 47.1501 120.439 47.4466 120.442 47.7467C120.505 48.0399 120.505 48.3433 120.442 48.6364C120.322 48.3614 120.26 48.0647 120.259 47.7647C120.196 47.4716 120.195 47.1686 120.256 46.875Z" fill="#263238"/>
<path d="M120.009 43.3301C120.166 43.9072 120.201 44.511 120.109 45.1023C119.952 44.5252 119.918 43.9213 120.009 43.3301Z" fill="#263238"/>
<path d="M119.973 39.7812C120.098 40.3727 120.098 40.9835 119.973 41.575C119.88 41.2894 119.85 40.9873 119.883 40.6889C119.848 40.3834 119.879 40.0739 119.973 39.7812Z" fill="#263238"/>
<path d="M120.195 36.2441C120.26 36.5378 120.266 36.8414 120.213 37.1374C120.218 37.4374 120.162 37.7353 120.048 38.0128C119.978 37.721 119.971 37.4178 120.026 37.1231C120.021 36.8216 120.078 36.5223 120.195 36.2441Z" fill="#263238"/>
<path d="M120.727 32.7383C120.77 33.0358 120.749 33.3392 120.666 33.628C120.644 33.9279 120.559 34.22 120.418 34.4854C120.4 33.888 120.505 33.2934 120.727 32.7383Z" fill="#263238"/>
<path d="M121.635 29.3125C121.638 29.6124 121.582 29.91 121.47 30.1878C121.412 30.4827 121.296 30.7631 121.129 31.013C121.12 30.7119 121.175 30.4125 121.29 30.134C121.345 29.8388 121.463 29.5587 121.635 29.3125Z" fill="#263238"/>
<path d="M122.957 26.0234C122.926 26.3227 122.833 26.6122 122.684 26.8737C122.591 27.1591 122.441 27.4226 122.243 27.6486C122.367 27.0629 122.611 26.5094 122.961 26.0234H122.957Z" fill="#263238"/>
<path d="M124.686 22.9315C124.617 23.2233 124.489 23.4979 124.31 23.7387C124.058 24.1548 123.818 24.4561 123.771 24.4561C123.842 24.1641 123.972 23.8895 124.152 23.649C124.403 23.2221 124.643 22.9028 124.686 22.9315Z" fill="#263238"/>
<path d="M126.814 20.0924C126.854 20.1282 126.638 20.4511 126.334 20.8421C126.029 21.2332 125.745 21.5058 125.702 21.4735C125.812 21.1937 125.976 20.9387 126.186 20.7237C126.495 20.3435 126.778 20.0601 126.814 20.0924Z" fill="#263238"/>
<path d="M129.335 17.6C129.367 17.643 129.102 17.9408 128.743 18.2709C128.384 18.6009 128.062 18.8341 128.026 18.7982C127.99 18.7623 128.255 18.4646 128.618 18.1309C128.98 17.7973 129.303 17.5605 129.335 17.6Z" fill="#263238"/>
<path d="M132.234 15.5625C132.259 15.6091 131.947 15.8567 131.535 16.1186C131.299 16.3046 131.028 16.4401 130.738 16.5168C130.709 16.4773 131.022 16.2262 131.434 15.9607C131.672 15.7764 131.944 15.641 132.234 15.5625Z" fill="#263238"/>
<path d="M135.463 14.1094C135.23 14.2996 134.96 14.4389 134.67 14.5183C134.404 14.6556 134.112 14.7362 133.812 14.7551C134.046 14.5656 134.316 14.4264 134.605 14.3461C134.872 14.2084 135.164 14.1277 135.463 14.1094Z" fill="#263238"/>
<path d="M138.053 13.4719C138.053 13.5221 137.874 13.601 137.633 13.6477C137.393 13.6943 137.185 13.6907 137.174 13.6477C137.164 13.6046 137.354 13.5185 137.598 13.4719C137.842 13.4252 138.046 13.4217 138.053 13.4719Z" fill="#263238"/>
<path d="M118.971 0.000627899L112.487 16.7676L137.362 26.3858L143.845 9.61881L118.971 0.000627899Z" fill="url(#paint34_linear_9433_199270)"/>
<path d="M137.361 26.4001L112.479 16.775L118.968 0L143.851 9.62157L137.361 26.4001ZM112.5 16.7642L137.361 26.375L143.84 9.62515L118.979 0.0143502L112.5 16.7642Z" fill="#263238"/>
<path d="M143.847 9.85398C143.746 9.90867 143.64 9.95314 143.531 9.98672L142.602 10.3239L139.176 11.5293L127.811 15.4325L127.718 15.4648L127.667 15.3787L127.545 15.1706L121.447 4.63423L119.621 1.42704L119.136 0.548117C119.073 0.44833 119.021 0.342587 118.979 0.232422C119.053 0.323259 119.119 0.420501 119.176 0.523005L119.703 1.38041L121.576 4.54096C123.169 7.2459 125.343 10.9517 127.743 15.0414L127.865 15.2495L127.721 15.1957L139.122 11.3571L142.573 10.2271L143.517 9.92932C143.624 9.8924 143.734 9.86714 143.847 9.85398Z" fill="#263238"/>
<path d="M112.489 17.0007C112.456 16.9433 115.215 15.3684 118.652 13.485C122.089 11.6016 124.898 10.12 124.93 10.1774C124.962 10.2348 122.203 11.8097 118.767 13.6967C115.33 15.5837 112.521 17.0581 112.489 17.0007Z" fill="#263238"/>
<path d="M133.283 13.1524C133.347 13.1345 134.312 16.13 135.435 19.843C136.558 23.5561 137.426 26.5875 137.362 26.6054C137.297 26.6233 136.332 23.6314 135.209 19.9148C134.086 16.1982 133.218 13.1847 133.283 13.1524Z" fill="#263238"/>
<path d="M111.298 61.3282C111.349 61.3282 111.374 61.5362 111.356 61.7838C111.338 62.0313 111.277 62.2286 111.227 62.225C111.177 62.2215 111.148 62.017 111.169 61.7694C111.191 61.5219 111.248 61.3246 111.298 61.3282Z" fill="#263238"/>
<path d="M111.389 57.6797C111.483 57.9751 111.514 58.2864 111.483 58.5945C111.511 58.9016 111.478 59.2113 111.386 59.5057C111.295 59.2111 111.265 58.9012 111.296 58.5945C111.267 58.2864 111.299 57.9757 111.389 57.6797Z" fill="#263238"/>
<path d="M111.141 54.0488C111.319 54.6377 111.376 55.2562 111.31 55.8677C111.189 55.5831 111.129 55.2764 111.134 54.9672C111.077 54.6635 111.079 54.3516 111.141 54.0488Z" fill="#263238"/>
<path d="M110.534 50.4395C110.68 50.712 110.77 51.0107 110.799 51.3184C110.888 51.6147 110.916 51.9258 110.882 52.2332C110.737 51.9604 110.647 51.6618 110.616 51.3543C110.526 51.0583 110.498 50.7468 110.534 50.4395Z" fill="#263238"/>
<path d="M109.542 46.9277C109.845 47.4633 110.034 48.0556 110.098 48.6677C109.923 48.4135 109.801 48.1268 109.739 47.8246C109.613 47.5421 109.546 47.237 109.542 46.9277Z" fill="#263238"/>
<path d="M108.146 43.5605C108.352 43.7908 108.508 44.0606 108.606 44.3534C108.759 44.622 108.858 44.9182 108.896 45.2251C108.693 44.9934 108.537 44.7241 108.437 44.4323C108.283 44.1641 108.184 43.8677 108.146 43.5605Z" fill="#263238"/>
<path d="M106.335 40.3904C106.378 40.3617 106.636 40.6846 106.909 41.1079C107.091 41.3587 107.223 41.6427 107.296 41.9438C107.25 41.9689 107.006 41.6389 106.748 41.2048C106.557 40.9634 106.417 40.6866 106.335 40.3904Z" fill="#263238"/>
<path d="M104.099 37.5108C104.138 37.475 104.432 37.762 104.755 38.1494C104.975 38.368 105.149 38.6276 105.268 38.9135C105.225 38.9422 104.935 38.6552 104.612 38.2714C104.392 38.0544 104.218 37.7959 104.099 37.5108Z" fill="#263238"/>
<path d="M101.488 34.971C101.52 34.9315 101.847 35.1755 102.227 35.5127C102.607 35.8499 102.876 36.1584 102.84 36.1943C102.561 36.0643 102.309 35.8802 102.101 35.6526C101.721 35.3154 101.445 35.0104 101.488 34.971Z" fill="#263238"/>
<path d="M98.5213 32.8398C98.8177 32.9257 99.0936 33.0709 99.3321 33.2668C99.7518 33.5466 100.071 33.8085 100.05 33.8515C99.7539 33.7621 99.4785 33.6159 99.2388 33.421C98.8119 33.1448 98.4926 32.8829 98.5213 32.8398Z" fill="#263238"/>
<path d="M95.2695 31.1836C95.5761 31.2229 95.8715 31.3242 96.1377 31.4814C96.4293 31.5824 96.6977 31.741 96.9269 31.9477C96.6203 31.9084 96.325 31.8071 96.0588 31.65C95.7677 31.5477 95.4995 31.3893 95.2695 31.1836Z" fill="#263238"/>
<path d="M91.8008 30.0815C92.11 30.0707 92.4184 30.1207 92.7084 30.2286C93.0135 30.2797 93.3052 30.392 93.5658 30.5587C93.2567 30.568 92.9486 30.5181 92.6582 30.4116C92.3536 30.3586 92.0623 30.2465 91.8008 30.0815Z" fill="#263238"/>
<path d="M88.1748 29.618C88.7839 29.5156 89.4089 29.5661 89.9936 29.7651C89.3834 29.8144 88.7692 29.7647 88.1748 29.618Z" fill="#263238"/>
<path d="M84.5371 29.8708C85.1211 29.6755 85.7389 29.6022 86.3524 29.6556C86.0702 29.7829 85.765 29.8512 85.4555 29.8565C85.1532 29.9206 84.8413 29.9255 84.5371 29.8708Z" fill="#263238"/>
<path d="M81.0146 30.8109C81.2683 30.6352 81.5552 30.5131 81.8577 30.4522C82.1406 30.3289 82.446 30.2654 82.7546 30.2656C82.4999 30.4395 82.2134 30.5614 81.9115 30.6244C81.6274 30.744 81.3229 30.8073 81.0146 30.8109Z" fill="#263238"/>
<path d="M77.7279 32.3929C77.7028 32.3463 78.04 32.1167 78.4884 31.8763C78.7432 31.7002 79.0313 31.5781 79.3351 31.5176C78.8629 31.9125 78.3164 32.2089 77.7279 32.3893V32.3929Z" fill="#263238"/>
<path d="M74.8136 34.5797C74.7777 34.5438 75.0647 34.2496 75.4521 33.9232C75.6707 33.7037 75.9304 33.5294 76.2163 33.4102C76.245 33.4532 75.958 33.7474 75.5741 34.0667C75.3585 34.288 75.0996 34.4626 74.8136 34.5797Z" fill="#263238"/>
<path d="M72.4287 37.335C72.5207 37.0379 72.679 36.7656 72.8915 36.5386C73.2036 36.1368 73.5085 35.857 73.5444 35.8893C73.5803 35.9215 73.3471 36.248 73.0386 36.6534C72.7301 37.0588 72.4718 37.3637 72.4287 37.335Z" fill="#263238"/>
<path d="M71.098 39.6995C71.0514 39.678 71.098 39.4806 71.2093 39.2546C71.3205 39.0286 71.4424 38.8672 71.4891 38.8959C71.5357 38.9246 71.4891 39.1183 71.3779 39.3407C71.2667 39.5632 71.1447 39.7246 71.098 39.6995Z" fill="#263238"/>
<path d="M48.3037 60.8654C48.3037 60.8151 48.4938 60.7506 48.7378 60.7183C48.9817 60.686 49.1862 60.7183 49.1934 60.7577C49.2006 60.7972 49.0104 60.8761 48.7593 60.9048C48.5082 60.9335 48.3073 60.9264 48.3037 60.8654Z" fill="#263238"/>
<path d="M44.751 60.4709C45.0527 60.4675 45.353 60.5123 45.6407 60.6036C45.941 60.6347 46.2343 60.7147 46.5088 60.8404C45.9002 60.8982 45.2882 60.7733 44.751 60.4816V60.4709Z" fill="#263238"/>
<path d="M41.537 58.8809C41.8259 58.9713 42.0975 59.1095 42.3406 59.2898C42.7639 59.541 43.1047 59.7526 43.0832 59.8028C42.7807 59.749 42.4947 59.6262 42.2473 59.4441C41.8168 59.193 41.5083 58.9239 41.537 58.8809Z" fill="#263238"/>
<path d="M38.8687 56.485C38.9081 56.4527 39.2023 56.7254 39.5503 57.077C39.8983 57.4285 40.1673 57.7263 40.135 57.7657C40.1027 57.8052 39.7763 57.5648 39.4175 57.2097C39.0588 56.8545 38.8292 56.5209 38.8687 56.485Z" fill="#263238"/>
<path d="M36.7588 53.5795C36.8054 53.5544 37.0601 53.8665 37.3292 54.297C37.5193 54.5337 37.6607 54.8055 37.7453 55.097C37.7023 55.1293 37.4476 54.8136 37.1749 54.3975C36.9807 54.1568 36.8389 53.8782 36.7588 53.5795Z" fill="#263238"/>
<path d="M35.209 50.3398C35.4066 50.5707 35.5555 50.8392 35.6467 51.1291C35.7907 51.3975 35.882 51.6909 35.9157 51.9937C35.7162 51.7635 35.566 51.4949 35.4745 51.2044C35.3294 50.9367 35.2392 50.6428 35.209 50.3398Z" fill="#263238"/>
<path d="M34.1798 46.8965C34.3417 47.1546 34.4503 47.4424 34.4991 47.7431C34.6052 48.0284 34.6516 48.3325 34.6354 48.6364C34.471 48.3796 34.3622 48.0912 34.3161 47.7898C34.2103 47.5044 34.1639 47.2004 34.1798 46.8965Z" fill="#263238"/>
<path d="M33.5547 43.3555C33.6861 43.6298 33.7629 43.9271 33.7807 44.2308C33.856 44.5262 33.8706 44.8337 33.8238 45.1348C33.6892 44.8616 33.6123 44.5637 33.5978 44.2595C33.5204 43.9645 33.5057 43.6565 33.5547 43.3555Z" fill="#263238"/>
<path d="M33.2103 39.7773C33.3827 40.3587 33.4316 40.9697 33.3538 41.5711C33.2389 41.2901 33.1828 40.9885 33.1888 40.685C33.1325 40.3842 33.1398 40.0751 33.2103 39.7773Z" fill="#263238"/>
<path d="M33.0601 37.084C33.114 37.084 33.1642 37.2813 33.1749 37.5288C33.1857 37.7764 33.1534 37.9773 33.1032 37.9808C33.053 37.9844 32.9992 37.7835 32.9884 37.536C32.9776 37.2885 33.0099 37.0876 33.0601 37.084Z" fill="#263238"/>
<path d="M46.571 15.3335L16.7422 16.7402L17.6904 36.8471L47.5193 35.4404L46.571 15.3335Z" fill="url(#paint35_linear_9433_199270)"/>
<path d="M17.6776 36.8532L16.7305 16.7383L46.571 15.332L47.518 35.4469L17.6776 36.8532ZM16.7484 16.7383L17.6955 36.8281L47.5073 35.4218L46.5602 15.332L16.7484 16.7383Z" fill="#263238"/>
<path d="M46.6754 15.5703C46.5963 15.6721 46.5074 15.7658 46.41 15.8501L45.6135 16.6179L42.6539 19.4053L32.774 28.5426L32.6915 28.6179L32.6018 28.5533L32.3866 28.3955L21.3623 20.3667C19.9776 19.3407 18.8511 18.5049 18.0403 17.9093L17.1471 17.2277C17.0385 17.1543 16.9375 17.0701 16.8457 16.9766C16.9623 17.0369 17.0739 17.1065 17.1793 17.1847L18.1049 17.8161L21.4771 20.2053L32.5444 28.1695L32.7633 28.3273H32.5911L42.5211 19.251L45.5418 16.5282L46.3741 15.8107C46.4659 15.7202 46.5669 15.6397 46.6754 15.5703Z" fill="#263238"/>
<path d="M17.7922 37.0841C17.7348 37.0374 19.8478 34.1746 22.5133 30.6912C25.1787 27.2078 27.3886 24.4203 27.446 24.4634C27.5034 24.5064 25.394 27.3728 22.7285 30.8562C20.063 34.3397 17.8531 37.1271 17.7922 37.0841Z" fill="#263238"/>
<path d="M37.3507 23.7448C37.4081 23.6946 39.7543 26.3278 42.5884 29.6211C45.4225 32.9144 47.679 35.6265 47.6108 35.6767C47.5427 35.727 45.2108 33.0938 42.3731 29.7969C39.5354 26.5 37.2933 23.7951 37.3507 23.7448Z" fill="#263238"/>
</g>
<defs>
<linearGradient id="paint0_linear_9433_199270" x1="197.463" y1="101.572" x2="207.839" y2="100.763" gradientUnits="userSpaceOnUse">
<stop stop-color="#005F73"/>
<stop offset="1" stop-color="#6CC24A"/>
</linearGradient>
<linearGradient id="paint1_linear_9433_199270" x1="199.486" y1="100.396" x2="206.78" y2="100.267" gradientUnits="userSpaceOnUse">
<stop stop-color="#005F73"/>
<stop offset="1" stop-color="#6CC24A"/>
</linearGradient>
<linearGradient id="paint2_linear_9433_199270" x1="204.524" y1="100.797" x2="208.288" y2="100.764" gradientUnits="userSpaceOnUse">
<stop stop-color="#005F73"/>
<stop offset="1" stop-color="#6CC24A"/>
</linearGradient>
<linearGradient id="paint3_linear_9433_199270" x1="201.113" y1="110.828" x2="209.749" y2="110.592" gradientUnits="userSpaceOnUse">
<stop stop-color="#005F73"/>
<stop offset="1" stop-color="#6CC24A"/>
</linearGradient>
<linearGradient id="paint4_linear_9433_199270" x1="206.989" y1="105.529" x2="210.141" y2="105.509" gradientUnits="userSpaceOnUse">
<stop stop-color="#005F73"/>
<stop offset="1" stop-color="#6CC24A"/>
</linearGradient>
<linearGradient id="paint5_linear_9433_199270" x1="204.291" y1="114.133" x2="213.828" y2="113.761" gradientUnits="userSpaceOnUse">
<stop stop-color="#005F73"/>
<stop offset="1" stop-color="#6CC24A"/>
</linearGradient>
<linearGradient id="paint6_linear_9433_199270" x1="210.25" y1="109.176" x2="213.981" y2="109.148" gradientUnits="userSpaceOnUse">
<stop stop-color="#005F73"/>
<stop offset="1" stop-color="#6CC24A"/>
</linearGradient>
<linearGradient id="paint7_linear_9433_199270" x1="219.147" y1="110.542" x2="222.816" y2="110.51" gradientUnits="userSpaceOnUse">
<stop stop-color="#005F73"/>
<stop offset="1" stop-color="#6CC24A"/>
</linearGradient>
<linearGradient id="paint8_linear_9433_199270" x1="220.341" y1="111.614" x2="232.603" y2="110.631" gradientUnits="userSpaceOnUse">
<stop stop-color="#005F73"/>
<stop offset="1" stop-color="#6CC24A"/>
</linearGradient>
<linearGradient id="paint9_linear_9433_199270" x1="220.966" y1="109.643" x2="232.146" y2="109.144" gradientUnits="userSpaceOnUse">
<stop stop-color="#005F73"/>
<stop offset="1" stop-color="#6CC24A"/>
</linearGradient>
<linearGradient id="paint10_linear_9433_199270" x1="218.397" y1="101.695" x2="221.504" y2="101.676" gradientUnits="userSpaceOnUse">
<stop stop-color="#005F73"/>
<stop offset="1" stop-color="#6CC24A"/>
</linearGradient>
<linearGradient id="paint11_linear_9433_199270" x1="224.917" y1="99.1104" x2="237.836" y2="98.6185" gradientUnits="userSpaceOnUse">
<stop stop-color="#005F73"/>
<stop offset="1" stop-color="#6CC24A"/>
</linearGradient>
<linearGradient id="paint12_linear_9433_199270" x1="223.821" y1="103.362" x2="238.514" y2="102.373" gradientUnits="userSpaceOnUse">
<stop stop-color="#005F73"/>
<stop offset="1" stop-color="#6CC24A"/>
</linearGradient>
<linearGradient id="paint13_linear_9433_199270" x1="222.186" y1="105.6" x2="232.887" y2="105.07" gradientUnits="userSpaceOnUse">
<stop stop-color="#005F73"/>
<stop offset="1" stop-color="#6CC24A"/>
</linearGradient>
<linearGradient id="paint14_linear_9433_199270" x1="220.47" y1="93.3034" x2="232.635" y2="92.43" gradientUnits="userSpaceOnUse">
<stop stop-color="#005F73"/>
<stop offset="1" stop-color="#6CC24A"/>
</linearGradient>
<linearGradient id="paint15_linear_9433_199270" x1="222.578" y1="90.2372" x2="236.925" y2="88.8515" gradientUnits="userSpaceOnUse">
<stop stop-color="#005F73"/>
<stop offset="1" stop-color="#6CC24A"/>
</linearGradient>
<linearGradient id="paint16_linear_9433_199270" x1="220.122" y1="84.2442" x2="222.073" y2="84.2346" gradientUnits="userSpaceOnUse">
<stop stop-color="#005F73"/>
<stop offset="1" stop-color="#6CC24A"/>
</linearGradient>
<linearGradient id="paint17_linear_9433_199270" x1="221.463" y1="84.4834" x2="228.923" y2="84.3485" gradientUnits="userSpaceOnUse">
<stop stop-color="#005F73"/>
<stop offset="1" stop-color="#6CC24A"/>
</linearGradient>
<linearGradient id="paint18_linear_9433_199270" x1="225.454" y1="83.4885" x2="239.364" y2="82.8993" gradientUnits="userSpaceOnUse">
<stop stop-color="#005F73"/>
<stop offset="1" stop-color="#6CC24A"/>
</linearGradient>
<linearGradient id="paint19_linear_9433_199270" x1="222.704" y1="86.2638" x2="237.993" y2="84.8404" gradientUnits="userSpaceOnUse">
<stop stop-color="#005F73"/>
<stop offset="1" stop-color="#6CC24A"/>
</linearGradient>
<linearGradient id="paint20_linear_9433_199270" x1="211.17" y1="90.3808" x2="213.407" y2="90.3695" gradientUnits="userSpaceOnUse">
<stop stop-color="#005F73"/>
<stop offset="1" stop-color="#6CC24A"/>
</linearGradient>
<linearGradient id="paint21_linear_9433_199270" x1="199.054" y1="91.5951" x2="210.885" y2="90.875" gradientUnits="userSpaceOnUse">
<stop stop-color="#005F73"/>
<stop offset="1" stop-color="#6CC24A"/>
</linearGradient>
<linearGradient id="paint22_linear_9433_199270" x1="196.201" y1="89.9549" x2="207.147" y2="89.2599" gradientUnits="userSpaceOnUse">
<stop stop-color="#005F73"/>
<stop offset="1" stop-color="#6CC24A"/>
</linearGradient>
<linearGradient id="paint23_linear_9433_199270" x1="200.087" y1="87.2518" x2="212.696" y2="86.0952" gradientUnits="userSpaceOnUse">
<stop stop-color="#005F73"/>
<stop offset="1" stop-color="#6CC24A"/>
</linearGradient>
<linearGradient id="paint24_linear_9433_199270" x1="206.136" y1="86.6935" x2="209.98" y2="86.6649" gradientUnits="userSpaceOnUse">
<stop stop-color="#005F73"/>
<stop offset="1" stop-color="#6CC24A"/>
</linearGradient>
<linearGradient id="paint25_linear_9433_199270" x1="215.255" y1="80.3788" x2="223.201" y2="80.2248" gradientUnits="userSpaceOnUse">
<stop stop-color="#005F73"/>
<stop offset="1" stop-color="#6CC24A"/>
</linearGradient>
<linearGradient id="paint26_linear_9433_199270" x1="208.093" y1="81.8722" x2="216.566" y2="81.55" gradientUnits="userSpaceOnUse">
<stop stop-color="#005F73"/>
<stop offset="1" stop-color="#6CC24A"/>
</linearGradient>
<linearGradient id="paint27_linear_9433_199270" x1="212.975" y1="80.4569" x2="215.671" y2="80.4392" gradientUnits="userSpaceOnUse">
<stop stop-color="#005F73"/>
<stop offset="1" stop-color="#6CC24A"/>
</linearGradient>
<linearGradient id="paint28_linear_9433_199270" x1="215.304" y1="73.0593" x2="225.021" y2="72.7194" gradientUnits="userSpaceOnUse">
<stop stop-color="#005F73"/>
<stop offset="1" stop-color="#6CC24A"/>
</linearGradient>
<linearGradient id="paint29_linear_9433_199270" x1="215.19" y1="71.4182" x2="220.338" y2="71.3613" gradientUnits="userSpaceOnUse">
<stop stop-color="#005F73"/>
<stop offset="1" stop-color="#6CC24A"/>
</linearGradient>
<linearGradient id="paint30_linear_9433_199270" x1="210.757" y1="71.9821" x2="217.078" y2="71.8946" gradientUnits="userSpaceOnUse">
<stop stop-color="#005F73"/>
<stop offset="1" stop-color="#6CC24A"/>
</linearGradient>
<linearGradient id="paint31_linear_9433_199270" x1="96.7308" y1="110.269" x2="170.924" y2="107.341" gradientUnits="userSpaceOnUse">
<stop stop-color="#005F73"/>
<stop offset="1" stop-color="#6CC24A"/>
</linearGradient>
<linearGradient id="paint32_linear_9433_199270" x1="96.9922" y1="76.9643" x2="168.445" y2="72.2924" gradientUnits="userSpaceOnUse">
<stop stop-color="#005F73"/>
<stop offset="1" stop-color="#6CC24A"/>
</linearGradient>
<linearGradient id="paint33_linear_9433_199270" x1="211.118" y1="25.652" x2="245.316" y2="20.6019" gradientUnits="userSpaceOnUse">
<stop stop-color="#005F73"/>
<stop offset="1" stop-color="#6CC24A"/>
</linearGradient>
<linearGradient id="paint34_linear_9433_199270" x1="136.17" y1="25.3593" x2="144.899" y2="1.55853" gradientUnits="userSpaceOnUse">
<stop stop-color="#005F73"/>
<stop offset="1" stop-color="#6CC24A"/>
</linearGradient>
<linearGradient id="paint35_linear_9433_199270" x1="18.5131" y1="35.6888" x2="60.4462" y2="32.0935" gradientUnits="userSpaceOnUse">
<stop stop-color="#005F73"/>
<stop offset="1" stop-color="#6CC24A"/>
</linearGradient>
</defs>
</svg>
