<svg width="16" height="16" viewBox="0 0 16 16" fill="none" xmlns="http://www.w3.org/2000/svg">
<path d="M8.6663 7.83329C8.53964 7.83329 8.41297 7.78662 8.31297 7.68662C8.11964 7.49329 8.11964 7.17329 8.31297 6.97995L13.7796 1.51329C13.973 1.31995 14.293 1.31995 14.4863 1.51329C14.6796 1.70662 14.6796 2.02662 14.4863 2.21995L9.01964 7.68662C8.91964 7.78662 8.79297 7.83329 8.6663 7.83329Z" fill="#6CC24A"/>
<path d="M14.6648 5.03337C14.3915 5.03337 14.1648 4.80671 14.1648 4.53337V1.83337H11.4648C11.1915 1.83337 10.9648 1.60671 10.9648 1.33337C10.9648 1.06004 11.1915 0.833374 11.4648 0.833374H14.6648C14.9382 0.833374 15.1648 1.06004 15.1648 1.33337V4.53337C15.1648 4.80671 14.9382 5.03337 14.6648 5.03337Z" fill="#6CC24A"/>
<path d="M9.9987 15.1667H5.9987C2.3787 15.1667 0.832031 13.62 0.832031 10V6.00004C0.832031 2.38004 2.3787 0.833374 5.9987 0.833374H7.33203C7.60536 0.833374 7.83203 1.06004 7.83203 1.33337C7.83203 1.60671 7.60536 1.83337 7.33203 1.83337H5.9987C2.92536 1.83337 1.83203 2.92671 1.83203 6.00004V10C1.83203 13.0734 2.92536 14.1667 5.9987 14.1667H9.9987C13.072 14.1667 14.1654 13.0734 14.1654 10V8.66671C14.1654 8.39337 14.392 8.16671 14.6654 8.16671C14.9387 8.16671 15.1654 8.39337 15.1654 8.66671V10C15.1654 13.62 13.6187 15.1667 9.9987 15.1667Z" fill="#6CC24A"/>
</svg>
