<svg width="16" height="16" viewBox="0 0 16 16" fill="none" xmlns="http://www.w3.org/2000/svg">
<path d="M6.31328 10.1867C6.18661 10.1867 6.05995 10.14 5.95995 10.04C5.41328 9.49334 5.11328 8.76668 5.11328 8.00001C5.11328 6.40668 6.40661 5.11334 7.99995 5.11334C8.76661 5.11334 9.49328 5.41334 10.0399 5.96001C10.1333 6.05334 10.1866 6.18001 10.1866 6.31334C10.1866 6.44668 10.1333 6.57334 10.0399 6.66668L6.66661 10.04C6.56661 10.14 6.43995 10.1867 6.31328 10.1867ZM7.99995 6.11334C6.95995 6.11334 6.11328 6.96001 6.11328 8.00001C6.11328 8.33334 6.19995 8.65334 6.35995 8.93334L8.93328 6.36001C8.65328 6.20001 8.33328 6.11334 7.99995 6.11334Z" fill="#005F73"/>
<path d="M3.73323 12.34C3.6199 12.34 3.4999 12.3 3.40656 12.22C2.69323 11.6134 2.05323 10.8667 1.50656 10C0.799896 8.90003 0.799896 7.10669 1.50656 6.00003C3.13323 3.45336 5.4999 1.98669 7.9999 1.98669C9.46656 1.98669 10.9132 2.49336 12.1799 3.44669C12.3999 3.61336 12.4466 3.92669 12.2799 4.14669C12.1132 4.36669 11.7999 4.41336 11.5799 4.24669C10.4866 3.42003 9.24656 2.98669 7.9999 2.98669C5.84656 2.98669 3.78656 4.28003 2.34656 6.54003C1.84656 7.32003 1.84656 8.68003 2.34656 9.46003C2.84656 10.24 3.4199 10.9134 4.05323 11.46C4.2599 11.64 4.28656 11.9534 4.10656 12.1667C4.01323 12.28 3.87323 12.34 3.73323 12.34Z" fill="#005F73"/>
<path d="M7.99972 14.0134C7.11305 14.0134 6.24638 13.8334 5.41305 13.48C5.15972 13.3734 5.03972 13.08 5.14638 12.8267C5.25305 12.5734 5.54638 12.4534 5.79972 12.56C6.50638 12.86 7.24638 13.0134 7.99305 13.0134C10.1464 13.0134 12.2064 11.72 13.6464 9.46002C14.1464 8.68002 14.1464 7.32002 13.6464 6.54002C13.4397 6.21335 13.213 5.90002 12.973 5.60669C12.7997 5.39335 12.833 5.08002 13.0464 4.90002C13.2597 4.72669 13.573 4.75335 13.753 4.97335C14.013 5.29335 14.2664 5.64002 14.493 6.00002C15.1997 7.10002 15.1997 8.89335 14.493 10C12.8664 12.5467 10.4997 14.0134 7.99972 14.0134Z" fill="#005F73"/>
<path d="M8.45973 10.8467C8.22639 10.8467 8.01306 10.68 7.96639 10.44C7.91306 10.1667 8.09306 9.90665 8.36639 9.85999C9.09973 9.72665 9.71306 9.11332 9.8464 8.37999C9.89973 8.10665 10.1597 7.93332 10.4331 7.97999C10.7064 8.03332 10.8864 8.29332 10.8331 8.56665C10.6197 9.71999 9.69973 10.6333 8.55306 10.8467C8.51973 10.84 8.49306 10.8467 8.45973 10.8467Z" fill="#005F73"/>
<path d="M1.33427 15.1667C1.2076 15.1667 1.08094 15.12 0.980938 15.02C0.787604 14.8267 0.787604 14.5067 0.980938 14.3134L5.96094 9.33335C6.15427 9.14002 6.47427 9.14002 6.6676 9.33335C6.86094 9.52669 6.86094 9.84669 6.6676 10.04L1.6876 15.02C1.5876 15.12 1.46094 15.1667 1.33427 15.1667Z" fill="#005F73"/>
<path d="M9.68583 6.81336C9.55917 6.81336 9.4325 6.76669 9.3325 6.66669C9.13917 6.47336 9.13917 6.15336 9.3325 5.96002L14.3125 0.980022C14.5058 0.786689 14.8258 0.786689 15.0192 0.980022C15.2125 1.17336 15.2125 1.49336 15.0192 1.68669L10.0392 6.66669C9.93917 6.76669 9.8125 6.81336 9.68583 6.81336Z" fill="#005F73"/>
</svg>
