<svg width="16" height="16" viewBox="0 0 16 16" fill="none" xmlns="http://www.w3.org/2000/svg">
<path d="M0.88776 11.7736C0.88776 11.4202 1.00109 10.9669 1.33443 10.4002L2.51443 8.40691C2.63443 8.20024 2.63443 7.80024 2.51443 7.60024L1.33443 5.60024C0.634426 4.42024 0.914426 3.72691 1.14109 3.41357C1.36776 3.10691 1.94776 2.62691 3.28109 2.94024L5.32776 3.41357C5.54109 3.46691 5.90776 3.36024 6.06776 3.20024L7.72109 1.54691C8.54776 0.720241 9.25443 0.786908 9.60109 0.900241C9.94776 1.01357 10.5611 1.37357 10.7544 2.52024L11.1078 4.64691C11.1411 4.84691 11.3544 5.13357 11.5344 5.22024L13.8878 6.40024C14.9611 6.93357 15.1211 7.63357 15.1211 8.00024C15.1211 8.36691 14.9611 9.06691 13.8878 9.60024L11.5411 10.7736C11.3611 10.8669 11.1478 11.1536 11.1144 11.3536L10.7611 13.4802C10.5678 14.6336 9.95443 14.9936 9.60776 15.1002C9.26109 15.2069 8.55443 15.2736 7.72776 14.4536L6.06776 12.8002C5.90776 12.6402 5.54776 12.5402 5.32776 12.5869L3.28109 13.0602C1.94776 13.3669 1.36776 12.8936 1.14109 12.5869C1.02109 12.4202 0.88776 12.1536 0.88776 11.7736ZM3.60776 8.00024C3.60776 8.32691 3.52776 8.65357 3.37443 8.91357L2.19443 10.9069C1.84776 11.4869 1.84776 11.8536 1.94776 11.9936C2.04776 12.1336 2.40109 12.2336 3.05443 12.0869L5.10109 11.6136C5.65443 11.4869 6.36776 11.6936 6.77443 12.0936L8.42776 13.7469C8.75443 14.0736 9.07443 14.2202 9.29443 14.1536C9.51443 14.0802 9.69443 13.7736 9.76776 13.3202L10.1211 11.1936C10.2078 10.6802 10.6211 10.1202 11.0878 9.88691L13.4344 8.71357C13.8611 8.50024 14.1144 8.23357 14.1144 8.00024C14.1144 7.76691 13.8611 7.50024 13.4344 7.29357L11.0878 6.11357C10.6211 5.88024 10.2078 5.32024 10.1211 4.80691L9.76776 2.68691C9.69443 2.23357 9.51443 1.92691 9.29443 1.85357C9.07443 1.78024 8.74776 1.93357 8.42776 2.26024L6.77443 3.91357C6.37443 4.31357 5.65443 4.52024 5.10109 4.39357L3.05443 3.92024C2.39443 3.76691 2.04776 3.87357 1.94776 4.01357C1.84776 4.15357 1.85443 4.51357 2.19443 5.10024L3.37443 7.09357C3.52776 7.34691 3.60776 7.67357 3.60776 8.00024Z" fill="#383838" fill-opacity="0.6"/>
</svg>
