<svg width="24" height="24" viewBox="0 0 24 24" fill="none" xmlns="http://www.w3.org/2000/svg">
<path d="M13.75 10.5H6.75C6.34 10.5 6 10.16 6 9.75C6 9.34 6.34 9 6.75 9H13.75C14.16 9 14.5 9.34 14.5 9.75C14.5 10.16 14.16 10.5 13.75 10.5Z" fill="#6CC24A"/>
<path d="M11.13 14.5H6.75C6.34 14.5 6 14.16 6 13.75C6 13.34 6.34 13 6.75 13H11.13C11.54 13 11.88 13.34 11.88 13.75C11.88 14.16 11.54 14.5 11.13 14.5Z" fill="#6CC24A"/>
<path d="M14 6.75H10C9.04 6.75 7.25 6.75 7.25 4C7.25 1.25 9.04 1.25 10 1.25H14C14.96 1.25 16.75 1.25 16.75 4C16.75 4.96 16.75 6.75 14 6.75ZM10 2.75C9.01 2.75 8.75 2.75 8.75 4C8.75 5.25 9.01 5.25 10 5.25H14C15.25 5.25 15.25 4.99 15.25 4C15.25 2.75 14.99 2.75 14 2.75H10Z" fill="#6CC24A"/>
<path d="M15 22.7499H9C3.38 22.7499 2.25 20.1699 2.25 15.9999V9.99993C2.25 5.43993 3.9 3.48993 7.96 3.27993C8.36 3.25993 8.73 3.56993 8.75 3.98993C8.77 4.40993 8.45 4.74993 8.04 4.76993C5.2 4.92993 3.75 5.77993 3.75 9.99993V15.9999C3.75 19.6999 4.48 21.2499 9 21.2499H15C19.52 21.2499 20.25 19.6999 20.25 15.9999V9.99993C20.25 5.77993 18.8 4.92993 15.96 4.76993C15.55 4.74993 15.23 4.38993 15.25 3.97993C15.27 3.56993 15.63 3.24993 16.04 3.26993C20.1 3.48993 21.75 5.43993 21.75 9.98993V15.9899C21.75 20.1699 20.62 22.7499 15 22.7499Z" fill="#6CC24A"/>
<path d="M12.3977 20.3284C12.0177 20.3284 11.6577 20.1885 11.3977 19.9285C11.0877 19.6185 10.9477 19.1684 11.0177 18.6984L11.2077 17.3484C11.2577 16.9984 11.4677 16.5784 11.7177 16.3284L15.2577 12.7884C15.7377 12.3084 16.2077 12.0584 16.7177 12.0084C17.3377 11.9484 17.9577 12.2084 18.5377 12.7884C19.1177 13.3684 19.3777 13.9784 19.3177 14.6084C19.2677 15.1084 19.0077 15.5884 18.5377 16.0684L14.9977 19.6084C14.7477 19.8584 14.3277 20.0685 13.9777 20.1185L12.6277 20.3085C12.5477 20.3185 12.4777 20.3284 12.3977 20.3284ZM16.8877 13.4985C16.8777 13.4985 16.8677 13.4985 16.8577 13.4985C16.7177 13.5085 16.5277 13.6384 16.3177 13.8484L12.7777 17.3884C12.7477 17.4184 12.6977 17.5185 12.6977 17.5585L12.5177 18.8085L13.7677 18.6284C13.8077 18.6184 13.9077 18.5684 13.9377 18.5384L17.4777 14.9985C17.6877 14.7785 17.8177 14.5984 17.8277 14.4584C17.8477 14.2584 17.6477 14.0184 17.4777 13.8484C17.3177 13.6884 17.0877 13.4985 16.8877 13.4985Z" fill="#6CC24A"/>
<path d="M17.4987 16.7983C17.4287 16.7983 17.3587 16.7883 17.2987 16.7683C15.9787 16.3983 14.9287 15.3483 14.5587 14.0283C14.4487 13.6283 14.6787 13.2183 15.0787 13.0983C15.4787 12.9883 15.8887 13.2183 15.9987 13.6183C16.2287 14.4383 16.8787 15.0883 17.6987 15.3183C18.0987 15.4283 18.3287 15.8483 18.2187 16.2483C18.1287 16.5783 17.8287 16.7983 17.4987 16.7983Z" fill="#6CC24A"/>
</svg>
