<svg width="16" height="16" viewBox="0 0 16 16" fill="none" xmlns="http://www.w3.org/2000/svg">
<path d="M7.28662 15.1665C6.96662 15.1665 6.64662 15.0865 6.35328 14.9198C5.75995 14.5865 5.40662 13.9932 5.40662 13.3198V9.75317C5.40662 9.41317 5.18662 8.91316 4.97995 8.65316L2.44662 5.99316C2.02662 5.57316 1.69995 4.83985 1.69995 4.29985V2.75317C1.69995 1.67984 2.51328 0.839844 3.54662 0.839844H12.4333C13.4533 0.839844 14.28 1.66652 14.28 2.68652V4.1665C14.28 4.8665 13.86 5.67315 13.46 6.06649C13.2666 6.25982 12.9466 6.25982 12.7533 6.06649C12.56 5.87315 12.56 5.55316 12.7533 5.35982C13 5.11316 13.28 4.55984 13.28 4.1665V2.68652C13.28 2.21986 12.9 1.83984 12.4333 1.83984H3.55328C3.07995 1.83984 2.70662 2.23984 2.70662 2.75317V4.29985C2.70662 4.54651 2.90662 5.03317 3.16662 5.29317L5.73328 7.99316C6.07328 8.41316 6.40662 9.11984 6.40662 9.75317V13.3198C6.40662 13.7598 6.70662 13.9732 6.83995 14.0465C7.12662 14.2065 7.46662 14.1998 7.73328 14.0398L8.66662 13.4398C8.89995 13.2932 9.20662 13.3598 9.35995 13.5932C9.50662 13.8265 9.43995 14.1332 9.20662 14.2865L8.26662 14.8932C7.96662 15.0732 7.62662 15.1665 7.28662 15.1665Z" fill="white"/>
<path d="M11.2533 13.4998C9.97334 13.4998 8.76667 12.8198 8.11334 11.7198C7.76667 11.1598 7.58667 10.5065 7.58667 9.83317C7.58667 7.81317 9.23334 6.1665 11.2533 6.1665C13.2733 6.1665 14.92 7.81317 14.92 9.83317C14.92 10.5065 14.7333 11.1599 14.3867 11.7265C13.74 12.8199 12.54 13.4998 11.2533 13.4998ZM11.2533 7.1665C9.78 7.1665 8.58667 8.35984 8.58667 9.83317C8.58667 10.3198 8.72 10.7932 8.97334 11.1998C9.45334 12.0065 10.3267 12.4998 11.2533 12.4998C12.2 12.4998 13.0533 12.0198 13.5333 11.2065C13.7867 10.7932 13.92 10.3198 13.92 9.83317C13.92 8.35984 12.7267 7.1665 11.2533 7.1665Z" fill="white"/>
<path d="M12.1001 11.1599C11.9735 11.1599 11.8468 11.1133 11.7468 11.0133L10.0735 9.33995C9.88013 9.14661 9.88013 8.82661 10.0735 8.63328C10.2668 8.43995 10.5868 8.43995 10.7801 8.63328L12.4535 10.3066C12.6468 10.5 12.6468 10.82 12.4535 11.0133C12.3601 11.1133 12.2335 11.1599 12.1001 11.1599Z" fill="white"/>
<path d="M10.4134 11.18C10.2867 11.18 10.16 11.1333 10.06 11.0333C9.86671 10.84 9.86671 10.52 10.06 10.3266L11.7334 8.6533C11.9267 8.45997 12.2467 8.45997 12.44 8.6533C12.6334 8.84663 12.6334 9.16663 12.44 9.35997L10.7667 11.0333C10.6667 11.1333 10.54 11.18 10.4134 11.18Z" fill="white"/>
<path d="M7.28662 15.1668C6.96662 15.1668 6.64662 15.0868 6.35995 14.9268C5.76662 14.5935 5.41328 13.9935 5.41328 13.3202V9.7535C5.41328 9.42017 5.19328 8.91348 4.97995 8.65348L2.44662 5.99349C2.02662 5.56016 1.69995 4.8335 1.69995 4.30017V2.74683C1.69995 1.67349 2.51328 0.833496 3.54662 0.833496H12.44C13.46 0.833496 14.2866 1.66018 14.2866 2.68018V4.16016C14.2866 4.86016 13.8733 5.64685 13.4733 6.06018L12.2733 7.12016C12.1533 7.22682 11.9799 7.26681 11.8266 7.23348C11.6466 7.18681 11.4533 7.16683 11.2533 7.16683C9.77995 7.16683 8.58662 8.36016 8.58662 9.8335C8.58662 10.3202 8.71995 10.7935 8.97328 11.2068C9.18662 11.5602 9.47328 11.8535 9.80662 12.0602C9.95328 12.1535 10.0466 12.3135 10.0466 12.4868V12.7135C10.0466 13.2402 9.72662 13.9802 9.19328 14.2935L8.27328 14.8868C7.97328 15.0735 7.62662 15.1668 7.28662 15.1668ZM3.55328 1.8335C3.07995 1.8335 2.70662 2.23349 2.70662 2.74683V4.30017C2.70662 4.54017 2.90662 5.0335 3.17328 5.30017L5.73995 8.00016C6.07995 8.42016 6.41995 9.13351 6.41995 9.76017V13.3268C6.41995 13.7668 6.72662 13.9868 6.85328 14.0602C7.13995 14.2202 7.47995 14.2135 7.73995 14.0535L8.67328 13.4535C8.85328 13.3468 9.03328 13.0068 9.04662 12.7668C8.67995 12.4935 8.35995 12.1402 8.11995 11.7402C7.77328 11.1735 7.58662 10.5202 7.58662 9.85352C7.58662 7.83352 9.23328 6.18685 11.2533 6.18685C11.4399 6.18685 11.6266 6.20018 11.8 6.22685L12.7866 5.35352C13.0133 5.12018 13.2933 4.56684 13.2933 4.1735V2.69348C13.2933 2.22681 12.9133 1.84684 12.4466 1.84684H3.55328V1.8335Z" fill="white"/>
</svg>
