<svg width="16" height="16" viewBox="0 0 16 16" fill="none" xmlns="http://www.w3.org/2000/svg">
<path d="M7.28589 15.1665C6.96589 15.1665 6.64588 15.0865 6.35255 14.9198C5.75922 14.5865 5.40588 13.9932 5.40588 13.3198V9.75317C5.40588 9.41317 5.18589 8.91316 4.97922 8.65316L2.44589 5.99316C2.02589 5.57316 1.69922 4.83985 1.69922 4.29985V2.75317C1.69922 1.67984 2.51255 0.839844 3.54589 0.839844H12.4326C13.4526 0.839844 14.2792 1.66652 14.2792 2.68652V4.1665C14.2792 4.8665 13.8592 5.67315 13.4592 6.06649C13.2659 6.25982 12.9459 6.25982 12.7526 6.06649C12.5592 5.87315 12.5592 5.55316 12.7526 5.35982C12.9992 5.11316 13.2792 4.55984 13.2792 4.1665V2.68652C13.2792 2.21986 12.8992 1.83984 12.4326 1.83984H3.55255C3.07922 1.83984 2.70589 2.23984 2.70589 2.75317V4.29985C2.70589 4.54651 2.90589 5.03317 3.16589 5.29317L5.73255 7.99316C6.07255 8.41316 6.40588 9.11984 6.40588 9.75317V13.3198C6.40588 13.7598 6.70588 13.9732 6.83922 14.0465C7.12589 14.2065 7.46589 14.1998 7.73255 14.0398L8.66588 13.4398C8.89922 13.2932 9.20588 13.3598 9.35922 13.5932C9.50588 13.8265 9.43922 14.1332 9.20588 14.2865L8.26588 14.8932C7.96588 15.0732 7.62589 15.1665 7.28589 15.1665Z" fill="#383838"/>
<path d="M11.2526 13.5003C9.9726 13.5003 8.76594 12.8203 8.1126 11.7203C7.76594 11.1603 7.58594 10.507 7.58594 9.83366C7.58594 7.81366 9.2326 6.16699 11.2526 6.16699C13.2726 6.16699 14.9193 7.81366 14.9193 9.83366C14.9193 10.507 14.7326 11.1603 14.3859 11.727C13.7393 12.8203 12.5393 13.5003 11.2526 13.5003ZM11.2526 7.16699C9.77927 7.16699 8.58594 8.36033 8.58594 9.83366C8.58594 10.3203 8.71927 10.7937 8.9726 11.2003C9.4526 12.007 10.3259 12.5003 11.2526 12.5003C12.1993 12.5003 13.0526 12.0203 13.5326 11.207C13.7859 10.7937 13.9193 10.3203 13.9193 9.83366C13.9193 8.36033 12.7259 7.16699 11.2526 7.16699Z" fill="#383838"/>
<path d="M12.1014 11.1599C11.9747 11.1599 11.848 11.1133 11.748 11.0133L10.0747 9.33995C9.88135 9.14661 9.88135 8.82661 10.0747 8.63328C10.268 8.43995 10.588 8.43995 10.7814 8.63328L12.4547 10.3066C12.648 10.5 12.648 10.82 12.4547 11.0133C12.3614 11.1133 12.2347 11.1599 12.1014 11.1599Z" fill="#383838"/>
<path d="M10.4124 11.1795C10.2857 11.1795 10.1591 11.1328 10.0591 11.0328C9.86573 10.8395 9.86573 10.5195 10.0591 10.3262L11.7324 8.65281C11.9257 8.45948 12.2457 8.45948 12.4391 8.65281C12.6324 8.84615 12.6324 9.16614 12.4391 9.35948L10.7657 11.0328C10.6657 11.1328 10.5391 11.1795 10.4124 11.1795Z" fill="#383838"/>
<path d="M7.28589 15.1663C6.96589 15.1663 6.64588 15.0864 6.35922 14.9264C5.76588 14.593 5.41255 13.993 5.41255 13.3197V9.75301C5.41255 9.41968 5.19255 8.913 4.97922 8.653L2.44589 5.993C2.02589 5.55967 1.69922 4.83302 1.69922 4.29968V2.74634C1.69922 1.673 2.51255 0.833008 3.54589 0.833008H12.4392C13.4592 0.833008 14.2859 1.65969 14.2859 2.67969V4.15967C14.2859 4.85967 13.8726 5.64636 13.4726 6.05969L12.2726 7.11967C12.1526 7.22634 11.9792 7.26632 11.8259 7.23299C11.6459 7.18633 11.4526 7.16634 11.2526 7.16634C9.77922 7.16634 8.58589 8.35967 8.58589 9.83301C8.58589 10.3197 8.71922 10.793 8.97255 11.2063C9.18588 11.5597 9.47255 11.853 9.80588 12.0597C9.95255 12.153 10.0459 12.313 10.0459 12.4863V12.713C10.0459 13.2397 9.72588 13.9797 9.19255 14.293L8.27255 14.8864C7.97255 15.073 7.62589 15.1663 7.28589 15.1663ZM3.55255 1.83301C3.07922 1.83301 2.70589 2.233 2.70589 2.74634V4.29968C2.70589 4.53968 2.90589 5.03302 3.17255 5.29968L5.73922 7.99967C6.07922 8.41967 6.41922 9.13302 6.41922 9.75968V13.3263C6.41922 13.7663 6.72588 13.9864 6.85255 14.0597C7.13922 14.2197 7.47922 14.213 7.73922 14.053L8.67255 13.453C8.85255 13.3463 9.03255 13.0064 9.04588 12.7664C8.67922 12.493 8.35922 12.1397 8.11922 11.7397C7.77255 11.173 7.58589 10.5197 7.58589 9.85303C7.58589 7.83303 9.23255 6.18636 11.2526 6.18636C11.4392 6.18636 11.6259 6.19969 11.7992 6.22636L12.7859 5.35303C13.0126 5.11969 13.2926 4.56635 13.2926 4.17301V2.69299C13.2926 2.22633 12.9126 1.84635 12.4459 1.84635H3.55255V1.83301Z" fill="#383838"/>
</svg>
