<svg width="16" height="16" viewBox="0 0 16 16" fill="none" xmlns="http://www.w3.org/2000/svg">
<path d="M13.9987 3.5H9.33203C9.0587 3.5 8.83203 3.27333 8.83203 3C8.83203 2.72667 9.0587 2.5 9.33203 2.5H13.9987C14.272 2.5 14.4987 2.72667 14.4987 3C14.4987 3.27333 14.272 3.5 13.9987 3.5Z" fill="#6CC24A"/>
<path d="M13.9987 6.83398H9.33203C9.0587 6.83398 8.83203 6.60732 8.83203 6.33398C8.83203 6.06065 9.0587 5.83398 9.33203 5.83398H13.9987C14.272 5.83398 14.4987 6.06065 14.4987 6.33398C14.4987 6.60732 14.272 6.83398 13.9987 6.83398Z" fill="#6CC24A"/>
<path d="M14 10.166H2C1.72667 10.166 1.5 9.93935 1.5 9.66602C1.5 9.39268 1.72667 9.16602 2 9.16602H14C14.2733 9.16602 14.5 9.39268 14.5 9.66602C14.5 9.93935 14.2733 10.166 14 10.166Z" fill="#6CC24A"/>
<path d="M14 13.5H2C1.72667 13.5 1.5 13.2733 1.5 13C1.5 12.7267 1.72667 12.5 2 12.5H14C14.2733 12.5 14.5 12.7267 14.5 13C14.5 13.2733 14.2733 13.5 14 13.5Z" fill="#6CC24A"/>
<path d="M5.2787 7.16602H3.38536C2.3587 7.16602 1.83203 6.64602 1.83203 5.61268V3.71935C1.83203 2.69268 2.35203 2.16602 3.38536 2.16602H5.28536C6.31203 2.16602 6.8387 2.68602 6.8387 3.71935V5.61935C6.83203 6.64602 6.31203 7.16602 5.2787 7.16602ZM3.38536 3.16602C2.91203 3.16602 2.83203 3.24602 2.83203 3.71935V5.61935C2.83203 6.09268 2.91203 6.17268 3.38536 6.17268H5.28536C5.7587 6.17268 5.8387 6.09268 5.8387 5.61935V3.71935C5.8387 3.24602 5.7587 3.16602 5.28536 3.16602H3.38536Z" fill="#6CC24A"/>
</svg>
