<svg width="17" height="16" viewBox="0 0 17 16" fill="none" xmlns="http://www.w3.org/2000/svg">
<path d="M14.2663 3.5H9.59961C9.32628 3.5 9.09961 3.27333 9.09961 3C9.09961 2.72667 9.32628 2.5 9.59961 2.5H14.2663C14.5396 2.5 14.7663 2.72667 14.7663 3C14.7663 3.27333 14.5396 3.5 14.2663 3.5Z" fill="white"/>
<path d="M14.2663 6.83203H9.59961C9.32628 6.83203 9.09961 6.60536 9.09961 6.33203C9.09961 6.0587 9.32628 5.83203 9.59961 5.83203H14.2663C14.5396 5.83203 14.7663 6.0587 14.7663 6.33203C14.7663 6.60536 14.5396 6.83203 14.2663 6.83203Z" fill="white"/>
<path d="M14.2666 10.168H2.2666C1.99327 10.168 1.7666 9.9413 1.7666 9.66797C1.7666 9.39464 1.99327 9.16797 2.2666 9.16797H14.2666C14.5399 9.16797 14.7666 9.39464 14.7666 9.66797C14.7666 9.9413 14.5399 10.168 14.2666 10.168Z" fill="white"/>
<path d="M14.2666 13.5H2.2666C1.99327 13.5 1.7666 13.2733 1.7666 13C1.7666 12.7267 1.99327 12.5 2.2666 12.5H14.2666C14.5399 12.5 14.7666 12.7267 14.7666 13C14.7666 13.2733 14.5399 13.5 14.2666 13.5Z" fill="white"/>
<path d="M5.54628 7.16797H3.65294C2.62628 7.16797 2.09961 6.64797 2.09961 5.61464V3.7213C2.09961 2.69464 2.61961 2.16797 3.65294 2.16797H5.55294C6.57961 2.16797 7.10628 2.68797 7.10628 3.7213V5.6213C7.09961 6.64797 6.57961 7.16797 5.54628 7.16797ZM3.65294 3.16797C3.17961 3.16797 3.09961 3.24797 3.09961 3.7213V5.6213C3.09961 6.09464 3.17961 6.17464 3.65294 6.17464H5.55294C6.02628 6.17464 6.10628 6.09464 6.10628 5.6213V3.7213C6.10628 3.24797 6.02628 3.16797 5.55294 3.16797H3.65294Z" fill="white"/>
</svg>
