<svg width="16" height="17" viewBox="0 0 16 17" fill="none" xmlns="http://www.w3.org/2000/svg">
<g clip-path="url(#clip0_6470_122934)">
<path d="M6.14986 12.875C6.14986 14.0166 5.64205 15.0395 4.84009 15.7298C4.81854 15.7303 4.7967 15.7307 4.77518 15.7307C2.29407 15.7307 0.922852 12.875 0.922852 12.875C0.922852 12.875 2.29407 10.0195 4.77518 10.0195C4.79673 10.0195 4.81857 10.0198 4.84009 10.0204C5.64205 10.7107 6.14986 11.7336 6.14986 12.875Z" fill="#E5E5E5"/>
<path d="M11.8646 10.9607C11.8398 10.8524 11.7552 10.7678 11.647 10.7429C11.5948 10.7309 10.3605 10.4565 9.72096 11.0964C9.4287 11.3888 9.30596 11.8069 9.25461 12.1734C9.00393 11.9064 8.6597 11.5667 8.24495 11.2252C7.72169 10.7944 7.20535 10.4558 6.69867 10.2107C6.8756 9.84336 6.94935 9.52524 6.95318 9.50866C6.97941 9.39359 6.93314 9.27407 6.83638 9.20651C6.788 9.17273 5.63981 8.38344 4.67688 8.75587C4.12774 8.9682 3.78768 9.49493 3.58998 9.94024C2.92068 10.1797 2.28279 10.6223 1.70557 11.2533C1.03148 11.9904 0.677133 12.7205 0.662371 12.7513C0.624262 12.8306 0.624262 12.9231 0.662371 13.0024C0.677133 13.0331 1.03148 13.7633 1.70555 14.5003C2.61626 15.496 3.67801 16.0223 4.77596 16.0223C5.8739 16.0223 7.04103 15.5197 8.24483 14.5284C8.65958 14.1869 9.00393 13.8473 9.25461 13.5802C9.30596 13.9467 9.4287 14.3648 9.72096 14.6572C10.0612 14.9978 10.57 15.0794 10.9794 15.0794C11.3394 15.0794 11.6225 15.0162 11.647 15.0107C11.7552 14.9858 11.8398 14.9012 11.8646 14.7929C11.8766 14.7409 12.148 13.5196 11.522 12.8768C12.148 12.234 11.8766 11.0126 11.8646 10.9607ZM4.88604 9.29683C5.35135 9.1168 5.98218 9.378 6.33093 9.57474C6.29468 9.68473 6.23986 9.83099 6.16348 9.9854C5.69079 9.81626 5.22755 9.73126 4.776 9.73126C4.63419 9.73126 4.49298 9.74004 4.35262 9.75749C4.48849 9.56249 4.66544 9.38208 4.88604 9.29683ZM4.776 15.4424C3.83607 15.4424 2.95048 14.9974 2.14377 14.1201C1.68125 13.617 1.37719 13.1066 1.25121 12.8768C1.543 12.3456 2.79046 10.3112 4.776 10.3112C6.73504 10.3112 8.58014 12.2679 9.10675 12.8768C8.58002 13.4857 6.73504 15.4424 4.776 15.4424ZM11.3312 14.478C10.9872 14.5238 10.4144 14.5306 10.1311 14.2473C9.79359 13.9095 9.7973 13.1953 9.79866 12.9263L9.79879 12.8768L9.79866 12.8273C9.7973 12.5584 9.79359 11.8442 10.1311 11.5063C10.3289 11.3085 10.6711 11.2528 10.9767 11.2528C11.106 11.2528 11.2288 11.2628 11.3313 11.2762C11.3764 11.6214 11.3827 12.1958 11.1012 12.4775C11.0475 12.5312 10.9802 12.5771 10.9011 12.614C10.7989 12.6616 10.7336 12.7641 10.7336 12.8768C10.7336 12.9895 10.7989 13.0921 10.9011 13.1396C10.9802 13.1765 11.0475 13.2225 11.1012 13.2762C11.3829 13.5581 11.3764 14.1332 11.3312 14.478Z" fill="#383838"/>
<path d="M7.74992 12.5859H7.23729C7.07706 12.5859 6.94727 12.7159 6.94727 12.876C6.94727 13.0361 7.07706 13.166 7.23729 13.166H7.74992C7.91015 13.166 8.03995 13.0361 8.03995 12.876C8.03995 12.7159 7.91015 12.5859 7.74992 12.5859Z" fill="#383838"/>
<path d="M11.1134 1.1875C8.70419 1.1875 6.74414 3.14859 6.74414 5.55908C6.74414 6.55882 7.08688 7.5278 7.71185 8.30287L7.57265 9.17691C7.55731 9.27268 7.59097 9.36969 7.66211 9.43551C7.73326 9.50134 7.83262 9.52732 7.9269 9.50443L8.83015 9.28703C9.51625 9.70847 10.3029 9.93069 11.1134 9.93069C13.5226 9.93069 15.4826 7.96965 15.4826 5.55908C15.4826 3.14859 13.5226 1.1875 11.1134 1.1875ZM11.1134 9.35063C10.3735 9.35063 9.65681 9.13732 9.04074 8.7337C8.99311 8.70252 8.9378 8.68631 8.88175 8.68631C8.8591 8.68631 8.83634 8.68891 8.81394 8.69436L8.21384 8.83875L8.3054 8.26426C8.31876 8.18012 8.29451 8.09425 8.23895 8.02954C7.649 7.34307 7.3242 6.46573 7.3242 5.55908C7.3242 3.4684 9.02404 1.7675 11.1134 1.7675C13.2029 1.7675 14.9026 3.4684 14.9026 5.55908C14.9026 7.64981 13.2027 9.35063 11.1134 9.35063Z" fill="#383838"/>
<path d="M13.3229 3.6494C12.8782 3.32887 12.2918 3.15234 11.6719 3.15234C11.052 3.15234 10.4658 3.32887 10.0211 3.6494C9.54781 3.99058 9.28711 4.45334 9.28711 4.95242C9.28711 5.25893 9.38944 5.56101 9.58295 5.82602C9.67749 5.95536 9.85888 5.98369 9.98818 5.88915C10.1176 5.79467 10.1458 5.61324 10.0514 5.4839C9.92916 5.31655 9.86717 5.13773 9.86717 4.95242C9.86717 4.64482 10.0422 4.34913 10.3602 4.11989C10.7069 3.87 11.1728 3.73238 11.6719 3.73238C12.1712 3.73238 12.637 3.87 12.9836 4.11989C13.3016 4.34913 13.4768 4.64482 13.4768 4.95242C13.4768 5.52697 12.8709 6.02942 12.0361 6.14715C11.8775 6.16951 11.7671 6.31622 11.7894 6.47482C11.8099 6.61968 11.934 6.72434 12.0762 6.72434C12.0897 6.72434 12.1034 6.72341 12.117 6.72147C13.241 6.56293 14.0568 5.81894 14.0568 4.95239C14.0569 4.45331 13.7962 3.99056 13.3229 3.6494Z" fill="#383838"/>
<path d="M10.5508 7.67631C11.7077 7.67631 12.6456 7.00024 12.6456 6.16631C12.6456 5.33232 11.7077 4.65625 10.5508 4.65625C9.39395 4.65625 8.45605 5.33232 8.45605 6.16631C8.45605 7.00024 9.39395 7.67631 10.5508 7.67631Z" fill="#E5E5E5"/>
<path d="M10.5492 6.72924C10.0236 6.72924 9.6546 6.5311 9.49845 6.36138C9.39006 6.24355 9.39761 6.06007 9.51553 5.95162C9.63332 5.84318 9.81682 5.85075 9.92521 5.96863C9.95824 6.00445 10.1729 6.14924 10.5492 6.14924C10.9255 6.14924 11.1401 6.00448 11.1731 5.96861C11.2816 5.85079 11.4651 5.84313 11.5829 5.95164C11.7006 6.06011 11.7083 6.24355 11.5998 6.36141C11.4437 6.5311 11.0748 6.72924 10.5492 6.72924Z" fill="#383838"/>
<path d="M3.53609 12.6292C3.37593 12.6292 3.24609 12.4994 3.24609 12.3392V12.0946C3.24609 11.9345 3.37593 11.8047 3.53609 11.8047C3.69626 11.8047 3.82609 11.9345 3.82609 12.0946V12.3392C3.82609 12.4994 3.69626 12.6292 3.53609 12.6292Z" fill="#383838"/>
</g>
<defs>
<clipPath id="clip0_6470_122934">
<rect width="15.6522" height="15.6522" fill="white" transform="translate(0.228516 0.785156)"/>
</clipPath>
</defs>
</svg>
