<svg width="20" height="20" viewBox="0 0 20 20" fill="none" xmlns="http://www.w3.org/2000/svg">
<g opacity="0.8">
<path d="M5.375 18.3327C5.03333 18.3327 4.75 18.0493 4.75 17.7077V2.29102C4.75 1.94935 5.03333 1.66602 5.375 1.66602C5.71667 1.66602 6 1.94935 6 2.29102V17.7077C6 18.0493 5.71667 18.3327 5.375 18.3327Z" fill="#FFAB2C"/>
<path opacity="0.4" d="M12.6667 5.9658L5.91673 3.04914C5.81673 2.99914 5.7084 3.0158 5.61673 3.07414C5.5334 3.13247 5.4834 3.22414 5.4834 3.33247V14.1658C5.4834 14.2741 5.54173 14.3741 5.6334 14.4325C5.6834 14.4658 5.74173 14.4825 5.80007 14.4825C5.85007 14.4825 5.89173 14.4741 5.94173 14.4491L12.8584 11.0325C12.8584 11.0325 12.8584 11.0325 12.8667 11.0325C14.2501 10.3158 14.9917 9.3908 14.9501 8.4158C14.9001 7.43247 14.0917 6.5658 12.6667 5.9658Z" fill="#F4A261"/>
</g>
</svg>
