<svg width="16" height="16" viewBox="0 0 16 16" fill="none" xmlns="http://www.w3.org/2000/svg">
<path d="M10.5601 14.6666H5.44007C2.64673 14.6666 2.0934 12.9799 3.00007 10.9266L3.96007 8.74658C3.96007 8.74658 6.00007 8.66658 8.00007 9.33325C10.0001 9.99991 11.8867 8.73991 11.8867 8.73991L12.0134 8.65991L13.0067 10.9332C13.9001 12.9866 13.3134 14.6666 10.5601 14.6666Z" fill="#FC5474"/>
<path d="M10.2935 4.49325H10.1869L11.6069 7.73325L11.3335 7.90658C11.3202 7.91325 9.81354 8.87992 8.31354 8.38658C6.74688 7.85992 5.17354 7.76658 4.40021 7.75325L5.82687 4.49325H5.62687C5.19354 4.49325 4.79354 4.31992 4.50688 4.03325C4.22021 3.74659 4.04688 3.34659 4.04688 2.91325C4.04688 2.04659 4.75354 1.33325 5.62687 1.33325H10.3669C10.8069 1.33325 11.2002 1.51325 11.4869 1.79992C11.8602 2.17325 12.0535 2.71992 11.9069 3.29992C11.7335 4.01992 11.0402 4.49325 10.2935 4.49325Z" fill="#FC5474"/>
</svg>
