<svg width="13" height="13" viewBox="0 0 13 13" fill="none" xmlns="http://www.w3.org/2000/svg">
<path d="M8.12739 11.5632H4.37087C3.06 11.5632 2.46326 11.074 2.19913 10.6681C1.81272 10.0713 1.82739 9.25448 2.24315 8.30557L4.11652 4.05014C3.85728 3.98166 3.61761 3.8447 3.42685 3.65394C3.14804 3.37024 2.98174 2.97894 2.98174 2.57296C2.98174 1.73166 3.66652 1.04688 4.50782 1.04688H7.98554C8.39152 1.04688 8.77793 1.20829 9.06652 1.49688C9.44804 1.8784 9.59967 2.42133 9.4725 2.9447C9.34532 3.46807 8.91489 3.88383 8.38663 4.03546L10.2551 8.31046C10.666 9.25448 10.6807 10.0713 10.2893 10.6681C10.0252 11.074 9.42848 11.5632 8.12739 11.5632ZM4.50782 1.78057C4.0725 1.78057 3.71543 2.13764 3.71543 2.57296C3.71543 2.78329 3.80348 2.98872 3.94532 3.13546C4.09206 3.2822 4.2975 3.36535 4.50782 3.36535H4.65456C4.77685 3.36535 4.89424 3.42894 4.96272 3.53166C5.03119 3.63437 5.04098 3.76644 4.99206 3.87894L2.91326 8.59905C2.60511 9.3034 2.56598 9.89524 2.81054 10.267C3.1138 10.7317 3.82304 10.8295 4.36598 10.8295H8.1225C8.66054 10.8295 9.36489 10.7317 9.67304 10.267C9.91761 9.89035 9.88337 9.3034 9.58011 8.60394L7.52087 3.87894C7.47196 3.76644 7.48174 3.63437 7.55022 3.53166C7.61869 3.42894 7.73119 3.36535 7.85837 3.36535H7.93663C8.32793 3.36535 8.68011 3.1159 8.76326 2.76861C8.83174 2.48981 8.75348 2.2159 8.55293 2.01535C8.4013 1.86372 8.20076 1.78057 7.99043 1.78057H4.50782V1.78057Z" fill="#888888"/>
<path d="M7.14938 7.79089C6.82655 7.79089 6.47927 7.74687 6.13199 7.62948C4.74286 7.16481 3.3097 7.21372 3.29503 7.21372C3.09938 7.24307 2.92329 7.06209 2.91351 6.86155C2.90373 6.661 3.06514 6.48981 3.26568 6.48003C3.32927 6.47513 4.85046 6.42622 6.36188 6.93003C7.63362 7.35557 8.8809 6.5485 8.89557 6.53872C9.06188 6.42622 9.29177 6.47513 9.40427 6.64144C9.51677 6.80774 9.47275 7.03763 9.30155 7.15013C9.25753 7.18437 8.32818 7.79089 7.14938 7.79089Z" fill="#888888"/>
</svg>
