<svg width="16" height="16" viewBox="0 0 16 16" fill="none" xmlns="http://www.w3.org/2000/svg">
<path d="M9.9987 15.1663H5.9987C2.3787 15.1663 0.832031 13.6197 0.832031 9.99967V5.99967C0.832031 2.37967 2.3787 0.833008 5.9987 0.833008H9.9987C13.6187 0.833008 15.1654 2.37967 15.1654 5.99967V9.99967C15.1654 13.6197 13.6187 15.1663 9.9987 15.1663ZM5.9987 1.83301C2.92536 1.83301 1.83203 2.92634 1.83203 5.99967V9.99967C1.83203 13.073 2.92536 14.1663 5.9987 14.1663H9.9987C13.072 14.1663 14.1654 13.073 14.1654 9.99967V5.99967C14.1654 2.92634 13.072 1.83301 9.9987 1.83301H5.9987Z" fill="white"/>
<path d="M14.6649 6.16699H1.35156C1.07823 6.16699 0.851562 5.94033 0.851562 5.66699C0.851562 5.39366 1.07823 5.16699 1.35156 5.16699H14.6649C14.9382 5.16699 15.1649 5.39366 15.1649 5.66699C15.1649 5.94033 14.9382 6.16699 14.6649 6.16699Z" fill="white"/>
<path d="M14.6649 10.833H1.35156C1.07823 10.833 0.851562 10.6063 0.851562 10.333C0.851562 10.0597 1.07823 9.83301 1.35156 9.83301H14.6649C14.9382 9.83301 15.1649 10.0597 15.1649 10.333C15.1649 10.6063 14.9382 10.833 14.6649 10.833Z" fill="white"/>
<path d="M5.67188 15.1598C5.39854 15.1598 5.17188 14.9332 5.17188 14.6598V1.33984C5.17188 1.06651 5.39854 0.839844 5.67188 0.839844C5.94521 0.839844 6.17188 1.06651 6.17188 1.33984V14.6532C6.17188 14.9332 5.95188 15.1598 5.67188 15.1598Z" fill="white"/>
<path d="M10.3398 15.1598C10.0665 15.1598 9.83984 14.9332 9.83984 14.6598V1.33984C9.83984 1.06651 10.0665 0.839844 10.3398 0.839844C10.6132 0.839844 10.8398 1.06651 10.8398 1.33984V14.6532C10.8398 14.9332 10.6198 15.1598 10.3398 15.1598Z" fill="white"/>
</svg>
