<svg width="557" height="674" viewBox="0 0 557 674" fill="none" xmlns="http://www.w3.org/2000/svg">
<g opacity="0.2">
<path d="M-14.5792 0.69043L-14.5859 0.711827H21.5482L21.5415 0.69043H-14.5792Z" fill="#FDFEFE"/>
<path d="M21.5561 0.69043L21.5488 0.711827H57.6835L57.6762 0.69043H21.5561Z" fill="white"/>
<path d="M57.6908 0.69043L57.6836 0.711827H93.8182L93.8111 0.69043H57.6908Z" fill="#F7F7F7"/>
<path d="M93.8257 0.69043L93.8184 0.711827H129.953L129.946 0.69043H93.8257Z" fill="#E7E7E7"/>
<path d="M129.958 0.69043L129.951 0.711827H166.086L166.079 0.69043H129.958Z" fill="#E7E7E7"/>
<path d="M166.097 0.69043L166.09 0.711827H202.224L202.217 0.69043H166.097Z" fill="white"/>
<path d="M202.23 0.69043L202.223 0.711827H238.357L238.35 0.69043H202.23Z" fill="#F7F7F7"/>
<path d="M238.367 0.69043L238.359 0.711827H274.494L274.487 0.69043H238.367Z" fill="#FDFEFE"/>
<path d="M274.501 0.69043L274.494 0.711827H310.629L310.621 0.69043H274.501Z" fill="#F7F8F8"/>
<path d="M310.632 0.69043L310.625 0.711827H346.759L346.752 0.69043H310.632Z" fill="white"/>
<path d="M346.767 0.69043L346.76 0.711827H382.894L382.887 0.69043H346.767Z" fill="white"/>
<path d="M382.902 0.69043L382.895 0.711827H419.029L419.022 0.69043H382.902Z" fill="#F7F7F7"/>
<path d="M419.037 0.69043L419.029 0.711827H455.164L455.157 0.69043H419.037Z" fill="#EAEAEA"/>
<path d="M455.173 0.69043L455.166 0.711827H491.301L491.293 0.69043H455.173Z" fill="#FDFEFE"/>
<path d="M491.308 0.69043L491.301 0.711827H527.436L527.428 0.69043H491.308Z" fill="#E7E7E7"/>
<path d="M556.309 0.69043H527.441L527.434 0.711827H556.309V0.69043Z" fill="#F7F7F7"/>
<path d="M-23.1348 26.3851V54.9644H3.48237L-14.5847 0.711858V0.710205L-23.1348 26.3851Z" fill="#F7F8F8"/>
<path d="M21.5495 0.710205L3.48242 54.9644H39.6171L21.5495 0.711858V0.710205Z" fill="#FDFEFE"/>
<path d="M21.5482 0.710205L3.48114 54.9644L-14.5859 0.711858H21.5482V0.710205Z" fill="#E7E7E7"/>
<path d="M57.6862 0.710205L39.6191 54.9644H75.7538L57.6862 0.711858V0.710205Z" fill="#EAEAEA"/>
<path d="M57.6835 0.710205L39.6164 54.9644L21.5488 0.711858H57.6835V0.710205Z" fill="white"/>
<path d="M93.821 0.710205L75.7539 54.9644H111.889L93.821 0.711858V0.710205Z" fill="#F7F8F8"/>
<path d="M93.8182 0.710205L75.7512 54.9644L57.6836 0.711858H93.8182V0.710205Z" fill="#EAEAEA"/>
<path d="M129.95 0.710205L111.883 54.9644H148.017L129.95 0.711858V0.710205Z" fill="white"/>
<path d="M129.953 0.710205L111.886 54.9644L93.8184 0.711858H129.953V0.710205Z" fill="#FDFEFE"/>
<path d="M166.092 0.710205L148.025 54.9644H184.16L166.092 0.711858V0.710205Z" fill="#F7F8F8"/>
<path d="M166.086 0.710205L148.019 54.9644L129.951 0.711858H166.086V0.710205Z" fill="#EAEAEA"/>
<path d="M202.222 0.710205L184.154 54.9644H220.289L202.222 0.711858V0.710205Z" fill="#FDFEFE"/>
<path d="M202.224 0.710205L184.157 54.9644L166.09 0.711858H202.224V0.710205Z" fill="#E7E7E7"/>
<path d="M238.357 0.710205L220.289 54.9644H256.424L238.357 0.711858V0.710205Z" fill="#FDFEFE"/>
<path d="M238.357 0.710205L220.29 54.9644L202.223 0.711858H238.357V0.710205Z" fill="#EAEAEA"/>
<path d="M274.49 0.710205L256.422 54.9644H292.557L274.49 0.711858V0.710205Z" fill="#EAEAEA"/>
<path d="M274.494 0.710205L256.426 54.9644L238.359 0.711858H274.494V0.710205Z" fill="#E7E7E7"/>
<path d="M310.628 0.710205L292.561 54.9644H328.695L310.628 0.711858V0.710205Z" fill="#FDFEFE"/>
<path d="M310.629 0.710205L292.561 54.9644L274.494 0.711858H310.629V0.710205Z" fill="#F7F8F8"/>
<path d="M346.762 0.710205L328.695 54.9644H364.83L346.762 0.711858V0.710205Z" fill="#F7F8F8"/>
<path d="M346.759 0.710205L328.692 54.9644L310.625 0.711858H346.759V0.710205Z" fill="#F7F7F7"/>
<path d="M382.895 0.710205L364.828 54.9644H400.963L382.895 0.711858V0.710205Z" fill="#F7F7F7"/>
<path d="M382.894 0.710205L364.827 54.9644L346.76 0.711858H382.894V0.710205Z" fill="white"/>
<path d="M419.03 0.710205L400.963 54.9644H437.098L419.03 0.711858V0.710205Z" fill="#F7F8F8"/>
<path d="M419.029 0.710205L400.962 54.9644L382.895 0.711858H419.029V0.710205Z" fill="#EAEAEA"/>
<path d="M455.167 0.710205L437.1 54.9644H473.234L455.167 0.711858V0.710205Z" fill="#EAEAEA"/>
<path d="M455.164 0.710205L437.097 54.9644L419.029 0.711858H455.164V0.710205Z" fill="#FDFEFE"/>
<path d="M491.301 0.710205L473.234 54.9644H509.368L491.301 0.711858V0.710205Z" fill="#F7F7F7"/>
<path d="M491.301 0.710205L473.234 54.9644L455.166 0.711858H491.301V0.710205Z" fill="#FDFEFE"/>
<path d="M527.431 0.710205L509.363 54.9644H545.498L527.431 0.711858V0.710205Z" fill="#FDFEFE"/>
<path d="M527.436 0.710205L509.368 54.9644L491.301 0.711858H527.436V0.710205Z" fill="#EAEAEA"/>
<path d="M556.307 22.5079L545.498 54.9644H556.307V22.5079Z" fill="#FDFEFE"/>
<path d="M556.309 0.711914H527.434L545.501 54.9645L556.309 22.508V0.711914Z" fill="#F7F8F8"/>
<path d="M3.48114 54.9644L-14.5859 109.216H21.5482L3.48114 54.9644Z" fill="#F7F8F8"/>
<path d="M-23.1348 54.9644V83.5429L-14.5847 109.216L3.48237 54.9644H-23.1348Z" fill="white"/>
<path d="M39.6164 54.9644L21.5488 109.216H57.6835L39.6164 54.9644Z" fill="#F7F8F8"/>
<path d="M39.6171 54.9644L21.5495 109.216L3.48242 54.9644H39.6171Z" fill="#FDFEFE"/>
<path d="M75.7512 54.9644L57.6836 109.216H93.8182L75.7512 54.9644Z" fill="#F7F7F7"/>
<path d="M75.7538 54.9644L57.6862 109.216L39.6191 54.9644H75.7538Z" fill="#E7E7E7"/>
<path d="M111.886 54.9644L93.8184 109.216H129.953L111.886 54.9644Z" fill="#F7F8F8"/>
<path d="M111.889 54.9644L93.821 109.216L75.7539 54.9644H111.889Z" fill="#EAEAEA"/>
<path d="M148.019 54.9644L129.951 109.216H166.086L148.019 54.9644Z" fill="#F7F8F8"/>
<path d="M148.017 54.9644L129.95 109.216L111.883 54.9644H148.017Z" fill="#F7F8F8"/>
<path d="M184.157 54.9644L166.09 109.216H202.224L184.157 54.9644Z" fill="#FDFEFE"/>
<path d="M184.16 54.9644L166.092 109.216L148.025 54.9644H184.16Z" fill="#F7F8F8"/>
<path d="M220.29 54.9644L202.223 109.216H238.357L220.29 54.9644Z" fill="#E7E7E7"/>
<path d="M220.289 54.9644L202.222 109.216L184.154 54.9644H220.289Z" fill="white"/>
<path d="M256.426 54.9644L238.359 109.216H274.494L256.426 54.9644Z" fill="#F7F8F8"/>
<path d="M256.424 54.9644L238.357 109.216L220.289 54.9644H256.424Z" fill="#F7F7F7"/>
<path d="M292.561 54.9644L274.494 109.216H310.629L292.561 54.9644Z" fill="#E7E7E7"/>
<path d="M292.557 54.9644L274.49 109.216L256.422 54.9644H292.557Z" fill="#F7F7F7"/>
<path d="M328.692 54.9644L310.625 109.216H346.759L328.692 54.9644Z" fill="#FDFEFE"/>
<path d="M328.695 54.9644L310.628 109.216L292.561 54.9644H328.695Z" fill="#F7F8F8"/>
<path d="M364.827 54.9644L346.76 109.216H382.894L364.827 54.9644Z" fill="#EAEAEA"/>
<path d="M364.83 54.9644L346.762 109.216L328.695 54.9644H364.83Z" fill="white"/>
<path d="M400.962 54.9644L382.895 109.216H419.029L400.962 54.9644Z" fill="#F7F8F8"/>
<path d="M400.963 54.9644L382.895 109.216L364.828 54.9644H400.963Z" fill="white"/>
<path d="M437.097 54.9644L419.029 109.216H455.164L437.097 54.9644Z" fill="#F7F7F7"/>
<path d="M437.098 54.9644L419.03 109.216L400.963 54.9644H437.098Z" fill="white"/>
<path d="M473.234 54.9644L455.166 109.216H491.301L473.234 54.9644Z" fill="#F7F7F7"/>
<path d="M473.234 54.9644L455.167 109.216L437.1 54.9644H473.234Z" fill="#F7F7F7"/>
<path d="M509.368 54.9644L491.301 109.216H527.436L509.368 54.9644Z" fill="#EAEAEA"/>
<path d="M509.368 54.9644L491.301 109.216L473.234 54.9644H509.368Z" fill="#EAEAEA"/>
<path d="M556.309 87.4193L545.501 54.9644L527.434 109.216H556.309V87.4193Z" fill="#E7E7E7"/>
<path d="M545.498 54.9644L527.431 109.216L509.363 54.9644H545.498Z" fill="#EAEAEA"/>
<path d="M556.307 54.9644H545.498L556.307 87.4193V54.9644Z" fill="white"/>
<path d="M-23.1348 163.474H3.48237L-14.5847 109.216V109.218L-23.1348 134.893V163.474Z" fill="#EAEAEA"/>
<path d="M21.5495 109.218L3.48242 163.474H39.6171L21.5495 109.216V109.218Z" fill="#F7F7F7"/>
<path d="M21.5482 109.218L3.48114 163.474L-14.5859 109.216H21.5482V109.218Z" fill="#E7E7E7"/>
<path d="M57.6862 109.218L39.6191 163.474H75.7538L57.6862 109.216V109.218Z" fill="#F7F8F8"/>
<path d="M57.6835 109.218L39.6164 163.474L21.5488 109.216H57.6835V109.218Z" fill="white"/>
<path d="M93.821 109.218L75.7539 163.474H111.889L93.821 109.216V109.218Z" fill="#F7F7F7"/>
<path d="M93.8182 109.218L75.7512 163.474L57.6836 109.216H93.8182V109.218Z" fill="#EAEAEA"/>
<path d="M129.95 109.218L111.883 163.474H148.017L129.95 109.216V109.218Z" fill="#EAEAEA"/>
<path d="M129.953 109.218L111.886 163.474L93.8184 109.216H129.953V109.218Z" fill="#EAEAEA"/>
<path d="M166.092 109.218L148.025 163.474H184.16L166.092 109.216V109.218Z" fill="#EAEAEA"/>
<path d="M166.086 109.218L148.019 163.474L129.951 109.216H166.086V109.218Z" fill="white"/>
<path d="M202.222 109.218L184.154 163.474H220.289L202.222 109.216V109.218Z" fill="#F7F8F8"/>
<path d="M202.224 109.218L184.157 163.474L166.09 109.216H202.224V109.218Z" fill="#FDFEFE"/>
<path d="M238.357 109.218L220.289 163.474H256.424L238.357 109.216V109.218Z" fill="#EAEAEA"/>
<path d="M238.357 109.218L220.29 163.474L202.223 109.216H238.357V109.218Z" fill="#EAEAEA"/>
<path d="M274.49 109.218L256.422 163.474H292.557L274.49 109.216V109.218Z" fill="white"/>
<path d="M274.494 109.218L256.426 163.474L238.359 109.216H274.494V109.218Z" fill="white"/>
<path d="M310.628 109.218L292.561 163.474H328.695L310.628 109.216V109.218Z" fill="#F7F7F7"/>
<path d="M310.629 109.218L292.561 163.474L274.494 109.216H310.629V109.218Z" fill="#E7E7E7"/>
<path d="M346.762 109.218L328.695 163.474H364.83L346.762 109.216V109.218Z" fill="white"/>
<path d="M346.759 109.218L328.692 163.474L310.625 109.216H346.759V109.218Z" fill="#F7F7F7"/>
<path d="M382.895 109.218L364.828 163.474H400.963L382.895 109.216V109.218Z" fill="#F7F7F7"/>
<path d="M382.894 109.218L364.827 163.474L346.76 109.216H382.894V109.218Z" fill="#E7E7E7"/>
<path d="M419.03 109.218L400.963 163.474H437.098L419.03 109.216V109.218Z" fill="#FDFEFE"/>
<path d="M419.029 109.218L400.962 163.474L382.895 109.216H419.029V109.218Z" fill="#EAEAEA"/>
<path d="M455.167 109.218L437.1 163.474H473.234L455.167 109.216V109.218Z" fill="#E7E7E7"/>
<path d="M455.164 109.218L437.097 163.474L419.029 109.216H455.164V109.218Z" fill="#F7F7F7"/>
<path d="M491.301 109.218L473.234 163.474H509.368L491.301 109.216V109.218Z" fill="#FDFEFE"/>
<path d="M491.301 109.218L473.234 163.474L455.166 109.216H491.301V109.218Z" fill="#FDFEFE"/>
<path d="M527.431 109.218L509.363 163.474H545.498L527.431 109.216V109.218Z" fill="white"/>
<path d="M527.436 109.218L509.368 163.474L491.301 109.216H527.436V109.218Z" fill="#EAEAEA"/>
<path d="M556.307 131.017L545.498 163.474H556.307V131.017Z" fill="#F7F7F7"/>
<path d="M556.309 109.216H527.434L545.501 163.474L556.309 131.016V109.216Z" fill="#EAEAEA"/>
<path d="M3.48114 163.471L-14.5859 217.725H21.5482L3.48114 163.474V163.471Z" fill="#FDFEFE"/>
<path d="M-23.1348 192.052L-14.5847 217.725L3.48189 163.473H-23.1348V192.052Z" fill="#F7F7F7"/>
<path d="M39.6164 163.471L21.5488 217.725H57.6835L39.6164 163.474V163.471Z" fill="#E7E7E7"/>
<path d="M39.6171 163.471L21.5495 217.725L3.48242 163.474H39.6171V163.471Z" fill="#FDFEFE"/>
<path d="M75.7512 163.471L57.6836 217.725H93.8182L75.7512 163.474V163.471Z" fill="#F7F8F8"/>
<path d="M75.7538 163.471L57.6862 217.725L39.6191 163.474H75.7538V163.471Z" fill="#F7F7F7"/>
<path d="M111.886 163.471L93.8184 217.725H129.953L111.886 163.474V163.471Z" fill="#FDFEFE"/>
<path d="M111.889 163.471L93.821 217.725L75.7539 163.474H111.889V163.471Z" fill="#E7E7E7"/>
<path d="M148.019 163.471L129.951 217.725H166.086L148.019 163.474V163.471Z" fill="white"/>
<path d="M148.017 163.471L129.95 217.725L111.883 163.474H148.017V163.471Z" fill="#F7F7F7"/>
<path d="M184.157 163.471L166.09 217.725H202.224L184.157 163.474V163.471Z" fill="#EAEAEA"/>
<path d="M184.16 163.471L166.092 217.725L148.025 163.474H184.16V163.471Z" fill="#E7E7E7"/>
<path d="M220.29 163.471L202.223 217.725H238.357L220.29 163.474V163.471Z" fill="#FDFEFE"/>
<path d="M220.289 163.471L202.222 217.725L184.154 163.474H220.289V163.471Z" fill="#EAEAEA"/>
<path d="M256.426 163.471L238.359 217.725H274.494L256.426 163.474V163.471Z" fill="#FDFEFE"/>
<path d="M256.424 163.471L238.357 217.725L220.289 163.474H256.424V163.471Z" fill="#EAEAEA"/>
<path d="M292.561 163.471L274.494 217.725H310.629L292.561 163.474V163.471Z" fill="#E7E7E7"/>
<path d="M292.557 163.471L274.49 217.725L256.422 163.474H292.557V163.471Z" fill="#EAEAEA"/>
<path d="M328.692 163.471L310.625 217.725H346.759L328.692 163.474V163.471Z" fill="#EAEAEA"/>
<path d="M328.695 163.471L310.628 217.725L292.561 163.474H328.695V163.471Z" fill="#F7F7F7"/>
<path d="M364.827 163.471L346.76 217.725H382.894L364.827 163.474V163.471Z" fill="white"/>
<path d="M364.83 163.471L346.762 217.725L328.695 163.474H364.83V163.471Z" fill="#F7F7F7"/>
<path d="M400.962 163.471L382.895 217.725H419.029L400.962 163.474V163.471Z" fill="#EAEAEA"/>
<path d="M400.963 163.471L382.895 217.725L364.828 163.474H400.963V163.471Z" fill="#F7F8F8"/>
<path d="M437.097 163.471L419.029 217.725H455.164L437.097 163.474V163.471Z" fill="white"/>
<path d="M437.098 163.471L419.03 217.725L400.963 163.474H437.098V163.471Z" fill="#F7F8F8"/>
<path d="M473.234 163.471L455.166 217.725H491.301L473.234 163.474V163.471Z" fill="#F7F8F8"/>
<path d="M473.234 163.471L455.167 217.725L437.1 163.474H473.234V163.471Z" fill="#EAEAEA"/>
<path d="M509.368 163.471L491.301 217.725H527.436L509.368 163.474L509.368 163.471Z" fill="#EAEAEA"/>
<path d="M509.368 163.471L491.301 217.725L473.234 163.474H509.368V163.471Z" fill="#E7E7E7"/>
<path d="M556.309 195.928L545.501 163.474V163.471L527.434 217.725H556.309V195.928Z" fill="#F7F7F7"/>
<path d="M545.498 163.471L527.431 217.725L509.363 163.474H545.498L545.498 163.471Z" fill="#FDFEFE"/>
<path d="M556.307 163.473H545.498L556.307 195.928V163.473Z" fill="white"/>
<path d="M-23.1348 271.978H3.48237L-14.5847 217.726L-23.1348 243.4V271.978Z" fill="#F7F7F7"/>
<path d="M21.5495 217.726L3.48242 271.978H39.6171L21.5495 217.726Z" fill="#EAEAEA"/>
<path d="M21.5482 217.726L3.48114 271.978L-14.5859 217.726H21.5482Z" fill="#EAEAEA"/>
<path d="M57.6862 217.726L39.6191 271.978H75.7538L57.6862 217.726Z" fill="#F7F8F8"/>
<path d="M57.6835 217.726L39.6164 271.978L21.5488 217.726H57.6835Z" fill="#EAEAEA"/>
<path d="M93.821 217.726L75.7539 271.978H111.889L93.821 217.726Z" fill="#FDFEFE"/>
<path d="M93.8182 217.726L75.7512 271.978L57.6836 217.726H93.8182Z" fill="white"/>
<path d="M129.95 217.726L111.883 271.978H148.017L129.95 217.726Z" fill="#F7F8F8"/>
<path d="M129.953 217.726L111.886 271.978L93.8184 217.726H129.953Z" fill="#F7F8F8"/>
<path d="M166.092 217.726L148.025 271.978H184.16L166.092 217.726Z" fill="#FDFEFE"/>
<path d="M166.086 217.726L148.019 271.978L129.951 217.726H166.086Z" fill="#E7E7E7"/>
<path d="M202.222 217.726L184.154 271.978H220.289L202.222 217.726Z" fill="white"/>
<path d="M202.224 217.726L184.157 271.978L166.09 217.726H202.224Z" fill="#F7F8F8"/>
<path d="M238.357 217.726L220.289 271.978H256.424L238.357 217.726Z" fill="#F7F8F8"/>
<path d="M238.357 217.726L220.29 271.978L202.223 217.726H238.357Z" fill="#EAEAEA"/>
<path d="M274.49 217.726L256.422 271.978H292.557L274.49 217.726Z" fill="#FDFEFE"/>
<path d="M274.494 217.726L256.426 271.978L238.359 217.726H274.494Z" fill="#EAEAEA"/>
<path d="M310.628 217.726L292.561 271.978H328.695L310.628 217.726Z" fill="white"/>
<path d="M310.629 217.726L292.561 271.978L274.494 217.726H310.629Z" fill="#FDFEFE"/>
<path d="M346.762 217.726L328.695 271.978H364.83L346.762 217.726Z" fill="#FDFEFE"/>
<path d="M346.759 217.726L328.692 271.978L310.625 217.726H346.759Z" fill="#EAEAEA"/>
<path d="M382.895 217.726L364.828 271.978H400.963L382.895 217.726Z" fill="#F7F8F8"/>
<path d="M382.894 217.726L364.827 271.978L346.76 217.726H382.894Z" fill="#EAEAEA"/>
<path d="M419.03 217.726L400.963 271.978H437.098L419.03 217.726Z" fill="#FDFEFE"/>
<path d="M419.029 217.726L400.962 271.978L382.895 217.726H419.029Z" fill="#E7E7E7"/>
<path d="M455.167 217.726L437.1 271.978H473.234L455.167 217.726Z" fill="#EAEAEA"/>
<path d="M455.164 217.726L437.097 271.978L419.029 217.726H455.164Z" fill="#F7F7F7"/>
<path d="M491.301 217.726L473.234 271.978H509.368L491.301 217.726Z" fill="#E7E7E7"/>
<path d="M491.301 217.726L473.234 271.978L455.166 217.726H491.301Z" fill="#FDFEFE"/>
<path d="M527.431 217.726L509.363 271.978H545.498L527.431 217.726Z" fill="#F7F7F7"/>
<path d="M527.435 217.726L509.368 271.978L491.301 217.726H527.435Z" fill="#FDFEFE"/>
<path d="M556.307 239.523L545.498 271.978H556.307V239.523Z" fill="#F7F7F7"/>
<path d="M556.309 217.726H527.434L545.501 271.978L556.309 239.523V217.726Z" fill="#EAEAEA"/>
<path d="M3.48114 271.979L-14.5859 326.235H21.5482L3.48114 271.979V271.979Z" fill="#FDFEFE"/>
<path d="M-23.1348 271.979V300.559L-14.5847 326.235L3.48237 271.979V271.979H-23.1348Z" fill="#EAEAEA"/>
<path d="M39.6164 271.979L21.5488 326.235H57.6835L39.6164 271.979V271.979Z" fill="#EAEAEA"/>
<path d="M39.6171 271.979L21.5495 326.235L3.48242 271.979H39.6171V271.979Z" fill="#FDFEFE"/>
<path d="M75.7512 271.979L57.6836 326.235H93.8182L75.7512 271.979V271.979Z" fill="#EAEAEA"/>
<path d="M75.7538 271.979L57.6862 326.235L39.6191 271.979H75.7538V271.979Z" fill="#EAEAEA"/>
<path d="M111.886 271.979L93.8184 326.235H129.953L111.886 271.979V271.979Z" fill="#FDFEFE"/>
<path d="M111.889 271.979L93.821 326.235L75.7539 271.979H111.889V271.979Z" fill="#FDFEFE"/>
<path d="M148.019 271.979L129.951 326.235H166.086L148.019 271.979V271.979Z" fill="#F7F7F7"/>
<path d="M148.017 271.979L129.95 326.235L111.883 271.979H148.017V271.979Z" fill="white"/>
<path d="M184.157 271.979L166.09 326.235H202.224L184.157 271.979V271.979Z" fill="#F7F8F8"/>
<path d="M184.16 271.979L166.092 326.235L148.025 271.979H184.16V271.979Z" fill="#F7F8F8"/>
<path d="M220.29 271.979L202.223 326.235H238.357L220.29 271.979V271.979Z" fill="#EAEAEA"/>
<path d="M220.289 271.979L202.222 326.235L184.154 271.979H220.289V271.979Z" fill="#F7F8F8"/>
<path d="M256.426 271.979L238.359 326.235H274.494L256.426 271.979V271.979Z" fill="#FDFEFE"/>
<path d="M256.424 271.979L238.357 326.235L220.289 271.979H256.424V271.979Z" fill="#FDFEFE"/>
<path d="M292.561 271.979L274.494 326.235H310.629L292.561 271.979V271.979Z" fill="#FDFEFE"/>
<path d="M292.557 271.979L274.49 326.235L256.422 271.979H292.557V271.979Z" fill="#F7F7F7"/>
<path d="M328.692 271.979L310.625 326.235H346.759L328.692 271.979V271.979Z" fill="#FDFEFE"/>
<path d="M328.695 271.979L310.628 326.235L292.561 271.979H328.695V271.979Z" fill="white"/>
<path d="M364.827 271.979L346.76 326.235H382.894L364.827 271.979V271.979Z" fill="#EAEAEA"/>
<path d="M364.83 271.979L346.762 326.235L328.695 271.979H364.83V271.979Z" fill="#FDFEFE"/>
<path d="M400.962 271.979L382.895 326.235H419.029L400.962 271.979V271.979Z" fill="#FDFEFE"/>
<path d="M400.963 271.979L382.895 326.235L364.828 271.979H400.963V271.979Z" fill="#F7F8F8"/>
<path d="M437.097 271.979L419.029 326.235H455.164L437.097 271.979V271.979Z" fill="#FDFEFE"/>
<path d="M437.098 271.979L419.03 326.235L400.963 271.979H437.098V271.979Z" fill="#F7F8F8"/>
<path d="M473.234 271.979L455.166 326.235H491.301L473.234 271.979V271.979Z" fill="#F7F7F7"/>
<path d="M473.234 271.979L455.167 326.235L437.1 271.979H473.234V271.979Z" fill="white"/>
<path d="M509.368 271.979L491.301 326.235H527.436L509.368 271.979L509.368 271.979Z" fill="#F7F7F7"/>
<path d="M509.368 271.979L491.301 326.235L473.234 271.979H509.368V271.979Z" fill="#FDFEFE"/>
<path d="M556.309 304.437L545.501 271.979V271.979L527.434 326.235H556.309V304.437Z" fill="#FDFEFE"/>
<path d="M545.498 271.979L527.431 326.235L509.363 271.979H545.498L545.498 271.979Z" fill="white"/>
<path d="M556.307 271.979H545.498L556.307 304.437V271.979Z" fill="#F7F8F8"/>
<path d="M-23.1348 351.907V380.487H3.48237L-14.5847 326.235V326.232L-23.1348 351.907Z" fill="#F7F8F8"/>
<path d="M21.5495 326.232L3.48242 380.487H39.6171L21.5495 326.235V326.232Z" fill="#FDFEFE"/>
<path d="M21.5482 326.232L3.48114 380.487L-14.5859 326.235H21.5482V326.232Z" fill="#EAEAEA"/>
<path d="M57.6862 326.232L39.6191 380.487H75.7538L57.6862 326.235V326.232Z" fill="#E7E7E7"/>
<path d="M57.6835 326.232L39.6164 380.487L21.5488 326.235H57.6835V326.232Z" fill="#EAEAEA"/>
<path d="M93.821 326.232L75.7539 380.487H111.889L93.821 326.235V326.232Z" fill="#F7F7F7"/>
<path d="M93.8182 326.232L75.7512 380.487L57.6836 326.235H93.8182V326.232Z" fill="#FDFEFE"/>
<path d="M129.95 326.232L111.883 380.487H148.017L129.95 326.235V326.232Z" fill="#EAEAEA"/>
<path d="M129.953 326.232L111.886 380.487L93.8184 326.235H129.953V326.232Z" fill="#FDFEFE"/>
<path d="M166.092 326.232L148.025 380.487H184.16L166.092 326.235V326.232Z" fill="#FDFEFE"/>
<path d="M166.086 326.232L148.019 380.487L129.951 326.235H166.086V326.232Z" fill="#F7F7F7"/>
<path d="M202.222 326.232L184.154 380.487H220.289L202.222 326.235V326.232Z" fill="#E7E7E7"/>
<path d="M202.224 326.232L184.157 380.487L166.09 326.235H202.224V326.232Z" fill="#F7F7F7"/>
<path d="M238.357 326.232L220.289 380.487H256.424L238.357 326.235V326.232Z" fill="#FDFEFE"/>
<path d="M238.357 326.232L220.29 380.487L202.223 326.235H238.357V326.232Z" fill="#EAEAEA"/>
<path d="M274.49 326.232L256.422 380.487H292.557L274.49 326.235V326.232Z" fill="#FDFEFE"/>
<path d="M274.494 326.232L256.426 380.487L238.359 326.235H274.494V326.232Z" fill="#F7F7F7"/>
<path d="M310.628 326.232L292.561 380.487H328.695L310.628 326.235V326.232Z" fill="white"/>
<path d="M310.629 326.232L292.561 380.487L274.494 326.235H310.629V326.232Z" fill="#FDFEFE"/>
<path d="M346.762 326.232L328.695 380.487H364.83L346.762 326.235V326.232Z" fill="#E7E7E7"/>
<path d="M346.759 326.232L328.692 380.487L310.625 326.235H346.759V326.232Z" fill="white"/>
<path d="M382.895 326.232L364.828 380.487H400.963L382.895 326.235V326.232Z" fill="#FDFEFE"/>
<path d="M382.894 326.232L364.827 380.487L346.76 326.235H382.894V326.232Z" fill="#F7F7F7"/>
<path d="M419.03 326.232L400.963 380.487H437.098L419.03 326.235V326.232Z" fill="#F7F8F8"/>
<path d="M419.029 326.232L400.962 380.487L382.895 326.235H419.029V326.232Z" fill="#E7E7E7"/>
<path d="M455.167 326.232L437.1 380.487H473.234L455.167 326.235V326.232Z" fill="#F7F7F7"/>
<path d="M455.164 326.232L437.097 380.487L419.029 326.235H455.164V326.232Z" fill="#F7F7F7"/>
<path d="M491.301 326.232L473.234 380.487H509.368L491.301 326.235V326.232Z" fill="#E7E7E7"/>
<path d="M491.301 326.232L473.234 380.487L455.166 326.235H491.301V326.232Z" fill="#FDFEFE"/>
<path d="M527.431 326.232L509.363 380.487H545.498L527.431 326.235V326.232Z" fill="#EAEAEA"/>
<path d="M527.435 326.232L509.368 380.487L491.301 326.235H527.435V326.232Z" fill="#EAEAEA"/>
<path d="M556.307 348.031L545.498 380.487H556.307V348.031Z" fill="white"/>
<path d="M556.309 326.235H527.434L545.501 380.488L556.309 348.031V326.235Z" fill="#F7F7F7"/>
<path d="M3.48114 380.486L-14.5859 434.739H21.5482L3.48114 380.487V380.486Z" fill="#F7F7F7"/>
<path d="M-23.1348 409.066L-14.5847 434.74L3.48189 380.488H-23.1348V409.066Z" fill="#E7E7E7"/>
<path d="M39.6164 380.486L21.5488 434.739H57.6835L39.6164 380.487V380.486Z" fill="#EAEAEA"/>
<path d="M39.6171 380.486L21.5495 434.739L3.48242 380.487H39.6171V380.486Z" fill="#FDFEFE"/>
<path d="M75.7512 380.486L57.6836 434.739H93.8182L75.7512 380.487V380.486Z" fill="#EAEAEA"/>
<path d="M75.7538 380.486L57.6862 434.739L39.6191 380.487H75.7538V380.486Z" fill="#FDFEFE"/>
<path d="M111.886 380.486L93.8184 434.739H129.953L111.886 380.487V380.486Z" fill="white"/>
<path d="M111.889 380.486L93.821 434.739L75.7539 380.487H111.889V380.486Z" fill="#FDFEFE"/>
<path d="M148.019 380.486L129.951 434.739H166.086L148.019 380.487V380.486Z" fill="#EAEAEA"/>
<path d="M148.017 380.486L129.95 434.739L111.883 380.487H148.017V380.486Z" fill="#FDFEFE"/>
<path d="M184.157 380.486L166.09 434.739H202.224L184.157 380.487V380.486Z" fill="#FDFEFE"/>
<path d="M184.16 380.486L166.092 434.739L148.025 380.487H184.16V380.486Z" fill="#F7F7F7"/>
<path d="M220.29 380.486L202.223 434.739H238.357L220.29 380.487V380.486Z" fill="#FDFEFE"/>
<path d="M220.289 380.486L202.222 434.739L184.154 380.487H220.289V380.486Z" fill="#E7E7E7"/>
<path d="M256.426 380.486L238.359 434.739H274.494L256.426 380.487V380.486Z" fill="#FDFEFE"/>
<path d="M256.424 380.486L238.357 434.739L220.289 380.487H256.424V380.486Z" fill="#FDFEFE"/>
<path d="M292.561 380.486L274.494 434.739H310.629L292.561 380.487V380.486Z" fill="#FDFEFE"/>
<path d="M292.557 380.486L274.49 434.739L256.422 380.487H292.557V380.486Z" fill="#F7F8F8"/>
<path d="M328.692 380.486L310.625 434.739H346.759L328.692 380.487V380.486Z" fill="#FDFEFE"/>
<path d="M328.695 380.486L310.628 434.739L292.561 380.487H328.695V380.486Z" fill="#F7F7F7"/>
<path d="M364.827 380.486L346.76 434.739H382.894L364.827 380.487V380.486Z" fill="#F7F8F8"/>
<path d="M364.83 380.486L346.762 434.739L328.695 380.487H364.83V380.486Z" fill="#EAEAEA"/>
<path d="M400.962 380.486L382.895 434.739H419.029L400.962 380.487V380.486Z" fill="#F7F8F8"/>
<path d="M400.963 380.486L382.895 434.739L364.828 380.487H400.963V380.486Z" fill="#F7F8F8"/>
<path d="M437.097 380.486L419.029 434.739H455.164L437.097 380.487V380.486Z" fill="#F7F8F8"/>
<path d="M437.098 380.486L419.03 434.739L400.963 380.487H437.098V380.486Z" fill="#FDFEFE"/>
<path d="M473.234 380.486L455.166 434.739H491.301L473.234 380.487V380.486Z" fill="#FDFEFE"/>
<path d="M473.234 380.486L455.167 434.739L437.1 380.487H473.234V380.486Z" fill="#FDFEFE"/>
<path d="M509.368 380.486L491.301 434.739H527.436L509.368 380.487L509.368 380.486Z" fill="#E7E7E7"/>
<path d="M509.368 380.486L491.301 434.739L473.234 380.487H509.368V380.486Z" fill="#F7F8F8"/>
<path d="M556.309 412.942L545.501 380.487V380.486L527.434 434.739H556.309V412.942Z" fill="#FDFEFE"/>
<path d="M545.498 380.486L527.431 434.739L509.363 380.487H545.498V380.486Z" fill="#E7E7E7"/>
<path d="M556.307 380.488H545.498L556.307 412.943V380.488Z" fill="#FDFEFE"/>
<path d="M-23.1348 488.991H3.48237L-14.5847 434.739V434.74L-23.1348 460.413V488.991Z" fill="white"/>
<path d="M21.5495 434.74L3.48242 488.991H39.6171L21.5495 434.739V434.74Z" fill="#F7F7F7"/>
<path d="M21.5482 434.74L3.48114 488.991L-14.5859 434.739H21.5482V434.74Z" fill="#FDFEFE"/>
<path d="M57.6862 434.74L39.6191 488.991H75.7538L57.6862 434.739V434.74Z" fill="#F7F8F8"/>
<path d="M57.6835 434.74L39.6164 488.991L21.5488 434.739H57.6835V434.74Z" fill="#EAEAEA"/>
<path d="M93.821 434.74L75.7539 488.991H111.889L93.821 434.739V434.74Z" fill="#FDFEFE"/>
<path d="M93.8182 434.74L75.7512 488.991L57.6836 434.739H93.8182V434.74Z" fill="#F7F7F7"/>
<path d="M129.95 434.74L111.883 488.991H148.017L129.95 434.739V434.74Z" fill="#FDFEFE"/>
<path d="M129.953 434.74L111.886 488.991L93.8184 434.739H129.953V434.74Z" fill="white"/>
<path d="M166.092 434.74L148.025 488.991H184.16L166.092 434.739V434.74Z" fill="#FDFEFE"/>
<path d="M166.086 434.74L148.019 488.991L129.951 434.739H166.086V434.74Z" fill="#F7F8F8"/>
<path d="M202.222 434.74L184.154 488.991H220.289L202.222 434.739V434.74Z" fill="#F7F7F7"/>
<path d="M202.224 434.74L184.157 488.991L166.09 434.739H202.224V434.74Z" fill="white"/>
<path d="M238.357 434.74L220.289 488.991H256.424L238.357 434.739V434.74Z" fill="#F7F7F7"/>
<path d="M238.357 434.74L220.29 488.991L202.223 434.739H238.357V434.74Z" fill="#FDFEFE"/>
<path d="M274.49 434.74L256.422 488.991H292.557L274.49 434.739V434.74Z" fill="#EAEAEA"/>
<path d="M274.494 434.74L256.426 488.991L238.359 434.739H274.494V434.74Z" fill="#EAEAEA"/>
<path d="M310.628 434.74L292.561 488.991H328.695L310.628 434.739V434.74Z" fill="#EAEAEA"/>
<path d="M310.629 434.74L292.561 488.991L274.494 434.739H310.629V434.74Z" fill="#E7E7E7"/>
<path d="M346.762 434.74L328.695 488.991H364.83L346.762 434.739V434.74Z" fill="#EAEAEA"/>
<path d="M346.759 434.74L328.692 488.991L310.625 434.739H346.759V434.74Z" fill="#F7F7F7"/>
<path d="M382.895 434.74L364.828 488.991H400.963L382.895 434.739V434.74Z" fill="#F7F8F8"/>
<path d="M382.894 434.74L364.827 488.991L346.76 434.739H382.894V434.74Z" fill="#FDFEFE"/>
<path d="M419.03 434.74L400.963 488.991H437.098L419.03 434.739V434.74Z" fill="#EAEAEA"/>
<path d="M419.029 434.74L400.962 488.991L382.895 434.739H419.029V434.74Z" fill="#EAEAEA"/>
<path d="M455.167 434.74L437.1 488.991H473.234L455.167 434.739V434.74Z" fill="#EAEAEA"/>
<path d="M455.164 434.74L437.097 488.991L419.029 434.739H455.164V434.74Z" fill="#F7F7F7"/>
<path d="M491.301 434.74L473.234 488.991H509.368L491.301 434.739V434.74Z" fill="#EAEAEA"/>
<path d="M491.301 434.74L473.234 488.991L455.166 434.739H491.301V434.74Z" fill="#F7F8F8"/>
<path d="M527.431 434.74L509.363 488.991H545.498L527.431 434.739V434.74Z" fill="white"/>
<path d="M527.435 434.74L509.368 488.991L491.301 434.739H527.435V434.74Z" fill="#FDFEFE"/>
<path d="M556.307 456.536L545.498 488.991H556.307V456.536Z" fill="#EAEAEA"/>
<path d="M556.309 434.739H527.434L545.501 488.991L556.309 456.536V434.739Z" fill="#E7E7E7"/>
<path d="M3.48114 488.994L-14.5859 543.248H21.5482L3.48114 488.991V488.994Z" fill="#F7F8F8"/>
<path d="M-23.1348 488.991V517.572L-14.5847 543.248L3.48237 488.994V488.991H-23.1348Z" fill="#E7E7E7"/>
<path d="M39.6164 488.994L21.5488 543.248H57.6835L39.6164 488.991V488.994Z" fill="#FDFEFE"/>
<path d="M39.6171 488.994L21.5495 543.248L3.48242 488.991H39.6171V488.994Z" fill="white"/>
<path d="M75.7512 488.994L57.6836 543.248H93.8182L75.7512 488.991V488.994Z" fill="#F7F8F8"/>
<path d="M75.7538 488.994L57.6862 543.248L39.6191 488.991H75.7538V488.994Z" fill="#F7F7F7"/>
<path d="M111.886 488.994L93.8184 543.248H129.953L111.886 488.991V488.994Z" fill="white"/>
<path d="M111.889 488.994L93.821 543.248L75.7539 488.991H111.889V488.994Z" fill="#F7F7F7"/>
<path d="M148.019 488.994L129.951 543.248H166.086L148.019 488.991V488.994Z" fill="#E7E7E7"/>
<path d="M148.017 488.994L129.95 543.248L111.883 488.991H148.017V488.994Z" fill="#EAEAEA"/>
<path d="M184.157 488.994L166.09 543.248H202.224L184.157 488.991V488.994Z" fill="#E7E7E7"/>
<path d="M184.16 488.994L166.092 543.248L148.025 488.991H184.16V488.994Z" fill="#F7F8F8"/>
<path d="M220.29 488.994L202.223 543.248H238.357L220.29 488.991V488.994Z" fill="white"/>
<path d="M220.289 488.994L202.222 543.248L184.154 488.991H220.289V488.994Z" fill="#E7E7E7"/>
<path d="M256.426 488.994L238.359 543.248H274.494L256.426 488.991V488.994Z" fill="#FDFEFE"/>
<path d="M256.424 488.994L238.357 543.248L220.289 488.991H256.424V488.994Z" fill="#F7F8F8"/>
<path d="M292.561 488.994L274.494 543.248H310.629L292.561 488.991V488.994Z" fill="#F7F7F7"/>
<path d="M292.557 488.994L274.49 543.248L256.422 488.991H292.557V488.994Z" fill="#E7E7E7"/>
<path d="M328.692 488.994L310.625 543.248H346.759L328.692 488.991V488.994Z" fill="#F7F7F7"/>
<path d="M328.695 488.994L310.628 543.248L292.561 488.991H328.695V488.994Z" fill="#F7F8F8"/>
<path d="M364.827 488.994L346.76 543.248H382.894L364.827 488.991V488.994Z" fill="#FDFEFE"/>
<path d="M364.83 488.994L346.762 543.248L328.695 488.991H364.83V488.994Z" fill="#FDFEFE"/>
<path d="M400.962 488.994L382.895 543.248H419.029L400.962 488.991V488.994Z" fill="#EAEAEA"/>
<path d="M400.963 488.994L382.895 543.248L364.828 488.991H400.963V488.994Z" fill="white"/>
<path d="M437.097 488.994L419.029 543.248H455.164L437.097 488.991V488.994Z" fill="#FDFEFE"/>
<path d="M437.098 488.994L419.03 543.248L400.963 488.991H437.098V488.994Z" fill="#F7F7F7"/>
<path d="M473.234 488.994L455.166 543.248H491.301L473.234 488.991V488.994Z" fill="#F7F7F7"/>
<path d="M473.234 488.994L455.167 543.248L437.1 488.991H473.234V488.994Z" fill="#EAEAEA"/>
<path d="M509.368 488.994L491.301 543.248H527.436L509.368 488.991L509.368 488.994Z" fill="#F7F7F7"/>
<path d="M509.368 488.994L491.301 543.248L473.234 488.991H509.368V488.994Z" fill="#FDFEFE"/>
<path d="M556.309 521.449L545.501 488.991V488.994L527.434 543.248H556.309V521.449Z" fill="#FDFEFE"/>
<path d="M545.498 488.994L527.431 543.248L509.363 488.991H545.498L545.498 488.994Z" fill="#F7F7F7"/>
<path d="M556.307 488.991H545.498L556.307 521.449V488.991Z" fill="#EAEAEA"/>
<path d="M-23.1348 568.922V597.501H3.48237L-14.5847 543.249V543.248L-23.1348 568.922Z" fill="#F7F7F7"/>
<path d="M21.5495 543.248L3.48242 597.501H39.6171L21.5495 543.249V543.248Z" fill="#EAEAEA"/>
<path d="M21.5482 543.248L3.48114 597.501L-14.5859 543.249H21.5482V543.248Z" fill="#E7E7E7"/>
<path d="M57.6862 543.248L39.6191 597.501H75.7538L57.6862 543.249V543.248Z" fill="#EAEAEA"/>
<path d="M57.6835 543.248L39.6164 597.501L21.5488 543.249H57.6835V543.248Z" fill="#EAEAEA"/>
<path d="M93.821 543.248L75.7539 597.501H111.889L93.821 543.249V543.248Z" fill="#F7F8F8"/>
<path d="M93.8182 543.248L75.7512 597.501L57.6836 543.249H93.8182V543.248Z" fill="#F7F7F7"/>
<path d="M129.95 543.248L111.883 597.501H148.017L129.95 543.249V543.248Z" fill="#F7F7F7"/>
<path d="M129.953 543.248L111.886 597.501L93.8184 543.249H129.953V543.248Z" fill="#F7F7F7"/>
<path d="M166.092 543.248L148.025 597.501H184.16L166.092 543.249V543.248Z" fill="#F7F8F8"/>
<path d="M166.086 543.248L148.019 597.501L129.951 543.249H166.086V543.248Z" fill="#EAEAEA"/>
<path d="M202.222 543.248L184.154 597.501H220.289L202.222 543.249V543.248Z" fill="white"/>
<path d="M202.224 543.248L184.157 597.501L166.09 543.249H202.224V543.248Z" fill="#F7F8F8"/>
<path d="M238.357 543.248L220.289 597.501H256.424L238.357 543.249V543.248Z" fill="#E7E7E7"/>
<path d="M238.357 543.248L220.29 597.501L202.223 543.249H238.357V543.248Z" fill="#FDFEFE"/>
<path d="M274.49 543.248L256.422 597.501H292.557L274.49 543.249V543.248Z" fill="#F7F8F8"/>
<path d="M274.494 543.248L256.426 597.501L238.359 543.249H274.494V543.248Z" fill="#EAEAEA"/>
<path d="M310.628 543.248L292.561 597.501H328.695L310.628 543.249V543.248Z" fill="#FDFEFE"/>
<path d="M310.629 543.248L292.561 597.501L274.494 543.249H310.629V543.248Z" fill="white"/>
<path d="M346.762 543.248L328.695 597.501H364.83L346.762 543.249V543.248Z" fill="#F7F7F7"/>
<path d="M346.759 543.248L328.692 597.501L310.625 543.249H346.759V543.248Z" fill="#F7F7F7"/>
<path d="M382.895 543.248L364.828 597.501H400.963L382.895 543.249V543.248Z" fill="#F7F7F7"/>
<path d="M382.894 543.248L364.827 597.501L346.76 543.249H382.894V543.248Z" fill="#F7F8F8"/>
<path d="M419.03 543.248L400.963 597.501H437.098L419.03 543.249V543.248Z" fill="#F7F7F7"/>
<path d="M419.029 543.248L400.962 597.501L382.895 543.249H419.029V543.248Z" fill="white"/>
<path d="M455.167 543.248L437.1 597.501H473.234L455.167 543.249V543.248Z" fill="#EAEAEA"/>
<path d="M455.164 543.248L437.097 597.501L419.029 543.249H455.164V543.248Z" fill="#F7F7F7"/>
<path d="M491.301 543.248L473.234 597.501H509.368L491.301 543.249V543.248Z" fill="#F7F7F7"/>
<path d="M491.301 543.248L473.234 597.501L455.166 543.249H491.301V543.248Z" fill="#F7F7F7"/>
<path d="M527.431 543.248L509.363 597.501H545.498L527.431 543.249V543.248Z" fill="#E7E7E7"/>
<path d="M527.435 543.248L509.368 597.501L491.301 543.249H527.435V543.248Z" fill="white"/>
<path d="M556.307 565.046L545.498 597.501H556.307V565.046Z" fill="white"/>
<path d="M556.309 543.248H527.434L545.501 597.501L556.309 565.045V543.248Z" fill="#EAEAEA"/>
<path d="M3.48114 597.501L-14.5859 651.754H21.5482L3.48114 597.501Z" fill="#FDFEFE"/>
<path d="M-23.1348 597.501V626.08L-14.5847 651.753L3.48237 597.501H-23.1348Z" fill="#EAEAEA"/>
<path d="M39.6164 597.501L21.5488 651.754H57.6835L39.6164 597.501Z" fill="#EAEAEA"/>
<path d="M39.6171 597.501L21.5495 651.754L3.48242 597.501H39.6171Z" fill="#F7F8F8"/>
<path d="M75.7512 597.501L57.6836 651.754H93.8182L75.7512 597.501Z" fill="white"/>
<path d="M75.7538 597.501L57.6862 651.754L39.6191 597.501H75.7538Z" fill="white"/>
<path d="M111.886 597.501L93.8184 651.754H129.953L111.886 597.501Z" fill="#F7F8F8"/>
<path d="M111.889 597.501L93.821 651.754L75.7539 597.501H111.889Z" fill="#F7F7F7"/>
<path d="M148.019 597.501L129.951 651.754H166.086L148.019 597.501Z" fill="white"/>
<path d="M148.017 597.501L129.95 651.754L111.883 597.501H148.017Z" fill="#F7F8F8"/>
<path d="M184.157 597.501L166.09 651.754H202.224L184.157 597.501Z" fill="#F7F8F8"/>
<path d="M184.16 597.501L166.092 651.754L148.025 597.501H184.16Z" fill="#FDFEFE"/>
<path d="M220.29 597.501L202.223 651.754H238.357L220.29 597.501Z" fill="#F7F8F8"/>
<path d="M220.289 597.501L202.222 651.754L184.154 597.501H220.289Z" fill="#F7F7F7"/>
<path d="M256.426 597.501L238.359 651.754H274.494L256.426 597.501Z" fill="#EAEAEA"/>
<path d="M256.424 597.501L238.357 651.754L220.289 597.501H256.424Z" fill="#EAEAEA"/>
<path d="M292.561 597.501L274.494 651.754H310.629L292.561 597.501Z" fill="#F7F8F8"/>
<path d="M292.557 597.501L274.49 651.754L256.422 597.501H292.557Z" fill="#F7F7F7"/>
<path d="M328.692 597.501L310.625 651.754H346.759L328.692 597.501Z" fill="#F7F8F8"/>
<path d="M328.695 597.501L310.628 651.754L292.561 597.501H328.695Z" fill="#FDFEFE"/>
<path d="M364.827 597.501L346.76 651.754H382.894L364.827 597.501Z" fill="white"/>
<path d="M364.83 597.501L346.762 651.754L328.695 597.501H364.83Z" fill="#F7F7F7"/>
<path d="M400.962 597.501L382.895 651.754H419.029L400.962 597.501Z" fill="#F7F8F8"/>
<path d="M400.963 597.501L382.895 651.754L364.828 597.501H400.963Z" fill="#FDFEFE"/>
<path d="M437.097 597.501L419.029 651.754H455.164L437.097 597.501Z" fill="white"/>
<path d="M437.098 597.501L419.03 651.754L400.963 597.501H437.098Z" fill="#E7E7E7"/>
<path d="M473.234 597.501L455.166 651.754H491.301L473.234 597.501Z" fill="#FDFEFE"/>
<path d="M473.234 597.501L455.167 651.754L437.1 597.501H473.234Z" fill="white"/>
<path d="M509.368 597.501L491.301 651.754H527.436L509.368 597.501Z" fill="#F7F7F7"/>
<path d="M509.368 597.501L491.301 651.754L473.234 597.501H509.368Z" fill="#F7F8F8"/>
<path d="M556.309 629.956L545.501 597.501L527.434 651.753H556.309V629.956Z" fill="#EAEAEA"/>
<path d="M545.498 597.501L527.431 651.754L509.363 597.501H545.498Z" fill="#EAEAEA"/>
<path d="M556.307 597.501H545.498L556.307 629.956V597.501Z" fill="#F7F8F8"/>
<path d="M-23.1348 703.23H2.55671L-14.5847 651.753V651.755L-23.1348 677.431V703.23Z" fill="#F7F8F8"/>
<path d="M38.6929 703.23L21.5514 651.753V651.755L4.41016 703.23H38.6929Z" fill="#F7F8F8"/>
<path d="M4.40693 703.23L21.5482 651.755V651.753H-14.5859L2.55548 703.23H4.40693Z" fill="#F7F8F8"/>
<path d="M74.8277 703.23L57.6863 651.753V651.755L40.5449 703.23H74.8277Z" fill="#E7E7E7"/>
<path d="M40.5421 703.23L57.6835 651.755V651.753H21.5488L38.6902 703.23H40.5421Z" fill="#E7E7E7"/>
<path d="M110.963 703.23L93.8211 651.753V651.755L76.6797 703.23H110.963Z" fill="#EAEAEA"/>
<path d="M76.6768 703.23L93.8182 651.755V651.753H57.6836L74.825 703.23H76.6768Z" fill="#F7F7F7"/>
<path d="M147.093 703.23L129.952 651.753V651.755L112.811 703.23H147.093Z" fill="#EAEAEA"/>
<path d="M112.812 703.23L129.953 651.755V651.753H93.8184L110.96 703.23H112.812Z" fill="#FDFEFE"/>
<path d="M183.228 703.23L166.087 651.753V651.755L148.945 703.23H183.228Z" fill="#FDFEFE"/>
<path d="M148.944 703.23L166.086 651.755V651.753H129.951L147.093 703.23H148.944Z" fill="#F7F8F8"/>
<path d="M219.363 703.23L202.221 651.753V651.755L185.08 703.23H219.363Z" fill="white"/>
<path d="M185.083 703.23L202.224 651.755V651.753H166.09L183.231 703.23H185.083Z" fill="#E7E7E7"/>
<path d="M255.5 703.23L238.358 651.753V651.755L221.217 703.23H255.5Z" fill="#F7F8F8"/>
<path d="M221.216 703.23L238.357 651.755V651.753H202.223L219.364 703.23H221.216Z" fill="#EAEAEA"/>
<path d="M291.632 703.23L274.491 651.753V651.755L257.35 703.23H291.632Z" fill="#FDFEFE"/>
<path d="M257.353 703.23L274.494 651.755V651.753H238.359L255.501 703.23H257.353Z" fill="#F7F7F7"/>
<path d="M327.769 703.23L310.628 651.753V651.755L293.486 703.23H327.769Z" fill="#FDFEFE"/>
<path d="M293.487 703.23L310.629 651.755V651.753H274.494L291.635 703.23H293.487Z" fill="white"/>
<path d="M363.903 703.23L346.762 651.753V651.755L329.621 703.23H363.903Z" fill="#F7F8F8"/>
<path d="M329.618 703.23L346.759 651.755V651.753H310.625L327.766 703.23H329.618Z" fill="#F7F8F8"/>
<path d="M400.037 703.23L382.895 651.753V651.755L365.754 703.23H400.037Z" fill="#F7F7F7"/>
<path d="M365.753 703.23L382.894 651.755V651.753H346.76L363.901 703.23H365.753Z" fill="#F7F8F8"/>
<path d="M436.174 703.23L419.032 651.753V651.755L401.891 703.23H436.174Z" fill="#F7F8F8"/>
<path d="M401.888 703.23L419.029 651.755V651.753H382.895L400.036 703.23H401.888Z" fill="#F7F8F8"/>
<path d="M472.306 703.23L455.165 651.753V651.755L438.023 703.23H472.306Z" fill="#F7F7F7"/>
<path d="M438.023 703.23L455.164 651.755V651.753H419.029L436.171 703.23H438.023Z" fill="#FDFEFE"/>
<path d="M508.437 703.23L491.296 651.753V651.755L474.154 703.23H508.437Z" fill="#EAEAEA"/>
<path d="M474.159 703.23L491.301 651.755V651.753H455.166L472.307 703.23H474.159Z" fill="#E7E7E7"/>
<path d="M544.576 703.23L527.434 651.753V651.755L510.293 703.23H544.576Z" fill="#FDFEFE"/>
<path d="M510.294 703.23L527.436 651.755V651.753H491.301L508.442 703.23H510.294Z" fill="#E7E7E7"/>
<path d="M556.308 703.23V673.553L546.426 703.23H556.308Z" fill="#F7F8F8"/>
<path d="M546.427 703.23L556.309 673.553V651.753H527.434L544.575 703.23H546.427Z" fill="#FDFEFE"/>
</g>
</svg>
