<svg width="12" height="12" viewBox="0 0 12 12" fill="none" xmlns="http://www.w3.org/2000/svg">
<path d="M5.98535 11.375C3.02535 11.375 0.610352 8.965 0.610352 6C0.610352 3.035 3.02535 0.625 5.98535 0.625C8.94535 0.625 11.3604 3.035 11.3604 6C11.3604 8.965 8.95035 11.375 5.98535 11.375ZM5.98535 1.375C3.43535 1.375 1.36035 3.45 1.36035 6C1.36035 8.55 3.43535 10.625 5.98535 10.625C8.53535 10.625 10.6104 8.55 10.6104 6C10.6104 3.45 8.53535 1.375 5.98535 1.375Z" fill="#888888"/>
<path d="M5.99994 9.62496C4.92494 9.62496 3.91494 9.09996 3.29994 8.21496C3.17994 8.04496 3.22494 7.80996 3.39494 7.69496C3.56494 7.57496 3.79994 7.61996 3.91494 7.78996C4.38994 8.46996 5.16994 8.87996 5.99994 8.87996C6.82994 8.87996 7.60994 8.47496 8.08494 7.78996C8.20494 7.61996 8.43494 7.57996 8.60494 7.69496C8.77494 7.81496 8.81494 8.04496 8.69994 8.21496C8.08494 9.09996 7.07494 9.62496 5.99994 9.62496Z" fill="#888888"/>
</svg>
