<svg width="20" height="20" viewBox="0 0 20 20" fill="none" xmlns="http://www.w3.org/2000/svg">
<path d="M2.08301 11.6665H7.49967C8.33301 11.6665 9.16634 12.9165 9.99967 12.9165C10.7199 12.9165 12.0628 12.294 12.6829 13.4702C12.8789 13.842 12.6171 14.2668 12.2289 14.4277C11.3297 14.8006 10.3281 15.307 9.99967 15.4165L7.49967 14.5832M12.9163 13.7498L16.7297 12.2245C16.9612 12.1319 17.2129 12.1017 17.4597 12.137C18.3321 12.2616 18.5785 13.4042 17.8351 13.8773L11.4652 17.9309C11.0631 18.1867 10.5708 18.2582 10.1125 18.1273L2.08301 15.8332M9.99967 9.99984C8.39551 9.43511 5.41634 7.00742 5.41634 4.33696C5.41634 2.86212 6.54496 1.6665 7.93717 1.6665C8.78974 1.6665 9.54347 2.11487 9.99967 2.80116C10.4559 2.11487 11.2096 1.6665 12.0622 1.6665C13.4544 1.6665 14.583 2.86212 14.583 4.33696C14.583 7.00742 11.6038 9.43511 9.99967 9.99984Z" stroke="#6CC24A" stroke-width="1.25" stroke-linecap="round" stroke-linejoin="round"/>
</svg>
