<svg width="20" height="20" viewBox="0 0 20 20" fill="none" xmlns="http://www.w3.org/2000/svg">
<path d="M12.4749 18.9582H7.47493C2.94993 18.9582 1.0166 17.0248 1.0166 12.4998V7.49984C1.0166 2.97484 2.94993 1.0415 7.47493 1.0415H12.4749C16.9999 1.0415 18.9333 2.97484 18.9333 7.49984V12.4998C18.9333 17.0248 17.0083 18.9582 12.4749 18.9582ZM7.47493 2.2915C3.63327 2.2915 2.2666 3.65817 2.2666 7.49984V12.4998C2.2666 16.3415 3.63327 17.7082 7.47493 17.7082H12.4749C16.3166 17.7082 17.6833 16.3415 17.6833 12.4998V7.49984C17.6833 3.65817 16.3166 2.2915 12.4749 2.2915H7.47493Z" fill="#6CC24A"/>
<path d="M9.54154 15.0501C9.34154 15.0501 8.8582 14.9751 8.57487 14.2501L7.62487 11.8501C7.49154 11.5084 7.01654 11.1917 6.6582 11.1917L1.6582 11.2084C1.31654 11.2084 1.0332 10.9334 1.0332 10.5834C1.0332 10.2417 1.3082 9.9584 1.6582 9.9584L6.6582 9.94173H6.66654C7.54154 9.94173 8.47487 10.5751 8.79987 11.3917L9.5582 13.3084L11.2749 8.9584C11.5332 8.3084 11.9915 8.21673 12.1832 8.20007C12.3749 8.19173 12.8415 8.2334 13.1665 8.85007L14.0332 10.4917C14.1832 10.7751 14.6332 11.0501 14.9582 11.0501H18.3415C18.6832 11.0501 18.9665 11.3334 18.9665 11.6751C18.9665 12.0167 18.6832 12.3001 18.3415 12.3001H14.9582C14.1665 12.3001 13.2999 11.7751 12.9332 11.0751L12.2832 9.84173L10.5332 14.2501C10.2249 14.9667 9.7332 15.0501 9.54154 15.0501Z" fill="#6CC24A"/>
</svg>
