<svg width="20" height="20" viewBox="0 0 20 20" fill="none" xmlns="http://www.w3.org/2000/svg">
<path d="M16.7018 5.68324L11.9018 2.32491C10.5935 1.40824 8.58516 1.45824 7.32682 2.43324L3.15182 5.69157C2.31849 6.34157 1.66016 7.67491 1.66016 8.72491V14.4749C1.66016 16.5999 3.38516 18.3332 5.51016 18.3332H14.4935C16.6185 18.3332 18.3435 16.6082 18.3435 14.4832V8.83324C18.3435 7.70824 17.6185 6.32491 16.7018 5.68324ZM10.6268 14.9999C10.6268 15.3416 10.3435 15.6249 10.0018 15.6249C9.66016 15.6249 9.37682 15.3416 9.37682 14.9999V12.4999C9.37682 12.1582 9.66016 11.8749 10.0018 11.8749C10.3435 11.8749 10.6268 12.1582 10.6268 12.4999V14.9999Z" fill="#445A74"/>
</svg>
