<svg width="16" height="16" viewBox="0 0 16 16" fill="none" xmlns="http://www.w3.org/2000/svg">
<path d="M10.1733 14.8333H5.82666C2.55333 14.8333 1.15333 13.4333 1.15333 10.16V10.0733C1.15333 7.11331 1.15332 7.90059 1.15332 7.90059C1.15335 7.8932 1.66665 7.9006 1.66665 7.9006L2.15333 7.90061C2.15333 7.90061 2.15333 7.61998 2.15333 10.08V10.1666C2.15333 12.88 3.11333 13.84 5.82666 13.84H10.1733C12.8867 13.84 13.8467 12.88 13.8467 10.1666V10.08C13.8467 8.01272 13.8467 7.99996 13.8467 7.99996H14.3333C14.3333 7.99996 14.6667 7.99996 14.8467 7.99996C14.8467 7.99996 14.8467 7.10664 14.8467 10.0866V10.1733C14.8467 13.4333 13.4467 14.8333 10.1733 14.8333Z" fill="#005F73"/>
<path d="M8 10.4202C7.72667 10.4202 7.5 10.1935 7.5 9.92016V1.3335C7.5 1.06016 7.72667 0.833496 8 0.833496C8.27333 0.833496 8.5 1.06016 8.5 1.3335V9.92016C8.5 10.2002 8.27333 10.4202 8 10.4202Z" fill="#005F73"/>
<path d="M8.00022 11.1667C7.87355 11.1667 7.74689 11.1201 7.64689 11.0201L5.41355 8.78673C5.22022 8.59339 5.22022 8.27339 5.41355 8.08006C5.60689 7.88673 5.92689 7.88673 6.12022 8.08006L8.00022 9.96006L9.88022 8.08006C10.0736 7.88673 10.3936 7.88673 10.5869 8.08006C10.7802 8.27339 10.7802 8.59339 10.5869 8.78673L8.35355 11.0201C8.25355 11.1201 8.12689 11.1667 8.00022 11.1667Z" fill="#005F73"/>
</svg>
