<svg width="25" height="16" viewBox="0 0 25 16" fill="none" xmlns="http://www.w3.org/2000/svg">
<rect x="0.5" width="24" height="15.7538" rx="4" fill="#6CC24A"/>
<path d="M16.668 8.61548H8.66797C8.39464 8.61548 8.16797 8.3923 8.16797 8.12317C8.16797 7.85404 8.39464 7.63086 8.66797 7.63086H16.668C16.9413 7.63086 17.168 7.85404 17.168 8.12317C17.168 8.3923 16.9413 8.61548 16.668 8.61548Z" fill="white"/>
<path d="M12.668 12.5539C12.3946 12.5539 12.168 12.3307 12.168 12.0616V4.18469C12.168 3.91556 12.3946 3.69238 12.668 3.69238C12.9413 3.69238 13.168 3.91556 13.168 4.18469V12.0616C13.168 12.3307 12.9413 12.5539 12.668 12.5539Z" fill="white"/>
</svg>
