<svg width="16" height="16" viewBox="0 0 16 16" fill="none" xmlns="http://www.w3.org/2000/svg">
<path opacity="0.4" d="M7.99967 14.6654C11.6816 14.6654 14.6663 11.6806 14.6663 7.9987C14.6663 4.3168 11.6816 1.33203 7.99967 1.33203C4.31778 1.33203 1.33301 4.3168 1.33301 7.9987C1.33301 11.6806 4.31778 14.6654 7.99967 14.6654Z" fill="url(#paint0_linear_8421_189185)"/>
<path d="M8 9.16536C8.27333 9.16536 8.5 8.9387 8.5 8.66536V5.33203C8.5 5.0587 8.27333 4.83203 8 4.83203C7.72667 4.83203 7.5 5.0587 7.5 5.33203V8.66536C7.5 8.9387 7.72667 9.16536 8 9.16536Z" fill="url(#paint1_linear_8421_189185)"/>
<path d="M8.61301 10.4139C8.57967 10.3339 8.53301 10.2606 8.47301 10.1939C8.40634 10.1339 8.33301 10.0872 8.25301 10.0539C8.09301 9.98724 7.90634 9.98724 7.74634 10.0539C7.66634 10.0872 7.59301 10.1339 7.52634 10.1939C7.46634 10.2606 7.41967 10.3339 7.38634 10.4139C7.35301 10.4939 7.33301 10.5806 7.33301 10.6672C7.33301 10.7539 7.35301 10.8406 7.38634 10.9206C7.41967 11.0072 7.46634 11.0739 7.52634 11.1406C7.59301 11.2006 7.66634 11.2472 7.74634 11.2806C7.82634 11.3139 7.91301 11.3339 7.99967 11.3339C8.08634 11.3339 8.17301 11.3139 8.25301 11.2806C8.33301 11.2472 8.40634 11.2006 8.47301 11.1406C8.53301 11.0739 8.57967 11.0072 8.61301 10.9206C8.64634 10.8406 8.66634 10.7539 8.66634 10.6672C8.66634 10.5806 8.64634 10.4939 8.61301 10.4139Z" fill="url(#paint2_linear_8421_189185)"/>
<defs>
<linearGradient id="paint0_linear_8421_189185" x1="1.72431" y1="13.9246" x2="20.5173" y2="13.4379" gradientUnits="userSpaceOnUse">
<stop stop-color="#005F73"/>
<stop offset="1" stop-color="#6CC24A"/>
</linearGradient>
<linearGradient id="paint1_linear_8421_189185" x1="7.52935" y1="8.92462" x2="8.93972" y2="8.91619" gradientUnits="userSpaceOnUse">
<stop stop-color="#005F73"/>
<stop offset="1" stop-color="#6CC24A"/>
</linearGradient>
<linearGradient id="paint2_linear_8421_189185" x1="7.37214" y1="11.26" x2="9.25143" y2="11.2112" gradientUnits="userSpaceOnUse">
<stop stop-color="#005F73"/>
<stop offset="1" stop-color="#6CC24A"/>
</linearGradient>
</defs>
</svg>
