<svg width="16" height="16" viewBox="0 0 16 16" fill="none" xmlns="http://www.w3.org/2000/svg">
<path d="M7.99992 15.1667C4.04659 15.1667 0.833252 11.9534 0.833252 8.00004C0.833252 4.04671 4.04659 0.833374 7.99992 0.833374C11.9533 0.833374 15.1666 4.04671 15.1666 8.00004C15.1666 11.9534 11.9533 15.1667 7.99992 15.1667ZM7.99992 1.83337C4.59992 1.83337 1.83325 4.60004 1.83325 8.00004C1.83325 11.4 4.59992 14.1667 7.99992 14.1667C11.3999 14.1667 14.1666 11.4 14.1666 8.00004C14.1666 4.60004 11.3999 1.83337 7.99992 1.83337Z" fill="#005F73"/>
<path d="M8 11C7.72667 11 7.5 10.7733 7.5 10.5V7.16663C7.5 6.89329 7.72667 6.66663 8 6.66663C8.27333 6.66663 8.5 6.89329 8.5 7.16663V10.5C8.5 10.7733 8.27333 11 8 11Z" fill="#005F73"/>
<path d="M7.99992 5.99663C7.91325 5.99663 7.82659 5.97663 7.74659 5.94329C7.66659 5.90996 7.59325 5.86329 7.52659 5.80329C7.46659 5.73663 7.41992 5.66996 7.38659 5.58329C7.35325 5.50329 7.33325 5.41663 7.33325 5.32996C7.33325 5.24329 7.35325 5.15663 7.38659 5.07663C7.41992 4.99663 7.46659 4.92329 7.52659 4.85663C7.59325 4.79663 7.66659 4.74996 7.74659 4.71663C7.90659 4.64996 8.09325 4.64996 8.25325 4.71663C8.33325 4.74996 8.40659 4.79663 8.47325 4.85663C8.53325 4.92329 8.57992 4.99663 8.61325 5.07663C8.64659 5.15663 8.66659 5.24329 8.66659 5.32996C8.66659 5.41663 8.64659 5.50329 8.61325 5.58329C8.57992 5.66996 8.53325 5.73663 8.47325 5.80329C8.40659 5.86329 8.33325 5.90996 8.25325 5.94329C8.17325 5.97663 8.08659 5.99663 7.99992 5.99663Z" fill="#005F73"/>
</svg>
