<svg width="16" height="16" viewBox="0 0 16 16" fill="none" xmlns="http://www.w3.org/2000/svg">
<path d="M7.99992 1.33301C4.32659 1.33301 1.33325 4.32634 1.33325 7.99967C1.33325 11.673 4.32659 14.6663 7.99992 14.6663C11.6733 14.6663 14.6666 11.673 14.6666 7.99967C14.6666 4.32634 11.6733 1.33301 7.99992 1.33301ZM7.49992 5.33301C7.49992 5.05967 7.72659 4.83301 7.99992 4.83301C8.27325 4.83301 8.49992 5.05967 8.49992 5.33301V8.66634C8.49992 8.93967 8.27325 9.16634 7.99992 9.16634C7.72659 9.16634 7.49992 8.93967 7.49992 8.66634V5.33301ZM8.61325 10.9197C8.57992 11.0063 8.53325 11.073 8.47325 11.1397C8.40659 11.1997 8.33325 11.2463 8.25325 11.2797C8.17325 11.313 8.08659 11.333 7.99992 11.333C7.91325 11.333 7.82659 11.313 7.74659 11.2797C7.66659 11.2463 7.59325 11.1997 7.52659 11.1397C7.46659 11.073 7.41992 11.0063 7.38659 10.9197C7.35325 10.8397 7.33325 10.753 7.33325 10.6663C7.33325 10.5797 7.35325 10.493 7.38659 10.413C7.41992 10.333 7.46659 10.2597 7.52659 10.193C7.59325 10.133 7.66659 10.0863 7.74659 10.053C7.90659 9.98634 8.09325 9.98634 8.25325 10.053C8.33325 10.0863 8.40659 10.133 8.47325 10.193C8.53325 10.2597 8.57992 10.333 8.61325 10.413C8.64659 10.493 8.66659 10.5797 8.66659 10.6663C8.66659 10.753 8.64659 10.8397 8.61325 10.9197Z" fill="#FC5474"/>
</svg>
