<svg width="16" height="17" viewBox="0 0 16 17" fill="none" xmlns="http://www.w3.org/2000/svg">
<path d="M7.99992 15.6654C4.04659 15.6654 0.833252 12.452 0.833252 8.4987C0.833252 4.54536 4.04659 1.33203 7.99992 1.33203C11.9533 1.33203 15.1666 4.54536 15.1666 8.4987C15.1666 12.452 11.9533 15.6654 7.99992 15.6654ZM7.99992 2.33203C4.59992 2.33203 1.83325 5.0987 1.83325 8.4987C1.83325 11.8987 4.59992 14.6654 7.99992 14.6654C11.3999 14.6654 14.1666 11.8987 14.1666 8.4987C14.1666 5.0987 11.3999 2.33203 7.99992 2.33203Z" fill="#005F73"/>
<path d="M8 9.66536C7.72667 9.66536 7.5 9.4387 7.5 9.16536V5.83203C7.5 5.5587 7.72667 5.33203 8 5.33203C8.27333 5.33203 8.5 5.5587 8.5 5.83203V9.16536C8.5 9.4387 8.27333 9.66536 8 9.66536Z" fill="#005F73"/>
<path d="M7.99992 11.8339C7.91325 11.8339 7.82659 11.8139 7.74659 11.7806C7.66659 11.7472 7.59325 11.7006 7.52659 11.6406C7.46659 11.5739 7.41992 11.5072 7.38659 11.4206C7.35325 11.3406 7.33325 11.2539 7.33325 11.1672C7.33325 11.0806 7.35325 10.9939 7.38659 10.9139C7.41992 10.8339 7.46659 10.7606 7.52659 10.6939C7.59325 10.6339 7.66659 10.5872 7.74659 10.5539C7.90659 10.4872 8.09325 10.4872 8.25325 10.5539C8.33325 10.5872 8.40659 10.6339 8.47325 10.6939C8.53325 10.7606 8.57992 10.8339 8.61325 10.9139C8.64659 10.9939 8.66659 11.0806 8.66659 11.1672C8.66659 11.2539 8.64659 11.3406 8.61325 11.4206C8.57992 11.5072 8.53325 11.5739 8.47325 11.6406C8.40659 11.7006 8.33325 11.7472 8.25325 11.7806C8.17325 11.8139 8.08659 11.8339 7.99992 11.8339Z" fill="#005F73"/>
</svg>
