<svg width="9" height="8" viewBox="0 0 9 8" fill="none" xmlns="http://www.w3.org/2000/svg">
<path d="M4.62533 7.58464C2.64866 7.58464 1.04199 5.97797 1.04199 4.0013C1.04199 2.02464 2.64866 0.417969 4.62533 0.417969C6.60199 0.417969 8.20866 2.02464 8.20866 4.0013C8.20866 5.97797 6.60199 7.58464 4.62533 7.58464ZM4.62533 0.917969C2.92533 0.917969 1.54199 2.3013 1.54199 4.0013C1.54199 5.7013 2.92533 7.08464 4.62533 7.08464C6.32533 7.08464 7.70866 5.7013 7.70866 4.0013C7.70866 2.3013 6.32533 0.917969 4.62533 0.917969Z" fill="#888888"/>
<path d="M4.625 4.58464C4.48833 4.58464 4.375 4.4713 4.375 4.33464V2.66797C4.375 2.5313 4.48833 2.41797 4.625 2.41797C4.76167 2.41797 4.875 2.5313 4.875 2.66797V4.33464C4.875 4.4713 4.76167 4.58464 4.625 4.58464Z" fill="#888888"/>
<path d="M4.62533 5.665C4.58199 5.665 4.53866 5.655 4.49866 5.63833C4.45866 5.62167 4.42199 5.59833 4.38866 5.56833C4.35866 5.535 4.33533 5.50167 4.31866 5.45833C4.30199 5.41833 4.29199 5.375 4.29199 5.33167C4.29199 5.28833 4.30199 5.245 4.31866 5.205C4.33533 5.165 4.35866 5.12833 4.38866 5.095C4.42199 5.065 4.45866 5.04167 4.49866 5.025C4.57866 4.99167 4.67199 4.99167 4.75199 5.025C4.79199 5.04167 4.82866 5.065 4.86199 5.095C4.89199 5.12833 4.91533 5.165 4.93199 5.205C4.94866 5.245 4.95866 5.28833 4.95866 5.33167C4.95866 5.375 4.94866 5.41833 4.93199 5.45833C4.91533 5.50167 4.89199 5.535 4.86199 5.56833C4.82866 5.59833 4.79199 5.62167 4.75199 5.63833C4.71199 5.655 4.66866 5.665 4.62533 5.665Z" fill="#888888"/>
</svg>
