<svg width="16" height="16" viewBox="0 0 16 16" fill="none" xmlns="http://www.w3.org/2000/svg">
<path opacity="0.4" d="M8.00004 14.6654C11.6819 14.6654 14.6667 11.6806 14.6667 7.9987C14.6667 4.3168 11.6819 1.33203 8.00004 1.33203C4.31814 1.33203 1.33337 4.3168 1.33337 7.9987C1.33337 11.6806 4.31814 14.6654 8.00004 14.6654Z" fill="#FC5474"/>
<path d="M8 9.16536C8.27333 9.16536 8.5 8.9387 8.5 8.66536V5.33203C8.5 5.0587 8.27333 4.83203 8 4.83203C7.72667 4.83203 7.5 5.0587 7.5 5.33203V8.66536C7.5 8.9387 7.72667 9.16536 8 9.16536Z" fill="#FC5474"/>
<path d="M8.61337 10.4139C8.58004 10.3339 8.53337 10.2606 8.47337 10.1939C8.40671 10.1339 8.33337 10.0872 8.25337 10.0539C8.09337 9.98724 7.90671 9.98724 7.74671 10.0539C7.66671 10.0872 7.59337 10.1339 7.52671 10.1939C7.46671 10.2606 7.42004 10.3339 7.38671 10.4139C7.35337 10.4939 7.33337 10.5806 7.33337 10.6672C7.33337 10.7539 7.35337 10.8406 7.38671 10.9206C7.42004 11.0072 7.46671 11.0739 7.52671 11.1406C7.59337 11.2006 7.66671 11.2472 7.74671 11.2806C7.82671 11.3139 7.91337 11.3339 8.00004 11.3339C8.08671 11.3339 8.17337 11.3139 8.25337 11.2806C8.33337 11.2472 8.40671 11.2006 8.47337 11.1406C8.53337 11.0739 8.58004 11.0072 8.61337 10.9206C8.64671 10.8406 8.66671 10.7539 8.66671 10.6672C8.66671 10.5806 8.64671 10.4939 8.61337 10.4139Z" fill="#FC5474"/>
</svg>
