<svg width="16" height="16" viewBox="0 0 16 16" fill="none" xmlns="http://www.w3.org/2000/svg">
<path d="M11.1599 13.0602H4.84652C4.31985 13.0602 3.93985 13.0402 3.61318 12.9935C1.29985 12.7402 0.839844 11.3535 0.839844 9.05351V4.84017C0.839844 2.54017 1.29318 1.15348 3.62652 0.900146C3.94652 0.85348 4.32652 0.833496 4.84652 0.833496H11.1599C11.6799 0.833496 12.0598 0.85348 12.3932 0.900146C14.7132 1.15348 15.1665 2.54017 15.1665 4.84017V9.05351C15.1665 11.3535 14.7132 12.7402 12.3799 12.9935C12.0665 13.0402 11.6865 13.0602 11.1599 13.0602ZM4.83984 1.8335C4.36651 1.8335 4.02651 1.85351 3.74651 1.89351C2.30651 2.05351 1.83318 2.50018 1.83318 4.84684V9.06018C1.83318 11.4002 2.30652 11.8535 3.73318 12.0068C4.02652 12.0468 4.36652 12.0668 4.84652 12.0668H11.1599C11.6399 12.0668 11.9732 12.0468 12.2532 12.0068C13.6932 11.8468 14.1665 11.4002 14.1665 9.05351V4.84017C14.1665 2.50017 13.6932 2.04685 12.2665 1.89351C11.9665 1.85351 11.6332 1.8335 11.1532 1.8335H4.83984Z" fill="#6CC24A"/>
<path d="M11.507 6.04688H9.05371C8.78038 6.04688 8.55371 5.82021 8.55371 5.54688C8.55371 5.27354 8.78038 5.04688 9.05371 5.04688H11.507C11.7804 5.04688 12.007 5.27354 12.007 5.54688C12.007 5.82021 11.787 6.04688 11.507 6.04688Z" fill="#6CC24A"/>
<path d="M6.66667 6.2137C6.3 6.2137 6 5.9137 6 5.54704C6 5.18037 6.29333 4.88037 6.66667 4.88037C7.03333 4.88037 7.33333 5.18037 7.33333 5.54704C7.33333 5.9137 7.04 6.2137 6.66667 6.2137Z" fill="#6CC24A"/>
<path d="M4.56608 6.2137C4.19941 6.2137 3.89941 5.9137 3.89941 5.54704C3.89941 5.18037 4.19275 4.88037 4.56608 4.88037H4.57274C4.93941 4.88037 5.23941 5.18037 5.23941 5.54704C5.23941 5.9137 4.93275 6.2137 4.56608 6.2137Z" fill="#6CC24A"/>
<path d="M11.5065 9.90674H4.49983C4.22649 9.90674 3.99316 9.68007 3.99316 9.40674C3.99316 9.1334 4.21316 8.90674 4.48649 8.90674H11.5065C11.7798 8.90674 12.0065 9.1334 12.0065 9.40674C12.0065 9.68007 11.7865 9.90674 11.5065 9.90674Z" fill="#6CC24A"/>
<path d="M11.3337 15.1665H4.66699C4.39366 15.1665 4.16699 14.9398 4.16699 14.6665C4.16699 14.3932 4.39366 14.1665 4.66699 14.1665H11.3337C11.607 14.1665 11.8337 14.3932 11.8337 14.6665C11.8337 14.9398 11.607 15.1665 11.3337 15.1665Z" fill="#6CC24A"/>
</svg>
