<svg width="24" height="24" viewBox="0 0 24 24" fill="none" xmlns="http://www.w3.org/2000/svg">
<path opacity="0.4" d="M19.2097 6.36001C18.1697 4.26001 16.1597 2.71001 13.8297 2.20001C11.3897 1.66001 8.88973 2.24001 6.97973 3.78001C5.05973 5.31001 3.96973 7.60001 3.96973 10.05C3.96973 12.64 5.51973 15.35 7.85973 16.92V17.75C7.84973 18.03 7.83973 18.46 8.17973 18.81C8.52973 19.17 9.04973 19.21 9.45973 19.21H14.5897C15.1297 19.21 15.5397 19.06 15.8197 18.78C16.1997 18.39 16.1897 17.89 16.1797 17.62V16.92C19.2797 14.83 21.2297 10.42 19.2097 6.36001Z" fill="url(#paint0_linear_4134_330090)"/>
<path d="M15.2602 22C15.2002 22 15.1302 21.99 15.0702 21.97C13.0602 21.4 10.9502 21.4 8.94015 21.97C8.57015 22.07 8.18015 21.86 8.08015 21.49C7.97015 21.12 8.19015 20.73 8.56015 20.63C10.8202 19.99 13.2002 19.99 15.4602 20.63C15.8302 20.74 16.0502 21.12 15.9402 21.49C15.8402 21.8 15.5602 22 15.2602 22Z" fill="url(#paint1_linear_4134_330090)"/>
<defs>
<linearGradient id="paint0_linear_4134_330090" x1="4.4412" y1="18.254" x2="27.0864" y2="17.7064" gradientUnits="userSpaceOnUse">
<stop stop-color="#005F73"/>
<stop offset="1" stop-color="#6CC24A"/>
</linearGradient>
<linearGradient id="paint1_linear_4134_330090" x1="8.2841" y1="21.8972" x2="19.3146" y2="20.6746" gradientUnits="userSpaceOnUse">
<stop stop-color="#005F73"/>
<stop offset="1" stop-color="#6CC24A"/>
</linearGradient>
</defs>
</svg>
