<svg width="16" height="17" viewBox="0 0 16 17" fill="none" xmlns="http://www.w3.org/2000/svg">
<path d="M9.84707 13.2691H6.17374C5.8804 13.2691 5.50707 13.2357 5.2604 12.9824C5.0204 12.7357 5.02707 12.4291 5.03374 12.2224V11.6291C3.35374 10.5091 2.24707 8.56241 2.24707 6.70907C2.24707 4.95574 3.03374 3.31574 4.4004 2.21574C5.76707 1.11574 7.5604 0.702408 9.31374 1.08907C10.9804 1.45574 12.4204 2.56907 13.1671 4.06907C14.6137 6.98241 13.2204 10.1357 10.9937 11.6357V12.1357C11.0004 12.3291 11.0071 12.6824 10.7337 12.9624C10.5271 13.1624 10.2337 13.2691 9.84707 13.2691ZM6.02707 12.2624C6.0604 12.2624 6.10707 12.2691 6.16707 12.2691H9.84707C9.91374 12.2691 9.9604 12.2624 9.98707 12.2557C9.98707 12.2357 9.98707 12.2091 9.98707 12.1891V11.3491C9.98707 11.1757 10.0804 11.0091 10.2271 10.9224C12.2004 9.72907 13.5071 7.00241 12.2604 4.50241C11.6471 3.26907 10.4604 2.35574 9.08707 2.05574C7.63374 1.73574 6.14707 2.07574 5.01374 2.98907C3.8804 3.90241 3.23374 5.25574 3.23374 6.70907C3.23374 8.56241 4.51374 10.1624 5.7804 10.9291C5.93374 11.0224 6.0204 11.1824 6.0204 11.3557V12.2557C6.02707 12.2557 6.02707 12.2557 6.02707 12.2624Z" fill="#005F73"/>
<path d="M10.3332 15.269C10.2865 15.269 10.2398 15.2624 10.1932 15.249C8.75318 14.8357 7.23984 14.8357 5.79984 15.249C5.53318 15.3224 5.25984 15.169 5.17984 14.9024C5.09984 14.6357 5.25984 14.3624 5.52651 14.2824C7.13984 13.8224 8.85318 13.8224 10.4665 14.2824C10.7332 14.3557 10.8865 14.6357 10.8132 14.9024C10.7532 15.129 10.5532 15.269 10.3332 15.269Z" fill="#005F73"/>
</svg>
