<svg width="26" height="20" viewBox="0 0 26 20" fill="none" xmlns="http://www.w3.org/2000/svg">
<path fill-rule="evenodd" clip-rule="evenodd" d="M12.9959 0.896729C10.6886 0.896729 8.38672 1.68342 6.51206 3.25641C5.38377 4.20318 4.51174 5.35515 3.90612 6.6166C3.82207 6.6086 3.74028 6.59037 3.65398 6.59037C2.14699 6.59037 0.933594 7.80375 0.933594 9.31071V12.6729C0.933594 14.1798 2.14699 15.3932 3.65398 15.3932C3.74028 15.3932 3.82207 15.3745 3.90612 15.3669C4.01455 15.5917 4.12674 15.8148 4.25319 16.034C4.74749 16.9162 6.06808 16.1608 5.55813 15.2875C3.4702 11.671 4.27881 7.08834 7.47766 4.40416C10.6766 1.71992 15.323 1.71992 18.5219 4.40416C21.7208 7.08834 22.5294 11.6709 20.4415 15.2875L20.419 15.3249L20.4039 15.3624C20.4039 15.3624 19.3899 17.6057 17.3986 17.6057L14.878 17.5832C14.6416 17.238 14.2633 16.9976 13.8115 16.9976H12.1867C11.4581 16.9976 10.8721 17.5856 10.8721 18.3142C10.8721 18.7636 11.1572 19.1048 11.8098 19.1048L17.3986 19.1052C20.3867 19.1052 21.6791 16.1716 21.7379 16.0359V16.0279C21.8633 15.8106 21.9736 15.5876 22.0813 15.3648C22.1691 15.3728 22.2546 15.391 22.345 15.391C23.852 15.391 25.0654 14.1777 25.0654 12.6707V9.30855C25.0654 7.8016 23.852 6.58821 22.345 6.58821C22.258 6.58821 22.1758 6.6026 22.091 6.61444C21.4868 5.3529 20.6174 4.20106 19.4889 3.25422C17.6143 1.68123 15.3028 0.894531 12.9954 0.894531L12.9959 0.896729ZM9.71717 5.67622C9.13154 5.63798 8.59661 5.76182 8.12917 6.25404C6.88269 7.56633 6.11265 9.35245 6.11265 11.2546C6.11265 12.8236 6.63701 14.5816 7.52032 14.6458C8.77874 14.7373 10.7646 13.9109 12.9998 13.9109C15.3685 13.9109 17.4588 14.8382 18.6984 14.6187C19.4496 14.4859 19.8889 12.6901 19.8889 11.2546C19.8889 9.35245 19.117 7.56633 17.8704 6.25404C16.624 4.9417 14.9019 6.25404 12.9998 6.25404C11.811 6.25404 10.6932 5.7403 9.71717 5.67622ZM9.43802 8.91036C10.1329 8.91064 10.6962 9.47388 10.6964 10.1688C10.6962 10.8637 10.1329 11.4269 9.43802 11.4272C8.74313 11.4269 8.17987 10.8637 8.17964 10.1688C8.17987 9.47388 8.74313 8.91064 9.43802 8.91036ZM16.5617 8.91036C17.2566 8.91064 17.8199 9.47388 17.8201 10.1688C17.8199 10.8637 17.2566 11.4269 16.5617 11.4272C15.8668 11.4269 15.3036 10.8637 15.3033 10.1688C15.3036 9.47388 15.8668 8.91064 16.5617 8.91036Z" fill="#005F73"/>
</svg>
