<svg width="24" height="16" viewBox="0 0 24 16" fill="none" xmlns="http://www.w3.org/2000/svg">
<path d="M12.7523 0.284907C12.6701 0.195576 12.5686 0.123932 12.4546 0.0747904C12.3407 0.0256488 12.217 0.000149555 12.0917 6.89326e-06C11.9669 -0.000474324 11.8434 0.024245 11.7295 0.0725138C11.6156 0.120783 11.5139 0.191489 11.4312 0.27991C5.21698 6.97258 8.78911 12.2757 11.4312 14.8098C11.5135 14.8882 11.6115 14.9502 11.7195 14.9923C11.8275 15.0343 11.9433 15.0556 12.06 15.0548C12.3076 15.0504 12.5433 14.9533 12.7153 14.7849C15.331 12.2357 18.7816 6.96258 12.7523 0.284907Z" fill="url(#paint0_linear_6080_11948)"/>
<path d="M6.53192 9.14658C5.12631 8.39185 3.20814 7.957 0.666435 8.11694C0.562699 8.11945 0.46099 8.14468 0.369302 8.19064C0.277614 8.23661 0.198443 8.30206 0.138013 8.38185C0.0774631 8.4581 0.0348265 8.54571 0.0129554 8.6388C-0.00891576 8.73189 -0.00951708 8.82833 0.0111917 8.92166C1.59646 15.9192 6.88067 16.2941 9.92967 15.8892C10.0545 15.8685 10.1712 15.8168 10.2679 15.7393C8.28491 13.9938 6.97084 11.6749 6.53192 9.14658Z" fill="url(#paint1_linear_6080_11948)"/>
<path d="M17.4625 9.14658C18.884 8.39185 20.7863 7.957 23.328 8.11694C23.4317 8.11945 23.5334 8.14468 23.6251 8.19064C23.7168 8.23661 23.796 8.30206 23.8564 8.38185C23.917 8.4581 23.9596 8.54571 23.9815 8.6388C24.0033 8.73189 24.0039 8.82833 23.9832 8.92166C22.398 15.9192 17.1137 16.2941 14.0648 15.8892C13.9399 15.8685 13.8232 15.8168 13.7266 15.7393C15.7095 13.9938 17.0236 11.6749 17.4625 9.14658Z" fill="url(#paint2_linear_6080_11948)"/>
<path d="M6.38166 7.49747C6.55076 5.21827 7.01577 4.18862 7.23242 3.82375C6.20587 3.07771 5.05846 2.4937 3.83467 2.09435C3.74185 2.06191 3.64265 2.04912 3.54404 2.0569C3.44543 2.06467 3.34983 2.09281 3.26397 2.13934C3.17821 2.18621 3.10381 2.24957 3.04555 2.32533C2.9873 2.40109 2.9465 2.48758 2.92578 2.57919C2.59156 3.95871 2.54668 5.38685 2.79368 6.78272C4.02108 6.84743 5.23092 7.08844 6.38166 7.49747Z" fill="url(#paint3_linear_6080_11948)"/>
<path d="M21.1412 2.56356C21.1221 2.47137 21.0819 2.38423 21.0235 2.30826C20.9651 2.23228 20.8899 2.1693 20.803 2.12371C20.7172 2.07719 20.6215 2.04905 20.5229 2.04127C20.4243 2.0335 20.3251 2.04629 20.2323 2.07873C19.0107 2.4792 17.8652 3.06314 16.8398 3.80813C17.0512 4.173 17.5215 5.20264 17.6853 7.48185C18.8377 7.07232 20.0494 6.8313 21.2786 6.7671C21.5292 5.37124 21.4825 3.94211 21.1412 2.56356Z" fill="url(#paint4_linear_6080_11948)"/>
<defs>
<linearGradient id="paint0_linear_6080_11948" x1="8.22251" y1="14.2184" x2="19.6646" y2="14.0587" gradientUnits="userSpaceOnUse">
<stop stop-color="#005F73"/>
<stop offset="1" stop-color="#6CC24A"/>
</linearGradient>
<linearGradient id="paint1_linear_6080_11948" x1="0.297548" y1="15.56" x2="14.7687" y2="15.0736" gradientUnits="userSpaceOnUse">
<stop stop-color="#005F73"/>
<stop offset="1" stop-color="#6CC24A"/>
</linearGradient>
<linearGradient id="paint2_linear_6080_11948" x1="14.028" y1="15.56" x2="28.4992" y2="15.0736" gradientUnits="userSpaceOnUse">
<stop stop-color="#005F73"/>
<stop offset="1" stop-color="#6CC24A"/>
</linearGradient>
<linearGradient id="paint3_linear_6080_11948" x1="2.77159" y1="7.19509" x2="9.25036" y2="7.0534" gradientUnits="userSpaceOnUse">
<stop stop-color="#005F73"/>
<stop offset="1" stop-color="#6CC24A"/>
</linearGradient>
<linearGradient id="paint4_linear_6080_11948" x1="16.9748" y1="7.17947" x2="23.4559" y2="7.03768" gradientUnits="userSpaceOnUse">
<stop stop-color="#005F73"/>
<stop offset="1" stop-color="#6CC24A"/>
</linearGradient>
</defs>
</svg>
