<svg width="21" height="20" viewBox="0 0 21 20" fill="none" xmlns="http://www.w3.org/2000/svg">
<g clip-path="url(#clip0_4134_330227)">
<path opacity="0.993" fill-rule="evenodd" clip-rule="evenodd" d="M7.98047 19.9807C7.69402 19.9807 7.40754 19.9807 7.12109 19.9807C5.90082 19.6584 5.24977 18.8641 5.16797 17.5979C3.91668 17.2515 3.15496 16.4443 2.88281 15.176C2.87625 14.8107 2.85672 14.4461 2.82422 14.0822C1.55044 13.746 0.769191 12.9388 0.480469 11.6604C0.480469 11.0874 0.480469 10.5145 0.480469 9.94161C0.769541 8.6629 1.55079 7.85559 2.82422 7.51973C2.70738 6.33942 3.08498 5.35637 3.95703 4.57051C4.31982 4.29801 4.72348 4.10922 5.16797 4.00411C5.23941 2.83863 5.82535 2.06389 6.92578 1.67989C8.23949 1.43558 9.18348 1.91084 9.75781 3.10567C9.81281 3.24461 9.85188 3.38784 9.875 3.53536C9.90105 6.72547 9.90105 9.91555 9.875 13.1057C9.76352 13.5297 9.50961 13.8357 9.11328 14.0236C8.82617 14.0888 8.53973 14.1539 8.25391 14.219C7.98082 14.4116 7.90918 14.6656 8.03906 14.9807C8.10801 15.0968 8.20566 15.1814 8.33203 15.2346C8.89258 15.2979 9.40691 15.1742 9.875 14.8635C9.90105 15.9312 9.90105 16.9989 9.875 18.0666C9.62598 19.0903 8.99449 19.7284 7.98047 19.9807Z" fill="url(#paint0_linear_4134_330227)"/>
<path opacity="0.993" fill-rule="evenodd" clip-rule="evenodd" d="M20.4805 9.94153C20.4805 10.5145 20.4805 11.0873 20.4805 11.6603C20.1913 12.9391 19.41 13.7464 18.1367 14.0822C18.276 15.4502 17.7812 16.5114 16.6524 17.2657C16.3793 17.411 16.0928 17.5217 15.793 17.5978C15.7089 18.866 15.0578 19.6603 13.8399 19.9806C13.5534 19.9806 13.2669 19.9806 12.9805 19.9806C11.9644 19.7262 11.3329 19.0882 11.0859 18.0665C11.0599 14.8764 11.0599 11.6863 11.0859 8.49621C11.2259 8.00469 11.5384 7.67914 12.0234 7.51965C12.2565 7.49672 12.4843 7.45114 12.707 7.38293C13.0234 7.12336 13.0625 6.82391 12.8242 6.4845C12.7591 6.44543 12.694 6.40637 12.6289 6.36731C12.0654 6.29246 11.5511 6.41614 11.0859 6.7384C11.0599 5.67071 11.0599 4.60297 11.0859 3.53528C11.4694 2.1373 12.3874 1.50579 13.8399 1.64075C15.0655 1.94884 15.7166 2.7366 15.793 4.00403C17.0443 4.35036 17.806 5.15762 18.0781 6.4259C18.0847 6.79118 18.1042 7.15575 18.1367 7.51965C19.4102 7.85551 20.1914 8.66282 20.4805 9.94153Z" fill="url(#paint1_linear_4134_330227)"/>
</g>
<defs>
<linearGradient id="paint0_linear_4134_330227" x1="0.756751" y1="18.9605" x2="14.0322" y2="18.7842" gradientUnits="userSpaceOnUse">
<stop stop-color="#005F73"/>
<stop offset="1" stop-color="#6CC24A"/>
</linearGradient>
<linearGradient id="paint1_linear_4134_330227" x1="11.3427" y1="18.9607" x2="24.6181" y2="18.7844" gradientUnits="userSpaceOnUse">
<stop stop-color="#005F73"/>
<stop offset="1" stop-color="#6CC24A"/>
</linearGradient>
<clipPath id="clip0_4134_330227">
<rect width="20" height="20" fill="white" transform="translate(0.5)"/>
</clipPath>
</defs>
</svg>
