<svg width="25" height="25" viewBox="0 0 25 25" fill="none" xmlns="http://www.w3.org/2000/svg">
<rect x="1" y="1" width="24" height="24" rx="8" fill="white"/>
<path d="M13.4392 7.11212C13.3775 7.04512 13.3014 6.99139 13.216 6.95453C13.1305 6.91767 13.0377 6.89855 12.9438 6.89844C12.8502 6.89808 12.7576 6.91662 12.6722 6.95282C12.5867 6.98902 12.5104 7.04205 12.4484 7.10837C7.78773 12.1279 10.4668 16.1052 12.4484 18.0058C12.5101 18.0646 12.5837 18.1111 12.6646 18.1427C12.7456 18.1742 12.8325 18.1901 12.92 18.1895C13.1057 18.1862 13.2824 18.1134 13.4115 17.9871C15.3732 16.0752 17.9612 12.1204 13.4392 7.11212Z" fill="url(#paint0_linear_9859_213479)"/>
<path d="M8.77296 13.7579C7.71876 13.1918 6.28013 12.8657 4.37385 12.9857C4.29605 12.9875 4.21977 13.0065 4.151 13.0409C4.08223 13.0754 4.02286 13.1245 3.97753 13.1843C3.93212 13.2415 3.90014 13.3072 3.88374 13.377C3.86734 13.4469 3.86689 13.5192 3.88242 13.5892C5.07137 18.8374 9.03453 19.1185 11.3213 18.8149C11.4149 18.7994 11.5024 18.7605 11.5749 18.7024C10.0877 17.3933 9.10216 15.6541 8.77296 13.7579Z" fill="url(#paint1_linear_9859_213479)"/>
<path d="M16.9738 13.7579C18.0399 13.1918 19.4667 12.8657 21.3729 12.9857C21.4507 12.9875 21.527 13.0065 21.5958 13.0409C21.6646 13.0754 21.7239 13.1245 21.7693 13.1843C21.8147 13.2415 21.8466 13.3072 21.8631 13.377C21.8795 13.4469 21.8799 13.5192 21.8644 13.5892C20.6754 18.8374 16.7123 19.1185 14.4255 18.8149C14.3319 18.7994 14.2444 18.7605 14.1719 18.7024C15.6591 17.3933 16.6446 15.6541 16.9738 13.7579Z" fill="url(#paint2_linear_9859_213479)"/>
<path d="M8.66027 12.5196C8.78709 10.8102 9.13585 10.038 9.29834 9.7643C8.52842 9.20477 7.66786 8.76676 6.75002 8.46725C6.68041 8.44292 6.60601 8.43333 6.53205 8.43916C6.4581 8.44499 6.38639 8.46609 6.322 8.50099C6.25768 8.53614 6.20188 8.58366 6.15819 8.64048C6.1145 8.69731 6.0839 8.76217 6.06836 8.83087C5.81769 9.86552 5.78403 10.9366 5.96928 11.9835C6.88983 12.0321 7.79722 12.2128 8.66027 12.5196Z" fill="url(#paint3_linear_9859_213479)"/>
<path d="M19.7299 8.82306C19.7156 8.75392 19.6855 8.68857 19.6417 8.63158C19.5979 8.5746 19.5414 8.52736 19.4763 8.49318C19.4119 8.45828 19.3402 8.43717 19.2662 8.43135C19.1923 8.42552 19.1179 8.43511 19.0483 8.45944C18.132 8.75979 17.2729 9.19775 16.5039 9.75649C16.6624 10.0301 17.0152 10.8024 17.138 12.5118C18.0023 12.2046 18.9111 12.0239 19.833 11.9757C20.0209 10.9288 19.9859 9.85697 19.7299 8.82306Z" fill="url(#paint4_linear_9859_213479)"/>
<defs>
<linearGradient id="paint0_linear_9859_213479" x1="10.0419" y1="17.5622" x2="18.6235" y2="17.4424" gradientUnits="userSpaceOnUse">
<stop stop-color="#005F73"/>
<stop offset="1" stop-color="#6CC24A"/>
</linearGradient>
<linearGradient id="paint1_linear_9859_213479" x1="4.09718" y1="18.5679" x2="14.9505" y2="18.2032" gradientUnits="userSpaceOnUse">
<stop stop-color="#005F73"/>
<stop offset="1" stop-color="#6CC24A"/>
</linearGradient>
<linearGradient id="paint2_linear_9859_213479" x1="14.398" y1="18.5679" x2="25.2513" y2="18.2032" gradientUnits="userSpaceOnUse">
<stop stop-color="#005F73"/>
<stop offset="1" stop-color="#6CC24A"/>
</linearGradient>
<linearGradient id="paint3_linear_9859_213479" x1="5.95272" y1="12.2928" x2="10.8118" y2="12.1865" gradientUnits="userSpaceOnUse">
<stop stop-color="#005F73"/>
<stop offset="1" stop-color="#6CC24A"/>
</linearGradient>
<linearGradient id="paint4_linear_9859_213479" x1="16.6051" y1="12.285" x2="21.4659" y2="12.1786" gradientUnits="userSpaceOnUse">
<stop stop-color="#005F73"/>
<stop offset="1" stop-color="#6CC24A"/>
</linearGradient>
</defs>
</svg>
