<svg width="16" height="16" viewBox="0 0 16 16" fill="none" xmlns="http://www.w3.org/2000/svg">
<path d="M10.2734 12.3933C10.0067 12.3933 9.78672 12.1733 9.78672 11.9066C9.78672 11.6399 10.0067 11.4199 10.2734 11.4199C12.1534 11.4199 13.6867 9.88661 13.6867 8.00661C13.6867 6.12661 12.1534 4.59328 10.2734 4.59328C8.39339 4.59328 6.86005 6.12661 6.86005 8.00661C6.86005 8.27328 6.64005 8.49328 6.37339 8.49328C6.10672 8.49328 5.88672 8.27328 5.88672 8.00661C5.88672 5.58661 7.85339 3.61328 10.2801 3.61328C12.7067 3.61328 14.6667 5.57995 14.6667 7.99995C14.6667 10.4199 12.7001 12.3933 10.2734 12.3933Z" fill="#6CC24A"/>
<path d="M5.72683 3.60547C5.9935 3.60547 6.2135 3.82547 6.2135 4.09214C6.2135 4.3588 5.9935 4.5788 5.72683 4.5788C3.84683 4.5788 2.3135 6.11214 2.3135 7.99214C2.3135 9.87214 3.84683 11.4055 5.72683 11.4055C7.60683 11.4055 9.14016 9.87214 9.14016 7.99214C9.14016 7.72547 9.36016 7.50547 9.62683 7.50547C9.8935 7.50547 10.1135 7.72547 10.1135 7.99214C10.1135 10.4121 8.14683 12.3855 5.72016 12.3855C3.2935 12.3855 1.3335 10.4188 1.3335 7.9988C1.3335 5.5788 3.30016 3.60547 5.72683 3.60547Z" fill="#6CC24A"/>
</svg>
