<svg width="20" height="20" viewBox="0 0 20 20" fill="none" xmlns="http://www.w3.org/2000/svg">
<path d="M15.3338 11.5774L15.3338 11.5774L15.3287 11.5722C15.2468 11.4903 15.2544 11.3749 15.3235 11.3082L15.3235 11.3083L15.3287 11.3031C17.1577 9.47415 17.1587 6.50143 15.3279 4.6798C13.5001 2.86108 10.5279 2.84956 8.70535 4.68128C6.88675 6.50902 6.87511 9.48091 8.70646 11.3035C8.78793 11.3853 8.78028 11.5005 8.7113 11.5671L8.71126 11.567L8.70609 11.5722C8.62422 11.6541 8.50883 11.6465 8.44213 11.5774L8.44218 11.5774L8.43701 11.5722C6.45774 9.59294 6.45857 6.37387 8.43644 4.4037C10.4166 2.43127 13.6361 2.42541 15.6055 4.40255C17.5768 6.38154 17.5768 9.59316 15.5978 11.5722C15.5159 11.6541 15.4005 11.6465 15.3338 11.5774Z" fill="#005F73" stroke="#005F73" stroke-width="0.833333"/>
<path d="M4.10827 8.1334C4.34994 7.89173 4.73327 7.89173 4.9666 8.1334C5.20827 8.37507 5.20827 8.7584 4.9666 8.99173C3.29994 10.6584 3.29994 13.3667 4.9666 15.0251C6.63327 16.6834 9.3416 16.6917 10.9999 15.0251C12.6583 13.3584 12.6666 10.6501 10.9999 8.99173C10.7583 8.75006 10.7583 8.36673 10.9999 8.1334C11.2416 7.89173 11.6249 7.89173 11.8583 8.1334C13.9999 10.2751 13.9999 13.7584 11.8583 15.8917C9.7166 18.0251 6.23327 18.0334 4.09994 15.8917C1.9666 13.7501 1.9666 10.2751 4.10827 8.1334Z" fill="#005F73"/>
</svg>
