<svg width="16" height="16" viewBox="0 0 16 16" fill="none" xmlns="http://www.w3.org/2000/svg">
<path d="M12.3933 5.72661C12.3933 5.99328 12.1733 6.21328 11.9066 6.21328C11.6399 6.21328 11.4199 5.99328 11.4199 5.72661C11.4199 3.84661 9.88661 2.31328 8.00661 2.31328C6.12661 2.31328 4.59328 3.84661 4.59328 5.72661C4.59328 7.60661 6.12661 9.13995 8.00661 9.13995C8.27328 9.13995 8.49328 9.35995 8.49328 9.62661C8.49328 9.89328 8.27328 10.1133 8.00661 10.1133C5.58661 10.1133 3.61328 8.14661 3.61328 5.71995C3.61328 3.29328 5.57995 1.33328 7.99995 1.33328C10.4199 1.33328 12.3933 3.29995 12.3933 5.72661Z" fill="#909090"/>
<path d="M3.60669 10.2746C3.60669 10.008 3.82669 9.78797 4.09336 9.78797C4.36002 9.78797 4.58002 10.008 4.58002 10.2746C4.58002 12.1546 6.11336 13.688 7.99336 13.688C9.87336 13.688 11.4067 12.1546 11.4067 10.2746C11.4067 8.39463 9.87336 6.8613 7.99336 6.8613C7.72669 6.8613 7.50669 6.6413 7.50669 6.37464C7.50669 6.10797 7.72669 5.88797 7.99336 5.88797C10.4134 5.88797 12.3867 7.85463 12.3867 10.2813C12.3867 12.708 10.42 14.668 8.00002 14.668C5.58002 14.668 3.60669 12.7013 3.60669 10.2746Z" fill="#909090"/>
</svg>
