<svg width="16" height="16" viewBox="0 0 16 16" fill="none" xmlns="http://www.w3.org/2000/svg">
<path d="M7.66803 10.6667C6.66803 12 5.66803 12 4.66803 12.3334C3.66803 12.6667 3.11413 13.3898 2.3347 13C1.55526 12.6103 2.3347 10.3334 2.3347 9.00004C2.3347 7.66671 1.3347 5.33337 3.3347 4.00004C5.3347 2.66671 8.3347 4.33337 8.3347 4.33337M10.668 9.00004C10.668 9.00004 11.9458 8.40744 13.0014 7.00004C13.5405 6.28118 14.0507 5.34008 14.4208 4.5913C14.6684 4.09032 14.1983 3.53384 13.6464 3.62185C12.8517 3.74861 11.8418 3.83478 11.0014 3.6667C9.3347 3.33336 8.3347 4.33337 8.3347 4.33337M8.3347 4.33337C8.44581 4.77782 8.66803 6.00004 8.66803 7.33337M6.66803 7.00004C6.66803 7.66671 7.00136 9.00004 8.3347 9.00004M8.3347 9.00004C9.66803 9.00004 10.0014 7.66671 10.0014 7.00004M8.3347 9.00004C6.00136 10 4.89025 8.77782 4.66803 8.33337M8.3347 9.00004C8.77914 9.22226 10.0014 10.3334 9.66803 11.6667" stroke="#6CC24A" stroke-linecap="round" stroke-linejoin="round"/>
</svg>
