<svg width="20" height="20" viewBox="0 0 20 20" fill="none" xmlns="http://www.w3.org/2000/svg">
<path d="M12.5908 1.94168H12.6992C14.6875 1.9417 15.9879 2.36904 16.8008 3.18192C17.6136 3.99481 18.041 5.29526 18.041 7.28348V12.7171C18.041 14.7052 17.6136 16.0058 16.8008 16.8186C15.9879 17.6314 14.6874 18.0579 12.6992 18.0579H12.5908C10.7953 18.0579 9.55906 17.7027 8.73926 17.0335C7.93057 16.3734 7.4434 15.3387 7.29688 13.7864V13.7845L7.30176 13.7366C7.31607 13.6902 7.35727 13.6531 7.41309 13.6477H7.41602C7.43802 13.6457 7.47035 13.652 7.50195 13.678C7.53221 13.703 7.54717 13.7343 7.55078 13.762V13.763C7.67753 15.135 8.07561 16.1939 8.95215 16.886C9.81011 17.5634 11.0286 17.8078 12.5986 17.8079H12.707C14.4375 17.8079 15.7593 17.5076 16.6289 16.638C17.4984 15.7684 17.7988 14.4473 17.7988 12.7171V7.28348C17.7988 5.55301 17.4985 4.23119 16.6289 3.3616C15.7593 2.49213 14.4374 2.19168 12.707 2.19168H12.5986C11.0198 2.19173 9.79442 2.44057 8.93555 3.13113C8.06324 3.83258 7.67235 4.90327 7.55273 6.28934C7.54711 6.33542 7.52532 6.37039 7.5 6.39188C7.47649 6.41177 7.44837 6.42258 7.41309 6.41922L7.40137 6.41824L7.35742 6.40555C7.3168 6.38467 7.28566 6.33947 7.28906 6.28055C7.42429 4.7047 7.90869 3.65315 8.71875 2.9827C9.54008 2.30296 10.7835 1.94168 12.5908 1.94168Z" fill="#005F73" stroke="#005F73"/>
<path d="M12.499 10.625H3.01562C2.67396 10.625 2.39062 10.3417 2.39062 10C2.39062 9.65833 2.67396 9.375 3.01562 9.375H12.499C12.8406 9.375 13.124 9.65833 13.124 10C13.124 10.3417 12.8406 10.625 12.499 10.625Z" fill="#005F73"/>
<path d="M4.87552 13.4167C4.71719 13.4167 4.55885 13.3583 4.43385 13.2333L1.64219 10.4417C1.40052 10.2 1.40052 9.8 1.64219 9.55834L4.43385 6.76667C4.67552 6.525 5.07552 6.525 5.31719 6.76667C5.55885 7.00834 5.55885 7.40834 5.31719 7.65L2.96719 10L5.31719 12.35C5.55885 12.5917 5.55885 12.9917 5.31719 13.2333C5.20052 13.3583 5.03385 13.4167 4.87552 13.4167Z" fill="#005F73"/>
</svg>
