<svg width="20" height="20" viewBox="0 0 20 20" fill="none" xmlns="http://www.w3.org/2000/svg">
<path d="M16.1369 10.4037L16.4904 10.0502L16.1369 9.69664L14.4452 8.00497C14.4237 7.98345 14.4104 7.95271 14.4104 7.91686C14.4104 7.88101 14.4237 7.85028 14.4452 7.82875C14.4667 7.80722 14.4975 7.79395 14.5333 7.79395C14.5692 7.79395 14.5999 7.80722 14.6214 7.82875L16.7548 9.96208C16.7763 9.98361 16.7896 10.0143 16.7896 10.0502C16.7896 10.086 16.7763 10.1168 16.7548 10.1383L14.6214 12.2716C14.6067 12.2863 14.5927 12.2948 14.5798 12.2999C14.5665 12.3053 14.551 12.3085 14.5333 12.3085C14.5156 12.3085 14.5001 12.3053 14.4868 12.2999C14.4739 12.2948 14.4599 12.2863 14.4452 12.2716C14.4237 12.2501 14.4104 12.2194 14.4104 12.1835C14.4104 12.1477 14.4237 12.1169 14.4452 12.0954L16.1369 10.4037Z" fill="#005F73" stroke="#005F73"/>
<path d="M16.6084 10.6748H8.13336C7.7917 10.6748 7.50836 10.3915 7.50836 10.0498C7.50836 9.70814 7.7917 9.4248 8.13336 9.4248H16.6084C16.95 9.4248 17.2334 9.70814 17.2334 10.0498C17.2334 10.3915 16.95 10.6748 16.6084 10.6748Z" fill="#005F73"/>
<path d="M9.80003 17.2918C5.50836 17.2918 2.50836 14.2918 2.50836 10.0002C2.50836 5.7085 5.50836 2.7085 9.80003 2.7085C10.1417 2.7085 10.425 2.99183 10.425 3.3335C10.425 3.67516 10.1417 3.9585 9.80003 3.9585C6.2417 3.9585 3.75836 6.44183 3.75836 10.0002C3.75836 13.5585 6.2417 16.0418 9.80003 16.0418C10.1417 16.0418 10.425 16.3252 10.425 16.6668C10.425 17.0085 10.1417 17.2918 9.80003 17.2918Z" fill="#005F73"/>
</svg>
