<svg width="16" height="17" viewBox="0 0 16 17" fill="none" xmlns="http://www.w3.org/2000/svg">
<path d="M7.99967 11.2691C7.73301 11.2691 7.46634 11.2491 7.21301 11.2025C5.79967 10.9958 4.51301 10.1825 3.69967 8.97579C3.13301 8.12246 2.83301 7.12912 2.83301 6.10246C2.83301 3.25579 5.15301 0.935791 7.99967 0.935791C10.8463 0.935791 13.1663 3.25579 13.1663 6.10246C13.1663 7.12912 12.8663 8.12246 12.2997 8.97579C11.4797 10.1891 10.193 10.9958 8.76634 11.2091C8.53301 11.2491 8.26634 11.2691 7.99967 11.2691ZM7.99967 1.93579C5.69967 1.93579 3.83301 3.80246 3.83301 6.10246C3.83301 6.93579 4.07301 7.73579 4.52634 8.41579C5.18634 9.38913 6.21967 10.0425 7.36634 10.2091C7.79301 10.2825 8.21301 10.2825 8.60634 10.2091C9.77301 10.0425 10.8063 9.38245 11.4663 8.40912C11.9197 7.72912 12.1597 6.92912 12.1597 6.09578C12.1663 3.80245 10.2997 1.93579 7.99967 1.93579Z" fill="#005F73"/>
<path d="M4.31289 15.1624C4.21955 15.1624 4.13289 15.149 4.03955 15.129C3.60622 15.029 3.27289 14.6957 3.17289 14.2623L2.93955 13.2823C2.92622 13.2223 2.87955 13.1757 2.81289 13.1557L1.71289 12.8957C1.29955 12.7957 0.972886 12.489 0.859553 12.0824C0.74622 11.6757 0.859553 11.2357 1.15955 10.9357L3.75955 8.33569C3.86622 8.22903 4.01289 8.17569 4.15955 8.18903C4.30622 8.20236 4.43955 8.28235 4.52622 8.40902C5.18622 9.38235 6.21955 10.0424 7.37289 10.209C7.79955 10.2824 8.21955 10.2824 8.61289 10.209C9.77955 10.0424 10.8129 9.38235 11.4729 8.40902C11.5529 8.28235 11.6929 8.20236 11.8396 8.18903C11.9862 8.17569 12.1329 8.22903 12.2396 8.33569L14.8396 10.9357C15.1396 11.2357 15.2529 11.6757 15.1396 12.0824C15.0262 12.489 14.6929 12.8024 14.2862 12.8957L13.1862 13.1557C13.1262 13.169 13.0796 13.2157 13.0596 13.2823L12.8262 14.2623C12.7262 14.6957 12.3929 15.029 11.9596 15.129C11.5262 15.2357 11.0796 15.0823 10.7996 14.7423L7.99955 11.5224L5.19955 14.749C4.97289 15.0157 4.65289 15.1624 4.31289 15.1624ZM4.05955 9.45569L1.86622 11.649C1.80622 11.709 1.81289 11.7757 1.82622 11.8157C1.83289 11.849 1.86622 11.9157 1.94622 11.929L3.04622 12.189C3.47955 12.289 3.81289 12.6224 3.91289 13.0557L4.14622 14.0357C4.16622 14.1224 4.23289 14.149 4.27289 14.1624C4.31289 14.169 4.37955 14.1757 4.43955 14.109L6.99289 11.169C5.85955 10.949 4.81955 10.3424 4.05955 9.45569ZM9.00622 11.1624L11.5596 14.0957C11.6196 14.169 11.6929 14.169 11.7329 14.1557C11.7729 14.149 11.8329 14.1157 11.8596 14.029L12.0929 13.049C12.1929 12.6157 12.5262 12.2824 12.9596 12.1824L14.0596 11.9224C14.1396 11.9024 14.1729 11.8424 14.1796 11.809C14.1929 11.7757 14.1996 11.7024 14.1396 11.6424L11.9462 9.44901C11.1796 10.3357 10.1462 10.9424 9.00622 11.1624Z" fill="#005F73"/>
<path d="M9.26042 8.6958C9.08709 8.6958 8.88042 8.64913 8.63375 8.50246L8.00042 8.12246L7.36709 8.49579C6.78709 8.84246 6.40709 8.64246 6.26709 8.54246C6.12709 8.44246 5.82709 8.14246 5.98042 7.48246L6.14042 6.7958L5.60709 6.30245C5.31375 6.00912 5.20709 5.6558 5.30709 5.3358C5.40709 5.0158 5.70042 4.78912 6.11375 4.72245L6.82709 4.60246L7.16709 3.85579C7.36042 3.47579 7.66042 3.26245 8.00042 3.26245C8.34042 3.26245 8.64709 3.48247 8.83375 3.86247L9.22709 4.64913L9.88709 4.72913C10.2938 4.79579 10.5871 5.02245 10.6938 5.34245C10.7938 5.66245 10.6871 6.01579 10.3938 6.30912L9.84042 6.86247L10.0138 7.48246C10.1671 8.14246 9.86709 8.44246 9.72709 8.54246C9.65375 8.60246 9.49375 8.6958 9.26042 8.6958ZM6.40709 5.6958L6.86709 6.15578C7.08042 6.36912 7.18709 6.72913 7.12042 7.02246L6.99375 7.55579L7.52709 7.24245C7.81375 7.07579 8.20042 7.07579 8.48042 7.24245L9.01375 7.55579L8.89375 7.02246C8.82709 6.72246 8.92709 6.36912 9.14042 6.15578L9.60042 5.6958L9.02042 5.59578C8.74042 5.54912 8.46042 5.34247 8.33375 5.08913L8.00042 4.43579L7.66709 5.10246C7.54709 5.34912 7.26709 5.56246 6.98709 5.60913L6.40709 5.6958Z" fill="#005F73"/>
</svg>
