<svg width="17" height="17" viewBox="0 0 17 17" fill="none" xmlns="http://www.w3.org/2000/svg">
<g clip-path="url(#clip0_6470_122882)">
<path opacity="0.993" fill-rule="evenodd" clip-rule="evenodd" d="M6.3432 16.3788C6.11902 16.3788 5.89482 16.3788 5.67064 16.3788C4.71565 16.1266 4.20613 15.505 4.14211 14.514C3.16284 14.243 2.56671 13.6112 2.35373 12.6187C2.3486 12.3328 2.33331 12.0475 2.30787 11.7627C1.311 11.4996 0.699589 10.8678 0.473633 9.8673C0.473633 9.41892 0.473633 8.97057 0.473633 8.52219C0.699863 7.52146 1.31128 6.88966 2.30787 6.62681C2.21643 5.70309 2.51195 4.93375 3.19442 4.31873C3.47834 4.10547 3.79425 3.95772 4.14211 3.87545C4.19802 2.96334 4.65658 2.35702 5.51779 2.0565C6.54591 1.8653 7.28468 2.23724 7.73416 3.17233C7.77721 3.28106 7.80778 3.39316 7.82587 3.50861C7.84626 6.00522 7.84626 8.5018 7.82587 10.9984C7.73863 11.3302 7.53992 11.5697 7.22975 11.7168C7.00505 11.7678 6.78088 11.8187 6.55719 11.8697C6.34347 12.0205 6.28741 12.2192 6.38905 12.4658C6.44301 12.5567 6.51944 12.6229 6.61833 12.6645C7.05702 12.714 7.45955 12.6173 7.82587 12.3741C7.84626 13.2097 7.84626 14.0453 7.82587 14.8809C7.63099 15.6821 7.13678 16.1814 6.3432 16.3788Z" fill="#6CC24A"/>
<path opacity="0.993" fill-rule="evenodd" clip-rule="evenodd" d="M16.1293 8.52584C16.1293 8.97422 16.1293 9.42256 16.1293 9.87094C15.9029 10.8718 15.2915 11.5036 14.295 11.7663C14.404 12.837 14.0168 13.6675 13.1333 14.2578C12.9196 14.3715 12.6954 14.4582 12.4608 14.5177C12.395 15.5102 11.8854 16.1318 10.9322 16.3825C10.7081 16.3825 10.4839 16.3825 10.2597 16.3825C9.46448 16.1834 8.97025 15.6841 8.77701 14.8845C8.75662 12.3879 8.75662 9.89134 8.77701 7.39472C8.88658 7.01005 9.13114 6.75528 9.51071 6.63046C9.69306 6.61251 9.87138 6.57683 10.0457 6.52346C10.2933 6.32032 10.3239 6.08596 10.1374 5.82033C10.0864 5.78976 10.0355 5.75919 9.98455 5.72862C9.54357 5.67005 9.14108 5.76683 8.77701 6.01904C8.75662 5.18345 8.75662 4.34784 8.77701 3.51225C9.07712 2.41818 9.79553 1.92396 10.9322 2.02957C11.8915 2.27069 12.401 2.8872 12.4608 3.8791C13.44 4.15014 14.0362 4.78191 14.2492 5.77448C14.2543 6.06034 14.2696 6.34566 14.295 6.63046C15.2916 6.8933 15.903 7.52511 16.1293 8.52584Z" fill="#6CC24A"/>
</g>
<defs>
<clipPath id="clip0_6470_122882">
<rect width="15.6522" height="15.6522" fill="white" transform="translate(0.489258 0.742188)"/>
</clipPath>
</defs>
</svg>
