<svg width="24" height="24" viewBox="0 0 24 24" fill="none" xmlns="http://www.w3.org/2000/svg">
<path d="M3 8C2.45333 8 2 7.54667 2 7C2 6.45333 2.45333 6 3 6C3.54667 6 4 6.45333 4 7C4 7.54667 3.54667 8 3 8Z" fill="#005F73"/>
<path d="M21.25 7.75H7.75C7.34 7.75 7 7.41 7 7C7 6.59 7.34 6.25 7.75 6.25L21.25 6.25C21.66 6.25 22 6.59 22 7C22 7.41 21.66 7.75 21.25 7.75Z" fill="#005F73"/>
<path d="M3 13C2.45333 13 2 12.5467 2 12C2 11.4533 2.45333 11 3 11C3.54667 11 4 11.4533 4 12C4 12.5467 3.54667 13 3 13Z" fill="#005F73"/>
<path d="M21.25 12.75H7.75C7.34 12.75 7 12.41 7 12C7 11.59 7.34 11.25 7.75 11.25L21.25 11.25C21.66 11.25 22 11.59 22 12C22 12.41 21.66 12.75 21.25 12.75Z" fill="#005F73"/>
<path d="M3 18C2.45333 18 2 17.5467 2 17C2 16.4533 2.45333 16 3 16C3.54667 16 4 16.4533 4 17C4 17.5467 3.54667 18 3 18Z" fill="#005F73"/>
<path d="M21.25 17.75H7.75C7.34 17.75 7 17.41 7 17C7 16.59 7.34 16.25 7.75 16.25L21.25 16.25C21.66 16.25 22 16.59 22 17C22 17.41 21.66 17.75 21.25 17.75Z" fill="#005F73"/>
</svg>
