<svg width="20" height="20" viewBox="0 0 20 20" fill="none" xmlns="http://www.w3.org/2000/svg">
<path d="M13.493 1.66675H6.50964C3.4763 1.66675 1.66797 3.47508 1.66797 6.50841V13.4834C1.66797 16.5251 3.4763 18.3334 6.50964 18.3334H13.4846C16.518 18.3334 18.3263 16.5251 18.3263 13.4917V6.50841C18.3346 3.47508 16.5263 1.66675 13.493 1.66675ZM14.168 14.3751H5.83464C5.49297 14.3751 5.20964 14.0917 5.20964 13.7501C5.20964 13.4084 5.49297 13.1251 5.83464 13.1251H14.168C14.5096 13.1251 14.793 13.4084 14.793 13.7501C14.793 14.0917 14.5096 14.3751 14.168 14.3751ZM14.168 10.6251H5.83464C5.49297 10.6251 5.20964 10.3417 5.20964 10.0001C5.20964 9.65842 5.49297 9.37508 5.83464 9.37508H14.168C14.5096 9.37508 14.793 9.65842 14.793 10.0001C14.793 10.3417 14.5096 10.6251 14.168 10.6251ZM14.168 6.87508H5.83464C5.49297 6.87508 5.20964 6.59175 5.20964 6.25008C5.20964 5.90841 5.49297 5.62508 5.83464 5.62508H14.168C14.5096 5.62508 14.793 5.90841 14.793 6.25008C14.793 6.59175 14.5096 6.87508 14.168 6.87508Z" fill="#E5E5E5"/>
</svg>
