<svg width="16" height="16" viewBox="0 0 16 16" fill="none" xmlns="http://www.w3.org/2000/svg">
<g clip-path="url(#clip0_727_59368)">
<mask id="mask0_727_59368" style="mask-type:luminance" maskUnits="userSpaceOnUse" x="0" y="0" width="16" height="16">
<path d="M16 0H0V16H16V0Z" fill="white"/>
</mask>
<g mask="url(#mask0_727_59368)">
<path opacity="0.993" fill-rule="evenodd" clip-rule="evenodd" d="M5.98438 15.9845C5.75521 15.9845 5.52603 15.9845 5.29688 15.9845C4.32065 15.7266 3.79981 15.0912 3.73437 14.0782C2.73334 13.8012 2.12397 13.1553 1.90625 12.1407C1.901 11.8485 1.88537 11.5568 1.85937 11.2657C0.840353 10.9967 0.215353 10.3509 -0.015625 9.32819C-0.015625 8.86987 -0.015625 8.41155 -0.015625 7.95321C0.215633 6.93025 0.840635 6.2844 1.85937 6.01571C1.7659 5.07146 2.06799 4.28503 2.76562 3.65634C3.05585 3.43833 3.37878 3.2873 3.73437 3.20322C3.79153 2.27083 4.26028 1.65104 5.14063 1.34384C6.1916 1.14839 6.94678 1.52859 7.40625 2.48446C7.45025 2.59562 7.4815 2.71019 7.5 2.82821C7.52084 5.38031 7.52084 7.93237 7.5 10.4845C7.41081 10.8237 7.20769 11.0685 6.89063 11.2189C6.66094 11.2709 6.43178 11.323 6.20313 11.3751C5.98465 11.5293 5.92734 11.7324 6.03125 11.9845C6.08641 12.0773 6.16453 12.1451 6.26562 12.1876C6.71406 12.2382 7.12554 12.1393 7.5 11.8907C7.52084 12.7449 7.52084 13.599 7.5 14.4532C7.30078 15.2722 6.7956 15.7826 5.98438 15.9845Z" fill="url(#paint0_linear_727_59368)"/>
<path opacity="0.993" fill-rule="evenodd" clip-rule="evenodd" d="M15.9805 7.9531C15.9805 8.41144 15.9805 8.86976 15.9805 9.32813C15.7491 10.3512 15.1241 10.997 14.1055 11.2656C14.2169 12.36 13.821 13.209 12.918 13.8125C12.6995 13.9287 12.4704 14.0173 12.2305 14.0781C12.1632 15.0927 11.6424 15.7281 10.668 15.9843C10.4388 15.9843 10.2097 15.9843 9.9805 15.9843C9.16761 15.7808 8.66238 15.2704 8.46485 14.4531C8.44401 11.901 8.44401 9.34893 8.46485 6.79685C8.57685 6.40363 8.82685 6.1432 9.21481 6.01559C9.4013 5.99726 9.58352 5.96079 9.76174 5.90623C10.0148 5.69856 10.0461 5.45901 9.85552 5.18747C9.80334 5.15623 9.75134 5.12497 9.69925 5.09372C9.24841 5.03385 8.83701 5.13279 8.46485 5.3906C8.44401 4.53644 8.44401 3.68225 8.46485 2.8281C8.77163 1.70972 9.50601 1.20451 10.668 1.31248C11.6485 1.55896 12.1694 2.18916 12.2305 3.2031C13.2315 3.48016 13.8409 4.12598 14.0586 5.1406C14.0639 5.43282 14.0795 5.72447 14.1055 6.01559C15.1242 6.28429 15.7492 6.93013 15.9805 7.9531Z" fill="url(#paint1_linear_727_59368)"/>
</g>
</g>
<defs>
<linearGradient id="paint0_linear_727_59368" x1="0.205401" y1="15.1683" x2="10.8258" y2="15.0273" gradientUnits="userSpaceOnUse">
<stop stop-color="#005F73"/>
<stop offset="1" stop-color="#6CC24A"/>
</linearGradient>
<linearGradient id="paint1_linear_727_59368" x1="8.67025" y1="15.1684" x2="19.2906" y2="15.0273" gradientUnits="userSpaceOnUse">
<stop stop-color="#005F73"/>
<stop offset="1" stop-color="#6CC24A"/>
</linearGradient>
<clipPath id="clip0_727_59368">
<rect width="16" height="16" fill="white"/>
</clipPath>
</defs>
</svg>
