<svg width="20" height="20" viewBox="0 0 20 20" fill="none" xmlns="http://www.w3.org/2000/svg">
<path d="M5.36719 1.54163H14.625C16.266 1.54163 17.1631 1.79954 17.6777 2.31409C18.1923 2.82868 18.4502 3.72577 18.4502 5.36682V10.6432C18.4543 12.2884 18.198 13.1867 17.6846 13.7018C17.1712 14.2168 16.275 14.4752 14.6338 14.4752H5.36719C3.72627 14.4752 2.82907 14.2173 2.31445 13.7028C1.79987 13.1882 1.542 12.291 1.54199 10.65V5.36682C1.54199 3.72577 1.79986 2.82868 2.31445 2.31409C2.82905 1.79949 3.72613 1.54163 5.36719 1.54163ZM5.36719 1.79163C4.70574 1.79163 4.14486 1.82035 3.68262 1.91467C3.21501 2.01011 2.80905 2.18082 2.49512 2.49475C2.18119 2.80868 2.01047 3.21464 1.91504 3.68225C1.82072 4.1445 1.79199 4.70538 1.79199 5.36682V10.6412C1.79199 11.3026 1.82073 11.8636 1.91504 12.3258C2.01047 12.7935 2.18116 13.2003 2.49512 13.5143C2.80902 13.828 3.21515 13.999 3.68262 14.0944C4.14486 14.1887 4.70576 14.2164 5.36719 14.2164H14.625C15.2864 14.2164 15.8474 14.1887 16.3096 14.0944C16.7772 13.9989 17.1841 13.8282 17.498 13.5143C17.812 13.2003 17.9827 12.7934 18.0781 12.3258C18.1724 11.8636 18.2002 11.3026 18.2002 10.6412V5.36682C18.2002 4.7054 18.1724 4.14449 18.0781 3.68225C17.9827 3.2148 17.8117 2.80865 17.498 2.49475C17.1841 2.18079 16.7772 2.0101 16.3096 1.91467C15.8473 1.82035 15.2864 1.79163 14.625 1.79163H5.36719Z" fill="#005F73" stroke="#005F73"/>
<path d="M10 18.9583C9.65833 18.9583 9.375 18.675 9.375 18.3333V14.35C9.375 14.0083 9.65833 13.725 10 13.725C10.3417 13.725 10.625 14.0083 10.625 14.35V18.3333C10.625 18.675 10.3417 18.9583 10 18.9583Z" fill="#005F73"/>
<path d="M18.3337 11.4584H1.66699C1.32533 11.4584 1.04199 11.175 1.04199 10.8334C1.04199 10.4917 1.32533 10.2084 1.66699 10.2084H18.3337C18.6753 10.2084 18.9587 10.4917 18.9587 10.8334C18.9587 11.175 18.6753 11.4584 18.3337 11.4584Z" fill="#005F73"/>
<path d="M13.75 18.9584H6.25C5.90833 18.9584 5.625 18.675 5.625 18.3334C5.625 17.9917 5.90833 17.7084 6.25 17.7084H13.75C14.0917 17.7084 14.375 17.9917 14.375 18.3334C14.375 18.675 14.0917 18.9584 13.75 18.9584Z" fill="#005F73"/>
</svg>
