<svg width="16" height="17" viewBox="0 0 16 17" fill="none" xmlns="http://www.w3.org/2000/svg">
<path d="M14.2259 11.1313C14.1215 10.9552 13.8281 10.6813 13.0976 10.8117C12.6933 10.8834 12.2824 10.916 11.8715 10.8965C10.352 10.8313 8.9759 10.1334 8.0172 9.05734C7.16937 8.11169 6.64764 6.87908 6.64111 5.54865C6.64111 4.80517 6.78459 4.08778 7.07807 3.40952C7.36503 2.75082 7.16285 2.40517 7.01937 2.26169C6.86937 2.11169 6.5172 1.903 5.8259 2.18995C3.1585 3.31169 1.50851 5.9856 1.70416 8.84865C1.89981 11.5421 3.79111 13.8443 6.29546 14.7117C6.89546 14.9204 7.52807 15.0443 8.18024 15.0704C8.28459 15.0769 8.38894 15.0834 8.49329 15.0834C10.6781 15.0834 12.7259 14.053 14.0172 12.2986C14.4542 11.6921 14.3368 11.3073 14.2259 11.1313Z" fill="#6CC24A"/>
</svg>
