<svg width="20" height="20" viewBox="0 0 20 20" fill="none" xmlns="http://www.w3.org/2000/svg">
<path d="M4.16667 12.2913C2.9 12.2913 1.875 11.2663 1.875 9.99967C1.875 8.73301 2.9 7.70801 4.16667 7.70801C5.43333 7.70801 6.45833 8.73301 6.45833 9.99967C6.45833 11.2663 5.43333 12.2913 4.16667 12.2913ZM4.16667 8.95801C3.59167 8.95801 3.125 9.42467 3.125 9.99967C3.125 10.5747 3.59167 11.0413 4.16667 11.0413C4.74167 11.0413 5.20833 10.5747 5.20833 9.99967C5.20833 9.42467 4.74167 8.95801 4.16667 8.95801Z" fill="#6CC24A"/>
<path d="M15.8332 12.2913C14.5665 12.2913 13.5415 11.2663 13.5415 9.99967C13.5415 8.73301 14.5665 7.70801 15.8332 7.70801C17.0998 7.70801 18.1248 8.73301 18.1248 9.99967C18.1248 11.2663 17.0998 12.2913 15.8332 12.2913ZM15.8332 8.95801C15.2582 8.95801 14.7915 9.42467 14.7915 9.99967C14.7915 10.5747 15.2582 11.0413 15.8332 11.0413C16.4082 11.0413 16.8748 10.5747 16.8748 9.99967C16.8748 9.42467 16.4082 8.95801 15.8332 8.95801Z" fill="#6CC24A"/>
<path d="M10.0002 12.2913C8.7335 12.2913 7.7085 11.2663 7.7085 9.99967C7.7085 8.73301 8.7335 7.70801 10.0002 7.70801C11.2668 7.70801 12.2918 8.73301 12.2918 9.99967C12.2918 11.2663 11.2668 12.2913 10.0002 12.2913ZM10.0002 8.95801C9.42516 8.95801 8.9585 9.42467 8.9585 9.99967C8.9585 10.5747 9.42516 11.0413 10.0002 11.0413C10.5752 11.0413 11.0418 10.5747 11.0418 9.99967C11.0418 9.42467 10.5752 8.95801 10.0002 8.95801Z" fill="#6CC24A"/>
</svg>
