<svg width="14" height="4" viewBox="0 0 14 4" fill="none" xmlns="http://www.w3.org/2000/svg">
<path d="M6.99984 2.66732C7.36803 2.66732 7.6665 2.36884 7.6665 2.00065C7.6665 1.63246 7.36803 1.33398 6.99984 1.33398C6.63165 1.33398 6.33317 1.63246 6.33317 2.00065C6.33317 2.36884 6.63165 2.66732 6.99984 2.66732Z" stroke="#005F73" stroke-width="2" stroke-linecap="round" stroke-linejoin="round"/>
<path d="M11.6665 2.66732C12.0347 2.66732 12.3332 2.36884 12.3332 2.00065C12.3332 1.63246 12.0347 1.33398 11.6665 1.33398C11.2983 1.33398 10.9998 1.63246 10.9998 2.00065C10.9998 2.36884 11.2983 2.66732 11.6665 2.66732Z" stroke="#005F73" stroke-width="2" stroke-linecap="round" stroke-linejoin="round"/>
<path d="M2.33317 2.66732C2.70136 2.66732 2.99984 2.36884 2.99984 2.00065C2.99984 1.63246 2.70136 1.33398 2.33317 1.33398C1.96498 1.33398 1.6665 1.63246 1.6665 2.00065C1.6665 2.36884 1.96498 2.66732 2.33317 2.66732Z" stroke="#005F73" stroke-width="2" stroke-linecap="round" stroke-linejoin="round"/>
</svg>
