<svg width="16" height="16" viewBox="0 0 16 16" fill="none" xmlns="http://www.w3.org/2000/svg">
<path d="M9.49984 12.6667C9.49984 13.4959 8.82908 14.1667 7.99984 14.1667C7.1706 14.1667 6.49984 13.4959 6.49984 12.6667C6.49984 11.8374 7.1706 11.1667 7.99984 11.1667C8.82908 11.1667 9.49984 11.8374 9.49984 12.6667ZM6.83317 12.6667C6.83317 13.3108 7.35574 13.8333 7.99984 13.8333C8.64393 13.8333 9.1665 13.3108 9.1665 12.6667C9.1665 12.0226 8.64393 11.5 7.99984 11.5C7.35574 11.5 6.83317 12.0226 6.83317 12.6667Z" fill="#005F73" stroke="#005F73" stroke-width="0.666667"/>
<path d="M9.83317 3.33464C9.83317 4.34797 9.01317 5.16797 7.99984 5.16797C6.9865 5.16797 6.1665 4.34797 6.1665 3.33464C6.1665 2.3213 6.9865 1.5013 7.99984 1.5013C9.01317 1.5013 9.83317 2.3213 9.83317 3.33464ZM7.1665 3.33464C7.1665 3.79464 7.53984 4.16797 7.99984 4.16797C8.45984 4.16797 8.83317 3.79464 8.83317 3.33464C8.83317 2.87464 8.45984 2.5013 7.99984 2.5013C7.53984 2.5013 7.1665 2.87464 7.1665 3.33464Z" fill="#005F73"/>
<path d="M9.83317 7.9987C9.83317 9.01203 9.01317 9.83203 7.99984 9.83203C6.9865 9.83203 6.1665 9.01203 6.1665 7.9987C6.1665 6.98536 6.9865 6.16536 7.99984 6.16536C9.01317 6.16536 9.83317 6.98536 9.83317 7.9987ZM7.1665 7.9987C7.1665 8.4587 7.53984 8.83203 7.99984 8.83203C8.45984 8.83203 8.83317 8.4587 8.83317 7.9987C8.83317 7.5387 8.45984 7.16536 7.99984 7.16536C7.53984 7.16536 7.1665 7.5387 7.1665 7.9987Z" fill="#005F73"/>
</svg>
