<svg width="240" height="200" viewBox="0 0 240 200" fill="none" xmlns="http://www.w3.org/2000/svg">
<path fill-rule="evenodd" clip-rule="evenodd" d="M198.394 65C202.089 65 205.086 68.134 205.086 72C205.086 75.866 202.089 79 198.394 79H160.154C163.849 79 166.846 82.134 166.846 86C166.846 89.866 163.849 93 160.154 93H181.186C184.881 93 187.878 96.134 187.878 100C187.878 103.866 184.881 107 181.186 107H171.459C166.799 107 163.022 110.134 163.022 114C163.022 116.577 164.934 118.911 168.758 121C172.453 121 175.45 124.134 175.45 128C175.45 131.866 172.453 135 168.758 135H89.4096C85.7137 135 82.7176 131.866 82.7176 128C82.7176 124.134 85.7137 121 89.4096 121H52.1256C48.4297 121 45.4336 117.866 45.4336 114C45.4336 110.134 48.4297 107 52.1256 107H90.3656C94.0615 107 97.0576 103.866 97.0576 100C97.0576 96.134 94.0615 93 90.3656 93H66.4656C62.7697 93 59.7736 89.866 59.7736 86C59.7736 82.134 62.7697 79 66.4656 79H104.706C101.01 79 98.0136 75.866 98.0136 72C98.0136 68.134 101.01 65 104.706 65H198.394ZM198.394 93C202.089 93 205.086 96.134 205.086 100C205.086 103.866 202.089 107 198.394 107C194.698 107 191.702 103.866 191.702 100C191.702 96.134 194.698 93 198.394 93Z" fill="#E9F0F2"/>
<path d="M136.047 69.905V64.25C136.047 62.7637 134.869 61.5312 133.448 61.5312C132.027 61.5312 130.849 62.7637 130.849 64.25V69.6875H108.323V64.25C108.323 62.7637 107.145 61.5312 105.724 61.5312C104.303 61.5312 103.125 62.7637 103.125 64.25V69.905C93.7682 70.8112 89.2284 76.6475 88.5353 85.3112C88.466 86.3625 89.2977 87.2325 90.268 87.2325H148.904C149.909 87.2325 150.741 86.3262 150.637 85.3112C149.944 76.6475 145.404 70.8112 136.047 69.905Z" fill="url(#paint0_linear_3092_124775)"/>
<path opacity="0.4" d="M147.312 92.67C149.218 92.67 150.777 94.3013 150.777 96.295V118.625C150.777 129.5 145.579 136.75 133.45 136.75H105.726C93.5967 136.75 88.3984 129.5 88.3984 118.625V96.295C88.3984 94.3013 89.9579 92.67 91.8639 92.67H147.312Z" fill="url(#paint1_linear_3092_124775)"/>
<path d="M107.458 111.375C107.007 111.375 106.557 111.266 106.141 111.085C105.725 110.904 105.344 110.65 104.997 110.324C104.685 109.961 104.443 109.563 104.269 109.128C104.096 108.693 103.992 108.221 103.992 107.75C103.992 107.279 104.096 106.807 104.269 106.372C104.443 105.937 104.685 105.539 104.997 105.176C105.344 104.85 105.725 104.596 106.141 104.415C106.973 104.052 107.943 104.052 108.775 104.415C109.19 104.596 109.572 104.85 109.918 105.176C110.23 105.539 110.473 105.937 110.646 106.372C110.819 106.807 110.923 107.279 110.923 107.75C110.923 108.221 110.819 108.693 110.646 109.128C110.473 109.563 110.23 109.961 109.918 110.324C109.572 110.65 109.19 110.904 108.775 111.085C108.359 111.266 107.908 111.375 107.458 111.375Z" fill="url(#paint2_linear_3092_124775)"/>
<path d="M119.587 111.375C119.136 111.375 118.686 111.266 118.27 111.085C117.854 110.904 117.473 110.65 117.126 110.324C116.502 109.635 116.121 108.693 116.121 107.75C116.121 106.808 116.502 105.865 117.126 105.176C117.473 104.85 117.854 104.596 118.27 104.415C119.101 104.016 120.072 104.016 120.904 104.415C121.319 104.596 121.701 104.85 122.047 105.176C122.671 105.865 123.052 106.808 123.052 107.75C123.052 108.693 122.671 109.635 122.047 110.324C121.701 110.65 121.319 110.904 120.904 111.085C120.488 111.266 120.037 111.375 119.587 111.375Z" fill="url(#paint3_linear_3092_124775)"/>
<path d="M107.458 124.062C107.007 124.062 106.557 123.954 106.141 123.773C105.725 123.591 105.344 123.337 104.997 123.011C104.373 122.322 103.992 121.38 103.992 120.437C103.992 119.495 104.373 118.553 104.997 117.864C105.344 117.538 105.725 117.284 106.141 117.102C106.973 116.74 107.943 116.74 108.775 117.102C109.19 117.284 109.572 117.538 109.918 117.864C110.542 118.553 110.923 119.495 110.923 120.437C110.923 121.38 110.542 122.322 109.918 123.011C109.572 123.337 109.19 123.591 108.775 123.773C108.359 123.954 107.908 124.062 107.458 124.062Z" fill="url(#paint4_linear_3092_124775)"/>
<defs>
<linearGradient id="paint0_linear_3092_124775" x1="90.3542" y1="85.8046" x2="177.62" y2="80.342" gradientUnits="userSpaceOnUse">
<stop stop-color="#005F73"/>
<stop offset="1" stop-color="#6CC24A"/>
</linearGradient>
<linearGradient id="paint1_linear_3092_124775" x1="90.2291" y1="134.301" x2="178.092" y2="131.081" gradientUnits="userSpaceOnUse">
<stop stop-color="#005F73"/>
<stop offset="1" stop-color="#6CC24A"/>
</linearGradient>
<linearGradient id="paint2_linear_3092_124775" x1="104.196" y1="110.973" x2="113.965" y2="110.731" gradientUnits="userSpaceOnUse">
<stop stop-color="#005F73"/>
<stop offset="1" stop-color="#6CC24A"/>
</linearGradient>
<linearGradient id="paint3_linear_3092_124775" x1="116.325" y1="110.972" x2="126.094" y2="110.73" gradientUnits="userSpaceOnUse">
<stop stop-color="#005F73"/>
<stop offset="1" stop-color="#6CC24A"/>
</linearGradient>
<linearGradient id="paint4_linear_3092_124775" x1="104.196" y1="123.661" x2="113.965" y2="123.418" gradientUnits="userSpaceOnUse">
<stop stop-color="#005F73"/>
<stop offset="1" stop-color="#6CC24A"/>
</linearGradient>
</defs>
</svg>
