<svg width="154" height="149" viewBox="0 0 154 149" fill="none" xmlns="http://www.w3.org/2000/svg">
<path d="M22.553 72.9734C-7.51767 90.3338 -7.51767 118.481 22.553 135.844C52.6237 153.208 101.378 153.205 131.448 135.844C161.519 118.484 161.516 90.3338 131.448 72.9734C101.381 55.613 52.6204 55.613 22.553 72.9734Z" fill="#FAFAFA"/>
<path d="M8.96973 72.0144L9.84494 72.5369L38.7269 55.8624L37.8517 55.3398L8.96973 72.0144Z" fill="#FAFAFA"/>
<path d="M37.8515 55.3396L9.84473 71.5047V20.0408L37.8515 3.87891V55.3396Z" fill="white"/>
<path d="M40.3737 0.507812L8.19336 19.0896V75.3965L40.3737 56.818V0.507812ZM38.7408 55.8645L9.84254 72.539V20.0431L38.7408 3.36855V55.8645Z" fill="#F0F0F0"/>
<path d="M38.7238 55.8631L37.8486 55.3406V3.8799L38.7238 3.36719V55.8631Z" fill="#E0E0E0"/>
<path d="M9.84473 53.6176V54.6463L38.7267 37.9717L37.8515 37.4492L9.84473 53.6176Z" fill="#FAFAFA"/>
<path d="M9.84473 35.0004V36.0291L38.7267 19.3545L37.8515 18.832L9.84473 35.0004Z" fill="#FAFAFA"/>
<path d="M40.3775 0.506182L39.486 0L7.30566 18.5785L8.19394 19.0879L40.3775 0.506182Z" fill="#FAFAFA"/>
<path d="M7.30566 18.5781L8.19394 19.0876V75.3945L7.30566 74.8851V18.5781Z" fill="#E0E0E0"/>
<path d="M22.5732 12.6918L23.4615 12.1758V64.6749L22.5732 64.1655V12.6918Z" fill="#E0E0E0"/>
<path d="M25.1124 11.2305L23.46 12.1775V64.6767L25.1124 63.7198V11.2305Z" fill="#F0F0F0"/>
<path d="M40.376 18.3984V20.3023L8.19238 38.8841V36.9769L40.376 18.3984Z" fill="#F0F0F0"/>
<path d="M40.376 37.0156V38.9195L8.19238 57.5013V55.5974L40.376 37.0156Z" fill="#F0F0F0"/>
<path d="M23.4618 28.1651L22.5735 27.6523L9.84375 35.0001V36.0288L23.4618 28.1651Z" fill="#FAFAFA"/>
<path d="M23.4618 46.7744L22.5735 46.2617L9.84375 53.6095V54.6382L23.4618 46.7744Z" fill="#FAFAFA"/>
<path d="M130.411 21.0355L129.84 21.3751L118.083 14.589L118.655 14.2461L130.411 21.0355Z" fill="#FAFAFA"/>
<path d="M118.651 14.2465L129.836 20.7028V8.99206L118.651 2.53906V14.2465Z" fill="white"/>
<path d="M117 15.2138L130.918 23.2441V8.36562L117 0.332031V15.2138ZM118.097 2.20327L129.854 8.99263V21.3761L118.097 14.59V2.20327Z" fill="#F0F0F0"/>
<path d="M118.083 14.5899L118.655 14.247V2.53949L118.083 2.20312V14.5899Z" fill="#E0E0E0"/>
<path d="M117 0.3331L117.581 0L131.5 8.03359L130.918 8.36995L117 0.3331Z" fill="#FAFAFA"/>
<path d="M131.5 8.03125L130.919 8.36762V23.2493L131.5 22.9162V8.03125Z" fill="#E0E0E0"/>
<path d="M119.092 13.8994L129.402 19.8528V16.8745L126.825 10.9244L125.218 12.4103L125.796 14.9053L122.237 7.29297L119.092 10.9244V13.8994Z" fill="#F0F0F0"/>
<path d="M125.316 8.04873C125.536 8.19236 125.719 8.3852 125.851 8.61195C125.983 8.8387 126.06 9.09312 126.077 9.35501C126.077 9.8416 125.75 10.0375 125.316 9.79588C125.096 9.65242 124.912 9.45969 124.78 9.23296C124.647 9.00623 124.569 8.75172 124.552 8.4896C124.552 8.00302 124.895 7.80707 125.316 8.04873Z" fill="#F0F0F0"/>
<path d="M147.087 37.3056L146.516 37.6485L134.756 30.8592L135.331 30.5195L147.087 37.3056Z" fill="#FAFAFA"/>
<path d="M135.328 30.52L146.513 36.9762L146.51 25.2622L135.328 18.8125V30.52Z" fill="white"/>
<path d="M133.673 31.4833L147.595 39.5201V24.6384L133.673 16.6016V31.4833ZM134.747 18.4761L146.504 25.2622V37.6489L134.747 30.8595V18.4761Z" fill="#F0F0F0"/>
<path d="M134.756 30.86L135.331 30.5204V18.8129L134.756 18.4766V30.86Z" fill="#E0E0E0"/>
<path d="M133.673 16.6026L134.254 16.2695L148.176 24.3064L147.595 24.6395L133.673 16.6026Z" fill="#FAFAFA"/>
<path d="M148.177 24.3047L147.596 24.6378V39.5195L148.177 39.1864V24.3047Z" fill="#E0E0E0"/>
<path d="M135.77 30.1722L146.079 36.1223V33.1473L143.499 27.1939L141.896 28.6831L142.474 31.1781L138.911 23.5625L135.77 27.1939V30.1722Z" fill="#F0F0F0"/>
<path d="M141.99 24.3197C142.211 24.4628 142.395 24.6554 142.527 24.8822C142.66 25.109 142.738 25.3637 142.755 25.626C142.755 26.1126 142.412 26.3118 141.99 26.0668C141.77 25.9238 141.587 25.7311 141.455 25.5042C141.322 25.2773 141.245 25.0226 141.229 24.7606C141.229 24.274 141.569 24.0748 141.99 24.3197Z" fill="#F0F0F0"/>
<path d="M138.538 83.8851C138.514 83.8899 138.49 83.8899 138.466 83.8851L136.379 83.3887C136.352 83.3825 136.326 83.3698 136.305 83.3516C136.283 83.3334 136.266 83.3103 136.255 83.2842C136.236 83.2352 134.433 78.2583 138.28 71.5278C141.023 66.7141 145.321 63.5856 148.058 64.4086C149.178 64.7351 149.955 65.4732 150.193 66.4072C150.455 67.4457 150.04 68.5821 149.076 69.4475C148.864 69.6402 148.528 69.9015 148.097 70.2346C145.484 72.2887 139.335 77.0925 138.672 83.7512C138.669 83.7751 138.66 83.798 138.647 83.8182C138.634 83.8385 138.617 83.8558 138.597 83.8688C138.578 83.8779 138.558 83.8834 138.538 83.8851ZM136.579 83.0948L138.355 83.5128C139.129 76.8312 145.256 72.0307 147.884 69.97C148.302 69.6435 148.636 69.3822 148.841 69.1961C149.71 68.4123 150.089 67.3934 149.857 66.4692C149.645 65.6365 148.972 65.0127 147.96 64.709C145.383 63.935 141.275 66.995 138.61 71.6682C135.109 77.8044 136.379 82.4254 136.579 83.0948Z" fill="#267E95"/>
<path d="M137.356 83.6032H137.329C137.284 83.605 137.239 83.589 137.205 83.5585C137.171 83.5281 137.15 83.4855 137.147 83.4399C136.993 75.6741 142.829 68.1924 146.754 66.651C146.797 66.6329 146.846 66.632 146.889 66.6484C146.933 66.6648 146.969 66.6973 146.989 66.7392C146.998 66.7595 147.003 66.7813 147.003 66.8035C147.003 66.8256 146.998 66.8475 146.989 66.8677C146.98 66.888 146.967 66.9062 146.951 66.9211C146.935 66.9361 146.916 66.9475 146.895 66.9547C143.015 68.4765 137.362 76.0692 137.506 83.4366C137.506 83.4781 137.491 83.5182 137.463 83.549C137.435 83.5798 137.397 83.5991 137.356 83.6032Z" fill="#267E95"/>
<path d="M136.463 83.3904C136.437 83.3969 136.41 83.3969 136.384 83.3904L134.977 82.9985C134.95 82.9916 134.925 82.9781 134.905 82.9593C134.884 82.9405 134.869 82.917 134.859 82.8908C134.833 82.8156 132.355 75.3797 134.18 65.3997C135.111 60.3085 138.334 55.3414 141.841 53.591C143.527 52.7485 145.186 52.644 146.766 53.2645C147.661 53.6237 148.223 54.1527 148.432 54.8352C149.013 56.7261 146.88 59.5411 144.627 62.5227C143.047 64.6094 141.417 66.7681 140.672 68.6687C140.653 68.7111 140.618 68.7447 140.575 68.7628C140.533 68.7809 140.484 68.7823 140.44 68.7667C140.419 68.7608 140.399 68.7506 140.382 68.7366C140.365 68.7227 140.351 68.7054 140.341 68.6858C140.331 68.6661 140.325 68.6446 140.323 68.6226C140.322 68.6005 140.325 68.5784 140.333 68.5577C141.094 66.5982 142.74 64.4364 144.333 62.3333C146.538 59.4203 148.621 56.6673 148.089 54.9267C147.906 54.3323 147.436 53.8882 146.626 53.5649C145.15 52.9738 143.595 53.075 142.011 53.8653C138.592 55.5733 135.45 60.4424 134.536 65.4422C132.825 74.7951 134.908 81.8588 135.173 82.6948L136.479 83.0606C136.501 83.0654 136.522 83.0747 136.539 83.088C136.557 83.1012 136.572 83.118 136.584 83.1374C136.595 83.1568 136.601 83.1783 136.604 83.2005C136.606 83.2227 136.604 83.2451 136.597 83.2663C136.589 83.2976 136.572 83.3259 136.548 83.3479C136.524 83.3699 136.495 83.3846 136.463 83.3904Z" fill="#267E95"/>
<path d="M136.113 78.6644C136.067 78.6691 136.021 78.6557 135.984 78.6271C135.948 78.5985 135.924 78.5568 135.917 78.5109C134.859 66.4964 142.122 56.8757 144.284 55.2266C144.321 55.1982 144.368 55.1845 144.415 55.1881C144.462 55.1917 144.506 55.2123 144.539 55.2462C144.554 55.2627 144.565 55.2821 144.572 55.3032C144.579 55.3243 144.581 55.3466 144.579 55.3688C144.577 55.3909 144.57 55.4123 144.559 55.4317C144.548 55.4511 144.534 55.4679 144.516 55.4813C142.393 57.1141 135.228 66.6009 136.276 78.4848C136.278 78.5073 136.275 78.5299 136.267 78.5513C136.259 78.5726 136.248 78.5922 136.233 78.6089C136.217 78.6256 136.199 78.6392 136.178 78.6487C136.158 78.6582 136.136 78.6636 136.113 78.6644Z" fill="#267E95"/>
<path d="M80.2285 85.3888L84.7977 88.0287L47.3066 109.638L40.9044 105.938H33.5598L20.7764 113.319V119.68L41.7219 131.773H49.0692L61.8526 124.392C61.8526 121.565 61.8526 120.857 61.8526 118.029L57.2938 115.397L94.785 93.8034L101.171 97.49H108.529L120.013 90.8379C120.013 88.0157 120.013 87.3049 120.013 84.4801L99.0652 72.3867H91.7076L80.2337 79.0387C80.2233 81.8558 80.2259 82.5665 80.2285 85.3888Z" fill="#E0E0E0"/>
<path d="M127.675 118.816C131.735 118.816 135.026 116.917 135.026 114.574C135.026 112.231 131.735 110.332 127.675 110.332C123.615 110.332 120.324 112.231 120.324 114.574C120.324 116.917 123.615 118.816 127.675 118.816Z" fill="#E0E0E0"/>
<path d="M131.683 96.3847C131.438 96.2442 131.184 96.1209 130.922 96.0157C130.679 95.9213 130.47 95.7564 130.322 95.5423C130.174 95.3281 130.093 95.0745 130.089 94.8139V93.3477H125.302V94.8139C125.298 95.0739 125.217 95.3268 125.069 95.5403C124.92 95.7539 124.711 95.9182 124.469 96.0124C124.206 96.1176 123.951 96.2409 123.705 96.3815C122.601 97.015 122.049 97.8478 122.049 98.6675L122.017 113.396C122.017 114.228 122.565 115.064 123.666 115.701C125.87 116.978 129.44 116.981 131.647 115.701C132.748 115.064 133.3 114.232 133.303 113.399L133.322 98.674C133.336 97.8543 132.793 97.0379 131.683 96.3847Z" fill="#267E95"/>
<path opacity="0.2" d="M131.683 96.3847C131.438 96.2442 131.184 96.1209 130.922 96.0157C130.679 95.9213 130.47 95.7564 130.322 95.5423C130.174 95.3281 130.093 95.0745 130.089 94.8139V93.3477H125.302V94.8139C125.298 95.0739 125.217 95.3268 125.069 95.5403C124.92 95.7539 124.711 95.9182 124.469 96.0124C124.206 96.1176 123.951 96.2409 123.705 96.3815C122.601 97.015 122.049 97.8478 122.049 98.6675L122.017 113.396C122.017 114.228 122.565 115.064 123.666 115.701C125.87 116.978 129.44 116.981 131.647 115.701C132.748 115.064 133.3 114.232 133.303 113.399L133.322 98.674C133.336 97.8543 132.793 97.0379 131.683 96.3847Z" fill="black"/>
<path opacity="0.6" d="M132.592 101.938C132.514 99.6327 123.324 99.8809 122.795 101.837L122.775 113.414C122.775 114.002 123.242 114.612 124.059 115.083C125.184 115.645 126.424 115.938 127.682 115.938C128.94 115.938 130.18 115.645 131.305 115.083C132.122 114.612 132.589 114.005 132.592 113.417V101.938Z" fill="#267E95"/>
<path opacity="0.2" d="M124.021 115.519C122.006 114.363 122.009 112.499 124.021 111.349C126.032 110.2 129.305 110.203 131.316 111.349C133.328 112.495 133.328 114.373 131.316 115.519C129.305 116.666 126.036 116.676 124.021 115.519Z" fill="black"/>
<path opacity="0.15" d="M130.55 94.8845C129.369 94.2783 128.027 94.0633 126.716 94.2706V93.3398H125.305V94.8061C125.301 95.0665 125.219 95.3197 125.07 95.5332C124.921 95.7468 124.712 95.9109 124.469 96.0046C124.206 96.1091 123.951 96.2325 123.705 96.3737H123.679C122.595 97.0072 122.046 97.8334 122.046 98.6596L122.017 113.394C122.017 114.227 122.562 115.063 123.649 115.7C125.233 116.618 127.526 116.872 129.508 116.477C124.936 116.784 123.819 114.844 123.823 113.43L123.842 99.0123C123.82 98.7859 123.846 98.5575 123.919 98.3419C123.992 98.1264 124.109 97.9286 124.263 97.7616C124.433 97.9176 124.621 98.0535 124.822 98.1665C126.393 99.0777 128.943 99.0809 130.517 98.1665C131.363 97.6799 131.755 97.0301 131.693 96.3933L131.598 96.3377C131.532 96.0367 131.405 95.7524 131.225 95.5025C131.044 95.2525 130.815 95.0422 130.55 94.8845Z" fill="black"/>
<path opacity="0.4" d="M131.684 96.3847C131.439 96.2442 131.185 96.1209 130.923 96.0157C130.68 95.9213 130.471 95.7564 130.322 95.5423C130.174 95.3281 130.093 95.0745 130.09 94.8139V93.3477H129.567C129.567 95.3071 129.567 94.8923 129.567 95.3071C129.567 95.7218 130.256 95.9602 130.707 96.2084C131.158 96.4566 132.667 97.2599 132.804 97.9686C132.941 98.6773 132.853 99.928 132.853 101.45C132.853 102.972 132.836 111.92 132.833 112.922C132.83 113.925 132.418 115.345 130.576 116.204C130.951 116.079 131.313 115.918 131.657 115.724C132.761 115.071 133.31 114.291 133.313 113.412L133.333 98.687C133.336 97.8543 132.794 97.0379 131.684 96.3847Z" fill="white"/>
<path d="M131.728 95.4049V95.8229C131.728 96.4172 131.333 97.0148 130.543 97.472C128.969 98.3766 126.422 98.3734 124.848 97.472C124.501 97.2818 124.199 97.0189 123.963 96.7013C123.778 96.4475 123.677 96.143 123.672 95.8294V95.3951C123.671 95.3037 123.682 95.2127 123.705 95.124C123.786 94.8263 123.931 94.5495 124.129 94.3124C124.326 94.0752 124.573 93.8832 124.851 93.7492L124.91 93.7198C126.49 92.8446 128.998 92.8609 130.549 93.759C130.828 93.8924 131.075 94.0843 131.272 94.3216C131.47 94.5588 131.615 94.8358 131.696 95.1338C131.717 95.2226 131.728 95.3135 131.728 95.4049Z" fill="#37474F"/>
<path d="M128.024 97.7147V96.232C128.024 95.6475 128.171 96.4411 127.143 96.4378C126.251 96.4378 125.461 94.3804 124.906 93.7109L124.847 93.7403C124.569 93.8743 124.323 94.0664 124.125 94.3036C123.927 94.5407 123.782 94.8174 123.701 95.1152C123.679 95.2038 123.668 95.2949 123.668 95.3862V95.8206C123.673 96.1342 123.774 96.4387 123.959 96.6925C124.195 97.0101 124.497 97.273 124.844 97.4632C126.418 98.3743 128.965 98.3776 130.539 97.4632C129.432 97.9073 128.024 98.2731 128.024 97.7147Z" fill="#263238"/>
<path d="M124.849 97.0373C123.278 96.1262 123.281 94.6534 124.849 93.7488C126.416 92.8442 128.973 92.8442 130.544 93.7488C132.115 94.6534 132.115 96.1327 130.544 97.0373C128.973 97.9419 126.423 97.9386 124.849 97.0373Z" fill="#267E95"/>
<path d="M131.731 94.0089V94.8417C131.733 94.9374 131.722 95.033 131.699 95.1258C131.615 95.4225 131.47 95.6981 131.272 95.9341C131.073 96.1701 130.827 96.361 130.549 96.4941C129.772 96.907 128.908 97.1308 128.028 97.1472C126.927 97.219 125.827 96.985 124.85 96.4713C124.512 96.2887 124.215 96.0373 123.979 95.7332C123.849 95.5543 123.76 95.3492 123.717 95.1323C123.695 95.0426 123.684 94.9505 123.685 94.858V94.0057C123.685 93.408 124.076 92.8137 124.864 92.3728C124.935 92.3336 125.004 92.2944 125.079 92.2585C126.663 91.4682 129.06 91.5107 130.562 92.3794C131.343 92.8137 131.738 93.4113 131.731 94.0089Z" fill="#37474F"/>
<path d="M124.85 95.6154C123.279 94.7043 123.279 93.2347 124.85 92.3269C126.421 91.419 128.975 91.4256 130.545 92.3269C132.116 93.2282 132.113 94.7076 130.545 95.6154C128.978 96.5233 126.421 96.5266 124.85 95.6154Z" fill="#455A64"/>
<path d="M123.975 95.7345C124.211 96.0503 124.512 96.3119 124.857 96.5019C125.834 97.0157 126.933 97.2496 128.035 97.1779C128.035 96.884 128.211 96.6619 127.156 96.4562C126.281 96.2864 124.988 95.9206 124.383 94.9638C123.832 94.0821 124.152 92.9227 125.079 92.25C125.004 92.2859 124.935 92.3251 124.864 92.3643C124.076 92.815 123.685 93.4093 123.685 93.9971V94.8495C123.684 94.9419 123.695 95.0341 123.717 95.1238C123.757 95.3439 123.845 95.5524 123.975 95.7345Z" fill="#263238"/>
<path d="M126.481 91.8701V93.7021C126.478 93.7303 126.478 93.7588 126.481 93.787C126.505 93.8783 126.549 93.9633 126.61 94.036C126.67 94.1087 126.745 94.1675 126.83 94.2083C127.065 94.336 127.327 94.4065 127.595 94.414C127.933 94.4417 128.273 94.3726 128.574 94.2148C128.68 94.1578 128.773 94.0787 128.845 93.983C128.886 93.9302 128.912 93.8686 128.924 93.8033C128.929 93.7752 128.929 93.7465 128.924 93.7184V91.8799C128.914 91.772 128.876 91.6686 128.814 91.5802C128.751 91.4918 128.666 91.4217 128.568 91.3769L128.503 91.341C128.24 91.2202 127.953 91.1598 127.664 91.1643C127.374 91.1688 127.09 91.2381 126.83 91.3671C126.733 91.4125 126.649 91.483 126.588 91.5713C126.526 91.6597 126.49 91.7628 126.481 91.8701Z" fill="#267E95"/>
<path opacity="0.35" d="M126.481 91.8701V93.7021C126.478 93.7303 126.478 93.7588 126.481 93.787C126.505 93.8783 126.549 93.9633 126.61 94.036C126.67 94.1087 126.745 94.1675 126.83 94.2083C127.065 94.336 127.327 94.4065 127.595 94.414C127.933 94.4417 128.273 94.3726 128.574 94.2148C128.68 94.1578 128.773 94.0787 128.845 93.983C128.886 93.9302 128.912 93.8686 128.924 93.8033C128.929 93.7752 128.929 93.7465 128.924 93.7184V91.8799C128.914 91.772 128.876 91.6686 128.814 91.5802C128.751 91.4918 128.666 91.4217 128.568 91.3769L128.503 91.341C128.24 91.2202 127.953 91.1598 127.664 91.1643C127.374 91.1688 127.09 91.2381 126.83 91.3671C126.733 91.4125 126.649 91.483 126.588 91.5713C126.526 91.6597 126.49 91.7628 126.481 91.8701Z" fill="black"/>
<path d="M126.482 91.8668C126.482 92.2555 127.028 92.5755 127.707 92.5788C128.386 92.582 128.935 92.2685 128.938 91.8799C128.941 91.4913 128.393 91.1713 127.714 91.168C127.034 91.1647 126.486 91.4913 126.482 91.8668Z" fill="#267E95"/>
<path opacity="0.5" d="M127.274 91.8655C127.274 92.0059 127.467 92.1169 127.709 92.1202C127.95 92.1234 128.143 92.0091 128.143 91.872C128.143 91.7348 127.95 91.6205 127.709 91.6173C127.467 91.614 127.274 91.7283 127.274 91.8655Z" fill="#267E95"/>
<path opacity="0.3" d="M127.274 91.8655C127.274 92.0059 127.467 92.1169 127.709 92.1202C127.95 92.1234 128.143 92.0091 128.143 91.872C128.143 91.7348 127.95 91.6205 127.709 91.6173C127.467 91.614 127.274 91.7283 127.274 91.8655Z" fill="black"/>
<path d="M126.182 91.6659V92.2896C126.179 92.3255 126.179 92.3616 126.182 92.3974C126.213 92.5104 126.268 92.6155 126.343 92.7056C126.418 92.7957 126.511 92.8688 126.616 92.9199C126.911 93.0801 127.238 93.1695 127.573 93.1812C127.992 93.2097 128.41 93.1227 128.782 92.9297C128.909 92.8574 129.02 92.7596 129.108 92.6423C129.158 92.5742 129.192 92.4962 129.209 92.4137C129.214 92.3791 129.214 92.3439 129.209 92.3092V91.679C129.197 91.5445 129.15 91.4157 129.072 91.3056C128.994 91.1954 128.888 91.1079 128.765 91.0519L128.684 91.0095C128.356 90.8589 127.999 90.7837 127.638 90.7894C127.278 90.795 126.923 90.8814 126.6 91.0421C126.482 91.1008 126.382 91.1892 126.308 91.2986C126.235 91.408 126.192 91.5346 126.182 91.6659Z" fill="#267E95"/>
<path opacity="0.2" d="M126.182 91.6659V92.2896C126.179 92.3255 126.179 92.3616 126.182 92.3974C126.213 92.5104 126.268 92.6155 126.343 92.7056C126.418 92.7957 126.511 92.8688 126.616 92.9199C126.911 93.0801 127.238 93.1695 127.573 93.1812C127.992 93.2097 128.41 93.1227 128.782 92.9297C128.909 92.8574 129.02 92.7596 129.108 92.6423C129.158 92.5742 129.192 92.4962 129.209 92.4137C129.214 92.3791 129.214 92.3439 129.209 92.3092V91.679C129.197 91.5445 129.15 91.4157 129.072 91.3056C128.994 91.1954 128.888 91.1079 128.765 91.0519L128.684 91.0095C128.356 90.8589 127.999 90.7837 127.638 90.7894C127.278 90.795 126.923 90.8814 126.6 91.0421C126.482 91.1008 126.382 91.1892 126.308 91.2986C126.235 91.408 126.192 91.5346 126.182 91.6659Z" fill="black"/>
<path d="M126.18 91.6611C126.18 92.1477 126.859 92.5428 127.705 92.5494C128.551 92.5559 129.236 92.164 129.24 91.6774C129.243 91.1908 128.557 90.7957 127.715 90.7891C126.872 90.7826 126.183 91.1614 126.18 91.6611Z" fill="#267E95"/>
<path opacity="0.5" d="M127.167 91.6696C127.167 91.8394 127.409 91.9962 127.709 91.9962C128.01 91.9962 128.251 91.859 128.254 91.6859C128.258 91.5129 128.013 91.3594 127.712 91.3594C127.412 91.3594 127.167 91.49 127.167 91.6696Z" fill="#267E95"/>
<path opacity="0.3" d="M127.167 91.6696C127.167 91.8394 127.409 91.9962 127.709 91.9962C128.01 91.9962 128.251 91.859 128.254 91.6859C128.258 91.5129 128.013 91.3594 127.712 91.3594C127.412 91.3594 127.167 91.49 127.167 91.6696Z" fill="black"/>
<path d="M90.5135 91.0553L89.7949 89.3891L101.271 88.3633L106.124 89.6624L90.5135 91.0553Z" fill="#37474F"/>
<path d="M101.267 73.0645V88.3655L106.12 89.6646V70.7344L101.267 73.0645Z" fill="#455A64"/>
<path d="M89.7949 58.7919L93.0572 54.4805L106.124 70.7369L101.271 73.0671L89.7949 58.7919Z" fill="#37474F"/>
<path d="M78.3152 59.8151L77.4404 55.876L93.0539 54.4805L89.7917 58.7919L78.3152 59.8151Z" fill="#263238"/>
<path d="M77.4404 55.875V75.0682L90.5103 91.0591L89.7917 89.3929L78.3152 75.1151V59.8141L77.4404 55.875Z" fill="black"/>
<path d="M78.3154 75.1093V59.8083L89.7919 58.7852L101.268 73.0603V88.3613L89.7919 89.3871L78.3154 75.1093Z" fill="#455A64"/>
<path d="M106.125 89.6647L115.185 84.4342L115.183 65.5039L106.125 70.7344V89.6647Z" fill="#455A64"/>
<path d="M93.0566 54.4727L106.124 70.7291L115.182 65.4986L102.114 49.2422L93.0566 54.4727Z" fill="#37474F"/>
<path d="M77.4404 55.8682L86.5008 50.6377L102.112 49.2422L93.0539 54.4727L77.4404 55.8682Z" fill="#263238"/>
<path opacity="0.2" d="M106.121 89.6658C106.191 86.5103 106.309 83.3549 106.335 80.1994C106.361 77.0439 106.436 73.891 106.439 70.7355V70.6236L106.369 70.5351L99.8596 62.3886L93.2883 54.2916L93.1841 54.1641L93.0279 54.1797C87.8208 54.7004 82.6319 55.2575 77.4404 55.8746C82.6059 55.5648 87.7635 55.1899 92.9186 54.7889L99.3155 62.826L105.806 70.8475C105.806 73.9717 105.869 77.0829 105.91 80.1994C105.952 83.3158 106.053 86.5103 106.121 89.6658Z" fill="black"/>
<path d="M102.117 49.2422L105.921 49.9868L116.799 63.52L115.184 65.4986L102.117 49.2422Z" fill="#37474F"/>
<path d="M116.798 79.2852L115.184 84.4324L115.182 65.5021L116.796 63.5234L116.798 79.2852Z" fill="#455A64"/>
<g opacity="0.2">
<path d="M115.182 84.4289C115.302 81.2734 115.401 78.1179 115.443 74.9651C115.484 71.8122 115.497 68.6541 115.529 65.4986V65.3763L115.451 65.2773C113.271 62.5697 111.075 59.875 108.864 57.1934C106.652 54.5117 104.4 51.8613 102.107 49.2422C104.176 52.0419 106.28 54.8111 108.418 57.5501C110.557 60.289 112.718 63.0114 114.901 65.7173L114.823 65.4986C114.857 68.6541 114.841 71.8096 114.912 74.9651C114.982 78.1206 115.065 81.2734 115.182 84.4289Z" fill="black"/>
</g>
<path opacity="0.1" d="M78.3154 59.8083L89.4873 59.5376L100.469 73.3571L100.62 87.9213L89.7919 89.3871L101.268 88.3613V73.0603L89.7919 58.7852L78.3154 59.8083Z" fill="white"/>
<path d="M109.55 82.997C109.498 83.0643 109.43 83.1172 109.352 83.1506C109.325 83.1645 109.295 83.1718 109.265 83.1718C109.234 83.1718 109.205 83.1645 109.178 83.1506L107.553 82.2576L107.418 82.1717C107.39 82.1514 107.367 82.1241 107.353 82.0926C107.339 82.0611 107.333 82.0264 107.337 81.992V80.9506C107.341 80.8752 107.37 80.8032 107.418 80.7449C107.465 80.6726 107.528 80.6121 107.602 80.5679L113.958 76.8995C113.984 76.8805 114.014 76.8673 114.046 76.8605C114.078 76.8538 114.111 76.8538 114.143 76.8605C114.168 76.8672 114.189 76.8828 114.204 76.9043C114.218 76.9259 114.224 76.9519 114.221 76.9776V78.0919C114.217 78.1679 114.19 78.2408 114.143 78.3002C114.094 78.3712 114.031 78.4307 113.958 78.4746L109.659 80.9558L110.544 81.4583C110.567 81.4729 110.585 81.4946 110.594 81.5199C110.603 81.5453 110.604 81.573 110.597 81.5989C110.584 81.6775 110.548 81.7507 110.495 81.8098L109.55 82.997Z" fill="#263238"/>
<path d="M107.257 77.2971C107.255 76.8807 107.327 76.4672 107.47 76.0761C107.615 75.6861 107.81 75.3167 108.051 74.9774C108.298 74.6319 108.584 74.3157 108.902 74.0349C109.22 73.7534 109.561 73.4982 109.92 73.2721C110.202 73.1002 110.498 72.9206 110.806 72.7513C111.113 72.5821 111.404 72.4103 111.673 72.2671C111.996 72.092 112.337 71.9532 112.691 71.8531C112.965 71.7677 113.258 71.7542 113.539 71.8141C113.781 71.8749 113.99 72.0282 114.12 72.2411C114.282 72.539 114.358 72.8762 114.339 73.2148C114.339 73.6324 114.265 74.0467 114.12 74.4384C113.976 74.8288 113.781 75.1983 113.539 75.5371C113.294 75.8822 113.009 76.1976 112.691 76.477C112.373 76.7594 112.033 77.0146 111.673 77.2398C111.412 77.4065 111.115 77.5809 110.806 77.7605C110.496 77.9402 110.202 78.1042 109.92 78.2552C109.598 78.4306 109.256 78.5686 108.902 78.6666C108.627 78.7527 108.334 78.7671 108.051 78.7082C107.81 78.6456 107.602 78.4928 107.47 78.2812C107.308 77.9798 107.234 77.6387 107.257 77.2971ZM111.623 73.8657C111.063 74.1651 110.514 74.4827 109.97 74.8212C109.813 74.9214 109.662 75.0301 109.517 75.1466C109.385 75.2512 109.264 75.3699 109.158 75.5007C109.057 75.6256 108.976 75.7652 108.918 75.9146C108.858 76.0652 108.828 76.2263 108.829 76.3885C108.819 76.5205 108.85 76.6525 108.918 76.766C108.946 76.8042 108.982 76.8359 109.023 76.8588C109.064 76.8817 109.11 76.8954 109.158 76.8988C109.28 76.9038 109.402 76.8853 109.517 76.8441C109.673 76.7905 109.825 76.7234 109.97 76.6436C110.514 76.3572 111.063 76.0396 111.623 75.6881C111.78 75.5926 111.93 75.4873 112.074 75.3731C112.207 75.2672 112.328 75.1457 112.433 75.0112C112.534 74.885 112.615 74.7447 112.675 74.5946C112.735 74.4432 112.766 74.2813 112.763 74.1182C112.774 73.9871 112.743 73.856 112.675 73.7433C112.646 73.7047 112.61 73.6724 112.568 73.6487C112.527 73.6249 112.481 73.6101 112.433 73.6053C112.311 73.598 112.188 73.6167 112.074 73.66C111.913 73.7139 111.758 73.7818 111.61 73.8631L111.623 73.8657Z" fill="#263238"/>
<path d="M47.6158 106.522C46.6994 107.043 45.4366 106.973 44.0411 106.168C41.2527 104.557 38.9902 100.638 38.9902 97.4178C38.9902 95.8062 39.5552 94.6737 40.4691 94.1452L83.3678 69.3804C84.2816 68.8597 85.5444 68.9274 86.9399 69.7345C89.7309 71.3461 91.9907 75.2618 91.9907 78.4849C91.9907 80.0965 91.4258 81.2265 90.5119 81.755L47.6158 106.522Z" fill="#F0F0F0"/>
<path d="M38.9902 97.4173C38.9902 95.8057 39.5552 94.6732 40.4691 94.1446C41.3829 93.6161 42.6482 93.6942 44.0411 94.4987C46.8321 96.1103 49.0946 100.029 49.0946 103.252C49.0946 104.861 48.5296 105.993 47.6158 106.522C46.702 107.05 45.4366 106.972 44.0411 106.168C41.2527 104.556 38.9902 100.638 38.9902 97.4173Z" fill="#FAFAFA"/>
<path d="M59.0263 99.9954L60.729 99.0139C61.6325 98.4932 62.2105 97.3528 62.2052 95.7491C62.2052 92.5259 59.948 88.605 57.1544 87.0012C55.7693 86.1941 54.4935 86.1238 53.5901 86.6471L51.8848 87.6313C52.7908 87.1106 54.0639 87.1756 55.4516 87.9853C58.2452 89.5891 60.5077 93.51 60.4999 96.7306C60.5077 98.337 59.9297 99.4747 59.0263 99.9954Z" fill="#E0E0E0"/>
<path d="M82.3697 86.4355L84.0725 85.4514C84.9785 84.9307 85.5565 83.7903 85.5487 82.1866C85.5487 78.966 83.294 75.0425 80.5004 73.4387C79.1127 72.6316 77.8396 72.5613 76.9335 73.0846L75.2334 74.0688C76.1368 73.5481 77.4126 73.6157 78.7977 74.4228C81.5913 76.0266 83.8564 79.9475 83.8486 83.1681C83.8538 84.7745 83.2758 85.9122 82.3697 86.4355Z" fill="#E0E0E0"/>
<path d="M66.346 95.683L76.604 89.76C77.51 89.2393 78.088 88.0989 78.0802 86.4952C78.0802 83.272 75.8229 79.3511 73.0293 77.7473C71.6442 76.9402 70.3711 76.8699 69.465 77.3932L59.207 83.3163C60.1131 82.7955 61.3862 82.8632 62.7713 83.6703C65.5649 85.2741 67.83 89.195 67.8222 92.4156C67.83 94.022 67.252 95.1597 66.346 95.683Z" fill="#E0E0E0"/>
<path d="M32.4237 124.593L31.7051 122.924L43.1815 121.898L48.0372 123.198L32.4237 124.593Z" fill="#37474F"/>
<path d="M43.1807 106.598V121.897L48.0363 123.196L48.0337 104.266L43.1807 106.598Z" fill="#455A64"/>
<path d="M31.7051 92.3245L34.9699 88.0156L48.0346 104.269L43.1815 106.602L31.7051 92.3245Z" fill="#37474F"/>
<path d="M20.2306 93.3503L19.3584 89.4085L34.9719 88.0156L31.707 92.3245L20.2306 93.3503Z" fill="#263238"/>
<path d="M19.3584 89.4062V108.599L32.4256 124.593L31.707 122.924L20.2306 108.649V93.348L19.3584 89.4062Z" fill="black"/>
<path d="M20.2295 108.651V93.35L31.706 92.3242L43.1824 106.602V121.9L31.706 122.926L20.2295 108.651Z" fill="#455A64"/>
<path d="M48.0368 123.201L57.0945 117.973V99.043L48.0342 104.271L48.0368 123.201Z" fill="#455A64"/>
<path d="M34.9707 88.0156L48.0353 104.269L57.0957 99.0416L44.0285 82.7852L34.9707 88.0156Z" fill="#37474F"/>
<path d="M19.3584 89.4085L28.4162 84.1806L44.0297 82.7852L34.9719 88.0156L19.3584 89.4085Z" fill="#263238"/>
<path opacity="0.2" d="M48.0378 123.202C48.1055 120.049 48.2227 116.894 48.2487 113.738C48.2747 110.583 48.3529 107.427 48.3529 104.272V104.163L48.2826 104.074L41.7737 95.9251L35.1997 87.8307L35.0982 87.7031L34.9394 87.7187C29.7323 88.2395 24.5434 88.7966 19.3545 89.411C24.5173 89.1012 29.675 88.7263 34.83 88.328L41.2269 96.3651L47.7202 104.379C47.7202 107.503 47.7827 110.627 47.8243 113.731C47.8504 116.894 47.9701 120.049 48.0378 123.202Z" fill="black"/>
<path d="M44.0264 82.7852L47.8276 83.5298L58.7078 97.0629L57.0936 99.0416L44.0264 82.7852Z" fill="#37474F"/>
<path d="M58.7099 112.828L57.0957 117.975V99.0451L58.7099 97.0664V112.828Z" fill="#455A64"/>
<g opacity="0.2">
<path d="M57.0939 117.971C57.2163 114.815 57.3126 111.66 57.3543 108.504C57.3959 105.349 57.4089 102.193 57.4402 99.0403V98.9075L57.3621 98.8086C55.1838 96.1009 52.9881 93.4054 50.7751 90.722C48.5621 88.0386 46.3109 85.3891 44.0215 82.7734C46.0887 85.5731 48.1924 88.3415 50.3325 91.0787C52.4726 93.8159 54.6327 96.5392 56.8127 99.2486L56.7372 99.0299C56.7685 102.185 56.7529 105.338 56.8232 108.494C56.8934 111.649 56.9716 114.815 57.0939 117.971Z" fill="black"/>
</g>
<path opacity="0.1" d="M20.2295 93.35L31.4039 93.0792L42.3831 106.896L42.5341 121.463L31.706 122.926L43.1824 121.9V106.602L31.706 92.3242L20.2295 93.35Z" fill="white"/>
<path d="M51.4636 116.54C51.4135 116.608 51.346 116.661 51.2684 116.694C51.2409 116.708 51.2106 116.715 51.1798 116.715C51.1491 116.715 51.1187 116.708 51.0913 116.694L49.4589 115.808C49.4198 115.788 49.3756 115.756 49.3235 115.723C49.2961 115.702 49.2744 115.674 49.2603 115.643C49.2462 115.612 49.2402 115.577 49.2428 115.543V114.501C49.2486 114.426 49.2767 114.355 49.3235 114.296C49.3718 114.223 49.4359 114.163 49.511 114.119L55.8636 110.45C55.8905 110.431 55.921 110.418 55.9533 110.411C55.9855 110.405 56.0188 110.405 56.0511 110.411C56.0758 110.419 56.0972 110.434 56.1115 110.456C56.1258 110.477 56.1321 110.503 56.1292 110.528V111.645C56.1246 111.72 56.0974 111.792 56.0511 111.851C56.002 111.922 55.9381 111.982 55.8636 112.025L51.5652 114.507L52.4504 115.009C52.4733 115.024 52.4909 115.045 52.5007 115.07C52.5105 115.096 52.5121 115.124 52.505 115.15C52.4895 115.229 52.4536 115.302 52.4009 115.363L51.4636 116.54Z" fill="#263238"/>
<path d="M49.1531 110.836C49.1509 110.419 49.2241 110.006 49.3692 109.615C49.5126 109.225 49.7069 108.856 49.9471 108.516C50.1951 108.171 50.4816 107.855 50.8011 107.574C51.1184 107.293 51.4579 107.037 51.8165 106.811C52.1003 106.639 52.3971 106.46 52.7017 106.29C53.0063 106.121 53.3005 105.949 53.5687 105.806C53.8917 105.631 54.2331 105.492 54.5867 105.392C54.8625 105.307 55.1556 105.293 55.438 105.353C55.68 105.414 55.8878 105.569 56.016 105.783C56.18 106.079 56.2559 106.416 56.2347 106.754C56.236 107.172 56.1619 107.588 56.016 107.98C55.874 108.364 55.6823 108.729 55.4458 109.063C55.1988 109.409 54.9132 109.725 54.5945 110.006C54.2764 110.286 53.936 110.541 53.5765 110.766C53.3161 110.935 53.0193 111.107 52.7095 111.287C52.3997 111.466 52.1081 111.63 51.8243 111.781C51.5024 111.956 51.1618 112.094 50.8089 112.193C50.5324 112.279 50.2385 112.293 49.9549 112.234C49.7137 112.173 49.5061 112.02 49.377 111.807C49.2122 111.511 49.1346 111.175 49.1531 110.836ZM53.5192 107.405C52.9621 107.704 52.4127 108.022 51.866 108.36C51.7092 108.46 51.558 108.569 51.4129 108.686C51.2806 108.791 51.1601 108.911 51.0536 109.042C50.9545 109.167 50.8739 109.306 50.8141 109.454C50.7538 109.604 50.7237 109.765 50.7256 109.928C50.715 110.06 50.746 110.192 50.8141 110.305C50.8425 110.343 50.8785 110.374 50.9197 110.397C50.961 110.42 51.0066 110.434 51.0536 110.438C51.176 110.446 51.2985 110.427 51.4129 110.383C51.5699 110.331 51.7216 110.264 51.866 110.183C52.4127 109.896 52.9621 109.579 53.5192 109.227C53.6768 109.132 53.8281 109.027 53.9722 108.912C54.1047 108.805 54.2252 108.684 54.3315 108.55C54.43 108.424 54.5106 108.285 54.571 108.136C54.6313 107.984 54.6614 107.821 54.6596 107.657C54.6697 107.526 54.6388 107.395 54.571 107.282C54.5431 107.244 54.5072 107.212 54.4659 107.189C54.4246 107.165 54.3788 107.151 54.3315 107.147C54.2094 107.137 54.0865 107.155 53.9722 107.199C53.8158 107.255 53.6643 107.324 53.5192 107.405Z" fill="#263238"/>
<path d="M114.342 103.594L114.195 103.248L116.573 103.039L117.579 103.31L114.342 103.594Z" fill="#267E95"/>
<path d="M116.582 99.8668L116.572 103.038L117.578 103.309L117.588 99.3867L116.582 99.8668Z" fill="#267E95"/>
<path opacity="0.1" d="M116.582 99.8668L116.572 103.038L117.578 103.309L117.588 99.3867L116.582 99.8668Z" fill="white"/>
<path d="M114.208 96.9032L114.887 96.0117L117.588 99.3884L116.582 99.8685L114.208 96.9032Z" fill="#267E95"/>
<path opacity="0.3" d="M114.208 96.9032L114.887 96.0117L117.588 99.3884L116.582 99.8685L114.208 96.9032Z" fill="white"/>
<path d="M111.832 97.1123L111.652 96.2958L114.889 96.0117L114.209 96.9032L111.832 97.1123Z" fill="#267E95"/>
<path opacity="0.2" d="M111.832 97.1123L111.652 96.2958L114.889 96.0117L114.209 96.9032L111.832 97.1123Z" fill="white"/>
<path d="M111.649 96.293L111.64 100.271L114.34 103.592L114.193 103.246L111.819 100.28L111.829 97.1094L111.649 96.293Z" fill="#267E95"/>
<path opacity="0.2" d="M111.649 96.293L111.64 100.271L114.34 103.592L114.193 103.246L111.819 100.28L111.829 97.1094L111.649 96.293Z" fill="black"/>
<path d="M111.822 100.278L111.832 97.1074L114.21 96.8984L116.584 99.8637L116.574 103.035L114.196 103.244L111.822 100.278Z" fill="#267E95"/>
<path opacity="0.1" d="M111.822 100.278L111.832 97.1074L114.21 96.8984L116.584 99.8637L116.574 103.035L114.196 103.244L111.822 100.278Z" fill="black"/>
<path d="M117.577 103.312L119.458 102.234L119.468 98.3086L117.587 99.3895L117.577 103.312Z" fill="#267E95"/>
<path opacity="0.1" d="M117.577 103.312L119.458 102.234L119.468 98.3086L117.587 99.3895L117.577 103.312Z" fill="white"/>
<path d="M114.889 96.0106L117.589 99.3873L119.47 98.3064L116.766 94.9297L114.889 96.0106Z" fill="#267E95"/>
<path opacity="0.3" d="M114.889 96.0106L117.589 99.3873L119.47 98.3064L116.766 94.9297L114.889 96.0106Z" fill="white"/>
<path d="M111.652 96.2947L113.53 95.2138L116.766 94.9297L114.889 96.0106L111.652 96.2947Z" fill="#267E95"/>
<path opacity="0.2" d="M111.652 96.2947L113.53 95.2138L116.766 94.9297L114.889 96.0106L111.652 96.2947Z" fill="white"/>
<path d="M117.576 103.309C117.593 102.656 117.619 102.003 117.625 101.35C117.632 100.697 117.651 100.044 117.651 99.3906V99.3677V99.3482L116.306 97.6565L114.938 95.9714L114.915 95.9453H114.882C113.804 96.0531 112.727 96.1641 111.652 96.2915C112.72 96.2294 113.791 96.1543 114.859 96.0727L116.182 97.7414L117.524 99.4069C117.524 100.06 117.524 100.713 117.524 101.347C117.524 101.98 117.567 102.656 117.576 103.309Z" fill="#267E95"/>
<path d="M116.768 94.9297L117.558 95.0864L119.805 97.8982L119.472 98.3064L116.768 94.9297Z" fill="#267E95"/>
<path opacity="0.3" d="M116.768 94.9297L117.558 95.0864L119.805 97.8982L119.472 98.3064L116.768 94.9297Z" fill="white"/>
<path d="M119.796 101.164L119.46 102.232L119.47 98.3066L119.803 97.8984L119.796 101.164Z" fill="#267E95"/>
<path opacity="0.1" d="M119.796 101.164L119.46 102.232L119.47 98.3066L119.803 97.8984L119.796 101.164Z" fill="white"/>
<path d="M119.458 102.23C119.484 101.577 119.507 100.924 119.517 100.27C119.527 99.6172 119.517 98.9641 119.54 98.311V98.2848V98.2652C119.089 97.7035 118.635 97.144 118.178 96.5867C117.721 96.0315 117.254 95.4796 116.78 94.9375C117.208 95.5155 117.646 96.0903 118.087 96.6618C118.527 97.2333 118.975 97.795 119.425 98.3567L119.409 98.311C119.409 98.9641 119.409 99.6172 119.425 100.27C119.442 100.924 119.435 101.573 119.458 102.23Z" fill="#267E95"/>
<path opacity="0.1" d="M111.831 97.1074L114.146 97.0552L116.416 99.9257L116.439 102.943L114.195 103.244L116.573 103.035L116.583 99.8637L114.208 96.8984L111.831 97.1074Z" fill="white"/>
<path d="M105.447 106.776C105.328 106.832 105.196 106.854 105.066 106.841C104.936 106.828 104.811 106.779 104.706 106.701C104.401 106.502 104.147 106.234 103.966 105.919C103.784 105.603 103.68 105.249 103.661 104.886C103.65 104.754 103.675 104.622 103.732 104.503C103.789 104.384 103.878 104.283 103.987 104.21L112.89 99.0956C113.008 99.0401 113.139 99.0178 113.269 99.0311C113.399 99.0443 113.523 99.0925 113.628 99.1707C113.932 99.3697 114.186 99.6379 114.368 99.9534C114.549 100.269 114.654 100.623 114.673 100.986C114.686 101.116 114.665 101.247 114.611 101.366C114.557 101.485 114.472 101.587 114.366 101.662L105.447 106.776Z" fill="#267E95"/>
<path d="M103.969 104.207L112.46 99.3088C112.868 99.0769 112.623 98.5479 112.812 98.4009C113.002 98.254 114.119 98.5218 114.755 99.4786C115.392 100.435 115.363 101.601 115.128 101.735C114.893 101.869 114.501 101.549 114.096 101.787L105.442 106.758C105.323 106.813 105.191 106.835 105.061 106.822C104.93 106.809 104.806 106.761 104.7 106.683C104.395 106.484 104.142 106.216 103.96 105.9C103.779 105.584 103.674 105.231 103.655 104.867C103.646 104.739 103.67 104.611 103.725 104.496C103.78 104.38 103.864 104.281 103.969 104.207Z" fill="#267E95"/>
<path opacity="0.2" d="M104.55 106.339C104.779 106.179 105.053 106.055 105.298 105.918L107.205 104.84C109.064 103.792 110.964 102.815 112.757 101.675L113.737 101.022C114.001 100.849 114.364 100.928 114.563 100.617C114.645 100.469 114.681 100.3 114.668 100.131C114.647 99.694 114.495 99.2737 114.23 98.9258C114.424 99.0874 114.594 99.2754 114.736 99.4842C115.389 100.441 115.344 101.607 115.108 101.741C114.873 101.875 114.481 101.555 114.076 101.793L105.422 106.763C105.303 106.819 105.172 106.841 105.041 106.828C104.911 106.815 104.786 106.766 104.681 106.688C104.573 106.624 104.474 106.547 104.384 106.46C104.433 106.411 104.489 106.371 104.55 106.339Z" fill="black"/>
<path d="M103.661 104.889C103.65 104.757 103.675 104.625 103.732 104.506C103.789 104.388 103.878 104.286 103.987 104.213C104.106 104.157 104.237 104.135 104.367 104.148C104.497 104.161 104.621 104.21 104.725 104.288C105.03 104.487 105.284 104.755 105.465 105.071C105.647 105.386 105.751 105.74 105.77 106.104C105.787 106.232 105.765 106.363 105.708 106.479C105.651 106.595 105.56 106.691 105.448 106.755C105.335 106.82 105.206 106.849 105.077 106.84C104.948 106.831 104.824 106.784 104.722 106.704C104.414 106.507 104.157 106.24 103.973 105.924C103.788 105.609 103.681 105.254 103.661 104.889Z" fill="#267E95"/>
<path d="M102.291 110.52L102.144 110.174L104.521 109.965L105.527 110.236L102.291 110.52Z" fill="#267E95"/>
<path d="M104.527 106.793L104.521 109.964L105.526 110.235L105.536 106.312L104.527 106.793Z" fill="#267E95"/>
<path opacity="0.1" d="M104.527 106.793L104.521 109.964L105.526 110.235L105.536 106.312L104.527 106.793Z" fill="white"/>
<path d="M102.156 103.829L102.832 102.938L105.536 106.314L104.527 106.794L102.156 103.829Z" fill="#267E95"/>
<path opacity="0.3" d="M102.156 103.829L102.832 102.938L105.536 106.314L104.527 106.794L102.156 103.829Z" fill="white"/>
<path d="M99.7714 104.038L99.5918 103.222L102.828 102.938L102.152 103.829L99.7714 104.038Z" fill="#267E95"/>
<path opacity="0.2" d="M99.7714 104.038L99.5918 103.222L102.828 102.938L102.152 103.829L99.7714 104.038Z" fill="white"/>
<path d="M99.5944 103.223L99.5879 107.2L102.289 110.521L102.142 110.175L99.7675 107.21L99.774 104.039L99.5944 103.223Z" fill="#267E95"/>
<path opacity="0.2" d="M99.5944 103.223L99.5879 107.2L102.289 110.521L102.142 110.175L99.7675 107.21L99.774 104.039L99.5944 103.223Z" fill="black"/>
<path d="M99.7666 107.208L99.7731 104.037L102.154 103.828L104.525 106.793L104.518 109.964L102.141 110.173L99.7666 107.208Z" fill="#267E95"/>
<path opacity="0.1" d="M99.7666 107.208L99.7731 104.037L102.154 103.828L104.525 106.793L104.518 109.964L102.141 110.173L99.7666 107.208Z" fill="black"/>
<path d="M105.524 110.237L107.405 109.156L107.412 105.234L105.534 106.315L105.524 110.237Z" fill="#267E95"/>
<path opacity="0.1" d="M105.524 110.237L107.405 109.156L107.412 105.234L105.534 106.315L105.524 110.237Z" fill="white"/>
<path d="M102.832 102.94L105.536 106.317L107.414 105.236L104.713 101.859L102.832 102.94Z" fill="#267E95"/>
<path opacity="0.3" d="M102.832 102.94L105.536 106.317L107.414 105.236L104.713 101.859L102.832 102.94Z" fill="white"/>
<path d="M99.5918 103.224L101.473 102.143L104.709 101.859L102.828 102.94L99.5918 103.224Z" fill="#267E95"/>
<path opacity="0.2" d="M99.5918 103.224L101.473 102.143L104.709 101.859L102.828 102.94L99.5918 103.224Z" fill="white"/>
<path d="M105.527 110.236C105.543 109.583 105.569 108.93 105.576 108.276C105.582 107.623 105.598 106.97 105.602 106.317V106.294V106.275L104.256 104.583L102.898 102.901L102.878 102.875H102.845C101.768 102.983 100.69 103.094 99.6123 103.221C100.683 103.159 101.751 103.081 102.823 103.002L104.145 104.671L105.487 106.337C105.487 106.99 105.487 107.643 105.504 108.273C105.52 108.903 105.513 109.583 105.527 110.236Z" fill="#267E95"/>
<path d="M104.712 101.859L105.499 102.016L107.749 104.828L107.413 105.236L104.712 101.859Z" fill="#267E95"/>
<path opacity="0.3" d="M104.712 101.859L105.499 102.016L107.749 104.828L107.413 105.236L104.712 101.859Z" fill="white"/>
<path d="M107.745 108.09L107.408 109.155L107.415 105.232L107.751 104.824L107.745 108.09Z" fill="#267E95"/>
<path opacity="0.1" d="M107.745 108.09L107.408 109.155L107.415 105.232L107.751 104.824L107.745 108.09Z" fill="white"/>
<path d="M107.406 109.155C107.432 108.502 107.455 107.849 107.465 107.196C107.475 106.542 107.465 105.889 107.488 105.236V105.21L107.471 105.19C107.021 104.629 106.567 104.069 106.11 103.512C105.649 102.957 105.185 102.405 104.712 101.859C105.147 102.441 105.583 103.015 106.018 103.584C106.459 104.152 106.906 104.72 107.357 105.282V105.236C107.357 105.889 107.357 106.542 107.357 107.196C107.357 107.849 107.38 108.502 107.406 109.155Z" fill="#267E95"/>
<path opacity="0.1" d="M99.7744 104.037L102.09 103.985L104.359 106.855L104.386 109.873L102.142 110.173L104.519 109.964L104.526 106.793L102.155 103.828L99.7744 104.037Z" fill="white"/>
<path d="M65.9045 133.67L66.0744 133.334L63.7165 132.965L62.6943 133.167L65.9045 133.67Z" fill="#267E95"/>
<path d="M63.9255 129.803L63.7165 132.967L62.6943 133.169L62.9556 129.254L63.9255 129.803Z" fill="#267E95"/>
<path opacity="0.1" d="M63.9255 129.803L63.7165 132.967L62.6943 133.169L62.9556 129.254L63.9255 129.803Z" fill="white"/>
<path d="M66.4912 127.004L65.8772 126.07L62.9512 129.251L63.9211 129.8L66.4912 127.004Z" fill="#267E95"/>
<path opacity="0.3" d="M66.4912 127.004L65.8772 126.07L62.9512 129.251L63.9211 129.8L66.4912 127.004Z" fill="white"/>
<path d="M68.8517 127.373L69.0868 126.57L65.8799 126.07L66.4938 127.004L68.8517 127.373Z" fill="#267E95"/>
<path opacity="0.2" d="M68.8517 127.373L69.0868 126.57L65.8799 126.07L66.4938 127.004L68.8517 127.373Z" fill="white"/>
<path d="M69.0854 126.574L68.8242 130.545L65.9014 133.674L66.0712 133.337L68.6413 130.542L68.8503 127.378L69.0854 126.574Z" fill="#267E95"/>
<path opacity="0.2" d="M69.0854 126.574L68.8242 130.545L65.9014 133.674L66.0712 133.337L68.6413 130.542L68.8503 127.378L69.0854 126.574Z" fill="black"/>
<path d="M68.6428 130.537L68.8518 127.373L66.494 127.004L63.9238 129.799L63.7148 132.964L66.0727 133.333L68.6428 130.537Z" fill="#267E95"/>
<path opacity="0.1" d="M68.6428 130.537L68.8518 127.373L66.494 127.004L63.9238 129.799L63.7148 132.964L66.0727 133.333L68.6428 130.537Z" fill="black"/>
<path d="M62.6923 133.167L60.8896 131.962L61.1509 128.047L62.9536 129.252L62.6923 133.167Z" fill="#267E95"/>
<path opacity="0.1" d="M62.6923 133.167L60.8896 131.962L61.1509 128.047L62.9536 129.252L62.6923 133.167Z" fill="white"/>
<path d="M65.8791 126.072L62.9531 129.252L61.1504 128.047L64.0765 124.863L65.8791 126.072Z" fill="#267E95"/>
<path opacity="0.3" d="M65.8791 126.072L62.9531 129.252L61.1504 128.047L64.0765 124.863L65.8791 126.072Z" fill="white"/>
<path d="M69.0848 126.571L67.2854 125.366L64.0752 124.863L65.8779 126.072L69.0848 126.571Z" fill="#267E95"/>
<path opacity="0.2" d="M69.0848 126.571L67.2854 125.366L64.0752 124.863L65.8779 126.072L69.0848 126.571Z" fill="white"/>
<path d="M62.8642 131.21C62.9164 130.557 62.9719 129.923 63.0144 129.28L64.4676 127.709L65.9013 126.135C66.9637 126.288 68.0251 126.433 69.0853 126.573C68.0207 126.374 66.9561 126.187 65.8882 126.008H65.8555L65.8327 126.034L64.3598 127.618L62.9033 129.211L62.887 129.231V129.254C62.8446 129.907 62.8152 130.56 62.7792 131.213C62.7433 131.866 62.7237 132.52 62.6943 133.173C62.7466 132.513 62.8184 131.863 62.8642 131.21Z" fill="#267E95"/>
<path d="M64.0768 124.863L63.28 124.965L60.8438 127.616L61.1507 128.047L64.0768 124.863Z" fill="#267E95"/>
<path opacity="0.3" d="M64.0768 124.863L63.28 124.965L60.8438 127.616L61.1507 128.047L64.0768 124.863Z" fill="white"/>
<path d="M60.6279 130.876L60.8892 131.964L61.1504 128.048L60.8435 127.617L60.6279 130.876Z" fill="#267E95"/>
<path opacity="0.1" d="M60.6279 130.876L60.8892 131.964L61.1504 128.048L60.8435 127.617L60.6279 130.876Z" fill="white"/>
<path d="M60.8896 131.964C60.9092 131.31 60.9321 130.657 60.9648 130.004C60.9974 129.351 61.0399 128.698 61.0791 128.045V128.019V128.002C61.5689 127.47 62.0588 126.944 62.5552 126.418C63.0516 125.893 63.5349 125.38 64.0607 124.867C63.5937 125.419 63.1201 125.961 62.6401 126.5C62.16 127.039 61.6604 127.568 61.1868 128.1L61.2064 128.054C61.1574 128.708 61.1182 129.361 61.0595 130.014C61.0007 130.667 60.9582 131.31 60.8896 131.964Z" fill="#267E95"/>
<path opacity="0.1" d="M68.8518 127.373L66.5462 127.164L64.0871 129.871L63.8553 132.882L66.0727 133.333L63.7148 132.964L63.9238 129.799L66.494 127.004L68.8518 127.373Z" fill="white"/>
<path d="M74.5754 137.459C74.6908 137.52 74.8204 137.55 74.9512 137.546C75.082 137.541 75.2092 137.502 75.32 137.432C75.6375 137.254 75.9085 137.004 76.111 136.702C76.3136 136.399 76.442 136.053 76.4858 135.692C76.5063 135.562 76.4913 135.429 76.4424 135.307C76.3936 135.186 76.3126 135.079 76.2083 134.999L67.6782 129.285C67.5631 129.222 67.4336 129.192 67.3029 129.196C67.1721 129.2 67.0447 129.238 66.9336 129.307C66.6142 129.484 66.3411 129.734 66.1367 130.037C65.9324 130.339 65.8026 130.686 65.758 131.048C65.7355 131.177 65.7479 131.31 65.7938 131.433C65.8397 131.556 65.9175 131.664 66.0192 131.747L74.5754 137.459Z" fill="#267E95"/>
<path d="M76.2073 134.998L68.0659 129.544C67.6773 129.283 67.9549 128.774 67.7752 128.614C67.5956 128.454 66.469 128.643 65.7636 129.554C65.0582 130.465 65.0124 131.631 65.2378 131.781C65.4631 131.932 65.8909 131.638 66.2632 131.902L74.5581 137.454C74.6735 137.516 74.8032 137.546 74.9339 137.541C75.0647 137.537 75.1919 137.497 75.3027 137.428C75.6202 137.25 75.8912 136.999 76.0938 136.697C76.2963 136.394 76.4247 136.048 76.4686 135.687C76.4902 135.559 76.4775 135.428 76.4315 135.307C76.3856 135.186 76.3082 135.079 76.2073 134.998Z" fill="#267E95"/>
<path opacity="0.2" d="M75.4843 137.079C75.2544 136.908 75.0156 136.75 74.7691 136.605L72.9436 135.4C71.1638 134.228 69.3513 133.114 67.614 131.863C67.3592 131.677 67.1045 131.484 66.6669 131.158C66.4122 130.968 66.0464 131.021 65.8668 130.697C65.7948 130.544 65.7709 130.372 65.7982 130.204C65.8471 129.771 66.0271 129.363 66.3142 129.035C66.1102 129.182 65.9277 129.357 65.7721 129.554C65.0634 130.466 65.021 131.631 65.2463 131.782C65.4717 131.932 65.8995 131.638 66.2718 131.902L74.5667 137.454C74.682 137.516 74.8117 137.546 74.9425 137.541C75.0733 137.537 75.2005 137.498 75.3113 137.428C75.4277 137.372 75.5373 137.303 75.6378 137.222C75.5948 137.166 75.5429 137.118 75.4843 137.079Z" fill="black"/>
<path d="M76.4713 135.692C76.4936 135.564 76.4811 135.432 76.4352 135.31C76.3892 135.188 76.3115 135.081 76.2101 134.999C76.095 134.937 75.9655 134.906 75.8347 134.911C75.7039 134.915 75.5765 134.953 75.4655 135.022C75.1487 135.201 74.8782 135.452 74.6757 135.754C74.4733 136.056 74.3445 136.402 74.2996 136.763C74.2788 136.892 74.292 137.024 74.3378 137.147C74.3836 137.269 74.4605 137.378 74.5609 137.462C74.6762 137.523 74.8059 137.554 74.9367 137.549C75.0675 137.544 75.1947 137.505 75.3055 137.436C75.6233 137.257 75.8946 137.006 76.0972 136.703C76.2998 136.4 76.428 136.054 76.4713 135.692Z" fill="#267E95"/>
<path d="M77.455 141.405L77.6281 141.072L75.2669 140.703L74.248 140.902L77.455 141.405Z" fill="#267E95"/>
<path d="M75.4792 137.533L75.2669 140.701L74.248 140.9L74.506 136.984L75.4792 137.533Z" fill="#267E95"/>
<path opacity="0.1" d="M75.4792 137.533L75.2669 140.701L74.248 140.9L74.506 136.984L75.4792 137.533Z" fill="white"/>
<path d="M78.0482 134.742L77.431 133.805L74.5049 136.985L75.4781 137.534L78.0482 134.742Z" fill="#267E95"/>
<path opacity="0.3" d="M78.0482 134.742L77.431 133.805L74.5049 136.985L75.4781 137.534L78.0482 134.742Z" fill="white"/>
<path d="M80.4057 135.111L80.6409 134.308L77.4307 133.805L78.0479 134.742L80.4057 135.111Z" fill="#267E95"/>
<path opacity="0.2" d="M80.4057 135.111L80.6409 134.308L77.4307 133.805L78.0479 134.742L80.4057 135.111Z" fill="white"/>
<path d="M80.6424 134.305L80.3779 138.276L77.4551 141.401L77.6282 141.068L80.1983 138.272L80.4073 135.108L80.6424 134.305Z" fill="#267E95"/>
<path opacity="0.2" d="M80.6424 134.305L80.3779 138.276L77.4551 141.401L77.6282 141.068L80.1983 138.272L80.4073 135.108L80.6424 134.305Z" fill="black"/>
<path d="M80.1959 138.276L80.4049 135.111L78.047 134.742L75.4769 137.534L75.2646 140.702L77.6258 141.071L80.1959 138.276Z" fill="#267E95"/>
<path opacity="0.1" d="M80.1959 138.276L80.4049 135.111L78.047 134.742L75.4769 137.534L75.2646 140.702L77.6258 141.071L80.1959 138.276Z" fill="black"/>
<path d="M74.246 140.902L72.4434 139.697L72.7013 135.781L74.504 136.986L74.246 140.902Z" fill="#267E95"/>
<path opacity="0.1" d="M74.246 140.902L72.4434 139.697L72.7013 135.781L74.504 136.986L74.246 140.902Z" fill="white"/>
<path d="M77.429 133.807L74.5029 136.987L72.7002 135.782L75.6263 132.602L77.429 133.807Z" fill="#267E95"/>
<path opacity="0.3" d="M77.429 133.807L74.5029 136.987L72.7002 135.782L75.6263 132.602L77.429 133.807Z" fill="white"/>
<path d="M80.6388 134.31L78.8362 133.104L75.626 132.602L77.4287 133.807L80.6388 134.31Z" fill="#267E95"/>
<path opacity="0.2" d="M80.6388 134.31L78.8362 133.104L75.626 132.602L77.4287 133.807L80.6388 134.31Z" fill="white"/>
<path d="M74.4208 138.948C74.473 138.295 74.5253 137.658 74.571 137.014L76.0242 135.444L77.4546 133.87C78.516 134.023 79.5773 134.173 80.6419 134.307C79.5773 134.108 78.5094 133.922 77.4415 133.742H77.4089L77.386 133.765L75.9165 135.349L74.4567 136.959V136.975V136.998C74.4142 137.651 74.3816 138.304 74.3489 138.957C74.3163 139.611 74.2901 140.264 74.2607 140.917C74.3032 140.251 74.3718 139.601 74.4208 138.948Z" fill="#267E95"/>
<path d="M75.6273 132.602L74.8337 132.703L72.3975 135.351L72.7012 135.782L75.6273 132.602Z" fill="#267E95"/>
<path opacity="0.3" d="M75.6273 132.602L74.8337 132.703L72.3975 135.351L72.7012 135.782L75.6273 132.602Z" fill="white"/>
<path d="M72.1777 138.611L72.4423 139.698L72.7002 135.783L72.3965 135.352L72.1777 138.611Z" fill="#267E95"/>
<path opacity="0.1" d="M72.1777 138.611L72.4423 139.698L72.7002 135.783L72.3965 135.352L72.1777 138.611Z" fill="white"/>
<path d="M72.4434 139.698C72.4597 139.045 72.4825 138.392 72.5185 137.738C72.5544 137.085 72.5936 136.432 72.6295 135.779V135.753V135.733C73.1161 135.204 73.6092 134.675 74.1023 134.153C74.5955 133.63 75.1016 133.111 75.6111 132.602C75.1452 133.15 74.6717 133.694 74.1905 134.234C73.7072 134.77 73.2108 135.306 72.7373 135.835L72.7569 135.792C72.7046 136.445 72.6654 137.098 72.6066 137.752C72.5479 138.405 72.5119 139.048 72.4434 139.698Z" fill="#267E95"/>
<path opacity="0.1" d="M80.4049 135.111L78.0993 134.902L75.6369 137.609L75.4051 140.617L77.6258 141.071L75.2646 140.702L75.4769 137.534L78.047 134.742L80.4049 135.111Z" fill="white"/>
</svg>
