<svg width="59" height="59" viewBox="0 0 59 59" fill="none" xmlns="http://www.w3.org/2000/svg">
<path opacity="0.4" d="M53.2473 25.665L50.8381 35.9408C48.7731 44.8154 44.6923 48.4046 37.0223 47.6671C35.7931 47.5687 34.4656 47.3475 33.0398 47.0033L28.9098 46.02C18.6585 43.5863 15.4873 38.5221 17.8965 28.2463L20.3056 17.9458C20.7973 15.8563 21.3873 14.0371 22.1248 12.5375C25.001 6.58833 29.8931 4.99042 38.104 6.9325L42.2094 7.89125C52.5098 10.3004 55.6565 15.3892 53.2473 25.665Z" fill="url(#paint0_linear_1764_60335)"/>
<path d="M37.0226 47.6672C35.4984 48.6997 33.5809 49.5601 31.2455 50.3222L27.3614 51.6005C17.6018 54.7472 12.4639 52.1168 9.29261 42.3572L6.14594 32.6468C2.99927 22.8872 5.60511 17.7247 15.3647 14.578L19.2489 13.2997C20.2568 12.9801 21.2155 12.7097 22.1251 12.5376C21.3876 14.0372 20.7976 15.8563 20.3059 17.9459L17.8968 28.2463C15.4876 38.5222 18.6589 43.5863 28.9101 46.0201L33.0401 47.0034C34.4659 47.3476 35.7934 47.5688 37.0226 47.6672Z" fill="url(#paint1_linear_1764_60335)"/>
<defs>
<linearGradient id="paint0_linear_1764_60335" x1="18.2133" y1="45.449" x2="70.2083" y2="44.2553" gradientUnits="userSpaceOnUse">
<stop stop-color="#005F73"/>
<stop offset="1" stop-color="#6CC24A"/>
</linearGradient>
<linearGradient id="paint1_linear_1764_60335" x1="5.82557" y1="50.6198" x2="51.1375" y2="49.6843" gradientUnits="userSpaceOnUse">
<stop stop-color="#005F73"/>
<stop offset="1" stop-color="#6CC24A"/>
</linearGradient>
</defs>
</svg>
