<svg width="121" height="91" viewBox="0 0 121 91" fill="none" xmlns="http://www.w3.org/2000/svg">
<g opacity="0.8">
<path d="M120.5 79.4729H0.5V79.5329H120.5V79.4729Z" fill="#EBEBEB"/>
<path d="M108.477 83.3342H100.528V83.3942H108.477V83.3342Z" fill="#EBEBEB"/>
<path d="M97.5051 83.3342H80.5107V83.3942H97.5051V83.3342Z" fill="#EBEBEB"/>
<path d="M71.1378 81.1067H66.5322V81.1667H71.1378V81.1067Z" fill="#EBEBEB"/>
<path d="M21.3204 81.51H13.0908V81.57H21.3204V81.51Z" fill="#EBEBEB"/>
<path d="M38.4201 81.51H23.4561V81.57H38.4201V81.51Z" fill="#EBEBEB"/>
<path d="M54.5346 82.5229H45.7002V82.5829H54.5346V82.5229Z" fill="#EBEBEB"/>
<path d="M57.3815 68.768H11.0399C10.6768 68.7673 10.3289 68.6227 10.0724 68.3658C9.81593 68.1088 9.67187 67.7606 9.67188 67.3976V2.2544C9.67504 1.89344 9.82048 1.54831 10.0766 1.29397C10.3328 1.03963 10.6789 0.896614 11.0399 0.895996H57.3815C57.7449 0.895996 58.0935 1.04038 58.3505 1.29738C58.6075 1.55438 58.7519 1.90294 58.7519 2.2664V67.3976C58.7519 67.761 58.6075 68.1096 58.3505 68.3666C58.0935 68.6236 57.7449 68.768 57.3815 68.768ZM11.0399 0.943996C10.6928 0.944632 10.3601 1.08297 10.1148 1.32865C9.8696 1.57433 9.73187 1.90727 9.73188 2.2544V67.3976C9.73187 67.7447 9.8696 68.0777 10.1148 68.3233C10.3601 68.569 10.6928 68.7073 11.0399 68.708H57.3815C57.7288 68.7074 58.0618 68.5691 58.3074 68.3235C58.553 68.0779 58.6912 67.7449 58.6919 67.3976V2.2544C58.6912 1.90705 58.553 1.57411 58.3074 1.3285C58.0618 1.08289 57.7288 0.944631 57.3815 0.943996H11.0399Z" fill="#EBEBEB"/>
<path d="M109.295 68.768H62.9515C62.5882 68.7673 62.24 68.6228 61.9831 68.3659C61.7263 68.109 61.5817 67.7608 61.5811 67.3976V2.2544C61.5848 1.89322 61.7308 1.54809 61.9873 1.29382C62.2439 1.03954 62.5903 0.896608 62.9515 0.895996H109.295C109.656 0.897245 110.002 1.04054 110.257 1.29481C110.513 1.54909 110.658 1.89386 110.661 2.2544V67.3976C110.661 67.7602 110.517 68.108 110.261 68.3649C110.005 68.6218 109.658 68.7667 109.295 68.768ZM62.9515 0.943996C62.6041 0.944631 62.2712 1.08289 62.0256 1.3285C61.78 1.57411 61.6417 1.90705 61.6411 2.2544V67.3976C61.6417 67.7449 61.78 68.0779 62.0256 68.3235C62.2712 68.5691 62.6041 68.7074 62.9515 68.708H109.295C109.643 68.7074 109.976 68.5691 110.221 68.3235C110.467 68.0779 110.605 67.7449 110.606 67.3976V2.2544C110.605 1.90705 110.467 1.57411 110.221 1.3285C109.976 1.08289 109.643 0.944631 109.295 0.943996H62.9515Z" fill="#EBEBEB"/>
<path d="M34.5891 38.7522L87.4971 38.7522V4.3866L34.5891 4.3866L34.5891 38.7522Z" fill="#E6E6E6"/>
<path d="M33.5055 38.7522L86.8311 38.7522V4.3866L33.5055 4.3866L33.5055 38.7522Z" fill="#F0F0F0"/>
<path d="M85.7266 36.8841V6.25049L34.6042 6.25049V36.8841H85.7266Z" fill="#FAFAFA"/>
<path d="M79.4527 36.8841L72.9871 6.25049H64.5127L70.9783 36.8841H79.4527Z" fill="white"/>
<path d="M69.6061 36.8841L63.1405 6.25049H59.3125L65.7781 36.8841H69.6061Z" fill="white"/>
<path d="M54.4182 36.8841L47.9526 6.25049H41.415L47.8806 36.8841H54.4182Z" fill="white"/>
<path d="M34.7451 36.8841V6.25049H34.6059V36.8841H34.7451Z" fill="#E6E6E6"/>
<path d="M58.5773 38.7522H61.7549L61.7549 4.3866H58.5773L58.5773 38.7522Z" fill="#F0F0F0"/>
<path d="M61.8936 36.8841V6.25049H61.7544V36.8841H61.8936Z" fill="#E6E6E6"/>
<path d="M60.1113 38.7522H60.2217L60.2217 4.3866H60.1113L60.1113 38.7522Z" fill="#E6E6E6"/>
<path d="M97.9227 77.8792H107.563V52.7271H97.9227V77.8792Z" fill="#F0F0F0"/>
<path d="M58.1669 79.4729H105.711V77.8793H58.1669V79.4729Z" fill="#F0F0F0"/>
<path d="M97.9194 52.7271H56.3154V77.8791H97.9194V52.7271Z" fill="#F5F5F5"/>
<path d="M94.1342 55.8228H60.1094V64.0716H94.1342V55.8228Z" fill="#F0F0F0"/>
<path d="M94.1342 66.5341H60.1094V74.7829H94.1342V66.5341Z" fill="#F0F0F0"/>
<path d="M72.8179 60.512H81.4171C81.6716 60.512 81.8779 60.3057 81.8779 60.0512V59.8424C81.8779 59.5879 81.6716 59.3816 81.4171 59.3816H72.8179C72.5634 59.3816 72.3571 59.5879 72.3571 59.8424V60.0512C72.3571 60.3057 72.5634 60.512 72.8179 60.512Z" fill="#F5F5F5"/>
<path d="M72.8179 71.2235H81.4171C81.6716 71.2235 81.8779 71.0172 81.8779 70.7627V70.5539C81.8779 70.2994 81.6716 70.0931 81.4171 70.0931H72.8179C72.5634 70.0931 72.3571 70.2994 72.3571 70.5539V70.7627C72.3571 71.0172 72.5634 71.2235 72.8179 71.2235Z" fill="#F5F5F5"/>
<path d="M74.9882 48.4907C74.9882 48.4907 74.873 52.7267 70.4282 52.7267C65.9834 52.7267 65.8682 48.4907 65.8682 48.4907H74.9882Z" fill="#F0F0F0"/>
<path d="M85.3827 48.4907C85.3827 48.4907 85.2651 52.7267 80.8227 52.7267C76.3803 52.7267 76.2627 48.4907 76.2627 48.4907H85.3827Z" fill="#F0F0F0"/>
<path d="M74.9882 45.6858C74.9882 45.6858 74.873 49.9218 70.4282 49.9218C65.9834 49.9218 65.8682 45.6858 65.8682 45.6858H74.9882Z" fill="#F0F0F0"/>
<path d="M85.3827 45.6858C85.3827 45.6858 85.2651 49.9218 80.8227 49.9218C76.3803 49.9218 76.2627 45.6858 76.2627 45.6858H85.3827Z" fill="#F0F0F0"/>
<path d="M95.7792 48.4907C95.7792 48.4907 95.6568 52.7363 91.2192 52.7363C86.7816 52.7363 86.6592 48.5003 86.6592 48.5003L95.7792 48.4907Z" fill="#F0F0F0"/>
<path d="M95.7792 45.6858C95.7792 45.6858 95.6616 49.9218 91.2192 49.9218C86.7768 49.9218 86.6592 45.6858 86.6592 45.6858H95.7792Z" fill="#F0F0F0"/>
<path d="M92.9794 29.5887H99.0322V18.1767H92.9794V29.5887Z" fill="#E6E6E6"/>
<path d="M91.6246 29.5887H98.7334V18.1767H91.6246V29.5887Z" fill="#F5F5F5"/>
<path d="M97.6494 28.573V19.189H92.7054V28.573H97.6494Z" fill="white"/>
<path d="M102.143 36.9637H108.196V25.5517H102.143V36.9637Z" fill="#E6E6E6"/>
<path d="M100.791 36.9637H107.899V25.5517H100.791V36.9637Z" fill="#F5F5F5"/>
<path d="M106.815 35.9477V26.5637H101.871V35.9477H106.815Z" fill="white"/>
<path d="M17.9594 28.7964H26.6162L26.6162 12.4764H17.9594V28.7964Z" fill="#E6E6E6"/>
<path d="M16.0236 28.7964H26.1924L26.1924 12.4764H16.0236V28.7964Z" fill="#F5F5F5"/>
<path d="M24.6416 27.3471V13.9263H17.5688V27.3471H24.6416Z" fill="white"/>
<path d="M14.5884 57.4473C13.4436 54.0873 9.95164 52.8345 8.93884 50.7129C7.61164 47.9337 8.09644 43.7649 9.65884 42.2601C11.0244 40.9521 14.046 49.7937 14.3868 50.7825C15.5604 54.1785 15.726 56.7009 15.7404 59.1417C15.942 57.0657 16.1292 55.1601 16.2708 53.6889C16.7316 48.8889 16.8012 47.3481 16.806 46.8729C16.6644 46.6329 16.4964 46.3713 16.398 46.2273C15.5628 45.0009 13.566 43.5417 12.6876 41.7609C11.406 39.1593 12.0156 36.0465 13.2564 34.8873C14.5524 33.6873 16.2708 36.5409 17.034 39.3777C17.7972 42.2145 17.034 44.9337 17.058 47.2977C17.058 47.7609 16.9356 49.5153 16.7196 51.9513C17.3484 49.3305 18.2052 47.5761 19.5996 45.9513C21.3276 43.9401 22.8972 41.4873 24.0948 41.8041C25.2924 42.1209 24.258 45.3633 23.0244 47.6409C21.9228 49.6665 17.406 51.6897 16.59 53.3193C16.2876 56.6217 15.87 60.8025 15.4812 64.6977C16.0476 62.6865 15.834 62.5161 17.5692 59.4369C18.6012 57.6057 22.2348 55.3569 22.494 56.6073C22.7532 57.8577 21.87 60.2433 20.406 61.9065C19.2252 63.2505 16.9452 63.2481 16.326 64.0833C16.182 64.2777 15.69 65.0217 15.4068 65.4513C14.9268 70.2057 14.466 74.4033 14.2764 75.8337L14.0532 75.8481C14.106 75.4785 14.3556 73.0593 14.6772 69.8481C14.3172 68.1441 10.7028 67.1505 9.75484 65.3793C8.76124 63.5265 8.14204 61.3617 8.82364 59.9145C9.39244 58.7145 12.6012 60.3489 13.7508 62.3505C14.5164 63.6825 14.9172 65.1057 14.9508 67.0161C15.1668 64.8345 15.3996 62.4921 15.6156 60.2817C15.4212 59.7249 14.9316 58.4529 14.5884 57.4473Z" fill="#E6E6E6"/>
<path d="M17.982 79.4721H10.8204C10.4268 79.4721 10.1004 79.0137 10.0116 78.3777L9.49316 74.2161H19.2996L18.7884 78.3777C18.7116 79.0137 18.3732 79.4721 17.982 79.4721Z" fill="#E6E6E6"/>
<path d="M19.5028 74.5256H9.28839C9.18479 74.5363 9.08066 74.5111 8.99333 74.4543C8.90601 74.3976 8.84074 74.3126 8.80839 74.2136L8.59959 72.8504C8.56839 72.6416 8.79159 72.4592 9.07959 72.4592H19.7116C19.9996 72.4592 20.2228 72.6416 20.1916 72.8504L19.9828 74.2136C19.9512 74.3131 19.8861 74.3986 19.7986 74.4555C19.7111 74.5124 19.6065 74.5372 19.5028 74.5256Z" fill="#F0F0F0"/>
<path d="M60.5014 90.3087C86.2012 90.3087 107.035 89.0924 107.035 87.5919C107.035 86.0915 86.2012 84.8751 60.5014 84.8751C34.8016 84.8751 13.9678 86.0915 13.9678 87.5919C13.9678 89.0924 34.8016 90.3087 60.5014 90.3087Z" fill="#F5F5F5"/>
<path d="M59.5534 34.8188L62.9998 38.9372C63.309 39.3065 63.7016 39.5971 64.1452 39.7848C64.5887 39.9726 65.0706 40.0522 65.551 40.0172L80.8606 38.8916C82.0028 38.8076 83.1315 39.1806 83.9987 39.9286C84.866 40.6766 85.4007 41.7383 85.4854 42.8803L87.5662 71.1595C87.6482 72.3005 87.2743 73.4274 86.5265 74.293C85.7787 75.1587 84.7182 75.6924 83.5774 75.7771L41.131 78.8971C39.9885 78.9811 38.8594 78.6077 37.9921 77.8593C37.1248 77.1108 36.5903 76.0485 36.5062 74.9059L33.8206 38.4884C33.7618 37.686 34.0241 36.8932 34.5498 36.2843C35.0755 35.6753 35.8215 35.3001 36.6238 35.2412L57.0046 33.7388C57.4847 33.7035 57.9663 33.783 58.4095 33.9708C58.8527 34.1586 59.2449 34.4493 59.5534 34.8188Z" fill="url(#paint0_linear_8373_188599)"/>
<g opacity="0.3">
<path d="M59.5534 34.819L62.9998 38.9374C63.309 39.3068 63.7016 39.5973 64.1452 39.7851C64.5887 39.9729 65.0706 40.0525 65.551 40.0174L80.8606 38.8918C82.0028 38.8079 83.1315 39.1809 83.9987 39.9288C84.866 40.6768 85.4007 41.7385 85.4854 42.8806L87.5662 71.1598C87.6482 72.3007 87.2743 73.4276 86.5265 74.2933C85.7787 75.1589 84.7182 75.6926 83.5774 75.7774L41.131 78.8974C39.9885 78.9813 38.8594 78.608 37.9921 77.8595C37.1248 77.111 36.5903 76.0487 36.5062 74.9062L33.8206 38.4886C33.7618 37.6863 34.0241 36.8935 34.5498 36.2845C35.0755 35.6756 35.8215 35.3003 36.6238 35.2414L57.0046 33.739C57.4847 33.7037 57.9663 33.7832 58.4095 33.9711C58.8527 34.1589 59.2449 34.4495 59.5534 34.819Z" fill="black"/>
</g>
<path d="M51.8605 36.2036L37.3294 37.2733C37.0002 37.2975 36.753 37.584 36.7773 37.9131L36.7783 37.9275C36.8026 38.2566 37.089 38.5038 37.4182 38.4796L51.9493 37.41C52.2784 37.3857 52.5256 37.0993 52.5014 36.7701L52.5003 36.7557C52.4761 36.4266 52.1896 36.1794 51.8605 36.2036Z" fill="white"/>
<path d="M49.7712 39.042L37.3896 39.9087C37.0595 39.9318 36.8107 40.2181 36.8338 40.5482L36.8348 40.5626C36.8579 40.8926 37.1442 41.1414 37.4743 41.1183L49.8559 40.2516C50.1859 40.2285 50.4347 39.9422 50.4116 39.6122L50.4106 39.5978C50.3875 39.2677 50.1012 39.0189 49.7712 39.042Z" fill="white"/>
<path d="M84.9735 74.1715L40.3791 77.4571C39.8406 77.4954 39.3088 77.319 38.9 76.9664C38.4912 76.6138 38.2386 76.1137 38.1975 75.5755L36.1743 48.0787C36.1353 47.54 36.3114 47.0079 36.6642 46.5989C37.0169 46.19 37.5174 45.9376 38.0559 45.8971L82.6527 42.6139C83.1913 42.5748 83.7234 42.751 84.1324 43.1037C84.5414 43.4564 84.7938 43.9569 84.8343 44.4955L86.8599 71.9899C86.8976 72.529 86.7203 73.0611 86.3668 73.4699C86.0133 73.8787 85.5124 74.1309 84.9735 74.1715Z" fill="#E0E0E0"/>
<path d="M82.6464 42.6154L38.6893 45.8511C37.567 45.9338 36.7242 46.9105 36.8068 48.0328L38.8307 75.5272C38.9133 76.6495 39.8901 77.4924 41.0124 77.4098L84.9695 74.174C86.0918 74.0914 86.9346 73.1146 86.852 71.9924L84.8281 44.4979C84.7455 43.3756 83.7687 42.5328 82.6464 42.6154Z" fill="white"/>
<path d="M42.4541 77.3035L51.6557 76.6244L43.3253 49.226L42.4541 77.3035Z" fill="#F5F5F5"/>
<path d="M93.6467 66.496L49.5539 73.9192C49.0197 74.0067 48.4726 73.8791 48.0323 73.5643C47.592 73.2494 47.2943 72.773 47.2043 72.2392L42.6275 45.0568C42.54 44.5229 42.6677 43.9761 42.9826 43.5362C43.2975 43.0963 43.7739 42.799 44.3075 42.7096L88.4003 35.2864C88.9346 35.1983 89.482 35.3257 89.9224 35.6406C90.3629 35.9556 90.6605 36.4324 90.7499 36.9664L95.3267 64.1512C95.4128 64.6847 95.2845 65.2305 94.9698 65.6698C94.6551 66.109 94.1795 66.406 93.6467 66.496Z" fill="white"/>
<path opacity="0.3" d="M88.396 35.2871L44.9322 42.6073C43.8224 42.7942 43.0744 43.8453 43.2613 44.955L47.8399 72.1409C48.0268 73.2506 49.0779 73.9987 50.1876 73.8118L93.6515 66.4916C94.7612 66.3048 95.5093 65.2536 95.3224 64.1439L90.7437 36.958C90.5569 35.8483 89.5057 35.1002 88.396 35.2871Z" fill="url(#paint1_linear_8373_188599)"/>
<path opacity="0.2" d="M87.8404 41.1423L47.3716 47.9535C47.1365 47.9925 46.8955 47.9369 46.7013 47.7988C46.507 47.6608 46.3753 47.4515 46.3348 47.2167L46.1092 45.8655C46.0896 45.7492 46.0931 45.6302 46.1195 45.5152C46.1459 45.4003 46.1948 45.2917 46.2632 45.1956C46.3316 45.0996 46.4183 45.0179 46.5183 44.9554C46.6183 44.8928 46.7296 44.8506 46.846 44.8311L87.3148 38.0175C87.5499 37.9779 87.7912 38.0332 87.9856 38.1714C88.18 38.3095 88.3116 38.5192 88.3516 38.7543L88.5796 40.1055C88.6178 40.3409 88.5616 40.5818 88.4232 40.776C88.2848 40.9701 88.0753 41.1018 87.8404 41.1423Z" fill="url(#paint2_linear_8373_188599)"/>
<path opacity="0.2" d="M88.2768 43.5743L47.7504 50.3975C47.6371 50.4158 47.5286 50.4564 47.4311 50.5168C47.3335 50.5772 47.2489 50.6563 47.182 50.7495C47.1151 50.8427 47.0672 50.9482 47.0412 51.06C47.0152 51.1717 47.0115 51.2875 47.0304 51.4007L47.2296 52.6007C47.248 52.7139 47.2885 52.8225 47.3489 52.92C47.4093 53.0176 47.4884 53.1022 47.5816 53.1691C47.6748 53.236 47.7803 53.2838 47.8921 53.3099C48.0038 53.3359 48.1196 53.3395 48.2328 53.3207L88.7592 46.4975C88.8722 46.4791 88.9805 46.4387 89.0779 46.3784C89.1753 46.3181 89.2598 46.2393 89.3267 46.1463C89.3935 46.0534 89.4414 45.9482 89.4676 45.8367C89.4938 45.7252 89.4977 45.6097 89.4792 45.4967L89.2776 44.2967C89.2405 44.0683 89.1143 43.8639 88.9266 43.7285C88.739 43.5931 88.5053 43.5376 88.2768 43.5743Z" fill="url(#paint3_linear_8373_188599)"/>
<path d="M93.7085 75.6595L93.6221 75.4339C94.1769 75.2234 94.6891 74.9145 95.1341 74.5219L95.2925 74.7019C94.8266 75.114 94.2899 75.4385 93.7085 75.6595Z" fill="url(#paint4_linear_8373_188599)"/>
<path d="M96.5154 73.1177L96.3018 73.0097C96.7053 72.2084 96.8829 71.3123 96.8154 70.4177L96.5514 66.8177L96.7914 66.8009L97.0554 70.4009C97.125 71.3387 96.9383 72.2778 96.5154 73.1177Z" fill="url(#paint5_linear_8373_188599)"/>
<path d="M92.1774 75.1453L45.4926 78.5821L41.1318 78.8965C42.289 78.8111 43.3649 78.2696 44.1228 77.3911C44.8808 76.5125 45.2587 75.3689 45.1734 74.2117L43.7718 55.0789C43.7427 54.7003 43.7888 54.3196 43.9074 53.9589C44.0259 53.5982 44.2146 53.2644 44.4627 52.9769C44.7107 52.6894 45.0132 52.4538 45.3526 52.2836C45.6921 52.1134 46.0618 52.012 46.4406 51.9853L91.7142 48.6565C92.093 48.627 92.4739 48.6729 92.8349 48.7913C93.196 48.9097 93.53 49.0984 93.8178 49.3464C94.1056 49.5945 94.3414 49.8971 94.5117 50.2367C94.6821 50.5763 94.7835 50.9463 94.8102 51.3253L96.219 70.4701C96.3023 71.6258 95.9234 72.7673 95.1656 73.6439C94.4078 74.5205 93.3331 75.0605 92.1774 75.1453Z" fill="url(#paint6_linear_8373_188599)"/>
</g>
<defs>
<linearGradient id="paint0_linear_8373_188599" x1="35.3904" y1="76.3989" x2="111.149" y2="74.0637" gradientUnits="userSpaceOnUse">
<stop stop-color="#005F73"/>
<stop offset="1" stop-color="#6CC24A"/>
</linearGradient>
<linearGradient id="paint1_linear_8373_188599" x1="49.2798" y1="72.1819" x2="115.702" y2="58.285" gradientUnits="userSpaceOnUse">
<stop stop-color="#005F73"/>
<stop offset="1" stop-color="#6CC24A"/>
</linearGradient>
<linearGradient id="paint2_linear_8373_188599" x1="47.3438" y1="47.4123" x2="106.556" y2="40.8693" gradientUnits="userSpaceOnUse">
<stop stop-color="#005F73"/>
<stop offset="1" stop-color="#6CC24A"/>
</linearGradient>
<linearGradient id="paint3_linear_8373_188599" x1="48.265" y1="52.7898" x2="107.418" y2="46.1288" gradientUnits="userSpaceOnUse">
<stop stop-color="#005F73"/>
<stop offset="1" stop-color="#6CC24A"/>
</linearGradient>
<linearGradient id="paint4_linear_8373_188599" x1="93.6711" y1="75.5963" x2="96.0237" y2="75.5068" gradientUnits="userSpaceOnUse">
<stop stop-color="#005F73"/>
<stop offset="1" stop-color="#6CC24A"/>
</linearGradient>
<linearGradient id="paint5_linear_8373_188599" x1="96.3243" y1="72.7668" x2="97.4073" y2="72.7634" gradientUnits="userSpaceOnUse">
<stop stop-color="#005F73"/>
<stop offset="1" stop-color="#6CC24A"/>
</linearGradient>
<linearGradient id="paint6_linear_8373_188599" x1="42.7489" y1="77.216" x2="120.288" y2="73.5578" gradientUnits="userSpaceOnUse">
<stop stop-color="#005F73"/>
<stop offset="1" stop-color="#6CC24A"/>
</linearGradient>
</defs>
</svg>
