<svg width="239" height="200" viewBox="0 0 239 200" fill="none" xmlns="http://www.w3.org/2000/svg">
<path fill-rule="evenodd" clip-rule="evenodd" d="M197.894 65C201.589 65 204.586 68.134 204.586 72C204.586 75.866 201.589 79 197.894 79H159.654C163.349 79 166.346 82.134 166.346 86C166.346 89.866 163.349 93 159.654 93H180.686C184.381 93 187.378 96.134 187.378 100C187.378 103.866 184.381 107 180.686 107H170.959C166.299 107 162.522 110.134 162.522 114C162.522 116.577 164.434 118.911 168.258 121C171.953 121 174.95 124.134 174.95 128C174.95 131.866 171.953 135 168.258 135H88.9096C85.2137 135 82.2176 131.866 82.2176 128C82.2176 124.134 85.2137 121 88.9096 121H51.6256C47.9297 121 44.9336 117.866 44.9336 114C44.9336 110.134 47.9297 107 51.6256 107H89.8656C93.5615 107 96.5576 103.866 96.5576 100C96.5576 96.134 93.5615 93 89.8656 93H65.9656C62.2697 93 59.2736 89.866 59.2736 86C59.2736 82.134 62.2697 79 65.9656 79H104.206C100.51 79 97.5136 75.866 97.5136 72C97.5136 68.134 100.51 65 104.206 65H197.894ZM197.894 93C201.589 93 204.586 96.134 204.586 100C204.586 103.866 201.589 107 197.894 107C194.198 107 191.202 103.866 191.202 100C191.202 96.134 194.198 93 197.894 93Z" fill="#FDFDFD"/>
<path d="M143.829 60.905V55.25C143.829 53.7637 142.65 52.5312 141.229 52.5312C139.809 52.5312 138.63 53.7637 138.63 55.25V60.6875H116.105V55.25C116.105 53.7637 114.926 52.5312 113.505 52.5312C112.085 52.5312 110.906 53.7637 110.906 55.25V60.905C101.549 61.8112 97.0096 67.6475 96.3165 76.3112C96.2472 77.3625 97.079 78.2325 98.0493 78.2325H156.685C157.69 78.2325 158.522 77.3262 158.418 76.3112C157.725 67.6475 153.185 61.8112 143.829 60.905Z" fill="url(#paint0_linear_763_84386)"/>
<path opacity="0.4" d="M155.093 83.67C156.999 83.67 158.559 85.3013 158.559 87.295V109.625C158.559 120.5 153.36 127.75 141.231 127.75H113.507C101.378 127.75 96.1797 120.5 96.1797 109.625V87.295C96.1797 85.3013 97.7392 83.67 99.6452 83.67H155.093Z" fill="url(#paint1_linear_763_84386)"/>
<path d="M115.239 102.375C114.788 102.375 114.338 102.266 113.922 102.085C113.506 101.904 113.125 101.65 112.778 101.324C112.467 100.961 112.224 100.563 112.051 100.128C111.877 99.6925 111.773 99.2212 111.773 98.75C111.773 98.2787 111.877 97.8075 112.051 97.3725C112.224 96.9375 112.467 96.5388 112.778 96.1763C113.125 95.85 113.506 95.5962 113.922 95.4149C114.754 95.0524 115.724 95.0524 116.556 95.4149C116.972 95.5962 117.353 95.85 117.699 96.1763C118.011 96.5388 118.254 96.9375 118.427 97.3725C118.601 97.8075 118.704 98.2787 118.704 98.75C118.704 99.2212 118.601 99.6925 118.427 100.128C118.254 100.563 118.011 100.961 117.699 101.324C117.353 101.65 116.972 101.904 116.556 102.085C116.14 102.266 115.689 102.375 115.239 102.375Z" fill="url(#paint2_linear_763_84386)"/>
<path d="M127.368 102.375C126.917 102.375 126.467 102.266 126.051 102.085C125.635 101.904 125.254 101.65 124.907 101.324C124.284 100.635 123.902 99.6926 123.902 98.7501C123.902 97.8076 124.284 96.8651 124.907 96.1764C125.254 95.8501 125.635 95.5963 126.051 95.415C126.883 95.0163 127.853 95.0163 128.685 95.415C129.101 95.5963 129.482 95.8501 129.828 96.1764C130.452 96.8651 130.833 97.8076 130.833 98.7501C130.833 99.6926 130.452 100.635 129.828 101.324C129.482 101.65 129.101 101.904 128.685 102.085C128.269 102.266 127.818 102.375 127.368 102.375Z" fill="url(#paint3_linear_763_84386)"/>
<path d="M115.239 115.062C114.788 115.062 114.338 114.954 113.922 114.773C113.506 114.591 113.125 114.337 112.778 114.011C112.155 113.322 111.773 112.38 111.773 111.437C111.773 110.495 112.155 109.553 112.778 108.864C113.125 108.538 113.506 108.284 113.922 108.102C114.754 107.74 115.724 107.74 116.556 108.102C116.972 108.284 117.353 108.538 117.699 108.864C118.323 109.553 118.704 110.495 118.704 111.437C118.704 112.38 118.323 113.322 117.699 114.011C117.353 114.337 116.972 114.591 116.556 114.773C116.14 114.954 115.689 115.062 115.239 115.062Z" fill="url(#paint4_linear_763_84386)"/>
<defs>
<linearGradient id="paint0_linear_763_84386" x1="98.1354" y1="76.8046" x2="185.401" y2="71.342" gradientUnits="userSpaceOnUse">
<stop stop-color="#005F73"/>
<stop offset="1" stop-color="#6CC24A"/>
</linearGradient>
<linearGradient id="paint1_linear_763_84386" x1="98.0104" y1="125.301" x2="185.873" y2="122.081" gradientUnits="userSpaceOnUse">
<stop stop-color="#005F73"/>
<stop offset="1" stop-color="#6CC24A"/>
</linearGradient>
<linearGradient id="paint2_linear_763_84386" x1="111.977" y1="101.973" x2="121.746" y2="101.731" gradientUnits="userSpaceOnUse">
<stop stop-color="#005F73"/>
<stop offset="1" stop-color="#6CC24A"/>
</linearGradient>
<linearGradient id="paint3_linear_763_84386" x1="124.106" y1="101.972" x2="133.875" y2="101.73" gradientUnits="userSpaceOnUse">
<stop stop-color="#005F73"/>
<stop offset="1" stop-color="#6CC24A"/>
</linearGradient>
<linearGradient id="paint4_linear_763_84386" x1="111.977" y1="114.661" x2="121.746" y2="114.418" gradientUnits="userSpaceOnUse">
<stop stop-color="#005F73"/>
<stop offset="1" stop-color="#6CC24A"/>
</linearGradient>
</defs>
</svg>
