<svg width="239" height="200" viewBox="0 0 239 200" fill="none" xmlns="http://www.w3.org/2000/svg">
<path fill-rule="evenodd" clip-rule="evenodd" d="M197.892 65C201.588 65 204.584 68.134 204.584 72C204.584 75.866 201.588 79 197.892 79H159.652C163.348 79 166.344 82.134 166.344 86C166.344 89.866 163.348 93 159.652 93H180.684C184.38 93 187.376 96.134 187.376 100C187.376 103.866 184.38 107 180.684 107H170.957C166.297 107 162.52 110.134 162.52 114C162.52 116.577 164.432 118.911 168.256 121C171.952 121 174.948 124.134 174.948 128C174.948 131.866 171.952 135 168.256 135H88.9076C85.2118 135 82.2156 131.866 82.2156 128C82.2156 124.134 85.2118 121 88.9076 121H51.6236C47.9278 121 44.9316 117.866 44.9316 114C44.9316 110.134 47.9278 107 51.6236 107H89.8636C93.5595 107 96.5556 103.866 96.5556 100C96.5556 96.134 93.5595 93 89.8636 93H65.9636C62.2678 93 59.2716 89.866 59.2716 86C59.2716 82.134 62.2678 79 65.9636 79H104.204C100.508 79 97.5116 75.866 97.5116 72C97.5116 68.134 100.508 65 104.204 65H197.892ZM197.892 93C201.588 93 204.584 96.134 204.584 100C204.584 103.866 201.588 107 197.892 107C194.196 107 191.2 103.866 191.2 100C191.2 96.134 194.196 93 197.892 93Z" fill="#F4F4F4"/>
<path d="M129.5 87.5C139.51 87.5 147.625 79.3852 147.625 69.375C147.625 59.3648 139.51 51.25 129.5 51.25C119.49 51.25 111.375 59.3648 111.375 69.375C111.375 79.3852 119.49 87.5 129.5 87.5Z" fill="url(#paint0_linear_12241_424270)"/>
<path opacity="0.4" d="M129.5 96.5625C111.339 96.5625 96.5488 108.743 96.5488 123.75C96.5488 124.765 97.3463 125.562 98.3613 125.562H160.639C161.654 125.562 162.452 124.765 162.452 123.75C162.452 108.743 147.661 96.5625 129.5 96.5625Z" fill="url(#paint1_linear_12241_424270)"/>
<path d="M168.541 118.966L165.786 116.211C167.236 114.036 168.07 111.426 168.07 108.635C168.07 100.986 161.871 94.7871 154.223 94.7871C146.574 94.7871 140.375 100.986 140.375 108.635C140.375 116.283 146.574 122.482 154.223 122.482C157.014 122.482 159.624 121.648 161.799 120.198L164.554 122.953C165.097 123.497 165.822 123.787 166.547 123.787C167.272 123.787 167.998 123.497 168.541 122.953C169.665 121.83 169.665 120.053 168.541 118.966Z" fill="url(#paint2_linear_12241_424270)"/>
<defs>
<linearGradient id="paint0_linear_12241_424270" x1="112.439" y1="85.4861" x2="163.532" y2="84.1627" gradientUnits="userSpaceOnUse">
<stop stop-color="#005F73"/>
<stop offset="1" stop-color="#6CC24A"/>
</linearGradient>
<linearGradient id="paint1_linear_12241_424270" x1="98.4829" y1="123.951" x2="191.112" y2="118.499" gradientUnits="userSpaceOnUse">
<stop stop-color="#005F73"/>
<stop offset="1" stop-color="#6CC24A"/>
</linearGradient>
<linearGradient id="paint2_linear_12241_424270" x1="141.226" y1="122.176" x2="182.114" y2="121.117" gradientUnits="userSpaceOnUse">
<stop stop-color="#005F73"/>
<stop offset="1" stop-color="#6CC24A"/>
</linearGradient>
</defs>
</svg>
