<svg width="135" height="108" viewBox="0 0 135 108" fill="none" xmlns="http://www.w3.org/2000/svg">
<path fill-rule="evenodd" clip-rule="evenodd" d="M111.452 35.0996C113.525 35.0996 115.204 36.792 115.204 38.8796C115.204 40.9672 113.525 42.6596 111.452 42.6596H90.0124C92.0846 42.6596 93.7644 44.352 93.7644 46.4396C93.7644 48.5272 92.0846 50.2196 90.0124 50.2196H101.804C103.877 50.2196 105.556 51.912 105.556 53.9996C105.556 56.0872 103.877 57.7796 101.804 57.7796H96.3512C93.7384 57.7796 91.6204 59.472 91.6204 61.5596C91.6204 62.9514 92.6924 64.2114 94.8364 65.3396C96.9086 65.3396 98.5884 67.032 98.5884 69.1196C98.5884 71.2072 96.9086 72.8996 94.8364 72.8996H50.3484C48.2762 72.8996 46.5964 71.2072 46.5964 69.1196C46.5964 67.032 48.2762 65.3396 50.3484 65.3396H29.4444C27.3722 65.3396 25.6924 63.6472 25.6924 61.5596C25.6924 59.472 27.3722 57.7796 29.4444 57.7796H50.8844C52.9566 57.7796 54.6364 56.0872 54.6364 53.9996C54.6364 51.912 52.9566 50.2196 50.8844 50.2196H37.4844C35.4122 50.2196 33.7324 48.5272 33.7324 46.4396C33.7324 44.352 35.4122 42.6596 37.4844 42.6596H58.9244C56.8522 42.6596 55.1724 40.9672 55.1724 38.8796C55.1724 36.792 56.8522 35.0996 58.9244 35.0996H111.452ZM111.452 50.2196C113.525 50.2196 115.204 51.912 115.204 53.9996C115.204 56.0872 113.525 57.7796 111.452 57.7796C109.38 57.7796 107.7 56.0872 107.7 53.9996C107.7 51.912 109.38 50.2196 111.452 50.2196Z" fill="#F4F4F4"/>
<path opacity="0.4" d="M83.0946 40.1016C82.9225 40.077 82.7504 40.077 82.5783 40.1016C78.7679 39.9787 75.7441 36.8566 75.7441 33.0216C75.7441 29.1128 78.9154 25.917 82.8487 25.917C86.7575 25.917 89.9533 29.0882 89.9533 33.0216C89.9287 36.8566 86.905 39.9787 83.0946 40.1016Z" fill="url(#paint0_linear_6239_102153)"/>
<path opacity="0.4" d="M91.109 57.1375C88.3557 58.9812 84.4961 59.6696 80.9315 59.2025C81.8657 57.1866 82.3574 54.9496 82.3819 52.5896C82.3819 50.1313 81.8411 47.7959 80.8086 45.7554C84.4469 45.2638 88.3065 45.9521 91.0844 47.7958C94.9686 50.3525 94.9686 54.5562 91.109 57.1375Z" fill="url(#paint1_linear_6239_102153)"/>
<path opacity="0.4" d="M55.8314 40.1016C56.0035 40.077 56.1756 40.077 56.3477 40.1016C60.1581 39.9787 63.1818 36.8566 63.1818 33.0216C63.1818 29.1128 60.0106 25.917 56.0772 25.917C52.1685 25.917 48.9727 29.0882 48.9727 33.0216C48.9972 36.8566 52.021 39.9787 55.8314 40.1016Z" fill="url(#paint2_linear_6239_102153)"/>
<path opacity="0.4" d="M56.102 52.5901C56.102 54.9747 56.6183 57.2363 57.5524 59.2767C54.0862 59.6455 50.4724 58.908 47.8174 57.1626C43.9333 54.5813 43.9333 50.3775 47.8174 47.7963C50.4478 46.0263 54.1599 45.3134 57.6508 45.7067C56.6428 47.7717 56.102 50.1072 56.102 52.5901Z" fill="url(#paint3_linear_6239_102153)"/>
<path d="M69.7948 60.0137C69.5981 59.9892 69.3769 59.9892 69.1556 60.0137C64.6323 59.8662 61.0186 56.1542 61.0186 51.5817C61.0186 46.9108 64.7798 43.125 69.4752 43.125C74.1461 43.125 77.9319 46.9108 77.9319 51.5817C77.9319 56.1542 74.3427 59.8662 69.7948 60.0137Z" fill="url(#paint4_linear_6239_102153)"/>
<path d="M61.8055 65.1027C58.0935 67.5857 58.0935 71.6665 61.8055 74.1248C66.0339 76.9519 72.9664 76.9519 77.1947 74.1248C80.9068 71.6419 80.9068 67.5611 77.1947 65.1027C72.991 62.2757 66.0585 62.2757 61.8055 65.1027Z" fill="url(#paint5_linear_6239_102153)"/>
<defs>
<linearGradient id="paint0_linear_6239_102153" x1="76.1611" y1="39.3136" x2="96.1885" y2="38.7939" gradientUnits="userSpaceOnUse">
<stop stop-color="#005F73"/>
<stop offset="1" stop-color="#6CC24A"/>
</linearGradient>
<linearGradient id="paint1_linear_6239_102153" x1="81.1958" y1="58.5806" x2="99.7906" y2="58.1183" gradientUnits="userSpaceOnUse">
<stop stop-color="#005F73"/>
<stop offset="1" stop-color="#6CC24A"/>
</linearGradient>
<linearGradient id="paint2_linear_6239_102153" x1="49.3897" y1="39.3136" x2="69.417" y2="38.7939" gradientUnits="userSpaceOnUse">
<stop stop-color="#005F73"/>
<stop offset="1" stop-color="#6CC24A"/>
</linearGradient>
<linearGradient id="paint3_linear_6239_102153" x1="45.2784" y1="58.6045" x2="63.2459" y2="58.1737" gradientUnits="userSpaceOnUse">
<stop stop-color="#005F73"/>
<stop offset="1" stop-color="#6CC24A"/>
</linearGradient>
<linearGradient id="paint4_linear_6239_102153" x1="61.5149" y1="59.0755" x2="85.3538" y2="58.4571" gradientUnits="userSpaceOnUse">
<stop stop-color="#005F73"/>
<stop offset="1" stop-color="#6CC24A"/>
</linearGradient>
<linearGradient id="paint5_linear_6239_102153" x1="59.6365" y1="75.5083" x2="89.1457" y2="74.3006" gradientUnits="userSpaceOnUse">
<stop stop-color="#005F73"/>
<stop offset="1" stop-color="#6CC24A"/>
</linearGradient>
</defs>
</svg>
