<svg width="134" height="108" viewBox="0 0 134 108" fill="none" xmlns="http://www.w3.org/2000/svg">
<path fill-rule="evenodd" clip-rule="evenodd" d="M110.952 35.1001C113.025 35.1001 114.704 36.7925 114.704 38.8801C114.704 40.9677 113.025 42.6601 110.952 42.6601H89.5124C91.5846 42.6601 93.2644 44.3525 93.2644 46.4401C93.2644 48.5277 91.5846 50.2201 89.5124 50.2201H101.304C103.377 50.2201 105.056 51.9125 105.056 54.0001C105.056 56.0877 103.377 57.7801 101.304 57.7801H95.8512C93.2384 57.7801 91.1204 59.4725 91.1204 61.5601C91.1204 62.9519 92.1924 64.2119 94.3364 65.3401C96.4086 65.3401 98.0884 67.0325 98.0884 69.1201C98.0884 71.2077 96.4086 72.9001 94.3364 72.9001H49.8484C47.7762 72.9001 46.0964 71.2077 46.0964 69.1201C46.0964 67.0325 47.7762 65.3401 49.8484 65.3401H28.9444C26.8722 65.3401 25.1924 63.6477 25.1924 61.5601C25.1924 59.4725 26.8722 57.7801 28.9444 57.7801H50.3844C52.4566 57.7801 54.1364 56.0877 54.1364 54.0001C54.1364 51.9125 52.4566 50.2201 50.3844 50.2201H36.9844C34.9122 50.2201 33.2324 48.5277 33.2324 46.4401C33.2324 44.3525 34.9122 42.6601 36.9844 42.6601H58.4244C56.3522 42.6601 54.6724 40.9677 54.6724 38.8801C54.6724 36.7925 56.3522 35.1001 58.4244 35.1001H110.952ZM110.952 50.2201C113.025 50.2201 114.704 51.9125 114.704 54.0001C114.704 56.0877 113.025 57.7801 110.952 57.7801C108.88 57.7801 107.2 56.0877 107.2 54.0001C107.2 51.9125 108.88 50.2201 110.952 50.2201Z" fill="#F4F4F4"/>
<path d="M86.708 39.6665C90.7811 39.6665 94.083 36.3646 94.083 32.2915C94.083 28.2184 90.7811 24.9165 86.708 24.9165C82.6349 24.9165 79.333 28.2184 79.333 32.2915C79.333 36.3646 82.6349 39.6665 86.708 39.6665Z" fill="url(#paint0_linear_10441_215432)"/>
<path opacity="0.4" d="M86.7087 43.3542C80.612 43.3542 75.6462 38.3883 75.6462 32.2917C75.6462 30.5217 76.1132 28.8746 76.8507 27.375H58.487C50.0057 27.375 44.917 32.4392 44.917 40.945V60.4887C44.917 69.0192 50.0057 74.0833 58.487 74.0833H78.0307C86.5366 74.0833 91.6007 69.0192 91.6007 60.5133V42.1496C90.1257 42.8871 88.4787 43.3542 86.7087 43.3542Z" fill="url(#paint1_linear_10441_215432)"/>
<path d="M68.8854 54.4165H56.5938C55.5858 54.4165 54.75 53.5807 54.75 52.5728C54.75 51.5648 55.5858 50.729 56.5938 50.729H68.8854C69.8933 50.729 70.7292 51.5648 70.7292 52.5728C70.7292 53.5807 69.8933 54.4165 68.8854 54.4165Z" fill="url(#paint2_linear_10441_215432)"/>
<path d="M78.7188 64.25H56.5938C55.5858 64.25 54.75 63.4142 54.75 62.4062C54.75 61.3983 55.5858 60.5625 56.5938 60.5625H78.7188C79.7267 60.5625 80.5625 61.3983 80.5625 62.4062C80.5625 63.4142 79.7267 64.25 78.7188 64.25Z" fill="url(#paint3_linear_10441_215432)"/>
<defs>
<linearGradient id="paint0_linear_10441_215432" x1="79.7659" y1="38.8471" x2="100.556" y2="38.3086" gradientUnits="userSpaceOnUse">
<stop stop-color="#005F73"/>
<stop offset="1" stop-color="#6CC24A"/>
</linearGradient>
<linearGradient id="paint1_linear_10441_215432" x1="46.2871" y1="71.4884" x2="112.087" y2="69.785" gradientUnits="userSpaceOnUse">
<stop stop-color="#005F73"/>
<stop offset="1" stop-color="#6CC24A"/>
</linearGradient>
<linearGradient id="paint2_linear_10441_215432" x1="55.219" y1="54.2116" x2="77.4759" y2="51.7136" gradientUnits="userSpaceOnUse">
<stop stop-color="#005F73"/>
<stop offset="1" stop-color="#6CC24A"/>
</linearGradient>
<linearGradient id="paint3_linear_10441_215432" x1="55.5075" y1="64.0451" x2="90.7553" y2="57.6545" gradientUnits="userSpaceOnUse">
<stop stop-color="#005F73"/>
<stop offset="1" stop-color="#6CC24A"/>
</linearGradient>
</defs>
</svg>
