<svg width="135" height="108" viewBox="0 0 135 108" fill="none" xmlns="http://www.w3.org/2000/svg">
<path fill-rule="evenodd" clip-rule="evenodd" d="M111.452 35.0996C113.525 35.0996 115.204 36.792 115.204 38.8796C115.204 40.9672 113.525 42.6596 111.452 42.6596H90.0124C92.0846 42.6596 93.7644 44.352 93.7644 46.4396C93.7644 48.5272 92.0846 50.2196 90.0124 50.2196H101.804C103.877 50.2196 105.556 51.912 105.556 53.9996C105.556 56.0872 103.877 57.7796 101.804 57.7796H96.3512C93.7384 57.7796 91.6204 59.472 91.6204 61.5596C91.6204 62.9514 92.6924 64.2114 94.8364 65.3396C96.9086 65.3396 98.5884 67.032 98.5884 69.1196C98.5884 71.2072 96.9086 72.8996 94.8364 72.8996H50.3484C48.2762 72.8996 46.5964 71.2072 46.5964 69.1196C46.5964 67.032 48.2762 65.3396 50.3484 65.3396H29.4444C27.3722 65.3396 25.6924 63.6472 25.6924 61.5596C25.6924 59.472 27.3722 57.7796 29.4444 57.7796H50.8844C52.9566 57.7796 54.6364 56.0872 54.6364 53.9996C54.6364 51.912 52.9566 50.2196 50.8844 50.2196H37.4844C35.4122 50.2196 33.7324 48.5272 33.7324 46.4396C33.7324 44.352 35.4122 42.6596 37.4844 42.6596H58.9244C56.8522 42.6596 55.1724 40.9672 55.1724 38.8796C55.1724 36.792 56.8522 35.0996 58.9244 35.0996H111.452ZM111.452 50.2196C113.525 50.2196 115.204 51.912 115.204 53.9996C115.204 56.0872 113.525 57.7796 111.452 57.7796C109.38 57.7796 107.7 56.0872 107.7 53.9996C107.7 51.912 109.38 50.2196 111.452 50.2196Z" fill="#F4F4F4"/>
<path opacity="0.4" d="M62.1253 25.917C55.6845 25.917 50.4482 31.1532 50.4482 37.5941C50.4482 43.912 55.3895 49.0253 61.8303 49.2466C62.027 49.222 62.2237 49.222 62.3712 49.2466C62.4203 49.2466 62.4449 49.2466 62.4941 49.2466C62.5187 49.2466 62.5187 49.2466 62.5432 49.2466C68.8366 49.0253 73.7778 43.912 73.8024 37.5941C73.8024 31.1532 68.5662 25.917 62.1253 25.917Z" fill="url(#paint0_linear_6239_102140)"/>
<path d="M74.6134 55.7858C67.7546 51.2133 56.5692 51.2133 49.6613 55.7858C46.5392 57.8754 44.8184 60.7025 44.8184 63.7262C44.8184 66.75 46.5392 69.5525 49.6367 71.6175C53.0784 73.9283 57.6017 75.0837 62.125 75.0837C66.6484 75.0837 71.1717 73.9283 74.6134 71.6175C77.7109 69.5279 79.4317 66.7254 79.4317 63.6771C79.4071 60.6533 77.7109 57.8508 74.6134 55.7858Z" fill="url(#paint1_linear_6239_102140)"/>
<path opacity="0.4" d="M89.1425 39.0445C89.5358 43.8137 86.1433 47.9928 81.4479 48.5582C81.4233 48.5582 81.4233 48.5582 81.3987 48.5582H81.325C81.1775 48.5582 81.03 48.5582 80.9071 48.6074C78.5225 48.7303 76.3346 47.9682 74.6875 46.567C77.2196 44.3053 78.67 40.9128 78.375 37.2253C78.2029 35.2341 77.5146 33.4149 76.4821 31.8662C77.4163 31.3991 78.4979 31.1041 79.6042 31.0057C84.4225 30.5878 88.7246 34.177 89.1425 39.0445Z" fill="url(#paint2_linear_6239_102140)"/>
<path d="M94.0583 61.7841C93.8616 64.1687 92.3374 66.2337 89.7808 67.6349C87.3224 68.987 84.2249 69.6262 81.152 69.5524C82.922 67.9545 83.9545 65.9632 84.1512 63.8491C84.397 60.8007 82.9466 57.8753 80.0458 55.5399C78.3987 54.237 76.4812 53.2045 74.3916 52.4424C79.8245 50.8691 86.6587 51.9262 90.8624 55.3187C93.1241 57.1378 94.2795 59.4241 94.0583 61.7841Z" fill="url(#paint3_linear_6239_102140)"/>
<defs>
<linearGradient id="paint0_linear_6239_102140" x1="51.1336" y1="47.9505" x2="84.0507" y2="47.097" gradientUnits="userSpaceOnUse">
<stop stop-color="#005F73"/>
<stop offset="1" stop-color="#6CC24A"/>
</linearGradient>
<linearGradient id="paint1_linear_6239_102140" x1="45.8342" y1="73.8211" x2="94.5776" y2="71.8983" gradientUnits="userSpaceOnUse">
<stop stop-color="#005F73"/>
<stop offset="1" stop-color="#6CC24A"/>
</linearGradient>
<linearGradient id="paint2_linear_6239_102140" x1="75.1126" y1="47.6399" x2="95.5347" y2="47.2057" gradientUnits="userSpaceOnUse">
<stop stop-color="#005F73"/>
<stop offset="1" stop-color="#6CC24A"/>
</linearGradient>
<linearGradient id="paint3_linear_6239_102140" x1="74.9696" y1="68.5676" x2="102.723" y2="67.7736" gradientUnits="userSpaceOnUse">
<stop stop-color="#005F73"/>
<stop offset="1" stop-color="#6CC24A"/>
</linearGradient>
</defs>
</svg>
