<svg width="134" height="108" viewBox="0 0 134 108" fill="none" xmlns="http://www.w3.org/2000/svg">
<path fill-rule="evenodd" clip-rule="evenodd" d="M110.952 35.0996C113.025 35.0996 114.704 36.792 114.704 38.8796C114.704 40.9672 113.025 42.6596 110.952 42.6596H89.5124C91.5846 42.6596 93.2644 44.352 93.2644 46.4396C93.2644 48.5272 91.5846 50.2196 89.5124 50.2196H101.304C103.377 50.2196 105.056 51.912 105.056 53.9996C105.056 56.0872 103.377 57.7796 101.304 57.7796H95.8512C93.2384 57.7796 91.1204 59.472 91.1204 61.5596C91.1204 62.9514 92.1924 64.2114 94.3364 65.3396C96.4086 65.3396 98.0884 67.032 98.0884 69.1196C98.0884 71.2072 96.4086 72.8996 94.3364 72.8996H49.8484C47.7762 72.8996 46.0964 71.2072 46.0964 69.1196C46.0964 67.032 47.7762 65.3396 49.8484 65.3396H28.9444C26.8722 65.3396 25.1924 63.6472 25.1924 61.5596C25.1924 59.472 26.8722 57.7796 28.9444 57.7796H50.3844C52.4566 57.7796 54.1364 56.0872 54.1364 53.9996C54.1364 51.912 52.4566 50.2196 50.3844 50.2196H36.9844C34.9122 50.2196 33.2324 48.5272 33.2324 46.4396C33.2324 44.352 34.9122 42.6596 36.9844 42.6596H58.4244C56.3522 42.6596 54.6724 40.9672 54.6724 38.8796C54.6724 36.792 56.3522 35.0996 58.4244 35.0996H110.952ZM110.952 50.2196C113.025 50.2196 114.704 51.912 114.704 53.9996C114.704 56.0872 113.025 57.7796 110.952 57.7796C108.88 57.7796 107.2 56.0872 107.2 53.9996C107.2 51.912 108.88 50.2196 110.952 50.2196Z" fill="#F4F4F4"/>
<path opacity="0.4" d="M81.3605 21H56.6395C45.9015 21 39.5 27.4015 39.5 38.1395V62.8605C39.5 73.5985 45.9015 80 56.6395 80H81.3605C92.0985 80 98.5 73.5985 98.5 62.8605V38.1395C98.5 27.4015 92.0985 21 81.3605 21Z" fill="url(#paint0_linear_6239_102128)"/>
<path d="M87.6146 41.2662C87.6146 42.4757 86.6411 43.4787 85.4021 43.4787H69.9146C68.7051 43.4787 67.7021 42.4757 67.7021 41.2662C67.7021 40.0567 68.7051 39.0537 69.9146 39.0537H85.4021C86.6411 39.0537 87.6146 40.0567 87.6146 41.2662Z" fill="url(#paint1_linear_6239_102128)"/>
<path d="M63.0118 38.4053L56.3743 45.0428C55.9318 45.4853 55.3713 45.6918 54.8108 45.6918C54.2503 45.6918 53.6603 45.4853 53.2473 45.0428L51.0348 42.8303C50.1498 41.9748 50.1498 40.5588 51.0348 39.7033C51.8903 38.8478 53.2768 38.8478 54.1618 39.7033L54.8108 40.3523L59.8848 35.2783C60.7403 34.4228 62.1268 34.4228 63.0118 35.2783C63.8673 36.1338 63.8673 37.5498 63.0118 38.4053Z" fill="url(#paint2_linear_6239_102128)"/>
<path d="M87.6146 61.9166C87.6146 63.1261 86.6411 64.1291 85.4021 64.1291H69.9146C68.7051 64.1291 67.7021 63.1261 67.7021 61.9166C67.7021 60.7071 68.7051 59.7041 69.9146 59.7041H85.4021C86.6411 59.7041 87.6146 60.7071 87.6146 61.9166Z" fill="url(#paint3_linear_6239_102128)"/>
<path d="M63.0118 59.0548L56.3743 65.6923C55.9318 66.1348 55.3713 66.3413 54.8108 66.3413C54.2503 66.3413 53.6603 66.1348 53.2473 65.6923L51.0348 63.4798C50.1498 62.6243 50.1498 61.2083 51.0348 60.3528C51.8903 59.4973 53.2768 59.4973 54.1618 60.3528L54.8108 61.0018L59.8848 55.9278C60.7403 55.0723 62.1268 55.0723 63.0118 55.9278C63.8673 56.7833 63.8673 58.1993 63.0118 59.0548Z" fill="url(#paint4_linear_6239_102128)"/>
<defs>
<linearGradient id="paint0_linear_6239_102128" x1="41.2315" y1="76.7222" x2="124.39" y2="74.5683" gradientUnits="userSpaceOnUse">
<stop stop-color="#005F73"/>
<stop offset="1" stop-color="#6CC24A"/>
</linearGradient>
<linearGradient id="paint1_linear_6239_102128" x1="68.2865" y1="43.2329" x2="95.9951" y2="40.0033" gradientUnits="userSpaceOnUse">
<stop stop-color="#005F73"/>
<stop offset="1" stop-color="#6CC24A"/>
</linearGradient>
<linearGradient id="paint2_linear_6239_102128" x1="50.7609" y1="45.0777" x2="69.4765" y2="44.4953" gradientUnits="userSpaceOnUse">
<stop stop-color="#005F73"/>
<stop offset="1" stop-color="#6CC24A"/>
</linearGradient>
<linearGradient id="paint3_linear_6239_102128" x1="68.2865" y1="63.8833" x2="95.9951" y2="60.6537" gradientUnits="userSpaceOnUse">
<stop stop-color="#005F73"/>
<stop offset="1" stop-color="#6CC24A"/>
</linearGradient>
<linearGradient id="paint4_linear_6239_102128" x1="50.7609" y1="65.7271" x2="69.4765" y2="65.1447" gradientUnits="userSpaceOnUse">
<stop stop-color="#005F73"/>
<stop offset="1" stop-color="#6CC24A"/>
</linearGradient>
</defs>
</svg>
