<svg width="16" height="16" viewBox="0 0 16 16" fill="none" xmlns="http://www.w3.org/2000/svg">
<path d="M10.667 15.1654H5.33366C3.32033 15.1654 2.16699 14.012 2.16699 11.9987V5.4987C2.16699 3.3987 3.23366 2.33203 5.33366 2.33203C5.60699 2.33203 5.83366 2.5587 5.83366 2.83203C5.83366 3.0987 5.94033 3.35203 6.12699 3.5387C6.31366 3.72536 6.56699 3.83203 6.83366 3.83203H9.16699C9.72032 3.83203 10.167 3.38536 10.167 2.83203C10.167 2.5587 10.3937 2.33203 10.667 2.33203C12.767 2.33203 13.8337 3.3987 13.8337 5.4987V11.9987C13.8337 14.012 12.6803 15.1654 10.667 15.1654ZM4.90031 3.34537C3.84698 3.43203 3.16699 3.90536 3.16699 5.4987V11.9987C3.16699 13.4787 3.85366 14.1654 5.33366 14.1654H10.667C12.147 14.1654 12.8337 13.4787 12.8337 11.9987V5.4987C12.8337 3.90536 12.1537 3.4387 11.1003 3.34537C10.8737 4.1987 10.0937 4.83203 9.16699 4.83203H6.83366C6.30033 4.83203 5.80033 4.62536 5.42033 4.24536C5.167 3.99203 4.99364 3.68537 4.90031 3.34537Z" fill="#005F73"/>
<path d="M9.16634 4.83203H6.83301C6.29967 4.83203 5.79968 4.62536 5.41968 4.24536C5.03968 3.86536 4.83301 3.36536 4.83301 2.83203C4.83301 1.73203 5.73301 0.832031 6.83301 0.832031H9.16634C9.69967 0.832031 10.1997 1.0387 10.5797 1.4187C10.9597 1.7987 11.1663 2.2987 11.1663 2.83203C11.1663 3.93203 10.2663 4.83203 9.16634 4.83203ZM6.83301 1.83203C6.27967 1.83203 5.83301 2.2787 5.83301 2.83203C5.83301 3.0987 5.93968 3.35203 6.12634 3.5387C6.31301 3.72536 6.56634 3.83203 6.83301 3.83203H9.16634C9.71967 3.83203 10.1663 3.38536 10.1663 2.83203C10.1663 2.56536 10.0597 2.31203 9.87301 2.12537C9.68634 1.9387 9.43301 1.83203 9.16634 1.83203H6.83301Z" fill="#005F73"/>
<path d="M7.99967 9.16797H5.33301C5.05967 9.16797 4.83301 8.9413 4.83301 8.66797C4.83301 8.39464 5.05967 8.16797 5.33301 8.16797H7.99967C8.27301 8.16797 8.49967 8.39464 8.49967 8.66797C8.49967 8.9413 8.27301 9.16797 7.99967 9.16797Z" fill="#005F73"/>
<path d="M10.6663 11.832H5.33301C5.05967 11.832 4.83301 11.6054 4.83301 11.332C4.83301 11.0587 5.05967 10.832 5.33301 10.832H10.6663C10.9397 10.832 11.1663 11.0587 11.1663 11.332C11.1663 11.6054 10.9397 11.832 10.6663 11.832Z" fill="#005F73"/>
</svg>
