<svg width="13" height="12" viewBox="0 0 13 12" fill="none" xmlns="http://www.w3.org/2000/svg">
<path d="M4.5 2.875C4.295 2.875 4.125 2.705 4.125 2.5V1C4.125 0.795 4.295 0.625 4.5 0.625C4.705 0.625 4.875 0.795 4.875 1V2.5C4.875 2.705 4.705 2.875 4.5 2.875Z" fill="#888888"/>
<path d="M8.5 2.875C8.295 2.875 8.125 2.705 8.125 2.5V1C8.125 0.795 8.295 0.625 8.5 0.625C8.705 0.625 8.875 0.795 8.875 1V2.5C8.875 2.705 8.705 2.875 8.5 2.875Z" fill="#888888"/>
<path d="M8 6.875H4C3.795 6.875 3.625 6.705 3.625 6.5C3.625 6.295 3.795 6.125 4 6.125H8C8.205 6.125 8.375 6.295 8.375 6.5C8.375 6.705 8.205 6.875 8 6.875Z" fill="#888888"/>
<path d="M6.5 8.875H4C3.795 8.875 3.625 8.705 3.625 8.5C3.625 8.295 3.795 8.125 4 8.125H6.5C6.705 8.125 6.875 8.295 6.875 8.5C6.875 8.705 6.705 8.875 6.5 8.875Z" fill="#888888"/>
<path d="M8 11.375H5C2.19 11.375 1.625 10.05 1.625 7.91V4.825C1.625 2.455 2.425 1.49 4.48 1.375H8.5C8.505 1.375 8.515 1.375 8.52 1.375C10.575 1.49 11.375 2.455 11.375 4.825V7.91C11.375 10.05 10.81 11.375 8 11.375ZM4.5 2.125C3.1 2.205 2.375 2.645 2.375 4.825V7.91C2.375 9.825 2.74 10.625 5 10.625H8C10.26 10.625 10.625 9.825 10.625 7.91V4.825C10.625 2.65 9.905 2.205 8.49 2.125H4.5Z" fill="#888888"/>
</svg>
