<svg width="16" height="16" viewBox="0 0 16 16" fill="none" xmlns="http://www.w3.org/2000/svg">
<path d="M5.33301 3.83398C5.05967 3.83398 4.83301 3.60732 4.83301 3.33398V1.33398C4.83301 1.06065 5.05967 0.833984 5.33301 0.833984C5.60634 0.833984 5.83301 1.06065 5.83301 1.33398V3.33398C5.83301 3.60732 5.60634 3.83398 5.33301 3.83398Z" fill="#005F73"/>
<path d="M10.667 3.83398C10.3937 3.83398 10.167 3.60732 10.167 3.33398V1.33398C10.167 1.06065 10.3937 0.833984 10.667 0.833984C10.9403 0.833984 11.167 1.06065 11.167 1.33398V3.33398C11.167 3.60732 10.9403 3.83398 10.667 3.83398Z" fill="#005F73"/>
<path d="M10.6667 15.1673H5.33333C2.9 15.1673 1.5 13.7673 1.5 11.334V5.66732C1.5 3.23398 2.9 1.83398 5.33333 1.83398H10.6667C13.1 1.83398 14.5 3.23398 14.5 5.66732V11.334C14.5 13.7673 13.1 15.1673 10.6667 15.1673ZM5.33333 2.83398C3.42667 2.83398 2.5 3.76065 2.5 5.66732V11.334C2.5 13.2407 3.42667 14.1673 5.33333 14.1673H10.6667C12.5733 14.1673 13.5 13.2407 13.5 11.334V5.66732C13.5 3.76065 12.5733 2.83398 10.6667 2.83398H5.33333Z" fill="#005F73"/>
<path d="M10.6663 7.83398H5.33301C5.05967 7.83398 4.83301 7.60732 4.83301 7.33398C4.83301 7.06065 5.05967 6.83398 5.33301 6.83398H10.6663C10.9397 6.83398 11.1663 7.06065 11.1663 7.33398C11.1663 7.60732 10.9397 7.83398 10.6663 7.83398Z" fill="#005F73"/>
<path d="M7.99967 11.166H5.33301C5.05967 11.166 4.83301 10.9393 4.83301 10.666C4.83301 10.3927 5.05967 10.166 5.33301 10.166H7.99967C8.27301 10.166 8.49967 10.3927 8.49967 10.666C8.49967 10.9393 8.27301 11.166 7.99967 11.166Z" fill="#005F73"/>
</svg>
