<svg width="16" height="16" viewBox="0 0 16 16" fill="none" xmlns="http://www.w3.org/2000/svg">
<path d="M6.37305 12.5003C6.09971 12.5003 5.87305 12.2737 5.87305 12.0003V8.66699C5.87305 8.39366 6.09971 8.16699 6.37305 8.16699C6.64638 8.16699 6.87305 8.39366 6.87305 8.66699V12.0003C6.87305 12.2737 6.64638 12.5003 6.37305 12.5003Z" fill="white"/>
<path d="M8.00033 10.833H4.66699C4.39366 10.833 4.16699 10.6063 4.16699 10.333C4.16699 10.0597 4.39366 9.83301 4.66699 9.83301H8.00033C8.27366 9.83301 8.50033 10.0597 8.50033 10.333C8.50033 10.6063 8.27366 10.833 8.00033 10.833Z" fill="white"/>
<path d="M5.33301 3.83301C5.05967 3.83301 4.83301 3.60634 4.83301 3.33301V1.33301C4.83301 1.05967 5.05967 0.833008 5.33301 0.833008C5.60634 0.833008 5.83301 1.05967 5.83301 1.33301V3.33301C5.83301 3.60634 5.60634 3.83301 5.33301 3.83301Z" fill="white"/>
<path d="M10.667 3.83301C10.3937 3.83301 10.167 3.60634 10.167 3.33301V1.33301C10.167 1.05967 10.3937 0.833008 10.667 0.833008C10.9403 0.833008 11.167 1.05967 11.167 1.33301V3.33301C11.167 3.60634 10.9403 3.83301 10.667 3.83301Z" fill="white"/>
<path d="M5.90001 15.2071C4.25334 15.2071 3.16668 14.8471 2.48668 14.0738C1.70001 13.1871 1.57334 11.8604 1.54668 10.6804L1.46001 6.56711C1.39334 3.41378 2.44001 2.10044 5.17334 1.89378L10.5333 1.78711C10.5467 1.78711 10.5533 1.78711 10.56 1.78711C13.3 1.88044 14.3933 3.14711 14.46 6.30711L14.54 10.4204C14.5667 11.6004 14.4867 12.9338 13.74 13.8471C13.06 14.6804 11.9133 15.0871 10.1333 15.1271L6.13334 15.2071C6.05334 15.2071 5.97334 15.2071 5.90001 15.2071ZM10.5333 2.78044L5.22001 2.88711C3.35334 3.03378 2.40001 3.63378 2.46001 6.54711L2.54668 10.6604C2.57334 12.0738 2.78001 12.9004 3.23334 13.4138C3.74001 13.9871 4.65334 14.2404 6.12001 14.2071L10.12 14.1271C11.58 14.1004 12.4867 13.8071 12.9733 13.2138C13.4067 12.6871 13.58 11.8538 13.5467 10.4404L13.4667 6.32711C13.4 3.42044 12.4267 2.84711 10.5333 2.78044Z" fill="white"/>
</svg>
