<svg width="20" height="20" viewBox="0 0 20 20" fill="none" xmlns="http://www.w3.org/2000/svg">
<path d="M10.0151 16.8247C8.15111 16.8247 6.28711 16.5287 4.51911 15.9367C3.84711 15.7047 3.33511 15.2327 3.11111 14.6167C2.87911 14.0007 2.95911 13.3207 3.32711 12.7127L4.24711 11.1847C4.43911 10.8647 4.61511 10.2247 4.61511 9.84872V7.53672C4.61511 4.56072 7.03911 2.13672 10.0151 2.13672C12.9911 2.13672 15.4151 4.56072 15.4151 7.53672V9.84872C15.4151 10.2167 15.5911 10.8647 15.7831 11.1927L16.6951 12.7127C17.0391 13.2887 17.1031 13.9847 16.8711 14.6167C16.6391 15.2487 16.1351 15.7287 15.5031 15.9367C13.7431 16.5287 11.8791 16.8247 10.0151 16.8247ZM10.0151 3.33672C7.70311 3.33672 5.81511 5.21672 5.81511 7.53672V9.84872C5.81511 10.4327 5.57511 11.2967 5.27911 11.8007L4.35911 13.3287C4.18311 13.6247 4.13511 13.9367 4.23911 14.2007C4.33511 14.4727 4.57511 14.6807 4.90311 14.7927C8.24711 15.9127 11.7911 15.9127 15.1351 14.7927C15.4231 14.6967 15.6471 14.4807 15.7511 14.1927C15.8551 13.9047 15.8311 13.5927 15.6711 13.3287L14.7511 11.8007C14.4471 11.2807 14.2151 10.4247 14.2151 9.84072V7.53672C14.2151 5.21672 12.3351 3.33672 10.0151 3.33672Z" fill="#005F73"/>
<path d="M11.5014 3.55273C11.4454 3.55273 11.3894 3.54473 11.3334 3.52873C11.1014 3.46473 10.8774 3.41673 10.6614 3.38473C9.98136 3.29673 9.32536 3.34473 8.70936 3.52873C8.48536 3.60073 8.24536 3.52873 8.09336 3.36073C7.94136 3.19273 7.89336 2.95273 7.98136 2.73673C8.30936 1.89673 9.10936 1.34473 10.0214 1.34473C10.9334 1.34473 11.7334 1.88873 12.0614 2.73673C12.1414 2.95273 12.1014 3.19273 11.9494 3.36073C11.8294 3.48873 11.6614 3.55273 11.5014 3.55273Z" fill="#005F73"/>
<path d="M10.0156 18.6484C9.22363 18.6484 8.45562 18.3284 7.89562 17.7684C7.33562 17.2084 7.01562 16.4404 7.01562 15.6484H8.21563C8.21563 16.1204 8.40762 16.5844 8.74363 16.9204C9.07963 17.2564 9.54363 17.4484 10.0156 17.4484C11.0076 17.4484 11.8156 16.6404 11.8156 15.6484H13.0156C13.0156 17.3044 11.6716 18.6484 10.0156 18.6484Z" fill="#005F73"/>
</svg>
