<svg width="13" height="13" viewBox="0 0 13 13" fill="none" xmlns="http://www.w3.org/2000/svg">
<path d="M9.85036 7.47643L9.36123 6.66447C9.25851 6.48349 9.16558 6.1411 9.16558 5.94056V4.70306C9.16558 3.5536 8.49058 2.56067 7.51721 2.09599C7.26286 1.64599 6.79329 1.36719 6.25525 1.36719C5.7221 1.36719 5.24275 1.65577 4.9884 2.11067C4.0346 2.58512 3.37427 3.56827 3.37427 4.70306V5.94056C3.37427 6.1411 3.28134 6.48349 3.17862 6.65958L2.6846 7.47643C2.48895 7.80414 2.44492 8.1661 2.56721 8.49871C2.6846 8.82643 2.9634 9.08077 3.32536 9.20306C4.27427 9.52588 5.2721 9.6824 6.26992 9.6824C7.26775 9.6824 8.26558 9.52588 9.21449 9.20795C9.55688 9.09545 9.82101 8.83621 9.94818 8.49871C10.0754 8.16121 10.0411 7.78947 9.85036 7.47643Z" fill="#267E95"/>
<path d="M7.64445 10.1768C7.43901 10.7442 6.89608 11.1501 6.26021 11.1501C5.87379 11.1501 5.49227 10.9936 5.22325 10.7148C5.06673 10.5681 4.94934 10.3724 4.88086 10.1719C4.94445 10.1817 5.00803 10.1865 5.07651 10.1963C5.18901 10.211 5.3064 10.2257 5.42379 10.2355C5.7026 10.2599 5.98629 10.2746 6.26999 10.2746C6.54879 10.2746 6.8276 10.2599 7.10151 10.2355C7.20423 10.2257 7.30695 10.2208 7.40477 10.2061C7.48303 10.1963 7.56129 10.1865 7.64445 10.1768Z" fill="#267E95"/>
<circle cx="8.95037" cy="3.0822" r="1.58967" fill="#F4A261" stroke="white" stroke-width="0.733696"/>
</svg>
