<svg width="16" height="16" viewBox="0 0 16 16" fill="none" xmlns="http://www.w3.org/2000/svg">
<path d="M9.33333 15.1673L6.66667 15.1673C3.04667 15.1673 1.5 13.6207 1.5 10.0007L1.5 6.00065C1.5 2.38065 3.04667 0.833985 6.66667 0.833985L9.33333 0.833985C12.9533 0.833985 14.5 2.38065 14.5 6.00065L14.5 10.0007C14.5 13.6207 12.9533 15.1673 9.33333 15.1673ZM6.66667 1.83398C3.59333 1.83398 2.5 2.92732 2.5 6.00065L2.5 10.0007C2.5 13.074 3.59333 14.1673 6.66667 14.1673L9.33333 14.1673C12.4067 14.1673 13.5 13.074 13.5 10.0007L13.5 6.00065C13.5 2.92732 12.4067 1.83399 9.33333 1.83399L6.66667 1.83398Z" fill="#005F73"/>
<path d="M10 7.2194L6 7.2194C5.17333 7.2194 4.5 6.54607 4.5 5.7194L4.5 5.05273C4.5 4.22607 5.17333 3.55273 6 3.55273L10 3.55273C10.8267 3.55273 11.5 4.22607 11.5 5.05273L11.5 5.7194C11.5 6.54607 10.8267 7.2194 10 7.2194ZM6 4.55273C5.72667 4.55273 5.5 4.7794 5.5 5.05273L5.5 5.7194C5.5 5.99273 5.72667 6.2194 6 6.2194L10 6.2194C10.2733 6.2194 10.5 5.99273 10.5 5.7194L10.5 5.05273C10.5 4.7794 10.2733 4.55273 10 4.55273L6 4.55273Z" fill="#005F73"/>
<path d="M5.43344 9.9472C5.34677 9.9472 5.26011 9.9272 5.18011 9.89387C5.10011 9.86054 5.02677 9.81387 4.96677 9.75387C4.84011 9.6272 4.77344 9.46054 4.77344 9.28054C4.77344 9.19387 4.78677 9.1072 4.82011 9.0272C4.85344 8.94054 4.90011 8.87387 4.96677 8.8072C4.99344 8.78054 5.02677 8.7472 5.06677 8.7272C5.10011 8.70054 5.14011 8.68054 5.18011 8.6672C5.22011 8.6472 5.26677 8.63387 5.30677 8.6272C5.52011 8.58054 5.75344 8.65387 5.90677 8.8072C5.96677 8.8672 6.02011 8.94054 6.05344 9.0272C6.08677 9.1072 6.10677 9.19387 6.10677 9.28054C6.10677 9.46054 6.03344 9.6272 5.90677 9.75387C5.78011 9.88054 5.61344 9.9472 5.43344 9.9472Z" fill="#005F73"/>
<path d="M8.10661 9.94662C7.92661 9.94662 7.75994 9.87995 7.63328 9.75328C7.50661 9.62661 7.43994 9.45995 7.43994 9.27995C7.43994 9.19328 7.45328 9.10661 7.48661 9.02661C7.51994 8.93995 7.56661 8.87328 7.63328 8.80661C7.65994 8.77995 7.69328 8.74661 7.73328 8.72661C7.76661 8.69995 7.80661 8.67995 7.84661 8.66661C7.88661 8.64661 7.93328 8.63328 7.97328 8.62661C8.09994 8.59995 8.23328 8.61328 8.35994 8.66661C8.43994 8.69995 8.51328 8.74661 8.57328 8.80661C8.63328 8.87328 8.68661 8.93995 8.71994 9.02661C8.75328 9.10661 8.77328 9.19328 8.77328 9.27995C8.77328 9.45995 8.69994 9.62662 8.57328 9.75328C8.44661 9.87995 8.27994 9.94662 8.10661 9.94662Z" fill="#005F73"/>
<path d="M10.7669 9.94609C10.6803 9.94609 10.5936 9.92609 10.5136 9.89276C10.4336 9.85943 10.3603 9.81276 10.3003 9.75276C10.2336 9.68609 10.1869 9.61276 10.1536 9.53276C10.1203 9.45276 10.1069 9.36609 10.1069 9.27943C10.1069 9.19276 10.1203 9.10609 10.1536 9.02609C10.1869 8.93943 10.2336 8.87276 10.3003 8.80609C10.5469 8.55943 10.9936 8.55943 11.2403 8.80609C11.3669 8.93276 11.4403 9.10609 11.4403 9.27943C11.4403 9.45943 11.3669 9.62609 11.2403 9.75276C11.1203 9.87276 10.9536 9.94609 10.7669 9.94609Z" fill="#005F73"/>
<path d="M5.44042 12.6146C5.26042 12.6146 5.09376 12.5479 4.96709 12.4213C4.84042 12.2946 4.76709 12.1279 4.76709 11.9479C4.76709 11.7746 4.84042 11.6013 4.96709 11.4746C4.99376 11.4479 5.03376 11.4146 5.06709 11.3946C5.10042 11.3679 5.14042 11.3479 5.18042 11.3346C5.22042 11.3146 5.26709 11.3013 5.30709 11.2946C5.52709 11.2546 5.75376 11.3213 5.90709 11.4746C5.94042 11.5079 5.96709 11.5413 5.99376 11.5746C6.01376 11.6146 6.03376 11.6546 6.05376 11.6946C6.06709 11.7346 6.08042 11.7746 6.09376 11.8146C6.10042 11.8613 6.10709 11.9013 6.10709 11.9479C6.10709 12.1279 6.03376 12.2946 5.90709 12.4213C5.78042 12.5479 5.61376 12.6146 5.44042 12.6146Z" fill="#292D32"/>
<path d="M8.10693 12.6146C7.92693 12.6146 7.76026 12.5479 7.6336 12.4213C7.50693 12.2946 7.4336 12.1279 7.4336 11.9479C7.4336 11.7746 7.50693 11.6013 7.6336 11.4746C7.78693 11.3213 8.02026 11.2546 8.2336 11.2946C8.2736 11.3013 8.32026 11.3146 8.36026 11.3346C8.40026 11.3479 8.44026 11.3679 8.4736 11.3946C8.50693 11.4146 8.54026 11.4479 8.5736 11.4746C8.70026 11.6013 8.76693 11.7746 8.76693 11.9479C8.76693 12.1279 8.70026 12.2946 8.5736 12.4213C8.44693 12.5479 8.28026 12.6146 8.10693 12.6146Z" fill="#292D32"/>
<path d="M10.7669 12.6128C10.5936 12.6128 10.4269 12.5462 10.3003 12.4195C10.1736 12.2928 10.1069 12.1262 10.1069 11.9462C10.1069 11.7728 10.1736 11.5995 10.3003 11.4728C10.3603 11.4128 10.4336 11.3662 10.5136 11.3328C10.7603 11.2328 11.0603 11.2862 11.2403 11.4728C11.3669 11.5995 11.4336 11.7728 11.4336 11.9462C11.4336 12.1262 11.3669 12.2928 11.2403 12.4195C11.1803 12.4795 11.1069 12.5262 11.0269 12.5595C10.9469 12.5928 10.8603 12.6128 10.7669 12.6128Z" fill="#292D32"/>
</svg>
