<svg width="16" height="16" viewBox="0 0 16 16" fill="none" xmlns="http://www.w3.org/2000/svg">
<path d="M10.794 1.33313H5.20732C2.78065 1.33313 1.33398 2.7798 1.33398 5.20646V10.7865C1.33398 13.2198 2.78065 14.6665 5.20732 14.6665H10.7873C13.214 14.6665 14.6607 13.2198 14.6607 10.7931V5.20646C14.6673 2.7798 13.2207 1.33313 10.794 1.33313ZM4.66732 8.87313C4.18732 8.87313 3.79398 8.4798 3.79398 7.9998C3.79398 7.5198 4.18732 7.12646 4.66732 7.12646C5.14732 7.12646 5.54065 7.5198 5.54065 7.9998C5.54065 8.4798 5.14732 8.87313 4.66732 8.87313ZM8.00065 8.87313C7.52065 8.87313 7.12732 8.4798 7.12732 7.9998C7.12732 7.5198 7.52065 7.12646 8.00065 7.12646C8.48065 7.12646 8.87398 7.5198 8.87398 7.9998C8.87398 8.4798 8.48065 8.87313 8.00065 8.87313ZM11.334 8.87313C10.854 8.87313 10.4607 8.4798 10.4607 7.9998C10.4607 7.5198 10.854 7.12646 11.334 7.12646C11.814 7.12646 12.2073 7.5198 12.2073 7.9998C12.2073 8.4798 11.814 8.87313 11.334 8.87313Z" fill="url(#paint0_linear_8232_188426)"/>
<defs>
<linearGradient id="paint0_linear_8232_188426" x1="1.72509" y1="13.9257" x2="20.5087" y2="13.4395" gradientUnits="userSpaceOnUse">
<stop stop-color="#005F73"/>
<stop offset="1" stop-color="#6CC24A"/>
</linearGradient>
</defs>
</svg>
