<svg width="25" height="25" viewBox="0 0 25 25" fill="none" xmlns="http://www.w3.org/2000/svg">
<rect x="1" y="1" width="24" height="24" rx="8" fill="white"/>
<path d="M15.1905 6.23047H9.6038C7.17714 6.23047 5.73047 7.67714 5.73047 10.1038V15.6838C5.73047 18.1171 7.17714 19.5638 9.6038 19.5638H15.1838C17.6105 19.5638 19.0571 18.1171 19.0571 15.6905V10.1038C19.0638 7.67714 17.6171 6.23047 15.1905 6.23047ZM9.0638 13.7705C8.5838 13.7705 8.19047 13.3771 8.19047 12.8971C8.19047 12.4171 8.5838 12.0238 9.0638 12.0238C9.5438 12.0238 9.93714 12.4171 9.93714 12.8971C9.93714 13.3771 9.5438 13.7705 9.0638 13.7705ZM12.3971 13.7705C11.9171 13.7705 11.5238 13.3771 11.5238 12.8971C11.5238 12.4171 11.9171 12.0238 12.3971 12.0238C12.8771 12.0238 13.2705 12.4171 13.2705 12.8971C13.2705 13.3771 12.8771 13.7705 12.3971 13.7705ZM15.7305 13.7705C15.2505 13.7705 14.8571 13.3771 14.8571 12.8971C14.8571 12.4171 15.2505 12.0238 15.7305 12.0238C16.2105 12.0238 16.6038 12.4171 16.6038 12.8971C16.6038 13.3771 16.2105 13.7705 15.7305 13.7705Z" fill="url(#paint0_linear_9859_218979)"/>
<defs>
<linearGradient id="paint0_linear_9859_218979" x1="6.12158" y1="18.8231" x2="24.9052" y2="18.3368" gradientUnits="userSpaceOnUse">
<stop stop-color="#005F73"/>
<stop offset="1" stop-color="#6CC24A"/>
</linearGradient>
</defs>
</svg>
