<svg width="24" height="24" viewBox="0 0 24 24" fill="none" xmlns="http://www.w3.org/2000/svg">
<path d="M6.60767 1.81639C6.72215 1.89427 6.83022 1.97519 6.93763 2.06248C6.97618 2.09148 7.01473 2.12049 7.05445 2.15037C7.49883 2.52692 7.83366 3.1287 7.88417 3.71415C7.90776 4.42873 7.87689 5.02391 7.45325 5.62498C7.52041 5.77835 7.6027 5.87961 7.72116 5.99728C7.75681 6.03293 7.79247 6.06857 7.8292 6.1053C7.86768 6.1433 7.90616 6.18129 7.94581 6.22044C7.98521 6.25971 8.02461 6.29898 8.06521 6.33944C8.19109 6.46479 8.31728 6.58981 8.44349 6.71482C8.5289 6.79976 8.61428 6.88472 8.69965 6.96971C8.90894 7.17796 9.11849 7.38595 9.32825 7.59373C9.4832 7.5338 9.60806 7.47308 9.74134 7.374C9.93516 7.24242 10.1346 7.14127 10.3478 7.04588C10.3768 7.03251 10.4058 7.01915 10.4356 7.00538C10.9369 6.78761 11.4489 6.72467 11.9913 6.72947C12.0776 6.73011 12.0776 6.73011 12.1656 6.73075C13.0399 6.7474 13.7839 7.02777 14.494 7.53623C14.5814 7.59585 14.6703 7.64228 14.7658 7.68748C14.7952 7.65745 14.8247 7.62742 14.8551 7.59648C15.2229 7.22484 15.2229 7.22484 15.4191 7.0576C15.6003 6.90276 15.7668 6.73472 15.934 6.5652C16.0887 6.40916 16.249 6.26307 16.4161 6.12046C16.5442 6.00822 16.6624 5.88752 16.7814 5.7656C16.7351 5.64896 16.6884 5.53297 16.6375 5.41825C16.4153 4.85948 16.4005 4.15237 16.6254 3.59086C16.9296 2.99395 17.3861 2.54112 18.0177 2.30271C18.5716 2.15635 19.2692 2.17642 19.7814 2.43748C20.3416 2.76505 20.8082 3.24079 20.978 3.88328C21.0788 4.55684 21.0411 5.20204 20.6574 5.78025C20.2949 6.26021 19.8325 6.65809 19.2189 6.74998C18.5307 6.80636 17.9903 6.72599 17.3908 6.37498C17.2803 6.47742 17.17 6.58 17.0597 6.6826C17.0289 6.71115 16.9981 6.7397 16.9664 6.76911C16.784 6.93897 16.6059 7.11218 16.4304 7.28912C16.3513 7.36746 16.2691 7.44038 16.1837 7.5117C15.932 7.7284 15.7019 7.96674 15.4689 8.2031C15.4221 8.25003 15.3752 8.29693 15.3283 8.34373C15.3521 8.38011 15.3759 8.41648 15.4004 8.45396C15.8862 9.21633 16.1535 9.9531 16.1456 10.8662C16.1452 10.9523 16.1452 10.9523 16.1447 11.04C16.1347 11.6019 16.0336 12.0545 15.8164 12.5733C15.7953 12.6239 15.7741 12.6746 15.7523 12.7268C15.7361 12.7654 15.7199 12.804 15.7033 12.8437C15.7288 12.8606 15.7543 12.8774 15.7806 12.8947C16.046 13.0696 16.3114 13.2445 16.5767 13.4194C16.6758 13.4847 16.7749 13.55 16.8739 13.6152C17.0163 13.709 17.1585 13.8028 17.3008 13.8966C17.3452 13.9258 17.3896 13.9551 17.4354 13.9852C17.4766 14.0124 17.5179 14.0396 17.5605 14.0677C17.5968 14.0916 17.6331 14.1156 17.6705 14.1402C17.7493 14.1922 17.8279 14.2445 17.9064 14.2969C17.9541 14.2553 17.9541 14.2553 18.0027 14.2128C18.5597 13.7399 19.1218 13.4714 19.8605 13.4765C19.9053 13.4768 19.9502 13.4771 19.9964 13.4774C20.604 13.4925 21.0875 13.6763 21.5626 14.0625C21.6012 14.0915 21.6397 14.1205 21.6794 14.1504C22.1238 14.5269 22.4587 15.1287 22.5092 15.7141C22.5359 16.5232 22.467 17.1612 21.9376 17.8125C21.9084 17.8515 21.8793 17.8904 21.8492 17.9306C21.4701 18.3755 20.8465 18.698 20.2652 18.7643C20.1368 18.7704 20.0095 18.7719 19.881 18.7705C19.8131 18.77 19.8131 18.77 19.7439 18.7694C19.4003 18.7615 19.1086 18.7141 18.797 18.5625C18.7519 18.541 18.7068 18.5195 18.6604 18.4973C17.9972 18.1576 17.5473 17.605 17.3168 16.8951C17.2416 16.6388 17.2275 16.3997 17.2296 16.1338C17.2287 16.0918 17.2277 16.0498 17.2268 16.0066C17.227 15.6479 17.3195 15.3368 17.4376 15C17.1474 14.808 16.8571 14.6161 16.5667 14.4243C16.468 14.3591 16.3692 14.2938 16.2705 14.2285C16.1286 14.1346 15.9866 14.0408 15.8446 13.9471C15.8005 13.9179 15.7563 13.8886 15.7108 13.8585C15.6696 13.8313 15.6283 13.8041 15.5857 13.776C15.5495 13.7521 15.5133 13.7282 15.476 13.7035C15.382 13.6449 15.2875 13.5945 15.1876 13.5469C15.1627 13.5793 15.1627 13.5793 15.1373 13.6124C14.5867 14.287 13.7427 14.7776 12.8908 14.9531C12.7206 14.9686 12.5504 14.984 12.3751 15C12.3751 15.99 12.3751 16.98 12.3751 18C12.6536 18.0696 12.6536 18.0696 12.9376 18.1406C13.5277 18.4167 13.9678 18.9109 14.1974 19.5176C14.3438 20.0715 14.3237 20.7691 14.0626 21.2812C13.7351 21.8415 13.2593 22.3081 12.6168 22.4778C11.9433 22.5787 11.2981 22.541 10.7199 22.1572C10.2399 21.7947 9.84202 21.3324 9.75013 20.7187C9.68313 19.901 9.80555 19.2959 10.3434 18.6579C10.7092 18.2636 11.097 18.132 11.6251 18C11.6251 17.01 11.6251 16.02 11.6251 15C11.455 14.9845 11.2848 14.969 11.1095 14.9531C10.2394 14.7574 9.52471 14.3249 8.90638 13.6875C8.67908 13.7627 8.5036 13.8916 8.31165 14.0303C8.25985 14.0673 8.25985 14.0673 8.20699 14.105C8.09616 14.1843 7.98561 14.264 7.87513 14.3437C7.83818 14.3704 7.80123 14.397 7.76316 14.4245C7.61729 14.5297 7.47147 14.635 7.3258 14.7405C7.0732 14.9234 6.8192 15.104 6.56263 15.2812C6.5912 15.4374 6.63036 15.5831 6.68128 15.7333C6.75807 15.9864 6.77541 16.2219 6.77357 16.4853C6.7733 16.5302 6.77303 16.575 6.77275 16.6212C6.75761 17.2289 6.57377 17.7124 6.18763 18.1875C6.15844 18.2265 6.12926 18.2654 6.09919 18.3056C5.72012 18.7505 5.09652 19.073 4.51518 19.1393C4.38677 19.1454 4.25953 19.1469 4.13099 19.1455C4.06312 19.145 4.06312 19.145 3.99388 19.1444C3.65029 19.1365 3.35864 19.0891 3.047 18.9375C3.00193 18.916 2.95685 18.8945 2.91041 18.8723C2.24728 18.5327 1.79677 17.9799 1.56696 17.2698C1.49256 17.0159 1.47484 16.7782 1.47669 16.5146C1.47696 16.4698 1.47723 16.4249 1.4775 16.3787C1.49265 15.7711 1.67649 15.2876 2.06263 14.8125C2.09163 14.7739 2.12064 14.7354 2.15052 14.6957C2.52706 14.2513 3.12885 13.9164 3.7143 13.8659C4.52621 13.8391 5.1571 13.9106 5.81263 14.4375C5.8429 14.4659 5.87317 14.4943 5.90436 14.5235C5.99812 14.591 5.99812 14.591 6.10816 14.5556C6.27346 14.4624 6.41907 14.3519 6.56849 14.2353C6.8911 13.9881 7.22166 13.7556 7.55938 13.5295C7.78485 13.3777 7.99954 13.2175 8.2105 13.0459C8.297 12.9844 8.297 12.9844 8.39075 12.9844C8.36924 12.9423 8.34773 12.9002 8.32557 12.8569C7.83242 11.8678 7.6719 10.7136 7.99708 9.63774C8.18201 9.16093 8.41593 8.70997 8.71888 8.29685C8.65172 8.14348 8.56943 8.04223 8.45097 7.92456C8.41532 7.88891 8.37966 7.85326 8.34293 7.81653C8.30445 7.77854 8.26597 7.74054 8.22632 7.7014C8.18692 7.66212 8.14752 7.62285 8.10692 7.58239C7.98104 7.45704 7.85485 7.33202 7.72864 7.20701C7.64323 7.12207 7.55785 7.03711 7.47248 6.95213C7.26319 6.74387 7.05364 6.53589 6.84388 6.3281C6.70347 6.3835 6.56943 6.44096 6.43665 6.51268C6.0521 6.70514 5.68414 6.77522 5.25599 6.77049C5.21074 6.77013 5.16549 6.76978 5.11888 6.76941C4.77529 6.76148 4.48364 6.71409 4.172 6.56248C4.12693 6.54097 4.08185 6.51946 4.03541 6.49729C3.37228 6.15769 2.92177 5.60492 2.69196 4.89476C2.61756 4.6409 2.59984 4.40319 2.60169 4.13963C2.60196 4.09478 2.60223 4.04993 2.6025 4.00372C2.61765 3.39609 2.80149 2.9126 3.18763 2.43748C3.21663 2.39893 3.24564 2.36038 3.27552 2.32066C4.0647 1.38931 5.5758 1.20652 6.60767 1.81639ZM3.72852 3.03971C3.41337 3.48044 3.37583 3.97511 3.422 4.49998C3.52495 5.0048 3.8334 5.3969 4.24579 5.69493C4.71342 5.98559 5.23944 6.03387 5.77289 5.92216C6.29718 5.7523 6.694 5.38176 6.95264 4.90043C7.14324 4.45592 7.15358 3.92705 7.00208 3.46873C6.78754 2.96764 6.41388 2.58621 5.91004 2.37779C5.08314 2.08868 4.27596 2.38853 3.72852 3.03971ZM17.6251 3.50389C17.3119 3.90983 17.2406 4.3219 17.297 4.8281C17.3858 5.20949 17.5962 5.52486 17.921 5.74546C18.3252 5.97815 18.752 6.02708 19.2123 5.92271C19.6315 5.77039 19.9086 5.5062 20.1137 5.11467C20.2699 4.75211 20.2637 4.28788 20.13 3.9199C19.9443 3.52456 19.6655 3.26591 19.2658 3.09373C18.6783 2.90083 18.0488 3.06227 17.6251 3.50389ZM9.67063 8.44595C9.04924 9.04849 8.67616 9.82664 8.65592 10.6951C8.65041 11.2381 8.69428 11.6868 8.90638 12.1875C8.92493 12.232 8.94348 12.2765 8.96259 12.3224C9.30759 13.0732 9.96226 13.675 10.7175 13.9938C11.7043 14.3475 12.6262 14.2988 13.5675 13.8574C14.405 13.4058 14.9609 12.673 15.2387 11.7757C15.2528 11.7259 15.2669 11.6762 15.2814 11.625C15.2897 11.5958 15.2981 11.5667 15.3067 11.5367C15.4483 10.8855 15.3507 10.1688 15.0939 9.56248C15.0753 9.51795 15.0568 9.47341 15.0377 9.42753C14.6669 8.62071 13.9553 8.01672 13.1398 7.69334C11.9039 7.28869 10.6248 7.56042 9.67063 8.44595ZM18.3535 15.0397C18.0384 15.4804 18.0008 15.9751 18.047 16.5C18.15 17.0048 18.4584 17.3969 18.8708 17.6949C19.3384 17.9856 19.8644 18.0339 20.3979 17.9222C20.9222 17.7523 21.319 17.3818 21.5776 16.9004C21.7682 16.4559 21.7786 15.9271 21.6271 15.4687C21.4125 14.9676 21.0389 14.5862 20.535 14.3778C19.7081 14.0887 18.901 14.3885 18.3535 15.0397ZM2.60352 15.4147C2.28837 15.8554 2.25083 16.3501 2.297 16.875C2.39995 17.3798 2.7084 17.7719 3.12079 18.0699C3.58842 18.3606 4.11444 18.4089 4.64789 18.2972C5.17218 18.1273 5.569 17.7568 5.82764 17.2754C6.01824 16.8309 6.02858 16.3021 5.87708 15.8437C5.66254 15.3426 5.28888 14.9612 4.78504 14.7528C3.95814 14.4637 3.15096 14.7635 2.60352 15.4147ZM10.8751 19.2539C10.5619 19.6598 10.4906 20.0719 10.547 20.5781C10.6358 20.9595 10.8462 21.2749 11.171 21.4955C11.5752 21.7282 12.002 21.7771 12.4623 21.6727C12.8815 21.5204 13.1586 21.2562 13.3637 20.8647C13.5199 20.5021 13.5137 20.0379 13.38 19.6699C13.1943 19.2746 12.9155 19.0159 12.5158 18.8437C11.9283 18.6508 11.2988 18.8123 10.8751 19.2539Z" fill="#414141"/>
<path d="M12.1884 8.24999C12.3056 8.33627 12.3633 8.39001 12.4008 8.53124C12.4004 8.56218 12.3999 8.59312 12.3994 8.62499C12.4001 8.6714 12.4001 8.6714 12.4008 8.71874C12.3633 8.86014 12.3051 8.91224 12.1884 8.99999C12.0665 9.03 11.9545 9.05117 11.831 9.06737C11.2943 9.15392 10.8394 9.36549 10.5123 9.81683C10.3456 10.0822 10.244 10.3261 10.2003 10.6386C10.1932 10.6886 10.186 10.7385 10.1787 10.79C10.173 10.8371 10.1673 10.8842 10.1615 10.9327C10.1186 11.0894 10.0667 11.1518 9.93844 11.25C9.84469 11.2749 9.84469 11.2749 9.75094 11.2734C9.72 11.2739 9.68907 11.2744 9.65719 11.2749C9.51664 11.2376 9.46242 11.1785 9.37594 11.0625C9.27112 10.4806 9.44698 9.87311 9.77731 9.39257C9.8299 9.32334 9.88361 9.25496 9.93844 9.18749C9.96763 9.14852 9.99681 9.10954 10.0269 9.06939C10.282 8.76997 10.6526 8.53778 11.0166 8.39062C11.0504 8.37666 11.0842 8.3627 11.1191 8.34832C11.4582 8.22728 11.8325 8.19681 12.1884 8.24999Z" fill="#414141"/>
<path d="M4.31201 15C4.42568 15.0863 4.48749 15.1422 4.52441 15.2812C4.52393 15.3122 4.52345 15.3431 4.52295 15.375C4.52343 15.4059 4.52392 15.4369 4.52441 15.4687C4.48789 15.6062 4.42219 15.662 4.31201 15.75C4.18915 15.7925 4.18915 15.7925 4.05713 15.8203C3.77698 15.891 3.77698 15.891 3.56201 16.0781C3.51843 16.1811 3.48482 16.2837 3.45343 16.391C3.40832 16.5444 3.34985 16.6839 3.28076 16.8281C3.13407 16.9015 2.97088 16.9077 2.81201 16.875C2.68294 16.7783 2.6314 16.722 2.59961 16.5626C2.60439 16.1098 2.69845 15.7371 3.01343 15.3999C3.38038 15.07 3.81867 14.9189 4.31201 15Z" fill="#414141"/>
<path d="M20.062 14.625C20.1757 14.7113 20.2375 14.7672 20.2744 14.9062C20.2739 14.9372 20.2734 14.9681 20.2729 15C20.2734 15.0309 20.2739 15.0619 20.2744 15.0937C20.2379 15.2312 20.1722 15.287 20.062 15.375C19.9391 15.4175 19.9391 15.4175 19.8071 15.4453C19.527 15.516 19.527 15.516 19.312 15.7031C19.2684 15.8061 19.2348 15.9087 19.2034 16.016C19.1583 16.1694 19.0999 16.3089 19.0308 16.4531C18.8841 16.5265 18.7209 16.5327 18.562 16.5C18.4329 16.4033 18.3814 16.347 18.3496 16.1876C18.3544 15.7348 18.4485 15.3621 18.7634 15.0249C19.1304 14.695 19.5687 14.5439 20.062 14.625Z" fill="#414141"/>
<path d="M5.43701 2.62499C5.55068 2.71128 5.61249 2.76721 5.64941 2.90624C5.64893 2.93717 5.64845 2.96811 5.64795 2.99999C5.64843 3.03092 5.64892 3.06186 5.64941 3.09374C5.61289 3.23122 5.54719 3.28699 5.43701 3.37499C5.31415 3.41747 5.31415 3.41747 5.18213 3.4453C4.90198 3.51605 4.90198 3.51605 4.68701 3.70311C4.64343 3.80607 4.60982 3.90875 4.57843 4.01604C4.53332 4.16941 4.47485 4.30892 4.40576 4.45311C4.25907 4.52646 4.09588 4.53266 3.93701 4.49999C3.80794 4.40329 3.7564 4.34703 3.72461 4.18761C3.72939 3.73476 3.82345 3.36213 4.13843 3.02489C4.50538 2.69497 4.94367 2.54391 5.43701 2.62499Z" fill="#414141"/>
<path d="M12.1873 19.125C12.3133 19.1953 12.3133 19.1953 12.3748 19.3125C12.4098 19.4963 12.4073 19.6353 12.3074 19.7959C12.1877 19.8747 12.1133 19.8932 11.9764 19.9248C11.8629 19.9525 11.8629 19.9525 11.7654 20.0156C11.6955 20.1467 11.6556 20.2708 11.6179 20.4143C11.5779 20.5313 11.5779 20.5313 11.4373 20.625C11.1199 20.6552 11.1199 20.6552 10.9451 20.5635C10.8157 20.3316 10.8341 20.0684 10.9041 19.8164C11.0307 19.5271 11.2675 19.3014 11.5501 19.1638C11.7613 19.0964 11.9685 19.0987 12.1873 19.125Z" fill="#414141"/>
<path d="M18.9373 3.37501C19.0633 3.44532 19.0633 3.44532 19.1248 3.56251C19.1598 3.74629 19.1573 3.8853 19.0574 4.04591C18.9377 4.12474 18.8633 4.14323 18.7264 4.17481C18.6129 4.20251 18.6129 4.20251 18.5154 4.26563C18.4455 4.39668 18.4056 4.52079 18.3679 4.66425C18.3279 4.78126 18.3279 4.78126 18.1873 4.87501C17.8699 4.90524 17.8699 4.90524 17.6951 4.81349C17.5657 4.58163 17.5841 4.31836 17.6541 4.06642C17.7807 3.77707 18.0175 3.55144 18.3001 3.41383C18.5113 3.34641 18.7185 3.34875 18.9373 3.37501Z" fill="#424242"/>
</svg>
