<svg width="16" height="16" viewBox="0 0 16 16" fill="none" xmlns="http://www.w3.org/2000/svg">
<path d="M4.35496 1.47855C4.67529 1.72046 4.9395 2.02829 5.00144 2.43753C5.04179 2.88292 4.98365 3.22313 4.78269 3.62503C5.31894 4.16128 5.85519 4.69753 6.40769 5.25003C6.50051 5.19847 6.59332 5.14691 6.68894 5.09378C7.30348 4.75557 7.96696 4.63173 8.6616 4.79691C9.02262 4.91313 9.34652 5.09891 9.65769 5.31253C9.67153 5.29853 9.68537 5.28453 9.69963 5.2701C9.76369 5.20538 9.82788 5.14079 9.89207 5.0762C9.91382 5.05419 9.93558 5.03217 9.95799 5.00949C10.0847 4.88218 10.2145 4.76117 10.3506 4.64396C10.4309 4.57339 10.5049 4.49838 10.5796 4.42191C10.6939 4.30588 10.8111 4.19609 10.9353 4.09073C11.0383 3.99815 11.1344 3.89859 11.2302 3.79861C11.2674 3.76045 11.3062 3.72384 11.3452 3.68753C11.3658 3.68753 11.3864 3.68753 11.4077 3.68753C11.3964 3.66473 11.3851 3.64193 11.3735 3.61844C11.2195 3.27199 11.1823 2.89504 11.3003 2.52933C11.4446 2.1997 11.7011 1.94323 12.0307 1.79886C12.3479 1.69581 12.7454 1.69956 13.0519 1.83377C13.368 2.00868 13.6178 2.26822 13.7308 2.61612C13.806 2.99046 13.7841 3.37226 13.5793 3.70059C13.3812 3.97568 13.1191 4.18242 12.7827 4.25003C12.4567 4.28516 12.1773 4.26026 11.8764 4.12503C11.8152 4.09416 11.8152 4.09416 11.7514 4.09378C11.6826 4.14475 11.6826 4.14475 11.6186 4.21878C11.5317 4.31079 11.4459 4.39888 11.3491 4.4805C11.2438 4.57072 11.1457 4.66698 11.0483 4.76566C10.933 4.88254 10.8147 4.99323 10.6898 5.09976C10.5856 5.19269 10.4892 5.29323 10.3913 5.39273C10.3011 5.48139 10.2062 5.56226 10.1076 5.64151C10.0532 5.68828 10.0532 5.68828 10.0639 5.78128C10.1009 5.84773 10.1392 5.91201 10.1792 5.97659C10.5106 6.53176 10.6152 7.23857 10.4612 7.87004C10.4248 7.99805 10.3793 8.11944 10.3253 8.24088C10.2767 8.33965 10.2767 8.33965 10.2827 8.43753C10.3329 8.48436 10.3329 8.48436 10.4015 8.52641C10.4275 8.54353 10.4535 8.56066 10.4803 8.57831C10.5089 8.59667 10.5375 8.61503 10.567 8.63394C10.5964 8.65318 10.6258 8.67242 10.6561 8.69225C10.7508 8.75414 10.8459 8.81557 10.9409 8.87698C11.0032 8.91754 11.0655 8.95813 11.1277 8.99875C11.2484 9.07748 11.3692 9.15606 11.4901 9.23454C11.7034 9.3733 11.9152 9.51438 12.1264 9.65628C12.2245 9.60891 12.3054 9.55447 12.3921 9.48831C12.7541 9.23699 13.135 9.2083 13.5639 9.25003C13.9511 9.32099 14.2941 9.56669 14.522 9.8848C14.774 10.2801 14.8142 10.7175 14.7309 11.1753C14.6094 11.5796 14.3223 11.9122 13.9566 12.116C13.5929 12.2987 13.1222 12.3185 12.7319 12.2012C12.3044 12.0299 12.0092 11.7159 11.8127 11.3075C11.744 11.1256 11.7429 10.9422 11.7417 10.75C11.7415 10.7241 11.7413 10.6981 11.7411 10.6714C11.7427 10.5342 11.7552 10.4059 11.7833 10.2715C11.789 10.2439 11.7947 10.2163 11.8006 10.1879C11.8072 10.1568 11.8072 10.1568 11.8139 10.125C11.7978 10.1144 11.7816 10.1037 11.7649 10.0927C11.594 9.98017 11.4231 9.86759 11.2522 9.755C11.1887 9.71318 11.1253 9.67136 11.0618 9.62955C10.6972 9.38946 10.333 9.149 9.97019 8.90628C9.86342 8.95636 9.80171 9.01003 9.72215 9.09769C9.38113 9.44427 8.86342 9.69623 8.37644 9.75003C8.33519 9.75003 8.29394 9.75003 8.25144 9.75003C8.26176 10.575 8.27207 11.4 8.28269 12.25C8.39613 12.2913 8.50957 12.3325 8.62644 12.375C8.93597 12.5827 9.17618 12.8442 9.25144 13.2188C9.29326 13.6068 9.26005 13.9497 9.02683 14.2735C8.81395 14.5261 8.55442 14.7208 8.21798 14.757C7.8145 14.785 7.47799 14.7361 7.15977 14.4679C6.89358 14.2138 6.75137 13.9435 6.73673 13.5739C6.73189 13.1829 6.81993 12.8821 7.09519 12.5938C7.28877 12.409 7.45822 12.3453 7.72019 12.25C7.73566 11.0125 7.73566 11.0125 7.75144 9.75003C7.64832 9.73972 7.54519 9.72941 7.43894 9.71878C6.93445 9.591 6.5157 9.34514 6.15769 8.96878C6.00616 9.0189 5.88918 9.10483 5.76121 9.1973C5.73803 9.21385 5.71484 9.23041 5.69096 9.24747C5.61723 9.30021 5.54369 9.35321 5.47019 9.40628C5.44672 9.42321 5.42325 9.44015 5.39907 9.4576C5.30563 9.52505 5.21221 9.59255 5.11888 9.66016C4.91187 9.81 4.70327 9.95752 4.49424 10.1045C4.38166 10.1837 4.26962 10.2637 4.15769 10.3438C4.16446 10.3613 4.17123 10.3789 4.1782 10.397C4.30188 10.7703 4.31539 11.238 4.16795 11.6061C3.9651 12.004 3.66083 12.3059 3.23973 12.4649C2.87046 12.5625 2.40537 12.5491 2.06394 12.375C1.69043 12.1567 1.3794 11.8395 1.26622 11.4112C1.19897 10.9621 1.22413 10.532 1.47996 10.1465C1.72157 9.82658 2.02987 9.56121 2.43894 9.50003C2.90615 9.46203 3.25225 9.51578 3.65171 9.76981C3.71483 9.80918 3.77849 9.84229 3.84519 9.87503C3.85929 9.86485 3.87338 9.85467 3.8879 9.84418C3.90789 9.82975 3.92787 9.81532 3.94847 9.80045C3.97095 9.78421 3.99343 9.76797 4.01659 9.75124C4.0671 9.71477 4.11761 9.67829 4.16812 9.64182C4.29602 9.54948 4.42388 9.45709 4.55162 9.36453C4.78449 9.19591 5.01805 9.02846 5.2534 8.86331C5.43381 8.73667 5.61126 8.60749 5.78269 8.46878C5.77287 8.4494 5.76304 8.43003 5.75291 8.41006C5.46813 7.82079 5.37975 7.11606 5.5825 6.48318C5.69969 6.19476 5.84715 5.9263 6.00144 5.65628C5.46519 5.12003 4.92894 4.58378 4.37644 4.03128C4.23207 4.09316 4.08769 4.15503 3.93894 4.21878C3.5414 4.31817 3.08412 4.28299 2.72959 4.07571C2.39523 3.8538 2.12109 3.55805 2.01622 3.16116C1.94897 2.71213 1.97413 2.28199 2.22996 1.89651C2.73337 1.22993 3.63104 0.998099 4.35496 1.47855ZM2.72019 2.12503C2.56456 2.35422 2.49992 2.5659 2.53269 2.84378C2.57708 2.92991 2.57708 2.92991 2.65769 2.96878C2.75144 2.98961 2.75144 2.98961 2.84519 2.96878C2.95444 2.88053 2.98843 2.80969 3.01707 2.67386C3.051 2.53631 3.083 2.44331 3.18894 2.34378C3.27692 2.29301 3.35485 2.27067 3.45457 2.25394C3.54732 2.23407 3.59549 2.21858 3.67527 2.16409C3.73558 2.06969 3.73853 2.01632 3.72019 1.90628C3.68132 1.82567 3.68132 1.82567 3.59519 1.78128C3.25632 1.72068 2.94149 1.87325 2.72019 2.12503ZM11.8452 2.65628C11.7668 2.79161 11.7599 2.9409 11.7827 3.09378C11.8277 3.17789 11.8277 3.17789 11.9077 3.21878C12.017 3.237 12.0705 3.23504 12.1636 3.17386C12.2208 3.09291 12.2319 3.04752 12.2534 2.95316C12.2749 2.87869 12.2749 2.87869 12.3139 2.81253C12.4013 2.76592 12.484 2.73929 12.5797 2.71414C12.6678 2.6929 12.6678 2.6929 12.7202 2.59378C12.734 2.48548 12.7323 2.42715 12.6772 2.33206C12.3503 2.1297 12.0318 2.39235 11.8452 2.65628ZM6.93894 5.87503C6.91913 5.88873 6.89931 5.90242 6.87889 5.91653C6.59652 6.13155 6.40803 6.47708 6.31394 6.81253C6.30802 6.83215 6.3021 6.85177 6.296 6.87198C6.27774 6.96195 6.27493 7.04891 6.27293 7.14066C6.27176 7.17578 6.27059 7.21091 6.26939 7.2471C6.27489 7.34638 6.27489 7.34638 6.33995 7.418C6.40645 7.47596 6.40645 7.47596 6.50144 7.48441C6.61946 7.46474 6.64718 7.43763 6.72019 7.34378C6.7402 7.26251 6.75431 7.18785 6.76512 7.1055C6.82216 6.75175 6.96089 6.46037 7.24864 6.23441C7.48455 6.07681 7.73208 6.02307 8.01084 5.99136C8.11359 5.96386 8.15478 5.92658 8.22019 5.84378C8.24103 5.75003 8.24103 5.75003 8.22019 5.65628C8.15379 5.57003 8.11643 5.53534 8.0084 5.51468C7.59438 5.51877 7.27275 5.63168 6.93894 5.87503ZM12.4702 10.125C12.3146 10.3542 12.2499 10.5659 12.2827 10.8438C12.3271 10.9299 12.3271 10.9299 12.4077 10.9688C12.5014 10.9896 12.5014 10.9896 12.5952 10.9688C12.7044 10.8805 12.7384 10.8097 12.7671 10.6739C12.801 10.5363 12.833 10.4433 12.9389 10.3438C13.0269 10.293 13.1048 10.2707 13.2046 10.2539C13.2973 10.2341 13.3455 10.2186 13.4253 10.1641C13.4856 10.0697 13.4885 10.0163 13.4702 9.90628C13.4313 9.82567 13.4313 9.82567 13.3452 9.78128C13.0063 9.72068 12.6915 9.87325 12.4702 10.125ZM1.97019 10.375C1.81456 10.6042 1.74992 10.8159 1.78269 11.0938C1.82708 11.1799 1.82708 11.1799 1.90769 11.2188C2.00144 11.2396 2.00144 11.2396 2.09519 11.2188C2.20444 11.1305 2.23843 11.0597 2.26707 10.9239C2.301 10.7863 2.333 10.6933 2.43894 10.5938C2.52692 10.543 2.60485 10.5207 2.70457 10.5039C2.79732 10.4841 2.84549 10.4686 2.92527 10.4141C2.98558 10.3197 2.98853 10.2663 2.97019 10.1563C2.93132 10.0757 2.93132 10.0757 2.84519 10.0313C2.50632 9.97068 2.19149 10.1232 1.97019 10.375ZM7.34519 13.1563C7.26685 13.2916 7.25988 13.4409 7.28269 13.5938C7.3277 13.6779 7.3277 13.6779 7.40769 13.7188C7.51699 13.737 7.57045 13.735 7.66355 13.6739C7.72081 13.5929 7.73194 13.5475 7.7534 13.4532C7.77488 13.3787 7.77488 13.3787 7.81394 13.3125C7.90131 13.2659 7.98405 13.2393 8.07969 13.2141C8.16785 13.1929 8.16785 13.1929 8.22019 13.0938C8.23402 12.9855 8.23228 12.9272 8.17723 12.8321C7.85033 12.6297 7.53179 12.8923 7.34519 13.1563Z" fill="url(#paint0_linear_8423_331733)"/>
<defs>
<linearGradient id="paint0_linear_8423_331733" x1="1.63162" y1="14.0117" x2="20.7099" y2="13.5177" gradientUnits="userSpaceOnUse">
<stop stop-color="#005F73"/>
<stop offset="1" stop-color="#6CC24A"/>
</linearGradient>
</defs>
</svg>
