<svg width="34" height="30" viewBox="0 0 34 30" fill="none" xmlns="http://www.w3.org/2000/svg">
<g filter="url(#filter0_dd_3920_128839)">
<circle cx="17" cy="12" r="11.625" fill="white" stroke="#FF4C4C" stroke-width="0.75"/>
<circle cx="17" cy="12" r="7.875" stroke="#FF4C4C" stroke-width="0.75"/>
<path d="M21.1799 3.19114C19.8091 2.54078 18.3054 2.21931 16.7885 2.25231C15.2716 2.2853 13.7834 2.67185 12.4422 3.3812C11.101 4.09055 9.94382 5.10312 9.06279 6.33836C8.18175 7.57359 7.60116 8.99739 7.36719 10.4965" stroke="#FF4C4C" stroke-width="0.75" stroke-linecap="round"/>
<path d="M14.6254 21.159C16.0852 21.5725 17.6213 21.6396 19.1116 21.355C20.6019 21.0703 22.0053 20.4418 23.2099 19.5195C24.4146 18.5971 25.3874 17.4063 26.0509 16.0418C26.7144 14.6773 27.0503 13.1768 27.0319 11.6597" stroke="#FF4C4C" stroke-width="0.75" stroke-linecap="round"/>
<rect x="2.375" y="7.875" width="28.5" height="8.25" rx="1.125" fill="white" stroke="#FF4C4C" stroke-width="0.75"/>
<path d="M4.51775 10.157H5.73575C5.99125 10.157 6.224 10.1937 6.434 10.2672C6.644 10.3372 6.812 10.4562 6.938 10.6242C7.0675 10.7887 7.13225 11.0162 7.13225 11.3067C7.13225 11.5727 7.06575 11.7915 6.93275 11.963C6.80325 12.131 6.63175 12.2552 6.41825 12.3357C6.20825 12.4162 5.98425 12.4565 5.74625 12.4565H5.31575V14H4.5965V10.4772L4.51775 10.157ZM5.321 10.6767V11.9472H5.762C5.958 11.9472 6.10675 11.8877 6.20825 11.7687C6.31325 11.6462 6.36575 11.4922 6.36575 11.3067C6.36575 11.1142 6.315 10.962 6.2135 10.85C6.1155 10.7345 5.96675 10.6767 5.76725 10.6767H5.321ZM7.95753 10.157H9.27528C9.50978 10.157 9.72503 10.1902 9.92103 10.2567C10.117 10.3197 10.2745 10.4282 10.3935 10.5822C10.5125 10.7327 10.572 10.941 10.572 11.207C10.572 11.354 10.5335 11.4957 10.4565 11.6322C10.3795 11.7687 10.278 11.886 10.152 11.984C10.0295 12.0785 9.89653 12.1432 9.75303 12.1782L10.929 14H10.11L9.04428 12.2885H8.75553V14H8.03628V10.4772L7.95753 10.157ZM8.75553 10.682V11.774H9.09153C9.22803 11.774 9.35053 11.7582 9.45903 11.7267C9.56753 11.6917 9.65328 11.6322 9.71628 11.5482C9.77928 11.4642 9.81078 11.3487 9.81078 11.2017C9.81078 11.0862 9.78278 10.99 9.72678 10.913C9.67078 10.836 9.59728 10.7782 9.50628 10.7397C9.41528 10.7012 9.31553 10.682 9.20703 10.682H8.75553ZM11.4846 10.157H12.2826V14H11.5581V10.4772C11.5581 10.4737 11.5511 10.4475 11.5371 10.3985C11.5266 10.3495 11.5161 10.2987 11.5056 10.2462C11.4951 10.1937 11.4881 10.164 11.4846 10.157ZM14.9526 14.0578C14.6586 14.0578 14.3979 14.007 14.1704 13.9055C13.9464 13.804 13.7574 13.664 13.6034 13.4855C13.4494 13.3035 13.3321 13.0917 13.2516 12.8502C13.1746 12.6087 13.1361 12.3497 13.1361 12.0732C13.1361 11.7932 13.1746 11.5342 13.2516 11.2962C13.3321 11.0547 13.4494 10.8447 13.6034 10.6662C13.7609 10.4877 13.9516 10.3495 14.1756 10.2515C14.4031 10.15 14.6639 10.0992 14.9579 10.0992C15.2589 10.0992 15.5231 10.1482 15.7506 10.2462C15.9816 10.3442 16.1741 10.4825 16.3281 10.661C16.4856 10.8395 16.6046 11.0495 16.6851 11.291C16.7656 11.5325 16.8059 11.7967 16.8059 12.0837C16.8059 12.3672 16.7639 12.6297 16.6799 12.8712C16.5959 13.1092 16.4734 13.3175 16.3124 13.496C16.1549 13.6745 15.9606 13.8127 15.7296 13.9107C15.5021 14.0088 15.2431 14.0578 14.9526 14.0578ZM14.9736 13.559C15.1766 13.559 15.3446 13.517 15.4776 13.433C15.6141 13.3455 15.7226 13.2317 15.8031 13.0917C15.8836 12.9482 15.9414 12.7907 15.9764 12.6192C16.0114 12.4477 16.0289 12.2762 16.0289 12.1047C16.0289 11.9332 16.0114 11.76 15.9764 11.585C15.9449 11.4065 15.8889 11.2437 15.8084 11.0967C15.7279 10.9462 15.6176 10.8255 15.4776 10.7345C15.3411 10.6435 15.1696 10.598 14.9631 10.598C14.7601 10.598 14.5904 10.6417 14.4539 10.7292C14.3209 10.8132 14.2141 10.927 14.1336 11.0705C14.0531 11.214 13.9954 11.3715 13.9604 11.543C13.9254 11.7145 13.9079 11.8842 13.9079 12.0522C13.9079 12.2237 13.9254 12.3987 13.9604 12.5772C13.9954 12.7522 14.0531 12.915 14.1336 13.0655C14.2141 13.2125 14.3226 13.3315 14.4591 13.4225C14.5956 13.5135 14.7671 13.559 14.9736 13.559ZM17.595 10.157H18.9127C19.1472 10.157 19.3625 10.1902 19.5585 10.2567C19.7545 10.3197 19.912 10.4282 20.031 10.5822C20.15 10.7327 20.2095 10.941 20.2095 11.207C20.2095 11.354 20.171 11.4957 20.094 11.6322C20.017 11.7687 19.9155 11.886 19.7895 11.984C19.667 12.0785 19.534 12.1432 19.3905 12.1782L20.5665 14H19.7475L18.6817 12.2885H18.393V14H17.6737V10.4772L17.595 10.157ZM18.393 10.682V11.774H18.729C18.8655 11.774 18.988 11.7582 19.0965 11.7267C19.205 11.6917 19.2907 11.6322 19.3537 11.5482C19.4167 11.4642 19.4482 11.3487 19.4482 11.2017C19.4482 11.0862 19.4202 10.99 19.3642 10.913C19.3082 10.836 19.2347 10.7782 19.1437 10.7397C19.0527 10.7012 18.953 10.682 18.8445 10.682H18.393ZM21.122 10.157H21.92V14H21.1955V10.4772C21.1955 10.4737 21.1885 10.4475 21.1745 10.3985C21.164 10.3495 21.1535 10.2987 21.143 10.2462C21.1325 10.1937 21.1255 10.164 21.122 10.157ZM23.8078 10.6767H22.7421V10.157H25.6401V10.6767H24.5586V14H23.8078V10.6767ZM26.9585 10.157L27.725 11.585L28.5125 10.157H29.1425L28.0032 12.2517V14H27.305V12.2517L26.1815 10.157H26.9585Z" fill="#FF4C4C"/>
</g>
<defs>
<filter id="filter0_dd_3920_128839" x="0" y="0" width="33.25" height="30" filterUnits="userSpaceOnUse" color-interpolation-filters="sRGB">
<feFlood flood-opacity="0" result="BackgroundImageFix"/>
<feColorMatrix in="SourceAlpha" type="matrix" values="0 0 0 0 0 0 0 0 0 0 0 0 0 0 0 0 0 0 127 0" result="hardAlpha"/>
<feMorphology radius="2" operator="erode" in="SourceAlpha" result="effect1_dropShadow_3920_128839"/>
<feOffset dy="4"/>
<feGaussianBlur stdDeviation="2"/>
<feColorMatrix type="matrix" values="0 0 0 0 0.0941176 0 0 0 0 0.152941 0 0 0 0 0.294118 0 0 0 0.08 0"/>
<feBlend mode="normal" in2="BackgroundImageFix" result="effect1_dropShadow_3920_128839"/>
<feColorMatrix in="SourceAlpha" type="matrix" values="0 0 0 0 0 0 0 0 0 0 0 0 0 0 0 0 0 0 127 0" result="hardAlpha"/>
<feMorphology radius="2" operator="erode" in="SourceAlpha" result="effect2_dropShadow_3920_128839"/>
<feOffset dy="2"/>
<feGaussianBlur stdDeviation="2"/>
<feColorMatrix type="matrix" values="0 0 0 0 0.0941176 0 0 0 0 0.152941 0 0 0 0 0.294118 0 0 0 0.12 0"/>
<feBlend mode="normal" in2="effect1_dropShadow_3920_128839" result="effect2_dropShadow_3920_128839"/>
<feBlend mode="normal" in="SourceGraphic" in2="effect2_dropShadow_3920_128839" result="shape"/>
</filter>
</defs>
</svg>
