<svg width="16" height="17" viewBox="0 0 16 17" fill="none" xmlns="http://www.w3.org/2000/svg">
<g clip-path="url(#clip0_6470_122911)">
<path d="M13.2848 11.272H8.87465C8.82126 9.46951 7.33831 8.01953 5.52304 8.01953C3.70785 8.01953 2.22494 9.46951 2.17151 11.272H1.78968C1.68759 11.272 1.59107 11.3186 1.52759 11.3986C1.46412 11.4785 1.44064 11.5832 1.46382 11.6825L2.42921 15.8233C2.4645 15.9746 2.59955 16.0818 2.75505 16.0818H8.29106C8.44653 16.0818 8.58157 15.9746 8.61683 15.8233L9.11748 13.6763H13.285C13.9475 13.6763 14.4866 13.1369 14.4866 12.4741C14.4866 11.8111 13.9475 11.272 13.2848 11.272ZM5.52304 8.68877C6.96928 8.68877 8.15202 9.83853 8.20512 11.272H2.84105C2.89414 9.83853 4.07684 8.68877 5.52304 8.68877ZM13.2848 13.0072H7.26236C7.07763 13.0072 6.92774 13.1569 6.92774 13.3418C6.92774 13.5265 7.07763 13.6763 7.26236 13.6763H8.43039L8.02554 15.4127H3.02062L2.21125 11.9412H13.2848C13.5785 11.9412 13.8173 12.1802 13.8173 12.4741C13.8173 12.768 13.5785 13.0072 13.2848 13.0072Z" fill="#383838"/>
<path d="M15.3919 1.44922H0.543945V6.69944H7.18158L7.9679 7.48626L8.75422 6.69944H15.3919V1.44922Z" fill="#E5E5E5"/>
<path d="M14.3602 3.07234C14.3587 2.91313 14.2291 2.78516 14.0703 2.78516H14.0674C13.9073 2.78673 13.7788 2.91781 13.7802 3.07797L13.789 3.98744L13.0481 2.91386C12.9761 2.80937 12.8445 2.76387 12.7232 2.80172C12.6021 2.83947 12.5195 2.95165 12.5195 3.07858V4.89988C12.5195 5.06002 12.6493 5.18989 12.8096 5.18989C12.9697 5.18989 13.0995 5.06002 13.0995 4.89988V4.00939L13.8015 5.02673C13.8843 5.14632 14.0234 5.19684 14.1556 5.15551C14.2903 5.11349 14.3773 4.98903 14.3773 4.83559L14.3602 3.07234Z" fill="#383838"/>
<path d="M11.7334 5.18989C11.8935 5.18989 12.0234 5.06002 12.0234 4.89988V3.07516C12.0234 2.91503 11.8935 2.78516 11.7334 2.78516C11.5733 2.78516 11.4434 2.91503 11.4434 3.07516V4.89988C11.4434 5.06002 11.5733 5.18989 11.7334 5.18989Z" fill="#383838"/>
<path d="M9.97265 5.18886H10.734C10.8941 5.18886 11.024 5.05899 11.024 4.89885C11.024 4.73872 10.8941 4.60886 10.734 4.60886H10.2627V4.28482H10.6778C10.838 4.28482 10.9678 4.15495 10.9678 3.99481C10.9678 3.83468 10.838 3.70482 10.6778 3.70482H10.2627V3.38078H10.734C10.8941 3.38078 11.024 3.25091 11.024 3.09077C11.024 2.93064 10.8941 2.80078 10.734 2.80078H9.97265C9.81254 2.80078 9.68262 2.93064 9.68262 3.09077V4.89885C9.68262 5.05899 9.81254 5.18886 9.97265 5.18886Z" fill="#383838"/>
<path d="M8.04394 3.36515H8.25539V4.89988C8.25539 5.06002 8.38519 5.18989 8.54542 5.18989C8.70553 5.18989 8.83533 5.06002 8.83533 4.89988V3.36515H9.05087C9.21111 3.36515 9.3409 3.23529 9.3409 3.07516C9.3409 2.91503 9.21111 2.78516 9.05087 2.78516H8.04394C7.8837 2.78516 7.75391 2.91503 7.75391 3.07516C7.75391 3.23529 7.8837 3.36515 8.04394 3.36515Z" fill="#383838"/>
<path d="M3.74795 5.18989C3.90811 5.18989 4.03794 5.06002 4.03794 4.89988V4.5478L4.51603 5.0914C4.57337 5.15657 4.65341 5.18989 4.73391 5.18989C4.80192 5.18989 4.87024 5.16611 4.92532 5.11764C5.04557 5.01189 5.05731 4.82864 4.95156 4.70837L4.54857 4.25018C4.82801 4.13221 5.02382 3.86247 5.02382 3.54939C5.02382 3.12799 4.66913 2.78516 4.23312 2.78516H3.74858H3.7483H3.748C3.58784 2.78516 3.45801 2.91503 3.45801 3.07516V4.89988C3.45795 5.06002 3.58778 5.18989 3.74795 5.18989ZM4.23308 3.36515C4.34534 3.36515 4.4438 3.45126 4.4438 3.54939C4.4438 3.64756 4.34532 3.73365 4.23308 3.73365C4.18651 3.73365 4.11456 3.73391 4.04032 3.73424C4.04001 3.66275 4.03975 3.59397 4.03975 3.54943C4.03975 3.51102 4.0396 3.44044 4.03939 3.36519L4.23308 3.36515Z" fill="#383838"/>
<path d="M2.36022 4.39507C2.80942 4.39507 3.17488 4.03399 3.17488 3.59011C3.17488 3.14627 2.80942 2.78517 2.36022 2.78517H1.85251C1.6944 2.78343 1.56077 2.91784 1.56252 3.07516V4.8999C1.56252 5.06003 1.69235 5.18989 1.85251 5.18989C2.01268 5.18989 2.14251 5.06003 2.14251 4.8999V4.39576C2.22571 4.39539 2.30819 4.39507 2.36022 4.39507ZM2.36022 3.36519C2.48741 3.36519 2.59488 3.4682 2.59488 3.59015C2.59488 3.71209 2.48741 3.8151 2.36022 3.8151C2.30854 3.8151 2.22705 3.81542 2.14446 3.81577C2.14405 3.72944 2.14376 3.64365 2.14376 3.59015C2.14376 3.54424 2.14355 3.45594 2.14333 3.36519H2.36022Z" fill="#383838"/>
<path d="M6.48979 5.18989C7.1525 5.18989 7.69148 4.65049 7.69148 3.98753C7.69148 3.32456 7.1525 2.78516 6.48979 2.78516C5.82716 2.78516 5.28809 3.32456 5.28809 3.98753C5.28809 4.65049 5.82719 5.18989 6.48979 5.18989ZM6.48979 3.36515C6.83265 3.36515 7.11155 3.64434 7.11155 3.98753C7.11155 4.3307 6.83265 4.60989 6.48979 4.60989C6.14705 4.60989 5.86808 4.3307 5.86808 3.98753C5.86808 3.64434 6.14705 3.36515 6.48979 3.36515Z" fill="#383838"/>
</g>
<defs>
<clipPath id="clip0_6470_122911">
<rect width="15.6522" height="15.6522" fill="white" transform="translate(0.141602 0.785156)"/>
</clipPath>
</defs>
</svg>
