<svg width="260" height="194" viewBox="0 0 260 194" fill="none" xmlns="http://www.w3.org/2000/svg">
<g opacity="0.8">
<path d="M260 170.385H0V170.515H260V170.385Z" fill="#EBEBEB"/>
<path d="M233.952 178.751H216.73V178.881H233.952V178.751Z" fill="#EBEBEB"/>
<path d="M210.176 178.751H173.354V178.881H210.176V178.751Z" fill="#EBEBEB"/>
<path d="M153.051 173.927H143.072V174.057H153.051V173.927Z" fill="#EBEBEB"/>
<path d="M45.113 174.799H27.2822V174.929H45.113V174.799Z" fill="#EBEBEB"/>
<path d="M82.1578 174.799H49.7358V174.929H82.1578V174.799Z" fill="#EBEBEB"/>
<path d="M117.077 176.995H97.936V177.125H117.077V176.995Z" fill="#EBEBEB"/>
<path d="M123.243 147.193H22.8366C22.05 147.191 21.2961 146.878 20.7404 146.321C20.1847 145.765 19.8726 145.01 19.8726 144.223V3.07992C19.8794 2.29785 20.1945 1.55007 20.7495 0.998992C21.3045 0.447917 22.0545 0.138058 22.8366 0.136719H123.243C124.031 0.136719 124.786 0.449544 125.343 1.00638C125.9 1.56321 126.213 2.31844 126.213 3.10592V144.223C126.213 145.011 125.9 145.766 125.343 146.323C124.786 146.88 124.031 147.193 123.243 147.193ZM22.8366 0.240719C22.0845 0.242097 21.3636 0.541833 20.8323 1.07414C20.301 1.60644 20.0026 2.32782 20.0026 3.07992V144.223C20.0026 144.976 20.301 145.697 20.8323 146.229C21.3636 146.762 22.0845 147.061 22.8366 147.063H123.243C123.996 147.061 124.717 146.762 125.249 146.23C125.782 145.697 126.081 144.976 126.083 144.223V3.07992C126.081 2.32734 125.782 1.60597 125.249 1.07382C124.717 0.541664 123.996 0.242094 123.243 0.240719H22.8366Z" fill="#EBEBEB"/>
<path d="M235.722 147.193H135.31C134.522 147.191 133.768 146.878 133.212 146.322C132.655 145.765 132.342 145.011 132.34 144.223V3.07992C132.349 2.29738 132.665 1.5496 133.221 0.998667C133.776 0.447735 134.527 0.138044 135.31 0.136719H235.722C236.503 0.139425 237.251 0.449888 237.805 1.00082C238.359 1.55175 238.674 2.29875 238.68 3.07992V144.223C238.68 145.009 238.369 145.763 237.814 146.319C237.26 146.876 236.507 147.19 235.722 147.193ZM135.31 0.240719C134.557 0.242094 133.836 0.541664 133.303 1.07382C132.771 1.60597 132.472 2.32734 132.47 3.07992V144.223C132.472 144.976 132.771 145.697 133.303 146.23C133.836 146.762 134.557 147.061 135.31 147.063H235.722C236.474 147.061 237.195 146.762 237.728 146.23C238.26 145.697 238.559 144.976 238.561 144.223V3.07992C238.559 2.32734 238.26 1.60597 237.728 1.07382C237.195 0.541664 236.474 0.242094 235.722 0.240719H135.31Z" fill="#EBEBEB"/>
<path d="M73.8616 82.1572L188.496 82.1572V7.69843L73.8616 7.69843L73.8616 82.1572Z" fill="#E6E6E6"/>
<path d="M71.5095 82.1572L187.048 82.1572V7.69843L71.5095 7.69843L71.5095 82.1572Z" fill="#F0F0F0"/>
<path d="M184.658 78.113V11.7402L73.8925 11.7402V78.113H184.658Z" fill="#FAFAFA"/>
<path d="M171.066 78.113L157.057 11.7402H138.696L152.705 78.113H171.066Z" fill="white"/>
<path d="M149.73 78.113L135.721 11.7402H127.427L141.436 78.113H149.73Z" fill="white"/>
<path d="M116.825 78.113L102.816 11.7402H88.6514L102.66 78.113H116.825Z" fill="white"/>
<path d="M74.1958 78.113V11.7402H73.8942V78.113H74.1958Z" fill="#E6E6E6"/>
<path d="M125.836 82.1572H132.721V7.69843H125.836L125.836 82.1572Z" fill="#F0F0F0"/>
<path d="M133.017 78.113V11.7402H132.715V78.113H133.017Z" fill="#E6E6E6"/>
<path d="M129.156 82.1572H129.395V7.69843H129.156V82.1572Z" fill="#E6E6E6"/>
<path d="M211.085 166.932H231.973V112.436H211.085V166.932Z" fill="#F0F0F0"/>
<path d="M124.945 170.385H227.957V166.932H124.945V170.385Z" fill="#F0F0F0"/>
<path d="M211.073 112.439H120.931V166.935H211.073V112.439Z" fill="#F5F5F5"/>
<path d="M202.874 119.147H129.154V137.019H202.874V119.147Z" fill="#F0F0F0"/>
<path d="M202.874 142.354H129.154V160.226H202.874V142.354Z" fill="#F0F0F0"/>
<path d="M156.687 129.303H175.319C175.87 129.303 176.317 128.856 176.317 128.305V127.852C176.317 127.301 175.87 126.854 175.319 126.854H156.687C156.135 126.854 155.689 127.301 155.689 127.852V128.305C155.689 128.856 156.135 129.303 156.687 129.303Z" fill="#F5F5F5"/>
<path d="M156.687 152.515H175.319C175.87 152.515 176.317 152.068 176.317 151.516V151.064C176.317 150.512 175.87 150.065 175.319 150.065H156.687C156.135 150.065 155.689 150.512 155.689 151.064V151.516C155.689 152.068 156.135 152.515 156.687 152.515Z" fill="#F5F5F5"/>
<path d="M161.393 103.261C161.393 103.261 161.144 112.439 151.513 112.439C141.883 112.439 141.633 103.261 141.633 103.261H161.393Z" fill="#F0F0F0"/>
<path d="M183.915 103.261C183.915 103.261 183.66 112.439 174.035 112.439C164.41 112.439 164.155 103.261 164.155 103.261H183.915Z" fill="#F0F0F0"/>
<path d="M161.393 97.1797C161.393 97.1797 161.144 106.358 151.513 106.358C141.883 106.358 141.633 97.1797 141.633 97.1797H161.393Z" fill="#F0F0F0"/>
<path d="M183.915 97.1797C183.915 97.1797 183.66 106.358 174.035 106.358C164.41 106.358 164.155 97.1797 164.155 97.1797H183.915Z" fill="#F0F0F0"/>
<path d="M206.436 103.261C206.436 103.261 206.171 112.46 196.556 112.46C186.941 112.46 186.676 103.282 186.676 103.282L206.436 103.261Z" fill="#F0F0F0"/>
<path d="M206.436 97.1797C206.436 97.1797 206.181 106.358 196.556 106.358C186.931 106.358 186.676 97.1797 186.676 97.1797H206.436Z" fill="#F0F0F0"/>
<path d="M200.374 62.3057H213.489V37.5797H200.374V62.3057Z" fill="#E6E6E6"/>
<path d="M197.435 62.3057H212.837V37.5797H197.435V62.3057Z" fill="#F5F5F5"/>
<path d="M210.493 60.1035V39.7715H199.781V60.1035H210.493Z" fill="white"/>
<path d="M220.23 78.2852H233.344V53.5592H220.23V78.2852Z" fill="#E6E6E6"/>
<path d="M217.298 78.2852H232.701V53.5592H217.298V78.2852Z" fill="#F5F5F5"/>
<path d="M230.348 76.083V55.751H219.636V76.083H230.348Z" fill="white"/>
<path d="M37.8266 60.5879H56.583L56.583 25.2279H37.8266V60.5879Z" fill="#E6E6E6"/>
<path d="M33.6365 60.5879H55.6689L55.6689 25.2279H33.6365V60.5879Z" fill="#F5F5F5"/>
<path d="M52.3091 57.4495V28.3711H36.9847V57.4495H52.3091Z" fill="white"/>
<path d="M30.5271 122.667C28.0467 115.387 20.4807 112.672 18.2863 108.076C15.4107 102.054 16.4611 93.0217 19.8463 89.7613C22.8051 86.9273 29.3519 106.084 30.0903 108.226C32.6331 115.584 32.9919 121.05 33.0231 126.338C33.4599 121.84 33.8655 117.711 34.1723 114.524C35.1707 104.124 35.3215 100.785 35.3319 99.7557C35.0251 99.2357 34.6611 98.6689 34.4479 98.3569C32.6383 95.6997 28.3119 92.5381 26.4087 88.6797C23.6319 83.0429 24.9527 76.2985 27.6411 73.7869C30.4491 71.1869 34.1723 77.3697 35.8259 83.5161C37.4795 89.6625 35.8259 95.5541 35.8779 100.676C35.8779 101.68 35.6127 105.481 35.1447 110.759C36.5071 105.08 38.3635 101.279 41.3847 97.7589C45.1287 93.4013 48.5295 88.0869 51.1243 88.7733C53.7191 89.4597 51.4779 96.4849 48.8051 101.42C46.4183 105.808 36.6319 110.192 34.8639 113.723C34.2087 120.878 33.3039 129.936 32.4615 138.376C33.6887 134.018 33.2259 133.649 36.9855 126.978C39.2215 123.01 47.0943 118.138 47.6559 120.847C48.2175 123.556 46.3039 128.725 43.1319 132.328C40.5735 135.24 35.6335 135.235 34.2919 137.045C33.9799 137.466 32.9139 139.078 32.3003 140.009C31.2603 150.31 30.2619 159.405 29.8511 162.504L29.3675 162.535C29.4819 161.734 30.0227 156.493 30.7195 149.535C29.9395 145.843 22.1083 143.69 20.0543 139.853C17.9015 135.838 16.5599 131.148 18.0367 128.012C19.2691 125.412 26.2215 128.954 28.7123 133.29C30.3711 136.176 31.2395 139.26 31.3123 143.399C31.7803 138.672 32.2847 133.597 32.7527 128.808C32.3315 127.602 31.2707 124.846 30.5271 122.667Z" fill="#E6E6E6"/>
<path d="M37.8797 170.386H22.3629C21.5101 170.386 20.8029 169.392 20.6105 168.014L19.4873 158.998H40.7345L39.6269 168.014C39.4605 169.392 38.7273 170.386 37.8797 170.386Z" fill="#E6E6E6"/>
<path d="M41.1704 159.666H19.0392C18.8148 159.689 18.5891 159.635 18.3999 159.512C18.2107 159.389 18.0693 159.205 17.9992 158.99L17.5468 156.037C17.4792 155.584 17.9628 155.189 18.5868 155.189H41.6228C42.2468 155.189 42.7304 155.584 42.6628 156.037L42.2104 158.99C42.1421 159.206 42.001 159.391 41.8114 159.514C41.6217 159.637 41.3952 159.691 41.1704 159.666Z" fill="#F0F0F0"/>
<path d="M130.005 193.864C185.688 193.864 230.828 191.228 230.828 187.977C230.828 184.726 185.688 182.091 130.005 182.091C74.3225 182.091 29.1826 184.726 29.1826 187.977C29.1826 191.228 74.3225 193.864 130.005 193.864Z" fill="#F5F5F5"/>
<path d="M127.949 73.637L135.416 82.5602C136.086 83.3604 136.936 83.99 137.898 84.3968C138.859 84.8037 139.903 84.9762 140.944 84.9002L174.114 82.4614C176.589 82.2795 179.035 83.0877 180.914 84.7083C182.793 86.3289 183.951 88.6293 184.135 91.1038L188.643 152.375C188.821 154.847 188.011 157.289 186.39 159.165C184.77 161.04 182.472 162.197 180.001 162.38L88.0336 169.14C85.5581 169.322 83.1117 168.513 81.2326 166.891C79.3535 165.27 78.1954 162.968 78.0132 160.493L72.1944 81.5878C72.0669 79.8494 72.6352 78.1316 73.7742 76.8122C74.9132 75.4929 76.5296 74.6799 78.268 74.5522L122.426 71.297C123.467 71.2205 124.51 71.3929 125.47 71.7998C126.431 72.2067 127.28 72.8365 127.949 73.637Z" fill="url(#paint0_linear_9464_198811)"/>
<g opacity="0.3">
<path d="M127.948 73.638L135.415 82.5612C136.085 83.3614 136.936 83.991 137.897 84.3978C138.858 84.8047 139.902 84.9772 140.943 84.9012L174.114 82.4624C176.589 82.2805 179.034 83.0887 180.913 84.7093C182.792 86.3299 183.951 88.6302 184.134 91.1048L188.643 152.376C188.82 154.848 188.01 157.29 186.39 159.166C184.77 161.041 182.472 162.198 180 162.381L88.0331 169.141C85.5576 169.323 83.1112 168.514 81.2321 166.892C79.353 165.271 78.1949 162.969 78.0127 160.494L72.1939 81.5888C72.0665 79.8504 72.6347 78.1326 73.7737 76.8132C74.9127 75.4938 76.5291 74.6809 78.2675 74.5532L122.426 71.298C123.466 71.2215 124.509 71.3938 125.47 71.8007C126.43 72.2077 127.28 72.8374 127.948 73.638Z" fill="black"/>
</g>
<path d="M111.278 76.6362L79.7942 78.9538C79.0811 79.0063 78.5455 79.627 78.598 80.3401L78.6003 80.3713C78.6528 81.0844 79.2735 81.62 79.9866 81.5675L111.471 79.2499C112.184 79.1974 112.719 78.5767 112.667 77.8636L112.665 77.8325C112.612 77.1193 111.991 76.5837 111.278 76.6362Z" fill="white"/>
<path d="M106.751 82.7888L79.9247 84.6667C79.2096 84.7167 78.6705 85.337 78.7205 86.0521L78.7227 86.0833C78.7728 86.7984 79.393 87.3375 80.1081 87.2875L106.935 85.4096C107.65 85.3596 108.189 84.7393 108.139 84.0242L108.137 83.993C108.087 83.2779 107.467 82.7388 106.751 82.7888Z" fill="white"/>
<path d="M183.027 158.899L86.4061 166.018C85.2394 166.101 84.0872 165.719 83.2015 164.955C82.3157 164.191 81.7685 163.107 81.6793 161.941L77.2957 102.365C77.2112 101.198 77.5929 100.045 78.3571 99.1586C79.1213 98.2725 80.2057 97.7256 81.3725 97.6378L177.999 90.5242C179.166 90.4397 180.319 90.8214 181.205 91.5856C182.091 92.3499 182.638 93.4342 182.726 94.601L187.115 154.172C187.196 155.34 186.812 156.493 186.046 157.379C185.28 158.265 184.195 158.811 183.027 158.899Z" fill="#E0E0E0"/>
<path d="M177.985 90.5285L82.7452 97.5392C80.3135 97.7182 78.4874 99.8345 78.6664 102.266L83.0515 161.837C83.2305 164.269 85.3468 166.095 87.7785 165.916L183.019 158.905C185.45 158.726 187.277 156.61 187.098 154.178L182.712 94.6072C182.533 92.1756 180.417 90.3495 177.985 90.5285Z" fill="white"/>
<path d="M90.9023 165.689L110.839 164.217L92.7899 104.854L90.9023 165.689Z" fill="#F5F5F5"/>
<path d="M201.815 142.273L106.281 158.356C105.123 158.546 103.938 158.269 102.984 157.587C102.03 156.905 101.385 155.873 101.19 154.716L91.2736 95.8211C91.0841 94.6643 91.3608 93.4796 92.0431 92.5264C92.7253 91.5732 93.7575 90.9292 94.9136 90.7355L190.448 74.6519C191.606 74.4609 192.792 74.7369 193.746 75.4193C194.7 76.1017 195.345 77.1347 195.539 78.2919L205.455 137.192C205.642 138.348 205.364 139.531 204.682 140.482C204 141.434 202.97 142.078 201.815 142.273Z" fill="white"/>
<path opacity="0.3" d="M190.443 74.6511L96.2715 90.5114C93.8671 90.9164 92.2462 93.1938 92.6512 95.5981L102.572 154.501C102.977 156.905 105.254 158.526 107.658 158.121L201.83 142.261C204.234 141.856 205.855 139.579 205.45 137.174L195.53 78.2714C195.125 75.867 192.848 74.2461 190.443 74.6511Z" fill="url(#paint1_linear_9464_198811)"/>
<path opacity="0.2" d="M189.235 87.3356L101.552 102.093C101.043 102.178 100.521 102.057 100.1 101.758C99.6791 101.459 99.3937 101.006 99.3059 100.497L98.8171 97.5692C98.7746 97.3172 98.7822 97.0593 98.8395 96.8103C98.8968 96.5612 99.0025 96.3259 99.1508 96.1177C99.2991 95.9096 99.4869 95.7327 99.7035 95.5972C99.9202 95.4617 100.161 95.3702 100.413 95.328L188.096 80.5652C188.605 80.4794 189.128 80.5993 189.549 80.8986C189.971 81.1979 190.256 81.6522 190.342 82.1616L190.836 85.0892C190.919 85.5991 190.797 86.1212 190.498 86.5418C190.198 86.9625 189.744 87.2477 189.235 87.3356Z" fill="url(#paint2_linear_9464_198811)"/>
<path opacity="0.2" d="M190.18 92.606L102.373 107.39C102.128 107.429 101.893 107.517 101.681 107.648C101.47 107.779 101.287 107.95 101.142 108.152C100.997 108.354 100.893 108.583 100.837 108.825C100.78 109.067 100.772 109.318 100.813 109.563L101.245 112.163C101.285 112.409 101.372 112.644 101.503 112.855C101.634 113.066 101.806 113.25 102.008 113.395C102.21 113.54 102.438 113.643 102.68 113.7C102.922 113.756 103.173 113.764 103.418 113.723L191.226 98.9396C191.471 98.8998 191.705 98.8121 191.916 98.6816C192.127 98.551 192.31 98.3802 192.455 98.1788C192.6 97.9774 192.704 97.7494 192.761 97.5079C192.817 97.2663 192.826 97.016 192.786 96.7712L192.349 94.1712C192.268 93.6763 191.995 93.2335 191.588 92.9401C191.182 92.6466 190.676 92.5265 190.18 92.606Z" fill="url(#paint3_linear_9464_198811)"/>
<path d="M201.953 162.124L201.766 161.636C202.968 161.18 204.078 160.51 205.042 159.66L205.385 160.05C204.376 160.943 203.213 161.646 201.953 162.124Z" fill="url(#paint4_linear_9464_198811)"/>
<path d="M208.035 156.618L207.572 156.384C208.447 154.648 208.831 152.706 208.685 150.768L208.113 142.968L208.633 142.932L209.205 150.732C209.356 152.764 208.952 154.798 208.035 156.618Z" fill="url(#paint5_linear_9464_198811)"/>
<path d="M198.632 161.013L97.4816 168.459L88.0332 169.14C90.5404 168.955 92.8715 167.782 94.5137 165.879C96.1559 163.975 96.9747 161.497 96.79 158.99L93.7532 117.536C93.6901 116.715 93.7899 115.891 94.0468 115.109C94.3037 114.327 94.7126 113.604 95.25 112.981C95.7875 112.358 96.4428 111.848 97.1783 111.479C97.9138 111.11 98.7149 110.891 99.5356 110.833L197.628 103.62C198.449 103.557 199.274 103.656 200.057 103.912C200.839 104.169 201.563 104.578 202.186 105.115C202.81 105.653 203.321 106.308 203.69 107.044C204.059 107.78 204.279 108.582 204.336 109.403L207.389 150.883C207.569 153.387 206.748 155.861 205.106 157.76C203.464 159.659 201.136 160.829 198.632 161.013Z" fill="url(#paint6_linear_9464_198811)"/>
</g>
<defs>
<linearGradient id="paint0_linear_9464_198811" x1="75.5955" y1="163.727" x2="239.74" y2="158.668" gradientUnits="userSpaceOnUse">
<stop stop-color="#005F73"/>
<stop offset="1" stop-color="#6CC24A"/>
</linearGradient>
<linearGradient id="paint1_linear_9464_198811" x1="105.691" y1="154.59" x2="249.607" y2="124.48" gradientUnits="userSpaceOnUse">
<stop stop-color="#005F73"/>
<stop offset="1" stop-color="#6CC24A"/>
</linearGradient>
<linearGradient id="paint2_linear_9464_198811" x1="101.492" y1="100.921" x2="229.785" y2="86.7441" gradientUnits="userSpaceOnUse">
<stop stop-color="#005F73"/>
<stop offset="1" stop-color="#6CC24A"/>
</linearGradient>
<linearGradient id="paint3_linear_9464_198811" x1="103.488" y1="112.573" x2="231.654" y2="98.1408" gradientUnits="userSpaceOnUse">
<stop stop-color="#005F73"/>
<stop offset="1" stop-color="#6CC24A"/>
</linearGradient>
<linearGradient id="paint4_linear_9464_198811" x1="201.872" y1="161.988" x2="206.97" y2="161.794" gradientUnits="userSpaceOnUse">
<stop stop-color="#005F73"/>
<stop offset="1" stop-color="#6CC24A"/>
</linearGradient>
<linearGradient id="paint5_linear_9464_198811" x1="207.621" y1="155.858" x2="209.968" y2="155.85" gradientUnits="userSpaceOnUse">
<stop stop-color="#005F73"/>
<stop offset="1" stop-color="#6CC24A"/>
</linearGradient>
<linearGradient id="paint6_linear_9464_198811" x1="91.5367" y1="165.499" x2="259.539" y2="157.573" gradientUnits="userSpaceOnUse">
<stop stop-color="#005F73"/>
<stop offset="1" stop-color="#6CC24A"/>
</linearGradient>
</defs>
</svg>
