<svg width="220" height="165" viewBox="0 0 220 165" fill="none" xmlns="http://www.w3.org/2000/svg">
<g opacity="0.8">
<path d="M220 144.592H0V144.702H220V144.592Z" fill="#EBEBEB"/>
<path d="M189.073 147.59H146.129V147.7H189.073V147.59Z" fill="#EBEBEB"/>
<path d="M147.696 150.132H127.161V150.242H147.696V150.132Z" fill="#EBEBEB"/>
<path d="M197.954 151.672H189.511V151.782H197.954V151.672Z" fill="#EBEBEB"/>
<path d="M96.3587 150.186H55.6455V150.296H96.3587V150.186Z" fill="#EBEBEB"/>
<path d="M51.7326 150.186H42.9766V150.296H51.7326V150.186Z" fill="#EBEBEB"/>
<path d="M39.8852 148.328H25.4268V148.438H39.8852V148.328Z" fill="#EBEBEB"/>
<path d="M104.28 124.969H19.3205C18.6549 124.967 18.017 124.702 17.5468 124.231C17.0766 123.76 16.8125 123.122 16.8125 122.456V3.02702C16.8183 2.36527 17.0849 1.73253 17.5545 1.26624C18.0241 0.799943 18.6587 0.537755 19.3205 0.536621H104.28C104.946 0.536621 105.585 0.80132 106.057 1.27249C106.528 1.74365 106.793 2.38269 106.793 3.04902V122.456C106.793 123.123 106.528 123.762 106.057 124.233C105.585 124.704 104.946 124.969 104.28 124.969ZM19.3205 0.624621C18.6841 0.625787 18.0742 0.87941 17.6246 1.32982C17.175 1.78023 16.9225 2.39063 16.9225 3.02702V122.456C16.9225 123.093 17.175 123.703 17.6246 124.153C18.0742 124.604 18.6841 124.857 19.3205 124.859H104.28C104.917 124.857 105.527 124.604 105.978 124.154C106.428 123.703 106.681 123.093 106.683 122.456V3.02702C106.681 2.39022 106.428 1.77984 105.978 1.32955C105.527 0.879267 104.917 0.625785 104.28 0.624621H19.3205Z" fill="#EBEBEB"/>
<path d="M199.455 124.969H114.491C113.825 124.967 113.187 124.702 112.716 124.231C112.245 123.761 111.98 123.122 111.979 122.456V3.02702C111.985 2.36487 112.253 1.73213 112.723 1.26596C113.194 0.799789 113.829 0.537742 114.491 0.536621H199.455C200.116 0.538911 200.749 0.801611 201.218 1.26778C201.687 1.73395 201.953 2.36603 201.959 3.02702V122.456C201.959 123.121 201.695 123.759 201.226 124.23C200.757 124.701 200.12 124.966 199.455 124.969ZM114.491 0.624621C113.854 0.625785 113.244 0.879267 112.793 1.32955C112.343 1.77984 112.09 2.39022 112.089 3.02702V122.456C112.09 123.093 112.343 123.703 112.793 124.154C113.244 124.604 113.854 124.857 114.491 124.859H199.455C200.092 124.857 200.702 124.604 201.152 124.154C201.603 123.703 201.856 123.093 201.857 122.456V3.02702C201.856 2.39022 201.603 1.77984 201.152 1.32955C200.702 0.879267 200.092 0.625785 199.455 0.624621H114.491Z" fill="#EBEBEB"/>
<path d="M23.5564 89.7119H75.6436V86.3371H23.5564V89.7119Z" fill="#EBEBEB"/>
<path d="M24.5882 144.592H71.501V89.7111H24.5882L24.5882 144.592Z" fill="#EBEBEB"/>
<path d="M72.6626 89.7119H71.501V144.593H72.6626V89.7119Z" fill="#F0F0F0"/>
<path d="M71.5002 89.7119H24.583V92.0571L71.5002 90.8823V89.7119Z" fill="#E6E6E6"/>
<path d="M114.932 144.592H161.845V89.7111H114.932V144.592Z" fill="#EBEBEB"/>
<path d="M163.006 89.7119H161.845V144.593H163.006V89.7119Z" fill="#F0F0F0"/>
<path d="M161.846 89.7119H114.934V92.0571L161.846 90.8823V89.7119Z" fill="#E6E6E6"/>
<path d="M166.772 86.3364H75.6436V89.7112H166.772V86.3364Z" fill="#F5F5F5"/>
<path d="M63.8968 78.2677H110.15C110.605 78.278 111.057 78.188 111.474 78.004C111.891 77.82 112.262 77.5466 112.562 77.2032C112.861 76.8597 113.081 76.4546 113.206 76.0166C113.332 75.5785 113.359 75.1183 113.287 74.6685L109.714 46.6713C109.568 45.6906 109.081 44.7926 108.34 44.1346C107.598 43.4766 106.648 43.1005 105.657 43.0721H59.4C58.9444 43.0619 58.4921 43.1519 58.0751 43.3359C57.6581 43.5198 57.2866 43.7931 56.9869 44.1365C56.6872 44.4798 56.4666 44.8848 56.3407 45.3228C56.2149 45.7609 56.1868 46.2212 56.2584 46.6713L59.84 74.6685C59.9871 75.6488 60.4739 76.5462 61.2154 77.2041C61.9569 77.862 62.906 78.2384 63.8968 78.2677Z" fill="#E0E0E0"/>
<path d="M79.5131 63.6021H89.8311L86.3375 86.3368H76.0195L79.5131 63.6021Z" fill="#E0E0E0"/>
<path d="M64.5211 78.2677H110.77C111.225 78.2787 111.678 78.1891 112.095 78.0054C112.513 77.8218 112.885 77.5485 113.184 77.2049C113.484 76.8614 113.705 76.456 113.83 76.0177C113.956 75.5793 113.984 75.1187 113.911 74.6685L110.338 46.6713C110.191 45.6903 109.704 44.7922 108.961 44.1343C108.219 43.4763 107.269 43.1003 106.277 43.0721H60.0243C59.5688 43.0618 59.1166 43.1518 58.6998 43.3358C58.283 43.5197 57.9117 43.7931 57.6124 44.1366C57.313 44.48 57.0928 44.8851 56.9675 45.3232C56.8422 45.7612 56.8147 46.2215 56.8871 46.6713L60.4599 74.6685C60.6071 75.6495 61.0946 76.5476 61.837 77.2055C62.5794 77.8635 63.5295 78.2394 64.5211 78.2677Z" fill="#E6E6E6"/>
<path d="M82.6289 43.0713H89.3741L101.514 70.6153H94.7641L82.6289 43.0713Z" fill="#F5F5F5"/>
<path d="M78.0254 43.0713H80.727L92.8622 70.6153H90.1606L78.0254 43.0713Z" fill="#F5F5F5"/>
<path d="M113.392 70.6147L113.911 74.6671C113.983 75.1172 113.955 75.5776 113.829 76.0156C113.703 76.4536 113.483 76.8586 113.183 77.202C112.883 77.5453 112.512 77.8186 112.095 78.0025C111.678 78.1865 111.225 78.2765 110.77 78.2663H64.5213C63.5297 78.2381 62.5796 77.8621 61.8372 77.2042C61.0948 76.5462 60.6073 75.6482 60.4601 74.6671L59.9453 70.6147H113.392Z" fill="#F0F0F0"/>
<path d="M46.2617 78.888C45.7707 77.1524 45.673 75.329 45.9757 73.5508C46.2438 71.7546 46.8072 70.0151 47.6433 68.4028C47.8369 67.9936 48.0833 67.6196 48.3165 67.2236L48.6729 66.6472C48.8005 66.458 48.9369 66.2776 49.0733 66.0972C49.3505 65.7408 49.6189 65.38 49.9005 65.028C50.1821 64.676 50.5209 64.3724 50.8333 64.0512L51.3085 63.5716C51.4713 63.422 51.6473 63.2812 51.8233 63.1316C52.1665 62.8456 52.5185 62.5684 52.8705 62.2956C53.6022 61.7909 54.3665 61.3352 55.1585 60.9316C54.6349 61.6664 54.0365 62.2912 53.5041 62.9688C53.2445 63.3164 52.9849 63.6552 52.7165 63.9852C52.5889 64.1568 52.4481 64.3108 52.3205 64.4824L51.9597 65.006C51.7177 65.3492 51.4713 65.6924 51.2205 66.0268C50.9697 66.3612 50.7805 66.7396 50.5561 67.0916C50.4461 67.2676 50.3229 67.4392 50.2173 67.6152L49.9181 68.1652C49.7201 68.5304 49.4781 68.878 49.3197 69.2564C48.5538 70.7371 47.9179 72.2814 47.4189 73.872C46.8891 75.5075 46.5019 77.1858 46.2617 78.888Z" fill="#E6E6E6"/>
<path d="M37.0069 77.603C36.782 75.9016 36.4141 74.2222 35.9069 72.5826C35.4245 70.9868 34.8062 69.4353 34.0589 67.945C33.8917 67.5666 33.6629 67.2146 33.4737 66.8494L33.1789 66.295C33.0777 66.1146 32.9545 65.9474 32.8489 65.767C32.6289 65.4106 32.4089 65.0586 32.1933 64.6978C31.9777 64.337 31.7049 64.0158 31.4673 63.6638L31.1109 63.1402C30.9877 62.9642 30.8469 62.8058 30.7193 62.6386C30.4597 62.3042 30.2001 61.961 29.9449 61.6134C29.4213 60.927 28.8317 60.2934 28.3125 59.5542C29.1016 59.9669 29.8616 60.4329 30.5873 60.949C30.9349 61.2218 31.2825 61.5034 31.6257 61.7938C31.7973 61.9346 31.9733 62.0754 32.1361 62.2338L32.6025 62.7134C32.9164 63.039 33.2244 63.369 33.5265 63.7034C33.8037 64.0554 34.0677 64.4206 34.3405 64.7814C34.4725 64.9662 34.6089 65.1466 34.7321 65.3358L35.0841 65.9166C35.3041 66.3126 35.5549 66.691 35.7441 67.1046C36.5589 68.7222 37.1015 70.463 37.3501 72.257C37.636 74.0423 37.5187 75.8689 37.0069 77.603Z" fill="#E6E6E6"/>
<path d="M37.148 78.417C37.1964 76.4282 37.148 74.5054 37.0204 72.6002C36.8828 70.7084 36.6078 68.829 36.1976 66.977C36.0304 66.0486 35.7312 65.1598 35.4936 64.2446C35.344 63.8046 35.1812 63.3646 35.0536 62.9246C34.9057 62.4763 34.7354 62.0358 34.5432 61.6046C33.8788 59.8138 32.9108 58.1682 31.9912 56.3906C33.5555 57.6571 34.8713 59.2027 35.872 60.949L36.2592 61.6002C36.3868 61.8202 36.4748 62.0402 36.5848 62.2866C36.8004 62.7266 37.0248 63.2106 37.2008 63.677C37.5418 64.6114 37.8225 65.5667 38.0412 66.537C38.4724 68.5124 38.6206 70.5391 38.4812 72.5562C38.3785 74.5721 37.9274 76.555 37.148 78.417Z" fill="#E6E6E6"/>
<path d="M45.5064 79.5864C44.4773 77.7661 43.6609 75.8336 43.0732 73.8268C42.4708 71.8281 42.0294 69.7843 41.7532 67.7152C41.5992 66.6856 41.5244 65.6428 41.4408 64.6C41.3572 63.5572 41.3484 62.5144 41.4056 61.4672C41.4506 59.3758 41.731 57.2962 42.2416 55.2676C42.5188 57.3532 42.6376 59.386 42.8928 61.4276C42.9808 62.4396 43.126 63.4472 43.2272 64.4548L43.4252 65.964C43.478 66.47 43.5484 66.9716 43.6232 67.4732C43.896 69.4825 44.1982 71.4918 44.5296 73.5012L45.5064 79.5864Z" fill="#E6E6E6"/>
<path d="M45.0907 79.1858C43.8582 77.4944 42.8248 75.6666 42.0107 73.7386C41.1773 71.8258 40.5019 69.848 39.9911 67.825C39.7139 66.8174 39.5203 65.7878 39.3223 64.745C39.1243 63.7022 38.9923 62.6858 38.9307 61.6386C38.7348 59.5567 38.7747 57.4592 39.0495 55.3862C39.5599 57.4234 39.9295 59.4298 40.3695 61.4142C40.5763 62.4086 40.8359 63.3942 41.0515 64.3842L41.4211 65.8626C41.5311 66.3554 41.6587 66.8482 41.7907 67.3366C42.2879 69.3034 42.8247 71.2614 43.3791 73.2238L45.0907 79.1858Z" fill="#E6E6E6"/>
<path d="M44.2771 78.7416C42.8924 77.1749 41.6935 75.4534 40.7043 73.6112C39.6913 71.7782 38.8304 69.8651 38.1303 67.8912C37.7607 66.9144 37.4747 65.9068 37.1799 64.908C36.8851 63.9092 36.6563 62.884 36.4935 61.85C36.1016 59.7947 35.9437 57.7017 36.0227 55.6108C36.7223 57.5908 37.2635 59.5708 37.9279 61.4892C38.2271 62.4616 38.5791 63.4164 38.8871 64.38L39.3931 65.8188C39.5471 66.2984 39.7231 66.7736 39.9035 67.2488C40.5811 69.1628 41.2983 71.0636 42.0419 72.9688L44.2771 78.7416Z" fill="#E6E6E6"/>
<path d="M46.5471 78.2149C45.743 76.6001 45.3087 74.8265 45.2755 73.0229C45.2068 71.2083 45.4372 69.3947 45.9575 67.6549C46.0719 67.2149 46.2567 66.7969 46.3975 66.3701L46.6395 65.7365C46.7319 65.5297 46.8331 65.3273 46.9343 65.1249C47.1367 64.7201 47.3347 64.3153 47.5459 63.9193C47.7571 63.5233 48.0343 63.1581 48.2807 62.7841L48.6591 62.2253C48.7911 62.0449 48.9407 61.8777 49.0991 61.7061C49.3895 61.3629 49.6799 61.0241 49.9791 60.6897C50.603 60.057 51.2705 59.4688 51.9767 58.9297C51.5939 59.7481 51.1231 60.4741 50.7271 61.2397C50.5335 61.6269 50.3399 62.0097 50.1419 62.3837C50.0451 62.5729 49.9351 62.7533 49.8427 62.9469L49.5875 63.5277C49.4115 63.9105 49.2355 64.2933 49.0507 64.6673C48.8659 65.0413 48.7471 65.4505 48.6107 65.8377C48.5359 66.0313 48.4435 66.2205 48.3775 66.4141L48.1839 67.0081C48.0563 67.4041 47.8935 67.7913 47.7967 68.1917C47.3201 69.7892 46.9816 71.4247 46.7847 73.0801C46.5589 74.7817 46.4794 76.4996 46.5471 78.2149Z" fill="#E6E6E6"/>
<path d="M46.546 79.0149C45.4516 77.3328 44.6581 75.4733 44.2008 73.5193C43.7176 71.5558 43.5162 69.5335 43.6024 67.5133C43.6454 66.5008 43.7572 65.4923 43.9368 64.4949C44.0512 63.9977 44.17 63.5049 44.302 63.0165C44.3724 62.7745 44.4164 62.5237 44.5044 62.2861L44.7728 61.5733C45.454 59.6828 46.4788 57.9344 47.7956 56.4165C47.1527 58.2398 46.6194 60.0999 46.1984 61.9869C46.0828 62.4464 45.9932 62.9121 45.93 63.3817C45.864 63.8481 45.776 64.3101 45.7056 64.7765C45.6352 65.7181 45.4944 66.6465 45.49 67.5925C45.4119 69.4846 45.4678 71.3799 45.6572 73.2641C45.8464 75.1649 46.15 77.0657 46.546 79.0149Z" fill="#E6E6E6"/>
<path d="M43.5396 76.4981L38.2288 67.4473L37.5732 76.2649L43.5396 76.4981Z" fill="#E6E6E6"/>
<path d="M52.2768 74.0615H31.874L34.5448 86.3375H49.606L52.2768 74.0615Z" fill="#F5F5F5"/>
<path d="M39.53 74.0615H31.874L34.5448 86.3375H38.5664L39.53 74.0615Z" fill="#EBEBEB"/>
<path d="M183.362 102.08H150.921C149.187 86.7503 152.373 70.2723 160.319 54.8767C160.528 54.4728 160.844 54.1338 161.232 53.8965C161.619 53.6591 162.065 53.5325 162.519 53.5303H189.962C190.337 53.5295 190.705 53.6269 191.031 53.8126C191.356 53.9983 191.627 54.2659 191.817 54.5889C192.007 54.9119 192.109 55.279 192.114 55.6536C192.118 56.0283 192.024 56.3976 191.841 56.7247C184.568 71.5835 181.695 87.3619 183.362 102.08Z" fill="#E0E0E0"/>
<path d="M175.666 98.0449H139.921C138.851 98.0472 137.826 98.4731 137.07 99.2293C136.314 99.9854 135.888 101.01 135.886 102.08H179.71C179.707 101.009 179.28 99.9826 178.522 99.2262C177.764 98.4697 176.737 98.0449 175.666 98.0449Z" fill="#E0E0E0"/>
<path d="M159.777 144.592H157.788L152.873 102.08H154.862L159.777 144.592Z" fill="#E0E0E0"/>
<path d="M188.275 144.592H186.286L181.371 102.08H183.36L188.275 144.592Z" fill="#E0E0E0"/>
<path d="M162.426 144.592H164.419L169.334 102.08H167.341L162.426 144.592Z" fill="#E0E0E0"/>
<path d="M133.931 144.592H135.919L140.834 102.08H138.845L133.931 144.592Z" fill="#E0E0E0"/>
<path d="M186.902 6.40186H37.0732V33.9767H186.902V6.40186Z" fill="#F5F5F5"/>
<path d="M35.9424 33.9766H37.0732V6.40176H35.9424V33.9766Z" fill="#EBEBEB"/>
<path d="M178.006 22.8319C134.103 30.2239 90.2001 15.4399 46.2969 22.8319V17.5519C90.2001 10.1599 134.103 24.9439 178.006 17.5519V22.8319Z" fill="#EBEBEB"/>
<path d="M109.997 164.464C157.113 164.464 195.309 162.234 195.309 159.483C195.309 156.732 157.113 154.502 109.997 154.502C62.8809 154.502 24.6855 156.732 24.6855 159.483C24.6855 162.234 62.8809 164.464 109.997 164.464Z" fill="#F5F5F5"/>
<path d="M166.317 20.2856H179.134C181.686 20.2856 183.758 23.2732 182.276 26.2608H131.456C133.216 22.7408 130.07 20.2856 128.31 20.2856H166.317Z" fill="url(#paint0_linear_7810_176536)"/>
<path d="M125.939 20.2856H178.079C170.938 20.2856 164.571 26.0716 163.849 33.2084L154.609 124.803C153.888 131.94 147.521 137.726 140.38 137.726H114.099C106.962 137.726 101.779 131.94 102.478 124.803L111.718 33.2084C112.431 26.0584 118.793 20.2856 125.939 20.2856Z" fill="url(#paint1_linear_7810_176536)"/>
<path opacity="0.7" d="M125.939 20.2856H178.079C170.938 20.2856 164.571 26.0716 163.849 33.2084L154.609 124.803C153.888 131.94 147.521 137.726 140.38 137.726H114.099C106.962 137.726 101.779 131.94 102.478 124.803L111.718 33.2084C112.431 26.0584 118.793 20.2856 125.939 20.2856Z" fill="white"/>
<path d="M128.768 124.803C128.837 124.268 128.789 123.725 128.628 123.21C128.468 122.695 128.198 122.221 127.838 121.82C127.477 121.419 127.035 121.101 126.54 120.887C126.045 120.672 125.51 120.567 124.971 120.579H72.8311C73.3704 120.567 73.906 120.671 74.4013 120.885C74.8965 121.099 75.3398 121.418 75.7007 121.819C76.0616 122.22 76.3317 122.694 76.4925 123.209C76.6534 123.724 76.7012 124.267 76.6327 124.803C75.9111 131.939 81.1163 137.725 88.2531 137.725H140.389C133.252 137.725 128.033 131.939 128.768 124.803Z" fill="url(#paint2_linear_7810_176536)"/>
<path d="M75.5828 120.576H62.7656C61.639 120.58 60.5587 121.025 59.7554 121.815C58.9522 122.605 58.4898 123.678 58.4668 124.804H120.674C120.697 123.678 121.159 122.605 121.963 121.815C122.766 121.025 123.846 120.58 124.973 120.576H75.5828Z" fill="url(#paint3_linear_7810_176536)"/>
<path opacity="0.6" d="M75.5828 120.576H62.7656C61.639 120.58 60.5587 121.025 59.7554 121.815C58.9522 122.605 58.4898 123.678 58.4668 124.804H120.674C120.697 123.678 121.159 122.605 121.963 121.815C122.766 121.025 123.846 120.58 124.973 120.576H75.5828Z" fill="white"/>
<g opacity="0.5">
<path d="M120.146 65.188H116.212L116.612 61.2588H120.542L120.146 65.188Z" fill="white"/>
<path d="M126.636 65.188H122.707L123.103 61.2588H127.032L126.636 65.188Z" fill="white"/>
<path d="M133.129 65.188H129.195L129.591 61.2588H133.525L133.129 65.188Z" fill="white"/>
<path d="M139.621 65.188H135.688L136.088 61.2588H140.017L139.621 65.188Z" fill="white"/>
<path d="M146.108 65.188H142.179L142.575 61.2588H146.504L146.108 65.188Z" fill="white"/>
<path d="M152.604 65.188H148.671L149.067 61.2588H153L152.604 65.188Z" fill="white"/>
<path d="M119.491 71.6821H115.562L115.958 67.7485H119.887L119.491 71.6821Z" fill="white"/>
<path d="M125.983 71.6821H122.05L122.446 67.7485H126.379L125.983 71.6821Z" fill="white"/>
<path d="M132.476 71.6821H128.542L128.942 67.7485H132.872L132.476 71.6821Z" fill="white"/>
<path d="M138.962 71.6821H135.033L135.429 67.7485H139.358L138.962 71.6821Z" fill="white"/>
<path d="M145.459 71.6821H141.525L141.921 67.7485H145.855L145.459 71.6821Z" fill="white"/>
<path d="M151.947 71.6821H148.014L148.41 67.7485H152.343L151.947 71.6821Z" fill="white"/>
<path d="M118.838 78.1724H114.904L115.3 74.2388H119.234L118.838 78.1724Z" fill="white"/>
<path d="M125.329 78.1724H121.396L121.792 74.2388H125.725L125.329 78.1724Z" fill="white"/>
<path d="M131.817 78.1724H127.888L128.284 74.2388H132.213L131.817 78.1724Z" fill="white"/>
<path d="M138.313 78.1724H134.38L134.776 74.2388H138.709L138.313 78.1724Z" fill="white"/>
<path d="M144.801 78.1724H140.867L141.263 74.2388H145.197L144.801 78.1724Z" fill="white"/>
<path d="M151.292 78.1724H147.363L147.759 74.2388H151.688L151.292 78.1724Z" fill="white"/>
<path d="M118.184 84.6616H114.25L114.646 80.7324H118.58L118.184 84.6616Z" fill="white"/>
<path d="M124.671 84.6616H120.742L121.138 80.7324H125.067L124.671 84.6616Z" fill="white"/>
<path d="M131.163 84.6616H127.233L127.629 80.7324H131.559L131.163 84.6616Z" fill="white"/>
<path d="M137.655 84.6616H133.722L134.118 80.7324H138.051L137.655 84.6616Z" fill="white"/>
<path d="M144.147 84.6616H140.218L140.614 80.7324H144.543L144.147 84.6616Z" fill="white"/>
<path d="M150.638 84.6616H146.709L147.105 80.7324H151.034L150.638 84.6616Z" fill="white"/>
<path d="M117.526 91.1577H113.597L113.993 87.2241H117.922L117.526 91.1577Z" fill="white"/>
<path d="M124.017 91.1577H120.088L120.484 87.2241H124.413L124.017 91.1577Z" fill="white"/>
<path d="M130.51 91.1577H126.576L126.972 87.2241H130.906L130.51 91.1577Z" fill="white"/>
<path d="M137.002 91.1577H133.068L133.469 87.2241H137.398L137.002 91.1577Z" fill="white"/>
<path d="M143.493 91.1577H139.563L139.959 87.2241H143.889L143.493 91.1577Z" fill="white"/>
<path d="M149.985 91.1577H146.052L146.448 87.2241H150.381L149.985 91.1577Z" fill="white"/>
<path d="M116.872 97.6475H112.942L113.338 93.7139H117.268L116.872 97.6475Z" fill="white"/>
<path d="M123.368 97.6475H119.435L119.831 93.7139H123.764L123.368 97.6475Z" fill="white"/>
<path d="M129.855 97.6475H125.922L126.322 93.7139H130.251L129.855 97.6475Z" fill="white"/>
<path d="M136.347 97.6475H132.418L132.814 93.7139H136.743L136.347 97.6475Z" fill="white"/>
<path d="M142.84 97.6475H138.906L139.302 93.7139H143.236L142.84 97.6475Z" fill="white"/>
<path d="M149.331 97.6475H145.397L145.798 93.7139H149.727L149.331 97.6475Z" fill="white"/>
</g>
<path d="M118.911 93.7124C118.859 94.1576 118.648 94.569 118.316 94.8707C117.985 95.1723 117.555 95.3439 117.107 95.3536C116.898 95.3578 116.69 95.3169 116.498 95.2335C116.306 95.1502 116.134 95.0264 115.994 94.8706C115.854 94.7149 115.749 94.5308 115.687 94.3309C115.625 94.131 115.606 93.9201 115.633 93.7124C115.684 93.2672 115.895 92.8558 116.227 92.5547C116.559 92.2536 116.989 92.0833 117.437 92.0756C117.646 92.0707 117.854 92.1111 118.046 92.1939C118.238 92.2767 118.41 92.4001 118.55 92.5555C118.69 92.711 118.794 92.8948 118.857 93.0945C118.919 93.2941 118.938 93.5049 118.911 93.7124Z" fill="url(#paint4_linear_7810_176536)"/>
<path d="M127.367 74.2387C127.315 74.6843 127.102 75.0958 126.77 75.3974C126.438 75.699 126.008 75.8703 125.559 75.8799C125.349 75.8854 125.14 75.8454 124.947 75.7627C124.754 75.6799 124.581 75.5563 124.44 75.4004C124.299 75.2445 124.194 75.0599 124.131 74.8594C124.068 74.6589 124.05 74.4471 124.076 74.2387C124.13 73.7939 124.343 73.3835 124.675 73.0828C125.007 72.7821 125.437 72.6114 125.885 72.6019C126.094 72.5972 126.302 72.6377 126.495 72.7204C126.687 72.8032 126.859 72.9264 127 73.0816C127.141 73.2369 127.246 73.4205 127.31 73.6202C127.373 73.8198 127.393 74.0308 127.367 74.2387Z" fill="url(#paint5_linear_7810_176536)"/>
<path d="M139.696 80.7333C139.643 81.1789 139.43 81.5904 139.098 81.8919C138.766 82.1935 138.336 82.3649 137.887 82.3745C137.678 82.3787 137.47 82.3378 137.278 82.2544C137.086 82.1711 136.914 82.0473 136.774 81.8915C136.634 81.7358 136.53 81.5517 136.467 81.3518C136.405 81.1519 136.387 80.9409 136.413 80.7333C136.466 80.2884 136.678 79.8775 137.009 79.576C137.34 79.2746 137.769 79.1027 138.217 79.0921C138.427 79.0879 138.635 79.1289 138.827 79.2122C139.019 79.2955 139.191 79.4192 139.331 79.5749C139.472 79.7306 139.577 79.9146 139.64 80.1144C139.702 80.3143 139.721 80.5254 139.696 80.7333Z" fill="url(#paint6_linear_7810_176536)"/>
<path d="M153.994 67.7475C153.941 68.1931 153.729 68.6045 153.397 68.9061C153.065 69.2077 152.635 69.3791 152.186 69.3887C151.977 69.3929 151.769 69.3519 151.577 69.2686C151.385 69.1852 151.213 69.0615 151.073 68.9057C150.933 68.7499 150.828 68.5658 150.766 68.366C150.704 68.1661 150.685 67.9551 150.712 67.7475C150.765 67.3018 150.977 66.8904 151.309 66.5888C151.642 66.2872 152.072 66.1159 152.52 66.1063C152.73 66.102 152.938 66.143 153.13 66.2263C153.322 66.3097 153.493 66.4334 153.633 66.5892C153.773 66.745 153.878 66.9291 153.94 67.1289C154.003 67.3288 154.021 67.5398 153.994 67.7475Z" fill="url(#paint7_linear_7810_176536)"/>
<path d="M117.268 94.1972C117.188 94.1974 117.109 94.1776 117.039 94.1397C116.969 94.1018 116.909 94.0469 116.865 93.98C116.822 93.9131 116.795 93.8364 116.789 93.7567C116.782 93.6771 116.796 93.5971 116.828 93.524L125.285 74.0496C125.311 73.9883 125.349 73.9332 125.398 73.8877C125.446 73.8422 125.504 73.8074 125.566 73.7856C125.629 73.7643 125.695 73.7561 125.761 73.7614C125.827 73.7667 125.891 73.7854 125.949 73.8164L137.979 80.148L152.019 67.388C152.114 67.3025 152.24 67.2582 152.367 67.2648C152.495 67.2714 152.615 67.3283 152.701 67.4232C152.743 67.47 152.776 67.5246 152.797 67.584C152.818 67.6434 152.827 67.7064 152.824 67.7693C152.821 67.8322 152.805 67.8939 152.778 67.9508C152.751 68.0076 152.713 68.0586 152.666 68.1008L138.375 81.0896C138.302 81.1563 138.21 81.1986 138.113 81.2105C138.015 81.2223 137.916 81.2031 137.829 81.1556L125.949 74.9076L117.712 93.9068C117.675 93.9932 117.612 94.0668 117.533 94.1184C117.455 94.1699 117.362 94.1973 117.268 94.1972Z" fill="url(#paint8_linear_7810_176536)"/>
<path opacity="0.5" d="M115.47 111.568H111.541L111.739 109.602H115.668L115.47 111.568Z" fill="url(#paint9_linear_7810_176536)"/>
<path opacity="0.6" d="M121.963 111.567H118.029L118.711 104.795H122.645L121.963 111.567Z" fill="url(#paint10_linear_7810_176536)"/>
<path opacity="0.7" d="M128.454 111.568H124.521L124.921 107.634H128.85L128.454 111.568Z" fill="url(#paint11_linear_7810_176536)"/>
<path opacity="0.8" d="M134.942 111.567H131.013L131.532 106.397H135.466L134.942 111.567Z" fill="url(#paint12_linear_7810_176536)"/>
<path opacity="0.9" d="M141.438 111.568H137.504L137.821 108.431H141.754L141.438 111.568Z" fill="url(#paint13_linear_7810_176536)"/>
<path d="M147.926 111.568H143.992L144.195 109.602H148.124L147.926 111.568Z" fill="url(#paint14_linear_7810_176536)"/>
<path opacity="0.5" d="M152.562 54.3981H118.436C118.291 54.4012 118.148 54.3731 118.016 54.3157C117.883 54.2584 117.765 54.1731 117.668 54.0658C117.572 53.9584 117.5 53.8315 117.457 53.6937C117.414 53.5559 117.401 53.4105 117.419 53.2673L118.973 37.8233C119.009 37.5163 119.155 37.2326 119.383 37.0248C119.612 36.8169 119.909 36.6989 120.218 36.6925H154.349C154.493 36.6902 154.636 36.7188 154.768 36.7764C154.9 36.834 155.018 36.9192 155.114 37.0264C155.211 37.1336 155.283 37.2602 155.326 37.3977C155.369 37.5351 155.383 37.6803 155.365 37.8233L153.807 53.2673C153.771 53.5744 153.625 53.858 153.396 54.0659C153.168 54.2737 152.871 54.3917 152.562 54.3981Z" fill="white"/>
<path d="M129.156 45.5461L131.981 39.4741C133.182 39.9302 134.194 40.7771 134.855 41.8786C135.516 42.9801 135.787 44.2719 135.624 45.5461C135.434 47.106 134.751 48.5647 133.675 49.7097C132.599 50.8548 131.185 51.6266 129.64 51.9129L129.156 45.5461Z" fill="url(#paint15_linear_7810_176536)"/>
<path d="M129.157 45.5471L129.641 51.9139C129.266 51.9789 128.886 52.0112 128.506 52.0107C127.682 52.0237 126.865 51.8601 126.11 51.5307C125.355 51.2014 124.679 50.7141 124.128 50.1016C123.578 49.4891 123.165 48.7656 122.917 47.98C122.669 47.1943 122.593 46.3648 122.693 45.5471C122.906 43.7978 123.741 42.1831 125.044 40.9969C126.347 39.8107 128.033 39.1317 129.795 39.0835C130.536 39.0811 131.271 39.2138 131.964 39.4751L129.157 45.5471Z" fill="white"/>
<path d="M144.521 43.9751H146.971L146.162 52.0007H143.711L144.521 43.9751Z" fill="white"/>
<path d="M148.258 48.2437H150.709L150.331 52.0013H147.88L148.258 48.2437Z" fill="white"/>
<path d="M148.26 48.2436H150.711L150.944 45.9512H148.493L148.26 48.2436Z" fill="url(#paint16_linear_7810_176536)"/>
<path d="M144.522 43.9763H146.973L147.466 39.0835H145.015L144.522 43.9763Z" fill="url(#paint17_linear_7810_176536)"/>
<path d="M140.21 45.436H142.661L142.001 52.0008H139.55L140.21 45.436Z" fill="white"/>
<path d="M140.211 45.4354H142.662L142.965 42.4258H140.515L140.211 45.4354Z" fill="url(#paint18_linear_7810_176536)"/>
</g>
<defs>
<linearGradient id="paint0_linear_7810_176536" x1="129.908" y1="25.9289" x2="202.667" y2="8.75172" gradientUnits="userSpaceOnUse">
<stop stop-color="#005F73"/>
<stop offset="1" stop-color="#6CC24A"/>
</linearGradient>
<linearGradient id="paint1_linear_7810_176536" x1="104.636" y1="131.202" x2="211.324" y2="129.421" gradientUnits="userSpaceOnUse">
<stop stop-color="#005F73"/>
<stop offset="1" stop-color="#6CC24A"/>
</linearGradient>
<linearGradient id="paint2_linear_7810_176536" x1="74.8137" y1="136.773" x2="169.116" y2="127.15" gradientUnits="userSpaceOnUse">
<stop stop-color="#005F73"/>
<stop offset="1" stop-color="#6CC24A"/>
</linearGradient>
<linearGradient id="paint3_linear_7810_176536" x1="60.4186" y1="124.569" x2="140.868" y2="91.7954" gradientUnits="userSpaceOnUse">
<stop stop-color="#005F73"/>
<stop offset="1" stop-color="#6CC24A"/>
</linearGradient>
<linearGradient id="paint4_linear_7810_176536" x1="115.718" y1="95.1717" x2="120.372" y2="95.0504" gradientUnits="userSpaceOnUse">
<stop stop-color="#005F73"/>
<stop offset="1" stop-color="#6CC24A"/>
</linearGradient>
<linearGradient id="paint5_linear_7810_176536" x1="124.162" y1="75.6983" x2="128.832" y2="75.576" gradientUnits="userSpaceOnUse">
<stop stop-color="#005F73"/>
<stop offset="1" stop-color="#6CC24A"/>
</linearGradient>
<linearGradient id="paint6_linear_7810_176536" x1="136.498" y1="82.1924" x2="141.157" y2="82.0709" gradientUnits="userSpaceOnUse">
<stop stop-color="#005F73"/>
<stop offset="1" stop-color="#6CC24A"/>
</linearGradient>
<linearGradient id="paint7_linear_7810_176536" x1="150.797" y1="69.2066" x2="155.457" y2="69.085" gradientUnits="userSpaceOnUse">
<stop stop-color="#005F73"/>
<stop offset="1" stop-color="#6CC24A"/>
</linearGradient>
<linearGradient id="paint8_linear_7810_176536" x1="117.845" y1="92.7009" x2="168.612" y2="90.9415" gradientUnits="userSpaceOnUse">
<stop stop-color="#005F73"/>
<stop offset="1" stop-color="#6CC24A"/>
</linearGradient>
<linearGradient id="paint9_linear_7810_176536" x1="111.662" y1="111.459" x2="117.466" y2="111.144" gradientUnits="userSpaceOnUse">
<stop stop-color="#005F73"/>
<stop offset="1" stop-color="#6CC24A"/>
</linearGradient>
<linearGradient id="paint10_linear_7810_176536" x1="118.165" y1="111.191" x2="124.673" y2="111.076" gradientUnits="userSpaceOnUse">
<stop stop-color="#005F73"/>
<stop offset="1" stop-color="#6CC24A"/>
</linearGradient>
<linearGradient id="paint11_linear_7810_176536" x1="124.648" y1="111.349" x2="130.749" y2="111.175" gradientUnits="userSpaceOnUse">
<stop stop-color="#005F73"/>
<stop offset="1" stop-color="#6CC24A"/>
</linearGradient>
<linearGradient id="paint12_linear_7810_176536" x1="131.143" y1="111.28" x2="137.421" y2="111.14" gradientUnits="userSpaceOnUse">
<stop stop-color="#005F73"/>
<stop offset="1" stop-color="#6CC24A"/>
</linearGradient>
<linearGradient id="paint13_linear_7810_176536" x1="137.629" y1="111.394" x2="143.616" y2="111.183" gradientUnits="userSpaceOnUse">
<stop stop-color="#005F73"/>
<stop offset="1" stop-color="#6CC24A"/>
</linearGradient>
<linearGradient id="paint14_linear_7810_176536" x1="144.113" y1="111.459" x2="149.924" y2="111.143" gradientUnits="userSpaceOnUse">
<stop stop-color="#005F73"/>
<stop offset="1" stop-color="#6CC24A"/>
</linearGradient>
<linearGradient id="paint15_linear_7810_176536" x1="129.347" y1="51.2219" x2="138.533" y2="51.0973" gradientUnits="userSpaceOnUse">
<stop stop-color="#005F73"/>
<stop offset="1" stop-color="#6CC24A"/>
</linearGradient>
<linearGradient id="paint16_linear_7810_176536" x1="148.339" y1="48.1162" x2="152.121" y2="48.0015" gradientUnits="userSpaceOnUse">
<stop stop-color="#005F73"/>
<stop offset="1" stop-color="#6CC24A"/>
</linearGradient>
<linearGradient id="paint17_linear_7810_176536" x1="144.609" y1="43.7045" x2="148.76" y2="43.6398" gradientUnits="userSpaceOnUse">
<stop stop-color="#005F73"/>
<stop offset="1" stop-color="#6CC24A"/>
</linearGradient>
<linearGradient id="paint18_linear_7810_176536" x1="140.292" y1="45.2682" x2="144.174" y2="45.1761" gradientUnits="userSpaceOnUse">
<stop stop-color="#005F73"/>
<stop offset="1" stop-color="#6CC24A"/>
</linearGradient>
</defs>
</svg>
