<svg width="12" height="12" viewBox="0 0 12 12" fill="none" xmlns="http://www.w3.org/2000/svg">
<mask id="path-1-inside-1_6485_102886" fill="white">
<path d="M7.275 11.21C7.11 11.21 6.955 11.1 6.91 10.93C6.86 10.73 6.975 10.525 7.175 10.47C9.205 9.935 10.62 8.095 10.62 5.995C10.62 3.445 8.545 1.37 5.995 1.37C3.83 1.37 2.41 2.635 1.745 3.4H3.215C3.42 3.4 3.59 3.57 3.59 3.775C3.59 3.98 3.43 4.155 3.22 4.155H1.005C0.97 4.155 0.935 4.15 0.9 4.14C0.855 4.125 0.815 4.105 0.78 4.08C0.735 4.05 0.7 4.01 0.675 3.965C0.65 3.915 0.63 3.865 0.625 3.81C0.625 3.795 0.625 3.785 0.625 3.77V1.5C0.625 1.295 0.795 1.125 1 1.125C1.205 1.125 1.375 1.295 1.375 1.5V2.695C2.19 1.82 3.725 0.625 6 0.625C8.965 0.625 11.375 3.035 11.375 6C11.375 8.44 9.73 10.58 7.37 11.2C7.34 11.205 7.305 11.21 7.275 11.21Z"/>
</mask>
<path d="M7.275 11.21C7.11 11.21 6.955 11.1 6.91 10.93C6.86 10.73 6.975 10.525 7.175 10.47C9.205 9.935 10.62 8.095 10.62 5.995C10.62 3.445 8.545 1.37 5.995 1.37C3.83 1.37 2.41 2.635 1.745 3.4H3.215C3.42 3.4 3.59 3.57 3.59 3.775C3.59 3.98 3.43 4.155 3.22 4.155H1.005C0.97 4.155 0.935 4.15 0.9 4.14C0.855 4.125 0.815 4.105 0.78 4.08C0.735 4.05 0.7 4.01 0.675 3.965C0.65 3.915 0.63 3.865 0.625 3.81C0.625 3.795 0.625 3.785 0.625 3.77V1.5C0.625 1.295 0.795 1.125 1 1.125C1.205 1.125 1.375 1.295 1.375 1.5V2.695C2.19 1.82 3.725 0.625 6 0.625C8.965 0.625 11.375 3.035 11.375 6C11.375 8.44 9.73 10.58 7.37 11.2C7.34 11.205 7.305 11.21 7.275 11.21Z" fill="#005F73"/>
<path d="M6.91 10.93L5.93976 11.1726L5.94329 11.1859L6.91 10.93ZM7.175 10.47L6.92014 9.50296L6.90984 9.50579L7.175 10.47ZM1.745 3.4L0.990288 2.74394L-0.44929 4.4H1.745V3.4ZM0.9 4.14L0.583772 5.08868L0.604386 5.09555L0.625279 5.10152L0.9 4.14ZM0.78 4.08L1.36124 3.26627L1.34812 3.25689L1.3347 3.24795L0.78 4.08ZM0.675 3.965L-0.219427 4.41221L-0.20971 4.43165L-0.199157 4.45064L0.675 3.965ZM0.625 3.81H-0.375V3.85536L-0.370893 3.90054L0.625 3.81ZM1.375 2.695H0.375V5.23581L2.10675 3.37657L1.375 2.695ZM7.37 11.2L7.5344 12.1864L7.57969 12.1788L7.62409 12.1672L7.37 11.2ZM7.275 10.21C7.54251 10.21 7.80025 10.3853 7.87671 10.6741L5.94329 11.1859C6.10974 11.8147 6.67749 12.21 7.275 12.21V10.21ZM7.88014 10.6875C7.95753 10.997 7.78102 11.3405 7.44016 11.4342L6.90984 9.50579C6.16898 9.70953 5.76247 10.463 5.93986 11.1725L7.88014 10.6875ZM7.42985 11.437C9.90001 10.786 11.62 8.54807 11.62 5.995H9.62C9.62 7.64192 8.50999 9.08402 6.92016 9.50302L7.42985 11.437ZM11.62 5.995C11.62 2.89272 9.09728 0.37 5.995 0.37V2.37C7.99272 2.37 9.62 3.99728 9.62 5.995H11.62ZM5.995 0.37C3.41163 0.37 1.74008 1.8814 0.990288 2.74394L2.49971 4.05606C3.07992 3.3886 4.24837 2.37 5.995 2.37V0.37ZM1.745 4.4H3.215V2.4H1.745V4.4ZM3.215 4.4C2.86772 4.4 2.59 4.12228 2.59 3.775H4.59C4.59 3.01772 3.97228 2.4 3.215 2.4V4.4ZM2.59 3.775C2.59 3.47165 2.83478 3.155 3.22 3.155V5.155C4.02522 5.155 4.59 4.48835 4.59 3.775H2.59ZM3.22 3.155H1.005V5.155H3.22V3.155ZM1.005 3.155C1.06659 3.155 1.12398 3.16398 1.17472 3.17848L0.625279 5.10152C0.746023 5.13602 0.873415 5.155 1.005 5.155V3.155ZM1.21623 3.19132C1.25616 3.20463 1.30725 3.2277 1.36124 3.26627L0.198762 4.89373C0.322749 4.9823 0.453838 5.04537 0.583772 5.08868L1.21623 3.19132ZM1.3347 3.24795C1.43382 3.31403 1.50383 3.39777 1.54916 3.47936L-0.199157 4.45064C-0.103831 4.62223 0.0361754 4.78597 0.2253 4.91205L1.3347 3.24795ZM1.56943 3.51779C1.56438 3.5077 1.60911 3.58983 1.62089 3.71946L-0.370893 3.90054C-0.349108 4.14017 -0.264384 4.3223 -0.219427 4.41221L1.56943 3.51779ZM1.625 3.81C1.625 3.80997 1.625 3.80994 1.625 3.80991C1.625 3.80988 1.625 3.80985 1.625 3.80982C1.625 3.8098 1.625 3.80977 1.625 3.80974C1.625 3.80971 1.625 3.80968 1.625 3.80965C1.625 3.80962 1.625 3.80959 1.625 3.80956C1.625 3.80953 1.625 3.8095 1.625 3.80947C1.625 3.80945 1.625 3.80942 1.625 3.80939C1.625 3.80936 1.625 3.80933 1.625 3.8093C1.625 3.80927 1.625 3.80924 1.625 3.80921C1.625 3.80918 1.625 3.80916 1.625 3.80913C1.625 3.8091 1.625 3.80907 1.625 3.80904C1.625 3.80901 1.625 3.80898 1.625 3.80895C1.625 3.80892 1.625 3.8089 1.625 3.80887C1.625 3.80884 1.625 3.80881 1.625 3.80878C1.625 3.80875 1.625 3.80872 1.625 3.80869C1.625 3.80867 1.625 3.80864 1.625 3.80861C1.625 3.80858 1.625 3.80855 1.625 3.80852C1.625 3.80849 1.625 3.80846 1.625 3.80844C1.625 3.80841 1.625 3.80838 1.625 3.80835C1.625 3.80832 1.625 3.80829 1.625 3.80826C1.625 3.80824 1.625 3.80821 1.625 3.80818C1.625 3.80815 1.625 3.80812 1.625 3.80809C1.625 3.80806 1.625 3.80804 1.625 3.80801C1.625 3.80798 1.625 3.80795 1.625 3.80792C1.625 3.80789 1.625 3.80787 1.625 3.80784C1.625 3.80781 1.625 3.80778 1.625 3.80775C1.625 3.80772 1.625 3.8077 1.625 3.80767C1.625 3.80764 1.625 3.80761 1.625 3.80758C1.625 3.80755 1.625 3.80753 1.625 3.8075C1.625 3.80747 1.625 3.80744 1.625 3.80741C1.625 3.80738 1.625 3.80736 1.625 3.80733C1.625 3.8073 1.625 3.80727 1.625 3.80724C1.625 3.80722 1.625 3.80719 1.625 3.80716C1.625 3.80713 1.625 3.8071 1.625 3.80707C1.625 3.80705 1.625 3.80702 1.625 3.80699C1.625 3.80696 1.625 3.80693 1.625 3.80691C1.625 3.80688 1.625 3.80685 1.625 3.80682C1.625 3.80679 1.625 3.80677 1.625 3.80674C1.625 3.80671 1.625 3.80668 1.625 3.80665C1.625 3.80663 1.625 3.8066 1.625 3.80657C1.625 3.80654 1.625 3.80652 1.625 3.80649C1.625 3.80646 1.625 3.80643 1.625 3.8064C1.625 3.80638 1.625 3.80635 1.625 3.80632C1.625 3.80629 1.625 3.80626 1.625 3.80624C1.625 3.80621 1.625 3.80618 1.625 3.80615C1.625 3.80613 1.625 3.8061 1.625 3.80607C1.625 3.80604 1.625 3.80602 1.625 3.80599C1.625 3.80596 1.625 3.80593 1.625 3.8059C1.625 3.80588 1.625 3.80585 1.625 3.80582C1.625 3.80579 1.625 3.80577 1.625 3.80574C1.625 3.80571 1.625 3.80568 1.625 3.80566C1.625 3.80563 1.625 3.8056 1.625 3.80557C1.625 3.80555 1.625 3.80552 1.625 3.80549C1.625 3.80546 1.625 3.80544 1.625 3.80541C1.625 3.80538 1.625 3.80535 1.625 3.80533C1.625 3.8053 1.625 3.80527 1.625 3.80524C1.625 3.80522 1.625 3.80519 1.625 3.80516C1.625 3.80514 1.625 3.80511 1.625 3.80508C1.625 3.80505 1.625 3.80503 1.625 3.805C1.625 3.80497 1.625 3.80494 1.625 3.80492C1.625 3.80489 1.625 3.80486 1.625 3.80483C1.625 3.80481 1.625 3.80478 1.625 3.80475C1.625 3.80473 1.625 3.8047 1.625 3.80467C1.625 3.80464 1.625 3.80462 1.625 3.80459C1.625 3.80456 1.625 3.80454 1.625 3.80451C1.625 3.80448 1.625 3.80445 1.625 3.80443C1.625 3.8044 1.625 3.80437 1.625 3.80435C1.625 3.80432 1.625 3.80429 1.625 3.80426C1.625 3.80424 1.625 3.80421 1.625 3.80418C1.625 3.80416 1.625 3.80413 1.625 3.8041C1.625 3.80408 1.625 3.80405 1.625 3.80402C1.625 3.80399 1.625 3.80397 1.625 3.80394C1.625 3.80391 1.625 3.80389 1.625 3.80386C1.625 3.80383 1.625 3.80381 1.625 3.80378C1.625 3.80375 1.625 3.80373 1.625 3.8037C1.625 3.80367 1.625 3.80364 1.625 3.80362C1.625 3.80359 1.625 3.80356 1.625 3.80354C1.625 3.80351 1.625 3.80348 1.625 3.80346C1.625 3.80343 1.625 3.8034 1.625 3.80338C1.625 3.80335 1.625 3.80332 1.625 3.8033C1.625 3.80327 1.625 3.80324 1.625 3.80322C1.625 3.80319 1.625 3.80316 1.625 3.80314C1.625 3.80311 1.625 3.80308 1.625 3.80306C1.625 3.80303 1.625 3.803 1.625 3.80298C1.625 3.80295 1.625 3.80292 1.625 3.8029C1.625 3.80287 1.625 3.80284 1.625 3.80282C1.625 3.80279 1.625 3.80276 1.625 3.80274C1.625 3.80271 1.625 3.80268 1.625 3.80266C1.625 3.80263 1.625 3.8026 1.625 3.80258C1.625 3.80255 1.625 3.80253 1.625 3.8025C1.625 3.80247 1.625 3.80245 1.625 3.80242C1.625 3.80239 1.625 3.80237 1.625 3.80234C1.625 3.80231 1.625 3.80229 1.625 3.80226C1.625 3.80223 1.625 3.80221 1.625 3.80218C1.625 3.80216 1.625 3.80213 1.625 3.8021C1.625 3.80208 1.625 3.80205 1.625 3.80202C1.625 3.802 1.625 3.80197 1.625 3.80194C1.625 3.80192 1.625 3.80189 1.625 3.80187C1.625 3.80184 1.625 3.80181 1.625 3.80179C1.625 3.80176 1.625 3.80173 1.625 3.80171C1.625 3.80168 1.625 3.80166 1.625 3.80163C1.625 3.8016 1.625 3.80158 1.625 3.80155C1.625 3.80153 1.625 3.8015 1.625 3.80147C1.625 3.80145 1.625 3.80142 1.625 3.80139C1.625 3.80137 1.625 3.80134 1.625 3.80132C1.625 3.80129 1.625 3.80126 1.625 3.80124C1.625 3.80121 1.625 3.80119 1.625 3.80116C1.625 3.80113 1.625 3.80111 1.625 3.80108C1.625 3.80106 1.625 3.80103 1.625 3.801C1.625 3.80098 1.625 3.80095 1.625 3.80093C1.625 3.8009 1.625 3.80087 1.625 3.80085C1.625 3.80082 1.625 3.8008 1.625 3.80077C1.625 3.80074 1.625 3.80072 1.625 3.80069C1.625 3.80067 1.625 3.80064 1.625 3.80061C1.625 3.80059 1.625 3.80056 1.625 3.80054C1.625 3.80051 1.625 3.80048 1.625 3.80046C1.625 3.80043 1.625 3.80041 1.625 3.80038C1.625 3.80035 1.625 3.80033 1.625 3.8003C1.625 3.80028 1.625 3.80025 1.625 3.80023C1.625 3.8002 1.625 3.80017 1.625 3.80015C1.625 3.80012 1.625 3.8001 1.625 3.80007C1.625 3.80005 1.625 3.80002 1.625 3.79999C1.625 3.79997 1.625 3.79994 1.625 3.79992C1.625 3.79989 1.625 3.79987 1.625 3.79984C1.625 3.79981 1.625 3.79979 1.625 3.79976C1.625 3.79974 1.625 3.79971 1.625 3.79969C1.625 3.79966 1.625 3.79963 1.625 3.79961C1.625 3.79958 1.625 3.79956 1.625 3.79953C1.625 3.79951 1.625 3.79948 1.625 3.79945C1.625 3.79943 1.625 3.7994 1.625 3.79938C1.625 3.79935 1.625 3.79933 1.625 3.7993C1.625 3.79928 1.625 3.79925 1.625 3.79922C1.625 3.7992 1.625 3.79917 1.625 3.79915C1.625 3.79912 1.625 3.7991 1.625 3.79907C1.625 3.79905 1.625 3.79902 1.625 3.79899C1.625 3.79897 1.625 3.79894 1.625 3.79892C1.625 3.79889 1.625 3.79887 1.625 3.79884C1.625 3.79882 1.625 3.79879 1.625 3.79876C1.625 3.79874 1.625 3.79871 1.625 3.79869C1.625 3.79866 1.625 3.79864 1.625 3.79861C1.625 3.79859 1.625 3.79856 1.625 3.79854C1.625 3.79851 1.625 3.79849 1.625 3.79846C1.625 3.79843 1.625 3.79841 1.625 3.79838C1.625 3.79836 1.625 3.79833 1.625 3.79831C1.625 3.79828 1.625 3.79826 1.625 3.79823C1.625 3.79821 1.625 3.79818 1.625 3.79816C1.625 3.79813 1.625 3.79811 1.625 3.79808C1.625 3.79805 1.625 3.79803 1.625 3.798C1.625 3.79798 1.625 3.79795 1.625 3.79793C1.625 3.7979 1.625 3.79788 1.625 3.79785C1.625 3.79783 1.625 3.7978 1.625 3.79778C1.625 3.79775 1.625 3.79773 1.625 3.7977C1.625 3.79768 1.625 3.79765 1.625 3.79763C1.625 3.7976 1.625 3.79757 1.625 3.79755C1.625 3.79752 1.625 3.7975 1.625 3.79747C1.625 3.79745 1.625 3.79742 1.625 3.7974C1.625 3.79737 1.625 3.79735 1.625 3.79732C1.625 3.7973 1.625 3.79727 1.625 3.79725C1.625 3.79722 1.625 3.7972 1.625 3.79717C1.625 3.79715 1.625 3.79712 1.625 3.7971C1.625 3.79707 1.625 3.79705 1.625 3.79702C1.625 3.797 1.625 3.79697 1.625 3.79695C1.625 3.79692 1.625 3.7969 1.625 3.79687C1.625 3.79685 1.625 3.79682 1.625 3.7968C1.625 3.79677 1.625 3.79675 1.625 3.79672C1.625 3.7967 1.625 3.79667 1.625 3.79665C1.625 3.79662 1.625 3.7966 1.625 3.79657C1.625 3.79655 1.625 3.79652 1.625 3.7965C1.625 3.79647 1.625 3.79645 1.625 3.79642C1.625 3.7964 1.625 3.79637 1.625 3.79635C1.625 3.79632 1.625 3.7963 1.625 3.79627C1.625 3.79625 1.625 3.79622 1.625 3.7962C1.625 3.79617 1.625 3.79615 1.625 3.79612C1.625 3.7961 1.625 3.79607 1.625 3.79605C1.625 3.79602 1.625 3.796 1.625 3.79597C1.625 3.79595 1.625 3.79592 1.625 3.7959C1.625 3.79587 1.625 3.79585 1.625 3.79582C1.625 3.7958 1.625 3.79577 1.625 3.79575C1.625 3.79572 1.625 3.7957 1.625 3.79567C1.625 3.79565 1.625 3.79562 1.625 3.7956C1.625 3.79557 1.625 3.79555 1.625 3.79552C1.625 3.7955 1.625 3.79548 1.625 3.79545C1.625 3.79543 1.625 3.7954 1.625 3.79538C1.625 3.79535 1.625 3.79533 1.625 3.7953C1.625 3.79528 1.625 3.79525 1.625 3.79523C1.625 3.7952 1.625 3.79518 1.625 3.79515C1.625 3.79513 1.625 3.7951 1.625 3.79508C1.625 3.79505 1.625 3.79503 1.625 3.795C1.625 3.79498 1.625 3.79495 1.625 3.79493C1.625 3.7949 1.625 3.79488 1.625 3.79486C1.625 3.79483 1.625 3.79481 1.625 3.79478C1.625 3.79476 1.625 3.79473 1.625 3.79471C1.625 3.79468 1.625 3.79466 1.625 3.79463C1.625 3.79461 1.625 3.79458 1.625 3.79456C1.625 3.79453 1.625 3.79451 1.625 3.79448C1.625 3.79446 1.625 3.79444 1.625 3.79441C1.625 3.79439 1.625 3.79436 1.625 3.79434C1.625 3.79431 1.625 3.79429 1.625 3.79426C1.625 3.79424 1.625 3.79421 1.625 3.79419C1.625 3.79416 1.625 3.79414 1.625 3.79411C1.625 3.79409 1.625 3.79407 1.625 3.79404C1.625 3.79402 1.625 3.79399 1.625 3.79397C1.625 3.79394 1.625 3.79392 1.625 3.79389C1.625 3.79387 1.625 3.79384 1.625 3.79382C1.625 3.79379 1.625 3.79377 1.625 3.79375C1.625 3.79372 1.625 3.7937 1.625 3.79367C1.625 3.79365 1.625 3.79362 1.625 3.7936C1.625 3.79357 1.625 3.79355 1.625 3.79352C1.625 3.7935 1.625 3.79347 1.625 3.79345C1.625 3.79343 1.625 3.7934 1.625 3.79338C1.625 3.79335 1.625 3.79333 1.625 3.7933C1.625 3.79328 1.625 3.79325 1.625 3.79323C1.625 3.7932 1.625 3.79318 1.625 3.79316C1.625 3.79313 1.625 3.79311 1.625 3.79308C1.625 3.79306 1.625 3.79303 1.625 3.79301C1.625 3.79298 1.625 3.79296 1.625 3.79293C1.625 3.79291 1.625 3.79289 1.625 3.79286C1.625 3.79284 1.625 3.79281 1.625 3.79279C1.625 3.79276 1.625 3.79274 1.625 3.79271C1.625 3.79269 1.625 3.79266 1.625 3.79264C1.625 3.79262 1.625 3.79259 1.625 3.79257C1.625 3.79254 1.625 3.79252 1.625 3.79249C1.625 3.79247 1.625 3.79244 1.625 3.79242C1.625 3.7924 1.625 3.79237 1.625 3.79235C1.625 3.79232 1.625 3.7923 1.625 3.79227C1.625 3.79225 1.625 3.79222 1.625 3.7922C1.625 3.79217 1.625 3.79215 1.625 3.79213C1.625 3.7921 1.625 3.79208 1.625 3.79205C1.625 3.79203 1.625 3.792 1.625 3.79198C1.625 3.79195 1.625 3.79193 1.625 3.79191C1.625 3.79188 1.625 3.79186 1.625 3.79183C1.625 3.79181 1.625 3.79178 1.625 3.79176C1.625 3.79173 1.625 3.79171 1.625 3.79169C1.625 3.79166 1.625 3.79164 1.625 3.79161C1.625 3.79159 1.625 3.79156 1.625 3.79154C1.625 3.79151 1.625 3.79149 1.625 3.79147C1.625 3.79144 1.625 3.79142 1.625 3.79139C1.625 3.79137 1.625 3.79134 1.625 3.79132C1.625 3.79129 1.625 3.79127 1.625 3.79125C1.625 3.79122 1.625 3.7912 1.625 3.79117C1.625 3.79115 1.625 3.79112 1.625 3.7911C1.625 3.79107 1.625 3.79105 1.625 3.79103C1.625 3.791 1.625 3.79098 1.625 3.79095C1.625 3.79093 1.625 3.7909 1.625 3.79088C1.625 3.79085 1.625 3.79083 1.625 3.79081C1.625 3.79078 1.625 3.79076 1.625 3.79073C1.625 3.79071 1.625 3.79068 1.625 3.79066C1.625 3.79063 1.625 3.79061 1.625 3.79059C1.625 3.79056 1.625 3.79054 1.625 3.79051C1.625 3.79049 1.625 3.79046 1.625 3.79044C1.625 3.79042 1.625 3.79039 1.625 3.79037C1.625 3.79034 1.625 3.79032 1.625 3.79029C1.625 3.79027 1.625 3.79024 1.625 3.79022C1.625 3.7902 1.625 3.79017 1.625 3.79015C1.625 3.79012 1.625 3.7901 1.625 3.79007C1.625 3.79005 1.625 3.79002 1.625 3.79C1.625 3.78998 1.625 3.78995 1.625 3.78993C1.625 3.7899 1.625 3.78988 1.625 3.78985C1.625 3.78983 1.625 3.7898 1.625 3.78978C1.625 3.78976 1.625 3.78973 1.625 3.78971C1.625 3.78968 1.625 3.78966 1.625 3.78963C1.625 3.78961 1.625 3.78958 1.625 3.78956C1.625 3.78954 1.625 3.78951 1.625 3.78949C1.625 3.78946 1.625 3.78944 1.625 3.78941C1.625 3.78939 1.625 3.78937 1.625 3.78934C1.625 3.78932 1.625 3.78929 1.625 3.78927C1.625 3.78924 1.625 3.78922 1.625 3.78919C1.625 3.78917 1.625 3.78915 1.625 3.78912C1.625 3.7891 1.625 3.78907 1.625 3.78905C1.625 3.78902 1.625 3.789 1.625 3.78897C1.625 3.78895 1.625 3.78893 1.625 3.7889C1.625 3.78888 1.625 3.78885 1.625 3.78883C1.625 3.7888 1.625 3.78878 1.625 3.78875C1.625 3.78873 1.625 3.78871 1.625 3.78868C1.625 3.78866 1.625 3.78863 1.625 3.78861C1.625 3.78858 1.625 3.78856 1.625 3.78853C1.625 3.78851 1.625 3.78849 1.625 3.78846C1.625 3.78844 1.625 3.78841 1.625 3.78839C1.625 3.78836 1.625 3.78834 1.625 3.78831C1.625 3.78829 1.625 3.78827 1.625 3.78824C1.625 3.78822 1.625 3.78819 1.625 3.78817C1.625 3.78814 1.625 3.78812 1.625 3.78809C1.625 3.78807 1.625 3.78805 1.625 3.78802C1.625 3.788 1.625 3.78797 1.625 3.78795C1.625 3.78792 1.625 3.7879 1.625 3.78787C1.625 3.78785 1.625 3.78783 1.625 3.7878C1.625 3.78778 1.625 3.78775 1.625 3.78773C1.625 3.7877 1.625 3.78768 1.625 3.78765C1.625 3.78763 1.625 3.7876 1.625 3.78758C1.625 3.78756 1.625 3.78753 1.625 3.78751C1.625 3.78748 1.625 3.78746 1.625 3.78743C1.625 3.78741 1.625 3.78738 1.625 3.78736C1.625 3.78734 1.625 3.78731 1.625 3.78729C1.625 3.78726 1.625 3.78724 1.625 3.78721C1.625 3.78719 1.625 3.78716 1.625 3.78714C1.625 3.78711 1.625 3.78709 1.625 3.78707C1.625 3.78704 1.625 3.78702 1.625 3.78699C1.625 3.78697 1.625 3.78694 1.625 3.78692C1.625 3.78689 1.625 3.78687 1.625 3.78684C1.625 3.78682 1.625 3.7868 1.625 3.78677C1.625 3.78675 1.625 3.78672 1.625 3.7867C1.625 3.78667 1.625 3.78665 1.625 3.78662C1.625 3.7866 1.625 3.78657 1.625 3.78655C1.625 3.78653 1.625 3.7865 1.625 3.78648C1.625 3.78645 1.625 3.78643 1.625 3.7864C1.625 3.78638 1.625 3.78635 1.625 3.78633C1.625 3.7863 1.625 3.78628 1.625 3.78625C1.625 3.78623 1.625 3.78621 1.625 3.78618C1.625 3.78616 1.625 3.78613 1.625 3.78611C1.625 3.78608 1.625 3.78606 1.625 3.78603C1.625 3.78601 1.625 3.78598 1.625 3.78596C1.625 3.78593 1.625 3.78591 1.625 3.78589C1.625 3.78586 1.625 3.78584 1.625 3.78581C1.625 3.78579 1.625 3.78576 1.625 3.78574C1.625 3.78571 1.625 3.78569 1.625 3.78566C1.625 3.78564 1.625 3.78561 1.625 3.78559C1.625 3.78556 1.625 3.78554 1.625 3.78552C1.625 3.78549 1.625 3.78547 1.625 3.78544C1.625 3.78542 1.625 3.78539 1.625 3.78537C1.625 3.78534 1.625 3.78532 1.625 3.78529C1.625 3.78527 1.625 3.78524 1.625 3.78522C1.625 3.78519 1.625 3.78517 1.625 3.78514C1.625 3.78512 1.625 3.78509 1.625 3.78507C1.625 3.78505 1.625 3.78502 1.625 3.785C1.625 3.78497 1.625 3.78495 1.625 3.78492C1.625 3.7849 1.625 3.78487 1.625 3.78485C1.625 3.78482 1.625 3.7848 1.625 3.78477C1.625 3.78475 1.625 3.78472 1.625 3.7847C1.625 3.78467 1.625 3.78465 1.625 3.78462C1.625 3.7846 1.625 3.78457 1.625 3.78455C1.625 3.78452 1.625 3.7845 1.625 3.78448C1.625 3.78445 1.625 3.78443 1.625 3.7844C1.625 3.78438 1.625 3.78435 1.625 3.78433C1.625 3.7843 1.625 3.78428 1.625 3.78425C1.625 3.78423 1.625 3.7842 1.625 3.78418C1.625 3.78415 1.625 3.78413 1.625 3.7841C1.625 3.78408 1.625 3.78405 1.625 3.78403C1.625 3.784 1.625 3.78398 1.625 3.78395C1.625 3.78393 1.625 3.7839 1.625 3.78388C1.625 3.78385 1.625 3.78383 1.625 3.7838C1.625 3.78378 1.625 3.78375 1.625 3.78373C1.625 3.7837 1.625 3.78368 1.625 3.78365C1.625 3.78363 1.625 3.7836 1.625 3.78358C1.625 3.78355 1.625 3.78353 1.625 3.7835C1.625 3.78348 1.625 3.78345 1.625 3.78343C1.625 3.7834 1.625 3.78338 1.625 3.78335C1.625 3.78333 1.625 3.7833 1.625 3.78328C1.625 3.78325 1.625 3.78323 1.625 3.7832C1.625 3.78318 1.625 3.78315 1.625 3.78313C1.625 3.7831 1.625 3.78308 1.625 3.78305C1.625 3.78303 1.625 3.783 1.625 3.78298C1.625 3.78295 1.625 3.78293 1.625 3.7829C1.625 3.78288 1.625 3.78285 1.625 3.78283C1.625 3.7828 1.625 3.78278 1.625 3.78275C1.625 3.78273 1.625 3.7827 1.625 3.78268C1.625 3.78265 1.625 3.78263 1.625 3.7826C1.625 3.78258 1.625 3.78255 1.625 3.78253C1.625 3.7825 1.625 3.78248 1.625 3.78245C1.625 3.78242 1.625 3.7824 1.625 3.78237C1.625 3.78235 1.625 3.78232 1.625 3.7823C1.625 3.78227 1.625 3.78225 1.625 3.78222C1.625 3.7822 1.625 3.78217 1.625 3.78215C1.625 3.78212 1.625 3.7821 1.625 3.78207C1.625 3.78205 1.625 3.78202 1.625 3.782C1.625 3.78197 1.625 3.78195 1.625 3.78192C1.625 3.78189 1.625 3.78187 1.625 3.78184C1.625 3.78182 1.625 3.78179 1.625 3.78177C1.625 3.78174 1.625 3.78172 1.625 3.78169C1.625 3.78167 1.625 3.78164 1.625 3.78162C1.625 3.78159 1.625 3.78157 1.625 3.78154C1.625 3.78151 1.625 3.78149 1.625 3.78146C1.625 3.78144 1.625 3.78141 1.625 3.78139C1.625 3.78136 1.625 3.78134 1.625 3.78131C1.625 3.78129 1.625 3.78126 1.625 3.78123C1.625 3.78121 1.625 3.78118 1.625 3.78116C1.625 3.78113 1.625 3.78111 1.625 3.78108C1.625 3.78106 1.625 3.78103 1.625 3.78101C1.625 3.78098 1.625 3.78095 1.625 3.78093C1.625 3.7809 1.625 3.78088 1.625 3.78085C1.625 3.78083 1.625 3.7808 1.625 3.78078C1.625 3.78075 1.625 3.78072 1.625 3.7807C1.625 3.78067 1.625 3.78065 1.625 3.78062C1.625 3.7806 1.625 3.78057 1.625 3.78055C1.625 3.78052 1.625 3.78049 1.625 3.78047C1.625 3.78044 1.625 3.78042 1.625 3.78039C1.625 3.78037 1.625 3.78034 1.625 3.78031C1.625 3.78029 1.625 3.78026 1.625 3.78024C1.625 3.78021 1.625 3.78019 1.625 3.78016C1.625 3.78013 1.625 3.78011 1.625 3.78008C1.625 3.78006 1.625 3.78003 1.625 3.78001C1.625 3.77998 1.625 3.77995 1.625 3.77993C1.625 3.7799 1.625 3.77988 1.625 3.77985C1.625 3.77983 1.625 3.7798 1.625 3.77977C1.625 3.77975 1.625 3.77972 1.625 3.7797C1.625 3.77967 1.625 3.77964 1.625 3.77962C1.625 3.77959 1.625 3.77957 1.625 3.77954C1.625 3.77952 1.625 3.77949 1.625 3.77946C1.625 3.77944 1.625 3.77941 1.625 3.77939C1.625 3.77936 1.625 3.77933 1.625 3.77931C1.625 3.77928 1.625 3.77926 1.625 3.77923C1.625 3.7792 1.625 3.77918 1.625 3.77915C1.625 3.77913 1.625 3.7791 1.625 3.77907C1.625 3.77905 1.625 3.77902 1.625 3.779C1.625 3.77897 1.625 3.77894 1.625 3.77892C1.625 3.77889 1.625 3.77887 1.625 3.77884C1.625 3.77881 1.625 3.77879 1.625 3.77876C1.625 3.77874 1.625 3.77871 1.625 3.77868C1.625 3.77866 1.625 3.77863 1.625 3.77861C1.625 3.77858 1.625 3.77855 1.625 3.77853C1.625 3.7785 1.625 3.77847 1.625 3.77845C1.625 3.77842 1.625 3.7784 1.625 3.77837C1.625 3.77834 1.625 3.77832 1.625 3.77829C1.625 3.77826 1.625 3.77824 1.625 3.77821C1.625 3.77819 1.625 3.77816 1.625 3.77813C1.625 3.77811 1.625 3.77808 1.625 3.77805C1.625 3.77803 1.625 3.778 1.625 3.77798C1.625 3.77795 1.625 3.77792 1.625 3.7779C1.625 3.77787 1.625 3.77784 1.625 3.77782C1.625 3.77779 1.625 3.77777 1.625 3.77774C1.625 3.77771 1.625 3.77769 1.625 3.77766C1.625 3.77763 1.625 3.77761 1.625 3.77758C1.625 3.77755 1.625 3.77753 1.625 3.7775C1.625 3.77747 1.625 3.77745 1.625 3.77742C1.625 3.7774 1.625 3.77737 1.625 3.77734C1.625 3.77732 1.625 3.77729 1.625 3.77726C1.625 3.77724 1.625 3.77721 1.625 3.77718C1.625 3.77716 1.625 3.77713 1.625 3.7771C1.625 3.77708 1.625 3.77705 1.625 3.77702C1.625 3.777 1.625 3.77697 1.625 3.77694C1.625 3.77692 1.625 3.77689 1.625 3.77686C1.625 3.77684 1.625 3.77681 1.625 3.77678C1.625 3.77676 1.625 3.77673 1.625 3.7767C1.625 3.77668 1.625 3.77665 1.625 3.77662C1.625 3.7766 1.625 3.77657 1.625 3.77654C1.625 3.77652 1.625 3.77649 1.625 3.77646C1.625 3.77644 1.625 3.77641 1.625 3.77638C1.625 3.77636 1.625 3.77633 1.625 3.7763C1.625 3.77627 1.625 3.77625 1.625 3.77622C1.625 3.77619 1.625 3.77617 1.625 3.77614C1.625 3.77611 1.625 3.77609 1.625 3.77606C1.625 3.77603 1.625 3.77601 1.625 3.77598C1.625 3.77595 1.625 3.77592 1.625 3.7759C1.625 3.77587 1.625 3.77584 1.625 3.77582C1.625 3.77579 1.625 3.77576 1.625 3.77574C1.625 3.77571 1.625 3.77568 1.625 3.77565C1.625 3.77563 1.625 3.7756 1.625 3.77557C1.625 3.77555 1.625 3.77552 1.625 3.77549C1.625 3.77546 1.625 3.77544 1.625 3.77541C1.625 3.77538 1.625 3.77536 1.625 3.77533C1.625 3.7753 1.625 3.77527 1.625 3.77525C1.625 3.77522 1.625 3.77519 1.625 3.77517C1.625 3.77514 1.625 3.77511 1.625 3.77508C1.625 3.77506 1.625 3.77503 1.625 3.775C1.625 3.77497 1.625 3.77495 1.625 3.77492C1.625 3.77489 1.625 3.77486 1.625 3.77484C1.625 3.77481 1.625 3.77478 1.625 3.77476C1.625 3.77473 1.625 3.7747 1.625 3.77467C1.625 3.77465 1.625 3.77462 1.625 3.77459C1.625 3.77456 1.625 3.77454 1.625 3.77451C1.625 3.77448 1.625 3.77445 1.625 3.77443C1.625 3.7744 1.625 3.77437 1.625 3.77434C1.625 3.77432 1.625 3.77429 1.625 3.77426C1.625 3.77423 1.625 3.77421 1.625 3.77418C1.625 3.77415 1.625 3.77412 1.625 3.7741C1.625 3.77407 1.625 3.77404 1.625 3.77401C1.625 3.77398 1.625 3.77396 1.625 3.77393C1.625 3.7739 1.625 3.77387 1.625 3.77385C1.625 3.77382 1.625 3.77379 1.625 3.77376C1.625 3.77374 1.625 3.77371 1.625 3.77368C1.625 3.77365 1.625 3.77362 1.625 3.7736C1.625 3.77357 1.625 3.77354 1.625 3.77351C1.625 3.77348 1.625 3.77346 1.625 3.77343C1.625 3.7734 1.625 3.77337 1.625 3.77334C1.625 3.77332 1.625 3.77329 1.625 3.77326C1.625 3.77323 1.625 3.77321 1.625 3.77318C1.625 3.77315 1.625 3.77312 1.625 3.77309C1.625 3.77307 1.625 3.77304 1.625 3.77301C1.625 3.77298 1.625 3.77295 1.625 3.77293C1.625 3.7729 1.625 3.77287 1.625 3.77284C1.625 3.77281 1.625 3.77278 1.625 3.77276C1.625 3.77273 1.625 3.7727 1.625 3.77267C1.625 3.77264 1.625 3.77262 1.625 3.77259C1.625 3.77256 1.625 3.77253 1.625 3.7725C1.625 3.77247 1.625 3.77245 1.625 3.77242C1.625 3.77239 1.625 3.77236 1.625 3.77233C1.625 3.7723 1.625 3.77228 1.625 3.77225C1.625 3.77222 1.625 3.77219 1.625 3.77216C1.625 3.77213 1.625 3.77211 1.625 3.77208C1.625 3.77205 1.625 3.77202 1.625 3.77199C1.625 3.77196 1.625 3.77194 1.625 3.77191C1.625 3.77188 1.625 3.77185 1.625 3.77182C1.625 3.77179 1.625 3.77176 1.625 3.77174C1.625 3.77171 1.625 3.77168 1.625 3.77165C1.625 3.77162 1.625 3.77159 1.625 3.77156C1.625 3.77154 1.625 3.77151 1.625 3.77148C1.625 3.77145 1.625 3.77142 1.625 3.77139C1.625 3.77136 1.625 3.77133 1.625 3.77131C1.625 3.77128 1.625 3.77125 1.625 3.77122C1.625 3.77119 1.625 3.77116 1.625 3.77113C1.625 3.7711 1.625 3.77108 1.625 3.77105C1.625 3.77102 1.625 3.77099 1.625 3.77096C1.625 3.77093 1.625 3.7709 1.625 3.77087C1.625 3.77084 1.625 3.77082 1.625 3.77079C1.625 3.77076 1.625 3.77073 1.625 3.7707C1.625 3.77067 1.625 3.77064 1.625 3.77061C1.625 3.77058 1.625 3.77055 1.625 3.77053C1.625 3.7705 1.625 3.77047 1.625 3.77044C1.625 3.77041 1.625 3.77038 1.625 3.77035C1.625 3.77032 1.625 3.77029 1.625 3.77026C1.625 3.77023 1.625 3.7702 1.625 3.77018C1.625 3.77015 1.625 3.77012 1.625 3.77009C1.625 3.77006 1.625 3.77003 1.625 3.77H-0.375C-0.375 3.77003 -0.375 3.77006 -0.375 3.77009C-0.375 3.77012 -0.375 3.77015 -0.375 3.77018C-0.375 3.7702 -0.375 3.77023 -0.375 3.77026C-0.375 3.77029 -0.375 3.77032 -0.375 3.77035C-0.375 3.77038 -0.375 3.77041 -0.375 3.77044C-0.375 3.77047 -0.375 3.7705 -0.375 3.77053C-0.375 3.77055 -0.375 3.77058 -0.375 3.77061C-0.375 3.77064 -0.375 3.77067 -0.375 3.7707C-0.375 3.77073 -0.375 3.77076 -0.375 3.77079C-0.375 3.77082 -0.375 3.77084 -0.375 3.77087C-0.375 3.7709 -0.375 3.77093 -0.375 3.77096C-0.375 3.77099 -0.375 3.77102 -0.375 3.77105C-0.375 3.77108 -0.375 3.7711 -0.375 3.77113C-0.375 3.77116 -0.375 3.77119 -0.375 3.77122C-0.375 3.77125 -0.375 3.77128 -0.375 3.77131C-0.375 3.77133 -0.375 3.77136 -0.375 3.77139C-0.375 3.77142 -0.375 3.77145 -0.375 3.77148C-0.375 3.77151 -0.375 3.77154 -0.375 3.77156C-0.375 3.77159 -0.375 3.77162 -0.375 3.77165C-0.375 3.77168 -0.375 3.77171 -0.375 3.77174C-0.375 3.77176 -0.375 3.77179 -0.375 3.77182C-0.375 3.77185 -0.375 3.77188 -0.375 3.77191C-0.375 3.77194 -0.375 3.77196 -0.375 3.77199C-0.375 3.77202 -0.375 3.77205 -0.375 3.77208C-0.375 3.77211 -0.375 3.77213 -0.375 3.77216C-0.375 3.77219 -0.375 3.77222 -0.375 3.77225C-0.375 3.77228 -0.375 3.7723 -0.375 3.77233C-0.375 3.77236 -0.375 3.77239 -0.375 3.77242C-0.375 3.77245 -0.375 3.77247 -0.375 3.7725C-0.375 3.77253 -0.375 3.77256 -0.375 3.77259C-0.375 3.77262 -0.375 3.77264 -0.375 3.77267C-0.375 3.7727 -0.375 3.77273 -0.375 3.77276C-0.375 3.77278 -0.375 3.77281 -0.375 3.77284C-0.375 3.77287 -0.375 3.7729 -0.375 3.77293C-0.375 3.77295 -0.375 3.77298 -0.375 3.77301C-0.375 3.77304 -0.375 3.77307 -0.375 3.77309C-0.375 3.77312 -0.375 3.77315 -0.375 3.77318C-0.375 3.77321 -0.375 3.77323 -0.375 3.77326C-0.375 3.77329 -0.375 3.77332 -0.375 3.77334C-0.375 3.77337 -0.375 3.7734 -0.375 3.77343C-0.375 3.77346 -0.375 3.77348 -0.375 3.77351C-0.375 3.77354 -0.375 3.77357 -0.375 3.7736C-0.375 3.77362 -0.375 3.77365 -0.375 3.77368C-0.375 3.77371 -0.375 3.77374 -0.375 3.77376C-0.375 3.77379 -0.375 3.77382 -0.375 3.77385C-0.375 3.77387 -0.375 3.7739 -0.375 3.77393C-0.375 3.77396 -0.375 3.77398 -0.375 3.77401C-0.375 3.77404 -0.375 3.77407 -0.375 3.7741C-0.375 3.77412 -0.375 3.77415 -0.375 3.77418C-0.375 3.77421 -0.375 3.77423 -0.375 3.77426C-0.375 3.77429 -0.375 3.77432 -0.375 3.77434C-0.375 3.77437 -0.375 3.7744 -0.375 3.77443C-0.375 3.77445 -0.375 3.77448 -0.375 3.77451C-0.375 3.77454 -0.375 3.77456 -0.375 3.77459C-0.375 3.77462 -0.375 3.77465 -0.375 3.77467C-0.375 3.7747 -0.375 3.77473 -0.375 3.77476C-0.375 3.77478 -0.375 3.77481 -0.375 3.77484C-0.375 3.77486 -0.375 3.77489 -0.375 3.77492C-0.375 3.77495 -0.375 3.77497 -0.375 3.775C-0.375 3.77503 -0.375 3.77506 -0.375 3.77508C-0.375 3.77511 -0.375 3.77514 -0.375 3.77517C-0.375 3.77519 -0.375 3.77522 -0.375 3.77525C-0.375 3.77527 -0.375 3.7753 -0.375 3.77533C-0.375 3.77536 -0.375 3.77538 -0.375 3.77541C-0.375 3.77544 -0.375 3.77546 -0.375 3.77549C-0.375 3.77552 -0.375 3.77555 -0.375 3.77557C-0.375 3.7756 -0.375 3.77563 -0.375 3.77565C-0.375 3.77568 -0.375 3.77571 -0.375 3.77574C-0.375 3.77576 -0.375 3.77579 -0.375 3.77582C-0.375 3.77584 -0.375 3.77587 -0.375 3.7759C-0.375 3.77592 -0.375 3.77595 -0.375 3.77598C-0.375 3.77601 -0.375 3.77603 -0.375 3.77606C-0.375 3.77609 -0.375 3.77611 -0.375 3.77614C-0.375 3.77617 -0.375 3.77619 -0.375 3.77622C-0.375 3.77625 -0.375 3.77627 -0.375 3.7763C-0.375 3.77633 -0.375 3.77636 -0.375 3.77638C-0.375 3.77641 -0.375 3.77644 -0.375 3.77646C-0.375 3.77649 -0.375 3.77652 -0.375 3.77654C-0.375 3.77657 -0.375 3.7766 -0.375 3.77662C-0.375 3.77665 -0.375 3.77668 -0.375 3.7767C-0.375 3.77673 -0.375 3.77676 -0.375 3.77678C-0.375 3.77681 -0.375 3.77684 -0.375 3.77686C-0.375 3.77689 -0.375 3.77692 -0.375 3.77694C-0.375 3.77697 -0.375 3.777 -0.375 3.77702C-0.375 3.77705 -0.375 3.77708 -0.375 3.7771C-0.375 3.77713 -0.375 3.77716 -0.375 3.77718C-0.375 3.77721 -0.375 3.77724 -0.375 3.77726C-0.375 3.77729 -0.375 3.77732 -0.375 3.77734C-0.375 3.77737 -0.375 3.7774 -0.375 3.77742C-0.375 3.77745 -0.375 3.77747 -0.375 3.7775C-0.375 3.77753 -0.375 3.77755 -0.375 3.77758C-0.375 3.77761 -0.375 3.77763 -0.375 3.77766C-0.375 3.77769 -0.375 3.77771 -0.375 3.77774C-0.375 3.77777 -0.375 3.77779 -0.375 3.77782C-0.375 3.77784 -0.375 3.77787 -0.375 3.7779C-0.375 3.77792 -0.375 3.77795 -0.375 3.77798C-0.375 3.778 -0.375 3.77803 -0.375 3.77805C-0.375 3.77808 -0.375 3.77811 -0.375 3.77813C-0.375 3.77816 -0.375 3.77819 -0.375 3.77821C-0.375 3.77824 -0.375 3.77826 -0.375 3.77829C-0.375 3.77832 -0.375 3.77834 -0.375 3.77837C-0.375 3.7784 -0.375 3.77842 -0.375 3.77845C-0.375 3.77847 -0.375 3.7785 -0.375 3.77853C-0.375 3.77855 -0.375 3.77858 -0.375 3.77861C-0.375 3.77863 -0.375 3.77866 -0.375 3.77868C-0.375 3.77871 -0.375 3.77874 -0.375 3.77876C-0.375 3.77879 -0.375 3.77881 -0.375 3.77884C-0.375 3.77887 -0.375 3.77889 -0.375 3.77892C-0.375 3.77894 -0.375 3.77897 -0.375 3.779C-0.375 3.77902 -0.375 3.77905 -0.375 3.77907C-0.375 3.7791 -0.375 3.77913 -0.375 3.77915C-0.375 3.77918 -0.375 3.7792 -0.375 3.77923C-0.375 3.77926 -0.375 3.77928 -0.375 3.77931C-0.375 3.77933 -0.375 3.77936 -0.375 3.77939C-0.375 3.77941 -0.375 3.77944 -0.375 3.77946C-0.375 3.77949 -0.375 3.77952 -0.375 3.77954C-0.375 3.77957 -0.375 3.77959 -0.375 3.77962C-0.375 3.77964 -0.375 3.77967 -0.375 3.7797C-0.375 3.77972 -0.375 3.77975 -0.375 3.77977C-0.375 3.7798 -0.375 3.77983 -0.375 3.77985C-0.375 3.77988 -0.375 3.7799 -0.375 3.77993C-0.375 3.77995 -0.375 3.77998 -0.375 3.78001C-0.375 3.78003 -0.375 3.78006 -0.375 3.78008C-0.375 3.78011 -0.375 3.78013 -0.375 3.78016C-0.375 3.78019 -0.375 3.78021 -0.375 3.78024C-0.375 3.78026 -0.375 3.78029 -0.375 3.78031C-0.375 3.78034 -0.375 3.78037 -0.375 3.78039C-0.375 3.78042 -0.375 3.78044 -0.375 3.78047C-0.375 3.78049 -0.375 3.78052 -0.375 3.78055C-0.375 3.78057 -0.375 3.7806 -0.375 3.78062C-0.375 3.78065 -0.375 3.78067 -0.375 3.7807C-0.375 3.78072 -0.375 3.78075 -0.375 3.78078C-0.375 3.7808 -0.375 3.78083 -0.375 3.78085C-0.375 3.78088 -0.375 3.7809 -0.375 3.78093C-0.375 3.78095 -0.375 3.78098 -0.375 3.78101C-0.375 3.78103 -0.375 3.78106 -0.375 3.78108C-0.375 3.78111 -0.375 3.78113 -0.375 3.78116C-0.375 3.78118 -0.375 3.78121 -0.375 3.78123C-0.375 3.78126 -0.375 3.78129 -0.375 3.78131C-0.375 3.78134 -0.375 3.78136 -0.375 3.78139C-0.375 3.78141 -0.375 3.78144 -0.375 3.78146C-0.375 3.78149 -0.375 3.78151 -0.375 3.78154C-0.375 3.78157 -0.375 3.78159 -0.375 3.78162C-0.375 3.78164 -0.375 3.78167 -0.375 3.78169C-0.375 3.78172 -0.375 3.78174 -0.375 3.78177C-0.375 3.78179 -0.375 3.78182 -0.375 3.78184C-0.375 3.78187 -0.375 3.78189 -0.375 3.78192C-0.375 3.78195 -0.375 3.78197 -0.375 3.782C-0.375 3.78202 -0.375 3.78205 -0.375 3.78207C-0.375 3.7821 -0.375 3.78212 -0.375 3.78215C-0.375 3.78217 -0.375 3.7822 -0.375 3.78222C-0.375 3.78225 -0.375 3.78227 -0.375 3.7823C-0.375 3.78232 -0.375 3.78235 -0.375 3.78237C-0.375 3.7824 -0.375 3.78242 -0.375 3.78245C-0.375 3.78248 -0.375 3.7825 -0.375 3.78253C-0.375 3.78255 -0.375 3.78258 -0.375 3.7826C-0.375 3.78263 -0.375 3.78265 -0.375 3.78268C-0.375 3.7827 -0.375 3.78273 -0.375 3.78275C-0.375 3.78278 -0.375 3.7828 -0.375 3.78283C-0.375 3.78285 -0.375 3.78288 -0.375 3.7829C-0.375 3.78293 -0.375 3.78295 -0.375 3.78298C-0.375 3.783 -0.375 3.78303 -0.375 3.78305C-0.375 3.78308 -0.375 3.7831 -0.375 3.78313C-0.375 3.78315 -0.375 3.78318 -0.375 3.7832C-0.375 3.78323 -0.375 3.78325 -0.375 3.78328C-0.375 3.7833 -0.375 3.78333 -0.375 3.78335C-0.375 3.78338 -0.375 3.7834 -0.375 3.78343C-0.375 3.78345 -0.375 3.78348 -0.375 3.7835C-0.375 3.78353 -0.375 3.78355 -0.375 3.78358C-0.375 3.7836 -0.375 3.78363 -0.375 3.78365C-0.375 3.78368 -0.375 3.7837 -0.375 3.78373C-0.375 3.78375 -0.375 3.78378 -0.375 3.7838C-0.375 3.78383 -0.375 3.78385 -0.375 3.78388C-0.375 3.7839 -0.375 3.78393 -0.375 3.78395C-0.375 3.78398 -0.375 3.784 -0.375 3.78403C-0.375 3.78405 -0.375 3.78408 -0.375 3.7841C-0.375 3.78413 -0.375 3.78415 -0.375 3.78418C-0.375 3.7842 -0.375 3.78423 -0.375 3.78425C-0.375 3.78428 -0.375 3.7843 -0.375 3.78433C-0.375 3.78435 -0.375 3.78438 -0.375 3.7844C-0.375 3.78443 -0.375 3.78445 -0.375 3.78448C-0.375 3.7845 -0.375 3.78452 -0.375 3.78455C-0.375 3.78457 -0.375 3.7846 -0.375 3.78462C-0.375 3.78465 -0.375 3.78467 -0.375 3.7847C-0.375 3.78472 -0.375 3.78475 -0.375 3.78477C-0.375 3.7848 -0.375 3.78482 -0.375 3.78485C-0.375 3.78487 -0.375 3.7849 -0.375 3.78492C-0.375 3.78495 -0.375 3.78497 -0.375 3.785C-0.375 3.78502 -0.375 3.78505 -0.375 3.78507C-0.375 3.78509 -0.375 3.78512 -0.375 3.78514C-0.375 3.78517 -0.375 3.78519 -0.375 3.78522C-0.375 3.78524 -0.375 3.78527 -0.375 3.78529C-0.375 3.78532 -0.375 3.78534 -0.375 3.78537C-0.375 3.78539 -0.375 3.78542 -0.375 3.78544C-0.375 3.78547 -0.375 3.78549 -0.375 3.78552C-0.375 3.78554 -0.375 3.78556 -0.375 3.78559C-0.375 3.78561 -0.375 3.78564 -0.375 3.78566C-0.375 3.78569 -0.375 3.78571 -0.375 3.78574C-0.375 3.78576 -0.375 3.78579 -0.375 3.78581C-0.375 3.78584 -0.375 3.78586 -0.375 3.78589C-0.375 3.78591 -0.375 3.78593 -0.375 3.78596C-0.375 3.78598 -0.375 3.78601 -0.375 3.78603C-0.375 3.78606 -0.375 3.78608 -0.375 3.78611C-0.375 3.78613 -0.375 3.78616 -0.375 3.78618C-0.375 3.78621 -0.375 3.78623 -0.375 3.78625C-0.375 3.78628 -0.375 3.7863 -0.375 3.78633C-0.375 3.78635 -0.375 3.78638 -0.375 3.7864C-0.375 3.78643 -0.375 3.78645 -0.375 3.78648C-0.375 3.7865 -0.375 3.78653 -0.375 3.78655C-0.375 3.78657 -0.375 3.7866 -0.375 3.78662C-0.375 3.78665 -0.375 3.78667 -0.375 3.7867C-0.375 3.78672 -0.375 3.78675 -0.375 3.78677C-0.375 3.7868 -0.375 3.78682 -0.375 3.78684C-0.375 3.78687 -0.375 3.78689 -0.375 3.78692C-0.375 3.78694 -0.375 3.78697 -0.375 3.78699C-0.375 3.78702 -0.375 3.78704 -0.375 3.78707C-0.375 3.78709 -0.375 3.78711 -0.375 3.78714C-0.375 3.78716 -0.375 3.78719 -0.375 3.78721C-0.375 3.78724 -0.375 3.78726 -0.375 3.78729C-0.375 3.78731 -0.375 3.78734 -0.375 3.78736C-0.375 3.78738 -0.375 3.78741 -0.375 3.78743C-0.375 3.78746 -0.375 3.78748 -0.375 3.78751C-0.375 3.78753 -0.375 3.78756 -0.375 3.78758C-0.375 3.7876 -0.375 3.78763 -0.375 3.78765C-0.375 3.78768 -0.375 3.7877 -0.375 3.78773C-0.375 3.78775 -0.375 3.78778 -0.375 3.7878C-0.375 3.78783 -0.375 3.78785 -0.375 3.78787C-0.375 3.7879 -0.375 3.78792 -0.375 3.78795C-0.375 3.78797 -0.375 3.788 -0.375 3.78802C-0.375 3.78805 -0.375 3.78807 -0.375 3.78809C-0.375 3.78812 -0.375 3.78814 -0.375 3.78817C-0.375 3.78819 -0.375 3.78822 -0.375 3.78824C-0.375 3.78827 -0.375 3.78829 -0.375 3.78831C-0.375 3.78834 -0.375 3.78836 -0.375 3.78839C-0.375 3.78841 -0.375 3.78844 -0.375 3.78846C-0.375 3.78849 -0.375 3.78851 -0.375 3.78853C-0.375 3.78856 -0.375 3.78858 -0.375 3.78861C-0.375 3.78863 -0.375 3.78866 -0.375 3.78868C-0.375 3.78871 -0.375 3.78873 -0.375 3.78875C-0.375 3.78878 -0.375 3.7888 -0.375 3.78883C-0.375 3.78885 -0.375 3.78888 -0.375 3.7889C-0.375 3.78893 -0.375 3.78895 -0.375 3.78897C-0.375 3.789 -0.375 3.78902 -0.375 3.78905C-0.375 3.78907 -0.375 3.7891 -0.375 3.78912C-0.375 3.78915 -0.375 3.78917 -0.375 3.78919C-0.375 3.78922 -0.375 3.78924 -0.375 3.78927C-0.375 3.78929 -0.375 3.78932 -0.375 3.78934C-0.375 3.78937 -0.375 3.78939 -0.375 3.78941C-0.375 3.78944 -0.375 3.78946 -0.375 3.78949C-0.375 3.78951 -0.375 3.78954 -0.375 3.78956C-0.375 3.78958 -0.375 3.78961 -0.375 3.78963C-0.375 3.78966 -0.375 3.78968 -0.375 3.78971C-0.375 3.78973 -0.375 3.78976 -0.375 3.78978C-0.375 3.7898 -0.375 3.78983 -0.375 3.78985C-0.375 3.78988 -0.375 3.7899 -0.375 3.78993C-0.375 3.78995 -0.375 3.78998 -0.375 3.79C-0.375 3.79002 -0.375 3.79005 -0.375 3.79007C-0.375 3.7901 -0.375 3.79012 -0.375 3.79015C-0.375 3.79017 -0.375 3.7902 -0.375 3.79022C-0.375 3.79024 -0.375 3.79027 -0.375 3.79029C-0.375 3.79032 -0.375 3.79034 -0.375 3.79037C-0.375 3.79039 -0.375 3.79042 -0.375 3.79044C-0.375 3.79046 -0.375 3.79049 -0.375 3.79051C-0.375 3.79054 -0.375 3.79056 -0.375 3.79059C-0.375 3.79061 -0.375 3.79063 -0.375 3.79066C-0.375 3.79068 -0.375 3.79071 -0.375 3.79073C-0.375 3.79076 -0.375 3.79078 -0.375 3.79081C-0.375 3.79083 -0.375 3.79085 -0.375 3.79088C-0.375 3.7909 -0.375 3.79093 -0.375 3.79095C-0.375 3.79098 -0.375 3.791 -0.375 3.79103C-0.375 3.79105 -0.375 3.79107 -0.375 3.7911C-0.375 3.79112 -0.375 3.79115 -0.375 3.79117C-0.375 3.7912 -0.375 3.79122 -0.375 3.79125C-0.375 3.79127 -0.375 3.79129 -0.375 3.79132C-0.375 3.79134 -0.375 3.79137 -0.375 3.79139C-0.375 3.79142 -0.375 3.79144 -0.375 3.79147C-0.375 3.79149 -0.375 3.79151 -0.375 3.79154C-0.375 3.79156 -0.375 3.79159 -0.375 3.79161C-0.375 3.79164 -0.375 3.79166 -0.375 3.79169C-0.375 3.79171 -0.375 3.79173 -0.375 3.79176C-0.375 3.79178 -0.375 3.79181 -0.375 3.79183C-0.375 3.79186 -0.375 3.79188 -0.375 3.79191C-0.375 3.79193 -0.375 3.79195 -0.375 3.79198C-0.375 3.792 -0.375 3.79203 -0.375 3.79205C-0.375 3.79208 -0.375 3.7921 -0.375 3.79213C-0.375 3.79215 -0.375 3.79217 -0.375 3.7922C-0.375 3.79222 -0.375 3.79225 -0.375 3.79227C-0.375 3.7923 -0.375 3.79232 -0.375 3.79235C-0.375 3.79237 -0.375 3.7924 -0.375 3.79242C-0.375 3.79244 -0.375 3.79247 -0.375 3.79249C-0.375 3.79252 -0.375 3.79254 -0.375 3.79257C-0.375 3.79259 -0.375 3.79262 -0.375 3.79264C-0.375 3.79266 -0.375 3.79269 -0.375 3.79271C-0.375 3.79274 -0.375 3.79276 -0.375 3.79279C-0.375 3.79281 -0.375 3.79284 -0.375 3.79286C-0.375 3.79289 -0.375 3.79291 -0.375 3.79293C-0.375 3.79296 -0.375 3.79298 -0.375 3.79301C-0.375 3.79303 -0.375 3.79306 -0.375 3.79308C-0.375 3.79311 -0.375 3.79313 -0.375 3.79316C-0.375 3.79318 -0.375 3.7932 -0.375 3.79323C-0.375 3.79325 -0.375 3.79328 -0.375 3.7933C-0.375 3.79333 -0.375 3.79335 -0.375 3.79338C-0.375 3.7934 -0.375 3.79343 -0.375 3.79345C-0.375 3.79347 -0.375 3.7935 -0.375 3.79352C-0.375 3.79355 -0.375 3.79357 -0.375 3.7936C-0.375 3.79362 -0.375 3.79365 -0.375 3.79367C-0.375 3.7937 -0.375 3.79372 -0.375 3.79375C-0.375 3.79377 -0.375 3.79379 -0.375 3.79382C-0.375 3.79384 -0.375 3.79387 -0.375 3.79389C-0.375 3.79392 -0.375 3.79394 -0.375 3.79397C-0.375 3.79399 -0.375 3.79402 -0.375 3.79404C-0.375 3.79407 -0.375 3.79409 -0.375 3.79411C-0.375 3.79414 -0.375 3.79416 -0.375 3.79419C-0.375 3.79421 -0.375 3.79424 -0.375 3.79426C-0.375 3.79429 -0.375 3.79431 -0.375 3.79434C-0.375 3.79436 -0.375 3.79439 -0.375 3.79441C-0.375 3.79444 -0.375 3.79446 -0.375 3.79448C-0.375 3.79451 -0.375 3.79453 -0.375 3.79456C-0.375 3.79458 -0.375 3.79461 -0.375 3.79463C-0.375 3.79466 -0.375 3.79468 -0.375 3.79471C-0.375 3.79473 -0.375 3.79476 -0.375 3.79478C-0.375 3.79481 -0.375 3.79483 -0.375 3.79486C-0.375 3.79488 -0.375 3.7949 -0.375 3.79493C-0.375 3.79495 -0.375 3.79498 -0.375 3.795C-0.375 3.79503 -0.375 3.79505 -0.375 3.79508C-0.375 3.7951 -0.375 3.79513 -0.375 3.79515C-0.375 3.79518 -0.375 3.7952 -0.375 3.79523C-0.375 3.79525 -0.375 3.79528 -0.375 3.7953C-0.375 3.79533 -0.375 3.79535 -0.375 3.79538C-0.375 3.7954 -0.375 3.79543 -0.375 3.79545C-0.375 3.79548 -0.375 3.7955 -0.375 3.79552C-0.375 3.79555 -0.375 3.79557 -0.375 3.7956C-0.375 3.79562 -0.375 3.79565 -0.375 3.79567C-0.375 3.7957 -0.375 3.79572 -0.375 3.79575C-0.375 3.79577 -0.375 3.7958 -0.375 3.79582C-0.375 3.79585 -0.375 3.79587 -0.375 3.7959C-0.375 3.79592 -0.375 3.79595 -0.375 3.79597C-0.375 3.796 -0.375 3.79602 -0.375 3.79605C-0.375 3.79607 -0.375 3.7961 -0.375 3.79612C-0.375 3.79615 -0.375 3.79617 -0.375 3.7962C-0.375 3.79622 -0.375 3.79625 -0.375 3.79627C-0.375 3.7963 -0.375 3.79632 -0.375 3.79635C-0.375 3.79637 -0.375 3.7964 -0.375 3.79642C-0.375 3.79645 -0.375 3.79647 -0.375 3.7965C-0.375 3.79652 -0.375 3.79655 -0.375 3.79657C-0.375 3.7966 -0.375 3.79662 -0.375 3.79665C-0.375 3.79667 -0.375 3.7967 -0.375 3.79672C-0.375 3.79675 -0.375 3.79677 -0.375 3.7968C-0.375 3.79682 -0.375 3.79685 -0.375 3.79687C-0.375 3.7969 -0.375 3.79692 -0.375 3.79695C-0.375 3.79697 -0.375 3.797 -0.375 3.79702C-0.375 3.79705 -0.375 3.79707 -0.375 3.7971C-0.375 3.79712 -0.375 3.79715 -0.375 3.79717C-0.375 3.7972 -0.375 3.79722 -0.375 3.79725C-0.375 3.79727 -0.375 3.7973 -0.375 3.79732C-0.375 3.79735 -0.375 3.79737 -0.375 3.7974C-0.375 3.79742 -0.375 3.79745 -0.375 3.79747C-0.375 3.7975 -0.375 3.79752 -0.375 3.79755C-0.375 3.79757 -0.375 3.7976 -0.375 3.79763C-0.375 3.79765 -0.375 3.79768 -0.375 3.7977C-0.375 3.79773 -0.375 3.79775 -0.375 3.79778C-0.375 3.7978 -0.375 3.79783 -0.375 3.79785C-0.375 3.79788 -0.375 3.7979 -0.375 3.79793C-0.375 3.79795 -0.375 3.79798 -0.375 3.798C-0.375 3.79803 -0.375 3.79805 -0.375 3.79808C-0.375 3.79811 -0.375 3.79813 -0.375 3.79816C-0.375 3.79818 -0.375 3.79821 -0.375 3.79823C-0.375 3.79826 -0.375 3.79828 -0.375 3.79831C-0.375 3.79833 -0.375 3.79836 -0.375 3.79838C-0.375 3.79841 -0.375 3.79843 -0.375 3.79846C-0.375 3.79849 -0.375 3.79851 -0.375 3.79854C-0.375 3.79856 -0.375 3.79859 -0.375 3.79861C-0.375 3.79864 -0.375 3.79866 -0.375 3.79869C-0.375 3.79871 -0.375 3.79874 -0.375 3.79876C-0.375 3.79879 -0.375 3.79882 -0.375 3.79884C-0.375 3.79887 -0.375 3.79889 -0.375 3.79892C-0.375 3.79894 -0.375 3.79897 -0.375 3.79899C-0.375 3.79902 -0.375 3.79905 -0.375 3.79907C-0.375 3.7991 -0.375 3.79912 -0.375 3.79915C-0.375 3.79917 -0.375 3.7992 -0.375 3.79922C-0.375 3.79925 -0.375 3.79928 -0.375 3.7993C-0.375 3.79933 -0.375 3.79935 -0.375 3.79938C-0.375 3.7994 -0.375 3.79943 -0.375 3.79945C-0.375 3.79948 -0.375 3.79951 -0.375 3.79953C-0.375 3.79956 -0.375 3.79958 -0.375 3.79961C-0.375 3.79963 -0.375 3.79966 -0.375 3.79969C-0.375 3.79971 -0.375 3.79974 -0.375 3.79976C-0.375 3.79979 -0.375 3.79981 -0.375 3.79984C-0.375 3.79987 -0.375 3.79989 -0.375 3.79992C-0.375 3.79994 -0.375 3.79997 -0.375 3.79999C-0.375 3.80002 -0.375 3.80005 -0.375 3.80007C-0.375 3.8001 -0.375 3.80012 -0.375 3.80015C-0.375 3.80017 -0.375 3.8002 -0.375 3.80023C-0.375 3.80025 -0.375 3.80028 -0.375 3.8003C-0.375 3.80033 -0.375 3.80035 -0.375 3.80038C-0.375 3.80041 -0.375 3.80043 -0.375 3.80046C-0.375 3.80048 -0.375 3.80051 -0.375 3.80054C-0.375 3.80056 -0.375 3.80059 -0.375 3.80061C-0.375 3.80064 -0.375 3.80067 -0.375 3.80069C-0.375 3.80072 -0.375 3.80074 -0.375 3.80077C-0.375 3.8008 -0.375 3.80082 -0.375 3.80085C-0.375 3.80087 -0.375 3.8009 -0.375 3.80093C-0.375 3.80095 -0.375 3.80098 -0.375 3.801C-0.375 3.80103 -0.375 3.80106 -0.375 3.80108C-0.375 3.80111 -0.375 3.80113 -0.375 3.80116C-0.375 3.80119 -0.375 3.80121 -0.375 3.80124C-0.375 3.80126 -0.375 3.80129 -0.375 3.80132C-0.375 3.80134 -0.375 3.80137 -0.375 3.80139C-0.375 3.80142 -0.375 3.80145 -0.375 3.80147C-0.375 3.8015 -0.375 3.80153 -0.375 3.80155C-0.375 3.80158 -0.375 3.8016 -0.375 3.80163C-0.375 3.80166 -0.375 3.80168 -0.375 3.80171C-0.375 3.80173 -0.375 3.80176 -0.375 3.80179C-0.375 3.80181 -0.375 3.80184 -0.375 3.80187C-0.375 3.80189 -0.375 3.80192 -0.375 3.80194C-0.375 3.80197 -0.375 3.802 -0.375 3.80202C-0.375 3.80205 -0.375 3.80208 -0.375 3.8021C-0.375 3.80213 -0.375 3.80216 -0.375 3.80218C-0.375 3.80221 -0.375 3.80223 -0.375 3.80226C-0.375 3.80229 -0.375 3.80231 -0.375 3.80234C-0.375 3.80237 -0.375 3.80239 -0.375 3.80242C-0.375 3.80245 -0.375 3.80247 -0.375 3.8025C-0.375 3.80253 -0.375 3.80255 -0.375 3.80258C-0.375 3.8026 -0.375 3.80263 -0.375 3.80266C-0.375 3.80268 -0.375 3.80271 -0.375 3.80274C-0.375 3.80276 -0.375 3.80279 -0.375 3.80282C-0.375 3.80284 -0.375 3.80287 -0.375 3.8029C-0.375 3.80292 -0.375 3.80295 -0.375 3.80298C-0.375 3.803 -0.375 3.80303 -0.375 3.80306C-0.375 3.80308 -0.375 3.80311 -0.375 3.80314C-0.375 3.80316 -0.375 3.80319 -0.375 3.80322C-0.375 3.80324 -0.375 3.80327 -0.375 3.8033C-0.375 3.80332 -0.375 3.80335 -0.375 3.80338C-0.375 3.8034 -0.375 3.80343 -0.375 3.80346C-0.375 3.80348 -0.375 3.80351 -0.375 3.80354C-0.375 3.80356 -0.375 3.80359 -0.375 3.80362C-0.375 3.80364 -0.375 3.80367 -0.375 3.8037C-0.375 3.80373 -0.375 3.80375 -0.375 3.80378C-0.375 3.80381 -0.375 3.80383 -0.375 3.80386C-0.375 3.80389 -0.375 3.80391 -0.375 3.80394C-0.375 3.80397 -0.375 3.80399 -0.375 3.80402C-0.375 3.80405 -0.375 3.80408 -0.375 3.8041C-0.375 3.80413 -0.375 3.80416 -0.375 3.80418C-0.375 3.80421 -0.375 3.80424 -0.375 3.80426C-0.375 3.80429 -0.375 3.80432 -0.375 3.80435C-0.375 3.80437 -0.375 3.8044 -0.375 3.80443C-0.375 3.80445 -0.375 3.80448 -0.375 3.80451C-0.375 3.80454 -0.375 3.80456 -0.375 3.80459C-0.375 3.80462 -0.375 3.80464 -0.375 3.80467C-0.375 3.8047 -0.375 3.80473 -0.375 3.80475C-0.375 3.80478 -0.375 3.80481 -0.375 3.80483C-0.375 3.80486 -0.375 3.80489 -0.375 3.80492C-0.375 3.80494 -0.375 3.80497 -0.375 3.805C-0.375 3.80503 -0.375 3.80505 -0.375 3.80508C-0.375 3.80511 -0.375 3.80514 -0.375 3.80516C-0.375 3.80519 -0.375 3.80522 -0.375 3.80524C-0.375 3.80527 -0.375 3.8053 -0.375 3.80533C-0.375 3.80535 -0.375 3.80538 -0.375 3.80541C-0.375 3.80544 -0.375 3.80546 -0.375 3.80549C-0.375 3.80552 -0.375 3.80555 -0.375 3.80557C-0.375 3.8056 -0.375 3.80563 -0.375 3.80566C-0.375 3.80568 -0.375 3.80571 -0.375 3.80574C-0.375 3.80577 -0.375 3.80579 -0.375 3.80582C-0.375 3.80585 -0.375 3.80588 -0.375 3.8059C-0.375 3.80593 -0.375 3.80596 -0.375 3.80599C-0.375 3.80602 -0.375 3.80604 -0.375 3.80607C-0.375 3.8061 -0.375 3.80613 -0.375 3.80615C-0.375 3.80618 -0.375 3.80621 -0.375 3.80624C-0.375 3.80626 -0.375 3.80629 -0.375 3.80632C-0.375 3.80635 -0.375 3.80638 -0.375 3.8064C-0.375 3.80643 -0.375 3.80646 -0.375 3.80649C-0.375 3.80652 -0.375 3.80654 -0.375 3.80657C-0.375 3.8066 -0.375 3.80663 -0.375 3.80665C-0.375 3.80668 -0.375 3.80671 -0.375 3.80674C-0.375 3.80677 -0.375 3.80679 -0.375 3.80682C-0.375 3.80685 -0.375 3.80688 -0.375 3.80691C-0.375 3.80693 -0.375 3.80696 -0.375 3.80699C-0.375 3.80702 -0.375 3.80705 -0.375 3.80707C-0.375 3.8071 -0.375 3.80713 -0.375 3.80716C-0.375 3.80719 -0.375 3.80722 -0.375 3.80724C-0.375 3.80727 -0.375 3.8073 -0.375 3.80733C-0.375 3.80736 -0.375 3.80738 -0.375 3.80741C-0.375 3.80744 -0.375 3.80747 -0.375 3.8075C-0.375 3.80753 -0.375 3.80755 -0.375 3.80758C-0.375 3.80761 -0.375 3.80764 -0.375 3.80767C-0.375 3.8077 -0.375 3.80772 -0.375 3.80775C-0.375 3.80778 -0.375 3.80781 -0.375 3.80784C-0.375 3.80787 -0.375 3.80789 -0.375 3.80792C-0.375 3.80795 -0.375 3.80798 -0.375 3.80801C-0.375 3.80804 -0.375 3.80806 -0.375 3.80809C-0.375 3.80812 -0.375 3.80815 -0.375 3.80818C-0.375 3.80821 -0.375 3.80824 -0.375 3.80826C-0.375 3.80829 -0.375 3.80832 -0.375 3.80835C-0.375 3.80838 -0.375 3.80841 -0.375 3.80844C-0.375 3.80846 -0.375 3.80849 -0.375 3.80852C-0.375 3.80855 -0.375 3.80858 -0.375 3.80861C-0.375 3.80864 -0.375 3.80867 -0.375 3.80869C-0.375 3.80872 -0.375 3.80875 -0.375 3.80878C-0.375 3.80881 -0.375 3.80884 -0.375 3.80887C-0.375 3.8089 -0.375 3.80892 -0.375 3.80895C-0.375 3.80898 -0.375 3.80901 -0.375 3.80904C-0.375 3.80907 -0.375 3.8091 -0.375 3.80913C-0.375 3.80916 -0.375 3.80918 -0.375 3.80921C-0.375 3.80924 -0.375 3.80927 -0.375 3.8093C-0.375 3.80933 -0.375 3.80936 -0.375 3.80939C-0.375 3.80942 -0.375 3.80945 -0.375 3.80947C-0.375 3.8095 -0.375 3.80953 -0.375 3.80956C-0.375 3.80959 -0.375 3.80962 -0.375 3.80965C-0.375 3.80968 -0.375 3.80971 -0.375 3.80974C-0.375 3.80977 -0.375 3.8098 -0.375 3.80982C-0.375 3.80985 -0.375 3.80988 -0.375 3.80991C-0.375 3.80994 -0.375 3.80997 -0.375 3.81H1.625ZM1.625 3.77V1.5H-0.375V3.77H1.625ZM1.625 1.5C1.625 1.84728 1.34728 2.125 1 2.125V0.125C0.242715 0.125 -0.375 0.742715 -0.375 1.5H1.625ZM1 2.125C0.652715 2.125 0.375 1.84728 0.375 1.5H2.375C2.375 0.742715 1.75728 0.125 1 0.125V2.125ZM0.375 1.5V2.695H2.375V1.5H0.375ZM2.10675 3.37657C2.81551 2.61564 4.10442 1.625 6 1.625V-0.375C3.34558 -0.375 1.56449 1.02436 0.64325 2.01343L2.10675 3.37657ZM6 1.625C8.41271 1.625 10.375 3.58728 10.375 6H12.375C12.375 2.48272 9.51728 -0.375 6 -0.375V1.625ZM10.375 6C10.375 7.98712 9.0349 9.72868 7.11591 10.2328L7.62409 12.1672C10.4251 11.4313 12.375 8.89288 12.375 6H10.375ZM7.2056 10.2136C7.19829 10.2148 7.20047 10.2143 7.20787 10.2135C7.21201 10.213 7.21954 10.2122 7.22981 10.2115C7.23987 10.2108 7.25533 10.21 7.275 10.21V12.21C7.39486 12.21 7.50101 12.192 7.5344 12.1864L7.2056 10.2136Z" fill="#005F73" mask="url(#path-1-inside-1_6485_102886)"/>
<path d="M5.645 11.365C5.635 11.365 5.62 11.365 5.61 11.36C5.075 11.325 4.55 11.205 4.05 11.01C3.905 10.955 3.81 10.81 3.81 10.655C3.81 10.61 3.82 10.565 3.835 10.525C3.91 10.335 4.13 10.235 4.32 10.31C4.75 10.48 5.205 10.58 5.665 10.615H5.67C5.87 10.625 6.02 10.795 6.02 10.995C6.02 11 6.02 11.01 6.02 11.015C6.005 11.21 5.84 11.365 5.645 11.365ZM2.89 10.29C2.805 10.29 2.725 10.265 2.655 10.21C2.235 9.875 1.87 9.48 1.565 9.035C1.52 8.97 1.495 8.9 1.495 8.825C1.495 8.7 1.555 8.585 1.66 8.515C1.825 8.4 2.07 8.445 2.18 8.61C2.445 8.995 2.76 9.335 3.125 9.62C3.21 9.69 3.265 9.795 3.265 9.91C3.265 9.995 3.24 10.08 3.185 10.15C3.115 10.24 3.005 10.29 2.89 10.29ZM1.22 7.85C1.055 7.85 0.91 7.745 0.865 7.59C0.705 7.075 0.625 6.54 0.625 6C0.625 5.795 0.795 5.625 1 5.625C1.205 5.625 1.375 5.795 1.375 6C1.375 6.465 1.445 6.925 1.58 7.365C1.59 7.4 1.595 7.44 1.595 7.48C1.595 7.645 1.49 7.785 1.335 7.835C1.295 7.845 1.26 7.85 1.22 7.85Z" fill="#005F73"/>
<path d="M6 8C7.10457 8 8 7.10457 8 6C8 4.89543 7.10457 4 6 4C4.89543 4 4 4.89543 4 6C4 7.10457 4.89543 8 6 8Z" fill="#005F73"/>
</svg>
