<svg width="20" height="20" viewBox="0 0 20 20" fill="none" xmlns="http://www.w3.org/2000/svg">
<path d="M10 1.5415C14.6654 1.5415 18.4588 5.33414 18.459 9.99951C18.459 14.665 14.6655 18.4585 10 18.4585C5.33462 18.4583 1.54199 14.6649 1.54199 9.99951C1.54217 5.33425 5.33473 1.54168 10 1.5415ZM10 1.7915C5.47412 1.79168 1.79217 5.47363 1.79199 9.99951C1.79199 14.5255 5.47401 18.2083 10 18.2085C14.5261 18.2085 18.209 14.5257 18.209 9.99951C18.2088 5.47352 14.526 1.7915 10 1.7915Z" fill="#005F73" stroke="#005F73"/>
<path d="M9.99987 14.5582C8.8332 14.5582 7.66654 14.1166 6.77487 13.2249C6.54154 12.9916 6.3332 12.7332 6.14153 12.4249C5.9582 12.1332 6.04986 11.7499 6.34152 11.5666C6.63319 11.3833 7.01655 11.4749 7.19988 11.7666C7.34155 11.9999 7.49154 12.1833 7.6582 12.3499C8.94987 13.6416 11.0499 13.6416 12.3415 12.3499C12.8415 11.8499 13.1582 11.1999 13.2665 10.4749C13.3165 10.1333 13.6332 9.88324 13.9749 9.94158C14.3165 9.99158 14.5499 10.3083 14.5082 10.6499C14.3665 11.6416 13.9249 12.5333 13.2332 13.2333C12.3332 14.1166 11.1665 14.5582 9.99987 14.5582Z" fill="#005F73"/>
<path d="M6.11691 10.0668C6.08357 10.0668 6.05858 10.0668 6.02525 10.0585C5.68358 10.0085 5.44191 9.69178 5.49191 9.35011C5.63357 8.35844 6.07524 7.4668 6.7669 6.7668C8.5419 4.9918 11.4336 4.9918 13.2169 6.7668C13.4502 7.00013 13.6586 7.25849 13.8502 7.57516C14.0336 7.86682 13.9419 8.25013 13.6502 8.43346C13.3586 8.6168 12.9752 8.52514 12.7919 8.23347C12.6502 8.00847 12.5002 7.8168 12.3336 7.65013C11.0419 6.35846 8.9419 6.35846 7.65024 7.65013C7.15024 8.15013 6.83358 8.80013 6.72525 9.52513C6.69192 9.84179 6.42524 10.0668 6.11691 10.0668Z" fill="#005F73"/>
<path d="M6.5166 14.9418C6.17493 14.9418 5.8916 14.6584 5.8916 14.3168V12.0918C5.8916 11.7501 6.17493 11.4668 6.5166 11.4668H8.74159C9.08325 11.4668 9.36659 11.7501 9.36659 12.0918C9.36659 12.4335 9.08325 12.7168 8.74159 12.7168H7.1416V14.3168C7.1416 14.6584 6.8666 14.9418 6.5166 14.9418Z" fill="#005F73"/>
<path d="M13.4828 8.53358H11.2578C10.9161 8.53358 10.6328 8.25025 10.6328 7.90858C10.6328 7.56691 10.9161 7.28358 11.2578 7.28358H12.8578V5.68359C12.8578 5.34193 13.1411 5.05859 13.4828 5.05859C13.8245 5.05859 14.1078 5.34193 14.1078 5.68359V7.90858C14.1078 8.25858 13.8245 8.53358 13.4828 8.53358Z" fill="#005F73"/>
</svg>
