<svg width="16" height="16" viewBox="0 0 16 16" fill="none" xmlns="http://www.w3.org/2000/svg">
<path d="M14.9665 12.3541C14.9285 11.9081 14.87 11.4621 14.79 11.0211C14.709 10.5681 14.5815 10.1321 14.3965 9.71114C14.228 9.32564 14.0215 8.96064 13.819 8.59214C13.7205 8.41414 13.6165 8.23864 13.5115 8.06364C13.387 7.85814 13.2425 7.66714 13.093 7.47914C12.84 7.16064 12.5465 6.86864 12.2495 6.59114C11.9165 6.27964 11.5735 5.97864 11.1785 5.74664C10.8105 5.53164 10.4365 5.32014 10.044 5.15264C9.83052 5.06114 9.61552 4.96764 9.39152 4.90264C9.17902 4.84114 8.96502 4.78964 8.74702 4.75264C8.52602 4.71464 8.30601 4.67664 8.08701 4.62764C7.97101 4.60164 7.85651 4.57114 7.74152 4.54214C7.67652 3.81614 7.66651 3.08464 7.61652 2.35664C7.61552 2.34214 7.60851 2.32914 7.60651 2.31514C7.62151 2.19814 7.59152 2.07664 7.50102 1.98614C7.42701 1.91214 7.32451 1.86914 7.21951 1.86914C7.12201 1.86914 7.00251 1.90814 6.93701 1.98614C6.81251 2.13614 6.67302 2.27264 6.53751 2.41364C6.41301 2.54414 6.28551 2.67164 6.15751 2.80014C5.88201 3.07664 5.59101 3.33864 5.31051 3.61114C5.02851 3.88464 4.75401 4.16414 4.46951 4.43464C4.18701 4.70314 3.90001 4.96714 3.62351 5.24214C3.22601 5.63464 2.86101 6.05814 2.46001 6.44764C2.07251 6.82264 1.70751 7.21964 1.34951 7.62414C1.26501 7.63914 1.18351 7.67064 1.12151 7.73214C0.956014 7.89764 0.963014 8.16264 1.12151 8.32914C1.44501 8.66814 1.77101 9.00314 2.09451 9.34214C2.38201 9.64314 2.66701 9.94614 2.95051 10.2506C3.24251 10.5631 3.54851 10.8611 3.85401 11.1611C4.14901 11.4491 4.44301 11.7396 4.73801 12.0276C5.09351 12.3741 5.45851 12.7086 5.82651 13.0406C6.00251 13.1991 6.18501 13.3521 6.36401 13.5081C6.53252 13.6536 6.70301 13.8016 6.85551 13.9641C6.97851 14.1236 7.19301 14.1866 7.37802 14.0796C7.41501 14.0581 7.44551 14.0276 7.47352 13.9951C7.60202 13.9231 7.69802 13.7916 7.69102 13.6376C7.67352 13.2191 7.67752 12.7991 7.67452 12.3796C7.67202 11.9891 7.67151 11.5991 7.66901 11.2096C8.33951 11.1756 9.00902 11.1336 9.67852 11.2121C9.96852 11.2601 10.257 11.3211 10.5395 11.3996C10.8155 11.4766 11.081 11.5801 11.3455 11.6906C11.577 11.7916 11.806 11.9006 12.025 12.0281C12.2665 12.1696 12.496 12.3276 12.72 12.4966C12.9385 12.6676 13.1555 12.8416 13.3725 13.0146C13.592 13.1916 13.815 13.3726 13.9995 13.5861C14.0015 13.5891 14.0035 13.5921 14.0055 13.5951C14.0685 13.6846 14.141 13.7496 14.2445 13.7836C14.322 13.8846 14.442 13.9556 14.5675 13.9556C14.7995 13.9556 14.96 13.7706 14.9735 13.5496C14.986 13.3441 15.0045 13.1416 14.999 12.9351C14.9935 12.7396 14.982 12.5466 14.9665 12.3541ZM13.7445 12.2266C13.424 11.9801 13.099 11.7426 12.761 11.5206C12.389 11.2781 11.985 11.0961 11.577 10.9256C11.3735 10.8421 11.171 10.7571 10.9605 10.6926C10.752 10.6296 10.541 10.5786 10.3275 10.5301C10.0625 10.4706 9.79752 10.4221 9.52702 10.3926C9.30352 10.3691 9.08002 10.3621 8.85601 10.3621C8.84001 10.3621 8.82351 10.3621 8.80751 10.3621C8.31501 10.3651 7.82402 10.3836 7.33202 10.3991C7.14851 10.4056 6.99601 10.5251 6.94351 10.6931C6.89201 10.7611 6.85551 10.8406 6.85651 10.9306C6.86151 11.1886 6.86801 11.4466 6.87101 11.7046C6.87401 11.9186 6.86801 12.1331 6.86501 12.3471C6.86251 12.5301 6.85901 12.7131 6.85601 12.8966C6.77851 12.8296 6.70101 12.7621 6.62351 12.6946C6.31651 12.4236 6.01602 12.1461 5.71801 11.8666C5.41901 11.5851 5.13101 11.2961 4.83951 11.0076C4.53751 10.7076 4.23401 10.4096 3.93601 10.1061C3.75701 9.92314 3.58151 9.73614 3.40801 9.54814C3.23251 9.35814 3.05251 9.17514 2.87451 8.98814C2.57851 8.67764 2.29201 8.35764 2.00251 8.04064C2.21151 7.80014 2.41851 7.55814 2.63651 7.32614C2.91101 7.03564 3.20251 6.76214 3.47101 6.46614C3.74451 6.16614 4.02601 5.87614 4.31901 5.59464C4.59851 5.32564 4.88501 5.06314 5.16451 4.79314C5.36001 4.60414 5.55101 4.41064 5.74801 4.22364C5.95051 4.02964 6.15701 3.83964 6.36351 3.65114C6.52001 3.50814 6.67451 3.36264 6.82801 3.21614C6.83701 3.35864 6.85001 3.50114 6.85701 3.64414C6.87401 4.01414 6.89551 4.38314 6.93401 4.75214C6.93252 4.75714 6.92901 4.76114 6.92751 4.76614C6.86701 4.98414 6.99951 5.23664 7.22451 5.29014C7.62651 5.38564 8.03001 5.46914 8.43702 5.54014C8.64051 5.57514 8.84202 5.61814 9.04152 5.66964C9.23452 5.71864 9.42052 5.79014 9.60602 5.86364C10.146 6.09714 10.6725 6.38114 11.1455 6.73014C11.67 7.16264 12.1655 7.63814 12.5985 8.16264C12.812 8.45764 13.0025 8.76614 13.182 9.08364C13.3655 9.40564 13.547 9.72764 13.6995 10.0661C13.7465 10.1811 13.793 10.2976 13.8335 10.4156C13.887 10.5686 13.929 10.7251 13.968 10.8831C14.0365 11.1561 14.0755 11.4371 14.114 11.7171C14.1485 12.0016 14.1705 12.2881 14.183 12.5746C14.0395 12.4546 13.891 12.3391 13.7445 12.2266Z" fill="#005F73"/>
</svg>
