<svg width="12" height="12" viewBox="0 0 12 12" fill="none" xmlns="http://www.w3.org/2000/svg">
<path d="M10.7644 7.96494C10.6844 7.82994 10.4594 7.61994 9.89937 7.71994C9.58937 7.77494 9.27437 7.79994 8.95937 7.78494C7.79437 7.73494 6.73937 7.19994 6.00437 6.37494C5.35437 5.64994 4.95437 4.70494 4.94937 3.68494C4.94937 3.11494 5.05937 2.56494 5.28437 2.04494C5.50437 1.53994 5.34937 1.27494 5.23937 1.16494C5.12437 1.04994 4.85437 0.889936 4.32437 1.10994C2.27937 1.96994 1.01437 4.01994 1.16437 6.21494C1.31437 8.27994 2.76437 10.0449 4.68437 10.7099C5.14437 10.8699 5.62937 10.9649 6.12937 10.9849C6.20937 10.9899 6.28937 10.9949 6.36937 10.9949C8.04437 10.9949 9.61437 10.2049 10.6044 8.85994C10.9394 8.39494 10.8494 8.09994 10.7644 7.96494Z" fill="#267E95"/>
</svg>
