<svg width="12" height="12" viewBox="0 0 12 12" fill="none" xmlns="http://www.w3.org/2000/svg">
<path d="M8.21 3.97506C9.43 5.19506 9.43 7.17506 8.21 8.39506C6.99 9.61506 5.01 9.61506 3.79 8.39506C2.57 7.17506 2.57 5.19506 3.79 3.97506C5.01 2.75506 6.99 2.75506 8.21 3.97506Z" fill="#267E95"/>
<path d="M4.12648 11.1949C4.08148 11.1949 4.03148 11.1849 3.98648 11.1699C2.86148 10.7199 1.95148 9.92493 1.34148 8.87493C0.75148 7.84993 0.51648 6.68993 0.67148 5.50993C0.69648 5.30493 0.89148 5.15993 1.09148 5.18493C1.29648 5.20993 1.44148 5.39993 1.41648 5.60493C1.28648 6.61993 1.48648 7.61993 1.99148 8.49993C2.51148 9.39993 3.29648 10.0849 4.26148 10.4699C4.45148 10.5499 4.54648 10.7649 4.47148 10.9599C4.41648 11.1049 4.27148 11.1949 4.12648 11.1949Z" fill="#267E95"/>
<path d="M2.92676 2.61493C2.81676 2.61493 2.70676 2.56493 2.63176 2.46993C2.50176 2.30993 2.53176 2.07493 2.69676 1.94493C3.64676 1.19993 4.79176 0.804932 6.00176 0.804932C7.18176 0.804932 8.30676 1.18493 9.25176 1.90493C9.41676 2.02993 9.44676 2.26493 9.32176 2.42993C9.19676 2.59493 8.96176 2.62493 8.79676 2.49993C7.98176 1.87993 7.01676 1.55493 6.00176 1.55493C4.96176 1.55493 3.97676 1.89493 3.15676 2.53493C3.08676 2.58993 3.00676 2.61493 2.92676 2.61493Z" fill="#267E95"/>
<path d="M7.87632 11.1951C7.72632 11.1951 7.58632 11.1051 7.52632 10.9601C7.45132 10.7701 7.54132 10.5501 7.73632 10.4701C8.70132 10.0801 9.48632 9.40006 10.0063 8.50006C10.5163 7.62006 10.7163 6.62006 10.5813 5.61006C10.5563 5.40506 10.7013 5.21506 10.9063 5.19006C11.1063 5.16506 11.3013 5.31006 11.3263 5.51506C11.4763 6.69006 11.2463 7.85506 10.6563 8.88006C10.0513 9.93006 9.13632 10.7201 8.01132 11.1751C7.97132 11.1851 7.92632 11.1951 7.87632 11.1951Z" fill="#267E95"/>
</svg>
