<svg width="16" height="16" viewBox="0 0 16 16" fill="none" xmlns="http://www.w3.org/2000/svg">
<path d="M11.3333 1.5H4.66667C2.92 1.5 1.5 2.92 1.5 4.66667V11.3333C1.5 13.08 2.92 14.5 4.66667 14.5H11.3333C13.08 14.5 14.5 13.08 14.5 11.3333V4.66667C14.5 2.92 13.08 1.5 11.3333 1.5ZM13.5 11.3333C13.5 12.5267 12.5267 13.5 11.3333 13.5H4.66667C3.47333 13.5 2.5 12.5267 2.5 11.3333V4.66667C2.5 3.47333 3.47333 2.5 4.66667 2.5H11.3333C12.5267 2.5 13.5 3.47333 13.5 4.66667V11.3333Z" fill="#888888"/>
<path d="M11.3346 6.16689H10.0013C9.78797 6.16689 9.59464 6.30689 9.52797 6.50689L9.2413 7.36022L7.7813 4.44022C7.7013 4.28022 7.5413 4.17356 7.36797 4.16689C7.18797 4.16022 7.0213 4.24022 6.9213 4.38689L5.73464 6.16689H4.66797C4.39464 6.16689 4.16797 6.39356 4.16797 6.66689C4.16797 6.94022 4.39464 7.16689 4.66797 7.16689H6.0013C6.16797 7.16689 6.3213 7.08022 6.41464 6.94689L7.26797 5.66689L8.8813 8.89356C8.96797 9.06689 9.1413 9.16689 9.32797 9.16689C9.3413 9.16689 9.35464 9.16689 9.3613 9.16689C9.5613 9.15356 9.73464 9.02022 9.8013 8.82689L10.3546 7.16689H11.328C11.6013 7.16689 11.828 6.94022 11.828 6.66689C11.828 6.39356 11.6013 6.16689 11.328 6.16689H11.3346Z" fill="#888888"/>
<path d="M4.67969 11.5H4.67302C4.39969 11.5 4.17969 11.7267 4.17969 12C4.17969 12.2733 4.40635 12.5 4.67969 12.5C4.95302 12.5 5.17969 12.2733 5.17969 12C5.17969 11.7267 4.95302 11.5 4.67969 11.5Z" fill="#888888"/>
<path d="M6.67969 11.5H6.67302C6.39969 11.5 6.17969 11.7267 6.17969 12C6.17969 12.2733 6.40635 12.5 6.67969 12.5C6.95302 12.5 7.17969 12.2733 7.17969 12C7.17969 11.7267 6.95302 11.5 6.67969 11.5Z" fill="#888888"/>
</svg>
