<svg width="16" height="16" viewBox="0 0 16 16" fill="none" xmlns="http://www.w3.org/2000/svg">
<path d="M4.16683 12.6673L4.16683 3.33398C4.16683 1.72065 5.0535 0.833984 6.66683 0.833984L9.3335 0.833984C10.9468 0.833984 11.8335 1.72065 11.8335 3.33398L11.8335 12.6673C11.8335 14.2807 10.9468 15.1673 9.3335 15.1673L6.66683 15.1673C5.0535 15.1673 4.16683 14.2807 4.16683 12.6673ZM10.8335 3.33398C10.8335 2.28065 10.3868 1.83398 9.3335 1.83398L6.66683 1.83398C5.6135 1.83398 5.16683 2.28065 5.16683 3.33398L5.16683 12.6673C5.16683 13.7207 5.6135 14.1673 6.66683 14.1673L9.3335 14.1673C10.3868 14.1673 10.8335 13.7207 10.8335 12.6673L10.8335 3.33398Z" fill="#005F73"/>
<path d="M7.50016 12C7.50016 11.7267 7.72683 11.5 8.00016 11.5L11.3335 11.5C11.6068 11.5 11.8335 11.7267 11.8335 12C11.8335 12.2733 11.6068 12.5 11.3335 12.5L8.00016 12.5C7.72683 12.5 7.50016 12.2733 7.50016 12Z" fill="#005F73"/>
<path d="M8.16683 4C8.16683 3.72667 8.3935 3.5 8.66683 3.5L11.3335 3.5C11.6068 3.5 11.8335 3.72667 11.8335 4C11.8335 4.27333 11.6068 4.5 11.3335 4.5L8.66683 4.5C8.3935 4.5 8.16683 4.27333 8.16683 4Z" fill="#005F73"/>
<path d="M7.50016 6.66602C7.50016 6.38602 7.72683 6.16602 8.00683 6.16602L11.3402 6.19935C11.6135 6.19935 11.8335 6.42602 11.8335 6.69935C11.8335 6.69935 11.8335 6.69935 11.8335 6.70602C11.8335 6.97935 11.6068 7.20602 11.3268 7.19935L7.9935 7.16602C7.72016 7.16602 7.50016 6.93935 7.50016 6.66602Z" fill="#005F73"/>
<path d="M8.8335 9.33398C8.8335 9.06065 9.06016 8.83398 9.3335 8.83398L11.3335 8.83398C11.6068 8.83398 11.8335 9.06065 11.8335 9.33398C11.8335 9.60732 11.6068 9.83398 11.3335 9.83398L9.3335 9.83398C9.06016 9.83398 8.8335 9.60732 8.8335 9.33398Z" fill="#005F73"/>
</svg>
