<svg width="16" height="17" viewBox="0 0 16 17" fill="none" xmlns="http://www.w3.org/2000/svg">
<path d="M12.6667 12.3333H3.33337C1.72004 12.3333 0.833374 11.4467 0.833374 9.83332V7.16666C0.833374 5.55332 1.72004 4.66666 3.33337 4.66666H12.6667C14.28 4.66666 15.1667 5.55332 15.1667 7.16666V9.83332C15.1667 11.4467 14.28 12.3333 12.6667 12.3333ZM3.33337 5.66666C2.28004 5.66666 1.83337 6.11332 1.83337 7.16666V9.83332C1.83337 10.8867 2.28004 11.3333 3.33337 11.3333H12.6667C13.72 11.3333 14.1667 10.8867 14.1667 9.83332V7.16666C14.1667 6.11332 13.72 5.66666 12.6667 5.66666H3.33337Z" fill="#005F73"/>
<path d="M12 8.99999C11.7267 8.99999 11.5 8.77332 11.5 8.49999V5.16666C11.5 4.89332 11.7267 4.66666 12 4.66666C12.2733 4.66666 12.5 4.89332 12.5 5.16666V8.49999C12.5 8.77332 12.2733 8.99999 12 8.99999Z" fill="#005F73"/>
<path d="M4 8.33332C3.72667 8.33332 3.5 8.10666 3.5 7.83332V5.16666C3.5 4.89332 3.72667 4.66666 4 4.66666C4.27333 4.66666 4.5 4.89332 4.5 5.16666V7.83332C4.5 8.10666 4.27333 8.33332 4 8.33332Z" fill="#005F73"/>
<path d="M6.66663 8.99999C6.38663 8.99999 6.16663 8.77332 6.16663 8.49332L6.19996 5.15999C6.19996 4.88666 6.42663 4.66666 6.69996 4.66666C6.69996 4.66666 6.69996 4.66666 6.70663 4.66666C6.97996 4.66666 7.20663 4.89332 7.19996 5.17332L7.16663 8.50666C7.16663 8.77999 6.93996 8.99999 6.66663 8.99999Z" fill="#005F73"/>
<path d="M9.33337 7.66666C9.06004 7.66666 8.83337 7.43999 8.83337 7.16666V5.16666C8.83337 4.89332 9.06004 4.66666 9.33337 4.66666C9.60671 4.66666 9.83337 4.89332 9.83337 5.16666V7.16666C9.83337 7.43999 9.60671 7.66666 9.33337 7.66666Z" fill="#005F73"/>
</svg>
