<svg width="16" height="16" viewBox="0 0 16 16" fill="none" xmlns="http://www.w3.org/2000/svg">
<path d="M2.20024 15.1664C1.96024 15.1664 1.7269 15.1064 1.5269 14.9864C1.08023 14.7264 0.826904 14.2064 0.826904 13.5598V5.98643C0.826904 4.56643 1.98023 3.41309 3.40023 3.41309H8.58691C10.0069 3.41309 11.1602 4.56643 11.1602 5.98643V13.5598C11.1602 14.2064 10.9069 14.7198 10.4602 14.9864C10.0136 15.2464 9.44024 15.2197 8.87358 14.9064L6.25358 13.4464C6.12691 13.3731 5.86023 13.3731 5.73356 13.4464L3.11357 14.9064C2.8069 15.0797 2.49357 15.1664 2.20024 15.1664ZM3.4069 4.41976C2.54023 4.41976 1.83358 5.12642 1.83358 5.99308V13.5664C1.83358 13.8398 1.91358 14.0531 2.04024 14.1264C2.16691 14.1998 2.39359 14.1664 2.63359 14.0331L5.25358 12.5731C5.68025 12.3397 6.32024 12.3397 6.74691 12.5731L9.3669 14.0331C9.6069 14.1664 9.82691 14.1998 9.96025 14.1264C10.0869 14.0531 10.1669 13.8398 10.1669 13.5664V5.99308C10.1669 5.12642 9.46025 4.41976 8.59359 4.41976H3.4069Z" fill="#005F73"/>
<path d="M9.79325 15.1667C9.49992 15.1667 9.19326 15.0801 8.87992 14.9134L6.25993 13.4534C6.13326 13.3867 5.8599 13.3867 5.73324 13.4534L3.11991 14.9134C2.55325 15.2267 1.97324 15.2534 1.53324 14.9934C1.08658 14.7334 0.833252 14.2134 0.833252 13.5734V6.00008C0.833252 4.58008 1.98658 3.42676 3.40658 3.42676H8.59326C10.0133 3.42676 11.1666 4.58008 11.1666 6.00008V13.5734C11.1666 14.2134 10.9133 14.7334 10.4666 14.9934C10.2666 15.1067 10.0399 15.1667 9.79325 15.1667ZM5.99992 12.4001C6.26659 12.4001 6.52658 12.4601 6.74658 12.5801L9.36658 14.0401C9.60658 14.1734 9.83325 14.2067 9.95992 14.1267C10.0866 14.0534 10.1666 13.8401 10.1666 13.5668V5.99341C10.1666 5.12674 9.45993 4.42008 8.59326 4.42008H3.40658C2.53991 4.42008 1.83325 5.12674 1.83325 5.99341V13.5668C1.83325 13.8401 1.91325 14.0534 2.03992 14.1267C2.16658 14.2001 2.39326 14.1667 2.63326 14.0334L5.25326 12.5734C5.46659 12.4601 5.73325 12.4001 5.99992 12.4001Z" fill="#005F73"/>
<path d="M13.7933 12.5798C13.4999 12.5798 13.1933 12.4932 12.8799 12.3265L10.4199 10.9532C10.2599 10.8665 10.1666 10.6998 10.1666 10.5198V5.99984C10.1666 5.13317 9.45993 4.42651 8.59326 4.42651H5.33325C5.05992 4.42651 4.83325 4.19985 4.83325 3.92651V3.41317C4.83325 1.99317 5.98658 0.839844 7.40658 0.839844H12.5933C14.0133 0.839844 15.1666 1.99317 15.1666 3.41317V10.9865C15.1666 11.6265 14.9133 12.1465 14.4666 12.4065C14.2666 12.5198 14.0399 12.5798 13.7933 12.5798ZM11.1666 10.2198L13.3666 11.4532C13.6066 11.5865 13.8266 11.6198 13.9599 11.5398C14.0933 11.4598 14.1666 11.2532 14.1666 10.9798V3.40649C14.1666 2.53983 13.4599 1.83317 12.5933 1.83317H7.40658C6.53991 1.83317 5.83325 2.53983 5.83325 3.40649V3.41984H8.59326C10.0133 3.41984 11.1666 4.57316 11.1666 5.99316V10.2198Z" fill="#005F73"/>
</svg>
