<svg width="260" height="210" viewBox="0 0 260 210" fill="none" xmlns="http://www.w3.org/2000/svg">
<path fill-rule="evenodd" clip-rule="evenodd" d="M215.28 68.332C219.301 68.332 222.56 71.6157 222.56 75.6664C222.56 79.717 219.301 83.0007 215.28 83.0007H173.68C177.701 83.0007 180.96 86.2844 180.96 90.335C180.96 94.3857 177.701 97.6693 173.68 97.6693H196.56C200.581 97.6693 203.84 100.953 203.84 105.004C203.84 109.054 200.581 112.338 196.56 112.338H185.979C180.91 112.338 176.8 115.622 176.8 119.672C176.8 122.373 178.88 124.818 183.04 127.007C187.061 127.007 190.32 130.29 190.32 134.341C190.32 138.392 187.061 141.675 183.04 141.675H96.72C92.6993 141.675 89.44 138.392 89.44 134.341C89.44 130.29 92.6993 127.007 96.72 127.007H56.16C52.1393 127.007 48.88 123.723 48.88 119.672C48.88 115.622 52.1393 112.338 56.16 112.338H97.76C101.781 112.338 105.04 109.054 105.04 105.004C105.04 100.953 101.781 97.6693 97.76 97.6693H71.76C67.7393 97.6693 64.48 94.3857 64.48 90.335C64.48 86.2844 67.7393 83.0007 71.76 83.0007H113.36C109.339 83.0007 106.08 79.717 106.08 75.6664C106.08 71.6157 109.339 68.332 113.36 68.332H215.28ZM215.28 97.6693C219.301 97.6693 222.56 100.953 222.56 105.004C222.56 109.054 219.301 112.338 215.28 112.338C211.259 112.338 208 109.054 208 105.004C208 100.953 211.259 97.6693 215.28 97.6693Z" fill="#F4F4F4"/>
<path d="M145.808 92.2408H117.189C115.233 92.2408 113.611 90.619 113.611 88.6634C113.611 86.7077 115.233 85.0859 117.189 85.0859H145.808C147.764 85.0859 149.386 86.7077 149.386 88.6634C149.386 90.619 147.764 92.2408 145.808 92.2408Z" fill="url(#paint0_linear_9531_219187)"/>
<path d="M131.498 106.553H117.189C115.233 106.553 113.611 104.932 113.611 102.976C113.611 101.02 115.233 99.3984 117.189 99.3984H131.498C133.454 99.3984 135.076 101.02 135.076 102.976C135.076 104.932 133.454 106.553 131.498 106.553Z" fill="url(#paint1_linear_9531_219187)"/>
<path opacity="0.4" d="M131.498 141.14C156.525 141.14 176.812 120.852 176.812 95.8258C176.812 70.7995 156.525 50.5117 131.498 50.5117C106.472 50.5117 86.1843 70.7995 86.1843 95.8258C86.1843 120.852 106.472 141.14 131.498 141.14Z" fill="url(#paint2_linear_9531_219187)"/>
<path d="M178.243 145.905C177.385 145.905 176.526 145.571 175.906 144.951L167.034 136.079C165.746 134.791 165.746 132.692 167.034 131.357C168.322 130.069 170.421 130.069 171.756 131.357L180.628 140.229C181.916 141.516 181.916 143.615 180.628 144.951C179.961 145.571 179.102 145.905 178.243 145.905Z" fill="url(#paint3_linear_9531_219187)"/>
<defs>
<linearGradient id="paint0_linear_9531_219187" x1="114.661" y1="91.8433" x2="164.286" y2="85.4167" gradientUnits="userSpaceOnUse">
<stop stop-color="#005F73"/>
<stop offset="1" stop-color="#6CC24A"/>
</linearGradient>
<linearGradient id="paint1_linear_9531_219187" x1="114.241" y1="106.156" x2="144.334" y2="103.818" gradientUnits="userSpaceOnUse">
<stop stop-color="#005F73"/>
<stop offset="1" stop-color="#6CC24A"/>
</linearGradient>
<linearGradient id="paint2_linear_9531_219187" x1="88.8441" y1="136.105" x2="216.582" y2="132.796" gradientUnits="userSpaceOnUse">
<stop stop-color="#005F73"/>
<stop offset="1" stop-color="#6CC24A"/>
</linearGradient>
<linearGradient id="paint3_linear_9531_219187" x1="166.524" y1="145.043" x2="188.407" y2="144.476" gradientUnits="userSpaceOnUse">
<stop stop-color="#005F73"/>
<stop offset="1" stop-color="#6CC24A"/>
</linearGradient>
</defs>
</svg>
