<svg width="25" height="24" viewBox="0 0 25 24" fill="none" xmlns="http://www.w3.org/2000/svg">
<path d="M16.3052 2.96004L7.27516 5.96004C1.20516 7.99004 1.20516 11.3 7.27516 13.32L9.95516 14.21L10.8452 16.89C12.8652 22.96 16.1852 22.96 18.2052 16.89L21.2152 7.87004C22.5552 3.82004 20.3552 1.61004 16.3052 2.96004ZM16.6252 8.34004L12.8252 12.16C12.6752 12.31 12.4852 12.38 12.2952 12.38C12.1052 12.38 11.9152 12.31 11.7652 12.16C11.4752 11.87 11.4752 11.39 11.7652 11.1L15.5652 7.28004C15.8552 6.99004 16.3352 6.99004 16.6252 7.28004C16.9152 7.57004 16.9152 8.05004 16.6252 8.34004Z" fill="#6CC24A"/>
</svg>
