<svg width="13" height="13" viewBox="0 0 13 13" fill="none" xmlns="http://www.w3.org/2000/svg">
<path d="M6.40358 8.13723C5.39108 8.13723 4.56934 7.31549 4.56934 6.30299C4.56934 5.29049 5.39108 4.46875 6.40358 4.46875C7.41608 4.46875 8.23781 5.29049 8.23781 6.30299C8.23781 7.31549 7.41608 8.13723 6.40358 8.13723ZM6.40358 5.20245C5.79705 5.20245 5.30303 5.69647 5.30303 6.30299C5.30303 6.90951 5.79705 7.40353 6.40358 7.40353C7.0101 7.40353 7.50412 6.90951 7.50412 6.30299C7.50412 5.69647 7.0101 5.20245 6.40358 5.20245Z" fill="#7B93AF"/>
<path d="M7.97377 11.2877C7.87105 11.2877 7.76833 11.273 7.66562 11.2486C7.36236 11.1654 7.10801 10.9747 6.94659 10.7056L6.8879 10.6078C6.59931 10.1089 6.20312 10.1089 5.91453 10.6078L5.86073 10.7008C5.69931 10.9747 5.44496 11.1703 5.1417 11.2486C4.83355 11.3317 4.51562 11.2877 4.24659 11.1263L3.40529 10.6421C3.10692 10.4709 2.8917 10.1921 2.79877 9.85456C2.71073 9.51706 2.75475 9.16977 2.92594 8.8714C3.06779 8.62195 3.10692 8.39695 3.02377 8.2551C2.94062 8.11325 2.73029 8.0301 2.4417 8.0301C1.72757 8.0301 1.14551 7.44803 1.14551 6.7339V5.87303C1.14551 5.1589 1.72757 4.57684 2.4417 4.57684C2.73029 4.57684 2.94062 4.49369 3.02377 4.35184C3.10692 4.20999 3.07268 3.98499 2.92594 3.73553C2.75475 3.43716 2.71073 3.08499 2.79877 2.75238C2.88681 2.41488 3.10203 2.13608 3.40529 1.96488L4.25149 1.48064C4.8042 1.15293 5.53301 1.34369 5.86562 1.90619L5.92431 2.00401C6.2129 2.50293 6.60909 2.50293 6.89768 2.00401L6.95149 1.91108C7.28409 1.34369 8.0129 1.15293 8.57051 1.48553L9.41181 1.96977C9.71018 2.14097 9.9254 2.41977 10.0183 2.75727C10.1064 3.09477 10.0624 3.44206 9.89116 3.74043C9.74931 3.98988 9.71018 4.21488 9.79333 4.35673C9.87649 4.49858 10.0868 4.58173 10.3754 4.58173C11.0895 4.58173 11.6716 5.16379 11.6716 5.87793V6.73879C11.6716 7.45293 11.0895 8.03499 10.3754 8.03499C10.0868 8.03499 9.87649 8.11814 9.79333 8.25999C9.71018 8.40184 9.74442 8.62684 9.89116 8.87629C10.0624 9.17466 10.1113 9.52684 10.0183 9.85945C9.93029 10.1969 9.71507 10.4758 9.41181 10.6469L8.56562 11.1312C8.37975 11.2339 8.1792 11.2877 7.97377 11.2877ZM6.40366 9.47792C6.83899 9.47792 7.24496 9.75184 7.52377 10.2361L7.57757 10.329C7.63627 10.4317 7.73409 10.5051 7.85149 10.5344C7.96888 10.5638 8.08627 10.5491 8.18409 10.4904L9.03029 10.0013C9.15746 9.92792 9.25529 9.80564 9.29442 9.6589C9.33355 9.51216 9.31399 9.36053 9.24062 9.23336C8.96181 8.75401 8.92757 8.25999 9.14279 7.88336C9.35801 7.50673 9.80312 7.29151 10.3607 7.29151C10.6738 7.29151 10.9232 7.04206 10.9232 6.72901V5.86814C10.9232 5.55999 10.6738 5.30564 10.3607 5.30564C9.80312 5.30564 9.35801 5.09043 9.14279 4.71379C8.92757 4.33716 8.96181 3.84314 9.24062 3.36379C9.31399 3.23662 9.33355 3.08499 9.29442 2.93825C9.25529 2.79151 9.16235 2.67412 9.03518 2.59586L8.18899 2.11162C7.97866 1.98445 7.69986 2.05782 7.57268 2.27303L7.51888 2.36597C7.24007 2.85021 6.83409 3.12412 6.39877 3.12412C5.96344 3.12412 5.55746 2.85021 5.27866 2.36597L5.22486 2.26814C5.10257 2.06271 4.82866 1.98934 4.61833 2.11162L3.77214 2.60075C3.64496 2.67412 3.54714 2.7964 3.50801 2.94314C3.46888 3.08988 3.48844 3.24151 3.56181 3.36869C3.84062 3.84803 3.87486 4.34206 3.65964 4.71869C3.44442 5.09532 2.99931 5.31053 2.4417 5.31053C2.12866 5.31053 1.8792 5.55999 1.8792 5.87303V6.7339C1.8792 7.04206 2.12866 7.2964 2.4417 7.2964C2.99931 7.2964 3.44442 7.51162 3.65964 7.88825C3.87486 8.26488 3.84062 8.7589 3.56181 9.23825C3.48844 9.36542 3.46888 9.51706 3.50801 9.66379C3.54714 9.81053 3.64007 9.92792 3.76725 10.0062L4.61344 10.4904C4.71616 10.554 4.83844 10.5687 4.95094 10.5393C5.06833 10.51 5.16616 10.4317 5.22975 10.329L5.28355 10.2361C5.56236 9.75673 5.96833 9.47792 6.40366 9.47792Z" fill="#7B93AF"/>
</svg>
