<svg width="24" height="24" viewBox="0 0 24 24" fill="none" xmlns="http://www.w3.org/2000/svg">
<path d="M15 22.75H9C3.57 22.75 1.25 20.43 1.25 15V9C1.25 3.57 3.57 1.25 9 1.25H15C20.43 1.25 22.75 3.57 22.75 9V15C22.75 20.43 20.43 22.75 15 22.75ZM9 2.75C4.39 2.75 2.75 4.39 2.75 9V15C2.75 19.61 4.39 21.25 9 21.25H15C19.61 21.25 21.25 19.61 21.25 15V9C21.25 4.39 19.61 2.75 15 2.75H9Z" fill="#005F73"/>
<path d="M15.5781 19.25C15.1681 19.25 14.8281 18.91 14.8281 18.5V14.6C14.8281 14.19 15.1681 13.85 15.5781 13.85C15.9881 13.85 16.3281 14.19 16.3281 14.6V18.5C16.3281 18.91 15.9881 19.25 15.5781 19.25Z" fill="#005F73"/>
<path d="M15.5781 8.2C15.1681 8.2 14.8281 7.86 14.8281 7.45V5.5C14.8281 5.09 15.1681 4.75 15.5781 4.75C15.9881 4.75 16.3281 5.09 16.3281 5.5V7.45C16.3281 7.86 15.9881 8.2 15.5781 8.2Z" fill="#005F73"/>
<path d="M15.5805 13.4C13.7305 13.4 12.2305 11.9 12.2305 10.05C12.2305 8.19995 13.7305 6.69995 15.5805 6.69995C17.4305 6.69995 18.9305 8.19995 18.9305 10.05C18.9305 11.9 17.4205 13.4 15.5805 13.4ZM15.5805 8.19995C14.5605 8.19995 13.7305 9.02995 13.7305 10.05C13.7305 11.07 14.5605 11.9 15.5805 11.9C16.6005 11.9 17.4305 11.07 17.4305 10.05C17.4305 9.02995 16.5905 8.19995 15.5805 8.19995Z" fill="#005F73"/>
<path d="M8.42188 19.25C8.01188 19.25 7.67188 18.91 7.67188 18.5V16.55C7.67188 16.14 8.01188 15.8 8.42188 15.8C8.83187 15.8 9.17188 16.14 9.17188 16.55V18.5C9.17188 18.91 8.84187 19.25 8.42188 19.25Z" fill="#005F73"/>
<path d="M8.42188 10.15C8.01188 10.15 7.67188 9.81 7.67188 9.4V5.5C7.67188 5.09 8.01188 4.75 8.42188 4.75C8.83187 4.75 9.17188 5.09 9.17188 5.5V9.4C9.17188 9.81 8.84187 10.15 8.42188 10.15Z" fill="#005F73"/>
<path d="M8.42031 17.3C6.57031 17.3 5.07031 15.8 5.07031 13.95C5.07031 12.1 6.57031 10.6 8.42031 10.6C10.2703 10.6 11.7703 12.1 11.7703 13.95C11.7703 15.8 10.2703 17.3 8.42031 17.3ZM8.42031 12.1C7.40031 12.1 6.57031 12.93 6.57031 13.95C6.57031 14.97 7.40031 15.8 8.42031 15.8C9.44031 15.8 10.2703 14.97 10.2703 13.95C10.2703 12.93 9.45031 12.1 8.42031 12.1Z" fill="#005F73"/>
</svg>
