<svg width="20" height="20" viewBox="0 0 20 20" fill="none" xmlns="http://www.w3.org/2000/svg">
<path d="M13.125 10C13.125 11.725 11.725 13.125 10 13.125C8.275 13.125 6.875 11.725 6.875 10C6.875 8.275 8.275 6.875 10 6.875C11.725 6.875 13.125 8.275 13.125 10ZM8.125 10C8.125 11.0333 8.96667 11.875 10 11.875C11.0333 11.875 11.875 11.0333 11.875 10C11.875 8.96667 11.0333 8.125 10 8.125C8.96667 8.125 8.125 8.96667 8.125 10Z" fill="#005F73"/>
<path d="M18.4913 7.32565C18.4913 7.50065 18.4663 7.67565 18.4246 7.85065C18.2829 8.36732 17.9579 8.80065 17.4996 9.07565L17.3329 9.17565C16.4829 9.66732 16.4829 10.3423 17.3329 10.834L17.4913 10.9257C17.9579 11.2007 18.2913 11.634 18.4246 12.1507C18.5663 12.6757 18.4913 13.2173 18.2163 13.6757L17.3913 15.109C17.0996 15.6173 16.6246 15.984 16.0496 16.1423C15.4746 16.2923 14.8829 16.2173 14.3746 15.9257C13.9496 15.684 13.5663 15.6173 13.3246 15.759C13.0829 15.9007 12.9413 16.259 12.9413 16.7507C12.9413 17.9673 11.9496 18.959 10.7329 18.959H9.26625C8.04959 18.959 7.05792 17.9673 7.05792 16.7507C7.05792 16.259 6.91625 15.9007 6.67459 15.759C6.43292 15.6173 6.04959 15.6757 5.62459 15.9257C5.11625 16.2173 4.51625 16.2923 3.94959 16.1423C3.37459 15.9923 2.89959 15.6257 2.60792 15.109L1.78292 13.6673C1.22459 12.7257 1.54959 11.484 2.50792 10.9173L2.67459 10.8173C3.52459 10.3257 3.52459 9.65065 2.67459 9.15898L2.51625 9.06732C1.54959 8.50065 1.22459 7.25898 1.79125 6.30898L2.61625 4.87565C2.90792 4.36732 3.38292 4.00065 3.95792 3.84232C4.53292 3.69232 5.12459 3.76732 5.63292 4.05898C6.05792 4.30065 6.44125 4.36732 6.68292 4.22565C6.92459 4.08398 7.06625 3.72565 7.06625 3.23398C7.06625 2.01732 8.05792 1.02565 9.27459 1.02565H10.7413C11.9579 1.02565 12.9496 2.01732 12.9496 3.23398C12.9496 3.72565 13.0913 4.08398 13.3329 4.22565C13.5746 4.36732 13.9579 4.30898 14.3829 4.05898C14.8913 3.76732 15.4913 3.68398 16.0579 3.84232C16.6329 3.99232 17.1079 4.35898 17.3996 4.87565L18.2246 6.31732C18.3996 6.63398 18.4913 6.97565 18.4913 7.32565ZM15.4079 10.0007C15.4079 9.25898 15.8746 8.56732 16.6996 8.09232L16.8579 8.00065C17.0329 7.90065 17.1579 7.73398 17.2079 7.53398C17.2579 7.33398 17.2329 7.13398 17.1329 6.96732L16.2996 5.52565C16.1746 5.30898 15.9663 5.14232 15.7163 5.07565C15.4663 5.00898 15.2079 5.04232 14.9913 5.16732C14.1746 5.64232 13.3329 5.70065 12.6913 5.33398C12.0496 4.96732 11.6829 4.20898 11.6829 3.25898C11.6829 2.72565 11.2579 2.30065 10.7246 2.30065H9.25792C8.73292 2.30065 8.29959 2.72565 8.29959 3.25898C8.29959 4.20898 7.93292 4.96732 7.29125 5.33398C6.64959 5.70065 5.80792 5.64232 4.99125 5.16732C4.77459 5.04232 4.51625 5.00898 4.26625 5.07565C4.01625 5.14232 3.81625 5.30065 3.68292 5.51732L2.85792 6.95898C2.64125 7.31732 2.76625 7.79232 3.13292 8.00898L3.29125 8.10065C4.11625 8.57565 4.58292 9.26732 4.58292 10.009C4.58292 10.7507 4.11625 11.4423 3.29125 11.9173L3.12459 12.009C2.77459 12.2173 2.64959 12.684 2.85792 13.0423L3.69125 14.484C3.81625 14.7007 4.02459 14.8673 4.27459 14.934C4.52459 15.0007 4.78292 14.9673 4.99959 14.8423C5.81625 14.3673 6.65792 14.309 7.29959 14.6757C7.94125 15.0423 8.30792 15.8007 8.30792 16.7507C8.30792 17.284 8.73292 17.709 9.26625 17.709H10.7329C11.2579 17.709 11.6913 17.284 11.6913 16.7507C11.6913 15.8007 12.0579 15.0423 12.6996 14.6757C13.3413 14.309 14.1829 14.3673 14.9996 14.8423C15.2163 14.9673 15.4746 15.0007 15.7246 14.934C15.9746 14.8673 16.1746 14.709 16.3079 14.4923L17.1329 13.0507C17.2413 12.8757 17.2663 12.6673 17.2163 12.4757C17.1663 12.2757 17.0329 12.109 16.8579 12.0007L16.6996 11.909C15.8829 11.434 15.4079 10.7423 15.4079 10.0007Z" fill="#005F73"/>
</svg>
