<svg width="16" height="16" viewBox="0 0 16 16" fill="none" xmlns="http://www.w3.org/2000/svg">
<path d="M14.666 4.58203H10.666C10.5308 4.58203 10.416 4.46729 10.416 4.33203C10.416 4.19677 10.5308 4.08203 10.666 4.08203H14.666C14.8013 4.08203 14.916 4.19677 14.916 4.33203C14.916 4.46729 14.8013 4.58203 14.666 4.58203Z" fill="#6CC24A" stroke="#6CC24A" stroke-width="0.5"/>
<path d="M4.00065 4.83203H1.33398C1.06065 4.83203 0.833984 4.60536 0.833984 4.33203C0.833984 4.0587 1.06065 3.83203 1.33398 3.83203H4.00065C4.27398 3.83203 4.50065 4.0587 4.50065 4.33203C4.50065 4.60536 4.27398 4.83203 4.00065 4.83203Z" fill="#6CC24A"/>
<path d="M6.66732 7.16667C5.10732 7.16667 3.83398 5.89333 3.83398 4.33333C3.83398 2.77333 5.10732 1.5 6.66732 1.5C8.22732 1.5 9.50065 2.77333 9.50065 4.33333C9.50065 5.89333 8.22732 7.16667 6.66732 7.16667ZM6.66732 2.5C5.65398 2.5 4.83398 3.32 4.83398 4.33333C4.83398 5.34667 5.65398 6.16667 6.66732 6.16667C7.68065 6.16667 8.50065 5.34667 8.50065 4.33333C8.50065 3.32 7.68065 2.5 6.66732 2.5Z" fill="#6CC24A"/>
<path d="M14.6667 12.168H12C11.7267 12.168 11.5 11.9413 11.5 11.668C11.5 11.3946 11.7267 11.168 12 11.168H14.6667C14.94 11.168 15.1667 11.3946 15.1667 11.668C15.1667 11.9413 14.94 12.168 14.6667 12.168Z" fill="#6CC24A"/>
<path d="M5.33398 12.168H1.33398C1.06065 12.168 0.833984 11.9413 0.833984 11.668C0.833984 11.3946 1.06065 11.168 1.33398 11.168H5.33398C5.60732 11.168 5.83398 11.3946 5.83398 11.668C5.83398 11.9413 5.60732 12.168 5.33398 12.168Z" fill="#6CC24A"/>
<path d="M9.33333 14.4987C7.77333 14.4987 6.5 13.2254 6.5 11.6654C6.5 10.1054 7.77333 8.83203 9.33333 8.83203C10.8933 8.83203 12.1667 10.1054 12.1667 11.6654C12.1667 13.2254 10.8933 14.4987 9.33333 14.4987ZM9.33333 9.83203C8.32 9.83203 7.5 10.652 7.5 11.6654C7.5 12.6787 8.32 13.4987 9.33333 13.4987C10.3467 13.4987 11.1667 12.6787 11.1667 11.6654C11.1667 10.652 10.3467 9.83203 9.33333 9.83203Z" fill="#6CC24A"/>
</svg>
