<svg width="20" height="20" viewBox="0 0 20 20" fill="none" xmlns="http://www.w3.org/2000/svg">
<path d="M7.49271 17.9166C6.10938 17.9166 4.71771 17.3916 3.65937 16.3333C1.55104 14.2166 1.55104 10.7833 3.65937 8.67494C3.90104 8.43327 4.30104 8.43327 4.54271 8.67494C4.78437 8.9166 4.78437 9.3166 4.54271 9.55827C2.91771 11.1833 2.91771 13.8249 4.54271 15.4499C6.16771 17.0749 8.80937 17.0749 10.4344 15.4499C11.2177 14.6666 11.651 13.6166 11.651 12.4999C11.651 11.3916 11.2177 10.3416 10.4344 9.54994C10.1927 9.30827 10.1927 8.90827 10.4344 8.6666C10.676 8.42493 11.076 8.42493 11.3177 8.6666C12.3427 9.6916 12.901 11.0499 12.901 12.4999C12.901 13.9499 12.3344 15.3083 11.3177 16.3333C10.2677 17.3916 8.88437 17.9166 7.49271 17.9166Z" fill="#005F73"/>
<path d="M15.8927 11.8C15.7344 11.8 15.576 11.7417 15.451 11.6167C15.2094 11.375 15.2094 10.975 15.451 10.7334C17.1594 9.02503 17.1594 6.25003 15.451 4.55003C13.7427 2.8417 10.9677 2.8417 9.26771 4.55003C8.44271 5.37503 7.98437 6.47503 7.98437 7.6417C7.98437 8.80837 8.44271 9.90837 9.26771 10.7334C9.50937 10.975 9.50937 11.375 9.26771 11.6167C9.02604 11.8584 8.62604 11.8584 8.38438 11.6167C7.32604 10.5584 6.73438 9.1417 6.73438 7.6417C6.73438 6.1417 7.31771 4.72503 8.38438 3.6667C10.576 1.47503 14.1427 1.47503 16.3427 3.6667C18.5344 5.85837 18.5344 9.43337 16.3427 11.625C16.2177 11.7417 16.051 11.8 15.8927 11.8Z" fill="#005F73"/>
</svg>
