<svg width="20" height="20" viewBox="0 0 20 20" fill="none" xmlns="http://www.w3.org/2000/svg">
<path d="M6.42186 15.3001C6.03853 15.3001 5.64685 15.2001 5.29685 14.9918C4.58852 14.5835 4.17188 13.8585 4.17188 13.0418V6.94179C4.17188 6.12513 4.58852 5.40013 5.29685 4.9918C6.00519 4.58346 6.84686 4.58346 7.54686 4.9918L12.8302 8.0418C13.5302 8.45013 13.9552 9.17513 13.9552 9.9918C13.9552 10.8085 13.5385 11.5335 12.8302 11.9418L7.54686 14.9918C7.19686 15.2001 6.80519 15.3001 6.42186 15.3001ZM6.42186 5.95015C6.24686 5.95015 6.08019 5.99179 5.92185 6.08346C5.60519 6.26679 5.42188 6.58347 5.42188 6.95014V13.0501C5.42188 13.4085 5.60519 13.7335 5.92185 13.9168C6.23852 14.1001 6.61353 14.1001 6.92186 13.9168L12.2052 10.8668C12.5219 10.6835 12.7052 10.3585 12.7052 10.0001C12.7052 9.6418 12.5219 9.3168 12.2052 9.13346L6.92186 6.08346C6.76353 5.99179 6.59686 5.95015 6.42186 5.95015Z" fill="#005F73"/>
<path d="M15 6V14" stroke="#005F73" stroke-width="1.5" stroke-linecap="round"/>
</svg>
