<svg width="16" height="17" viewBox="0 0 16 17" fill="none" xmlns="http://www.w3.org/2000/svg">
<path d="M7.99967 15.2691C4.04634 15.2691 0.833008 12.0557 0.833008 8.1024C0.833008 4.14906 4.04634 0.93573 7.99967 0.93573C11.953 0.93573 15.1663 4.14906 15.1663 8.1024C15.1663 12.0557 11.953 15.2691 7.99967 15.2691ZM7.99967 1.93573C4.59967 1.93573 1.83301 4.7024 1.83301 8.1024C1.83301 11.5024 4.59967 14.2691 7.99967 14.2691C11.3997 14.2691 14.1663 11.5024 14.1663 8.1024C14.1663 4.7024 11.3997 1.93573 7.99967 1.93573Z" fill="#005F73"/>
<path d="M3.26689 13.2691C3.14022 13.2691 3.01355 13.2224 2.91355 13.1224C2.72022 12.9291 2.72022 12.6091 2.91355 12.4158L12.2469 3.08244C12.4402 2.88911 12.7602 2.88911 12.9536 3.08244C13.1469 3.27577 13.1469 3.59577 12.9536 3.78911L3.62022 13.1224C3.52022 13.2224 3.39355 13.2691 3.26689 13.2691Z" fill="#005F73"/>
</svg>
