<svg width="20" height="20" viewBox="0 0 20 20" fill="none" xmlns="http://www.w3.org/2000/svg">
<g clip-path="url(#clip0_1279_151363)">
<path d="M10 1.25C14.875 1.25 18.75 5.125 18.75 10C18.75 14.875 14.875 18.75 10 18.75C5.125 18.75 1.25 14.875 1.25 10C1.25 5.125 5.125 1.25 10 1.25ZM10 0C4.5 0 0 4.5 0 10C0 15.5 4.5 20 10 20C15.5 20 20 15.5 20 10C20 4.5 15.5 0 10 0Z" fill="#888888"/>
<path d="M10 16.5C7.5 16.5 5.25 15 4.25 12.625L5.375 12.125C6.125 14 8 15.125 10 15.125C12 15.125 13.875 13.875 14.625 12.125L15.75 12.625C14.75 15.125 12.5 16.5 10 16.5Z" fill="#888888"/>
<path d="M8.75 7.5C8.75 8.19 8.19 8.75 7.5 8.75C6.81 8.75 6.25 8.19 6.25 7.5C6.25 6.81 6.81 6.25 7.5 6.25C8.19 6.25 8.75 6.81 8.75 7.5Z" fill="#888888"/>
<path d="M13.75 7.5C13.75 8.19 13.19 8.75 12.5 8.75C11.81 8.75 11.25 8.19 11.25 7.5C11.25 6.81 11.81 6.25 12.5 6.25C13.19 6.25 13.75 6.81 13.75 7.5Z" fill="#888888"/>
</g>
<defs>
<clipPath id="clip0_1279_151363">
<rect width="20" height="20" fill="white"/>
</clipPath>
</defs>
</svg>
