<svg width="13" height="13" viewBox="0 0 13 13" fill="none" xmlns="http://www.w3.org/2000/svg">
<path d="M10.2765 4.30503C10.9519 4.30503 11.4994 3.75755 11.4994 3.0822C11.4994 2.40685 10.9519 1.85938 10.2765 1.85938C9.60119 1.85938 9.05371 2.40685 9.05371 3.0822C9.05371 3.75755 9.60119 4.30503 10.2765 4.30503Z" fill="#267E95"/>
<path d="M10.2765 4.30503C10.9519 4.30503 11.4994 3.75755 11.4994 3.0822C11.4994 2.40685 10.9519 1.85938 10.2765 1.85938C9.60119 1.85938 9.05371 2.40685 9.05371 3.0822C9.05371 3.75755 9.60119 4.30503 10.2765 4.30503Z" fill="#F4A261"/>
<path d="M10.8733 4.94341C10.5309 5.05102 10.1543 5.07058 9.76299 4.97276C9.10756 4.80156 8.57441 4.27819 8.39343 3.62276C8.30538 3.30482 8.30049 2.99178 8.3543 2.70808C8.41788 2.39504 8.19777 2.10156 7.88473 2.10156H4.16245C2.69506 2.10156 1.7168 2.83526 1.7168 4.54721V7.97113C1.7168 9.68308 2.69506 10.4168 4.16245 10.4168H9.05375C10.5211 10.4168 11.4994 9.68308 11.4994 7.97113V5.40808C11.4994 5.08526 11.1864 4.84069 10.8733 4.94341ZM8.32984 5.84341L7.75267 6.30319C7.42984 6.56243 7.01897 6.68961 6.6081 6.68961C6.19723 6.68961 5.78147 6.56243 5.46354 6.30319L3.93256 5.08037C3.77604 4.95319 3.75158 4.71841 3.87386 4.56189C4.00104 4.40537 4.23093 4.37602 4.38745 4.50319L5.91843 5.72602C6.29017 6.02439 6.92114 6.02439 7.29288 5.72602L7.87006 5.26624C8.02658 5.13906 8.26136 5.16352 8.38364 5.32493C8.51082 5.48145 8.48636 5.71624 8.32984 5.84341Z" fill="#267E95"/>
</svg>
