<svg width="12" height="12" viewBox="0 0 12 12" fill="none" xmlns="http://www.w3.org/2000/svg">
<path d="M6.875 5.25L3.375 5.25C3.17 5.25 3 5.08 3 4.875C3 4.67 3.17 4.5 3.375 4.5L6.875 4.5C7.08 4.5 7.25 4.67 7.25 4.875C7.25 5.08 7.08 5.25 6.875 5.25Z" fill="#888888"/>
<path d="M5.565 7.25H3.375C3.17 7.25 3 7.08 3 6.875C3 6.67 3.17 6.5 3.375 6.5H5.565C5.77 6.5 5.94 6.67 5.94 6.875C5.94 7.08 5.77 7.25 5.565 7.25Z" fill="#888888"/>
<path d="M7 3.375L5 3.375C4.52 3.375 3.625 3.375 3.625 2C3.625 0.625 4.52 0.625 5 0.625L7 0.625C7.48 0.625 8.375 0.625 8.375 2C8.375 2.48 8.375 3.375 7 3.375ZM5 1.375C4.505 1.375 4.375 1.375 4.375 2C4.375 2.625 4.505 2.625 5 2.625L7 2.625C7.625 2.625 7.625 2.495 7.625 2C7.625 1.375 7.495 1.375 7 1.375L5 1.375Z" fill="#888888"/>
<path d="M7.5 11.3747L4.5 11.3747C1.69 11.3747 1.125 10.0847 1.125 7.99972L1.125 4.99972C1.125 2.71972 1.95 1.74472 3.98 1.63972C4.18 1.62972 4.365 1.78472 4.375 1.99472C4.385 2.20472 4.225 2.37472 4.02 2.38472C2.6 2.46472 1.875 2.88972 1.875 4.99972L1.875 7.99972C1.875 9.84972 2.24 10.6247 4.5 10.6247L7.5 10.6247C9.76 10.6247 10.125 9.84972 10.125 7.99972L10.125 4.99972C10.125 2.88972 9.4 2.46472 7.98 2.38472C7.775 2.37472 7.615 2.19472 7.625 1.98972C7.635 1.78472 7.815 1.62472 8.02 1.63472C10.05 1.74472 10.875 2.71972 10.875 4.99472L10.875 7.99472C10.875 10.0847 10.31 11.3747 7.5 11.3747Z" fill="#888888"/>
<path d="M6.19885 10.1642C6.00885 10.1642 5.82885 10.0942 5.69885 9.96423C5.54385 9.80923 5.47384 9.58422 5.50884 9.34922L5.60385 8.67422C5.62885 8.49922 5.73385 8.28922 5.85885 8.16422L7.62884 6.39422C7.86884 6.15422 8.10385 6.02922 8.35885 6.00422C8.66885 5.97422 8.97884 6.10422 9.26884 6.39422C9.55884 6.68422 9.68884 6.98922 9.65884 7.30422C9.63384 7.55422 9.50384 7.79422 9.26884 8.03422L7.49885 9.80422C7.37385 9.92922 7.16384 10.0342 6.98884 10.0592L6.31384 10.1542C6.27384 10.1592 6.23885 10.1642 6.19885 10.1642ZM8.44384 6.74923C8.43884 6.74923 8.43384 6.74923 8.42884 6.74923C8.35884 6.75423 8.26384 6.81922 8.15884 6.92422L6.38885 8.69422C6.37385 8.70922 6.34884 8.75923 6.34884 8.77923L6.25884 9.40423L6.88384 9.31422C6.90384 9.30922 6.95384 9.28422 6.96884 9.26922L8.73884 7.49923C8.84384 7.38923 8.90884 7.29922 8.91384 7.22922C8.92384 7.12922 8.82384 7.00922 8.73884 6.92422C8.65884 6.84422 8.54384 6.74923 8.44384 6.74923Z" fill="#888888"/>
<path d="M8.74936 8.39889C8.71436 8.39889 8.67935 8.39389 8.64935 8.38389C7.98935 8.19889 7.46435 7.6739 7.27935 7.0139C7.22435 6.8139 7.33935 6.60888 7.53935 6.54888C7.73935 6.49388 7.94436 6.60889 7.99936 6.80889C8.11436 7.21889 8.43935 7.54389 8.84935 7.65889C9.04935 7.71389 9.16436 7.9239 9.10936 8.1239C9.06436 8.2889 8.91436 8.39889 8.74936 8.39889Z" fill="#888888"/>
</svg>
