<svg width="16" height="16" viewBox="0 0 16 16" fill="none" xmlns="http://www.w3.org/2000/svg">
<path d="M6.31997 13.7937C5.98663 13.7937 5.7533 13.6804 5.6133 13.5737C5.34664 13.3804 4.9333 12.8804 5.1933 11.7604L5.57328 10.1204C5.60662 9.98036 5.53329 9.72703 5.43329 9.62036L4.10663 8.2937C3.40663 7.5937 3.46663 6.98703 3.55996 6.68703C3.65329 6.38703 3.95996 5.86036 4.93329 5.6937L6.6333 5.4137C6.75997 5.3937 6.96663 5.24037 7.01996 5.12703L7.95996 3.24703C8.4133 2.34036 9.01329 2.20703 9.33329 2.20703C9.65329 2.20703 10.2533 2.34036 10.7066 3.24703L11.6466 5.12703C11.7066 5.24037 11.9066 5.3937 12.0333 5.4137L13.7333 5.6937C14.7066 5.8537 15.0133 6.38703 15.1066 6.68703C15.2 6.98703 15.26 7.5937 14.56 8.2937L13.2333 9.62036C13.1333 9.72036 13.06 9.98036 13.0933 10.1204L13.4733 11.7604C13.7333 12.887 13.32 13.3804 13.0533 13.5737C12.7866 13.767 12.1933 14.0137 11.1933 13.4204L9.59996 12.4737C9.46662 12.3937 9.18662 12.3937 9.05329 12.4737L7.45996 13.4204C6.99996 13.7004 6.6133 13.7937 6.31997 13.7937ZM9.33329 3.20703C9.22663 3.20703 9.03329 3.3337 8.85329 3.6937L7.91329 5.5737C7.71329 5.98037 7.23996 6.32704 6.7933 6.40037L5.0933 6.68037C4.7133 6.74704 4.53997 6.88704 4.50663 6.9937C4.4733 7.10037 4.53329 7.3137 4.80662 7.58704L6.1333 8.9137C6.4733 9.2537 6.6533 9.8737 6.54663 10.3404L6.16663 11.9804C6.05329 12.4537 6.12662 12.707 6.19995 12.767C6.27329 12.8204 6.53996 12.8137 6.95329 12.5604L8.55329 11.6137C8.99995 11.347 9.6733 11.347 10.1133 11.6137L11.7066 12.5604C12.1266 12.807 12.3933 12.8204 12.4666 12.767C12.54 12.7137 12.6133 12.4604 12.5 11.9804L12.12 10.3404C12.0133 9.86703 12.1866 9.2537 12.5333 8.9137L13.86 7.58704C14.1333 7.3137 14.1933 7.0937 14.16 6.9937C14.1266 6.8937 13.9533 6.74704 13.5733 6.68037L11.8733 6.40037C11.4266 6.32704 10.9533 5.98037 10.7533 5.5737L9.81329 3.6937C9.63329 3.3337 9.43996 3.20703 9.33329 3.20703Z" fill="#005F73"/>
<path d="M5.3335 3.83398H1.3335C1.06016 3.83398 0.833496 3.60732 0.833496 3.33398C0.833496 3.06065 1.06016 2.83398 1.3335 2.83398H5.3335C5.60683 2.83398 5.8335 3.06065 5.8335 3.33398C5.8335 3.60732 5.60683 3.83398 5.3335 3.83398Z" fill="#005F73"/>
<path d="M3.3335 13.166H1.3335C1.06016 13.166 0.833496 12.9393 0.833496 12.666C0.833496 12.3927 1.06016 12.166 1.3335 12.166H3.3335C3.60683 12.166 3.8335 12.3927 3.8335 12.666C3.8335 12.9393 3.60683 13.166 3.3335 13.166Z" fill="#005F73"/>
<path d="M2.00016 8.5H1.3335C1.06016 8.5 0.833496 8.27333 0.833496 8C0.833496 7.72667 1.06016 7.5 1.3335 7.5H2.00016C2.2735 7.5 2.50016 7.72667 2.50016 8C2.50016 8.27333 2.2735 8.5 2.00016 8.5Z" fill="#005F73"/>
</svg>
