<svg width="16" height="16" viewBox="0 0 16 16" fill="none" xmlns="http://www.w3.org/2000/svg">
<path d="M11.7721 15.1132C11.4188 15.1132 10.9654 14.9999 10.3988 14.6665L8.40544 13.4865C8.19878 13.3665 7.79878 13.3665 7.59878 13.4865L5.59878 14.6665C4.41878 15.3666 3.72544 15.0866 3.41211 14.8599C3.10544 14.6332 2.62544 14.0532 2.93878 12.7199L3.41211 10.6732C3.46544 10.4599 3.35878 10.0932 3.19878 9.93322L1.54544 8.27988C0.718776 7.45322 0.785443 6.74655 0.898776 6.39988C1.01211 6.05322 1.37211 5.43988 2.51878 5.24655L4.64544 4.89322C4.84544 4.85988 5.13211 4.64655 5.21878 4.46655L6.39878 2.11322C6.93211 1.03988 7.63211 0.879883 7.99878 0.879883C8.36544 0.879883 9.06544 1.03988 9.59878 2.11322L10.7721 4.45988C10.8654 4.63988 11.1521 4.85322 11.3521 4.88655L13.4788 5.23988C14.6321 5.43322 14.9921 6.04655 15.0988 6.39322C15.2054 6.73988 15.2721 7.44655 14.4521 8.27322L12.7988 9.93322C12.6388 10.0932 12.5388 10.4532 12.5854 10.6732L13.0588 12.7199C13.3654 14.0532 12.8921 14.6332 12.5854 14.8599C12.4188 14.9799 12.1521 15.1132 11.7721 15.1132ZM7.99878 12.3932C8.32544 12.3932 8.65211 12.4732 8.91211 12.6266L10.9054 13.8065C11.4854 14.1532 11.8521 14.1532 11.9921 14.0532C12.1321 13.9532 12.2321 13.5999 12.0854 12.9466L11.6121 10.8999C11.4854 10.3465 11.6921 9.63322 12.0921 9.22655L13.7454 7.57322C14.0721 7.24655 14.2188 6.92655 14.1521 6.70655C14.0788 6.48655 13.7721 6.30655 13.3188 6.23322L11.1921 5.87988C10.6788 5.79322 10.1188 5.37988 9.88544 4.91322L8.71211 2.56655C8.49878 2.13988 8.23211 1.88655 7.99878 1.88655C7.76544 1.88655 7.49878 2.13988 7.29211 2.56655L6.11211 4.91322C5.87878 5.37988 5.31878 5.79322 4.80544 5.87988L2.68544 6.23322C2.23211 6.30655 1.92544 6.48655 1.85211 6.70655C1.77878 6.92655 1.93211 7.25322 2.25878 7.57322L3.91211 9.22655C4.31211 9.62655 4.51878 10.3465 4.39211 10.8999L3.91878 12.9466C3.76544 13.6066 3.87211 13.9532 4.01211 14.0532C4.15211 14.1532 4.51211 14.1465 5.09878 13.8065L7.09211 12.6266C7.34544 12.4732 7.67211 12.3932 7.99878 12.3932Z" fill="#6CC24A"/>
</svg>
