<svg width="17" height="16" viewBox="0 0 17 16" fill="none" xmlns="http://www.w3.org/2000/svg">
<path d="M12.4401 15.1142C12.0867 15.1142 11.6334 15.0009 11.0667 14.6675L9.07341 13.4875C8.86675 13.3675 8.46675 13.3675 8.26675 13.4875L6.26675 14.6675C5.08675 15.3675 4.39341 15.0875 4.08008 14.8609C3.77341 14.6342 3.29341 14.0542 3.60675 12.7209L4.08008 10.6742C4.13341 10.4609 4.02675 10.0942 3.86675 9.93419L2.21341 8.28086C1.38675 7.45419 1.45341 6.74753 1.56675 6.40086C1.68008 6.05419 2.04008 5.44086 3.18675 5.24753L5.31341 4.89419C5.51341 4.86086 5.80008 4.64753 5.88675 4.46753L7.06675 2.11419C7.60008 1.04086 8.30008 0.880859 8.66675 0.880859C9.03341 0.880859 9.73341 1.04086 10.2667 2.11419L11.4401 4.46086C11.5334 4.64086 11.8201 4.85419 12.0201 4.88753L14.1467 5.24086C15.3001 5.43419 15.6601 6.04753 15.7667 6.39419C15.8734 6.74086 15.9401 7.44753 15.1201 8.27419L13.4667 9.93419C13.3067 10.0942 13.2067 10.4542 13.2534 10.6742L13.7267 12.7209C14.0334 14.0542 13.5601 14.6342 13.2534 14.8609C13.0867 14.9809 12.8201 15.1142 12.4401 15.1142ZM8.66675 12.3942C8.99341 12.3942 9.32008 12.4742 9.58008 12.6275L11.5734 13.8075C12.1534 14.1542 12.5201 14.1542 12.6601 14.0542C12.8001 13.9542 12.9001 13.6009 12.7534 12.9475L12.2801 10.9009C12.1534 10.3475 12.3601 9.63419 12.7601 9.22753L14.4134 7.57419C14.7401 7.24753 14.8867 6.92753 14.8201 6.70753C14.7467 6.48753 14.4401 6.30753 13.9867 6.23419L11.8601 5.88086C11.3467 5.79419 10.7867 5.38086 10.5534 4.91419L9.38008 2.56753C9.16675 2.14086 8.90008 1.88753 8.66675 1.88753C8.43341 1.88753 8.16675 2.14086 7.96008 2.56753L6.78008 4.91419C6.54675 5.38086 5.98675 5.79419 5.47341 5.88086L3.35341 6.23419C2.90008 6.30753 2.59341 6.48753 2.52008 6.70753C2.44675 6.92753 2.60008 7.25419 2.92675 7.57419L4.58008 9.22753C4.98008 9.62753 5.18675 10.3475 5.06008 10.9009L4.58675 12.9475C4.43341 13.6075 4.54008 13.9542 4.68008 14.0542C4.82008 14.1542 5.18008 14.1475 5.76675 13.8075L7.76008 12.6275C8.01341 12.4742 8.34008 12.3942 8.66675 12.3942Z" fill="url(#paint0_linear_6391_6708)"/>
<defs>
<linearGradient id="paint0_linear_6391_6708" x1="1.92053" y1="14.3235" x2="22.117" y2="13.7968" gradientUnits="userSpaceOnUse">
<stop stop-color="#005F73"/>
<stop offset="1" stop-color="#6CC24A"/>
</linearGradient>
</defs>
</svg>
