<svg width="17" height="16" viewBox="0 0 17 16" fill="none" xmlns="http://www.w3.org/2000/svg">
<g clip-path="url(#clip0_874_6843)">
<path d="M11.3151 8.35971L9.17337 9.43043C8.53097 9.75318 8.00972 10.2744 7.68697 10.9168L6.61609 13.0586C6.45625 13.3623 6.02473 13.3623 5.86489 13.0586L4.79401 10.917C4.47126 10.2746 3.95001 9.75334 3.30761 9.43059L1.13401 8.35955C0.83033 8.19955 0.83033 7.76819 1.13401 7.60835L3.29161 6.55331C3.93401 6.23055 4.45526 5.70931 4.77801 5.06691L5.84889 2.92531C6.00889 2.62147 6.44025 2.62147 6.60009 2.92531L7.67097 5.06691C7.99372 5.70931 8.51497 6.23055 9.15737 6.55331L11.2991 7.62419C11.6188 7.76819 11.6188 8.21571 11.3151 8.35971ZM15.9982 13.1546L15.0711 12.6911C14.7989 12.5467 14.5762 12.324 14.4318 12.0517L13.9683 11.1247C13.9043 10.9967 13.7126 10.9967 13.6486 11.1247L13.1851 12.0517C13.0406 12.324 12.8179 12.5467 12.5457 12.6911L11.6186 13.1546C11.4906 13.2186 11.4906 13.4103 11.6186 13.4743L12.5457 13.9378C12.8179 14.0822 13.0406 14.3049 13.1851 14.5771L13.6486 15.5042C13.7126 15.632 13.9043 15.632 13.9683 15.5042L14.4318 14.5771C14.5762 14.3049 14.7989 14.0822 15.0711 13.9378L15.9982 13.4743C16.126 13.3943 16.126 13.2184 15.9982 13.1546ZM15.9982 2.52579L15.0711 2.06227C14.7989 1.91786 14.5762 1.69515 14.4318 1.42291L13.9683 0.496026C13.9043 0.368186 13.7126 0.368186 13.6486 0.496026L13.1851 1.42307C13.0406 1.69531 12.8179 1.91802 12.5457 2.06243L11.6186 2.52595C11.4906 2.58995 11.4906 2.78163 11.6186 2.84563L12.5457 3.30915C12.8179 3.45355 13.0406 3.67626 13.1851 3.94851L13.6486 4.87555C13.7126 5.00355 13.9043 5.00355 13.9683 4.87555L14.4318 3.94851C14.5762 3.67626 14.7989 3.45355 15.0711 3.30915L15.9982 2.84563C16.126 2.76563 16.126 2.58979 15.9982 2.52579Z" fill="white"/>
</g>
<defs>
<clipPath id="clip0_874_6843">
<rect width="16" height="16" fill="white" transform="translate(0.5)"/>
</clipPath>
</defs>
</svg>
