<svg width="28" height="28" viewBox="0 0 28 28" fill="none" xmlns="http://www.w3.org/2000/svg">
<path d="M12.7627 2.05898C13.3585 1.18962 14.6415 1.18962 15.2373 2.05897L18.8282 7.29859C19.1533 7.77291 19.632 8.12068 20.1835 8.28327L26.2764 10.0793C27.2873 10.3773 27.6838 11.5975 27.0411 12.4328L23.1676 17.4671C22.8169 17.9229 22.6341 18.4856 22.6499 19.0604L22.8245 25.41C22.8535 26.4636 21.8155 27.2177 20.8225 26.8646L14.8376 24.7363C14.2958 24.5437 13.7042 24.5437 13.1624 24.7363L7.17748 26.8646C6.18447 27.2177 5.1465 26.4636 5.17548 25.41L5.35012 19.0604C5.36593 18.4856 5.1831 17.9229 4.83244 17.4671L0.958932 12.4328C0.316238 11.5975 0.712705 10.3773 1.72363 10.0793L7.81646 8.28327C8.36802 8.12068 8.84668 7.77291 9.17175 7.29859L12.7627 2.05898Z" stroke="#FFE120"/>
</svg>
