<svg width="28" height="28" viewBox="0 0 28 28" fill="none" xmlns="http://www.w3.org/2000/svg">
<path d="M12.3503 1.77632C13.1447 0.617171 14.8553 0.617169 15.6497 1.77631L19.2407 7.01593C19.5007 7.39539 19.8837 7.6736 20.3249 7.80367L26.4177 9.59973C27.7656 9.99706 28.2943 11.624 27.4373 12.7377L23.5638 17.772C23.2833 18.1366 23.137 18.5868 23.1497 19.0466L23.3243 25.3963C23.363 26.801 21.979 27.8065 20.655 27.3357L14.6701 25.2074C14.2367 25.0533 13.7633 25.0533 13.3299 25.2074L7.34501 27.3357C6.02099 27.8065 4.63703 26.801 4.67567 25.3963L4.8503 19.0466C4.86295 18.5868 4.71669 18.1366 4.43616 17.772L0.562657 12.7377C-0.294268 11.624 0.234353 9.99706 1.58225 9.59973L7.67508 7.80367C8.11633 7.6736 8.49926 7.39539 8.75932 7.01593L12.3503 1.77632Z" fill="#FFE120"/>
</svg>
