<svg width="12" height="13" viewBox="0 0 12 13" fill="none" xmlns="http://www.w3.org/2000/svg">
<path d="M8.14682 1.41016H4.0479C2.26747 1.41016 1.20605 2.47157 1.20605 4.252V8.34603C1.20605 10.1314 2.26747 11.1928 4.0479 11.1928H8.14192C9.92236 11.1928 10.9838 10.1314 10.9838 8.35092V4.252C10.9887 2.47157 9.92725 1.41016 8.14682 1.41016ZM3.95986 9.30961C3.95986 9.51016 3.79355 9.67646 3.59301 9.67646C3.39247 9.67646 3.22616 9.51016 3.22616 9.30961V8.29711C3.22616 8.09657 3.39247 7.93026 3.59301 7.93026C3.79355 7.93026 3.95986 8.09657 3.95986 8.29711V9.30961ZM6.46421 9.30961C6.46421 9.51016 6.2979 9.67646 6.09736 9.67646C5.89682 9.67646 5.73051 9.51016 5.73051 9.30961V7.27972C5.73051 7.07918 5.89682 6.91287 6.09736 6.91287C6.2979 6.91287 6.46421 7.07918 6.46421 7.27972V9.30961ZM8.96855 9.30961C8.96855 9.51016 8.80225 9.67646 8.60171 9.67646C8.40116 9.67646 8.23486 9.51016 8.23486 9.30961V6.26722C8.23486 6.06668 8.40116 5.90037 8.60171 5.90037C8.80225 5.90037 8.96855 6.06668 8.96855 6.26722V9.30961ZM8.96855 4.72157C8.96855 4.92211 8.80225 5.08842 8.60171 5.08842C8.40116 5.08842 8.23486 4.92211 8.23486 4.72157V4.24711C6.98758 5.52863 5.42725 6.43353 3.68105 6.86885C3.65171 6.87863 3.62236 6.87863 3.59301 6.87863C3.42671 6.87863 3.27997 6.76613 3.23595 6.59983C3.18703 6.40418 3.30442 6.20363 3.50497 6.15472C5.15334 5.74385 6.62073 4.87809 7.78486 3.65527H7.17345C6.9729 3.65527 6.8066 3.48896 6.8066 3.28842C6.8066 3.08787 6.9729 2.92157 7.17345 2.92157H8.6066C8.62616 2.92157 8.64084 2.93135 8.6604 2.93135C8.68486 2.93624 8.70931 2.93624 8.73377 2.94603C8.75823 2.95581 8.77779 2.97048 8.80225 2.98516C8.81692 2.99494 8.8316 2.99983 8.84627 3.00961C8.85116 3.0145 8.85116 3.0194 8.85605 3.0194C8.87562 3.03896 8.89029 3.05853 8.90497 3.07809C8.91964 3.09766 8.93431 3.11233 8.93921 3.1319C8.94899 3.15146 8.94899 3.17103 8.95388 3.19548C8.95877 3.21994 8.96855 3.2444 8.96855 3.27374C8.96855 3.27863 8.97345 3.28353 8.97345 3.28842V4.72157H8.96855Z" fill="#9381FF"/>
</svg>
