<svg width="16" height="17" viewBox="0 0 16 17" fill="none" xmlns="http://www.w3.org/2000/svg">
<g opacity="0.6"><path d="M4.58594 12.7023C4.3126 12.7023 4.08594 12.4756 4.08594 12.2023V10.8223C4.08594 10.549 4.3126 10.3223 4.58594 10.3223C4.85927 10.3223 5.08594 10.549 5.08594 10.8223V12.2023C5.08594 12.4823 4.85927 12.7023 4.58594 12.7023Z" fill="white"/>
<path d="M8 12.7023C7.72667 12.7023 7.5 12.4756 7.5 12.2023V9.43564C7.5 9.16231 7.72667 8.93564 8 8.93564C8.27333 8.93564 8.5 9.16231 8.5 9.43564V12.2023C8.5 12.4823 8.27333 12.7023 8 12.7023Z" fill="white"/>
<path d="M11.4141 12.7023C11.1407 12.7023 10.9141 12.4756 10.9141 12.2023V8.05563C10.9141 7.7823 11.1407 7.55563 11.4141 7.55563C11.6874 7.55563 11.9141 7.7823 11.9141 8.05563V12.2023C11.9141 12.4823 11.6941 12.7023 11.4141 12.7023Z" fill="white"/>
<path d="M4.58769 8.88896C4.36103 8.88896 4.16103 8.73562 4.10103 8.50896C4.03436 8.24229 4.19436 7.96896 4.46769 7.90229C6.92103 7.28896 9.08103 5.94896 10.7277 4.03563L11.0344 3.67563C11.2144 3.46896 11.5277 3.44229 11.741 3.62229C11.9477 3.80229 11.9744 4.11563 11.7944 4.32896L11.4877 4.68896C9.70769 6.76896 7.36103 8.21563 4.70769 8.87563C4.66769 8.88896 4.62769 8.88896 4.58769 8.88896Z" fill="white"/>
<path d="M11.4143 6.44896C11.1409 6.44896 10.9143 6.22229 10.9143 5.94896V4.50229H9.46094C9.1876 4.50229 8.96094 4.27562 8.96094 4.00229C8.96094 3.72896 9.1876 3.50229 9.46094 3.50229H11.4143C11.6876 3.50229 11.9143 3.72896 11.9143 4.00229V5.95562C11.9143 6.22896 11.6943 6.44896 11.4143 6.44896Z" fill="white"/>
<path d="M9.9987 15.269H5.9987C2.3787 15.269 0.832031 13.7223 0.832031 10.1023V6.10231C0.832031 2.48231 2.3787 0.935638 5.9987 0.935638H9.9987C13.6187 0.935638 15.1654 2.48231 15.1654 6.10231V10.1023C15.1654 13.7223 13.6187 15.269 9.9987 15.269ZM5.9987 1.93564C2.92536 1.93564 1.83203 3.02897 1.83203 6.10231V10.1023C1.83203 13.1756 2.92536 14.269 5.9987 14.269H9.9987C13.072 14.269 14.1654 13.1756 14.1654 10.1023V6.10231C14.1654 3.02897 13.072 1.93564 9.9987 1.93564H5.9987Z" fill="white"/>
</g>
</svg>
