<svg width="12" height="12" viewBox="0 0 12 12" fill="none" xmlns="http://www.w3.org/2000/svg">
<path d="M4.9949 11.2748C4.9699 11.2748 4.9449 11.2748 4.9199 11.2648C3.0049 10.8748 1.4499 9.46478 0.869899 7.59478C0.809899 7.39478 0.919902 7.18478 1.1149 7.12478C1.3149 7.06478 1.5249 7.17478 1.5849 7.36978C2.0849 8.97978 3.4199 10.1898 5.0699 10.5248C5.2749 10.5648 5.4049 10.7648 5.3599 10.9698C5.3249 11.1498 5.1649 11.2748 4.9949 11.2748Z" fill="#888888"/>
<path d="M10.9751 5.865C10.7851 5.865 10.6201 5.72 10.6001 5.53C10.3601 3.16 8.38011 1.375 6.00011 1.375C3.61511 1.375 1.64011 3.16 1.40011 5.525C1.38011 5.73 1.20011 5.885 0.990112 5.86C0.785112 5.84 0.635109 5.655 0.655109 5.45C0.935109 2.7 3.23511 0.625 6.00011 0.625C8.77011 0.625 11.0701 2.7 11.3451 5.45C11.3651 5.655 11.2151 5.84 11.0101 5.86C11.0001 5.865 10.9851 5.865 10.9751 5.865Z" fill="#888888"/>
<path d="M7.00504 11.2749C6.83004 11.2749 6.67504 11.1549 6.64004 10.9749C6.60004 10.7699 6.73004 10.5749 6.93004 10.5349C8.57004 10.1999 9.90504 8.99992 10.41 7.39992C10.47 7.19992 10.685 7.08992 10.88 7.15492C11.08 7.21492 11.185 7.42992 11.125 7.62492C10.535 9.48492 8.98505 10.8799 7.08005 11.2699C7.05505 11.2699 7.03004 11.2749 7.00504 11.2749Z" fill="#888888"/>
</svg>
