<svg width="16" height="16" viewBox="0 0 16 16" fill="none" xmlns="http://www.w3.org/2000/svg">
<path d="M10.0002 15.1673H6.00016C2.38016 15.1673 0.833496 13.6207 0.833496 10.0007V6.00065C0.833496 2.38065 2.38016 0.833984 6.00016 0.833984H10.0002C13.6202 0.833984 15.1668 2.38065 15.1668 6.00065V10.0007C15.1668 13.6207 13.6202 15.1673 10.0002 15.1673ZM6.00016 1.83398C2.92683 1.83398 1.8335 2.92732 1.8335 6.00065V10.0007C1.8335 13.074 2.92683 14.1673 6.00016 14.1673H10.0002C13.0735 14.1673 14.1668 13.074 14.1668 10.0007V6.00065C14.1668 2.92732 13.0735 1.83398 10.0002 1.83398H6.00016Z" fill="#005F73"/>
<path d="M11.6664 11.8867H10.4331C10.1598 11.8867 9.93311 11.6601 9.93311 11.3867C9.93311 11.1134 10.1598 10.8867 10.4331 10.8867H11.6664C11.9398 10.8867 12.1664 11.1134 12.1664 11.3867C12.1664 11.6601 11.9398 11.8867 11.6664 11.8867Z" fill="#005F73"/>
<path d="M8.64683 11.8867H4.3335C4.06016 11.8867 3.8335 11.6601 3.8335 11.3867C3.8335 11.1134 4.06016 10.8867 4.3335 10.8867H8.64683C8.92016 10.8867 9.14683 11.1134 9.14683 11.3867C9.14683 11.6601 8.92683 11.8867 8.64683 11.8867Z" fill="#005F73"/>
<path d="M11.6666 9.38086H7.97998C7.70665 9.38086 7.47998 9.15419 7.47998 8.88086C7.47998 8.60753 7.70665 8.38086 7.97998 8.38086H11.6666C11.94 8.38086 12.1666 8.60753 12.1666 8.88086C12.1666 9.15419 11.94 9.38086 11.6666 9.38086Z" fill="#005F73"/>
<path d="M6.18016 9.38086H4.3335C4.06016 9.38086 3.8335 9.15419 3.8335 8.88086C3.8335 8.60753 4.06016 8.38086 4.3335 8.38086H6.18016C6.4535 8.38086 6.68016 8.60753 6.68016 8.88086C6.68016 9.15419 6.4535 9.38086 6.18016 9.38086Z" fill="#005F73"/>
</svg>
