<svg width="20" height="62" viewBox="0 0 20 62" fill="none" xmlns="http://www.w3.org/2000/svg">
<path d="M20 1V1C13.3726 1 8 6.37258 8 13V49C8 55.6274 13.3726 61 20 61V61" stroke="#E9EDF5"/>
<rect width="16" height="16" transform="translate(0 39) rotate(-90)" fill="#FCFCFC"/>
<path d="M12.3933 28.7266C12.3933 28.9933 12.1733 29.2133 11.9066 29.2133C11.6399 29.2133 11.4199 28.9933 11.4199 28.7266C11.4199 26.8466 9.88661 25.3133 8.00661 25.3133C6.12661 25.3133 4.59328 26.8466 4.59328 28.7266C4.59328 30.6066 6.12661 32.1399 8.00661 32.1399C8.27328 32.1399 8.49328 32.3599 8.49328 32.6266C8.49328 32.8933 8.27328 33.1133 8.00661 33.1133C5.58661 33.1133 3.61328 31.1466 3.61328 28.7199C3.61328 26.2933 5.57995 24.3333 7.99995 24.3333C10.4199 24.3333 12.3933 26.2999 12.3933 28.7266Z" fill="#888888"/>
<path d="M3.60547 33.2732C3.60547 33.0065 3.82547 32.7865 4.09214 32.7865C4.3588 32.7865 4.5788 33.0065 4.5788 33.2732C4.5788 35.1532 6.11214 36.6865 7.99214 36.6865C9.87214 36.6865 11.4055 35.1532 11.4055 33.2732C11.4055 31.3932 9.87213 29.8598 7.99213 29.8598C7.72547 29.8598 7.50547 29.6398 7.50547 29.3732C7.50547 29.1065 7.72547 28.8865 7.99213 28.8865C10.4121 28.8865 12.3855 30.8532 12.3855 33.2798C12.3855 35.7065 10.4188 37.6665 7.9988 37.6665C5.5788 37.6665 3.60547 35.6998 3.60547 33.2732Z" fill="#888888"/>
</svg>
