<svg width="20" height="217" viewBox="0 0 20 217" fill="none" xmlns="http://www.w3.org/2000/svg">
<path d="M20 1V1C13.3726 1 8 6.37259 8 13V204C8 210.627 13.3726 216 20 216V216" stroke="#909090"/>
<rect width="16" height="16" transform="translate(0 108) rotate(-90)" fill="white"/>
<path d="M12.3933 97.7266C12.3933 97.9933 12.1733 98.2133 11.9066 98.2133C11.6399 98.2133 11.4199 97.9933 11.4199 97.7266C11.4199 95.8466 9.88661 94.3133 8.00661 94.3133C6.12661 94.3133 4.59328 95.8466 4.59328 97.7266C4.59328 99.6066 6.12661 101.14 8.00661 101.14C8.27328 101.14 8.49328 101.36 8.49328 101.627C8.49328 101.893 8.27328 102.113 8.00661 102.113C5.58661 102.113 3.61328 100.147 3.61328 97.7199C3.61328 95.2933 5.57995 93.3333 7.99995 93.3333C10.4199 93.3333 12.3933 95.2999 12.3933 97.7266Z" fill="#909090"/>
<path d="M3.60669 102.275C3.60669 102.008 3.82669 101.788 4.09336 101.788C4.36002 101.788 4.58002 102.008 4.58002 102.275C4.58002 104.155 6.11336 105.688 7.99336 105.688C9.87336 105.688 11.4067 104.155 11.4067 102.275C11.4067 100.395 9.87336 98.8613 7.99336 98.8613C7.72669 98.8613 7.50669 98.6413 7.50669 98.3746C7.50669 98.108 7.72669 97.888 7.99336 97.888C10.4134 97.888 12.3867 99.8546 12.3867 102.281C12.3867 104.708 10.42 106.668 8.00002 106.668C5.58002 106.668 3.60669 104.701 3.60669 102.275Z" fill="#909090"/>
</svg>
