<svg width="154" height="154" viewBox="0 0 154 154" fill="none" xmlns="http://www.w3.org/2000/svg">
<g opacity="0.8">
<path d="M107.068 97.4112L107.055 97.3931C104.418 93.8458 105.173 88.8341 108.721 86.1982L128.51 71.4918C132.057 68.8556 137.074 69.5785 139.71 73.1258L139.723 73.1439C142.359 76.6912 141.618 81.7211 138.071 84.357L118.281 99.0634C114.734 101.7 109.704 100.958 107.068 97.4112Z" fill="#EBEBEB"/>
<path opacity="0.1" d="M139.71 73.1253L139.725 73.1447C142.361 76.6923 141.618 81.7219 138.071 84.3581L118.282 99.0635C115.339 101.25 111.379 101.114 108.608 98.9804C110.535 99.1827 112.537 98.6912 114.212 97.4462L134.002 82.7392C137.55 80.1027 138.291 75.0746 135.654 71.5271L135.64 71.5077C135.193 70.9065 134.677 70.3844 134.11 69.9492C136.262 70.1676 138.319 71.2527 139.71 73.1253Z" fill="black"/>
<path opacity="0.7" d="M133.303 71.918C133.204 71.9919 133.085 72.0427 132.953 72.0615C131.738 72.2346 130.571 72.716 129.579 73.4531L122.162 78.965C121.821 79.2182 121.34 79.1474 121.086 78.8064C120.833 78.4658 120.904 77.984 121.245 77.7306L128.662 72.2186C129.859 71.3291 131.268 70.7482 132.736 70.5391C133.157 70.479 133.546 70.7713 133.606 71.192C133.647 71.4806 133.522 71.7554 133.303 71.918Z" fill="white"/>
<path d="M108.354 86.2325C104.723 88.9312 103.967 94.0628 106.665 97.6944C109.372 101.336 114.518 102.094 118.16 99.3881L128.289 91.8609L118.502 78.6914L108.354 86.2325Z" fill="#DBDBDB"/>
<path opacity="0.7" d="M107.42 91.1496C107.201 91.3122 106.902 91.3532 106.637 91.2303C106.252 91.0516 106.084 90.5946 106.263 90.2093C106.887 88.8636 107.849 87.6824 109.046 86.7926L116.464 81.2807C116.805 81.0275 117.286 81.0983 117.539 81.4393C117.793 81.7799 117.722 82.2616 117.381 82.5151L109.964 88.0271C108.971 88.7641 108.174 89.7423 107.658 90.8561C107.602 90.9768 107.52 91.0757 107.42 91.1496Z" fill="white"/>
<path opacity="0.1" d="M125.979 88.7578L128.288 91.8646L118.16 99.3909C116.338 100.745 114.142 101.232 112.061 100.926C109.982 100.618 108.019 99.5184 106.665 97.6972C105.381 95.9693 104.878 93.9042 105.096 91.9219C105.33 92.4323 105.62 92.9254 105.968 93.3926C107.32 95.2123 109.285 96.3137 111.364 96.6183C113.445 96.9247 115.641 96.4399 117.462 95.0863L125.979 88.7578Z" fill="black"/>
<path d="M14.4892 13.9028L14.5019 13.8838C16.9542 10.2072 21.9274 9.23049 25.604 11.6828L46.1153 25.3645C49.7919 27.8167 50.8003 32.7836 48.348 36.4602L48.3354 36.4792C45.8831 40.1558 40.8972 41.1516 37.2206 38.6993L16.7096 25.0176C13.033 22.5653 12.0369 17.5794 14.4892 13.9028Z" fill="#EBEBEB"/>
<path opacity="0.1" d="M48.3499 36.4579L48.3364 36.4779C45.8838 40.1549 40.8979 41.1491 37.221 38.6965L16.7106 25.0157C13.6605 22.9814 12.455 19.2065 13.5311 15.8789C13.9894 17.7611 15.1266 19.4807 16.8628 20.6387L37.375 34.3207C41.0519 36.7733 46.0362 35.7779 48.4888 32.101L48.5024 32.0809C48.9182 31.4579 49.2357 30.7957 49.4544 30.115C49.9734 32.2146 49.6444 34.5172 48.3499 36.4579Z" fill="black"/>
<path opacity="0.7" d="M47.3298 30.0221C47.2266 29.9534 47.1388 29.8585 47.0769 29.7409C46.5046 28.6548 45.6586 27.7185 44.6305 27.0326L36.9428 21.9047C36.5895 21.6691 36.4943 21.1917 36.73 20.8384C36.9656 20.4851 37.443 20.3897 37.7962 20.6256L45.4839 25.7535C46.7249 26.5811 47.7462 27.7121 48.4373 29.0241C48.6354 29.3996 48.4912 29.8647 48.1155 30.0627C47.8574 30.1989 47.5565 30.1733 47.3298 30.0221Z" fill="white"/>
<path d="M25.4462 11.3506C21.6821 8.83981 16.5955 9.85591 14.085 13.62C11.5671 17.3945 12.586 22.4956 16.3608 25.0135L26.8593 32.0162L35.9641 18.3663L25.4462 11.3506Z" fill="#DBDBDB"/>
<path opacity="0.7" d="M20.5018 12.1277C20.2748 11.9764 20.1359 11.7088 20.1624 11.418C20.2009 10.9952 20.5748 10.6835 20.9977 10.722C22.4746 10.8563 23.9114 11.3648 25.152 12.1924L32.8397 17.3202C33.193 17.5559 33.2881 18.0333 33.0525 18.3865C32.8169 18.7398 32.3395 18.8353 31.9862 18.5997L24.2985 13.4718C23.2704 12.7859 22.0806 12.3645 20.8582 12.2533C20.726 12.241 20.6047 12.1964 20.5018 12.1277Z" fill="white"/>
<path opacity="0.1" d="M29.0061 28.7969L26.8581 32.017L16.3612 25.0149C14.4734 23.7558 13.2741 21.8521 12.8623 19.7894C12.452 17.728 12.8263 15.5085 14.0854 13.6208C15.2801 11.8298 17.0551 10.6609 18.9952 10.1992C18.5936 10.5916 18.2267 11.0308 17.9036 11.515C16.6458 13.4009 16.2703 15.6222 16.6836 17.683C17.0954 19.7454 18.2917 21.6497 20.1794 22.9091L29.0061 28.7969Z" fill="black"/>
<path d="M134.469 112.322L131.903 115.242C131.869 115.287 131.815 115.335 131.772 115.392C130.862 116.241 129.129 116.216 127.091 115.461C125.27 114.798 123.197 113.57 121.206 111.902C120.941 111.685 120.686 111.456 120.441 111.235C120.186 111.006 119.93 110.777 119.695 110.545C115.891 106.81 114.092 102.715 115.584 101.002L118.138 98.0742C116.647 99.787 118.445 103.882 122.249 107.617C122.496 107.858 122.752 108.087 122.996 108.307C123.243 108.547 123.507 108.765 123.76 108.974C125.751 110.642 127.824 111.87 129.645 112.533C131.694 113.297 133.407 113.324 134.326 112.464C134.381 112.416 134.415 112.37 134.469 112.322Z" fill="#DBDBDB"/>
<path d="M122.97 97.8645C124.786 98.5291 126.856 99.7537 128.845 101.416L122.253 107.616C122.494 107.849 122.743 108.085 122.995 108.308C123.241 108.535 123.502 108.761 123.759 108.978L130.35 102.778C134.273 106.617 136.06 110.84 134.328 112.457C133.416 113.32 131.691 113.286 129.64 112.535C127.823 111.87 125.75 110.642 123.759 108.978C123.502 108.761 123.241 108.535 122.995 108.308C122.743 108.085 122.493 107.849 122.253 107.616C118.331 103.777 116.544 99.5551 118.276 97.9381C119.19 97.0781 120.917 97.1129 122.97 97.8645Z" fill="#EBEBEB"/>
<path d="M128.846 101.418C129.103 101.635 129.364 101.861 129.61 102.088C129.861 102.311 130.111 102.547 130.351 102.78L123.759 108.98C123.503 108.763 123.241 108.537 122.996 108.31C122.744 108.087 122.494 107.851 122.254 107.618L128.846 101.418Z" fill="#DBDBDB"/>
<path d="M117.121 33.507C114.74 33.8079 112.04 33.361 109.585 32.4314C107.413 31.598 105.446 30.3681 104.074 28.8999C103.902 28.72 103.742 28.5158 103.576 28.3236C103.428 28.1247 103.28 27.9257 103.162 27.7252C102.298 26.4094 102.083 25.1309 102.446 24.0501L103.499 20.8516C103.137 21.9323 103.352 23.2108 104.222 24.5448C104.346 24.7327 104.481 24.9261 104.642 25.1306C104.79 25.3296 104.955 25.5218 105.127 25.7013C106.499 27.1696 108.466 28.3994 110.639 29.2329C113.089 30.1747 115.793 30.6093 118.169 30.3207C120.81 30.0022 122.494 28.8435 123.005 27.2965L121.951 30.495C121.44 32.0421 119.762 33.1885 117.121 33.507Z" fill="#DBDBDB"/>
<path d="M105.132 25.6983L104.516 27.5633L120.307 25.6432L121.363 22.4492L104.222 24.5335C104.341 24.7247 104.483 24.9249 104.639 25.1233C104.796 25.3216 104.955 25.5138 105.132 25.6983Z" fill="#005F73"/>
<path d="M121.362 22.4492C121.54 22.6337 121.71 22.8302 121.867 23.0286C122.023 23.2269 122.157 23.4166 122.288 23.6125L105.132 25.6986C104.955 25.5141 104.796 25.3219 104.639 25.1236C104.483 24.9252 104.341 24.725 104.222 24.5338L121.362 22.4492Z" fill="#DBDBDB"/>
<path d="M122.287 23.6133L121.231 26.8072L104.075 28.8933L105.131 25.6994L122.287 23.6133Z" fill="#DBDBDB"/>
<path d="M115.861 18.9236C118.03 19.7552 119.998 20.982 121.363 22.4499L104.222 24.5342C104.342 24.7254 104.484 24.9256 104.64 25.124C104.796 25.3223 104.956 25.5148 105.133 25.699L122.288 23.6129C124.388 26.8359 122.657 29.7692 118.173 30.3144C115.796 30.6036 113.091 30.1669 110.64 29.2269C108.469 28.3943 106.498 27.167 105.133 25.699C104.956 25.5148 104.796 25.3223 104.64 25.124C104.483 24.9256 104.341 24.7254 104.222 24.5342C102.123 21.3113 103.851 18.3834 108.334 17.8383C110.712 17.5493 113.414 17.9849 115.861 18.9236Z" fill="#EBEBEB"/>
<path d="M32.1277 126.828L34.4854 129.918C34.5233 129.961 34.56 130.024 34.6071 130.077C35.2598 131.136 34.8951 132.83 33.7539 134.68C32.7456 136.335 31.1332 138.126 29.1068 139.75C28.8413 139.966 28.5666 140.172 28.3023 140.368C28.0276 140.573 27.7526 140.779 27.4788 140.964C23.0679 143.959 18.6992 144.917 17.3138 143.117L14.9453 140.036C16.331 141.836 20.6997 140.878 25.1105 137.883C25.3948 137.688 25.6699 137.483 25.9341 137.287C26.2184 137.092 26.4839 136.876 26.7386 136.669C28.765 135.045 30.3773 133.254 31.3857 131.599C32.5377 129.74 32.9011 128.066 32.2389 126.996C32.2022 126.934 32.1644 126.891 32.1277 126.828Z" fill="#DBDBDB"/>
<path d="M15.6936 135.258C16.7023 133.609 18.3106 131.82 20.3314 130.197L25.1137 137.88C25.3894 137.69 25.67 137.491 25.9376 137.288C26.2093 137.092 26.4819 136.88 26.7452 136.671L21.9629 128.989C26.4982 125.898 30.9901 124.977 32.2347 126.993C32.9024 128.057 32.5292 129.741 31.3895 131.604C30.3796 133.255 28.7685 135.047 26.7452 136.671C26.4819 136.88 26.209 137.092 25.9376 137.288C25.6703 137.491 25.3894 137.69 25.1137 137.88C20.5781 140.97 16.0866 141.891 14.8422 139.875C14.1788 138.809 14.553 137.123 15.6936 135.258Z" fill="#EBEBEB"/>
<path d="M20.333 130.197C20.5963 129.987 20.8692 129.776 21.1406 129.58C21.4082 129.377 21.6888 129.178 21.9645 128.988L26.7468 136.671C26.4835 136.88 26.2106 137.092 25.9392 137.288C25.6719 137.491 25.391 137.689 25.1153 137.879L20.333 130.197Z" fill="#DBDBDB"/>
<path d="M19.915 107.803C22.0804 107.803 23.8358 106.047 23.8358 103.882C23.8358 101.716 22.0804 99.9609 19.915 99.9609C17.7496 99.9609 15.9941 101.716 15.9941 103.882C15.9941 106.047 17.7496 107.803 19.915 107.803Z" fill="#EBEBEB"/>
<path opacity="0.1" d="M23.8355 103.883C23.8355 106.048 22.0799 107.803 19.9149 107.803C17.75 107.803 15.9932 106.048 15.9932 103.883C15.9932 101.716 17.75 99.9609 19.9149 99.9609C19.9895 99.9609 20.0625 99.9634 20.1358 99.9674C18.4368 100.07 17.0912 101.48 17.0912 103.206C17.0912 104.997 18.5434 106.45 20.335 106.45C22.1264 106.45 23.5801 104.998 23.5801 103.206C23.5801 102.764 23.4914 102.342 23.331 101.958C23.6516 102.527 23.8355 103.183 23.8355 103.883Z" fill="black"/>
<path d="M20.7829 100.737C20.056 101.477 21.9927 102.901 22.6192 102.488C23.2457 102.075 21.5591 99.9468 20.7829 100.737Z" fill="white"/>
<path d="M100.388 136.283C102.553 136.283 104.308 134.528 104.308 132.362C104.308 130.197 102.553 128.441 100.388 128.441C98.2222 128.441 96.4668 130.197 96.4668 132.362C96.4668 134.528 98.2222 136.283 100.388 136.283Z" fill="#EBEBEB"/>
<path opacity="0.1" d="M104.308 132.363C104.308 134.528 102.553 136.284 100.388 136.284C98.2223 136.284 96.4658 134.528 96.4658 132.363C96.4658 130.197 98.2226 128.441 100.388 128.441C100.462 128.441 100.535 128.444 100.608 128.448C98.9095 128.551 97.5638 129.96 97.5638 131.686C97.5638 133.478 99.0164 134.93 100.808 134.93C102.599 134.93 104.053 133.478 104.053 131.686C104.053 131.245 103.964 130.822 103.804 130.438C104.124 131.007 104.308 131.663 104.308 132.363Z" fill="black"/>
<path d="M101.256 129.217C100.529 129.957 102.465 131.381 103.092 130.968C103.718 130.555 102.032 128.427 101.256 129.217Z" fill="white"/>
<path d="M60.7269 121.482C61.1709 119.611 60.0142 117.735 58.1434 117.291C56.2727 116.847 54.3962 118.004 53.9523 119.874C53.5083 121.745 54.665 123.622 56.5358 124.066C58.4065 124.51 60.283 123.353 60.7269 121.482Z" fill="#EBEBEB"/>
<path opacity="0.1" d="M60.8171 120.677C60.8171 122.599 59.2587 124.158 57.3364 124.158C55.4142 124.158 53.8545 122.599 53.8545 120.677C53.8545 118.754 55.4142 117.195 57.3364 117.195C57.4027 117.195 57.4676 117.197 57.5326 117.201C56.0244 117.292 54.8293 118.544 54.8293 120.077C54.8293 121.667 56.1189 122.956 57.7091 122.956C59.2993 122.956 60.5901 121.667 60.5901 120.077C60.5901 119.685 60.5116 119.309 60.369 118.968C60.6542 119.473 60.8171 120.056 60.8171 120.677Z" fill="black"/>
<path d="M58.1233 117.87C57.4777 118.527 59.1976 119.791 59.7536 119.424C60.3098 119.058 58.8123 117.168 58.1233 117.87Z" fill="white"/>
<path d="M78.1815 83.2322C80.1042 83.2322 81.6628 81.6735 81.6628 79.7509C81.6628 77.8282 80.1042 76.2695 78.1815 76.2695C76.2588 76.2695 74.7002 77.8282 74.7002 79.7509C74.7002 81.6735 76.2588 83.2322 78.1815 83.2322Z" fill="#EBEBEB"/>
<path opacity="0.1" d="M81.6628 79.7515C81.6628 81.6737 80.1044 83.2322 78.1821 83.2322C76.2599 83.2322 74.7002 81.6737 74.7002 79.7515C74.7002 77.828 76.2599 76.2695 78.1821 76.2695C78.2484 76.2695 78.3133 76.2717 78.3783 76.2751C76.8701 76.3662 75.675 77.6183 75.675 79.1506C75.675 80.7411 76.9646 82.0304 78.5548 82.0304C80.1453 82.0304 81.4358 80.7408 81.4358 79.1506C81.4358 78.7585 81.357 78.3833 81.2147 78.0424C81.4996 78.5475 81.6628 79.1302 81.6628 79.7515Z" fill="black"/>
<path d="M78.969 76.9438C78.3235 77.6011 80.0433 78.8648 80.5993 78.4983C81.1552 78.1317 79.6577 76.2425 78.969 76.9438Z" fill="white"/>
<path d="M95.7238 36.2273C97.0833 34.8677 97.0833 32.6635 95.7238 31.304C94.3643 29.9444 92.16 29.9444 90.8005 31.304C89.441 32.6635 89.441 34.8677 90.8005 36.2273C92.16 37.5868 94.3643 37.5868 95.7238 36.2273Z" fill="#EBEBEB"/>
<path opacity="0.1" d="M96.7439 33.7671C96.7439 35.6893 95.1854 37.2478 93.2632 37.2478C91.341 37.2478 89.7812 35.6893 89.7812 33.7671C89.7812 31.8436 91.341 30.2852 93.2632 30.2852C93.3294 30.2852 93.3944 30.2873 93.4594 30.291C91.9511 30.3822 90.7561 31.6342 90.7561 33.1665C90.7561 34.757 92.0457 36.0466 93.6359 36.0466C95.2264 36.0466 96.5169 34.757 96.5169 33.1665C96.5169 32.7744 96.4384 32.3993 96.2958 32.0583C96.581 32.5631 96.7439 33.1456 96.7439 33.7671Z" fill="black"/>
<path d="M94.05 30.9595C93.4047 31.6168 95.1243 32.8805 95.6802 32.514C96.2365 32.1475 94.739 30.2579 94.05 30.9595Z" fill="white"/>
<path d="M29.9269 114.057C31.1357 114.057 32.1156 113.077 32.1156 111.868C32.1156 110.66 31.1357 109.68 29.9269 109.68C28.7182 109.68 27.7383 110.66 27.7383 111.868C27.7383 113.077 28.7182 114.057 29.9269 114.057Z" fill="#EBEBEB"/>
<path opacity="0.1" d="M32.1159 111.869C32.1159 113.078 31.1361 114.057 29.9275 114.057C28.719 114.057 27.7383 113.077 27.7383 111.869C27.7383 110.66 28.719 109.68 29.9275 109.68C29.9691 109.68 30.0101 109.681 30.0507 109.683C29.1024 109.741 28.3512 110.528 28.3512 111.491C28.3512 112.491 29.1619 113.302 30.1619 113.302C31.162 113.302 31.9733 112.491 31.9733 111.491C31.9733 111.245 31.9237 111.009 31.8344 110.795C32.0133 111.112 32.1159 111.478 32.1159 111.869Z" fill="black"/>
<path d="M30.4745 110.05C30.0689 110.463 31.1499 111.258 31.4995 111.028C31.8491 110.797 30.9079 109.609 30.4745 110.05Z" fill="white"/>
<path d="M83.7826 19.9035C83.7826 21.1124 82.8028 22.0921 81.5939 22.0921C80.385 22.0921 79.4053 21.1121 79.4053 19.9035C79.4053 18.6946 80.385 17.7148 81.5939 17.7148C82.8028 17.7148 83.7826 18.6946 83.7826 19.9035Z" fill="#EBEBEB"/>
<path opacity="0.1" d="M83.7829 19.9041C83.7829 21.1127 82.8031 22.0924 81.5945 22.0924C80.3859 22.0924 79.4053 21.1127 79.4053 19.9041C79.4053 18.6949 80.3859 17.7148 81.5945 17.7148C81.6361 17.7148 81.6771 17.7164 81.7177 17.7185C80.7694 17.7758 80.0182 18.5631 80.0182 19.5262C80.0182 20.5263 80.8289 21.3369 81.8289 21.3369C82.829 21.3369 83.6403 20.5263 83.6403 19.5262C83.6403 19.2795 83.5907 19.0439 83.5011 18.8295C83.6803 19.147 83.7829 19.5133 83.7829 19.9041Z" fill="black"/>
<path d="M82.1416 18.0856C81.7356 18.4986 82.817 19.2933 83.1666 19.0629C83.5162 18.8325 82.5749 17.6445 82.1416 18.0856Z" fill="white"/>
<path d="M138.013 95.9816C138.013 97.1905 137.033 98.1703 135.824 98.1703C134.615 98.1703 133.636 97.1905 133.636 95.9816C133.636 94.7727 134.616 93.793 135.824 93.793C137.033 93.793 138.013 94.7727 138.013 95.9816Z" fill="#EBEBEB"/>
<path opacity="0.1" d="M138.013 95.9822C138.013 97.1908 137.034 98.1706 135.825 98.1706C134.616 98.1706 133.636 97.1908 133.636 95.9822C133.636 94.773 134.616 93.793 135.825 93.793C135.867 93.793 135.908 93.7945 135.948 93.7967C135 93.854 134.249 94.6412 134.249 95.6046C134.249 96.6047 135.059 97.4154 136.059 97.4154C137.059 97.4154 137.871 96.6047 137.871 95.6046C137.871 95.3579 137.821 95.1223 137.732 94.9079C137.911 95.2252 138.013 95.5914 138.013 95.9822Z" fill="black"/>
<path d="M136.372 94.1637C135.966 94.5767 137.048 95.3714 137.397 95.141C137.747 94.9106 136.805 93.7227 136.372 94.1637Z" fill="white"/>
<path d="M51.7433 57.5179C52.9521 57.5179 53.932 56.538 53.932 55.3293C53.932 54.1205 52.9521 53.1406 51.7433 53.1406C50.5346 53.1406 49.5547 54.1205 49.5547 55.3293C49.5547 56.538 50.5346 57.5179 51.7433 57.5179Z" fill="#EBEBEB"/>
<path opacity="0.1" d="M53.9323 55.3299C53.9323 56.5385 52.9525 57.5182 51.744 57.5182C50.5354 57.5182 49.5547 56.5382 49.5547 55.3299C49.5547 54.1207 50.5354 53.1406 51.744 53.1406C51.7855 53.1406 51.8265 53.1422 51.8672 53.1443C50.9188 53.2016 50.1676 53.9889 50.1676 54.952C50.1676 55.9521 50.9783 56.7627 51.9783 56.7627C52.9784 56.7627 53.7897 55.9521 53.7897 54.952C53.7897 54.7053 53.7401 54.4696 53.6508 54.2553C53.8297 54.5731 53.9323 54.9393 53.9323 55.3299Z" fill="black"/>
<path d="M52.291 53.5114C51.8851 53.9244 52.9664 54.719 53.316 54.4887C53.6656 54.2583 52.7241 53.0703 52.291 53.5114Z" fill="white"/>
<path d="M81.7176 109.354L81.7315 109.324C84.4296 103.495 91.3528 100.978 97.1817 103.676L129.701 118.729C135.53 121.428 138.091 128.334 135.393 134.163L135.379 134.193C132.681 140.022 125.744 142.569 119.915 139.871L87.3956 124.818C81.5664 122.12 79.0196 115.183 81.7176 109.354Z" fill="#979797"/>
<path opacity="0.7" d="M81.7176 109.354L81.7315 109.324C84.4296 103.495 91.3528 100.978 97.1817 103.676L129.701 118.729C135.53 121.428 138.091 128.334 135.393 134.163L135.379 134.193C132.681 140.022 125.744 142.569 119.915 139.871L87.3956 124.818C81.5664 122.12 79.0196 115.183 81.7176 109.354Z" fill="white"/>
<path opacity="0.1" d="M135.395 134.164L135.38 134.195C132.682 140.025 125.744 142.57 119.915 139.871L87.3969 124.819C82.561 122.58 79.9846 117.43 80.7848 112.41C81.8646 115.01 83.8826 117.225 86.6352 118.499L119.156 133.553C124.985 136.251 131.92 133.705 134.618 127.876L134.633 127.844C135.09 126.856 135.398 125.834 135.56 124.808C136.776 127.706 136.819 131.086 135.395 134.164Z" fill="black"/>
<path opacity="0.7" d="M132.487 125.146C132.323 125.07 132.176 124.954 132.061 124.799C130.996 123.367 129.572 122.212 127.941 121.457L115.753 115.815C115.193 115.556 114.949 114.892 115.208 114.332C115.467 113.772 116.132 113.528 116.692 113.787L128.88 119.429C130.848 120.34 132.567 121.735 133.854 123.465C134.223 123.96 134.12 124.66 133.624 125.028C133.284 125.281 132.847 125.312 132.487 125.146Z" fill="white"/>
<path d="M96.8831 103.233C90.9156 100.471 83.8387 103.069 81.0762 109.037C78.3061 115.021 80.9117 122.119 86.8962 124.889L103.541 132.593L113.558 110.952L96.8831 103.233Z" fill="#979797"/>
<path opacity="0.7" d="M89.9555 105.453C89.5957 105.286 89.3361 104.933 89.309 104.51C89.2695 103.894 89.7368 103.363 90.3528 103.323C92.5038 103.185 94.6805 103.594 96.6477 104.504L108.836 110.146C109.396 110.405 109.64 111.07 109.381 111.63C109.121 112.189 108.457 112.433 107.897 112.174L95.7086 106.532C94.0783 105.778 92.2759 105.439 90.4954 105.553C90.3032 105.566 90.119 105.529 89.9555 105.453Z" fill="white"/>
<path opacity="0.1" d="M105.903 127.488L103.539 132.593L86.8966 124.889C83.9034 123.504 81.7551 121.039 80.7015 118.169C79.6509 115.301 79.6909 112.03 81.0763 109.037C82.3905 106.197 84.6781 104.121 87.3604 103.023C86.8716 103.677 86.4432 104.39 86.0878 105.157C84.7036 108.147 84.6623 111.421 85.7172 114.288C86.7709 117.158 88.9149 119.624 91.908 121.01L105.903 127.488Z" fill="black"/>
<path d="M19.2773 42.4657L19.2634 42.4355C16.5906 36.5946 19.1818 29.6994 25.0224 27.0266L57.6073 12.116C63.4482 9.44317 70.3597 11.9903 73.0322 17.8309L73.0461 17.8611C75.7189 23.702 73.1419 30.6271 67.301 33.2999L34.7164 48.2108C28.8758 50.8833 21.9501 48.3066 19.2773 42.4657Z" fill="#979797"/>
<path opacity="0.8" d="M19.2773 42.4657L19.2634 42.4355C16.5906 36.5946 19.1818 29.6994 25.0224 27.0266L57.6073 12.116C63.4482 9.44317 70.3597 11.9903 73.0322 17.8309L73.0461 17.8611C75.7189 23.702 73.1419 30.6271 67.301 33.2999L34.7164 48.2108C28.8758 50.8833 21.9501 48.3066 19.2773 42.4657Z" fill="white"/>
<path opacity="0.1" d="M73.033 17.828L73.0478 17.86C75.7207 23.7013 73.1415 30.6257 67.3002 33.2988L34.7172 48.2088C29.8718 50.4261 24.2834 49.033 20.9912 45.1605C23.6687 46.0316 26.6633 45.9392 29.4215 44.677L62.0076 29.7658C67.8488 27.093 70.4252 20.1697 67.7524 14.3282L67.7376 14.2962C67.2845 13.3063 66.7083 12.4075 66.0341 11.6172C69.0266 12.5791 71.6221 14.7446 73.033 17.828Z" fill="black"/>
<path opacity="0.7" d="M64.291 14.1731C64.1272 14.2479 63.9427 14.2842 63.7502 14.271C61.9702 14.149 60.1663 14.4798 58.533 15.2273L46.3201 20.816C45.759 21.0729 45.0958 20.8259 44.839 20.265C44.5821 19.7038 44.8288 19.0407 45.39 18.7838L57.6028 13.1952C59.574 12.293 61.7525 11.8942 63.9029 12.0417C64.5183 12.0839 64.9834 12.617 64.9412 13.233C64.9126 13.6559 64.6514 14.0083 64.291 14.1731Z" fill="white"/>
<path d="M24.4904 26.9664C18.5109 29.7027 15.8815 36.7682 18.6178 42.7477C21.3617 48.7442 28.4473 51.381 34.444 48.637L51.1219 41.0051L41.1991 19.3203L24.4904 26.9664Z" fill="#979797"/>
<path opacity="0.7" d="M21.6732 33.6759C21.3128 33.8407 20.8754 33.8083 20.5363 33.5536C20.0429 33.1828 19.9431 32.4824 20.3139 31.989C21.6082 30.2654 23.3342 28.8776 25.3054 27.9754L37.5182 22.3868C38.0794 22.1299 38.7425 22.3769 38.9994 22.9381C39.2563 23.4993 39.0095 24.1624 38.4484 24.4193L26.2349 30.0079C24.6016 30.7554 23.1719 31.9043 22.1007 33.3309C21.9848 33.4852 21.837 33.601 21.6732 33.6759Z" fill="white"/>
<path opacity="0.1" d="M48.7801 35.8899L51.1209 41.0054L34.4446 48.6364C31.4456 50.0089 28.1755 50.0375 25.3108 48.9712C22.4489 47.9037 19.9901 45.7459 18.618 42.7469C17.3161 39.9016 17.2267 36.8142 18.1375 34.0625C18.3158 34.8587 18.5786 35.6478 18.9306 36.4172C20.3015 39.4134 22.7615 41.574 25.6253 42.6372C28.49 43.7032 31.7585 43.6789 34.7575 42.3067L48.7801 35.8899Z" fill="black"/>
<path d="M145.122 46.0291L145.145 46.0904C146.015 48.385 146.504 50.735 146.648 53.062C146.648 53.062 146.652 53.0604 146.65 53.066C146.777 55.2026 146.613 57.3232 146.18 59.3775C146.144 59.5645 146.102 59.749 146.055 59.935C145.924 60.49 145.774 61.0429 145.6 61.5859C145.6 61.5859 145.604 61.5843 145.602 61.5899C145.486 61.9518 145.366 62.3112 145.233 62.6654C145.042 63.1964 144.827 63.7274 144.589 64.2479C143.731 66.1548 142.625 67.9501 141.292 69.5785C141.17 69.7273 141.047 69.8723 140.925 70.0171C140.675 70.3084 140.418 70.593 140.154 70.8709C139.623 71.4323 139.066 71.9618 138.482 72.4691C138.042 72.851 137.586 73.216 137.12 73.5659C136.805 73.7975 136.485 74.0266 136.16 74.2435C135.831 74.4618 135.499 74.6719 135.16 74.8755C133.971 75.5885 132.703 76.2051 131.366 76.7124L97.218 89.6659L80.375 45.2644L114.523 32.3108C120.302 30.1184 126.406 30.3248 131.729 32.4417C132.101 32.5855 132.469 32.7411 132.833 32.9117C133.031 33.0007 133.226 33.095 133.421 33.1895C133.587 33.2714 133.75 33.3546 133.912 33.4381C134.075 33.5215 134.234 33.6062 134.394 33.6953C134.711 33.865 135.023 34.0461 135.328 34.2346C135.449 34.3057 135.565 34.3784 135.678 34.4529C135.841 34.55 135.997 34.6544 136.156 34.7631C136.316 34.866 136.47 34.9759 136.628 35.0843C137.871 35.9557 139.036 36.9548 140.103 38.0658C140.236 38.2071 140.368 38.3442 140.497 38.4871C140.626 38.63 140.757 38.7769 140.882 38.9214C141.132 39.2103 141.375 39.5063 141.616 39.8081C141.623 39.8146 141.63 39.8214 141.633 39.8297C141.743 39.9704 141.854 40.1155 141.961 40.2621C141.974 40.2714 141.983 40.2821 141.989 40.2985C142.102 40.4475 142.212 40.6022 142.322 40.7571C142.434 40.916 142.547 41.0786 142.654 41.2391C142.873 41.568 143.083 41.9001 143.286 42.2392C143.998 43.4237 144.614 44.6918 145.122 46.0291Z" fill="#005F73"/>
<path opacity="0.7" d="M145.122 46.0291L145.145 46.0904C146.015 48.385 146.504 50.735 146.648 53.062C146.648 53.062 146.652 53.0604 146.65 53.066C146.777 55.2026 146.613 57.3232 146.18 59.3775C146.144 59.5645 146.102 59.749 146.055 59.935C145.924 60.49 145.774 61.0429 145.6 61.5859C145.6 61.5859 145.604 61.5843 145.602 61.5899C145.486 61.9518 145.366 62.3112 145.233 62.6654C145.042 63.1964 144.827 63.7274 144.589 64.2479C143.731 66.1548 142.625 67.9501 141.292 69.5785C141.17 69.7273 141.047 69.8723 140.925 70.0171C140.675 70.3084 140.418 70.593 140.154 70.8709C139.623 71.4323 139.066 71.9618 138.482 72.4691C138.042 72.851 137.586 73.216 137.12 73.5659C136.805 73.7975 136.485 74.0266 136.16 74.2435C135.831 74.4618 135.499 74.6719 135.16 74.8755C133.971 75.5885 132.703 76.2051 131.366 76.7124L97.218 89.6659L80.375 45.2644L114.523 32.3108C120.302 30.1184 126.406 30.3248 131.729 32.4417C132.101 32.5855 132.469 32.7411 132.833 32.9117C133.031 33.0007 133.226 33.095 133.421 33.1895C133.587 33.2714 133.75 33.3546 133.912 33.4381C134.075 33.5215 134.234 33.6062 134.394 33.6953C134.711 33.865 135.023 34.0461 135.328 34.2346C135.449 34.3057 135.565 34.3784 135.678 34.4529C135.841 34.55 135.997 34.6544 136.156 34.7631C136.316 34.866 136.47 34.9759 136.628 35.0843C137.871 35.9557 139.036 36.9548 140.103 38.0658C140.236 38.2071 140.368 38.3442 140.497 38.4871C140.626 38.63 140.757 38.7769 140.882 38.9214C141.132 39.2103 141.375 39.5063 141.616 39.8081C141.623 39.8146 141.63 39.8214 141.633 39.8297C141.743 39.9704 141.854 40.1155 141.961 40.2621C141.974 40.2714 141.983 40.2821 141.989 40.2985C142.102 40.4475 142.212 40.6022 142.322 40.7571C142.434 40.916 142.547 41.0786 142.654 41.2391C142.873 41.568 143.083 41.9001 143.286 42.2392C143.998 43.4237 144.614 44.6918 145.122 46.0291Z" fill="white"/>
<path opacity="0.3" d="M145.124 46.023L145.149 46.0886C146.019 48.3832 146.507 50.7292 146.648 53.0617C146.648 53.0617 146.652 53.0602 146.65 53.0657C146.781 55.2008 146.617 57.3216 146.181 59.3772C146.144 59.5642 146.102 59.7487 146.055 59.9347C145.924 60.4897 145.776 61.037 145.601 61.5856C145.601 61.5856 145.605 61.5841 145.602 61.5896C145.491 61.95 145.37 62.3094 145.233 62.6651C145.042 63.1961 144.827 63.7271 144.589 64.2476C143.735 66.1529 142.625 67.9498 141.292 69.5782C141.17 69.727 141.047 69.872 140.925 70.0168C140.675 70.3082 140.418 70.5928 140.154 70.8706C139.623 71.4321 139.066 71.9615 138.482 72.4688C138.042 72.8507 137.586 73.2157 137.12 73.5656C136.805 73.7972 136.485 74.0263 136.16 74.2432C135.831 74.4615 135.499 74.6716 135.16 74.8752C133.971 75.5882 132.703 76.2048 131.366 76.7121L97.2181 89.6656L93.3037 79.3464L121.079 68.8104C133.325 64.1651 139.504 50.4335 134.858 38.1881L134.834 38.1225C134.045 36.0447 132.996 34.141 131.729 32.4414C132.103 32.5896 132.471 32.7448 132.833 32.9114C133.031 33.0004 133.226 33.0947 133.421 33.1892C133.587 33.2712 133.75 33.3543 133.913 33.4378C134.075 33.5213 134.234 33.606 134.394 33.695C134.711 33.8647 135.023 34.0458 135.328 34.2343C135.449 34.3054 135.565 34.3781 135.678 34.4526C135.841 34.5497 135.997 34.6541 136.156 34.7628C136.316 34.8657 136.471 34.9756 136.629 35.084C137.871 35.9554 139.036 36.9545 140.103 38.0655C140.236 38.2069 140.368 38.3439 140.497 38.4868C140.626 38.6297 140.757 38.7767 140.882 38.9211C141.132 39.21 141.375 39.506 141.616 39.8078C141.623 39.8143 141.63 39.8211 141.634 39.8294C141.743 39.9702 141.854 40.1152 141.961 40.2618C141.974 40.2711 141.983 40.2819 141.989 40.2982C142.102 40.4473 142.212 40.6019 142.322 40.7568C142.434 40.9157 142.547 41.0783 142.655 41.2388C142.873 41.5678 143.083 41.8998 143.287 42.2389C144.002 43.4219 144.617 44.6856 145.124 46.023Z" fill="#005F73"/>
<path opacity="0.7" d="M127.839 37.3995C127.495 37.5297 127.116 37.5787 126.726 37.5254C123.122 37.036 119.408 37.4638 115.984 38.7627L90.3861 48.473C89.2099 48.9193 87.8944 48.327 87.4484 47.1511C87.0024 45.9751 87.5941 44.6596 88.7703 44.2133L114.369 34.503C118.5 32.9359 122.985 32.42 127.339 33.0114C128.586 33.1805 129.459 34.3284 129.29 35.5752C129.173 36.4317 128.594 37.1127 127.839 37.3995Z" fill="white"/>
<path d="M92.5737 66.0336C97.2248 78.2948 99.3041 88.8758 97.218 89.667C95.1319 90.4583 89.6705 81.1601 85.0193 68.8992C80.3682 56.6381 78.2889 46.057 80.375 45.2658C82.4611 44.4742 87.9226 53.7724 92.5737 66.0336Z" fill="#005F73"/>
<path opacity="0.1" d="M92.5737 66.0336C97.2248 78.2948 99.3041 88.8758 97.218 89.667C95.1319 90.4583 89.6705 81.1601 85.0193 68.8992C80.3682 56.6381 78.2889 46.057 80.375 45.2658C82.4611 44.4742 87.9226 53.7724 92.5737 66.0336Z" fill="black"/>
<path d="M36.6977 53.2848C23.5945 50.4592 10.6816 58.7906 7.85569 71.8942C5.02209 85.0347 13.3772 97.9845 26.5177 100.818L63.0653 108.7L73.3125 61.1807L36.6977 53.2848Z" fill="#005F73"/>
<path opacity="0.7" d="M23.9133 60.8007C23.1233 60.6304 22.4491 60.0442 22.2057 59.2139C21.8522 58.0062 22.5436 56.7406 23.751 56.3871C27.9672 55.1507 32.4791 54.9897 36.7985 55.9214L63.5612 61.6927C64.7911 61.9578 65.5728 63.1701 65.3079 64.3997C65.0427 65.6292 63.8307 66.4115 62.6009 66.1463L35.8381 60.375C32.2589 59.6032 28.5222 59.7356 25.0326 60.7588C24.6553 60.8697 24.2724 60.8783 23.9133 60.8007Z" fill="white"/>
<path opacity="0.1" d="M65.4807 97.4857L63.0632 108.696L26.5197 100.815C19.9475 99.3981 14.5726 95.456 11.1942 90.22C7.8222 84.9855 6.43928 78.4621 7.8567 71.89C9.20112 65.6552 12.8223 60.5039 17.6662 57.1211C16.9861 58.6389 16.4527 60.2482 16.0889 61.9342C14.673 68.4998 16.0547 75.0294 19.4344 80.2593C22.8126 85.4953 28.1801 89.4423 34.7519 90.8597L65.4807 97.4857Z" fill="black"/>
<path d="M72.1367 85.7907C69.3071 98.9127 65.2449 109.169 63.0642 108.698C60.8833 108.228 61.4093 97.2094 64.2389 84.0874C67.0685 70.9654 71.1304 60.7093 73.3114 61.1796C75.4923 61.6499 74.9666 72.6686 72.1367 85.7907Z" fill="#005F73"/>
<path opacity="0.2" d="M72.1367 85.7907C69.3071 98.9127 65.2449 109.169 63.0642 108.698C60.8833 108.228 61.4093 97.2094 64.2389 84.0874C67.0685 70.9654 71.1304 60.7093 73.3114 61.1796C75.4923 61.6499 74.9666 72.6686 72.1367 85.7907Z" fill="black"/>
<path d="M81.8647 94.8067C82.6113 90.1649 79.4538 85.7968 74.8122 85.0502C70.1705 84.3036 65.8025 87.4613 65.0559 92.1031C64.3093 96.7449 67.4669 101.113 72.1085 101.86C76.7501 102.606 81.1181 99.4485 81.8647 94.8067Z" fill="#979797"/>
<path opacity="0.1" d="M81.9742 93.4597C81.9742 98.1601 78.163 101.971 73.4626 101.971C68.7619 101.971 64.9482 98.1601 64.9482 93.4597C64.9482 88.7562 68.7622 84.9453 73.4626 84.9453C73.6243 84.9453 73.7832 84.9509 73.9422 84.9592C70.2535 85.1822 67.3319 88.2434 67.3319 91.9905C67.3319 95.8796 70.4852 99.0329 74.3743 99.0329C78.2634 99.0329 81.4195 95.8796 81.4195 91.9905C81.4195 91.0314 81.227 90.1142 80.8786 89.2807C81.5756 90.5155 81.9742 91.94 81.9742 93.4597Z" fill="black"/>
<path d="M75.3472 86.6284C73.769 88.2353 77.9741 91.3257 79.334 90.4298C80.6938 89.5335 77.032 84.9132 75.3472 86.6284Z" fill="white"/>
<path d="M96.1307 141.189C97.1984 136.61 94.3521 132.033 89.7734 130.965C85.1946 129.898 80.6172 132.744 79.5495 137.323C78.4818 141.901 81.3281 146.479 85.9068 147.547C90.4856 148.614 95.063 145.768 96.1307 141.189Z" fill="#979797"/>
<path opacity="0.1" d="M96.3463 139.253C96.3463 143.953 92.5351 147.764 87.8347 147.764C83.1343 147.764 79.3203 143.953 79.3203 139.253C79.3203 134.549 83.1343 130.738 87.8347 130.738C87.9964 130.738 88.1553 130.744 88.3142 130.752C84.6256 130.975 81.7039 134.036 81.7039 137.783C81.7039 141.673 84.8572 144.826 88.7463 144.826C92.6355 144.826 95.7915 141.673 95.7915 137.783C95.7915 136.824 95.599 135.907 95.2507 135.074C95.9474 136.308 96.3463 137.733 96.3463 139.253Z" fill="black"/>
<path d="M89.7203 132.421C88.1421 134.028 92.3472 137.119 93.7067 136.222C95.0665 135.326 91.4047 130.706 89.7203 132.421Z" fill="white"/>
<path d="M105.247 101.828C105.911 97.707 103.108 93.8281 98.9866 93.1644C94.8654 92.5007 90.9865 95.3035 90.3228 99.4247C89.6591 103.546 92.462 107.425 96.5831 108.088C100.704 108.752 104.583 105.949 105.247 101.828Z" fill="#005F73"/>
<path opacity="0.1" d="M105.337 100.626C105.337 104.799 101.954 108.183 97.7803 108.183C93.6069 108.183 90.2207 104.799 90.2207 100.626C90.2207 96.4501 93.6069 93.0664 97.7803 93.0664C97.9238 93.0664 98.0648 93.0713 98.2059 93.0787C94.9309 93.2768 92.337 95.9946 92.337 99.3213C92.337 102.774 95.1364 105.574 98.5897 105.574C102.043 105.574 104.845 102.775 104.845 99.3213C104.845 98.4696 104.674 97.6553 104.365 96.9152C104.983 98.012 105.337 99.2769 105.337 100.626Z" fill="black"/>
<path d="M99.4877 94.5274C98.0866 95.954 101.82 98.698 103.027 97.9021C104.235 97.1065 100.983 93.0046 99.4877 94.5274Z" fill="white"/>
<path d="M83.0307 73.9598C87.2048 73.9598 90.5887 70.5759 90.5887 66.4018C90.5887 62.2276 87.2048 58.8438 83.0307 58.8438C78.8565 58.8438 75.4727 62.2276 75.4727 66.4018C75.4727 70.5759 78.8565 73.9598 83.0307 73.9598Z" fill="#005F73"/>
<path opacity="0.1" d="M90.5883 66.4033C90.5883 70.5767 87.2046 73.9604 83.0312 73.9604C78.8578 73.9604 75.4717 70.5767 75.4717 66.4033C75.4717 62.2274 78.8578 58.8438 83.0312 58.8438C83.1748 58.8438 83.3158 58.8487 83.4569 58.8561C80.1822 59.0541 77.5879 61.7719 77.5879 65.0986C77.5879 68.5516 80.3874 71.351 83.8407 71.351C87.294 71.351 90.0958 68.5516 90.0958 65.0986C90.0958 64.247 89.9249 63.4326 89.6157 62.6925C90.2344 63.7893 90.5883 65.0543 90.5883 66.4033Z" fill="black"/>
<path d="M84.7388 60.3047C83.3374 61.7314 87.071 64.4753 88.2783 63.6795C89.4857 62.8839 86.2344 58.7819 84.7388 60.3047Z" fill="white"/>
<path d="M75.9496 129.007C80.1238 129.007 83.5076 125.623 83.5076 121.449C83.5076 117.274 80.1238 113.891 75.9496 113.891C71.7754 113.891 68.3916 117.274 68.3916 121.449C68.3916 125.623 71.7754 129.007 75.9496 129.007Z" fill="#005F73"/>
<path opacity="0.4" d="M75.9496 129.007C80.1238 129.007 83.5076 125.623 83.5076 121.449C83.5076 117.274 80.1238 113.891 75.9496 113.891C71.7754 113.891 68.3916 117.274 68.3916 121.449C68.3916 125.623 71.7754 129.007 75.9496 129.007Z" fill="white"/>
<path opacity="0.1" d="M83.5073 121.45C83.5073 125.624 80.1236 129.007 75.9502 129.007C71.7768 129.007 68.3906 125.624 68.3906 121.45C68.3906 117.274 71.7768 113.891 75.9502 113.891C76.0937 113.891 76.2348 113.896 76.3758 113.903C73.1012 114.101 70.5069 116.819 70.5069 120.145C70.5069 123.598 73.3063 126.398 76.7596 126.398C80.2129 126.398 83.0148 123.598 83.0148 120.145C83.0148 119.294 82.8438 118.48 82.5346 117.739C83.1534 118.836 83.5073 120.101 83.5073 121.45Z" fill="black"/>
<path d="M77.6576 115.352C76.2565 116.778 79.9898 119.522 81.1972 118.726C82.4042 117.931 79.1533 113.829 77.6576 115.352Z" fill="white"/>
<path d="M56.4872 119.808C59.1115 119.808 61.239 117.681 61.239 115.057C61.239 112.432 59.1115 110.305 56.4872 110.305C53.8628 110.305 51.7354 112.432 51.7354 115.057C51.7354 117.681 53.8628 119.808 56.4872 119.808Z" fill="#005F73"/>
<path opacity="0.1" d="M61.2383 115.057C61.2383 117.681 59.111 119.809 56.4871 119.809C53.8633 119.809 51.7344 117.681 51.7344 115.057C51.7344 112.432 53.8633 110.305 56.4871 110.305C56.5774 110.305 56.6661 110.308 56.7548 110.312C54.6958 110.437 53.0649 112.146 53.0649 114.237C53.0649 116.408 54.8252 118.168 56.9959 118.168C59.167 118.168 60.9285 116.408 60.9285 114.237C60.9285 113.702 60.821 113.19 60.6266 112.725C61.016 113.414 61.2383 114.209 61.2383 115.057Z" fill="black"/>
<path d="M57.6754 111.11C56.7945 112.007 59.1417 113.732 59.9007 113.231C60.6596 112.731 58.6157 110.152 57.6754 111.11Z" fill="white"/>
<path d="M91.8711 85.4186C93.7267 83.5629 93.7267 80.5543 91.8711 78.6986C90.0154 76.8429 87.0067 76.8429 85.151 78.6986C83.2953 80.5543 83.2953 83.5629 85.151 85.4186C87.0067 87.2743 90.0154 87.2743 91.8711 85.4186Z" fill="#979797"/>
<path opacity="0.1" d="M93.2637 82.0613C93.2637 84.6852 91.1364 86.8125 88.5125 86.8125C85.8887 86.8125 83.7598 84.6852 83.7598 82.0613C83.7598 79.4359 85.8887 77.3086 88.5125 77.3086C88.6028 77.3086 88.6915 77.3117 88.7802 77.3163C86.7212 77.4407 85.0903 79.1495 85.0903 81.2411C85.0903 83.4122 86.8505 85.1721 89.0213 85.1721C91.1924 85.1721 92.9539 83.4119 92.9539 81.2411C92.9539 80.7058 92.8464 80.1936 92.652 79.7285C93.0413 80.4179 93.2637 81.2131 93.2637 82.0613Z" fill="black"/>
<path d="M89.7007 78.1135C88.8199 79.0104 91.1671 80.7355 91.926 80.2353C92.6853 79.7351 90.6411 77.1563 89.7007 78.1135Z" fill="white"/>
<path d="M84.2366 68.2186H81.8407L81.3578 69.5005C81.2691 69.7176 81.0621 69.8457 80.8449 69.8457C80.776 69.8457 80.7168 69.8359 80.658 69.8162C80.3719 69.7077 80.2339 69.3921 80.3324 69.1062L82.5112 63.2986C82.5999 63.0817 82.8171 62.9438 83.0339 62.9536C83.2606 62.9438 83.4676 63.0817 83.5563 63.2986L85.7354 69.1062C85.8339 69.3921 85.6959 69.7077 85.4098 69.8162C85.3605 69.8359 85.2915 69.8457 85.2226 69.8457C85.0057 69.8457 84.7987 69.7176 84.7196 69.5005L84.2366 68.2186ZM83.8322 67.1338L83.0336 65.0138L82.2349 67.1338H83.8322Z" fill="white"/>
<path d="M70.6533 96.6315V90.2762C70.6533 89.9423 70.9117 89.6836 71.2456 89.6836H72.5167C74.5957 89.6836 76.2759 91.3748 76.2759 93.443C76.2759 95.5325 74.5957 97.2237 72.5167 97.2237H71.2456C70.912 97.224 70.6533 96.9549 70.6533 96.6315ZM71.849 96.0284H72.517C73.9391 96.0176 75.0808 94.8759 75.0808 93.4433C75.0808 92.0321 73.9391 90.8796 72.517 90.8796H71.849V96.0284Z" fill="white"/>
<path d="M95.6279 103.34V97.5229C95.6279 97.2173 95.8645 96.9805 96.1703 96.9805H96.1802C96.1802 96.9805 96.1802 96.9805 96.2002 96.9805H99.3948C99.6806 96.9805 99.9372 97.2173 99.9372 97.5229C99.9372 97.8287 99.6806 98.0751 99.3948 98.0751H96.7226V99.8794H99.0199C99.3156 99.8794 99.5623 100.136 99.5623 100.422C99.5623 100.727 99.3156 100.974 99.0199 100.974H96.7226V102.788H99.3948C99.6806 102.788 99.9372 103.035 99.9372 103.34C99.9372 103.636 99.6806 103.883 99.3948 103.883H96.2002C96.1802 103.883 96.1802 103.873 96.1802 103.873L96.1703 103.883C95.8648 103.883 95.6279 103.636 95.6279 103.34Z" fill="white"/>
<path d="M72.8984 121.448C72.9083 119.495 74.5453 117.908 76.5171 117.898C77.3845 117.898 78.1732 118.184 78.7945 118.668C79.0313 118.865 79.0705 119.21 78.893 119.456C78.6956 119.703 78.3313 119.742 78.1043 119.565C77.6703 119.21 77.1282 119.023 76.5168 119.023C75.8364 119.023 75.2054 119.299 74.7418 119.733C74.2983 120.186 74.022 120.778 74.022 121.448C74.022 122.119 74.298 122.73 74.7418 123.164C75.2054 123.597 75.8364 123.874 76.5168 123.874C77.1279 123.874 77.6601 123.686 78.1043 123.331C78.3309 123.164 78.6956 123.203 78.893 123.44C79.0705 123.686 79.031 124.041 78.7945 124.229C78.1732 124.712 77.3845 124.998 76.5171 124.998C74.5453 124.998 72.9083 123.41 72.8984 121.448Z" fill="white"/>
<path d="M56.5622 115.634H55.6512V117.242C55.6512 117.464 55.466 117.649 55.2363 117.649C55.0142 117.649 54.8291 117.464 54.8291 117.242V112.872C54.8291 112.642 55.0145 112.465 55.2363 112.465H55.2437H56.5619C57.4434 112.465 58.1546 113.176 58.1546 114.057C58.1549 114.923 57.444 115.634 56.5622 115.634ZM55.6512 114.812H56.5622C56.9919 114.812 57.3254 114.472 57.3325 114.057C57.3254 113.627 56.9916 113.287 56.5622 113.287H55.6512V114.812Z" fill="white"/>
<path d="M83.7422 142.054V135.709C83.7422 135.375 84.0111 135.117 84.3336 135.117C84.3443 135.117 84.3443 135.117 84.3659 135.117C84.3659 135.117 84.3659 135.117 84.377 135.117H85.8609C86.9904 135.117 87.9042 136.031 87.9042 137.16C87.9042 137.623 87.7536 138.042 87.4955 138.387C88.141 138.795 88.5815 139.515 88.5815 140.333C88.5815 141.613 87.5491 142.645 86.2801 142.645H84.377C84.3659 142.645 84.3659 142.634 84.3659 142.634C84.3446 142.634 84.3446 142.645 84.3336 142.645C84.0111 142.645 83.7422 142.376 83.7422 142.054ZM84.9357 138.031H85.8606C86.334 138.031 86.7104 137.633 86.7104 137.16C86.7104 136.687 86.334 136.31 85.8606 136.31H84.9357V138.031ZM84.9357 141.451H86.2798C86.893 141.44 87.3877 140.957 87.3877 140.333C87.3877 139.72 86.8927 139.236 86.2798 139.225H84.9357V141.451Z" fill="white"/>
<path d="M92.2306 141.21C92.2306 142.005 91.5841 142.645 90.7894 142.645C90.0422 142.645 89.4318 142.082 89.3606 141.359C89.3606 141.353 89.3606 141.353 89.3545 141.346C89.3489 141.234 89.3428 141.121 89.3428 141.008C89.3428 140.611 89.4022 140.184 89.5501 139.793C89.6985 139.401 89.9412 139.028 90.3151 138.779C90.564 138.613 90.8668 138.512 91.2046 138.5C91.3882 138.494 91.5367 138.631 91.5484 138.815C91.5545 138.992 91.4122 139.141 91.2284 139.158C91.0029 139.165 90.8252 139.23 90.6706 139.324C90.5224 139.425 90.398 139.562 90.2973 139.74C90.2677 139.787 90.244 139.841 90.2206 139.894C90.3921 139.817 90.5877 139.775 90.7898 139.775C91.5844 139.775 92.2306 140.416 92.2306 141.21ZM91.5721 141.21C91.5721 140.783 91.2222 140.428 90.7894 140.428C90.3567 140.428 90.0124 140.783 90.0124 141.21C90.0124 141.643 90.3564 141.987 90.7894 141.987C91.2222 141.987 91.5721 141.643 91.5721 141.21Z" fill="white"/>
<path d="M86.2725 84.1066V79.7284C86.2725 79.4983 86.4582 79.3203 86.6806 79.3203C86.6879 79.3203 86.6879 79.3203 86.7027 79.3203C86.7027 79.3203 86.7027 79.3203 86.7101 79.3203H87.7339C88.5132 79.3203 89.1439 79.9511 89.1439 80.73C89.1439 81.0491 89.0398 81.3386 88.8618 81.5761C89.3072 81.8579 89.6115 82.355 89.6115 82.9193C89.6115 83.802 88.8991 84.5147 88.0234 84.5147H86.7101C86.7027 84.5147 86.7027 84.5073 86.7027 84.5073C86.6879 84.5073 86.6879 84.5147 86.6806 84.5147C86.4582 84.515 86.2725 84.3293 86.2725 84.1066ZM87.096 81.3316H87.7342C88.061 81.3316 88.3203 81.0568 88.3203 80.7303C88.3203 80.4042 88.0607 80.1442 87.7342 80.1442H87.096V81.3316ZM87.096 83.6911H88.0237C88.4469 83.6841 88.7882 83.3502 88.7882 82.9196C88.7882 82.4964 88.4469 82.1625 88.0237 82.1551H87.096V83.6911Z" fill="white"/>
<path d="M90.7649 81.9351V84.2947C90.7649 84.4185 90.6608 84.5146 90.5407 84.5146C90.4169 84.5146 90.3208 84.4188 90.3208 84.2947V82.3268L90.1606 82.4186C90.1249 82.4426 90.0849 82.451 90.0488 82.451C89.9727 82.451 89.901 82.4109 89.8609 82.3389C89.7929 82.2391 89.8289 82.0992 89.9327 82.0389L90.4249 81.7472C90.4289 81.7429 90.4369 81.7429 90.4409 81.7392C90.4489 81.7392 90.4529 81.7312 90.4606 81.7272C90.4686 81.7272 90.4769 81.7232 90.4846 81.7232C90.489 81.7189 90.4967 81.7188 90.5007 81.7188C90.5087 81.7148 90.5207 81.7148 90.529 81.7148C90.533 81.7148 90.5367 81.7148 90.5407 81.7148H90.545C90.557 81.7148 90.5647 81.7148 90.573 81.7148C90.577 81.7188 90.5851 81.7188 90.5891 81.7188C90.6011 81.7188 90.6051 81.7232 90.6131 81.7269C90.6171 81.7269 90.6251 81.7269 90.6291 81.7309C90.6411 81.7389 90.6451 81.7429 90.6531 81.7429C90.6571 81.7472 90.6608 81.7509 90.6691 81.7549C90.6731 81.7589 90.6811 81.7629 90.6852 81.7669C90.6932 81.7709 90.6972 81.7789 90.7012 81.7829C90.7055 81.7872 90.7092 81.7909 90.7132 81.7989C90.7172 81.8032 90.7252 81.8109 90.7292 81.8152L90.7335 81.823C90.7335 81.827 90.7375 81.831 90.7375 81.835C90.7415 81.843 90.7455 81.847 90.7455 81.855C90.7495 81.8627 90.7495 81.871 90.7532 81.8747C90.7532 81.8827 90.7572 81.8907 90.7572 81.8947C90.7572 81.9064 90.7572 81.9147 90.7652 81.9227C90.7649 81.9267 90.7649 81.9308 90.7649 81.9351Z" fill="white"/>
</g>
</svg>
