<svg width="24" height="24" viewBox="0 0 24 24" fill="none" xmlns="http://www.w3.org/2000/svg">
<rect width="24" height="24" rx="8" fill="white"/>
<path d="M17.539 6.45984C16.0457 4.96651 13.6123 4.96651 12.119 6.45984L9.65234 8.92651L10.0057 9.29318L14.7123 13.9998L15.079 14.3398L17.539 11.8798C19.0323 10.3865 19.0323 7.95318 17.539 6.45984Z" fill="url(#paint0_linear_9859_213469)"/>
<path d="M9.28651 9.99281L8.93984 9.63281L6.45984 12.1128C4.96651 13.6061 4.96651 16.0395 6.45984 17.5328C7.20651 18.2795 8.18651 18.6528 9.17318 18.6528C10.1598 18.6528 11.1332 18.2795 11.8865 17.5328L14.3798 15.0395L14.0265 14.7195L9.29318 9.99281H9.28651Z" fill="url(#paint1_linear_9859_213469)"/>
<defs>
<linearGradient id="paint0_linear_9859_213469" x1="9.91667" y1="13.8398" x2="22.6113" y2="13.5108" gradientUnits="userSpaceOnUse">
<stop stop-color="#005F73"/>
<stop offset="1" stop-color="#6CC24A"/>
</linearGradient>
<linearGradient id="paint1_linear_9859_213469" x1="5.60515" y1="18.1517" x2="18.3467" y2="17.8209" gradientUnits="userSpaceOnUse">
<stop stop-color="#005F73"/>
<stop offset="1" stop-color="#6CC24A"/>
</linearGradient>
</defs>
</svg>
