<svg width="137" height="115" viewBox="0 0 137 115" fill="none" xmlns="http://www.w3.org/2000/svg">
<path fill-rule="evenodd" clip-rule="evenodd" d="M113.108 37.5498C115.211 37.5498 116.916 39.3362 116.916 41.5398C116.916 43.7434 115.211 45.5298 113.108 45.5298H91.348C93.4511 45.5298 95.156 47.3162 95.156 49.5198C95.156 51.7234 93.4511 53.5098 91.348 53.5098H103.316C105.419 53.5098 107.124 55.2962 107.124 57.4998C107.124 59.7034 105.419 61.4898 103.316 61.4898H97.7814C95.1296 61.4898 92.98 63.2762 92.98 65.4798C92.98 66.9489 94.068 68.2789 96.244 69.4698C98.3471 69.4698 100.052 71.2562 100.052 73.4598C100.052 75.6634 98.3471 77.4498 96.244 77.4498H51.092C48.9889 77.4498 47.284 75.6634 47.284 73.4598C47.284 71.2562 48.9889 69.4698 51.092 69.4698H29.876C27.7729 69.4698 26.068 67.6834 26.068 65.4798C26.068 63.2762 27.7729 61.4898 29.876 61.4898H51.636C53.7391 61.4898 55.444 59.7034 55.444 57.4998C55.444 55.2962 53.7391 53.5098 51.636 53.5098H38.036C35.9329 53.5098 34.228 51.7234 34.228 49.5198C34.228 47.3162 35.9329 45.5298 38.036 45.5298H59.796C57.6929 45.5298 55.988 43.7434 55.988 41.5398C55.988 39.3362 57.6929 37.5498 59.796 37.5498H113.108ZM113.108 53.5098C115.211 53.5098 116.916 55.2962 116.916 57.4998C116.916 59.7034 115.211 61.4898 113.108 61.4898C111.005 61.4898 109.3 59.7034 109.3 57.4998C109.3 55.2962 111.005 53.5098 113.108 53.5098Z" fill="#F4F4F4"/>
<path opacity="0.4" d="M74.1904 46.2427V71.0377H65.5474C58.0389 71.0377 53.5627 66.5539 53.5627 59.0328V46.2427H74.1904Z" fill="url(#paint0_linear_11419_236116)"/>
<path d="M94.818 41.7173V46.2424H53.5627V41.7173C53.5627 34.1962 58.0389 29.7124 65.5474 29.7124H82.8333C90.3418 29.7124 94.818 34.1962 94.818 41.7173Z" fill="url(#paint1_linear_11419_236116)"/>
<path opacity="0.6" d="M94.818 46.2427V59.0328C94.818 66.5539 90.3419 71.0377 82.8334 71.0377H74.1904V46.2427H94.818Z" fill="url(#paint2_linear_11419_236116)"/>
<defs>
<linearGradient id="paint0_linear_11419_236116" x1="54.1681" y1="69.6602" x2="83.2482" y2="69.0336" gradientUnits="userSpaceOnUse">
<stop stop-color="#005F73"/>
<stop offset="1" stop-color="#6CC24A"/>
</linearGradient>
<linearGradient id="paint1_linear_11419_236116" x1="54.7735" y1="45.3241" x2="112.719" y2="41.5783" gradientUnits="userSpaceOnUse">
<stop stop-color="#005F73"/>
<stop offset="1" stop-color="#6CC24A"/>
</linearGradient>
<linearGradient id="paint2_linear_11419_236116" x1="74.7958" y1="69.6602" x2="103.876" y2="69.0336" gradientUnits="userSpaceOnUse">
<stop stop-color="#005F73"/>
<stop offset="1" stop-color="#6CC24A"/>
</linearGradient>
</defs>
</svg>
