<svg width="20" height="20" viewBox="0 0 20 20" fill="none" xmlns="http://www.w3.org/2000/svg">
<path d="M14.6836 8.01672H10.3086C9.96693 8.01672 9.68359 7.73339 9.68359 7.39172C9.68359 7.05006 9.96693 6.76672 10.3086 6.76672H14.6836C15.0253 6.76672 15.3086 7.05006 15.3086 7.39172C15.3086 7.73339 15.0336 8.01672 14.6836 8.01672Z" fill="#6CC24A"/>
<path d="M5.93151 8.65002C5.77318 8.65002 5.61484 8.59168 5.48984 8.46668L4.86484 7.84168C4.62318 7.60002 4.62318 7.20002 4.86484 6.95835C5.10651 6.71668 5.50651 6.71668 5.74818 6.95835L5.93151 7.14168L7.36484 5.70835C7.60651 5.46668 8.00651 5.46668 8.24818 5.70835C8.48984 5.95002 8.48984 6.35002 8.24818 6.59168L6.37318 8.46668C6.25651 8.58335 6.09818 8.65002 5.93151 8.65002Z" fill="#6CC24A"/>
<path d="M14.6836 13.85H10.3086C9.96693 13.85 9.68359 13.5666 9.68359 13.225C9.68359 12.8833 9.96693 12.6 10.3086 12.6H14.6836C15.0253 12.6 15.3086 12.8833 15.3086 13.225C15.3086 13.5666 15.0336 13.85 14.6836 13.85Z" fill="#6CC24A"/>
<path d="M5.93151 14.4834C5.77318 14.4834 5.61484 14.4251 5.48984 14.3001L4.86484 13.6751C4.62318 13.4334 4.62318 13.0334 4.86484 12.7917C5.10651 12.5501 5.50651 12.5501 5.74818 12.7917L5.93151 12.9751L7.36484 11.5417C7.60651 11.3001 8.00651 11.3001 8.24818 11.5417C8.48984 11.7834 8.48984 12.1834 8.24818 12.4251L6.37318 14.3001C6.25651 14.4167 6.09818 14.4834 5.93151 14.4834Z" fill="#6CC24A"/>
<path d="M12.5013 18.9583H7.5013C2.9763 18.9583 1.04297 17.025 1.04297 12.5V7.49996C1.04297 2.97496 2.9763 1.04163 7.5013 1.04163H12.5013C17.0263 1.04163 18.9596 2.97496 18.9596 7.49996V12.5C18.9596 17.025 17.0263 18.9583 12.5013 18.9583ZM7.5013 2.29163C3.65964 2.29163 2.29297 3.65829 2.29297 7.49996V12.5C2.29297 16.3416 3.65964 17.7083 7.5013 17.7083H12.5013C16.343 17.7083 17.7096 16.3416 17.7096 12.5V7.49996C17.7096 3.65829 16.343 2.29163 12.5013 2.29163H7.5013Z" fill="#6CC24A"/>
</svg>
