<svg width="16" height="16" viewBox="0 0 16 16" fill="none" xmlns="http://www.w3.org/2000/svg">
<path d="M10.793 1.33325H5.20634C2.77967 1.33325 1.33301 2.77992 1.33301 5.20659V10.7933C1.33301 13.2199 2.77967 14.6666 5.20634 14.6666H10.793C13.2197 14.6666 14.6663 13.2199 14.6663 10.7933V5.20659C14.6663 2.77992 13.2197 1.33325 10.793 1.33325ZM6.64634 9.93325L5.14634 11.4333C5.04634 11.5333 4.91967 11.5799 4.79301 11.5799C4.66634 11.5799 4.53301 11.5333 4.43967 11.4333L3.93967 10.9333C3.73967 10.7399 3.73967 10.4199 3.93967 10.2266C4.13301 10.0333 4.44634 10.0333 4.64634 10.2266L4.79301 10.3733L5.93967 9.22659C6.13301 9.03325 6.44634 9.03325 6.64634 9.22659C6.83967 9.41992 6.83967 9.73992 6.64634 9.93325ZM6.64634 5.26659L5.14634 6.76659C5.04634 6.86659 4.91967 6.91325 4.79301 6.91325C4.66634 6.91325 4.53301 6.86659 4.43967 6.76659L3.93967 6.26659C3.73967 6.07325 3.73967 5.75325 3.93967 5.55992C4.13301 5.36659 4.44634 5.36659 4.64634 5.55992L4.79301 5.70659L5.93967 4.55992C6.13301 4.36659 6.44634 4.36659 6.64634 4.55992C6.83967 4.75325 6.83967 5.07325 6.64634 5.26659ZM11.7063 11.0799H8.20634C7.93301 11.0799 7.70634 10.8533 7.70634 10.5799C7.70634 10.3066 7.93301 10.0799 8.20634 10.0799H11.7063C11.9863 10.0799 12.2063 10.3066 12.2063 10.5799C12.2063 10.8533 11.9863 11.0799 11.7063 11.0799ZM11.7063 6.41325H8.20634C7.93301 6.41325 7.70634 6.18659 7.70634 5.91325C7.70634 5.63992 7.93301 5.41325 8.20634 5.41325H11.7063C11.9863 5.41325 12.2063 5.63992 12.2063 5.91325C12.2063 6.18659 11.9863 6.41325 11.7063 6.41325Z" fill="#06C78D"/>
</svg>
