<svg width="49" height="49" viewBox="0 0 49 49" fill="none" xmlns="http://www.w3.org/2000/svg">
<path opacity="0.4" d="M14.4443 0.916992H34.5557C38.8408 0.916992 42.2115 2.19196 44.5098 4.49023C46.808 6.78851 48.083 10.1592 48.083 14.4443V34.5557C48.083 38.8408 46.808 42.2115 44.5098 44.5098C42.2115 46.808 38.8408 48.083 34.5557 48.083H14.4443C10.1592 48.083 6.78851 46.808 4.49023 44.5098C2.19196 42.2115 0.916992 38.8408 0.916992 34.5557V14.4443C0.916992 10.1592 2.19196 6.78851 4.49023 4.49023C6.78851 2.19196 10.1592 0.916992 14.4443 0.916992Z" fill="url(#paint0_linear_11419_228659)" stroke="url(#paint1_linear_11419_228659)" stroke-width="0.833333"/>
<path d="M39.6443 16.988C39.6443 17.972 38.8523 18.788 37.8443 18.788H25.2443C24.2603 18.788 23.4443 17.972 23.4443 16.988C23.4443 16.004 24.2603 15.188 25.2443 15.188H37.8443C38.8523 15.188 39.6443 16.004 39.6443 16.988Z" fill="url(#paint2_linear_11419_228659)"/>
<path d="M19.6287 14.6602L14.2287 20.0602C13.8687 20.4202 13.4127 20.5882 12.9567 20.5882C12.5007 20.5882 12.0207 20.4202 11.6847 20.0602L9.88473 18.2602C9.16473 17.5642 9.16473 16.4122 9.88473 15.7162C10.5807 15.0202 11.7087 15.0202 12.4287 15.7162L12.9567 16.2442L17.0847 12.1162C17.7807 11.4202 18.9087 11.4202 19.6287 12.1162C20.3247 12.8122 20.3247 13.9642 19.6287 14.6602Z" fill="url(#paint3_linear_11419_228659)"/>
<path d="M39.6443 33.7883C39.6443 34.7723 38.8523 35.5883 37.8443 35.5883H25.2443C24.2603 35.5883 23.4443 34.7723 23.4443 33.7883C23.4443 32.8043 24.2603 31.9883 25.2443 31.9883H37.8443C38.8523 31.9883 39.6443 32.8043 39.6443 33.7883Z" fill="url(#paint4_linear_11419_228659)"/>
<path d="M19.6287 31.46L14.2287 36.86C13.8687 37.22 13.4127 37.388 12.9567 37.388C12.5007 37.388 12.0207 37.22 11.6847 36.86L9.88473 35.06C9.16473 34.364 9.16473 33.212 9.88473 32.516C10.5807 31.82 11.7087 31.82 12.4287 32.516L12.9567 33.044L17.0847 28.916C17.7807 28.22 18.9087 28.22 19.6287 28.916C20.3247 29.612 20.3247 30.764 19.6287 31.46Z" fill="url(#paint5_linear_11419_228659)"/>
<defs>
<linearGradient id="paint0_linear_11419_228659" x1="1.9087" y1="45.8333" x2="69.5634" y2="44.081" gradientUnits="userSpaceOnUse">
<stop stop-color="#005F73"/>
<stop offset="1" stop-color="#6CC24A"/>
</linearGradient>
<linearGradient id="paint1_linear_11419_228659" x1="1.9087" y1="45.8333" x2="69.5634" y2="44.081" gradientUnits="userSpaceOnUse">
<stop stop-color="#005F73"/>
<stop offset="1" stop-color="#6CC24A"/>
</linearGradient>
<linearGradient id="paint2_linear_11419_228659" x1="23.9198" y1="18.588" x2="46.4623" y2="15.9605" gradientUnits="userSpaceOnUse">
<stop stop-color="#005F73"/>
<stop offset="1" stop-color="#6CC24A"/>
</linearGradient>
<linearGradient id="paint3_linear_11419_228659" x1="9.66186" y1="20.0886" x2="24.8881" y2="19.6147" gradientUnits="userSpaceOnUse">
<stop stop-color="#005F73"/>
<stop offset="1" stop-color="#6CC24A"/>
</linearGradient>
<linearGradient id="paint4_linear_11419_228659" x1="23.9198" y1="35.3883" x2="46.4623" y2="32.7608" gradientUnits="userSpaceOnUse">
<stop stop-color="#005F73"/>
<stop offset="1" stop-color="#6CC24A"/>
</linearGradient>
<linearGradient id="paint5_linear_11419_228659" x1="9.66186" y1="36.8884" x2="24.8881" y2="36.4145" gradientUnits="userSpaceOnUse">
<stop stop-color="#005F73"/>
<stop offset="1" stop-color="#6CC24A"/>
</linearGradient>
</defs>
</svg>
