<svg width="16" height="16" viewBox="0 0 16 16" fill="none" xmlns="http://www.w3.org/2000/svg">
<path d="M11.7466 6.41211H8.24658C7.97325 6.41211 7.74658 6.18544 7.74658 5.91211C7.74658 5.63878 7.97325 5.41211 8.24658 5.41211H11.7466C12.0199 5.41211 12.2466 5.63878 12.2466 5.91211C12.2466 6.18544 12.0266 6.41211 11.7466 6.41211Z" fill="#005F73"/>
<path d="M4.74687 6.92021C4.6202 6.92021 4.49354 6.87354 4.39354 6.77354L3.89354 6.27354C3.7002 6.08021 3.7002 5.76021 3.89354 5.56688C4.08687 5.37354 4.40687 5.37354 4.6002 5.56688L4.74687 5.71354L5.89354 4.56688C6.08687 4.37354 6.40687 4.37354 6.6002 4.56688C6.79354 4.76021 6.79354 5.08021 6.6002 5.27354L5.1002 6.77354C5.00687 6.86688 4.8802 6.92021 4.74687 6.92021Z" fill="#005F73"/>
<path d="M11.7466 11.0801H8.24658C7.97325 11.0801 7.74658 10.8534 7.74658 10.5801C7.74658 10.3067 7.97325 10.0801 8.24658 10.0801H11.7466C12.0199 10.0801 12.2466 10.3067 12.2466 10.5801C12.2466 10.8534 12.0266 11.0801 11.7466 11.0801Z" fill="#005F73"/>
<path d="M4.74687 11.5862C4.6202 11.5862 4.49354 11.5396 4.39354 11.4396L3.89354 10.9396C3.7002 10.7462 3.7002 10.4262 3.89354 10.2329C4.08687 10.0396 4.40687 10.0396 4.6002 10.2329L4.74687 10.3796L5.89354 9.23289C6.08687 9.03956 6.40687 9.03956 6.6002 9.23289C6.79354 9.42622 6.79354 9.74622 6.6002 9.93956L5.1002 11.4396C5.00687 11.5329 4.8802 11.5862 4.74687 11.5862Z" fill="#005F73"/>
<path d="M10.0002 15.1673H6.00016C2.38016 15.1673 0.833496 13.6207 0.833496 10.0007V6.00065C0.833496 2.38065 2.38016 0.833984 6.00016 0.833984H10.0002C13.6202 0.833984 15.1668 2.38065 15.1668 6.00065V10.0007C15.1668 13.6207 13.6202 15.1673 10.0002 15.1673ZM6.00016 1.83398C2.92683 1.83398 1.8335 2.92732 1.8335 6.00065V10.0007C1.8335 13.074 2.92683 14.1673 6.00016 14.1673H10.0002C13.0735 14.1673 14.1668 13.074 14.1668 10.0007V6.00065C14.1668 2.92732 13.0735 1.83398 10.0002 1.83398H6.00016Z" fill="#005F73"/>
</svg>
