<svg width="16" height="16" viewBox="0 0 16 16" fill="none" xmlns="http://www.w3.org/2000/svg">
<path d="M8 3.5H2C1.72667 3.5 1.5 3.27333 1.5 3C1.5 2.72667 1.72667 2.5 2 2.5H8C8.27333 2.5 8.5 2.72667 8.5 3C8.5 3.27333 8.27333 3.5 8 3.5Z" fill="#005F73"/>
<path d="M8 6.83398H2C1.72667 6.83398 1.5 6.60732 1.5 6.33398C1.5 6.06065 1.72667 5.83398 2 5.83398H8C8.27333 5.83398 8.5 6.06065 8.5 6.33398C8.5 6.60732 8.27333 6.83398 8 6.83398Z" fill="#005F73"/>
<path d="M14 10.166H2C1.72667 10.166 1.5 9.93935 1.5 9.66602C1.5 9.39268 1.72667 9.16602 2 9.16602H14C14.2733 9.16602 14.5 9.39268 14.5 9.66602C14.5 9.93935 14.2733 10.166 14 10.166Z" fill="#005F73"/>
<path d="M14 13.5H2C1.72667 13.5 1.5 13.2733 1.5 13C1.5 12.7267 1.72667 12.5 2 12.5H14C14.2733 12.5 14.5 12.7267 14.5 13C14.5 13.2733 14.2733 13.5 14 13.5Z" fill="#005F73"/>
</svg>
