<svg width="20" height="20" viewBox="0 0 20 20" fill="none" xmlns="http://www.w3.org/2000/svg">
<path d="M14.3367 8.43819L14.3368 8.43824L14.3427 8.43215C14.7684 7.9917 14.7769 7.28792 14.3367 6.84775C13.8998 6.41082 13.1832 6.41082 12.7463 6.84775L8.8165 10.7775L7.25339 9.21442C6.81646 8.77749 6.09988 8.77749 5.66295 9.21442C5.22602 9.65134 5.22602 10.3679 5.66295 10.8049L6.0165 10.4513L5.66295 10.8049L8.02128 13.1632C8.23065 13.3726 8.51572 13.493 8.8165 13.493C9.11729 13.493 9.40236 13.3726 9.61172 13.1632L14.3367 8.43819ZM2.1665 10.0013C2.1665 5.68578 5.68431 2.16797 9.99984 2.16797C14.3154 2.16797 17.8332 5.68578 17.8332 10.0013C17.8332 14.3168 14.3154 17.8346 9.99984 17.8346C5.68431 17.8346 2.1665 14.3168 2.1665 10.0013Z" fill="#6CC24A" stroke="#6CC24A"/>
</svg>
