<svg width="135" height="108" viewBox="0 0 135 108" fill="none" xmlns="http://www.w3.org/2000/svg">
<path fill-rule="evenodd" clip-rule="evenodd" d="M111.452 35.1016C113.524 35.1016 115.204 36.7939 115.204 38.8816C115.204 40.9692 113.524 42.6616 111.452 42.6616H90.0119C92.0841 42.6616 93.7639 44.3539 93.7639 46.4416C93.7639 48.5292 92.0841 50.2216 90.0119 50.2216H101.804C103.876 50.2216 105.556 51.9139 105.556 54.0016C105.556 56.0892 103.876 57.7816 101.804 57.7816H96.3507C93.7379 57.7816 91.6199 59.4739 91.6199 61.5616C91.6199 62.9533 92.6919 64.2133 94.8359 65.3416C96.9081 65.3416 98.5879 67.0339 98.5879 69.1216C98.5879 71.2092 96.9081 72.9016 94.8359 72.9016H50.3479C48.2757 72.9016 46.5959 71.2092 46.5959 69.1216C46.5959 67.0339 48.2757 65.3416 50.3479 65.3416H29.4439C27.3717 65.3416 25.6919 63.6492 25.6919 61.5616C25.6919 59.4739 27.3717 57.7816 29.4439 57.7816H50.8839C52.9561 57.7816 54.6359 56.0892 54.6359 54.0016C54.6359 51.9139 52.9561 50.2216 50.8839 50.2216H37.4839C35.4117 50.2216 33.7319 48.5292 33.7319 46.4416C33.7319 44.3539 35.4117 42.6616 37.4839 42.6616H58.9239C56.8517 42.6616 55.1719 40.9692 55.1719 38.8816C55.1719 36.7939 56.8517 35.1016 58.9239 35.1016H111.452ZM111.452 50.2216C113.524 50.2216 115.204 51.9139 115.204 54.0016C115.204 56.0892 113.524 57.7816 111.452 57.7816C109.38 57.7816 107.7 56.0892 107.7 54.0016C107.7 51.9139 109.38 50.2216 111.452 50.2216Z" fill="#F4F4F4"/>
<path opacity="0.4" d="M69.5001 75.0846C83.0771 75.0846 94.0834 64.0783 94.0834 50.5013C94.0834 36.9243 83.0771 25.918 69.5001 25.918C55.9231 25.918 44.9167 36.9243 44.9167 50.5013C44.9167 64.0783 55.9231 75.0846 69.5001 75.0846Z" fill="url(#paint0_linear_6461_101016)"/>
<path d="M66.009 59.2998C65.5174 59.2998 65.0503 59.1031 64.7061 58.759L57.749 51.8019C57.0361 51.089 57.0361 49.909 57.749 49.196C58.462 48.4831 59.642 48.4831 60.3549 49.196L66.009 54.8502L78.6449 42.2144C79.3578 41.5015 80.5378 41.5015 81.2507 42.2144C81.9636 42.9273 81.9636 44.1073 81.2507 44.8202L67.312 58.759C66.9678 59.1031 66.5007 59.2998 66.009 59.2998Z" fill="url(#paint1_linear_6461_101016)"/>
<defs>
<linearGradient id="paint0_linear_6461_101016" x1="46.3597" y1="72.3532" x2="115.659" y2="70.5582" gradientUnits="userSpaceOnUse">
<stop stop-color="#005F73"/>
<stop offset="1" stop-color="#6CC24A"/>
</linearGradient>
<linearGradient id="paint1_linear_6461_101016" x1="57.9355" y1="58.3209" x2="92.5458" y2="57.0708" gradientUnits="userSpaceOnUse">
<stop stop-color="#005F73"/>
<stop offset="1" stop-color="#6CC24A"/>
</linearGradient>
</defs>
</svg>
