<svg width="17" height="17" viewBox="0 0 17 17" fill="none" xmlns="http://www.w3.org/2000/svg">
<path d="M5.70605 2.16638H11.293C12.4401 2.16638 13.3158 2.50783 13.9033 3.09607C14.4904 3.68418 14.8293 4.55904 14.8262 5.70544V11.2933C14.8262 12.4404 14.4859 13.3162 13.8975 13.9047C13.309 14.493 12.4331 14.8334 11.2861 14.8334H5.70605C4.55923 14.8333 3.68403 14.4927 3.0957 13.9037C2.50728 13.3145 2.16602 12.4371 2.16602 11.2865V5.70642C2.16607 4.55952 2.50734 3.68444 3.0957 3.09607C3.68407 2.5077 4.55915 2.16644 5.70605 2.16638ZM11.9219 6.02478C11.5984 5.70127 11.0676 5.70127 10.7441 6.02478L7.55273 9.21423L6.25586 7.91736C5.93238 7.59388 5.40066 7.59393 5.07715 7.91736C4.75364 8.24087 4.75364 8.77256 5.07715 9.09607L6.96387 10.9828C7.11892 11.1378 7.33016 11.2269 7.55273 11.2269C7.77528 11.2269 7.98651 11.1377 8.1416 10.9828L11.9258 7.19861C12.2418 6.87169 12.2474 6.35046 11.9219 6.02478Z" fill="#06C78D" stroke="#06C78D" stroke-width="0.666667"/>
</svg>
