<svg width="17" height="16" viewBox="0 0 17 16" fill="none" xmlns="http://www.w3.org/2000/svg">
<path d="M8.24967 1.33301C4.57634 1.33301 1.58301 4.32634 1.58301 7.99967C1.58301 11.673 4.57634 14.6663 8.24967 14.6663C11.923 14.6663 14.9163 11.673 14.9163 7.99967C14.9163 4.32634 11.923 1.33301 8.24967 1.33301ZM11.4363 6.46634L7.65634 10.2463C7.56301 10.3397 7.43634 10.393 7.30301 10.393C7.16967 10.393 7.04301 10.3397 6.94967 10.2463L5.06301 8.35967C4.86967 8.16634 4.86967 7.84634 5.06301 7.65301C5.25634 7.45967 5.57634 7.45967 5.76967 7.65301L7.30301 9.18634L10.7297 5.75968C10.923 5.56634 11.243 5.56634 11.4363 5.75968C11.6297 5.95301 11.6297 6.26634 11.4363 6.46634Z" fill="#06C78D"/>
</svg>
