<svg width="21" height="20" viewBox="0 0 21 20" fill="none" xmlns="http://www.w3.org/2000/svg">
<path d="M13.0013 18.9584H8.0013C3.4763 18.9584 1.54297 17.0251 1.54297 12.5001V7.50008C1.54297 2.97508 3.4763 1.04175 8.0013 1.04175H13.0013C17.5263 1.04175 19.4596 2.97508 19.4596 7.50008V12.5001C19.4596 17.0251 17.5263 18.9584 13.0013 18.9584ZM8.0013 2.29175C4.15964 2.29175 2.79297 3.65841 2.79297 7.50008V12.5001C2.79297 16.3417 4.15964 17.7084 8.0013 17.7084H13.0013C16.843 17.7084 18.2096 16.3417 18.2096 12.5001V7.50008C18.2096 3.65841 16.843 2.29175 13.0013 2.29175H8.0013Z" fill="white"/>
<path d="M9.31719 12.9834C9.15052 12.9834 8.99219 12.9167 8.87552 12.8001L6.51719 10.4417C6.27552 10.2001 6.27552 9.80008 6.51719 9.55841C6.75885 9.31675 7.15885 9.31675 7.40052 9.55841L9.31719 11.4751L13.6005 7.19175C13.8422 6.95008 14.2422 6.95008 14.4839 7.19175C14.7255 7.43341 14.7255 7.83341 14.4839 8.07508L9.75885 12.8001C9.64219 12.9167 9.48385 12.9834 9.31719 12.9834Z" fill="white"/>
</svg>
