<svg width="16" height="16" viewBox="0 0 16 16" fill="none" xmlns="http://www.w3.org/2000/svg">
<path d="M7.9987 15.1667C4.04536 15.1667 0.832031 11.9534 0.832031 8.00004C0.832031 4.04671 4.04536 0.833374 7.9987 0.833374C11.952 0.833374 15.1654 4.04671 15.1654 8.00004C15.1654 11.9534 11.952 15.1667 7.9987 15.1667ZM7.9987 1.83337C4.5987 1.83337 1.83203 4.60004 1.83203 8.00004C1.83203 11.4 4.5987 14.1667 7.9987 14.1667C11.3987 14.1667 14.1654 11.4 14.1654 8.00004C14.1654 4.60004 11.3987 1.83337 7.9987 1.83337Z" fill="#005F73"/>
<path d="M7.05297 10.3867C6.91964 10.3867 6.79297 10.3334 6.69964 10.2401L4.81297 8.3534C4.61964 8.16006 4.61964 7.84007 4.81297 7.64673C5.0063 7.4534 5.3263 7.4534 5.51964 7.64673L7.05297 9.18007L10.4796 5.7534C10.673 5.56007 10.993 5.56007 11.1863 5.7534C11.3796 5.94673 11.3796 6.26673 11.1863 6.46006L7.4063 10.2401C7.31297 10.3334 7.1863 10.3867 7.05297 10.3867Z" fill="#005F73"/>
</svg>
