<svg width="20" height="20" viewBox="0 0 20 20" fill="none" xmlns="http://www.w3.org/2000/svg">
<path d="M12.5013 18.9583H7.5013C2.9763 18.9583 1.04297 17.025 1.04297 12.5V7.49996C1.04297 2.97496 2.9763 1.04163 7.5013 1.04163H12.5013C17.0263 1.04163 18.9596 2.97496 18.9596 7.49996V12.5C18.9596 17.025 17.0263 18.9583 12.5013 18.9583ZM7.5013 2.29163C3.65964 2.29163 2.29297 3.65829 2.29297 7.49996V12.5C2.29297 16.3416 3.65964 17.7083 7.5013 17.7083H12.5013C16.343 17.7083 17.7096 16.3416 17.7096 12.5V7.49996C17.7096 3.65829 16.343 2.29163 12.5013 2.29163H7.5013Z" fill="white"/>
<path d="M8.81719 12.9833C8.65052 12.9833 8.49219 12.9166 8.37552 12.8L6.01719 10.4416C5.77552 10.2 5.77552 9.79996 6.01719 9.55829C6.25885 9.31663 6.65885 9.31663 6.90052 9.55829L8.81719 11.475L13.1005 7.19163C13.3422 6.94996 13.7422 6.94996 13.9839 7.19163C14.2255 7.43329 14.2255 7.83329 13.9839 8.07496L9.25885 12.8C9.14219 12.9166 8.98385 12.9833 8.81719 12.9833Z" fill="white"/>
</svg>
