<svg width="21" height="20" viewBox="0 0 21 20" fill="none" xmlns="http://www.w3.org/2000/svg">
<path d="M10.5001 18.9583C5.55841 18.9583 1.54175 14.9416 1.54175 9.99996C1.54175 5.05829 5.55841 1.04163 10.5001 1.04163C15.4417 1.04163 19.4584 5.05829 19.4584 9.99996C19.4584 14.9416 15.4417 18.9583 10.5001 18.9583ZM10.5001 2.29163C6.25008 2.29163 2.79175 5.74996 2.79175 9.99996C2.79175 14.25 6.25008 17.7083 10.5001 17.7083C14.7501 17.7083 18.2084 14.25 18.2084 9.99996C18.2084 5.74996 14.7501 2.29163 10.5001 2.29163Z" fill="#06C78D"/>
<path d="M9.3167 12.9833C9.15003 12.9833 8.9917 12.9166 8.87503 12.8L6.5167 10.4416C6.27503 10.2 6.27503 9.79996 6.5167 9.55829C6.75837 9.31663 7.15837 9.31663 7.40003 9.55829L9.3167 11.475L13.6 7.19163C13.8417 6.94996 14.2417 6.94996 14.4834 7.19163C14.725 7.43329 14.725 7.83329 14.4834 8.07496L9.75837 12.8C9.6417 12.9166 9.48337 12.9833 9.3167 12.9833Z" fill="#06C78D"/>
</svg>
