<svg width="20" height="20" viewBox="0 0 20 20" fill="none" xmlns="http://www.w3.org/2000/svg">
<path opacity="0.4" d="M10.0003 18.3337C14.6027 18.3337 18.3337 14.6027 18.3337 10.0003C18.3337 5.39795 14.6027 1.66699 10.0003 1.66699C5.39795 1.66699 1.66699 5.39795 1.66699 10.0003C1.66699 14.6027 5.39795 18.3337 10.0003 18.3337Z" fill="url(#paint0_linear_9857_219057)"/>
<path d="M8.81719 12.9827C8.65052 12.9827 8.49219 12.916 8.37552 12.7993L6.01719 10.441C5.77552 10.1993 5.77552 9.79935 6.01719 9.55768C6.25885 9.31602 6.65885 9.31602 6.90052 9.55768L8.81719 11.4743L13.1005 7.19102C13.3422 6.94935 13.7422 6.94935 13.9839 7.19102C14.2255 7.43268 14.2255 7.83268 13.9839 8.07435L9.25885 12.7993C9.14219 12.916 8.98385 12.9827 8.81719 12.9827Z" fill="url(#paint1_linear_9857_219057)"/>
<defs>
<linearGradient id="paint0_linear_9857_219057" x1="2.15612" y1="17.4077" x2="25.6473" y2="16.7993" gradientUnits="userSpaceOnUse">
<stop stop-color="#005F73"/>
<stop offset="1" stop-color="#6CC24A"/>
</linearGradient>
<linearGradient id="paint1_linear_9857_219057" x1="6.08038" y1="12.6509" x2="17.8127" y2="12.2271" gradientUnits="userSpaceOnUse">
<stop stop-color="#005F73"/>
<stop offset="1" stop-color="#6CC24A"/>
</linearGradient>
</defs>
</svg>
