<svg width="59" height="59" viewBox="0 0 59 59" fill="none" xmlns="http://www.w3.org/2000/svg">
<path opacity="0.4" d="M29.5003 54.0837C43.0773 54.0837 54.0837 43.0773 54.0837 29.5003C54.0837 15.9233 43.0773 4.91699 29.5003 4.91699C15.9233 4.91699 4.91699 15.9233 4.91699 29.5003C4.91699 43.0773 15.9233 54.0837 29.5003 54.0837Z" fill="url(#paint0_linear_6239_94230)"/>
<path d="M26.0095 38.3008C25.5179 38.3008 25.0508 38.1041 24.7066 37.7599L17.7495 30.8029C17.0366 30.0899 17.0366 28.9099 17.7495 28.197C18.4624 27.4841 19.6424 27.4841 20.3554 28.197L26.0095 33.8512L38.6454 21.2154C39.3583 20.5024 40.5383 20.5024 41.2512 21.2154C41.9641 21.9283 41.9641 23.1083 41.2512 23.8212L27.3124 37.7599C26.9683 38.1041 26.5012 38.3008 26.0095 38.3008Z" fill="url(#paint1_linear_6239_94230)"/>
<defs>
<linearGradient id="paint0_linear_6239_94230" x1="6.35993" y1="51.3522" x2="75.659" y2="49.5573" gradientUnits="userSpaceOnUse">
<stop stop-color="#005F73"/>
<stop offset="1" stop-color="#6CC24A"/>
</linearGradient>
<linearGradient id="paint1_linear_6239_94230" x1="17.936" y1="37.3219" x2="52.5463" y2="36.0718" gradientUnits="userSpaceOnUse">
<stop stop-color="#005F73"/>
<stop offset="1" stop-color="#6CC24A"/>
</linearGradient>
</defs>
</svg>
