<svg width="16" height="16" viewBox="0 0 16 16" fill="none" xmlns="http://www.w3.org/2000/svg">
<path d="M8 1.16634C11.7691 1.16651 14.833 4.23119 14.833 8.00032C14.8328 11.7693 11.769 14.8332 8 14.8333C4.23087 14.8333 1.16619 11.7694 1.16602 8.00032C1.16602 4.23108 4.23076 1.16634 8 1.16634ZM8 1.50032C4.41591 1.50032 1.5 4.41623 1.5 8.00032C1.50018 11.5843 4.41601 14.5003 8 14.5003C11.5838 14.5001 14.4998 11.5842 14.5 8.00032C14.5 4.41633 11.5839 1.5005 8 1.50032Z" fill="#888888" stroke="#888888" stroke-width="0.666667"/>
<path d="M7.05395 10.3867C6.92061 10.3867 6.79395 10.3333 6.70061 10.24L4.81395 8.35334C4.62061 8.16 4.62061 7.84 4.81395 7.64667C5.00728 7.45334 5.32728 7.45334 5.52061 7.64667L7.05395 9.18L10.4806 5.75334C10.6739 5.56 10.9939 5.56 11.1873 5.75334C11.3806 5.94667 11.3806 6.26667 11.1873 6.46L7.40728 10.24C7.31395 10.3333 7.18728 10.3867 7.05395 10.3867Z" fill="#888888"/>
</svg>
