<svg width="16" height="16" viewBox="0 0 16 16" fill="none" xmlns="http://www.w3.org/2000/svg">
<path d="M9.99967 15.1668H5.99967C2.37967 15.1668 0.833008 13.6202 0.833008 10.0002V6.00016C0.833008 2.38016 2.37967 0.833496 5.99967 0.833496H9.99967C13.6197 0.833496 15.1663 2.38016 15.1663 6.00016V10.0002C15.1663 13.6202 13.6197 15.1668 9.99967 15.1668ZM5.99967 1.8335C2.92634 1.8335 1.83301 2.92683 1.83301 6.00016V10.0002C1.83301 13.0735 2.92634 14.1668 5.99967 14.1668H9.99967C13.073 14.1668 14.1663 13.0735 14.1663 10.0002V6.00016C14.1663 2.92683 13.073 1.8335 9.99967 1.8335H5.99967Z" fill="#005F73"/>
<path d="M7.05297 10.3867C6.91964 10.3867 6.79297 10.3334 6.69964 10.2401L4.81297 8.3534C4.61964 8.16007 4.61964 7.84007 4.81297 7.64673C5.0063 7.4534 5.3263 7.4534 5.51964 7.64673L7.05297 9.18007L10.4796 5.7534C10.673 5.56007 10.993 5.56007 11.1863 5.7534C11.3796 5.94673 11.3796 6.26673 11.1863 6.46006L7.4063 10.2401C7.31297 10.3334 7.1863 10.3867 7.05297 10.3867Z" fill="#005F73"/>
</svg>
