<svg width="16" height="17" viewBox="0 0 16 17" fill="none" xmlns="http://www.w3.org/2000/svg">
<path d="M7.99967 15.2691C4.04634 15.2691 0.833008 12.0558 0.833008 8.10246C0.833008 4.14912 4.04634 0.935791 7.99967 0.935791C11.953 0.935791 15.1663 4.14912 15.1663 8.10246C15.1663 12.0558 11.953 15.2691 7.99967 15.2691ZM7.99967 1.93579C4.59967 1.93579 1.83301 4.70246 1.83301 8.10246C1.83301 11.5025 4.59967 14.2691 7.99967 14.2691C11.3997 14.2691 14.1663 11.5025 14.1663 8.10246C14.1663 4.70246 11.3997 1.93579 7.99967 1.93579Z" fill="#005F73"/>
<path d="M7.05297 10.489C6.91964 10.489 6.79297 10.4357 6.69964 10.3424L4.81297 8.45569C4.61964 8.26236 4.61964 7.94236 4.81297 7.74903C5.0063 7.55569 5.3263 7.55569 5.51964 7.74903L7.05297 9.28236L10.4796 5.85569C10.673 5.66236 10.993 5.66236 11.1863 5.85569C11.3796 6.04903 11.3796 6.36903 11.1863 6.56236L7.4063 10.3424C7.31297 10.4357 7.1863 10.489 7.05297 10.489Z" fill="#005F73"/>
</svg>
