<svg width="16" height="16" viewBox="0 0 16 16" fill="none" xmlns="http://www.w3.org/2000/svg">
<path d="M7.99935 14.9167C4.64409 14.9167 1.91602 12.1886 1.91602 8.83333C1.91602 5.47807 4.64409 2.75 7.99935 2.75C11.3546 2.75 14.0827 5.47807 14.0827 8.83333C14.0827 12.1886 11.3546 14.9167 7.99935 14.9167ZM7.99935 3.25C4.92128 3.25 2.41602 5.75526 2.41602 8.83333C2.41602 11.9114 4.92128 14.4167 7.99935 14.4167C11.0774 14.4167 13.5827 11.9114 13.5827 8.83333C13.5827 5.75526 11.0774 3.25 7.99935 3.25Z" fill="#6CC24A" stroke="#6CC24A" stroke-width="0.5"/>
<path d="M8 9.16536C7.72667 9.16536 7.5 8.9387 7.5 8.66536V5.33203C7.5 5.0587 7.72667 4.83203 8 4.83203C8.27333 4.83203 8.5 5.0587 8.5 5.33203V8.66536C8.5 8.9387 8.27333 9.16536 8 9.16536Z" fill="#6CC24A"/>
<path d="M10 1.83203H6C5.72667 1.83203 5.5 1.60536 5.5 1.33203C5.5 1.0587 5.72667 0.832031 6 0.832031H10C10.2733 0.832031 10.5 1.0587 10.5 1.33203C10.5 1.60536 10.2733 1.83203 10 1.83203Z" fill="#6CC24A"/>
</svg>
