<svg width="16" height="16" viewBox="0 0 16 16" fill="none" xmlns="http://www.w3.org/2000/svg">
<path d="M10.8151 8.35971L8.67337 9.43043C8.03097 9.75318 7.50972 10.2744 7.18697 10.9168L6.11609 13.0586C5.95625 13.3623 5.52473 13.3623 5.36489 13.0586L4.29401 10.917C3.97126 10.2746 3.45001 9.75334 2.80761 9.43059L0.63401 8.35955C0.33033 8.19955 0.33033 7.76819 0.63401 7.60835L2.79161 6.55331C3.43401 6.23055 3.95526 5.70931 4.27801 5.06691L5.34889 2.92531C5.50889 2.62147 5.94025 2.62147 6.10009 2.92531L7.17097 5.06691C7.49372 5.70931 8.01497 6.23055 8.65737 6.55331L10.7991 7.62419C11.1188 7.76819 11.1188 8.21571 10.8151 8.35971ZM15.4982 13.1546L14.5711 12.6911C14.2989 12.5467 14.0762 12.324 13.9318 12.0517L13.4683 11.1247C13.4043 10.9967 13.2126 10.9967 13.1486 11.1247L12.6851 12.0517C12.5406 12.324 12.3179 12.5467 12.0457 12.6911L11.1186 13.1546C10.9906 13.2186 10.9906 13.4103 11.1186 13.4743L12.0457 13.9378C12.3179 14.0822 12.5406 14.3049 12.6851 14.5771L13.1486 15.5042C13.2126 15.632 13.4043 15.632 13.4683 15.5042L13.9318 14.5771C14.0762 14.3049 14.2989 14.0822 14.5711 13.9378L15.4982 13.4743C15.626 13.3943 15.626 13.2184 15.4982 13.1546ZM15.4982 2.52579L14.5711 2.06227C14.2989 1.91786 14.0762 1.69515 13.9318 1.42291L13.4683 0.496026C13.4043 0.368186 13.2126 0.368186 13.1486 0.496026L12.6851 1.42307C12.5406 1.69531 12.3179 1.91802 12.0457 2.06243L11.1186 2.52595C10.9906 2.58995 10.9906 2.78163 11.1186 2.84563L12.0457 3.30915C12.3179 3.45355 12.5406 3.67626 12.6851 3.94851L13.1486 4.87555C13.2126 5.00355 13.4043 5.00355 13.4683 4.87555L13.9318 3.94851C14.0762 3.67626 14.2989 3.45355 14.5711 3.30915L15.4982 2.84563C15.626 2.76563 15.626 2.58979 15.4982 2.52579Z" fill="white"/>
</svg>
