<svg width="12" height="12" viewBox="0 0 12 12" fill="none" xmlns="http://www.w3.org/2000/svg">
<mask id="path-1-inside-1_6383_78319" fill="white">
<path d="M4.49875 8.87524C4.29375 8.87524 4.12375 8.70524 4.12375 8.50024V6.40524L3.76375 6.76524C3.61875 6.91024 3.37875 6.91024 3.23375 6.76524C3.08875 6.62024 3.08875 6.38024 3.23375 6.23524L4.23375 5.23524C4.33875 5.13024 4.50375 5.09524 4.64375 5.15524C4.78375 5.21024 4.87375 5.35024 4.87375 5.50024V8.50024C4.87375 8.70524 4.70375 8.87524 4.49875 8.87524Z"/>
</mask>
<path d="M4.49875 8.87524C4.29375 8.87524 4.12375 8.70524 4.12375 8.50024V6.40524L3.76375 6.76524C3.61875 6.91024 3.37875 6.91024 3.23375 6.76524C3.08875 6.62024 3.08875 6.38024 3.23375 6.23524L4.23375 5.23524C4.33875 5.13024 4.50375 5.09524 4.64375 5.15524C4.78375 5.21024 4.87375 5.35024 4.87375 5.50024V8.50024C4.87375 8.70524 4.70375 8.87524 4.49875 8.87524Z" fill="#6CC24A"/>
<path d="M4.12375 6.40524H5.12375V3.99103L3.41664 5.69813L4.12375 6.40524ZM3.76375 6.76524L3.05664 6.05813L3.05664 6.05813L3.76375 6.76524ZM3.23375 6.23524L2.52664 5.52813L2.52664 5.52813L3.23375 6.23524ZM4.23375 5.23524L4.94086 5.94235V5.94235L4.23375 5.23524ZM4.64375 5.15524L4.24983 6.07438L4.26388 6.0804L4.2781 6.08599L4.64375 5.15524ZM4.49875 7.87524C4.84603 7.87524 5.12375 8.15295 5.12375 8.50024H3.12375C3.12375 9.25752 3.74147 9.87524 4.49875 9.87524V7.87524ZM5.12375 8.50024V6.40524H3.12375V8.50024H5.12375ZM3.41664 5.69813L3.05664 6.05813L4.47086 7.47235L4.83086 7.11235L3.41664 5.69813ZM3.05664 6.05813C3.30217 5.81261 3.69533 5.81261 3.94086 6.05813L2.52664 7.47234C3.06217 8.00787 3.93533 8.00787 4.47086 7.47234L3.05664 6.05813ZM3.94086 6.05813C4.18638 6.30366 4.18638 6.69682 3.94086 6.94235L2.52664 5.52813C1.99112 6.06366 1.99112 6.93682 2.52664 7.47234L3.94086 6.05813ZM3.94086 6.94235L4.94086 5.94235L3.52664 4.52813L2.52664 5.52813L3.94086 6.94235ZM4.94086 5.94235C4.76489 6.11831 4.49619 6.17997 4.24983 6.07438L5.03767 4.23609C4.51131 4.01051 3.91261 4.14217 3.52664 4.52813L4.94086 5.94235ZM4.2781 6.08599C4.01313 5.9819 3.87375 5.73692 3.87375 5.50024H5.87375C5.87375 4.96355 5.55437 4.43858 5.0094 4.22449L4.2781 6.08599ZM3.87375 5.50024V8.50024H5.87375V5.50024H3.87375ZM3.87375 8.50024C3.87375 8.15295 4.15147 7.87524 4.49875 7.87524V9.87524C5.25603 9.87524 5.87375 9.25752 5.87375 8.50024H3.87375Z" fill="#6CC24A" mask="url(#path-1-inside-1_6383_78319)"/>
<path d="M5.49875 6.87473C5.40375 6.87473 5.30875 6.83973 5.23375 6.76473L4.23375 5.76473C4.08875 5.61973 4.08875 5.37973 4.23375 5.23473C4.37875 5.08973 4.61875 5.08973 4.76375 5.23473L5.76375 6.23473C5.90875 6.37973 5.90875 6.61973 5.76375 6.76473C5.68875 6.83973 5.59375 6.87473 5.49875 6.87473Z" fill="#6CC24A"/>
<path d="M7.5 11.375H4.5C1.785 11.375 0.625 10.215 0.625 7.5V4.5C0.625 1.785 1.785 0.625 4.5 0.625H7C7.205 0.625 7.375 0.795 7.375 1C7.375 1.205 7.205 1.375 7 1.375H4.5C2.195 1.375 1.375 2.195 1.375 4.5V7.5C1.375 9.805 2.195 10.625 4.5 10.625H7.5C9.805 10.625 10.625 9.805 10.625 7.5V5C10.625 4.795 10.795 4.625 11 4.625C11.205 4.625 11.375 4.795 11.375 5V7.5C11.375 10.215 10.215 11.375 7.5 11.375Z" fill="#6CC24A"/>
<path d="M11 5.37524H9C7.29 5.37524 6.625 4.71024 6.625 3.00024V1.00024C6.625 0.850239 6.715 0.710238 6.855 0.655238C6.995 0.595238 7.155 0.630239 7.265 0.735239L11.265 4.73524C11.37 4.84024 11.405 5.00524 11.345 5.14524C11.285 5.28524 11.15 5.37524 11 5.37524ZM7.375 1.90524V3.00024C7.375 4.29024 7.71 4.62524 9 4.62524H10.095L7.375 1.90524Z" fill="#6CC24A"/>
</svg>
