<svg width="20" height="20" viewBox="0 0 20 20" fill="none" xmlns="http://www.w3.org/2000/svg">
<path d="M9.99967 10.293C7.5421 10.293 5.54134 8.29221 5.54134 5.83464C5.54134 3.37706 7.5421 1.3763 9.99967 1.3763C12.4572 1.3763 14.458 3.37706 14.458 5.83464C14.458 8.29221 12.4572 10.293 9.99967 10.293ZM9.99967 1.95964C7.86558 1.95964 6.12467 3.70054 6.12467 5.83464C6.12467 7.96873 7.86558 9.70964 9.99967 9.70964C12.1338 9.70964 13.8747 7.96873 13.8747 5.83464C13.8747 3.70054 12.1338 1.95964 9.99967 1.95964Z" fill="#005F73" stroke="#005F73" stroke-width="0.666667"/>
<path d="M2.8418 18.9583C2.50013 18.9583 2.2168 18.675 2.2168 18.3333C2.2168 14.775 5.70849 11.875 10.0002 11.875C10.8418 11.875 11.6668 11.9834 12.4668 12.2084C12.8002 12.3 12.9918 12.6417 12.9001 12.975C12.8085 13.3083 12.4668 13.5 12.1335 13.4084C11.4502 13.2167 10.7335 13.125 10.0002 13.125C6.40015 13.125 3.4668 15.4583 3.4668 18.3333C3.4668 18.675 3.18346 18.9583 2.8418 18.9583Z" fill="#005F73"/>
<path d="M15.0003 18.9596C14.017 18.9596 13.0837 18.593 12.3587 17.9347C12.067 17.6847 11.8087 17.3763 11.6087 17.0346C11.242 16.4346 11.042 15.7263 11.042 15.0013C11.042 13.9596 11.442 12.9846 12.1587 12.243C12.9087 11.468 13.917 11.043 15.0003 11.043C16.1337 11.043 17.2087 11.5263 17.942 12.3596C18.592 13.0846 18.9587 14.018 18.9587 15.0013C18.9587 15.318 18.917 15.6346 18.8336 15.9346C18.7503 16.3096 18.592 16.7013 18.3753 17.043C17.6836 18.2263 16.3837 18.9596 15.0003 18.9596ZM15.0003 12.293C14.2587 12.293 13.5753 12.5846 13.0586 13.1096C12.567 13.618 12.292 14.2846 12.292 15.0013C12.292 15.493 12.4253 15.9763 12.6836 16.393C12.817 16.6263 12.992 16.8346 13.192 17.0096C13.692 17.4679 14.3337 17.718 15.0003 17.718C15.942 17.718 16.8337 17.218 17.317 16.4096C17.4587 16.1763 17.567 15.9097 17.6253 15.6513C17.6837 15.4347 17.7087 15.2263 17.7087 15.0096C17.7087 14.343 17.4586 13.7013 17.0086 13.2013C16.5086 12.618 15.7753 12.293 15.0003 12.293Z" fill="#005F73"/>
<path d="M16.2495 15.6094H13.7578C13.4161 15.6094 13.1328 15.326 13.1328 14.9844C13.1328 14.6427 13.4161 14.3594 13.7578 14.3594H16.2495C16.5911 14.3594 16.8745 14.6427 16.8745 14.9844C16.8745 15.326 16.5911 15.6094 16.2495 15.6094Z" fill="#005F73"/>
</svg>
