<svg width="12" height="12" viewBox="0 0 12 12" fill="none" xmlns="http://www.w3.org/2000/svg">
<path d="M6 6.375C4.415 6.375 3.125 5.085 3.125 3.5C3.125 1.915 4.415 0.625 6 0.625C7.585 0.625 8.875 1.915 8.875 3.5C8.875 5.085 7.585 6.375 6 6.375ZM6 1.375C4.83 1.375 3.875 2.33 3.875 3.5C3.875 4.67 4.83 5.625 6 5.625C7.17 5.625 8.125 4.67 8.125 3.5C8.125 2.33 7.17 1.375 6 1.375Z" fill="#888888"/>
<path d="M1.70508 11.375C1.50008 11.375 1.33008 11.205 1.33008 11C1.33008 8.865 3.42508 7.125 6.00008 7.125C6.50508 7.125 7.00007 7.19001 7.48007 7.32501C7.68007 7.38001 7.79508 7.585 7.74008 7.785C7.68508 7.985 7.48007 8.10001 7.28007 8.04501C6.87007 7.93001 6.44008 7.875 6.00008 7.875C3.84008 7.875 2.08008 9.275 2.08008 11C2.08008 11.205 1.91008 11.375 1.70508 11.375Z" fill="#888888"/>
<path d="M9 11.375C8.17 11.375 7.39 10.935 6.97 10.22C6.745 9.86 6.625 9.435 6.625 9C6.625 8.27 6.95 7.59499 7.515 7.14499C7.935 6.80999 8.465 6.625 9 6.625C10.31 6.625 11.375 7.69 11.375 9C11.375 9.435 11.255 9.86001 11.03 10.225C10.905 10.435 10.745 10.625 10.555 10.785C10.14 11.165 9.585 11.375 9 11.375ZM9 7.375C8.63 7.375 8.28 7.49999 7.985 7.73499C7.6 8.03999 7.375 8.505 7.375 9C7.375 9.295 7.455 9.58499 7.61 9.83499C7.9 10.325 8.435 10.625 9 10.625C9.395 10.625 9.775 10.48 10.065 10.22C10.195 10.11 10.305 9.98 10.385 9.84C10.545 9.585 10.625 9.295 10.625 9C10.625 8.105 9.895 7.375 9 7.375Z" fill="#888888"/>
<path d="M8.71542 9.87027C8.62042 9.87027 8.52542 9.83529 8.45042 9.76029L7.95543 9.26529C7.81043 9.12029 7.81043 8.88026 7.95543 8.73526C8.10043 8.59026 8.34043 8.59026 8.48543 8.73526L8.72543 8.97528L9.52542 8.23526C9.67542 8.09526 9.91542 8.10528 10.0554 8.25528C10.1954 8.40528 10.1854 8.64528 10.0354 8.78528L8.97043 9.77027C8.89543 9.83527 8.80542 9.87027 8.71542 9.87027Z" fill="#888888"/>
</svg>
