<svg width="16" height="16" viewBox="0 0 16 16" fill="none" xmlns="http://www.w3.org/2000/svg">
<path d="M11.0997 13.4685V13.6618C10.113 14.2951 8.93302 14.6685 7.66635 14.6685C6.37969 14.6685 5.17969 14.2818 4.17969 13.6218V13.4685C4.17969 11.9151 5.73302 10.6484 7.63969 10.6484C9.55302 10.6484 11.0997 11.9151 11.0997 13.4685Z" fill="white"/>
<path opacity="0.4" d="M13.9997 8.33333C13.9997 10.5667 12.8463 12.5267 11.0997 13.66V13.4667C11.0997 11.9133 9.55301 10.6466 7.63967 10.6466C5.73301 10.6466 4.17967 11.9133 4.17967 13.4667V13.62C2.46634 12.4867 1.33301 10.5467 1.33301 8.33333C1.33301 4.83333 4.16634 2 7.66634 2C8.53967 2 9.37301 2.17333 10.133 2.49333C10.0463 2.75999 9.99967 3.04 9.99967 3.33333C9.99967 3.83333 10.1397 4.30666 10.3863 4.70666C10.5197 4.93333 10.693 5.13998 10.893 5.31331C11.3597 5.73998 11.9797 6 12.6663 6C12.9597 6 13.2397 5.95332 13.4997 5.85999C13.8197 6.61999 13.9997 7.46 13.9997 8.33333Z" fill="white"/>
<path d="M14.6467 1.55465C14.1667 1.00798 13.4533 0.667969 12.6667 0.667969C11.92 0.667969 11.24 0.97465 10.7533 1.47465C10.4733 1.76132 10.26 2.10796 10.1333 2.49463C10.0467 2.7613 10 3.0413 10 3.33464C10 3.83464 10.14 4.30797 10.3867 4.70797C10.52 4.93463 10.6933 5.14128 10.8933 5.31462C11.36 5.74128 11.98 6.0013 12.6667 6.0013C12.96 6.0013 13.24 5.95462 13.5 5.86129C14.1133 5.66795 14.6267 5.24797 14.9467 4.70797C15.0867 4.4813 15.1933 4.2213 15.2533 3.95463C15.3067 3.75463 15.3333 3.54797 15.3333 3.33464C15.3333 2.65464 15.0733 2.02798 14.6467 1.55465ZM13.66 3.82129H13.1667V4.34131C13.1667 4.61464 12.94 4.84131 12.6667 4.84131C12.3933 4.84131 12.1667 4.61464 12.1667 4.34131V3.82129H11.6733C11.4 3.82129 11.1733 3.59462 11.1733 3.32129C11.1733 3.04796 11.4 2.82129 11.6733 2.82129H12.1667V2.34798C12.1667 2.07465 12.3933 1.84798 12.6667 1.84798C12.94 1.84798 13.1667 2.07465 13.1667 2.34798V2.82129H13.66C13.9333 2.82129 14.16 3.04796 14.16 3.32129C14.16 3.59462 13.94 3.82129 13.66 3.82129Z" fill="white"/>
<path d="M7.63993 9.82088C8.67455 9.82088 9.51327 8.98216 9.51327 7.94755C9.51327 6.91294 8.67455 6.07422 7.63993 6.07422C6.60532 6.07422 5.7666 6.91294 5.7666 7.94755C5.7666 8.98216 6.60532 9.82088 7.63993 9.82088Z" fill="white"/>
</svg>
