<svg width="16" height="16" viewBox="0 0 16 16" fill="none" xmlns="http://www.w3.org/2000/svg">
<path d="M8.0013 8.50065C5.88797 8.50065 4.16797 6.78065 4.16797 4.66732C4.16797 2.55398 5.88797 0.833984 8.0013 0.833984C10.1146 0.833984 11.8346 2.55398 11.8346 4.66732C11.8346 6.78065 10.1146 8.50065 8.0013 8.50065ZM8.0013 1.83398C6.4413 1.83398 5.16797 3.10732 5.16797 4.66732C5.16797 6.22732 6.4413 7.50065 8.0013 7.50065C9.5613 7.50065 10.8346 6.22732 10.8346 4.66732C10.8346 3.10732 9.5613 1.83398 8.0013 1.83398Z" fill="#6CC24A"/>
<path d="M2.27344 15.1667C2.0001 15.1667 1.77344 14.94 1.77344 14.6667C1.77344 11.82 4.56679 9.5 8.00012 9.5C8.67346 9.5 9.33347 9.58668 9.97347 9.76668C10.2401 9.84002 10.3934 10.1133 10.3201 10.38C10.2468 10.6467 9.97345 10.8 9.70679 10.7267C9.16012 10.5734 8.58679 10.5 8.00012 10.5C5.12012 10.5 2.77344 12.3667 2.77344 14.6667C2.77344 14.94 2.54677 15.1667 2.27344 15.1667Z" fill="#6CC24A"/>
<path d="M11.9987 15.1673C11.212 15.1673 10.4654 14.874 9.88538 14.3473C9.65204 14.1473 9.44536 13.9007 9.28536 13.6273C8.99203 13.1473 8.83203 12.5807 8.83203 12.0007C8.83203 11.1673 9.15205 10.3873 9.72538 9.79399C10.3254 9.17399 11.132 8.83398 11.9987 8.83398C12.9054 8.83398 13.7654 9.22066 14.3521 9.88733C14.8721 10.4673 15.1654 11.214 15.1654 12.0007C15.1654 12.254 15.132 12.5073 15.0653 12.7473C14.9987 13.0473 14.872 13.3607 14.6987 13.634C14.1454 14.5807 13.1054 15.1673 11.9987 15.1673ZM11.9987 9.83398C11.4054 9.83398 10.8587 10.0673 10.4454 10.4873C10.052 10.894 9.83203 11.4273 9.83203 12.0007C9.83203 12.394 9.93868 12.7806 10.1453 13.114C10.252 13.3006 10.392 13.4673 10.552 13.6073C10.952 13.974 11.4654 14.174 11.9987 14.174C12.752 14.174 13.4654 13.774 13.8521 13.1273C13.9654 12.9407 14.052 12.7273 14.0987 12.5207C14.1454 12.3473 14.1654 12.1807 14.1654 12.0073C14.1654 11.474 13.9653 10.9607 13.6053 10.5607C13.2053 10.094 12.6187 9.83398 11.9987 9.83398Z" fill="#6CC24A"/>
<path d="M13.0011 12.4863H11.0078C10.7345 12.4863 10.5078 12.2597 10.5078 11.9863C10.5078 11.713 10.7345 11.4863 11.0078 11.4863H13.0011C13.2745 11.4863 13.5011 11.713 13.5011 11.9863C13.5011 12.2597 13.2745 12.4863 13.0011 12.4863Z" fill="#6CC24A"/>
</svg>
