<svg width="20" height="20" viewBox="0 0 20 20" fill="none" xmlns="http://www.w3.org/2000/svg">
<path d="M9.9987 10.6248C7.35703 10.6248 5.20703 8.47484 5.20703 5.83317C5.20703 3.1915 7.35703 1.0415 9.9987 1.0415C12.6404 1.0415 14.7904 3.1915 14.7904 5.83317C14.7904 8.47484 12.6404 10.6248 9.9987 10.6248ZM9.9987 2.2915C8.0487 2.2915 6.45703 3.88317 6.45703 5.83317C6.45703 7.78317 8.0487 9.37484 9.9987 9.37484C11.9487 9.37484 13.5404 7.78317 13.5404 5.83317C13.5404 3.88317 11.9487 2.2915 9.9987 2.2915Z" fill="white"/>
<path d="M12.3334 12.6897L12.3334 12.6897L12.3362 12.6905C12.4 12.708 12.4393 12.7721 12.42 12.8424C12.4024 12.9063 12.3383 12.9456 12.268 12.9263L12.1354 13.4084L12.2704 12.9269C11.5394 12.7219 10.777 12.625 10.0021 12.625C6.23795 12.625 2.96875 15.0821 2.96875 18.3333C2.96875 18.3635 2.95647 18.3948 2.93082 18.4204C2.90518 18.446 2.8739 18.4583 2.84375 18.4583C2.8136 18.4583 2.78232 18.446 2.75668 18.4204C2.73103 18.3948 2.71875 18.3635 2.71875 18.3333C2.71875 15.1343 5.89531 12.375 10.0021 12.375C10.8005 12.375 11.5798 12.4777 12.3334 12.6897Z" fill="white" stroke="white"/>
<path d="M12.6905 17.5582L12.6957 17.563C13.3301 18.1391 14.1441 18.4582 15.0013 18.4582C16.211 18.4582 17.3446 17.8157 17.9446 16.7892L17.9492 16.7814L17.954 16.7737C18.139 16.482 18.2755 16.1444 18.3465 15.8247L18.3494 15.8119L18.3529 15.7993C18.4236 15.5448 18.4596 15.2733 18.4596 14.9998C18.4596 14.1424 18.1402 13.3272 17.5707 12.692L17.5676 12.6885L17.5676 12.6885C16.9308 11.9648 15.9933 11.5415 15.0013 11.5415C14.0524 11.5415 13.1741 11.9123 12.519 12.5891L12.6905 17.5582ZM12.6905 17.5582L12.685 17.5536M12.6905 17.5582L12.685 17.5536M12.685 17.5536C12.4358 17.3399 12.2132 17.0746 12.0411 16.7806L12.0412 16.7805M12.685 17.5536L12.0412 16.7805M12.0412 16.7805L12.0363 16.7724M12.0412 16.7805L12.0363 16.7724M12.0363 16.7724C11.7182 16.2519 11.543 15.634 11.543 14.9998M12.0363 16.7724L11.543 14.9998M11.543 14.9998C11.543 14.0892 11.8916 13.2385 12.5189 12.5892L11.543 14.9998ZM12.7033 12.7574L12.7033 12.7574L12.7003 12.7605C12.1196 13.3609 11.793 14.1518 11.793 14.9998C11.793 15.5785 11.9491 16.1507 12.255 16.6474C12.4163 16.9276 12.6247 17.1745 12.8593 17.3806C13.45 17.9201 14.2101 18.2165 15.0013 18.2165C16.1162 18.2165 17.1714 17.6264 17.7462 16.6662C17.9129 16.3913 18.0408 16.0787 18.1117 15.77C18.1804 15.5115 18.2096 15.2623 18.2096 15.0082C18.2096 14.2175 17.9137 13.4592 17.3853 12.8699C16.7865 12.174 15.9141 11.7915 15.0013 11.7915C14.1236 11.7915 13.3125 12.1384 12.7033 12.7574Z" fill="white" stroke="white"/>
<path d="M16.2495 15.1084H13.7578C13.7277 15.1084 13.6964 15.0961 13.6707 15.0705C13.6451 15.0448 13.6328 15.0135 13.6328 14.9834C13.6328 14.9533 13.6451 14.922 13.6707 14.8963C13.6964 14.8707 13.7277 14.8584 13.7578 14.8584H16.2495C16.2796 14.8584 16.3109 14.8707 16.3365 14.8963C16.3622 14.922 16.3745 14.9533 16.3745 14.9834C16.3745 15.0135 16.3622 15.0448 16.3365 15.0705C16.3109 15.0961 16.2796 15.1084 16.2495 15.1084Z" fill="white" stroke="white"/>
<path d="M15 16.8833C14.6583 16.8833 14.375 16.5999 14.375 16.2583V13.7666C14.375 13.4249 14.6583 13.1416 15 13.1416C15.3417 13.1416 15.625 13.4249 15.625 13.7666V16.2583C15.625 16.6083 15.3417 16.8833 15 16.8833Z" fill="white"/>
</svg>
