<svg width="18" height="17" viewBox="0 0 18 17" fill="none" xmlns="http://www.w3.org/2000/svg">
<path d="M0.9996 0.480016C0.988564 0.204094 0.755938 -0.0106373 0.480016 0.00039953C0.204094 0.0114364 -0.0106373 0.244062 0.00039953 0.519984L0.9996 0.480016ZM17.3536 13.3536C17.5488 13.1583 17.5488 12.8417 17.3536 12.6464L14.1716 9.46447C13.9763 9.2692 13.6597 9.2692 13.4645 9.46447C13.2692 9.65973 13.2692 9.97631 13.4645 10.1716L16.2929 13L13.4645 15.8284C13.2692 16.0237 13.2692 16.3403 13.4645 16.5355C13.6597 16.7308 13.9763 16.7308 14.1716 16.5355L17.3536 13.3536ZM0.00039953 0.519984C0.0881121 2.7128 1.0547 5.95795 3.65209 8.65907C6.26266 11.3739 10.4826 13.5 17 13.5V12.5C10.7174 12.5 6.77067 10.4595 4.37291 7.96593C1.96196 5.45871 1.07855 2.45387 0.9996 0.480016L0.00039953 0.519984Z" fill="#6CC24A"/>
</svg>
