<svg width="18" height="18" viewBox="0 0 18 18" fill="none" xmlns="http://www.w3.org/2000/svg">
<path d="M17.0004 0.980016C17.0114 0.704094 17.2441 0.489363 17.52 0.5004C17.7959 0.511436 18.0106 0.744062 17.9996 1.01998L17.0004 0.980016ZM0.646446 13.8536C0.451185 13.6583 0.451185 13.3417 0.646446 13.1464L3.82843 9.96447C4.02369 9.7692 4.34027 9.7692 4.53553 9.96447C4.7308 10.1597 4.7308 10.4763 4.53553 10.6716L1.70711 13.5L4.53553 16.3284C4.7308 16.5237 4.7308 16.8403 4.53553 17.0355C4.34027 17.2308 4.02369 17.2308 3.82843 17.0355L0.646446 13.8536ZM17.9996 1.01998C17.9119 3.2128 16.9453 6.45795 14.3479 9.15907C11.7373 11.8739 7.51745 14 1 14V13C7.28255 13 11.2293 10.9595 13.6271 8.46593C16.038 5.95871 16.9214 2.95387 17.0004 0.980016L17.9996 1.01998Z" fill="#6CC24A"/>
</svg>
