<svg width="18" height="18" viewBox="0 0 18 18" fill="none" xmlns="http://www.w3.org/2000/svg">
<path opacity="0.4" d="M15.6275 6.36245V11.4332C15.6275 12.2635 15.1827 13.0346 14.4636 13.4571L10.06 15.9999C9.34086 16.4151 8.45125 16.4151 7.72473 15.9999L3.32114 13.4571C2.60204 13.042 2.15723 12.2709 2.15723 11.4332V6.36245C2.15723 5.53214 2.60204 4.76111 3.32114 4.33855L7.72473 1.79574C8.44384 1.38059 9.33345 1.38059 10.06 1.79574L14.4636 4.33855C15.1827 4.76111 15.6275 5.52473 15.6275 6.36245Z" fill="#FC5474"/>
<path d="M7.22803 8.89768V8.00805C7.22803 6.86638 8.0361 6.39936 9.02209 6.9702L9.79307 7.41499L10.5641 7.85977C11.5501 8.43061 11.5501 9.36474 10.5641 9.93558L9.79307 10.3804L9.02209 10.8252C8.0361 11.396 7.22803 10.929 7.22803 9.7873V8.89768Z" fill="#FC5474"/>
</svg>
