<svg width="16" height="16" viewBox="0 0 16 16" fill="none" xmlns="http://www.w3.org/2000/svg">
<path d="M4.78019 15.1658C3.19353 15.1658 1.89355 14.0124 1.89355 12.5924V11.2324C1.89355 10.9591 2.12022 10.7324 2.39355 10.7324C2.66689 10.7324 2.89355 10.9591 2.89355 11.2324C2.89355 12.0658 3.70019 12.6924 4.78019 12.6924C5.86019 12.6924 6.66687 12.0658 6.66687 11.2324C6.66687 10.9591 6.89354 10.7324 7.16687 10.7324C7.4402 10.7324 7.66687 10.9591 7.66687 11.2324V12.5924C7.66687 14.0124 6.37353 15.1658 4.78019 15.1658ZM3.06685 13.2458C3.36019 13.7924 4.02019 14.1658 4.78019 14.1658C5.54019 14.1658 6.2002 13.7858 6.49353 13.2458C6.0202 13.5324 5.43353 13.6991 4.78019 13.6991C4.12686 13.6991 3.54019 13.5324 3.06685 13.2458Z" fill="#005F73"/>
<path d="M4.78019 11.8663C3.68686 11.8663 2.70688 11.3663 2.22021 10.573C2.00688 10.2263 1.89355 9.81963 1.89355 9.40629C1.89355 8.70629 2.20021 8.05295 2.76021 7.56629C3.84021 6.61962 5.7002 6.61965 6.78687 7.55965C7.34687 8.05299 7.6602 8.70629 7.6602 9.40629C7.6602 9.81963 7.54687 10.2263 7.33354 10.573C6.85354 11.3663 5.87353 11.8663 4.78019 11.8663ZM4.78019 7.83297C4.26019 7.83297 3.78021 8.00629 3.42021 8.31962C3.08021 8.61296 2.89355 8.99963 2.89355 9.40629C2.89355 9.63963 2.95353 9.85298 3.07353 10.053C3.38019 10.5596 4.03353 10.873 4.78019 10.873C5.52686 10.873 6.18018 10.5597 6.48018 10.0597C6.60018 9.86632 6.6602 9.6463 6.6602 9.41297C6.6602 9.0063 6.47355 8.61962 6.13355 8.31962C5.78021 8.00629 5.30019 7.83297 4.78019 7.83297Z" fill="#005F73"/>
<path d="M4.78019 13.7006C3.13353 13.7006 1.89355 12.6406 1.89355 11.2406V9.40731C1.89355 7.98731 3.18686 6.83398 4.78019 6.83398C5.53353 6.83398 6.25354 7.094 6.79354 7.56067C7.35354 8.054 7.66687 8.70731 7.66687 9.40731V11.2406C7.66687 12.6406 6.42686 13.7006 4.78019 13.7006ZM4.78019 7.83398C3.74019 7.83398 2.89355 8.54064 2.89355 9.40731V11.2406C2.89355 12.074 3.70019 12.7006 4.78019 12.7006C5.86019 12.7006 6.66687 12.074 6.66687 11.2406V9.40731C6.66687 9.00064 6.48022 8.61396 6.14022 8.31396C5.78022 8.0073 5.30019 7.83398 4.78019 7.83398Z" fill="#005F73"/>
<path d="M12.6936 9.86613C11.6869 9.86613 10.8336 9.11946 10.7536 8.15946C10.7003 7.60613 10.9003 7.06614 11.3003 6.67281C11.6336 6.32614 12.1069 6.13281 12.6069 6.13281H14.0003C14.6603 6.15281 15.1669 6.67278 15.1669 7.31278V8.68616C15.1669 9.32616 14.6603 9.84613 14.0203 9.86613H12.6936ZM13.9802 7.13281H12.6136C12.3803 7.13281 12.1669 7.21948 12.0136 7.37948C11.8203 7.56614 11.7269 7.81946 11.7536 8.07279C11.7869 8.51279 12.2136 8.86613 12.6936 8.86613H14.0003C14.0869 8.86613 14.1669 8.78616 14.1669 8.68616V7.31278C14.1669 7.21278 14.0869 7.13948 13.9802 7.13281Z" fill="#005F73"/>
<path d="M10.6672 14.1673H9.00049C8.72716 14.1673 8.50049 13.9407 8.50049 13.6673C8.50049 13.394 8.72716 13.1673 9.00049 13.1673H10.6672C12.3872 13.1673 13.5005 12.054 13.5005 10.334V9.86731H12.6938C11.6871 9.86731 10.8338 9.12064 10.7538 8.16064C10.7005 7.60731 10.9005 7.06732 11.3005 6.67399C11.6338 6.32732 12.1071 6.13399 12.6071 6.13399H13.4938V5.66732C13.4938 4.10732 12.5805 3.03397 11.1005 2.86064C10.9405 2.83397 10.8005 2.83398 10.6605 2.83398H4.66048C4.50048 2.83398 4.34714 2.84731 4.19381 2.86731C2.72714 3.05398 1.82715 4.12065 1.82715 5.66732V7.00065C1.82715 7.27398 1.60048 7.50065 1.32715 7.50065C1.05382 7.50065 0.827148 7.27398 0.827148 7.00065V5.66732C0.827148 3.61398 2.09384 2.12732 4.06051 1.88066C4.24051 1.85399 4.44715 1.83398 4.66048 1.83398H10.6605C10.8205 1.83398 11.0271 1.84065 11.2405 1.87398C13.2071 2.10065 14.4938 3.59398 14.4938 5.66732V6.63399C14.4938 6.90733 14.2671 7.13399 13.9938 7.13399H12.6071C12.3738 7.13399 12.1605 7.22066 12.0072 7.38066C11.8138 7.56732 11.7205 7.82064 11.7472 8.07397C11.7805 8.51397 12.2072 8.86731 12.6872 8.86731H14.0005C14.2738 8.86731 14.5005 9.09398 14.5005 9.36731V10.334C14.5005 12.6273 12.9605 14.1673 10.6672 14.1673Z" fill="#005F73"/>
</svg>
