<svg width="11" height="10" viewBox="0 0 11 10" fill="none" xmlns="http://www.w3.org/2000/svg">
<path d="M5.5 0C2.745 0 0.5 2.245 0.5 5C0.5 7.755 2.745 10 5.5 10C8.255 10 10.5 7.755 10.5 5C10.5 2.245 8.255 0 5.5 0ZM5.125 3C5.125 2.795 5.295 2.625 5.5 2.625C5.705 2.625 5.875 2.795 5.875 3V5.5C5.875 5.705 5.705 5.875 5.5 5.875C5.295 5.875 5.125 5.705 5.125 5.5V3ZM5.96 7.19C5.935 7.255 5.9 7.305 5.855 7.355C5.805 7.4 5.75 7.435 5.69 7.46C5.63 7.485 5.565 7.5 5.5 7.5C5.435 7.5 5.37 7.485 5.31 7.46C5.25 7.435 5.195 7.4 5.145 7.355C5.1 7.305 5.065 7.255 5.04 7.19C5.015 7.13 5 7.065 5 7C5 6.935 5.015 6.87 5.04 6.81C5.065 6.75 5.1 6.695 5.145 6.645C5.195 6.6 5.25 6.565 5.31 6.54C5.43 6.49 5.57 6.49 5.69 6.54C5.75 6.565 5.805 6.6 5.855 6.645C5.9 6.695 5.935 6.75 5.96 6.81C5.985 6.87 6 6.935 6 7C6 7.065 5.985 7.13 5.96 7.19Z" fill="#FFBD59"/>
</svg>
