<svg width="16" height="16" viewBox="0 0 16 16" fill="none" xmlns="http://www.w3.org/2000/svg">
<path d="M10.6663 2.5H5.33301C5.05967 2.5 4.83301 2.27333 4.83301 2C4.83301 1.72667 5.05967 1.5 5.33301 1.5H10.6663C10.9397 1.5 11.1663 1.72667 11.1663 2C11.1663 2.27333 10.9397 2.5 10.6663 2.5Z" fill="#4C88FF"/>
<path d="M10.6663 14.5H5.33301C5.05967 14.5 4.83301 14.2733 4.83301 14C4.83301 13.7267 5.05967 13.5 5.33301 13.5H10.6663C10.9397 13.5 11.1663 13.7267 11.1663 14C11.1663 14.2733 10.9397 14.5 10.6663 14.5Z" fill="#4C88FF"/>
<path d="M10.333 3.33325H5.66634C4.11301 3.33325 3.33301 4.11325 3.33301 5.66659V10.3333C3.33301 11.8866 4.11301 12.6666 5.66634 12.6666H10.333C11.8863 12.6666 12.6663 11.8866 12.6663 10.3333V5.66659C12.6663 4.11325 11.8863 3.33325 10.333 3.33325ZM6.49967 9.33325C6.49967 9.60659 6.27301 9.83325 5.99967 9.83325C5.72634 9.83325 5.49967 9.61325 5.49967 9.33325V8.66659C5.49967 8.39325 5.72634 8.16659 5.99967 8.16659C6.27301 8.16659 6.49967 8.39325 6.49967 8.66659V9.33325ZM8.49967 9.33325C8.49967 9.60659 8.27301 9.83325 7.99967 9.83325C7.72634 9.83325 7.49967 9.60659 7.49967 9.33325V6.66659C7.49967 6.39325 7.72634 6.16659 7.99967 6.16659C8.27301 6.16659 8.49967 6.39325 8.49967 6.66659V9.33325ZM10.4997 9.33325C10.4997 9.60659 10.273 9.83325 9.99967 9.83325C9.72634 9.83325 9.49967 9.60659 9.49967 9.33325V7.99992C9.49967 7.72659 9.72634 7.49992 9.99967 7.49992C10.273 7.49992 10.4997 7.72659 10.4997 7.99992V9.33325Z" fill="#4C88FF"/>
</svg>
