<svg width="17" height="17" viewBox="0 0 17 17" fill="none" xmlns="http://www.w3.org/2000/svg">
<path d="M12.0404 4.16797C10.9252 4.16797 9.59473 4.59188 9.59473 6.61362V10.5267C9.59473 12.5484 10.9252 12.9723 12.0404 12.9723C13.1556 12.9723 14.486 12.5484 14.486 10.5267V6.61362C14.486 4.59188 13.1556 4.16797 12.0404 4.16797Z" fill="#6CC24A"/>
<path d="M5.28354 4.16797C4.16833 4.16797 2.83789 4.59188 2.83789 6.61362V10.5267C2.83789 12.5484 4.16833 12.9723 5.28354 12.9723C6.39876 12.9723 7.7292 12.5484 7.7292 10.5267V6.61362C7.7292 4.59188 6.39876 4.16797 5.28354 4.16797Z" fill="#6CC24A"/>
<path d="M9.59471 8.07812H7.72949V9.05639H9.59471V8.07812Z" fill="#6CC24A"/>
<path d="M15.5096 10.6883C15.2422 10.6883 15.0205 10.4666 15.0205 10.1992V6.93835C15.0205 6.67096 15.2422 6.44922 15.5096 6.44922C15.777 6.44922 15.9988 6.67096 15.9988 6.93835V10.1992C15.9988 10.4666 15.777 10.6883 15.5096 10.6883Z" fill="#6CC24A"/>
<path d="M1.81433 10.6883C1.54693 10.6883 1.3252 10.4666 1.3252 10.1992V6.93835C1.3252 6.67096 1.54693 6.44922 1.81433 6.44922C2.08172 6.44922 2.30346 6.67096 2.30346 6.93835V10.1992C2.30346 10.4666 2.08172 10.6883 1.81433 10.6883Z" fill="#6CC24A"/>
</svg>
