<svg width="34" height="6" viewBox="0 0 34 6" fill="none" xmlns="http://www.w3.org/2000/svg">
<path fill-rule="evenodd" clip-rule="evenodd" d="M22.9002 0.0117188H30.1497C30.7602 0.0117188 30.9816 0.0752841 31.2048 0.194647C31.428 0.314009 31.6031 0.489169 31.7225 0.712357C31.8418 0.935545 31.9054 1.15693 31.9054 1.76742V3.88101C31.9054 4.49151 31.8418 4.71289 31.7225 4.93608C31.6031 5.15927 31.428 5.33443 31.2048 5.45379C30.9816 5.57315 30.7602 5.63672 30.1497 5.63672H22.9002C22.2897 5.63672 22.0684 5.57315 21.8452 5.45379C21.622 5.33443 21.4468 5.15927 21.3275 4.93608C21.2081 4.71289 21.1445 4.49151 21.1445 3.88101V1.76742C21.1445 1.15693 21.2081 0.935545 21.3275 0.712357C21.4468 0.489169 21.622 0.314009 21.8452 0.194647C22.0684 0.0752841 22.2897 0.0117188 22.9002 0.0117188ZM22.9002 0.500849C22.4175 0.500849 22.2489 0.533394 22.0758 0.625968C21.9379 0.699744 21.8326 0.805082 21.7588 0.94303C21.6662 1.11613 21.6337 1.28466 21.6337 1.76742V3.88101C21.6337 4.36378 21.6662 4.53231 21.7588 4.70541C21.8326 4.84336 21.9379 4.94869 22.0758 5.02247C22.2489 5.11504 22.4175 5.14759 22.9002 5.14759H30.1497C30.6325 5.14759 30.801 5.11504 30.9741 5.02247C31.112 4.94869 31.2174 4.84336 31.2912 4.70541C31.3837 4.53231 31.4163 4.36378 31.4163 3.88101V1.76742C31.4163 1.28466 31.3837 1.11613 31.2912 0.94303C31.2174 0.805082 31.112 0.699744 30.9741 0.625968C30.801 0.533394 30.6325 0.500849 30.1497 0.500849H22.9002ZM33.1299 2.79331C33.1299 3.39815 32.3962 3.77157 32.3962 3.77157V1.81505C32.3962 1.81505 33.1299 2.18846 33.1299 2.79331Z" fill="#383838"/>
<rect x="22.126" y="0.949219" width="8.80435" height="3.75" rx="0.782609" fill="#383838"/>
<path fill-rule="evenodd" clip-rule="evenodd" d="M7.26935 0.699009C7.25807 0.755709 7.25807 0.823892 7.25807 0.960259V4.72656C7.25807 4.86293 7.25807 4.93111 7.26935 4.98781C7.31566 5.22065 7.49767 5.40267 7.73051 5.44898C7.78721 5.46026 7.8554 5.46026 7.99176 5.46026C8.12813 5.46026 8.19631 5.46026 8.25301 5.44898C8.48585 5.40267 8.66787 5.22065 8.71418 4.98781C8.72546 4.93111 8.72546 4.86293 8.72546 4.72656V0.960258C8.72546 0.823892 8.72546 0.755709 8.71418 0.699009C8.66787 0.466169 8.48585 0.284156 8.25301 0.237841C8.19631 0.226562 8.12813 0.226562 7.99176 0.226562C7.8554 0.226562 7.78721 0.226562 7.73051 0.237841C7.49767 0.284156 7.31566 0.466169 7.26935 0.699009ZM4.95915 2.13417C4.95915 1.9978 4.95915 1.92962 4.97043 1.87292C5.01675 1.64008 5.19876 1.45807 5.4316 1.41175C5.4883 1.40048 5.55648 1.40048 5.69285 1.40048C5.82922 1.40048 5.8974 1.40048 5.9541 1.41175C6.18694 1.45807 6.36895 1.64008 6.41527 1.87292C6.42655 1.92962 6.42655 1.9978 6.42655 2.13417V4.72656C6.42655 4.86293 6.42655 4.93111 6.41527 4.98781C6.36895 5.22065 6.18694 5.40267 5.9541 5.44898C5.8974 5.46026 5.82922 5.46026 5.69285 5.46026C5.55648 5.46026 5.4883 5.46026 5.4316 5.44898C5.19876 5.40267 5.01675 5.22065 4.97043 4.98781C4.95915 4.93111 4.95915 4.86293 4.95915 4.72656V2.13417ZM2.72043 2.99792C2.70915 3.05462 2.70915 3.1228 2.70915 3.25917V4.72656C2.70915 4.86293 2.70915 4.93111 2.72043 4.98781C2.76675 5.22065 2.94876 5.40267 3.1816 5.44898C3.2383 5.46026 3.30648 5.46026 3.44285 5.46026C3.57922 5.46026 3.6474 5.46026 3.7041 5.44898C3.93694 5.40267 4.11895 5.22065 4.16527 4.98781C4.17655 4.93111 4.17655 4.86293 4.17655 4.72656V3.25917C4.17655 3.1228 4.17655 3.05462 4.16527 2.99792C4.11895 2.76508 3.93694 2.58307 3.7041 2.53675C3.6474 2.52548 3.57922 2.52548 3.44285 2.52548C3.30648 2.52548 3.2383 2.52548 3.1816 2.53675C2.94876 2.58307 2.76675 2.76508 2.72043 2.99792ZM0.372606 3.97618C0.361328 4.03288 0.361328 4.10107 0.361328 4.23743V4.72656C0.361328 4.86293 0.361328 4.93111 0.372606 4.98781C0.418921 5.22065 0.600935 5.40267 0.833775 5.44898C0.890474 5.46026 0.958658 5.46026 1.09502 5.46026C1.23139 5.46026 1.29957 5.46026 1.35627 5.44898C1.58911 5.40267 1.77113 5.22065 1.81744 4.98781C1.82872 4.93111 1.82872 4.86293 1.82872 4.72656V4.23743C1.82872 4.10107 1.82872 4.03288 1.81744 3.97618C1.77113 3.74334 1.58911 3.56133 1.35627 3.51501C1.29957 3.50374 1.23139 3.50374 1.09502 3.50374C0.958658 3.50374 0.890474 3.50374 0.833775 3.51501C0.600935 3.56133 0.418921 3.74334 0.372606 3.97618Z" fill="#383838"/>
<path fill-rule="evenodd" clip-rule="evenodd" d="M14.9384 1.24822C16.0313 1.24827 17.0824 1.66821 17.8745 2.42126C17.9342 2.47939 18.0295 2.47866 18.0882 2.41961L18.6584 1.84419C18.6881 1.81424 18.7047 1.77367 18.7045 1.73146C18.7042 1.68925 18.6872 1.64888 18.6571 1.61928C16.5781 -0.373095 13.2983 -0.373095 11.2194 1.61928C11.1892 1.64886 11.1722 1.68922 11.1719 1.73143C11.1716 1.77364 11.1882 1.81422 11.2179 1.84419L11.7882 2.41961C11.8469 2.47875 11.9423 2.47948 12.0019 2.42126C12.7941 1.66816 13.8454 1.24822 14.9384 1.24822ZM14.9373 3.11994C15.5378 3.11991 16.1169 3.34311 16.562 3.74617C16.6222 3.80337 16.717 3.80213 16.7757 3.74337L17.3452 3.16795C17.3752 3.13777 17.3918 3.09682 17.3914 3.05428C17.391 3.01173 17.3735 2.97113 17.3429 2.94156C15.9874 1.68071 13.8883 1.68071 12.5329 2.94156C12.5023 2.97113 12.4848 3.01175 12.4844 3.05431C12.484 3.09687 12.5007 3.13781 12.5307 3.16795L13.1001 3.74337C13.1588 3.80213 13.2536 3.80337 13.3138 3.74617C13.7586 3.34337 14.3372 3.12019 14.9373 3.11994ZM16.0323 4.49338C16.0627 4.46349 16.0795 4.42235 16.0786 4.37969C16.0777 4.33702 16.0593 4.2966 16.0277 4.26798C15.3985 3.73585 14.4771 3.73585 13.848 4.26798C13.8163 4.29658 13.7978 4.33698 13.7969 4.37965C13.796 4.42232 13.8128 4.46347 13.8432 4.49338L14.8285 5.48754C14.8574 5.51676 14.8967 5.5332 14.9378 5.5332C14.9789 5.5332 15.0183 5.51676 15.0471 5.48754L16.0323 4.49338Z" fill="#383838"/>
</svg>
