<svg width="20" height="20" viewBox="0 0 20 20" fill="none" xmlns="http://www.w3.org/2000/svg">
<path d="M5.7334 15.7499C5.39173 15.7499 5.1084 15.4666 5.1084 15.1249V13.3999C5.1084 13.0582 5.39173 12.7749 5.7334 12.7749C6.07507 12.7749 6.3584 13.0582 6.3584 13.3999V15.1249C6.3584 15.4749 6.07507 15.7499 5.7334 15.7499Z" fill="#6CC24A"/>
<path d="M10 15.7498C9.65833 15.7498 9.375 15.4665 9.375 15.1248V11.6665C9.375 11.3248 9.65833 11.0415 10 11.0415C10.3417 11.0415 10.625 11.3248 10.625 11.6665V15.1248C10.625 15.4748 10.3417 15.7498 10 15.7498Z" fill="#6CC24A"/>
<path d="M14.2666 15.7502C13.9249 15.7502 13.6416 15.4669 13.6416 15.1252V9.94189C13.6416 9.60023 13.9249 9.31689 14.2666 9.31689C14.6083 9.31689 14.8916 9.60023 14.8916 9.94189V15.1252C14.8916 15.4752 14.6166 15.7502 14.2666 15.7502Z" fill="#6CC24A"/>
<path d="M5.73364 10.9832C5.45031 10.9832 5.20031 10.7915 5.12531 10.5082C5.04197 10.1749 5.24197 9.83318 5.58364 9.74985C8.65031 8.98318 11.3503 7.30818 13.4086 4.91652L13.792 4.46652C14.017 4.20819 14.4086 4.17485 14.6753 4.39985C14.9336 4.62485 14.967 5.01652 14.742 5.28318L14.3586 5.73318C12.1336 8.33318 9.2003 10.1415 5.88364 10.9665C5.83364 10.9832 5.78364 10.9832 5.73364 10.9832Z" fill="#6CC24A"/>
<path d="M14.2669 7.93333C13.9252 7.93333 13.6419 7.65 13.6419 7.30833V5.5H11.8252C11.4835 5.5 11.2002 5.21667 11.2002 4.875C11.2002 4.53333 11.4835 4.25 11.8252 4.25H14.2669C14.6085 4.25 14.8919 4.53333 14.8919 4.875V7.31667C14.8919 7.65833 14.6169 7.93333 14.2669 7.93333Z" fill="#6CC24A"/>
<path d="M12.5003 18.9582H7.50033C2.97533 18.9582 1.04199 17.0248 1.04199 12.4998V7.49984C1.04199 2.97484 2.97533 1.0415 7.50033 1.0415H12.5003C17.0253 1.0415 18.9587 2.97484 18.9587 7.49984V12.4998C18.9587 17.0248 17.0253 18.9582 12.5003 18.9582ZM7.50033 2.2915C3.65866 2.2915 2.29199 3.65817 2.29199 7.49984V12.4998C2.29199 16.3415 3.65866 17.7082 7.50033 17.7082H12.5003C16.342 17.7082 17.7087 16.3415 17.7087 12.4998V7.49984C17.7087 3.65817 16.342 2.2915 12.5003 2.2915H7.50033Z" fill="#6CC24A"/>
</svg>
