<svg width="595" height="277" viewBox="0 0 595 277" fill="none" xmlns="http://www.w3.org/2000/svg">
<g clip-path="url(#clip0_5666_284085)">
<rect width="595" height="277" fill="#E9F0F2"/>
<path d="M596.813 -13.0849L572.966 -6.01489L601.674 11.6435L596.813 -13.0849Z" fill="#EDEDED"/>
<path d="M597.048 -12.8448L573.201 -5.77481L568.34 -30.5034L597.048 -12.8448Z" fill="#F7F8F8"/>
<path d="M625.286 4.33294L601.439 11.4027L596.578 -13.3257L625.286 4.33294Z" fill="white"/>
<path d="M544.493 -22.4713L520.644 -15.4004L549.353 2.25829L544.493 -22.4718L544.493 -22.4713Z" fill="white"/>
<path d="M572.729 -5.2936L548.881 1.77736L577.589 19.436L572.729 -5.29409L572.729 -5.2936Z" fill="#F7F7F7"/>
<path d="M572.966 -5.05331L549.117 2.01766L544.258 -22.7124L572.966 -5.0538L572.966 -5.05331Z" fill="#E7E7E7"/>
<path d="M600.967 11.8844L577.119 18.9556L605.827 36.6142L600.967 11.8839L600.967 11.8844Z" fill="white"/>
<path d="M601.202 12.1247L577.354 19.1959L572.494 -5.53418L601.202 12.1242L601.202 12.1247Z" fill="#F7F7F7"/>
<path d="M629.439 29.3022L605.591 36.3734L600.73 11.6431L629.439 29.3017L629.439 29.3022Z" fill="#E7E7E7"/>
<path d="M520.409 -14.6791L496.561 -7.60839L525.269 10.0503L520.408 -14.6784L520.409 -14.6791Z" fill="#EDEDED"/>
<path d="M520.646 -14.4386L496.798 -7.36787L491.937 -32.0964L520.645 -14.4379L520.646 -14.4386Z" fill="#EAEAEA"/>
<path d="M548.645 2.4981L524.797 9.56886L553.506 27.2275L548.644 2.49882L548.645 2.4981Z" fill="#E7E7E7"/>
<path d="M548.882 2.73823L525.035 9.809L520.173 -14.9197L548.882 2.73896L548.882 2.73823Z" fill="#EAEAEA"/>
<path d="M576.883 19.6759L553.036 26.7466L581.744 44.405L576.883 19.6766L576.883 19.6759Z" fill="#EAEAEA"/>
<path d="M577.119 19.9165L553.271 26.9872L548.41 2.25854L577.118 19.9172L577.119 19.9165Z" fill="#F7F7F7"/>
<path d="M605.12 36.8539L581.272 43.9243L609.98 61.583L605.12 36.8546L605.12 36.8539Z" fill="white"/>
<path d="M605.355 37.0937L581.507 44.1642L576.646 19.4358L605.354 37.0944L605.355 37.0937Z" fill="#F7F7F7"/>
<path d="M468.089 -24.0651L444.241 -16.9951L472.949 0.66359L468.089 -24.0651Z" fill="white"/>
<path d="M496.325 -6.88791L472.477 0.182143L501.186 17.8407L496.325 -6.88791Z" fill="#F7F8F8"/>
<path d="M496.562 -6.64654L472.714 0.42351L467.854 -24.3052L496.562 -6.64654Z" fill="#EAEAEA"/>
<path d="M524.562 10.2899L500.714 17.3599L529.422 35.0185L524.562 10.2899Z" fill="#EDEDED"/>
<path d="M524.8 10.5308L500.952 17.6007L496.092 -7.12793L524.8 10.5308Z" fill="#EAEAEA"/>
<path d="M552.8 27.4681L528.952 34.5381L557.66 52.1967L552.8 27.4681Z" fill="white"/>
<path d="M553.034 27.7084L529.187 34.7784L524.326 10.0498L553.034 27.7084Z" fill="#EDEDED"/>
<path d="M581.038 44.6461L557.19 51.7163L585.899 69.3749L581.038 44.6461Z" fill="#EDEDED"/>
<path d="M581.272 44.8859L557.425 51.9562L552.564 27.2275L581.272 44.8859Z" fill="#EAEAEA"/>
<path d="M609.274 61.8229L585.426 68.8931L614.135 86.5517L609.274 61.8229Z" fill="#F7F8F8"/>
<path d="M609.509 62.0644L585.662 69.1346L580.801 44.4058L609.509 62.0644Z" fill="#EAEAEA"/>
<path d="M444.004 -16.2741L420.156 -9.20287L448.865 8.45578L444.004 -16.2743L444.004 -16.2741Z" fill="#F7F8F8"/>
<path d="M472.243 0.904702L448.395 7.97585L477.103 25.6345L472.243 0.904465L472.243 0.904702Z" fill="#EAEAEA"/>
<path d="M472.478 1.14479L448.63 8.21593L443.77 -16.5142L472.478 1.14455L472.478 1.14479Z" fill="#F7F8F8"/>
<path d="M500.479 18.0814L476.631 25.1526L505.339 42.8113L500.479 18.0812L500.479 18.0814Z" fill="#EDEDED"/>
<path d="M500.714 18.3224L476.866 25.3936L472.006 0.663574L500.714 18.3222L500.714 18.3224Z" fill="#EDEDED"/>
<path d="M528.715 35.2591L504.867 42.3303L533.575 59.9889L528.715 35.2588L528.715 35.2591Z" fill="#EDEDED"/>
<path d="M528.952 35.4992L505.104 42.5705L500.244 17.8403L528.953 35.499L528.952 35.4992Z" fill="#F7F7F7"/>
<path d="M556.953 52.4369L533.105 59.5081L561.813 77.1665L556.954 52.4366L556.953 52.4369Z" fill="#EDEDED"/>
<path d="M557.189 52.6774L533.341 59.7486L528.48 35.0186L557.189 52.6772L557.189 52.6774Z" fill="white"/>
<path d="M585.19 69.6148L561.342 76.6858L590.05 94.3445L585.19 69.6146L585.19 69.6148Z" fill="#EAEAEA"/>
<path d="M585.427 69.8552L561.579 76.9261L556.719 52.1963L585.427 69.8549L585.427 69.8552Z" fill="#EDEDED"/>
<path d="M613.427 86.7931L589.578 93.864L618.287 111.523L613.427 86.7928L613.427 86.7931Z" fill="#EDEDED"/>
<path d="M613.661 87.0334L589.813 94.1044L584.953 69.3745L613.662 87.0332L613.661 87.0334Z" fill="#F7F8F8"/>
<path d="M419.922 -8.48231L396.074 -1.41136L424.782 16.2471L419.922 -8.48159L419.922 -8.48231Z" fill="#EDEDED"/>
<path d="M420.158 -8.24174L396.31 -1.17079L391.449 -25.8997L420.157 -8.24102L420.158 -8.24174Z" fill="#F7F7F7"/>
<path d="M448.159 8.69565L424.311 15.7664L453.019 33.4251L448.159 8.69637L448.159 8.69565Z" fill="#E7E7E7"/>
<path d="M448.394 8.93599L424.546 16.0067L419.685 -8.72193L448.394 8.93671L448.394 8.93599Z" fill="#F7F7F7"/>
<path d="M476.395 25.8738L452.547 32.9446L481.255 50.6032L476.395 25.8745L476.395 25.8738Z" fill="#EDEDED"/>
<path d="M476.63 26.1142L452.782 33.185L447.921 8.45629L476.63 26.1149L476.63 26.1142Z" fill="#EAEAEA"/>
<path d="M504.632 43.0517L480.783 50.1223L509.492 67.781L504.631 43.0524L504.632 43.0517Z" fill="#EDEDED"/>
<path d="M504.869 43.292L481.02 50.3627L476.16 25.634L504.868 43.2927L504.869 43.292Z" fill="#F7F7F7"/>
<path d="M532.87 60.2289L509.022 67.2996L537.73 84.9582L532.87 60.2296L532.87 60.2289Z" fill="white"/>
<path d="M533.105 60.4691L509.257 67.5399L504.396 42.8113L533.104 60.4699L533.105 60.4691Z" fill="#EDEDED"/>
<path d="M561.106 77.4063L537.258 84.4773L565.966 102.136L561.106 77.4071L561.106 77.4063Z" fill="#E7E7E7"/>
<path d="M561.343 77.6467L537.495 84.7177L532.634 59.989L561.342 77.6474L561.343 77.6467Z" fill="white"/>
<path d="M589.342 94.5841L565.494 101.655L594.203 119.314L589.342 94.5848L589.342 94.5841Z" fill="#EDEDED"/>
<path d="M589.579 94.8247L565.732 101.896L560.871 77.1667L589.579 94.8254L589.579 94.8247Z" fill="#F7F7F7"/>
<path d="M617.581 111.762L593.733 118.833L622.441 136.491L617.58 111.763L617.581 111.762Z" fill="#F7F8F8"/>
<path d="M617.816 112.002L593.968 119.073L589.107 94.3445L617.815 112.003L617.816 112.002Z" fill="#E7E7E7"/>
<path d="M367.6 -17.8678L343.753 -10.7978L372.461 6.86079L367.6 -17.8676L367.6 -17.8678Z" fill="white"/>
<path d="M395.839 -0.68961L371.991 6.38038L400.699 24.039L395.839 -0.689366L395.839 -0.68961Z" fill="#EAEAEA"/>
<path d="M396.076 -0.449767L372.228 6.62022L367.367 -18.1082L396.075 -0.449523L396.076 -0.449767Z" fill="#EDEDED"/>
<path d="M424.075 16.4879L400.227 23.5581L428.936 41.2167L424.075 16.4881L424.075 16.4879Z" fill="#EDEDED"/>
<path d="M424.31 16.7282L400.462 23.7985L395.601 -0.929932L424.309 16.7285L424.31 16.7282Z" fill="#F7F7F7"/>
<path d="M452.313 33.6652L428.466 40.7354L457.174 58.394L452.313 33.6654L452.313 33.6652Z" fill="#EDEDED"/>
<path d="M452.548 33.9063L428.701 40.9764L423.84 16.2478L452.548 33.9065L452.548 33.9063Z" fill="#E7E7E7"/>
<path d="M480.549 50.8429L456.702 57.9131L485.41 75.5718L480.549 50.8431L480.549 50.8429Z" fill="#EDEDED"/>
<path d="M480.784 51.0834L456.937 58.1536L452.076 33.425L480.784 51.0836L480.784 51.0834Z" fill="#EDEDED"/>
<path d="M508.786 68.021L484.938 75.0913L513.646 92.7499L508.785 68.0213L508.786 68.021Z" fill="#EDEDED"/>
<path d="M509.021 68.2607L485.174 75.331L480.312 50.6023L509.021 68.2609L509.021 68.2607Z" fill="#F7F8F8"/>
<path d="M537.022 85.1983L513.175 92.2686L541.883 109.927L537.022 85.1986L537.022 85.1983Z" fill="#EDEDED"/>
<path d="M537.259 85.4394L513.412 92.5096L508.551 67.781L537.259 85.4396L537.259 85.4394Z" fill="#F7F7F7"/>
<path d="M565.259 102.376L541.411 109.446L570.119 127.104L565.259 102.376L565.259 102.376Z" fill="#F7F8F8"/>
<path d="M565.495 102.617L541.648 109.687L536.787 84.9583L565.495 102.617L565.495 102.617Z" fill="#EAEAEA"/>
<path d="M593.497 119.555L569.649 126.625L598.358 144.283L593.497 119.555L593.497 119.555Z" fill="#F7F8F8"/>
<path d="M593.734 119.794L569.886 126.864L565.025 102.136L593.734 119.795L593.734 119.794Z" fill="#F7F8F8"/>
<path d="M621.97 136.973L598.122 144.043L593.262 119.314L621.97 136.973L621.97 136.973Z" fill="#EDEDED"/>
<path d="M343.518 -10.0768L319.671 -3.00682L348.379 14.6518L343.518 -10.0771L343.518 -10.0768Z" fill="#EDEDED"/>
<path d="M343.753 -9.83574L319.906 -2.76576L315.045 -27.4946L343.753 -9.83599L343.753 -9.83574Z" fill="#F7F7F7"/>
<path d="M371.756 7.10093L347.909 14.1709L376.617 31.8295L371.756 7.10068L371.756 7.10093Z" fill="#EDEDED"/>
<path d="M371.989 7.3415L348.142 14.4115L343.281 -10.3174L371.99 7.34125L371.989 7.3415Z" fill="white"/>
<path d="M399.991 24.2792L376.143 31.3491L404.851 49.0075L399.991 24.2789L399.991 24.2792Z" fill="#EDEDED"/>
<path d="M400.228 24.5197L376.38 31.5897L371.52 6.86084L400.228 24.5195L400.228 24.5197Z" fill="#F7F8F8"/>
<path d="M428.229 41.4571L404.382 48.5269L433.09 66.1856L428.229 41.4569L428.229 41.4571Z" fill="#F7F7F7"/>
<path d="M428.464 41.6975L404.616 48.7672L399.756 24.0386L428.464 41.6972L428.464 41.6975Z" fill="white"/>
<path d="M456.465 58.6348L432.618 65.7046L461.326 83.3632L456.466 58.6346L456.465 58.6348Z" fill="#F7F7F7"/>
<path d="M456.702 58.8757L432.855 65.9455L427.994 41.2168L456.703 58.8754L456.702 58.8757Z" fill="#EDEDED"/>
<path d="M484.704 75.8127L460.856 82.8823L489.565 100.541L484.704 75.8124L484.704 75.8127Z" fill="#EAEAEA"/>
<path d="M484.937 76.0535L461.089 83.1232L456.229 58.3945L484.937 76.0532L484.937 76.0535Z" fill="#EAEAEA"/>
<path d="M512.938 92.9903L489.091 100.06L517.799 117.719L512.938 92.9901L512.938 92.9903Z" fill="#EAEAEA"/>
<path d="M513.175 93.2311L489.327 100.301L484.467 75.5723L513.175 93.2308L513.175 93.2311Z" fill="#E7E7E7"/>
<path d="M541.176 110.167L517.329 117.237L546.037 134.896L541.176 110.167L541.176 110.167Z" fill="#EAEAEA"/>
<path d="M541.413 110.408L517.566 117.478L512.705 92.749L541.413 110.407L541.413 110.408Z" fill="#F7F7F7"/>
<path d="M569.412 127.346L545.565 134.416L574.274 152.074L569.413 127.345L569.412 127.346Z" fill="#F7F8F8"/>
<path d="M569.65 127.586L545.802 134.656L540.941 109.927L569.65 127.585L569.65 127.586Z" fill="#EDEDED"/>
<path d="M597.651 144.524L573.803 151.594L602.512 169.252L597.651 144.524L597.651 144.524Z" fill="#EAEAEA"/>
<path d="M597.886 144.763L574.039 151.833L569.178 127.104L597.886 144.763L597.886 144.763Z" fill="#EAEAEA"/>
<path d="M626.122 161.942L602.275 169.012L597.414 144.283L626.122 161.942L626.122 161.942Z" fill="#F7F7F7"/>
<path d="M291.196 -19.4623L267.348 -12.3918L296.056 5.26683L291.196 -19.463L291.196 -19.4623Z" fill="#EDEDED"/>
<path d="M319.434 -2.28457L295.586 4.78591L324.294 22.4446L319.434 -2.2853L319.434 -2.28457Z" fill="#F7F8F8"/>
<path d="M319.671 -2.04472L295.823 5.02577L290.963 -19.7041L319.671 -2.04545L319.671 -2.04472Z" fill="#F7F7F7"/>
<path d="M347.672 14.8932L323.824 21.9636L352.533 39.6223L347.673 14.8924L347.672 14.8932Z" fill="white"/>
<path d="M347.907 15.1335L324.059 22.204L319.199 -2.52588L347.908 15.1328L347.907 15.1335Z" fill="#F7F7F7"/>
<path d="M375.909 32.0714L352.061 39.1419L380.769 56.8005L375.909 32.0707L375.909 32.0714Z" fill="#E7E7E7"/>
<path d="M376.144 32.3117L352.295 39.3822L347.436 14.6523L376.144 32.311L376.144 32.3117Z" fill="#EAEAEA"/>
<path d="M404.145 49.2489L380.297 56.3196L409.005 73.9783L404.145 49.2482L404.145 49.2489Z" fill="#E7E7E7"/>
<path d="M404.379 49.4892L380.532 56.56L375.672 31.8301L404.38 49.4885L404.379 49.4892Z" fill="#F7F8F8"/>
<path d="M432.381 66.4267L408.533 73.4973L437.242 91.156L432.381 66.4259L432.381 66.4267Z" fill="white"/>
<path d="M432.618 66.6668L408.77 73.7374L403.91 49.0073L432.619 66.666L432.618 66.6668Z" fill="#E7E7E7"/>
<path d="M460.619 83.6039L436.771 90.6746L465.48 108.333L460.62 83.6031L460.619 83.6039Z" fill="#EDEDED"/>
<path d="M460.854 83.8449L437.007 90.9156L432.146 66.1855L460.855 83.8441L460.854 83.8449Z" fill="#F7F8F8"/>
<path d="M488.855 100.782L465.008 107.852L493.716 125.511L488.856 100.781L488.855 100.782Z" fill="#F7F7F7"/>
<path d="M489.091 101.022L465.243 108.093L460.383 83.3628L489.091 101.021L489.091 101.022Z" fill="#E7E7E7"/>
<path d="M517.092 117.96L493.244 125.031L521.952 142.689L517.092 117.96L517.092 117.96Z" fill="#F7F7F7"/>
<path d="M517.329 118.2L493.481 125.271L488.621 100.541L517.33 118.199L517.329 118.2Z" fill="#F7F8F8"/>
<path d="M545.331 135.138L521.482 142.208L550.191 159.867L545.331 135.137L545.331 135.138Z" fill="#EDEDED"/>
<path d="M545.565 135.378L521.717 142.449L516.857 117.719L545.566 135.377L545.565 135.378Z" fill="#EDEDED"/>
<path d="M573.567 152.316L549.719 159.386L578.427 177.045L573.567 152.315L573.567 152.316Z" fill="#EAEAEA"/>
<path d="M573.802 152.556L549.954 159.626L545.094 134.896L573.802 152.555L573.802 152.556Z" fill="white"/>
<path d="M601.803 169.493L577.955 176.564L606.663 194.222L601.804 169.493L601.803 169.493Z" fill="#EDEDED"/>
<path d="M602.038 169.734L578.19 176.804L573.33 152.074L602.038 169.733L602.038 169.734Z" fill="#F7F7F7"/>
<path d="M630.276 186.911L606.428 193.982L601.568 169.252L630.277 186.911L630.276 186.911Z" fill="#EAEAEA"/>
<path d="M267.114 -11.6713L243.266 -4.60082L271.975 13.0578L267.114 -11.671L267.114 -11.6713Z" fill="#EAEAEA"/>
<path d="M267.351 -11.43L243.503 -4.3595L238.642 -29.0881L267.35 -11.4297L267.351 -11.43Z" fill="#E7E7E7"/>
<path d="M295.35 5.50742L271.503 12.5779L300.211 30.2365L295.35 5.50767L295.35 5.50742Z" fill="#EAEAEA"/>
<path d="M295.585 5.74751L271.738 12.818L266.877 -11.9109L295.585 5.74776L295.585 5.74751Z" fill="#EAEAEA"/>
<path d="M323.588 22.6847L299.741 29.7551L328.449 47.4138L323.588 22.6849L323.588 22.6847Z" fill="#F7F8F8"/>
<path d="M323.824 22.9252L299.976 29.9957L295.115 5.26685L323.823 22.9255L323.824 22.9252Z" fill="#F7F7F7"/>
<path d="M351.825 39.8629L327.977 46.9334L356.685 64.592L351.825 39.8631L351.825 39.8629Z" fill="#F7F7F7"/>
<path d="M352.06 40.1025L328.212 47.173L323.351 22.4441L352.06 40.1027L352.06 40.1025Z" fill="#F7F7F7"/>
<path d="M380.061 57.0406L356.213 64.1111L384.921 81.7695L380.061 57.0409L380.061 57.0406Z" fill="#F7F8F8"/>
<path d="M380.296 57.2812L356.449 64.3517L351.588 39.6228L380.296 57.2814L380.296 57.2812Z" fill="#EAEAEA"/>
<path d="M408.298 74.2181L384.45 81.2883L413.158 98.947L408.298 74.2184L408.298 74.2181Z" fill="white"/>
<path d="M408.535 74.4584L384.687 81.5287L379.826 56.8001L408.534 74.4587L408.535 74.4584Z" fill="#F7F8F8"/>
<path d="M436.536 91.3963L412.688 98.4666L441.396 116.125L436.536 91.3965L436.536 91.3963Z" fill="#E7E7E7"/>
<path d="M436.771 91.6367L412.923 98.707L408.062 73.9783L436.771 91.6369L436.771 91.6367Z" fill="#EDEDED"/>
<path d="M464.772 108.574L440.924 115.644L469.633 133.302L464.772 108.574L464.772 108.574Z" fill="#F7F8F8"/>
<path d="M465.009 108.814L441.161 115.885L436.301 91.156L465.009 108.815L465.009 108.814Z" fill="#EAEAEA"/>
<path d="M493.011 125.752L469.163 132.822L497.871 150.481L493.01 125.752L493.011 125.752Z" fill="#EDEDED"/>
<path d="M493.245 125.992L469.397 133.062L464.537 108.333L493.245 125.992L493.245 125.992Z" fill="white"/>
<path d="M521.247 142.929L497.399 149.999L526.107 167.658L521.246 142.929L521.247 142.929Z" fill="#F7F7F7"/>
<path d="M521.481 143.169L497.634 150.24L492.773 125.511L521.481 143.169L521.481 143.169Z" fill="#F7F7F7"/>
<path d="M549.483 160.107L525.635 167.177L554.344 184.836L549.483 160.107L549.483 160.107Z" fill="#F7F7F7"/>
<path d="M549.718 160.347L525.871 167.418L521.01 142.689L549.718 160.347L549.718 160.347Z" fill="#F7F8F8"/>
<path d="M577.719 177.284L553.872 184.355L582.58 202.013L577.719 177.285L577.719 177.284Z" fill="#F7F7F7"/>
<path d="M577.956 177.525L554.109 184.595L549.248 159.866L577.956 177.525L577.956 177.525Z" fill="white"/>
<path d="M605.958 194.462L582.11 201.532L610.818 219.191L605.957 194.462L605.958 194.462Z" fill="#EAEAEA"/>
<path d="M606.193 194.703L582.345 201.773L577.484 177.044L606.193 194.703L606.193 194.703Z" fill="#F7F7F7"/>
<path d="M217.039 -8.14502L212.502 -0.548109L219.362 3.67096L217.039 -8.14502Z" fill="#EAEAEA"/>
<path d="M243.03 -3.87929L219.182 3.19093L247.89 20.8493L243.03 -3.87929Z" fill="#EDEDED"/>
<path d="M222.035 -16.7729L217.014 -8.36109L219.324 3.39236L243.268 -3.70818L222.035 -16.7729Z" fill="#EAEAEA"/>
<path d="M271.266 13.2982L247.419 20.3682L276.127 38.0268L271.266 13.2982Z" fill="#EAEAEA"/>
<path d="M271.503 13.5385L247.655 20.6085L242.795 -4.12012L271.503 13.5385Z" fill="#F7F8F8"/>
<path d="M299.505 30.4764L275.657 37.5464L304.365 55.205L299.505 30.4764Z" fill="white"/>
<path d="M299.74 30.7172L275.892 37.7872L271.031 13.0586L299.74 30.7172Z" fill="white"/>
<path d="M327.741 47.6546L303.893 54.7246L332.602 72.3833L327.741 47.6546Z" fill="#F7F8F8"/>
<path d="M327.978 47.8945L304.13 54.9645L299.27 30.2358L327.978 47.8945Z" fill="#F7F7F7"/>
<path d="M355.979 64.8329L332.132 71.9028L360.84 89.5615L355.979 64.8329Z" fill="white"/>
<path d="M356.212 65.0732L332.364 72.1432L327.504 47.4146L356.212 65.0732Z" fill="#F7F8F8"/>
<path d="M384.213 82.0099L360.366 89.0801L389.074 106.739L384.213 82.0099Z" fill="#F7F8F8"/>
<path d="M384.45 82.2502L360.603 89.3204L355.742 64.5918L384.45 82.2502Z" fill="#EDEDED"/>
<path d="M412.452 99.1877L388.604 106.258L417.313 123.916L412.452 99.1877Z" fill="#F7F8F8"/>
<path d="M412.687 99.4282L388.839 106.498L383.979 81.7695L412.687 99.4282Z" fill="#F7F7F7"/>
<path d="M440.688 116.365L416.841 123.436L445.549 141.094L440.688 116.365Z" fill="#EAEAEA"/>
<path d="M440.925 116.606L417.078 123.676L412.217 98.9473L440.925 116.606Z" fill="#EAEAEA"/>
<path d="M468.926 133.543L445.079 140.613L473.787 158.271L468.926 133.543Z" fill="#F7F8F8"/>
<path d="M469.16 133.784L445.312 140.854L440.451 116.125L469.16 133.784Z" fill="#F7F7F7"/>
<path d="M497.163 150.721L473.315 157.791L502.023 175.449L497.163 150.721Z" fill="#F7F8F8"/>
<path d="M497.398 150.96L473.55 158.031L468.689 133.302L497.398 150.96Z" fill="#EDEDED"/>
<path d="M525.401 167.899L501.553 174.969L530.262 192.627L525.401 167.899Z" fill="white"/>
<path d="M525.636 168.139L501.788 175.209L496.928 150.48L525.636 168.139Z" fill="#F7F7F7"/>
<path d="M553.636 185.077L529.788 192.146L558.496 209.805L553.636 185.077Z" fill="#F7F8F8"/>
<path d="M553.872 185.317L530.025 192.387L525.164 167.658L553.872 185.317Z" fill="#EDEDED"/>
<path d="M581.874 202.254L558.026 209.324L586.734 226.983L581.874 202.254Z" fill="white"/>
<path d="M582.109 202.495L558.261 209.565L553.4 184.836L582.109 202.495Z" fill="#E7E7E7"/>
<path d="M610.11 219.432L586.262 226.502L614.971 244.161L610.11 219.432Z" fill="#EDEDED"/>
<path d="M610.347 219.672L586.499 226.742L581.639 202.014L610.347 219.672Z" fill="white"/>
<path d="M203.046 14.7552L223.535 27.3625L218.907 3.80263L218.906 3.80311L207.578 7.16304L203.046 14.7552Z" fill="#F7F8F8"/>
<path d="M212.322 -0.393066L207.785 7.20507L219.182 3.82649L219.182 3.82602L212.322 -0.393066Z" fill="#F7F7F7"/>
<path d="M251.805 44.5399L247.195 21.077L247.194 21.0775L224.568 27.7863L251.805 44.5399Z" fill="#F7F8F8"/>
<path d="M224.806 28.0213L247.418 21.3174L247.418 21.3169L218.729 3.67188L223.336 27.1172L224.806 28.0213Z" fill="#F7F8F8"/>
<path d="M280.044 61.7187L275.433 38.2558L275.433 38.2562L252.807 44.965L280.044 61.7187Z" fill="#E7E7E7"/>
<path d="M253.043 45.1992L275.655 38.4954L275.655 38.4949L246.965 20.8496L251.573 44.2949L253.043 45.1992Z" fill="#E7E7E7"/>
<path d="M308.278 78.8954L303.667 55.4325L303.667 55.433L281.041 62.1417L308.278 78.8954Z" fill="#EAEAEA"/>
<path d="M281.281 62.3764L303.893 55.6726L303.893 55.6722L275.203 38.0269L279.811 61.4721L281.281 62.3764Z" fill="#F7F7F7"/>
<path d="M336.516 96.0741L331.906 72.6112L331.905 72.6117L309.279 79.3204L336.516 96.0741Z" fill="#EAEAEA"/>
<path d="M309.518 79.5542L332.129 72.8504L332.13 72.8499L303.439 55.2046L308.047 78.6499L309.518 79.5542Z" fill="#EDEDED"/>
<path d="M364.755 113.252L360.144 89.789L360.144 89.7894L337.518 96.4982L364.755 113.252Z" fill="#EDEDED"/>
<path d="M337.754 96.7324L360.366 90.0286L360.366 90.0281L331.676 72.3828L336.284 95.8281L337.754 96.7324Z" fill="#F7F8F8"/>
<path d="M392.991 130.43L388.38 106.967L388.38 106.967L365.754 113.676L392.991 130.43Z" fill="white"/>
<path d="M365.992 113.91L388.604 107.206L388.604 107.206L359.914 89.5605L364.522 113.006L365.992 113.91Z" fill="#E7E7E7"/>
<path d="M421.227 147.607L416.617 124.144L416.616 124.145L393.99 130.854L421.227 147.607Z" fill="#F7F8F8"/>
<path d="M394.229 131.088L416.84 124.385L416.84 124.384L388.15 106.739L392.758 130.184L394.229 131.088Z" fill="#EAEAEA"/>
<path d="M449.466 164.784L444.855 141.321L444.855 141.322L422.229 148.03L449.466 164.784Z" fill="#EDEDED"/>
<path d="M422.465 148.266L445.077 141.562L445.077 141.562L416.387 123.917L420.995 147.362L422.465 148.266Z" fill="#F7F7F7"/>
<path d="M477.702 181.962L473.091 158.499L473.091 158.499L450.465 165.208L477.702 181.962Z" fill="#EDEDED"/>
<path d="M450.703 165.443L473.315 158.739L473.315 158.739L444.625 141.094L449.233 164.539L450.703 165.443Z" fill="white"/>
<path d="M505.938 199.14L501.327 175.677L501.327 175.678L478.701 182.387L505.938 199.14Z" fill="#F7F8F8"/>
<path d="M478.94 182.621L501.551 175.917L501.551 175.917L472.861 158.271L477.469 181.717L478.94 182.621Z" fill="#F7F8F8"/>
<path d="M534.175 216.318L529.564 192.855L529.564 192.856L506.938 199.565L534.175 216.318Z" fill="#F7F7F7"/>
<path d="M507.176 199.799L529.787 193.095L529.788 193.095L501.098 175.449L505.706 198.895L507.176 199.799Z" fill="#F7F8F8"/>
<path d="M562.413 233.496L557.802 210.033L557.802 210.034L535.176 216.742L562.413 233.496Z" fill="#F7F8F8"/>
<path d="M535.414 216.976L558.026 210.272L558.026 210.271L529.336 192.626L533.944 216.071L535.414 216.976Z" fill="#F7F8F8"/>
<path d="M590.649 250.673L586.039 227.21L586.038 227.21L563.412 233.919L590.649 250.673Z" fill="#F7F7F7"/>
<path d="M563.65 234.154L586.262 227.45L586.262 227.45L557.572 209.805L562.18 233.25L563.65 234.154Z" fill="#EDEDED"/>
<path d="M618.886 267.851L614.275 244.389L614.275 244.389L591.648 251.098L618.886 267.851Z" fill="#EAEAEA"/>
<path d="M591.887 251.332L614.498 244.628L614.499 244.628L585.809 226.982L590.416 250.428L591.887 251.332Z" fill="#E7E7E7"/>
<rect x="196.227" y="-171.609" width="595.942" height="187.924" transform="rotate(31.31 196.227 -171.609)" fill="url(#paint0_linear_5666_284085)"/>
</g>
<defs>
<linearGradient id="paint0_linear_5666_284085" x1="541.037" y1="-23.5907" x2="551.83" y2="-204.09" gradientUnits="userSpaceOnUse">
<stop stop-color="#E9F0F2"/>
<stop offset="1" stop-color="white" stop-opacity="0"/>
</linearGradient>
<clipPath id="clip0_5666_284085">
<rect width="595" height="277" fill="white"/>
</clipPath>
</defs>
</svg>
