<svg width="20" height="20" viewBox="0 0 20 20" fill="none" xmlns="http://www.w3.org/2000/svg">
<path d="M11.1884 10.0102L15.5992 5.59937C15.6788 5.52249 15.7423 5.43054 15.786 5.32887C15.8297 5.2272 15.8527 5.11785 15.8536 5.0072C15.8546 4.89655 15.8335 4.78682 15.7916 4.6844C15.7497 4.58199 15.6878 4.48895 15.6096 4.4107C15.5313 4.33246 15.4383 4.27058 15.3359 4.22868C15.2335 4.18678 15.1237 4.1657 15.0131 4.16666C14.9024 4.16762 14.7931 4.19061 14.6914 4.23428C14.5897 4.27796 14.4978 4.34144 14.4209 4.42103L10.0101 8.83187L5.59924 4.42103C5.44208 4.26923 5.23157 4.18524 5.01308 4.18714C4.79458 4.18904 4.58557 4.27668 4.43106 4.43118C4.27656 4.58569 4.18891 4.7947 4.18702 5.0132C4.18512 5.2317 4.26911 5.4422 4.42091 5.59937L8.83174 10.0102L4.42091 14.421C4.34132 14.4979 4.27783 14.5899 4.23416 14.6915C4.19049 14.7932 4.1675 14.9025 4.16654 15.0132C4.16557 15.1238 4.18666 15.2336 4.22856 15.336C4.27046 15.4384 4.33234 15.5315 4.41058 15.6097C4.48883 15.6879 4.58187 15.7498 4.68428 15.7917C4.7867 15.8336 4.89643 15.8547 5.00708 15.8537C5.11773 15.8528 5.22708 15.8298 5.32875 15.7861C5.43042 15.7424 5.52237 15.679 5.59924 15.5994L10.0101 11.1885L14.4209 15.5994C14.5781 15.7512 14.7886 15.8352 15.0071 15.8333C15.2256 15.8314 15.4346 15.7437 15.5891 15.5892C15.7436 15.4347 15.8312 15.2257 15.8331 15.0072C15.835 14.7887 15.751 14.5782 15.5992 14.421L11.1884 10.0102Z" fill="#383838"/>
</svg>
