<svg width="16" height="17" viewBox="0 0 16 17" fill="none" xmlns="http://www.w3.org/2000/svg">
<ellipse cx="7.91895" cy="8.25614" rx="4" ry="3.14286" fill="white"/>
<g clip-path="url(#clip0_6712_130716)">
<path fill-rule="evenodd" clip-rule="evenodd" d="M15.5246 5.06089C15.5246 5.06089 15.3735 3.95805 14.9084 3.47377C14.3191 2.83686 13.6592 2.83278 13.3575 2.79582C11.1932 2.63281 7.94236 2.63281 7.94236 2.63281H7.93669C7.93669 2.63281 4.68737 2.63281 2.52179 2.79582C2.21893 2.83388 1.55999 2.83652 0.970935 3.47377C0.505546 3.95805 0.357644 5.06089 0.357644 5.06089C0.357644 5.06089 0.203613 6.35507 0.203613 7.65199V8.86471C0.203613 10.1589 0.357551 11.4557 0.357551 11.4557C0.357551 11.4557 0.508657 12.5586 0.970843 13.0436C1.55989 13.6806 2.33404 13.6599 2.67963 13.7278C3.91879 13.8501 7.94343 13.887 7.94343 13.887C7.94343 13.887 11.197 13.881 13.3614 13.721C13.6643 13.6841 14.323 13.6803 14.9123 13.0431C15.3776 12.5588 15.5285 11.4547 15.5285 11.4547C15.5285 11.4547 15.6826 10.1606 15.6826 8.86375V7.65112C15.6795 6.35694 15.5254 5.06013 15.5254 5.06013L15.5246 5.06099L15.5245 5.06089H15.5246ZM6.33903 10.336V5.83926L10.5205 8.09512L6.33903 10.336Z" fill="#FF0000"/>
</g>
<defs>
<clipPath id="clip0_6712_130716">
<rect width="15.4789" height="16" fill="white" transform="translate(0.195312 0.257812)"/>
</clipPath>
</defs>
</svg>
