<svg width="17" height="16" viewBox="0 0 17 16" fill="none" xmlns="http://www.w3.org/2000/svg">
<path d="M7.04298 9.11613L7.02139 9.0932L7.04983 9.12331L7.04994 9.12343C7.05024 9.12375 7.05055 9.12407 7.05085 9.1244C7.04837 9.1218 7.04588 9.1192 7.04341 9.11658C7.04326 9.11643 7.04312 9.11628 7.04298 9.11613ZM8.5 9.74667C8.02069 9.74667 7.57035 9.58049 7.2074 9.27201C7.81286 9.78116 8.68787 9.87037 9.38779 9.53966C9.11521 9.67543 8.81381 9.74667 8.5 9.74667ZM11.9449 8.00057C11.911 8.00022 11.8767 8.00003 11.8421 8C11.8436 8 11.8452 8 11.8467 8C11.8799 8 11.9126 8.00019 11.9449 8.00057ZM14.127 8.72301C14.0206 8.58321 13.893 8.46841 13.7449 8.37478C13.9606 8.50242 14.1017 8.65059 14.1989 8.79932C14.4982 9.25733 14.5133 9.88487 14.5133 10.6667V11.332C14.5069 12.5267 14.2027 13.3366 13.6869 13.851C13.4961 14.0413 13.2651 14.2024 12.9892 14.3299C13.2488 14.2081 13.4808 14.0496 13.6819 13.8486C14.2782 13.2523 14.5 12.3837 14.5 11.3333V10.6667V10.6448C14.5 10.2905 14.5 9.9431 14.4623 9.63936C14.4233 9.32487 14.3384 9.0007 14.127 8.72301ZM6.39109 8.42066C6.39116 8.42071 6.39113 8.42069 6.391 8.42059L6.39109 8.42066ZM2.87297 8.72301C2.7774 8.84857 2.70769 8.98362 2.65637 9.12299C2.6974 9.00715 2.74915 8.8992 2.81441 8.79932C2.8708 8.71301 2.94199 8.62689 3.03397 8.54487C2.97582 8.59916 2.92213 8.65842 2.87297 8.72301Z" fill="#005F73" stroke="#005F73"/>
<path d="M13.1663 8.50016C12.893 8.50016 12.6663 8.2735 12.6663 8.00016V4.00016C12.6663 2.5135 12.6663 1.8335 10.4997 1.8335H6.49967C4.33301 1.8335 4.33301 2.5135 4.33301 4.00016V8.00016C4.33301 8.2735 4.10634 8.50016 3.83301 8.50016C3.55967 8.50016 3.33301 8.2735 3.33301 8.00016V4.00016C3.33301 2.5135 3.33301 0.833496 6.49967 0.833496H10.4997C13.6663 0.833496 13.6663 2.5135 13.6663 4.00016V8.00016C13.6663 8.2735 13.4397 8.50016 13.1663 8.50016Z" fill="#005F73"/>
<path d="M9.7532 6.65332H7.5332C7.25987 6.65332 7.0332 6.42665 7.0332 6.15332C7.0332 5.87999 7.25987 5.65332 7.5332 5.65332H9.7532C10.0265 5.65332 10.2532 5.87999 10.2532 6.15332C10.2532 6.42665 10.0332 6.65332 9.7532 6.65332Z" fill="#005F73"/>
<path d="M10.3138 4.65332H6.98047C6.70714 4.65332 6.48047 4.42665 6.48047 4.15332C6.48047 3.87999 6.70714 3.65332 6.98047 3.65332H10.3138C10.5871 3.65332 10.8138 3.87999 10.8138 4.15332C10.8138 4.42665 10.5938 4.65332 10.3138 4.65332Z" fill="#005F73"/>
</svg>
