<svg width="17" height="16" viewBox="0 0 17 16" fill="none" xmlns="http://www.w3.org/2000/svg">
<path d="M6.51682 14.3308C6.51749 14.3317 6.51816 14.3326 6.51884 14.3335L6.5187 14.3333L5.71871 13.2667L5.69093 13.2296C5.702 13.2407 5.71225 13.2521 5.72152 13.2638L6.51682 14.3308ZM7.1587 14.6833C7.45422 14.6833 7.66758 14.5082 7.79528 14.3379C7.62076 14.5746 7.38509 14.6867 7.15869 14.6867C6.93199 14.6867 6.69601 14.5743 6.52141 14.337C6.64903 14.5076 6.86264 14.6833 7.1587 14.6833ZM7.80165 14.3294L7.80163 14.3294L8.59869 13.2667L8.59992 13.265C8.62476 13.2316 8.65339 13.2016 8.68507 13.1753L8.62833 13.2494L7.80165 14.3294ZM2.59683 12.4336C2.61597 12.4511 2.63541 12.4681 2.65515 12.4846C2.6522 12.4821 2.64926 12.4797 2.64633 12.4772C2.62874 12.4623 2.61133 12.447 2.59412 12.4312C2.59502 12.432 2.59592 12.4328 2.59683 12.4336ZM5.49099 13.1003C5.49734 13.1027 5.4989 13.1036 5.49279 13.101L5.49099 13.1003ZM5.01751 4C4.87804 4.00019 4.74218 4.00544 4.61007 4.01595C4.7264 4.00487 4.86433 4.00016 5.01751 4ZM2.70402 4.72589C2.9164 4.53388 3.15984 4.38849 3.42081 4.28042C3.05908 4.43222 2.74717 4.65121 2.49602 4.94987C2.21615 5.28269 2.03586 5.68618 1.9348 6.14645C2.08174 5.4722 2.3712 5.02681 2.70402 4.72589ZM11.5342 12.3898C11.8844 12.0961 12.1247 11.7196 12.2748 11.2788C12.1635 11.6099 11.9975 11.9203 11.7591 12.1834C11.4033 12.5759 10.844 12.909 9.94173 13.0167C10.5694 12.9415 11.1097 12.7457 11.5342 12.3898ZM12.4665 10.2774C12.4805 10.1325 12.4854 9.99656 12.4854 9.86001C12.4854 10.015 12.4807 10.1518 12.4665 10.2774ZM11.6898 4.79562C11.6278 4.73361 11.5628 4.67573 11.4949 4.62179C11.5642 4.67647 11.6293 4.73434 11.6901 4.79522C11.751 4.85611 11.8089 4.92116 11.8636 4.99049C11.8097 4.92262 11.7518 4.85763 11.6898 4.79562Z" fill="#005F73" stroke="#005F73"/>
<path d="M7.15885 9.46004C6.78552 9.46004 6.49219 9.16004 6.49219 8.79338C6.49219 8.42671 6.79219 8.12671 7.15885 8.12671C7.52552 8.12671 7.82552 8.42671 7.82552 8.79338C7.82552 9.16004 7.53219 9.46004 7.15885 9.46004Z" fill="#005F73"/>
<path d="M9.29167 9.46004C8.91833 9.46004 8.625 9.16004 8.625 8.79338C8.625 8.42671 8.925 8.12671 9.29167 8.12671C9.65833 8.12671 9.95833 8.42671 9.95833 8.79338C9.95833 9.16004 9.65833 9.46004 9.29167 9.46004Z" fill="#005F73"/>
<path d="M5.03385 9.46004C4.66052 9.46004 4.36719 9.16004 4.36719 8.79338C4.36719 8.42671 4.66719 8.12671 5.03385 8.12671C5.40052 8.12671 5.70052 8.42671 5.70052 8.79338C5.70052 9.16004 5.40052 9.46004 5.03385 9.46004Z" fill="#005F73"/>
<path d="M12.4598 10.86C12.3264 10.86 12.1931 10.8067 12.0998 10.7067C11.9931 10.6 11.9464 10.4467 11.9664 10.3C11.9864 10.16 11.9931 10.0134 11.9931 9.86005V7.19338C11.9931 5.33338 11.1598 4.50004 9.29977 4.50004H5.03309C4.87976 4.50004 4.73311 4.50671 4.59311 4.52004C4.44644 4.54004 4.2931 4.4867 4.18643 4.3867C4.07976 4.28003 4.01976 4.13338 4.03309 3.98671C4.15309 2.54671 4.89309 0.833374 7.69976 0.833374H11.9664C14.3798 0.833374 15.6598 2.11338 15.6598 4.52671V7.19338C15.6598 10 13.9464 10.7334 12.5064 10.86C12.4864 10.86 12.4731 10.86 12.4598 10.86ZM5.11311 3.50004H9.2931C11.7064 3.50004 12.9864 4.78005 12.9864 7.19338V9.77338C14.1198 9.49338 14.6531 8.66005 14.6531 7.19338V4.52671C14.6531 2.66671 13.8198 1.83337 11.9598 1.83337H7.6931C6.22644 1.83337 5.39977 2.36671 5.11311 3.50004Z" fill="#005F73"/>
</svg>
