<svg width="25" height="25" viewBox="0 0 25 25" fill="none" xmlns="http://www.w3.org/2000/svg">
<path d="M8.5 22.8199C8.22 22.8199 7.92998 22.7499 7.66998 22.6099C7.09998 22.3099 6.75 21.7099 6.75 21.0699V19.65C3.73 19.34 1.75 17.1199 1.75 13.9399V7.93994C1.75 4.49994 4.06 2.18994 7.5 2.18994H17.5C20.94 2.18994 23.25 4.49994 23.25 7.93994V13.9399C23.25 17.3799 20.94 19.6899 17.5 19.6899H13.73L9.46997 22.53C9.17997 22.72 8.84 22.8199 8.5 22.8199ZM7.5 3.67993C4.92 3.67993 3.25 5.34993 3.25 7.92993V13.93C3.25 16.51 4.92 18.18 7.5 18.18C7.91 18.18 8.25 18.52 8.25 18.93V21.06C8.25 21.19 8.33 21.25 8.38 21.28C8.43001 21.31 8.53001 21.34 8.64001 21.27L13.09 18.31C13.21 18.23 13.36 18.18 13.51 18.18H17.51C20.09 18.18 21.76 16.51 21.76 13.93V7.92993C21.76 5.34993 20.09 3.67993 17.51 3.67993H7.5Z" fill="#005F73"/>
<path d="M12.4998 12.61C12.0898 12.61 11.7498 12.27 11.7498 11.86V11.65C11.7498 10.49 12.5998 9.92001 12.9198 9.70001C13.2898 9.45001 13.4098 9.28002 13.4098 9.02002C13.4098 8.52002 12.9998 8.10999 12.4998 8.10999C11.9998 8.10999 11.5898 8.52002 11.5898 9.02002C11.5898 9.43002 11.2498 9.77002 10.8398 9.77002C10.4298 9.77002 10.0898 9.43002 10.0898 9.02002C10.0898 7.69002 11.1698 6.60999 12.4998 6.60999C13.8298 6.60999 14.9098 7.69002 14.9098 9.02002C14.9098 10.16 14.0698 10.73 13.7598 10.94C13.3698 11.2 13.2498 11.37 13.2498 11.65V11.86C13.2498 12.28 12.9098 12.61 12.4998 12.61Z" fill="#005F73"/>
<path d="M12.5 15.1C12.08 15.1 11.75 14.76 11.75 14.35C11.75 13.94 12.09 13.6 12.5 13.6C12.91 13.6 13.25 13.94 13.25 14.35C13.25 14.76 12.92 15.1 12.5 15.1Z" fill="#292D32"/>
</svg>
