<svg width="17" height="16" viewBox="0 0 17 16" fill="none" xmlns="http://www.w3.org/2000/svg">
<path d="M10.5448 12.9293L10.5448 12.9291L10.5317 12.9281C10.2435 12.9059 9.91177 12.8525 9.56105 12.7705C9.90546 12.8485 10.233 12.8982 10.5337 12.9245C11.1008 12.9805 11.6182 12.9514 12.0802 12.8077C11.7723 12.9043 11.4276 12.9533 11.04 12.9533C10.8799 12.9533 10.7175 12.9472 10.5448 12.9293ZM14.0485 10.5935C14.1384 10.3303 14.217 10.0477 14.287 9.74694C14.287 9.74679 14.287 9.74664 14.2871 9.74649L14.9402 6.96077L14.9403 6.96017C15.2491 5.63594 15.2454 4.56962 14.7386 3.75028C14.5968 3.52102 14.4202 3.31819 14.2101 3.13818C14.4285 3.3243 14.6031 3.52814 14.7418 3.75013C15.1893 4.47677 15.2986 5.46162 14.9466 6.9589L14.9466 6.95917L14.2933 9.7456C14.2933 9.74568 14.2933 9.74576 14.2932 9.74584C14.2209 10.0539 14.1392 10.3359 14.0485 10.5935ZM11.9527 2.14013C12.0722 2.16823 12.1876 2.19748 12.2989 2.22788C12.1846 2.19698 12.0672 2.16761 11.9467 2.13965C11.9466 2.13962 11.9465 2.13959 11.9464 2.13957L10.8354 1.88013C10.7599 1.86194 10.6852 1.84487 10.6112 1.82893C10.6879 1.84527 10.7638 1.86238 10.839 1.88004L10.8397 1.8802L11.9523 2.14004C11.9524 2.14007 11.9526 2.1401 11.9527 2.14013ZM6.03109 4.76492C6.15866 4.23664 6.30335 3.81364 6.47022 3.46561C6.30219 3.82898 6.15686 4.25746 6.03109 4.76492ZM5.54923 10.8708C5.40649 10.6404 5.29949 10.3794 5.23147 10.0822C5.29844 10.363 5.40408 10.6247 5.55432 10.8669C5.72889 11.1483 5.9539 11.3877 6.22467 11.5932C5.93546 11.377 5.71352 11.1359 5.54923 10.8708Z" fill="#005F73" stroke="#005F73"/>
<path d="M6.05402 14.8334C4.34069 14.8334 3.24735 13.8067 2.54735 11.64L1.69402 9.0067C0.747352 6.07337 1.59402 4.42003 4.51402 3.47337L5.56735 3.13337C5.91402 3.0267 6.17402 2.95337 6.40735 2.91337C6.60069 2.87337 6.78735 2.9467 6.90069 3.10003C7.01402 3.25337 7.03402 3.45337 6.95402 3.6267C6.78069 3.98003 6.62735 4.4267 6.50069 4.9867L5.84735 7.78003C5.25402 10.3 5.94069 11.4 8.46069 12L9.58069 12.2667C9.94069 12.3534 10.2807 12.4067 10.5874 12.4334C10.8007 12.4534 10.974 12.6 11.034 12.8067C11.0874 13.0134 11.0074 13.2267 10.834 13.3467C10.394 13.6467 9.84069 13.9 9.14069 14.1267L8.08735 14.4734C7.32069 14.7134 6.65402 14.8334 6.05402 14.8334ZM5.68735 4.1467L4.82735 4.4267C2.44735 5.19337 1.88069 6.31337 2.64735 8.70003L3.50069 11.3334C4.27402 13.7134 5.39402 14.2867 7.77402 13.52L8.82735 13.1734C8.86735 13.16 8.90069 13.1467 8.94069 13.1334L8.23402 12.9667C5.16069 12.24 4.15402 10.6134 4.87402 7.5467L5.52735 4.75337C5.57402 4.54003 5.62735 4.33337 5.68735 4.1467Z" fill="#005F73"/>
<path d="M12.1609 7.00664C12.1209 7.00664 12.0809 6.99997 12.0342 6.99331L8.80089 6.17331C8.53423 6.10664 8.37423 5.83331 8.44089 5.56664C8.50756 5.29997 8.78089 5.13997 9.04756 5.20664L12.2809 6.02664C12.5476 6.09331 12.7076 6.36664 12.6409 6.63331C12.5876 6.85331 12.3809 7.00664 12.1609 7.00664Z" fill="#005F73"/>
<path d="M10.2074 9.26005C10.1674 9.26005 10.1274 9.25338 10.0807 9.24672L8.14074 8.75338C7.87407 8.68672 7.71407 8.41338 7.78074 8.14672C7.8474 7.88005 8.12074 7.72005 8.3874 7.78672L10.3274 8.28005C10.5941 8.34672 10.7541 8.62005 10.6874 8.88672C10.6341 9.11338 10.4341 9.26005 10.2074 9.26005Z" fill="#005F73"/>
</svg>
