<svg width="17" height="16" viewBox="0 0 17 16" fill="none" xmlns="http://www.w3.org/2000/svg">
<path d="M14.1134 5.43359C14.1134 4.33078 13.2162 3.43359 12.1134 3.43359C13.2173 3.43359 14.1134 4.32974 14.1134 5.43359Z" fill="#005F73" stroke="#005F73"/>
<path d="M4.99339 6.04665C4.86672 6.04665 4.74006 5.99996 4.64006 5.89996L2.53339 3.79332C2.44005 3.69998 2.38672 3.5733 2.38672 3.43996C2.38672 3.30663 2.44005 3.17998 2.53339 3.08665L4.64006 0.979961C4.83339 0.786628 5.15339 0.786628 5.34672 0.979961C5.54005 1.17329 5.54005 1.49333 5.34672 1.68667L3.5934 3.43996L5.34672 5.1933C5.54005 5.38663 5.54005 5.70663 5.34672 5.89996C5.24672 5.9933 5.12005 6.04665 4.99339 6.04665Z" fill="#005F73"/>
<path d="M14.1134 13.06H4.88672C3.50672 13.06 2.38672 11.94 2.38672 10.56V8.34668C2.38672 8.07335 2.61339 7.84668 2.88672 7.84668C3.16005 7.84668 3.38672 8.07335 3.38672 8.34668V10.56C3.38672 11.3867 4.06005 12.06 4.88672 12.06H14.1134C14.3867 12.06 14.6134 12.2867 14.6134 12.56C14.6134 12.8334 14.3867 13.06 14.1134 13.06Z" fill="#005F73"/>
<path d="M12.0061 15.1667C11.8795 15.1667 11.7528 15.1201 11.6528 15.0201C11.4595 14.8267 11.4595 14.5067 11.6528 14.3134L13.4061 12.5601L11.6528 10.8067C11.4595 10.6134 11.4595 10.2934 11.6528 10.1001C11.8461 9.90674 12.1661 9.90674 12.3595 10.1001L14.4661 12.2067C14.5595 12.3001 14.6128 12.4267 14.6128 12.5601C14.6128 12.6934 14.5595 12.8201 14.4661 12.9134L12.3595 15.0201C12.2661 15.1201 12.1395 15.1667 12.0061 15.1667Z" fill="#005F73"/>
</svg>
