<svg width="17" height="16" viewBox="0 0 17 16" fill="none" xmlns="http://www.w3.org/2000/svg">
<path d="M14.1134 5.43335C14.1134 4.33054 13.2162 3.43335 12.1134 3.43335C13.2173 3.43335 14.1134 4.32949 14.1134 5.43335Z" fill="#005F73" stroke="#005F73"/>
<path d="M4.99339 6.04665C4.86672 6.04665 4.74006 5.99996 4.64006 5.89996L2.53339 3.79332C2.44005 3.69998 2.38672 3.5733 2.38672 3.43996C2.38672 3.30663 2.44005 3.17998 2.53339 3.08665L4.64006 0.979961C4.83339 0.786628 5.15339 0.786628 5.34672 0.979961C5.54005 1.17329 5.54005 1.49333 5.34672 1.68667L3.5934 3.43996L5.34672 5.1933C5.54005 5.38663 5.54005 5.70663 5.34672 5.89996C5.24672 5.9933 5.12005 6.04665 4.99339 6.04665Z" fill="#005F73"/>
<path d="M14.1134 13.06H4.88672C3.50672 13.06 2.38672 11.94 2.38672 10.56V8.34668C2.38672 8.07335 2.61339 7.84668 2.88672 7.84668C3.16005 7.84668 3.38672 8.07335 3.38672 8.34668V10.56C3.38672 11.3867 4.06005 12.06 4.88672 12.06H14.1134C14.3867 12.06 14.6134 12.2867 14.6134 12.56C14.6134 12.8334 14.3867 13.06 14.1134 13.06Z" fill="#005F73"/>
<path d="M12.0061 15.1666C11.8795 15.1666 11.7528 15.12 11.6528 15.02C11.4595 14.8266 11.4595 14.5066 11.6528 14.3133L13.4061 12.56L11.6528 10.8066C11.4595 10.6133 11.4595 10.2933 11.6528 10.1C11.8461 9.90662 12.1661 9.90662 12.3595 10.1L14.4661 12.2066C14.5595 12.2999 14.6128 12.4266 14.6128 12.56C14.6128 12.6933 14.5595 12.8199 14.4661 12.9133L12.3595 15.02C12.2661 15.12 12.1395 15.1666 12.0061 15.1666Z" fill="#005F73"/>
</svg>
