<svg width="24" height="24" viewBox="0 0 24 24" fill="none" xmlns="http://www.w3.org/2000/svg">
<path d="M14.97 22.75H8.97C3.54 22.75 1.22 20.43 1.22 15V9C1.22 3.57 3.54 1.25 8.97 1.25H14.97C20.4 1.25 22.72 3.57 22.72 9V15C22.72 20.43 20.41 22.75 14.97 22.75ZM8.97 2.75C4.36 2.75 2.72 4.39 2.72 9V15C2.72 19.61 4.36 21.25 8.97 21.25H14.97C19.58 21.25 21.22 19.61 21.22 15V9C21.22 4.39 19.58 2.75 14.97 2.75H8.97Z" fill="#121212"/>
<path d="M14.97 22.75H8.97C3.54 22.75 1.22 20.43 1.22 15V9C1.22 3.57 3.54 1.25 8.97 1.25H14.97C20.4 1.25 22.72 3.57 22.72 9V15C22.72 20.43 20.41 22.75 14.97 22.75ZM8.97 2.75C4.36 2.75 2.72 4.39 2.72 9V15C2.72 19.61 4.36 21.25 8.97 21.25H14.97C19.58 21.25 21.22 19.61 21.22 15V9C21.22 4.39 19.58 2.75 14.97 2.75H8.97Z" fill="white" fill-opacity="0.05"/>
<path d="M7.02737 10.0298C7.02737 12.8596 9.32735 15.1595 12.1571 15.1595C14.9869 15.1595 17.2869 12.8596 17.2869 10.0298C17.2869 7.19998 14.9869 4.9 12.1571 4.9C9.32735 4.9 7.02737 7.19998 7.02737 10.0298ZM7.9292 10.0298C7.9292 7.69878 9.82615 5.80183 12.1571 5.80183C14.4881 5.80183 16.3851 7.69878 16.3851 10.0298C16.3851 12.3607 14.4881 14.2577 12.1571 14.2577C9.82615 14.2577 7.9292 12.3607 7.9292 10.0298Z" fill="#121212"/>
<path d="M7.02737 10.0298C7.02737 12.8596 9.32735 15.1595 12.1571 15.1595C14.9869 15.1595 17.2869 12.8596 17.2869 10.0298C17.2869 7.19998 14.9869 4.9 12.1571 4.9C9.32735 4.9 7.02737 7.19998 7.02737 10.0298ZM7.9292 10.0298C7.9292 7.69878 9.82615 5.80183 12.1571 5.80183C14.4881 5.80183 16.3851 7.69878 16.3851 10.0298C16.3851 12.3607 14.4881 14.2577 12.1571 14.2577C9.82615 14.2577 7.9292 12.3607 7.9292 10.0298Z" fill="white" fill-opacity="0.05"/>
<path d="M7.02737 10.0298C7.02737 12.8596 9.32735 15.1595 12.1571 15.1595C14.9869 15.1595 17.2869 12.8596 17.2869 10.0298C17.2869 7.19998 14.9869 4.9 12.1571 4.9C9.32735 4.9 7.02737 7.19998 7.02737 10.0298ZM7.9292 10.0298C7.9292 7.69878 9.82615 5.80183 12.1571 5.80183C14.4881 5.80183 16.3851 7.69878 16.3851 10.0298C16.3851 12.3607 14.4881 14.2577 12.1571 14.2577C9.82615 14.2577 7.9292 12.3607 7.9292 10.0298Z" stroke="#121212" stroke-width="0.2"/>
<path d="M7.02737 10.0298C7.02737 12.8596 9.32735 15.1595 12.1571 15.1595C14.9869 15.1595 17.2869 12.8596 17.2869 10.0298C17.2869 7.19998 14.9869 4.9 12.1571 4.9C9.32735 4.9 7.02737 7.19998 7.02737 10.0298ZM7.9292 10.0298C7.9292 7.69878 9.82615 5.80183 12.1571 5.80183C14.4881 5.80183 16.3851 7.69878 16.3851 10.0298C16.3851 12.3607 14.4881 14.2577 12.1571 14.2577C9.82615 14.2577 7.9292 12.3607 7.9292 10.0298Z" stroke="white" stroke-opacity="0.05" stroke-width="0.2"/>
<path d="M12.2193 11.0374L12.2193 11.0374L13.6678 11.9018C13.7426 11.951 13.8228 11.9686 13.8988 11.9686C14.0504 11.9686 14.1994 11.8899 14.2877 11.7485L14.2878 11.7485L14.2893 11.7459C14.414 11.5322 14.3502 11.255 14.1321 11.1275L12.6821 10.2621L12.6821 10.2621L12.6811 10.2615C12.6296 10.2317 12.5692 10.1651 12.5207 10.0798C12.4722 9.99464 12.4454 9.90791 12.4454 9.84737V7.92904C12.4454 7.68198 12.2416 7.47812 11.9945 7.47812C11.7475 7.47812 11.5436 7.68198 11.5436 7.92904V9.84737C11.5436 10.2989 11.8287 10.8041 12.2193 11.0374Z" fill="#121212"/>
<path d="M12.2193 11.0374L12.2193 11.0374L13.6678 11.9018C13.7426 11.951 13.8228 11.9686 13.8988 11.9686C14.0504 11.9686 14.1994 11.8899 14.2877 11.7485L14.2878 11.7485L14.2893 11.7459C14.414 11.5322 14.3502 11.255 14.1321 11.1275L12.6821 10.2621L12.6821 10.2621L12.6811 10.2615C12.6296 10.2317 12.5692 10.1651 12.5207 10.0798C12.4722 9.99464 12.4454 9.90791 12.4454 9.84737V7.92904C12.4454 7.68198 12.2416 7.47812 11.9945 7.47812C11.7475 7.47812 11.5436 7.68198 11.5436 7.92904V9.84737C11.5436 10.2989 11.8287 10.8041 12.2193 11.0374Z" fill="white" fill-opacity="0.05"/>
<path d="M12.2193 11.0374L12.2193 11.0374L13.6678 11.9018C13.7426 11.951 13.8228 11.9686 13.8988 11.9686C14.0504 11.9686 14.1994 11.8899 14.2877 11.7485L14.2878 11.7485L14.2893 11.7459C14.414 11.5322 14.3502 11.255 14.1321 11.1275L12.6821 10.2621L12.6821 10.2621L12.6811 10.2615C12.6296 10.2317 12.5692 10.1651 12.5207 10.0798C12.4722 9.99464 12.4454 9.90791 12.4454 9.84737V7.92904C12.4454 7.68198 12.2416 7.47812 11.9945 7.47812C11.7475 7.47812 11.5436 7.68198 11.5436 7.92904V9.84737C11.5436 10.2989 11.8287 10.8041 12.2193 11.0374Z" stroke="#121212" stroke-width="0.2"/>
<path d="M12.2193 11.0374L12.2193 11.0374L13.6678 11.9018C13.7426 11.951 13.8228 11.9686 13.8988 11.9686C14.0504 11.9686 14.1994 11.8899 14.2877 11.7485L14.2878 11.7485L14.2893 11.7459C14.414 11.5322 14.3502 11.255 14.1321 11.1275L12.6821 10.2621L12.6821 10.2621L12.6811 10.2615C12.6296 10.2317 12.5692 10.1651 12.5207 10.0798C12.4722 9.99464 12.4454 9.90791 12.4454 9.84737V7.92904C12.4454 7.68198 12.2416 7.47812 11.9945 7.47812C11.7475 7.47812 11.5436 7.68198 11.5436 7.92904V9.84737C11.5436 10.2989 11.8287 10.8041 12.2193 11.0374Z" stroke="white" stroke-opacity="0.05" stroke-width="0.2"/>
<path d="M8.18389 18.6212H10.3817C10.5932 18.6212 10.7614 18.4331 10.7614 18.2141C10.7614 17.9951 10.5932 17.8069 10.3817 17.8069H8.18389C7.97236 17.8069 7.80422 17.9951 7.80422 18.2141C7.80422 18.4331 7.97236 18.6212 8.18389 18.6212Z" fill="#121212"/>
<path d="M8.18389 18.6212H10.3817C10.5932 18.6212 10.7614 18.4331 10.7614 18.2141C10.7614 17.9951 10.5932 17.8069 10.3817 17.8069H8.18389C7.97236 17.8069 7.80422 17.9951 7.80422 18.2141C7.80422 18.4331 7.97236 18.6212 8.18389 18.6212Z" fill="white" fill-opacity="0.05"/>
<path d="M8.18389 18.6212H10.3817C10.5932 18.6212 10.7614 18.4331 10.7614 18.2141C10.7614 17.9951 10.5932 17.8069 10.3817 17.8069H8.18389C7.97236 17.8069 7.80422 17.9951 7.80422 18.2141C7.80422 18.4331 7.97236 18.6212 8.18389 18.6212Z" stroke="#121212" stroke-width="0.1"/>
<path d="M8.18389 18.6212H10.3817C10.5932 18.6212 10.7614 18.4331 10.7614 18.2141C10.7614 17.9951 10.5932 17.8069 10.3817 17.8069H8.18389C7.97236 17.8069 7.80422 17.9951 7.80422 18.2141C7.80422 18.4331 7.97236 18.6212 8.18389 18.6212Z" stroke="white" stroke-opacity="0.05" stroke-width="0.1"/>
<path d="M13.1869 18.6212H15.3847C15.5962 18.6212 15.7644 18.4331 15.7644 18.2141C15.7644 17.9951 15.5962 17.8069 15.3847 17.8069H13.1869C12.9754 17.8069 12.8072 17.9951 12.8072 18.2141C12.8072 18.4331 12.9754 18.6212 13.1869 18.6212Z" fill="#121212"/>
<path d="M13.1869 18.6212H15.3847C15.5962 18.6212 15.7644 18.4331 15.7644 18.2141C15.7644 17.9951 15.5962 17.8069 15.3847 17.8069H13.1869C12.9754 17.8069 12.8072 17.9951 12.8072 18.2141C12.8072 18.4331 12.9754 18.6212 13.1869 18.6212Z" fill="white" fill-opacity="0.05"/>
<path d="M13.1869 18.6212H15.3847C15.5962 18.6212 15.7644 18.4331 15.7644 18.2141C15.7644 17.9951 15.5962 17.8069 15.3847 17.8069H13.1869C12.9754 17.8069 12.8072 17.9951 12.8072 18.2141C12.8072 18.4331 12.9754 18.6212 13.1869 18.6212Z" stroke="#121212" stroke-width="0.1"/>
<path d="M13.1869 18.6212H15.3847C15.5962 18.6212 15.7644 18.4331 15.7644 18.2141C15.7644 17.9951 15.5962 17.8069 15.3847 17.8069H13.1869C12.9754 17.8069 12.8072 17.9951 12.8072 18.2141C12.8072 18.4331 12.9754 18.6212 13.1869 18.6212Z" stroke="white" stroke-opacity="0.05" stroke-width="0.1"/>
<path d="M4.94664 18.2139C4.94664 19.2273 5.76903 20.0497 6.78236 20.0497C7.79569 20.0497 8.61807 19.2273 8.61807 18.2139C8.61807 17.2006 7.79569 16.3782 6.78236 16.3782C5.76903 16.3782 4.94664 17.2006 4.94664 18.2139ZM5.76093 18.2139C5.76093 17.6511 6.2195 17.1925 6.78236 17.1925C7.34522 17.1925 7.80379 17.6511 7.80379 18.2139C7.80379 18.7768 7.34522 19.2354 6.78236 19.2354C6.2195 19.2354 5.76093 18.7768 5.76093 18.2139Z" fill="#121212"/>
<path d="M4.94664 18.2139C4.94664 19.2273 5.76903 20.0497 6.78236 20.0497C7.79569 20.0497 8.61807 19.2273 8.61807 18.2139C8.61807 17.2006 7.79569 16.3782 6.78236 16.3782C5.76903 16.3782 4.94664 17.2006 4.94664 18.2139ZM5.76093 18.2139C5.76093 17.6511 6.2195 17.1925 6.78236 17.1925C7.34522 17.1925 7.80379 17.6511 7.80379 18.2139C7.80379 18.7768 7.34522 19.2354 6.78236 19.2354C6.2195 19.2354 5.76093 18.7768 5.76093 18.2139Z" fill="white" fill-opacity="0.05"/>
<path d="M4.94664 18.2139C4.94664 19.2273 5.76903 20.0497 6.78236 20.0497C7.79569 20.0497 8.61807 19.2273 8.61807 18.2139C8.61807 17.2006 7.79569 16.3782 6.78236 16.3782C5.76903 16.3782 4.94664 17.2006 4.94664 18.2139ZM5.76093 18.2139C5.76093 17.6511 6.2195 17.1925 6.78236 17.1925C7.34522 17.1925 7.80379 17.6511 7.80379 18.2139C7.80379 18.7768 7.34522 19.2354 6.78236 19.2354C6.2195 19.2354 5.76093 18.7768 5.76093 18.2139Z" stroke="#121212" stroke-width="0.1"/>
<path d="M4.94664 18.2139C4.94664 19.2273 5.76903 20.0497 6.78236 20.0497C7.79569 20.0497 8.61807 19.2273 8.61807 18.2139C8.61807 17.2006 7.79569 16.3782 6.78236 16.3782C5.76903 16.3782 4.94664 17.2006 4.94664 18.2139ZM5.76093 18.2139C5.76093 17.6511 6.2195 17.1925 6.78236 17.1925C7.34522 17.1925 7.80379 17.6511 7.80379 18.2139C7.80379 18.7768 7.34522 19.2354 6.78236 19.2354C6.2195 19.2354 5.76093 18.7768 5.76093 18.2139Z" stroke="white" stroke-opacity="0.05" stroke-width="0.1"/>
<path d="M9.94965 18.2139C9.94965 19.2273 10.772 20.0497 11.7854 20.0497C12.7987 20.0497 13.6211 19.2273 13.6211 18.2139C13.6211 17.2006 12.7987 16.3782 11.7854 16.3782C10.772 16.3782 9.94965 17.2006 9.94965 18.2139ZM10.7639 18.2139C10.7639 17.6511 11.2225 17.1925 11.7854 17.1925C12.3482 17.1925 12.8068 17.6511 12.8068 18.2139C12.8068 18.7768 12.3482 19.2354 11.7854 19.2354C11.2225 19.2354 10.7639 18.7768 10.7639 18.2139Z" fill="#121212"/>
<path d="M9.94965 18.2139C9.94965 19.2273 10.772 20.0497 11.7854 20.0497C12.7987 20.0497 13.6211 19.2273 13.6211 18.2139C13.6211 17.2006 12.7987 16.3782 11.7854 16.3782C10.772 16.3782 9.94965 17.2006 9.94965 18.2139ZM10.7639 18.2139C10.7639 17.6511 11.2225 17.1925 11.7854 17.1925C12.3482 17.1925 12.8068 17.6511 12.8068 18.2139C12.8068 18.7768 12.3482 19.2354 11.7854 19.2354C11.2225 19.2354 10.7639 18.7768 10.7639 18.2139Z" fill="white" fill-opacity="0.05"/>
<path d="M9.94965 18.2139C9.94965 19.2273 10.772 20.0497 11.7854 20.0497C12.7987 20.0497 13.6211 19.2273 13.6211 18.2139C13.6211 17.2006 12.7987 16.3782 11.7854 16.3782C10.772 16.3782 9.94965 17.2006 9.94965 18.2139ZM10.7639 18.2139C10.7639 17.6511 11.2225 17.1925 11.7854 17.1925C12.3482 17.1925 12.8068 17.6511 12.8068 18.2139C12.8068 18.7768 12.3482 19.2354 11.7854 19.2354C11.2225 19.2354 10.7639 18.7768 10.7639 18.2139Z" stroke="#121212" stroke-width="0.1"/>
<path d="M9.94965 18.2139C9.94965 19.2273 10.772 20.0497 11.7854 20.0497C12.7987 20.0497 13.6211 19.2273 13.6211 18.2139C13.6211 17.2006 12.7987 16.3782 11.7854 16.3782C10.772 16.3782 9.94965 17.2006 9.94965 18.2139ZM10.7639 18.2139C10.7639 17.6511 11.2225 17.1925 11.7854 17.1925C12.3482 17.1925 12.8068 17.6511 12.8068 18.2139C12.8068 18.7768 12.3482 19.2354 11.7854 19.2354C11.2225 19.2354 10.7639 18.7768 10.7639 18.2139Z" stroke="white" stroke-opacity="0.05" stroke-width="0.1"/>
<path d="M14.9436 18.2139C14.9436 19.2273 15.766 20.0497 16.7794 20.0497C17.7927 20.0497 18.6151 19.2273 18.6151 18.2139C18.6151 17.2006 17.7927 16.3782 16.7794 16.3782C15.766 16.3782 14.9436 17.2006 14.9436 18.2139ZM15.7579 18.2139C15.7579 17.6511 16.2165 17.1925 16.7794 17.1925C17.3422 17.1925 17.8008 17.6511 17.8008 18.2139C17.8008 18.7768 17.3422 19.2354 16.7794 19.2354C16.2165 19.2354 15.7579 18.7768 15.7579 18.2139Z" fill="#121212"/>
<path d="M14.9436 18.2139C14.9436 19.2273 15.766 20.0497 16.7794 20.0497C17.7927 20.0497 18.6151 19.2273 18.6151 18.2139C18.6151 17.2006 17.7927 16.3782 16.7794 16.3782C15.766 16.3782 14.9436 17.2006 14.9436 18.2139ZM15.7579 18.2139C15.7579 17.6511 16.2165 17.1925 16.7794 17.1925C17.3422 17.1925 17.8008 17.6511 17.8008 18.2139C17.8008 18.7768 17.3422 19.2354 16.7794 19.2354C16.2165 19.2354 15.7579 18.7768 15.7579 18.2139Z" fill="white" fill-opacity="0.05"/>
<path d="M14.9436 18.2139C14.9436 19.2273 15.766 20.0497 16.7794 20.0497C17.7927 20.0497 18.6151 19.2273 18.6151 18.2139C18.6151 17.2006 17.7927 16.3782 16.7794 16.3782C15.766 16.3782 14.9436 17.2006 14.9436 18.2139ZM15.7579 18.2139C15.7579 17.6511 16.2165 17.1925 16.7794 17.1925C17.3422 17.1925 17.8008 17.6511 17.8008 18.2139C17.8008 18.7768 17.3422 19.2354 16.7794 19.2354C16.2165 19.2354 15.7579 18.7768 15.7579 18.2139Z" stroke="#121212" stroke-width="0.1"/>
<path d="M14.9436 18.2139C14.9436 19.2273 15.766 20.0497 16.7794 20.0497C17.7927 20.0497 18.6151 19.2273 18.6151 18.2139C18.6151 17.2006 17.7927 16.3782 16.7794 16.3782C15.766 16.3782 14.9436 17.2006 14.9436 18.2139ZM15.7579 18.2139C15.7579 17.6511 16.2165 17.1925 16.7794 17.1925C17.3422 17.1925 17.8008 17.6511 17.8008 18.2139C17.8008 18.7768 17.3422 19.2354 16.7794 19.2354C16.2165 19.2354 15.7579 18.7768 15.7579 18.2139Z" stroke="white" stroke-opacity="0.05" stroke-width="0.1"/>
<circle cx="11.7811" cy="18.2141" r="0.357143" fill="#121212"/>
<circle cx="11.7811" cy="18.2141" r="0.357143" fill="white" fill-opacity="0.05"/>
</svg>
