<svg width="17" height="19" viewBox="0 0 17 19" fill="none" xmlns="http://www.w3.org/2000/svg">
<mask id="path-1-inside-1_967_4200" fill="white">
<path d="M10.4792 15.1667H6.47917C2.85917 15.1667 1.3125 13.62 1.3125 10V6.00004C1.3125 2.38004 2.85917 0.833374 6.47917 0.833374H10.4792C14.0992 0.833374 15.6458 2.38004 15.6458 6.00004V10C15.6458 13.62 14.1058 15.1667 10.4792 15.1667ZM6.47917 1.83337C3.40583 1.83337 2.3125 2.92671 2.3125 6.00004V10C2.3125 13.0734 3.40583 14.1667 6.47917 14.1667H10.4792C13.5525 14.1667 14.6458 13.0734 14.6458 10V6.00004C14.6458 2.92671 13.5525 1.83337 10.4792 1.83337H6.47917Z"/>
</mask>
<path d="M10.4792 15.1667H6.47917C2.85917 15.1667 1.3125 13.62 1.3125 10V6.00004C1.3125 2.38004 2.85917 0.833374 6.47917 0.833374H10.4792C14.0992 0.833374 15.6458 2.38004 15.6458 6.00004V10C15.6458 13.62 14.1058 15.1667 10.4792 15.1667ZM6.47917 1.83337C3.40583 1.83337 2.3125 2.92671 2.3125 6.00004V10C2.3125 13.0734 3.40583 14.1667 6.47917 14.1667H10.4792C13.5525 14.1667 14.6458 13.0734 14.6458 10V6.00004C14.6458 2.92671 13.5525 1.83337 10.4792 1.83337H6.47917Z" fill="#005F73"/>
<path d="M10.4792 14.1667H6.47917V16.1667H10.4792V14.1667ZM6.47917 14.1667C4.78396 14.1667 3.81235 13.8007 3.24544 13.2338C2.67853 12.6669 2.3125 11.6952 2.3125 10H0.3125C0.3125 11.9248 0.719801 13.5366 1.83123 14.648C2.94265 15.7594 4.55438 16.1667 6.47917 16.1667V14.1667ZM2.3125 10V6.00004H0.3125V10H2.3125ZM2.3125 6.00004C2.3125 4.30483 2.67853 3.33322 3.24544 2.76631C3.81235 2.19941 4.78396 1.83337 6.47917 1.83337V-0.166626C4.55438 -0.166626 2.94265 0.240675 1.83123 1.3521C0.719801 2.46353 0.3125 4.07525 0.3125 6.00004H2.3125ZM6.47917 1.83337H10.4792V-0.166626H6.47917V1.83337ZM10.4792 1.83337C12.1744 1.83337 13.146 2.19941 13.7129 2.76631C14.2798 3.33322 14.6458 4.30483 14.6458 6.00004H16.6458C16.6458 4.07525 16.2385 2.46353 15.1271 1.3521C14.0157 0.240675 12.404 -0.166626 10.4792 -0.166626V1.83337ZM14.6458 6.00004V10H16.6458V6.00004H14.6458ZM14.6458 10C14.6458 11.6963 14.281 12.6676 13.715 13.2341C13.1493 13.8005 12.1782 14.1667 10.4792 14.1667V16.1667C12.4068 16.1667 14.0191 15.7596 15.13 14.6476C16.2407 13.5358 16.6458 11.9238 16.6458 10H14.6458ZM6.47917 0.833374C4.87195 0.833374 3.48448 1.10885 2.53623 2.0571C1.58797 3.00535 1.3125 4.39282 1.3125 6.00004H3.3125C3.3125 4.53393 3.58369 3.83806 3.95044 3.47131C4.31719 3.10457 5.01305 2.83337 6.47917 2.83337V0.833374ZM1.3125 6.00004V10H3.3125V6.00004H1.3125ZM1.3125 10C1.3125 11.6073 1.58797 12.9947 2.53623 13.943C3.48448 14.8912 4.87195 15.1667 6.47917 15.1667V13.1667C5.01305 13.1667 4.31719 12.8955 3.95044 12.5288C3.58369 12.162 3.3125 11.4662 3.3125 10H1.3125ZM6.47917 15.1667H10.4792V13.1667H6.47917V15.1667ZM10.4792 15.1667C12.0864 15.1667 13.4739 14.8912 14.4221 13.943C15.3704 12.9947 15.6458 11.6073 15.6458 10H13.6458C13.6458 11.4662 13.3746 12.162 13.0079 12.5288C12.6411 12.8955 11.9453 13.1667 10.4792 13.1667V15.1667ZM15.6458 10V6.00004H13.6458V10H15.6458ZM15.6458 6.00004C15.6458 4.39282 15.3704 3.00535 14.4221 2.0571C13.4739 1.10885 12.0864 0.833374 10.4792 0.833374V2.83337C11.9453 2.83337 12.6411 3.10457 13.0079 3.47131C13.3746 3.83806 13.6458 4.53393 13.6458 6.00004H15.6458ZM10.4792 0.833374H6.47917V2.83337H10.4792V0.833374Z" fill="#005F73" mask="url(#path-1-inside-1_967_4200)"/>
<path d="M5.15391 6.68655C5.15391 8.59148 6.70215 10.1397 8.60708 10.1397C10.512 10.1397 12.0603 8.59148 12.0603 6.68655C12.0603 4.78162 10.512 3.23337 8.60708 3.23337C6.70215 3.23337 5.15391 4.78162 5.15391 6.68655ZM5.82179 6.68655C5.82179 5.15097 7.0715 3.90126 8.60708 3.90126C10.1427 3.90126 11.3924 5.15097 11.3924 6.68655C11.3924 8.22213 10.1427 9.47184 8.60708 9.47184C7.0715 9.47184 5.82179 8.22213 5.82179 6.68655Z" fill="#005F73" stroke="#005F73" stroke-width="0.2"/>
<path d="M8.63232 7.38694L8.63236 7.38696L9.59738 7.96286C9.65347 7.99954 9.71335 8.01246 9.7691 8.01246C9.88171 8.01246 9.99166 7.95402 10.0566 7.85005L10.0567 7.85007L10.0582 7.84744C10.1501 7.68988 10.1035 7.48443 9.9416 7.38966L8.97503 6.81284L8.97503 6.81283L8.974 6.81223C8.94674 6.79641 8.91009 6.75757 8.87931 6.70345C8.8486 6.64945 8.83351 6.59743 8.83351 6.56495V5.28607C8.83351 5.10295 8.68268 4.95212 8.49957 4.95212C8.31645 4.95212 8.16562 5.10295 8.16562 5.28607V6.56495C8.16562 6.87768 8.36185 7.22536 8.63232 7.38694Z" fill="#005F73" stroke="#005F73" stroke-width="0.2"/>
<path d="M5.95806 12.431H7.42326C7.57472 12.431 7.69304 12.2968 7.69304 12.1429C7.69304 11.989 7.57472 11.8548 7.42326 11.8548H5.95806C5.80661 11.8548 5.68828 11.989 5.68828 12.1429C5.68828 12.2968 5.80661 12.431 5.95806 12.431Z" fill="#005F73" stroke="#005F73" stroke-width="0.1"/>
<path d="M9.294 12.431H10.7592C10.9107 12.431 11.029 12.2968 11.029 12.1429C11.029 11.989 10.9107 11.8548 10.7592 11.8548H9.294C9.14255 11.8548 9.02422 11.989 9.02422 12.1429C9.02422 12.2968 9.14255 12.431 9.294 12.431Z" fill="#005F73" stroke="#005F73" stroke-width="0.1"/>
<path d="M3.78203 12.1427C3.78203 12.8275 4.33775 13.3832 5.02251 13.3832C5.70727 13.3832 6.26298 12.8275 6.26298 12.1427C6.26298 11.458 5.70727 10.9023 5.02251 10.9023C4.33775 10.9023 3.78203 11.458 3.78203 12.1427ZM4.35822 12.1427C4.35822 11.7767 4.65647 11.4785 5.02251 11.4785C5.38854 11.4785 5.68679 11.7767 5.68679 12.1427C5.68679 12.5088 5.38854 12.807 5.02251 12.807C4.65647 12.807 4.35822 12.5088 4.35822 12.1427Z" fill="#005F73" stroke="#005F73" stroke-width="0.1"/>
<path d="M7.11797 12.1427C7.11797 12.8275 7.67369 13.3832 8.35845 13.3832C9.0432 13.3832 9.59892 12.8275 9.59892 12.1427C9.59892 11.458 9.0432 10.9023 8.35845 10.9023C7.67369 10.9023 7.11797 11.458 7.11797 12.1427ZM7.69416 12.1427C7.69416 11.7767 7.99241 11.4785 8.35845 11.4785C8.72448 11.4785 9.02273 11.7767 9.02273 12.1427C9.02273 12.5088 8.72448 12.807 8.35845 12.807C7.99241 12.807 7.69416 12.5088 7.69416 12.1427Z" fill="#005F73" stroke="#005F73" stroke-width="0.1"/>
<path d="M10.4461 12.1427C10.4461 12.8275 11.0018 13.3832 11.6866 13.3832C12.3713 13.3832 12.927 12.8275 12.927 12.1427C12.927 11.458 12.3713 10.9023 11.6866 10.9023C11.0018 10.9023 10.4461 11.458 10.4461 12.1427ZM11.0223 12.1427C11.0223 11.7767 11.3205 11.4785 11.6866 11.4785C12.0526 11.4785 12.3509 11.7767 12.3509 12.1427C12.3509 12.5088 12.0526 12.807 11.6866 12.807C11.3205 12.807 11.0223 12.5088 11.0223 12.1427Z" fill="#005F73" stroke="#005F73" stroke-width="0.1"/>
<circle cx="12.2829" cy="18.2143" r="0.357143" fill="#005F73"/>
</svg>
