<svg width="17" height="16" viewBox="0 0 17 16" fill="none" xmlns="http://www.w3.org/2000/svg">
<path fill-rule="evenodd" clip-rule="evenodd" d="M3.94771 8.0004C3.94771 7.49231 4.0321 7.0052 4.18271 6.54831L1.54644 4.53516C1.03264 5.57836 0.743164 6.75382 0.743164 8.0004C0.743164 9.24591 1.03229 10.4207 1.54537 11.4632L4.18022 9.44609C4.03103 8.99133 3.94771 8.506 3.94771 8.0004Z" fill="#FBBC05"/>
<path fill-rule="evenodd" clip-rule="evenodd" d="M8.57498 3.37773C9.67877 3.37773 10.6757 3.76885 11.4591 4.40885L13.7379 2.13329C12.3492 0.924401 10.5689 0.177734 8.57498 0.177734C5.47939 0.177734 2.81891 1.94805 1.54492 4.53471L4.18119 6.54787C4.78863 4.70396 6.52016 3.37773 8.57498 3.37773Z" fill="#EB4335"/>
<path fill-rule="evenodd" clip-rule="evenodd" d="M8.57498 12.6223C6.52016 12.6223 4.78863 11.2961 4.18119 9.45215L1.54492 11.4649C2.81891 14.052 5.47939 15.8223 8.57498 15.8223C10.4856 15.8223 12.3097 15.1439 13.6788 13.8728L11.1764 11.9382C10.4703 12.383 9.58121 12.6223 8.57498 12.6223Z" fill="#34A853"/>
<path fill-rule="evenodd" clip-rule="evenodd" d="M16.0534 8.00035C16.0534 7.53812 15.9822 7.04035 15.8754 6.57812H8.57617V9.60035H12.7777C12.5676 10.6307 11.9958 11.4229 11.1776 11.9385L13.6799 13.8731C15.1181 12.5383 16.0534 10.55 16.0534 8.00035Z" fill="#4285F4"/>
</svg>
