<svg width="40" height="40" viewBox="0 0 40 40" fill="none" xmlns="http://www.w3.org/2000/svg">
<path d="M15.9998 33.9166C12.4253 33.9166 9.98886 33.117 8.43583 31.564C6.88279 30.0109 6.08317 27.5745 6.08317 24V16C6.08317 12.4254 6.88279 9.98898 8.43583 8.43595C9.98886 6.88291 12.4253 6.08329 15.9998 6.08329H23.9998C27.5744 6.08329 30.0108 6.88291 31.5639 8.43595C33.1169 9.98898 33.9165 12.4254 33.9165 16C33.9165 16.3151 33.6483 16.5833 33.3332 16.5833C33.018 16.5833 32.7498 16.3151 32.7498 16C32.7498 12.97 32.2194 10.7184 30.7504 9.24939C29.2814 7.78038 27.0298 7.24996 23.9998 7.24996H15.9998C12.9699 7.24996 10.7183 7.78038 9.24927 9.24939C7.78026 10.7184 7.24984 12.97 7.24984 16V24C7.24984 27.0299 7.78026 29.2815 9.24927 30.7505C10.7183 32.2195 12.9699 32.75 15.9998 32.75C16.315 32.75 16.5832 33.0182 16.5832 33.3333C16.5832 33.6484 16.315 33.9166 15.9998 33.9166Z" fill="#005F73" stroke="#005F73" stroke-width="1.33333"/>
<path d="M13.3166 28.5C13.0499 28.5 12.7666 28.4166 12.5332 28.2333C11.0832 27.0833 10.3999 25.25 10.3999 22.5V17.5C10.3999 12.6666 12.6499 10.4166 17.4832 10.4166H22.4832C25.2332 10.4166 27.0499 11.1 28.2166 12.55C28.6499 13.0833 28.5499 13.8833 28.0166 14.3C27.4832 14.7333 26.6832 14.65 26.2666 14.1C25.8666 13.5833 25.0332 12.9166 22.4999 12.9166H17.4999C14.0332 12.9166 12.9166 14.0333 12.9166 17.5V22.5C12.9166 25.0333 13.5999 25.8666 14.0999 26.2666C14.6332 26.7 14.7332 27.4833 14.2999 28.0166C14.0499 28.3333 13.6832 28.5 13.3166 28.5Z" fill="#005F73"/>
<path d="M13.3501 7.91671C12.6501 7.91671 12.1001 7.35004 12.1001 6.66671V3.33337C12.1001 2.65004 12.6668 2.08337 13.3501 2.08337C14.0334 2.08337 14.6001 2.65004 14.6001 3.33337V6.66671C14.6001 7.35004 14.0334 7.91671 13.3501 7.91671Z" fill="#005F73"/>
<path d="M20 7.91671C19.3167 7.91671 18.75 7.35004 18.75 6.66671V3.33337C18.75 2.65004 19.3167 2.08337 20 2.08337C20.6833 2.08337 21.25 2.65004 21.25 3.33337V6.66671C21.25 7.35004 20.6833 7.91671 20 7.91671Z" fill="#005F73"/>
<path d="M26.6665 7.91671C25.9832 7.91671 25.4165 7.35004 25.4165 6.66671V3.33337C25.4165 2.65004 25.9832 2.08337 26.6665 2.08337C27.3498 2.08337 27.9165 2.65004 27.9165 3.33337V6.66671C27.9165 7.35004 27.3498 7.91671 26.6665 7.91671Z" fill="#005F73"/>
<path d="M36.6668 14.5834H33.3335C32.6502 14.5834 32.0835 14.0167 32.0835 13.3334C32.0835 12.65 32.6502 12.0834 33.3335 12.0834H36.6668C37.3502 12.0834 37.9168 12.65 37.9168 13.3334C37.9168 14.0167 37.3668 14.5834 36.6668 14.5834Z" fill="#005F73"/>
<path d="M13.3501 37.9167C12.6668 37.9167 12.1001 37.35 12.1001 36.6667V33.3334C12.1001 32.65 12.6668 32.0834 13.3501 32.0834C14.0334 32.0834 14.6001 32.65 14.6001 33.3334V36.6667C14.6001 37.35 14.0334 37.9167 13.3501 37.9167Z" fill="#005F73"/>
<path d="M6.66683 14.5834H3.3335C2.65016 14.5834 2.0835 14.0334 2.0835 13.3334C2.0835 12.6334 2.65016 12.0834 3.3335 12.0834H6.66683C7.35016 12.0834 7.91683 12.65 7.91683 13.3334C7.91683 14.0167 7.36683 14.5834 6.66683 14.5834Z" fill="#005F73"/>
<path d="M6.66683 21.25H3.3335C2.65016 21.25 2.0835 20.6833 2.0835 20C2.0835 19.3167 2.65016 18.75 3.3335 18.75H6.66683C7.35016 18.75 7.91683 19.3167 7.91683 20C7.91683 20.6833 7.36683 21.25 6.66683 21.25Z" fill="#005F73"/>
<path d="M6.66683 27.9166H3.3335C2.65016 27.9166 2.0835 27.35 2.0835 26.6666C2.0835 25.9833 2.65016 25.4166 3.3335 25.4166H6.66683C7.35016 25.4166 7.91683 25.9833 7.91683 26.6666C7.91683 27.35 7.36683 27.9166 6.66683 27.9166Z" fill="#005F73"/>
<path d="M27.8497 32.2332C25.6997 32.2332 23.9497 30.4832 23.9497 28.3332C23.9497 26.1832 25.6997 24.4332 27.8497 24.4332C29.9997 24.4332 31.7497 26.1832 31.7497 28.3332C31.733 30.4832 29.9997 32.2332 27.8497 32.2332ZM27.8497 26.9332C27.083 26.9332 26.4497 27.5666 26.4497 28.3332C26.4497 29.0999 27.083 29.7332 27.8497 29.7332C28.6164 29.7332 29.2497 29.0999 29.2497 28.3332C29.233 27.5666 28.6164 26.9332 27.8497 26.9332Z" fill="#005F73"/>
<path d="M30.6667 37.9167C29.7333 37.9167 28.8167 37.4334 28.3167 36.5667L28.2 36.3834C28.0167 36.0667 27.8667 35.9834 27.8333 35.9667C27.8167 35.9667 27.65 36.0667 27.4667 36.3834L27.3667 36.5501C26.6 37.8667 24.9167 38.3001 23.6333 37.5334L22.1333 36.6667C21.45 36.2834 20.9667 35.6501 20.7667 34.8834C20.5667 34.1334 20.6667 33.3334 21.05 32.6667C21.2333 32.3501 21.2333 32.1667 21.2167 32.1334C21.2 32.1167 21.05 32.0334 20.6833 32.0334C19.0667 32.0334 17.75 30.7167 17.75 29.1167V27.5667C17.75 25.9501 19.0667 24.6501 20.6667 24.6501C21.0333 24.6501 21.1833 24.5501 21.2167 24.5334C21.2167 24.5167 21.2167 24.3334 21.0333 24.0167C20.65 23.3334 20.5333 22.5501 20.75 21.8001C20.95 21.0501 21.4333 20.4167 22.1167 20.0167L23.6333 19.1334C24.9 18.3834 26.5833 18.8167 27.3333 20.1167L27.4333 20.3001C27.6167 20.6167 27.7667 20.7001 27.8 20.7167C27.8167 20.7167 27.9833 20.6167 28.1667 20.3001L28.2667 20.1334C29.05 18.8167 30.7167 18.3834 32 19.1501L33.55 20.0001C34.2333 20.3834 34.7167 21.0167 34.9167 21.7834C35.1167 22.5334 35.0167 23.3334 34.6333 24.0001C34.45 24.3167 34.45 24.5001 34.4667 24.5334C34.4833 24.5501 34.6333 24.6334 35 24.6334C36.6167 24.6334 37.9333 25.9501 37.9333 27.5501V29.1001C37.9333 30.7167 36.6167 32.0167 35.0167 32.0167C34.65 32.0167 34.5 32.1167 34.4667 32.1334C34.4667 32.1501 34.4667 32.3334 34.65 32.6501C35.0333 33.3334 35.15 34.1167 34.9333 34.8667C34.7333 35.6167 34.25 36.2501 33.5667 36.6501L32.05 37.5334C31.6 37.7834 31.1333 37.9167 30.6667 37.9167ZM27.85 33.4667C28.85 33.4667 29.7667 34.0667 30.3833 35.1334L30.4833 35.3167C30.5333 35.4001 30.6667 35.4501 30.7667 35.3834L32.3 34.5001C32.4333 34.4334 32.4833 34.3001 32.5 34.2334C32.5167 34.1667 32.5333 34.0501 32.4667 33.9167C31.85 32.8667 31.8 31.7667 32.3 30.9001C32.8 30.0334 33.7833 29.5334 35 29.5334C35.2333 29.5334 35.4333 29.3334 35.4333 29.1167V27.5667C35.4333 27.3334 35.2333 27.1501 35.0167 27.1501C33.8 27.1501 32.8 26.6501 32.3167 25.7834C31.8167 24.9167 31.8833 23.8167 32.4833 22.7667C32.5667 22.6334 32.55 22.5001 32.5167 22.4501C32.5 22.3834 32.45 22.2667 32.3167 22.1834L30.8 21.3001C30.6833 21.2334 30.55 21.2834 30.4833 21.3834L30.4 21.5334C29.7833 22.6001 28.8667 23.2001 27.8667 23.2001C26.8667 23.2001 25.95 22.6001 25.3333 21.5334L25.2333 21.3667C25.1833 21.2667 25.0333 21.2334 24.95 21.2834L23.4167 22.1667C23.2833 22.2334 23.2333 22.3667 23.2167 22.4334C23.2 22.5001 23.1833 22.6167 23.25 22.7501C23.8667 23.8001 23.9167 24.9001 23.4167 25.7667C22.9167 26.6334 21.9333 27.1334 20.7167 27.1334C20.4833 27.1334 20.2833 27.3334 20.2833 27.5501V29.1001C20.2833 29.3334 20.4833 29.5167 20.7 29.5167C21.9167 29.5167 22.9167 30.0167 23.4 30.8834C23.9 31.7501 23.8333 32.8501 23.2333 33.9001C23.1667 34.0334 23.1833 34.1501 23.2 34.2167C23.2167 34.2834 23.2667 34.4001 23.4 34.4834L24.9167 35.3667C25.0333 35.4334 25.1667 35.3834 25.2333 35.2834L25.3167 35.1167C25.9167 34.0667 26.85 33.4667 27.85 33.4667Z" fill="#005F73"/>
</svg>
