<svg width="25" height="25" viewBox="0 0 25 25" fill="none" xmlns="http://www.w3.org/2000/svg">
<rect x="0.375" y="0.102295" width="24" height="24" rx="8" fill="#E5E5E5"/>
<path d="M10.5267 19.269C10.5201 19.269 10.5134 19.269 10.5001 19.269C9.38007 19.2623 8.58007 18.2556 8.01341 17.3823C6.56674 15.1623 6.2734 12.369 7.32007 10.749C8.02007 9.6623 9.15341 8.98896 10.2734 8.98896C10.8534 8.98896 11.3067 9.14897 11.7067 9.29564C12.0267 9.40897 12.3001 9.50895 12.5867 9.50895C12.8401 9.50895 13.0601 9.4223 13.3401 9.31564C13.7267 9.16897 14.2001 8.98896 14.8867 8.98896C15.8734 8.98896 16.8365 9.48597 17.5934 10.409C18.3551 11.3378 18.4135 12.7948 18.4534 13.3622C18.4836 13.7987 18.2127 15.3438 18.0134 15.7423C17.7201 16.3956 17.5734 16.6956 17.1934 17.2823C16.5601 18.2556 15.7601 19.2556 14.6667 19.269C14.1934 19.269 13.8734 19.129 13.5934 18.9956C13.3134 18.869 13.0401 18.769 12.6067 18.7556C12.1401 18.7556 11.8934 18.869 11.6067 18.9956C11.3134 19.129 10.9934 19.269 10.5267 19.269ZM12.2534 8.85563C12.2334 8.85563 12.2067 8.85563 12.1867 8.85563C11.9534 8.84897 11.7534 8.67564 11.7134 8.4423C11.5734 7.68897 11.8401 6.82229 12.4201 6.11562C12.9534 5.46896 13.8334 4.98896 14.6134 4.93563C14.8867 4.9223 15.1067 5.10231 15.1401 5.36231C15.2534 6.14231 15.0067 6.99563 14.4534 7.70897C13.9134 8.40897 13.0534 8.85563 12.2534 8.85563Z" fill="url(#paint0_linear_691_102658)"/>
<defs>
<linearGradient id="paint0_linear_691_102658" x1="7.04046" y1="18.4726" x2="23.6201" y2="18.1203" gradientUnits="userSpaceOnUse">
<stop stop-color="#005F73"/>
<stop offset="1" stop-color="#6CC24A"/>
</linearGradient>
</defs>
</svg>
