<svg width="25" height="25" viewBox="0 0 25 25" fill="none" xmlns="http://www.w3.org/2000/svg">
<rect x="0.125" y="0.102295" width="24" height="24" rx="8" fill="#E5E5E5"/>
<g clip-path="url(#clip0_691_102667)">
<path opacity="0.993" fill-rule="evenodd" clip-rule="evenodd" d="M10.1094 20.0867C9.88022 20.0867 9.65103 20.0867 9.42188 20.0867C8.44566 19.8289 7.92481 19.1934 7.85938 18.1804C6.85834 17.9034 6.24897 17.2576 6.03125 16.2429C6.026 15.9507 6.01038 15.6591 5.98438 15.3679C4.96535 15.099 4.34035 14.4532 4.10938 13.4304C4.10938 12.9721 4.10938 12.5138 4.10938 12.0554C4.34063 11.0325 4.96563 10.3866 5.98438 10.1179C5.8909 9.1737 6.19299 8.38726 6.89062 7.75857C7.18086 7.54057 7.50378 7.38954 7.85938 7.30545C7.91653 6.37306 8.38528 5.75327 9.26562 5.44607C10.3166 5.25062 11.0718 5.63083 11.5312 6.5867C11.5753 6.69785 11.6065 6.81243 11.625 6.93045C11.6458 9.48254 11.6458 12.0346 11.625 14.5867C11.5358 14.9259 11.3327 15.1707 11.0156 15.3211C10.7859 15.3732 10.5568 15.4253 10.3281 15.4773C10.1097 15.6315 10.0523 15.8346 10.1562 16.0867C10.2114 16.1796 10.2895 16.2473 10.3906 16.2898C10.8391 16.3404 11.2505 16.2415 11.625 15.9929C11.6458 16.8471 11.6458 17.7013 11.625 18.5554C11.4258 19.3744 10.9206 19.8849 10.1094 20.0867Z" fill="url(#paint0_linear_691_102667)"/>
<path opacity="0.993" fill-rule="evenodd" clip-rule="evenodd" d="M20.1094 12.0554C20.1094 12.5137 20.1094 12.9721 20.1094 13.4304C19.878 14.4535 19.253 15.0993 18.2344 15.3679C18.3458 16.4623 17.95 17.3113 17.0469 17.9148C16.8284 18.031 16.5993 18.1196 16.3594 18.1804C16.2921 19.195 15.7713 19.8304 14.7969 20.0866C14.5677 20.0866 14.3385 20.0866 14.1094 20.0866C13.2965 19.8831 12.7913 19.3727 12.5938 18.5554C12.5729 16.0033 12.5729 13.4512 12.5938 10.8991C12.7058 10.5059 12.9558 10.2455 13.3438 10.1179C13.5302 10.0996 13.7124 10.0631 13.8906 10.0085C14.1438 9.80086 14.175 9.5613 13.9844 9.28977C13.9323 9.25852 13.8802 9.22727 13.8281 9.19602C13.3774 9.13614 12.9659 9.23508 12.5938 9.49289C12.5729 8.63874 12.5729 7.78455 12.5938 6.93039C12.9005 5.81202 13.6349 5.30681 14.7969 5.41477C15.7774 5.66125 16.2983 6.29145 16.3594 7.30539C17.3604 7.58246 17.9698 8.22827 18.1875 9.24289C18.1928 9.53511 18.2084 9.82677 18.2344 10.1179C19.2531 10.3866 19.8781 11.0324 20.1094 12.0554Z" fill="url(#paint1_linear_691_102667)"/>
</g>
<defs>
<linearGradient id="paint0_linear_691_102667" x1="4.3304" y1="19.2706" x2="14.9508" y2="19.1295" gradientUnits="userSpaceOnUse">
<stop stop-color="#005F73"/>
<stop offset="1" stop-color="#6CC24A"/>
</linearGradient>
<linearGradient id="paint1_linear_691_102667" x1="12.7992" y1="19.2707" x2="23.4195" y2="19.1297" gradientUnits="userSpaceOnUse">
<stop stop-color="#005F73"/>
<stop offset="1" stop-color="#6CC24A"/>
</linearGradient>
<clipPath id="clip0_691_102667">
<rect width="16" height="16" fill="white" transform="translate(4.125 4.10229)"/>
</clipPath>
</defs>
</svg>
