<svg width="20" height="20" viewBox="0 0 20 20" fill="none" xmlns="http://www.w3.org/2000/svg">
<path d="M12.4998 18.5416H7.49984C5.28517 18.5416 3.80394 18.0669 2.86842 17.1314C1.93291 16.1959 1.45817 14.7146 1.45817 12.5V7.49996C1.45817 5.28529 1.93291 3.80406 2.86842 2.86855C3.80394 1.93303 5.28517 1.45829 7.49984 1.45829H12.4998C14.7145 1.45829 16.1957 1.93303 17.1313 2.86855C18.0668 3.80406 18.5415 5.28529 18.5415 7.49996V12.5C18.5415 14.7146 18.0668 16.1959 17.1313 17.1314C16.1957 18.0669 14.7145 18.5416 12.4998 18.5416ZM7.49984 1.87496C5.54961 1.87496 4.10344 2.21752 3.16042 3.16054C2.2174 4.10356 1.87484 5.54973 1.87484 7.49996V12.5C1.87484 14.4502 2.2174 15.8964 3.16042 16.8394C4.10344 17.7824 5.54961 18.125 7.49984 18.125H12.4998C14.4501 18.125 15.8962 17.7824 16.8393 16.8394C17.7823 15.8964 18.1248 14.4502 18.1248 12.5V7.49996C18.1248 5.54973 17.7823 4.10356 16.8393 3.16054C15.8962 2.21752 14.4501 1.87496 12.4998 1.87496H7.49984Z" fill="#005F73" stroke="#005F73" stroke-width="0.833333"/>
<path d="M8.81621 12.9834C8.64954 12.9834 8.49121 12.9167 8.37454 12.8001L6.01621 10.4417C5.77454 10.2001 5.77454 9.80008 6.01621 9.55841C6.25788 9.31675 6.65788 9.31675 6.89954 9.55841L8.81621 11.4751L13.0995 7.19175C13.3412 6.95008 13.7412 6.95008 13.9829 7.19175C14.2245 7.43341 14.2245 7.83341 13.9829 8.07508L9.25788 12.8001C9.14121 12.9167 8.98288 12.9834 8.81621 12.9834Z" fill="#005F73"/>
</svg>
