<svg width="198" height="69" viewBox="0 0 198 69" fill="none" xmlns="http://www.w3.org/2000/svg">
<path d="M99.5845 68.1023C64.3956 68.1023 35.7357 39.5837 35.4954 4.4513H3.42969V3.57512H36.3716V4.01321C36.3716 38.8771 64.7348 67.2261 99.5845 67.2261C134.434 67.2261 162.797 38.863 162.797 4.01321V3.57512H194.439V4.4513H163.674C163.433 39.5837 134.788 68.1023 99.5845 68.1023Z" fill="#005F73"/>
<path d="M194.268 0.748688C196.077 0.748688 197.533 2.21842 197.533 4.0132C197.533 5.80798 196.063 7.27771 194.268 7.27771C192.474 7.27771 191.004 5.80798 191.004 4.0132C191.004 2.21842 192.474 0.748688 194.268 0.748688Z" fill="#005F73"/>
<path d="M3.58483 0.748688C1.77592 0.748688 0.320312 2.21842 0.320312 4.0132C0.320312 5.80798 1.79005 7.27771 3.58483 7.27771C5.3796 7.27771 6.84934 5.80798 6.84934 4.0132C6.84934 2.21842 5.3796 0.748688 3.58483 0.748688Z" fill="#005F73"/>
</svg>
