<svg width="239" height="200" viewBox="0 0 239 200" fill="none" xmlns="http://www.w3.org/2000/svg">
<path fill-rule="evenodd" clip-rule="evenodd" d="M197.892 65C201.588 65 204.584 68.134 204.584 72C204.584 75.866 201.588 79 197.892 79H159.652C163.348 79 166.344 82.134 166.344 86C166.344 89.866 163.348 93 159.652 93H180.684C184.38 93 187.376 96.134 187.376 100C187.376 103.866 184.38 107 180.684 107H170.957C166.297 107 162.52 110.134 162.52 114C162.52 116.577 164.432 118.911 168.256 121C171.952 121 174.948 124.134 174.948 128C174.948 131.866 171.952 135 168.256 135H88.9076C85.2118 135 82.2156 131.866 82.2156 128C82.2156 124.134 85.2118 121 88.9076 121H51.6236C47.9278 121 44.9316 117.866 44.9316 114C44.9316 110.134 47.9278 107 51.6236 107H89.8636C93.5595 107 96.5556 103.866 96.5556 100C96.5556 96.134 93.5595 93 89.8636 93H65.9636C62.2678 93 59.2716 89.866 59.2716 86C59.2716 82.134 62.2678 79 65.9636 79H104.204C100.508 79 97.5116 75.866 97.5116 72C97.5116 68.134 100.508 65 104.204 65H197.892ZM197.892 93C201.588 93 204.584 96.134 204.584 100C204.584 103.866 201.588 107 197.892 107C194.196 107 191.2 103.866 191.2 100C191.2 96.134 194.196 93 197.892 93Z" fill="#FDFDFD"/>
<path d="M143.42 123.75H115.58C100.391 123.75 97.3827 114.579 102.313 103.414L107.533 91.5601C107.533 91.5601 118.625 91.1251 129.5 94.7501C140.375 98.3751 150.634 91.5239 150.634 91.5239L151.323 91.0889L156.724 103.45C161.581 114.615 158.391 123.75 143.42 123.75Z" fill="url(#paint0_linear_11213_224760)"/>
<path opacity="0.4" d="M151.322 91.0887L150.633 91.5238C150.633 91.5238 140.375 98.375 129.5 94.75C118.625 91.125 107.532 91.56 107.532 91.56L117.682 68.4325H116.595C114.238 68.4325 112.063 67.49 110.505 65.9313C108.946 64.3725 108.003 62.1975 108.003 59.8412C108.003 55.1287 111.846 51.25 116.595 51.25H142.368C144.761 51.25 146.9 52.2288 148.458 53.7875C150.488 55.8175 151.54 58.79 150.742 61.9437C149.8 65.8587 146.03 68.4325 141.97 68.4325H141.39L151.322 91.0887Z" fill="url(#paint1_linear_11213_224760)"/>
<defs>
<linearGradient id="paint0_linear_11213_224760" x1="101.853" y1="121.936" x2="184.465" y2="118.09" gradientUnits="userSpaceOnUse">
<stop stop-color="#005F73"/>
<stop offset="1" stop-color="#6CC24A"/>
</linearGradient>
<linearGradient id="paint1_linear_11213_224760" x1="108.817" y1="93.3328" x2="170.54" y2="91.7617" gradientUnits="userSpaceOnUse">
<stop stop-color="#005F73"/>
<stop offset="1" stop-color="#6CC24A"/>
</linearGradient>
</defs>
</svg>
