<svg width="240" height="200" viewBox="0 0 240 200" fill="none" xmlns="http://www.w3.org/2000/svg">
<path fill-rule="evenodd" clip-rule="evenodd" d="M198.392 65C202.088 65 205.084 68.134 205.084 72C205.084 75.866 202.088 79 198.392 79H160.152C163.848 79 166.844 82.134 166.844 86C166.844 89.866 163.848 93 160.152 93H181.184C184.88 93 187.876 96.134 187.876 100C187.876 103.866 184.88 107 181.184 107H171.458C166.798 107 163.02 110.134 163.02 114C163.02 116.577 164.932 118.911 168.756 121C172.452 121 175.448 124.134 175.448 128C175.448 131.866 172.452 135 168.756 135H89.4081C85.7122 135 82.7161 131.866 82.7161 128C82.7161 124.134 85.7122 121 89.4081 121H52.1241C48.4282 121 45.4321 117.866 45.4321 114C45.4321 110.134 48.4282 107 52.1241 107H90.3641C94.06 107 97.0561 103.866 97.0561 100C97.0561 96.134 94.06 93 90.3641 93H66.4641C62.7682 93 59.7721 89.866 59.7721 86C59.7721 82.134 62.7682 79 66.4641 79H104.704C101.008 79 98.0121 75.866 98.0121 72C98.0121 68.134 101.008 65 104.704 65H198.392ZM198.392 93C202.088 93 205.084 96.134 205.084 100C205.084 103.866 202.088 107 198.392 107C194.696 107 191.7 103.866 191.7 100C191.7 96.134 194.696 93 198.392 93Z" fill="#FDFDFD"/>
<path opacity="0.4" d="M166.25 72.3112V102.689C166.25 115.884 158.384 123.75 145.189 123.75H130V51.25H145.189C158.384 51.25 166.25 59.1162 166.25 72.3112Z" fill="url(#paint0_linear_11214_225059)"/>
<path d="M130 51.25V123.75H114.811C101.616 123.75 93.75 115.884 93.75 102.689V72.3112C93.75 59.1162 101.616 51.25 114.811 51.25H130Z" fill="url(#paint1_linear_11214_225059)"/>
<defs>
<linearGradient id="paint0_linear_11214_225059" x1="131.064" y1="119.722" x2="182.183" y2="119.06" gradientUnits="userSpaceOnUse">
<stop stop-color="#005F73"/>
<stop offset="1" stop-color="#6CC24A"/>
</linearGradient>
<linearGradient id="paint1_linear_11214_225059" x1="94.8139" y1="119.722" x2="145.933" y2="119.06" gradientUnits="userSpaceOnUse">
<stop stop-color="#005F73"/>
<stop offset="1" stop-color="#6CC24A"/>
</linearGradient>
</defs>
</svg>
