<svg width="240" height="200" viewBox="0 0 240 200" fill="none" xmlns="http://www.w3.org/2000/svg">
<path fill-rule="evenodd" clip-rule="evenodd" d="M198.392 65C202.088 65 205.084 68.134 205.084 72C205.084 75.866 202.088 79 198.392 79H160.152C163.848 79 166.844 82.134 166.844 86C166.844 89.866 163.848 93 160.152 93H181.184C184.88 93 187.876 96.134 187.876 100C187.876 103.866 184.88 107 181.184 107H171.458C166.798 107 163.02 110.134 163.02 114C163.02 116.577 164.932 118.911 168.756 121C172.452 121 175.448 124.134 175.448 128C175.448 131.866 172.452 135 168.756 135H89.4079C85.712 135 82.7159 131.866 82.7159 128C82.7159 124.134 85.712 121 89.4079 121H52.1239C48.428 121 45.4319 117.866 45.4319 114C45.4319 110.134 48.428 107 52.1239 107H90.3639C94.0598 107 97.0559 103.866 97.0559 100C97.0559 96.134 94.0598 93 90.3639 93H66.4639C62.768 93 59.7719 89.866 59.7719 86C59.7719 82.134 62.768 79 66.4639 79H104.704C101.008 79 98.0119 75.866 98.0119 72C98.0119 68.134 101.008 65 104.704 65H198.392ZM198.392 93C202.088 93 205.084 96.134 205.084 100C205.084 103.866 202.088 107 198.392 107C194.696 107 191.7 103.866 191.7 100C191.7 96.134 194.696 93 198.392 93Z" fill="#FDFDFD"/>
<path d="M162.516 102H151.859C147.255 102 144.5 104.755 144.5 109.359V120.016C144.5 124.62 147.255 127.375 151.859 127.375H162.516C167.12 127.375 169.875 124.62 169.875 120.016V109.359C169.875 104.755 167.12 102 162.516 102ZM164.909 110.881L156.318 120.922C155.991 121.321 155.484 121.575 154.976 121.575C154.94 121.575 154.94 121.575 154.904 121.575C154.396 121.575 153.925 121.394 153.562 121.031L149.611 117.116C148.886 116.391 148.886 115.195 149.611 114.47C150.336 113.745 151.532 113.709 152.257 114.47L154.795 116.971L162.045 108.489C162.734 107.691 163.894 107.619 164.691 108.271C165.489 108.924 165.561 110.12 164.909 110.881Z" fill="url(#paint0_linear_11214_227070)"/>
<path opacity="0.4" d="M144.5 120.016V109.359C144.5 104.755 147.255 102 151.859 102H162.516C163.966 102 165.199 102.29 166.25 102.797C166.25 102.761 166.25 102.725 166.25 102.653V72.3113C166.25 59.1162 158.384 51.25 145.189 51.25H114.811C101.616 51.25 93.75 59.1162 93.75 72.3113V102.653C93.75 115.884 101.616 123.75 114.811 123.75H145.153C145.189 123.75 145.225 123.75 145.297 123.75C144.79 122.699 144.5 121.466 144.5 120.016Z" fill="url(#paint1_linear_11214_227070)"/>
<path d="M111.875 95.6562C110.389 95.6562 109.156 94.4237 109.156 92.9375V82.0625C109.156 80.5762 110.389 79.3438 111.875 79.3438C113.361 79.3438 114.594 80.5762 114.594 82.0625V92.9375C114.594 94.4237 113.361 95.6562 111.875 95.6562Z" fill="url(#paint2_linear_11214_227070)"/>
<path d="M130 95.6562C128.514 95.6562 127.281 94.4237 127.281 92.9375V82.0625C127.281 80.5762 128.514 79.3438 130 79.3438C131.486 79.3438 132.719 80.5762 132.719 82.0625V92.9375C132.719 94.4237 131.486 95.6562 130 95.6562Z" fill="#F7F7F7"/>
<path d="M148.125 95.6562C146.639 95.6562 145.406 94.4237 145.406 92.9375V82.0625C145.406 80.5762 146.639 79.3438 148.125 79.3438C149.611 79.3438 150.844 80.5762 150.844 82.0625V92.9375C150.844 94.4237 149.611 95.6562 148.125 95.6562Z" fill="#F7F7F7"/>
<defs>
<linearGradient id="paint0_linear_11214_227070" x1="145.245" y1="125.965" x2="181.01" y2="125.039" gradientUnits="userSpaceOnUse">
<stop stop-color="#005F73"/>
<stop offset="1" stop-color="#6CC24A"/>
</linearGradient>
<linearGradient id="paint1_linear_11214_227070" x1="95.8777" y1="119.722" x2="198.065" y2="117.075" gradientUnits="userSpaceOnUse">
<stop stop-color="#005F73"/>
<stop offset="1" stop-color="#6CC24A"/>
</linearGradient>
<linearGradient id="paint2_linear_11214_227070" x1="109.316" y1="94.75" x2="116.984" y2="94.6838" gradientUnits="userSpaceOnUse">
<stop stop-color="#005F73"/>
<stop offset="1" stop-color="#6CC24A"/>
</linearGradient>
</defs>
</svg>
