<svg width="134" height="108" viewBox="0 0 134 108" fill="none" xmlns="http://www.w3.org/2000/svg">
<path fill-rule="evenodd" clip-rule="evenodd" d="M110.951 35.1016C113.024 35.1016 114.703 36.7939 114.703 38.8816C114.703 40.9692 113.024 42.6616 110.951 42.6616H89.5114C91.5836 42.6616 93.2634 44.3539 93.2634 46.4416C93.2634 48.5292 91.5836 50.2216 89.5114 50.2216H101.303C103.376 50.2216 105.055 51.9139 105.055 54.0016C105.055 56.0892 103.376 57.7816 101.303 57.7816H95.8502C93.2374 57.7816 91.1194 59.4739 91.1194 61.5616C91.1194 62.9533 92.1914 64.2133 94.3354 65.3416C96.4076 65.3416 98.0874 67.0339 98.0874 69.1216C98.0874 71.2092 96.4076 72.9016 94.3354 72.9016H49.8474C47.7752 72.9016 46.0954 71.2092 46.0954 69.1216C46.0954 67.0339 47.7752 65.3416 49.8474 65.3416H28.9434C26.8712 65.3416 25.1914 63.6492 25.1914 61.5616C25.1914 59.4739 26.8712 57.7816 28.9434 57.7816H50.3834C52.4556 57.7816 54.1354 56.0892 54.1354 54.0016C54.1354 51.9139 52.4556 50.2216 50.3834 50.2216H36.9834C34.9112 50.2216 33.2314 48.5292 33.2314 46.4416C33.2314 44.3539 34.9112 42.6616 36.9834 42.6616H58.4234C56.3512 42.6616 54.6714 40.9692 54.6714 38.8816C54.6714 36.7939 56.3512 35.1016 58.4234 35.1016H110.951ZM110.951 50.2216C113.024 50.2216 114.703 51.9139 114.703 54.0016C114.703 56.0892 113.024 57.7816 110.951 57.7816C108.879 57.7816 107.199 56.0892 107.199 54.0016C107.199 51.9139 108.879 50.2216 110.951 50.2216Z" fill="#F4F4F4"/>
<path opacity="0.4" d="M78.9253 29.9727H58.0786C52.0065 29.9727 47.0898 34.9139 47.0898 40.9614V64.0943C47.0898 70.1418 52.0311 75.0831 58.0786 75.0831H78.9007C84.9728 75.0831 89.8894 70.1418 89.8894 64.0943V40.9614C89.914 34.8893 84.9728 29.9727 78.9253 29.9727Z" fill="#292D32"/>
<path d="M74.2785 25.918H62.7244C60.1677 25.918 58.0781 27.983 58.0781 30.5396V32.8505C58.0781 35.4071 60.1431 37.4721 62.6998 37.4721H74.2785C76.8352 37.4721 78.9002 35.4071 78.9002 32.8505V30.5396C78.9248 27.983 76.8352 25.918 74.2785 25.918Z" fill="url(#paint0_linear_12217_309354)"/>
<path d="M74.7199 59.3986L71.1554 55.834L74.597 52.3923C75.3099 51.6794 75.3099 50.4994 74.597 49.7865C73.8841 49.0736 72.7041 49.0736 71.9912 49.7865L68.5495 53.2282L64.9849 49.6636C64.272 48.9507 63.092 48.9507 62.3791 49.6636C61.6662 50.3765 61.6662 51.5565 62.3791 52.2694L65.9437 55.834L62.2808 59.4969C61.5679 60.2098 61.5679 61.3898 62.2808 62.1028C62.6495 62.4715 63.1166 62.6436 63.5837 62.6436C64.0508 62.6436 64.5179 62.4715 64.8866 62.1028L68.5495 58.4398L72.1141 62.0044C72.4829 62.3732 72.9499 62.5453 73.417 62.5453C73.8841 62.5453 74.3512 62.3732 74.7199 62.0044C75.4329 61.2915 75.4329 60.1361 74.7199 59.3986Z" fill="url(#paint1_linear_12217_309354)"/>
<defs>
<linearGradient id="paint0_linear_12217_309354" x1="58.6892" y1="36.8302" x2="87.9935" y2="35.4624" gradientUnits="userSpaceOnUse">
<stop stop-color="#005F73"/>
<stop offset="1" stop-color="#6CC24A"/>
</linearGradient>
<linearGradient id="paint1_linear_12217_309354" x1="62.1425" y1="61.8928" x2="81.1825" y2="61.3998" gradientUnits="userSpaceOnUse">
<stop stop-color="#005F73"/>
<stop offset="1" stop-color="#6CC24A"/>
</linearGradient>
</defs>
</svg>
