<svg width="134" height="108" viewBox="0 0 134 108" fill="none" xmlns="http://www.w3.org/2000/svg">
<path fill-rule="evenodd" clip-rule="evenodd" d="M110.951 35.1C113.024 35.1 114.703 36.7923 114.703 38.88C114.703 40.9676 113.024 42.66 110.951 42.66H89.5114C91.5836 42.66 93.2634 44.3523 93.2634 46.44C93.2634 48.5276 91.5836 50.22 89.5114 50.22H101.303C103.376 50.22 105.055 51.9123 105.055 54C105.055 56.0876 103.376 57.78 101.303 57.78H95.8502C93.2374 57.78 91.1194 59.4723 91.1194 61.56C91.1194 62.9517 92.1914 64.2117 94.3354 65.34C96.4076 65.34 98.0874 67.0323 98.0874 69.12C98.0874 71.2076 96.4076 72.9 94.3354 72.9H49.8474C47.7752 72.9 46.0954 71.2076 46.0954 69.12C46.0954 67.0323 47.7752 65.34 49.8474 65.34H28.9434C26.8712 65.34 25.1914 63.6476 25.1914 61.56C25.1914 59.4723 26.8712 57.78 28.9434 57.78H50.3834C52.4556 57.78 54.1354 56.0876 54.1354 54C54.1354 51.9123 52.4556 50.22 50.3834 50.22H36.9834C34.9112 50.22 33.2314 48.5276 33.2314 46.44C33.2314 44.3523 34.9112 42.66 36.9834 42.66H58.4234C56.3512 42.66 54.6714 40.9676 54.6714 38.88C54.6714 36.7923 56.3512 35.1 58.4234 35.1H110.951ZM110.951 50.22C113.024 50.22 114.703 51.9123 114.703 54C114.703 56.0876 113.024 57.78 110.951 57.78C108.879 57.78 107.199 56.0876 107.199 54C107.199 51.9123 108.879 50.22 110.951 50.22Z" fill="#F4F4F4"/>
<path opacity="0.4" d="M93.2473 48.665L90.8381 58.9408C88.7731 67.8154 84.6923 71.4046 77.0223 70.6671C75.7931 70.5687 74.4656 70.3475 73.0398 70.0033L68.9098 69.02C58.6585 66.5862 55.4873 61.5221 57.8965 51.2463L60.3056 40.9458C60.7973 38.8563 61.3873 37.0371 62.1248 35.5375C65.001 29.5883 69.8931 27.9904 78.104 29.9325L82.2094 30.8913C92.5098 33.3004 95.6565 38.3892 93.2473 48.665Z" fill="url(#paint0_linear_11216_225921)"/>
<path d="M77.0231 70.6671C75.4989 71.6996 73.5814 72.56 71.246 73.3221L67.3618 74.6004C57.6023 77.7471 52.4643 75.1166 49.2931 65.3571L46.1464 55.6466C42.9998 45.8871 45.6056 40.7246 55.3652 37.5779L59.2493 36.2996C60.2573 35.98 61.216 35.7096 62.1256 35.5375C61.3881 37.0371 60.7981 38.8562 60.3064 40.9458L57.8973 51.2462C55.4881 61.5221 58.6593 66.5862 68.9106 69.02L73.0406 70.0033C74.4664 70.3475 75.7939 70.5687 77.0231 70.6671Z" fill="url(#paint1_linear_11216_225921)"/>
<defs>
<linearGradient id="paint0_linear_11216_225921" x1="58.2133" y1="68.449" x2="110.208" y2="67.2553" gradientUnits="userSpaceOnUse">
<stop stop-color="#005F73"/>
<stop offset="1" stop-color="#6CC24A"/>
</linearGradient>
<linearGradient id="paint1_linear_11216_225921" x1="45.8261" y1="73.6196" x2="91.138" y2="72.6841" gradientUnits="userSpaceOnUse">
<stop stop-color="#005F73"/>
<stop offset="1" stop-color="#6CC24A"/>
</linearGradient>
</defs>
</svg>
