<svg width="240" height="200" viewBox="0 0 240 200" fill="none" xmlns="http://www.w3.org/2000/svg">
<path fill-rule="evenodd" clip-rule="evenodd" d="M198.392 65C202.088 65 205.084 68.134 205.084 72C205.084 75.866 202.088 79 198.392 79H160.152C163.848 79 166.844 82.134 166.844 86C166.844 89.866 163.848 93 160.152 93H181.184C184.88 93 187.876 96.134 187.876 100C187.876 103.866 184.88 107 181.184 107H171.458C166.798 107 163.02 110.134 163.02 114C163.02 116.577 164.932 118.911 168.756 121C172.452 121 175.448 124.134 175.448 128C175.448 131.866 172.452 135 168.756 135H89.4081C85.7122 135 82.7161 131.866 82.7161 128C82.7161 124.134 85.7122 121 89.4081 121H52.1241C48.4282 121 45.4321 117.866 45.4321 114C45.4321 110.134 48.4282 107 52.1241 107H90.3641C94.06 107 97.0561 103.866 97.0561 100C97.0561 96.134 94.06 93 90.3641 93H66.4641C62.7682 93 59.7721 89.866 59.7721 86C59.7721 82.134 62.7682 79 66.4641 79H104.704C101.008 79 98.0121 75.866 98.0121 72C98.0121 68.134 101.008 65 104.704 65H198.392ZM198.392 93C202.088 93 205.084 96.134 205.084 100C205.084 103.866 202.088 107 198.392 107C194.696 107 191.7 103.866 191.7 100C191.7 96.134 194.696 93 198.392 93Z" fill="#FDFDFD"/>
<path opacity="0.4" d="M165.38 101.71L142.18 59.95C139.062 54.3313 134.749 51.25 130 51.25C125.251 51.25 120.937 54.3313 117.82 59.95L94.62 101.71C91.6837 107.039 91.3575 112.15 93.7137 116.174C96.07 120.198 100.71 122.409 106.8 122.409H153.2C159.29 122.409 163.93 120.198 166.286 116.174C168.642 112.15 168.316 107.002 165.38 101.71Z" fill="url(#paint0_linear_11214_227016)"/>
<path d="M130 97.4688C128.514 97.4688 127.281 96.2362 127.281 94.75V76.625C127.281 75.1387 128.514 73.9062 130 73.9062C131.486 73.9062 132.719 75.1387 132.719 76.625V94.75C132.719 96.2362 131.486 97.4688 130 97.4688Z" fill="url(#paint1_linear_11214_227016)"/>
<path d="M130 109.25C129.783 109.25 129.529 109.214 129.275 109.178C129.058 109.141 128.84 109.069 128.622 108.96C128.405 108.888 128.187 108.779 127.97 108.634C127.789 108.489 127.607 108.344 127.426 108.199C126.774 107.51 126.375 106.568 126.375 105.625C126.375 104.683 126.774 103.74 127.426 103.051C127.607 102.906 127.789 102.761 127.97 102.616C128.187 102.471 128.405 102.363 128.622 102.29C128.84 102.181 129.058 102.109 129.275 102.073C129.746 101.964 130.254 101.964 130.689 102.073C130.942 102.109 131.16 102.181 131.378 102.29C131.595 102.363 131.813 102.471 132.03 102.616C132.211 102.761 132.392 102.906 132.574 103.051C133.226 103.74 133.625 104.683 133.625 105.625C133.625 106.568 133.226 107.51 132.574 108.199C132.392 108.344 132.211 108.489 132.03 108.634C131.813 108.779 131.595 108.888 131.378 108.96C131.16 109.069 130.942 109.141 130.689 109.178C130.471 109.214 130.217 109.25 130 109.25Z" fill="url(#paint2_linear_11214_227016)"/>
<defs>
<linearGradient id="paint0_linear_11214_227016" x1="94.3766" y1="118.455" x2="201.049" y2="115.517" gradientUnits="userSpaceOnUse">
<stop stop-color="#005F73"/>
<stop offset="1" stop-color="#6CC24A"/>
</linearGradient>
<linearGradient id="paint1_linear_11214_227016" x1="127.441" y1="96.1597" x2="135.11" y2="96.1139" gradientUnits="userSpaceOnUse">
<stop stop-color="#005F73"/>
<stop offset="1" stop-color="#6CC24A"/>
</linearGradient>
<linearGradient id="paint2_linear_11214_227016" x1="126.588" y1="108.847" x2="136.806" y2="108.582" gradientUnits="userSpaceOnUse">
<stop stop-color="#005F73"/>
<stop offset="1" stop-color="#6CC24A"/>
</linearGradient>
</defs>
</svg>
