<svg width="24" height="25" viewBox="0 0 24 25" fill="none" xmlns="http://www.w3.org/2000/svg">
<g opacity="0.6">
<path d="M8.725 14.167C8.725 14.4548 8.96216 14.692 9.25 14.692C9.53784 14.692 9.775 14.4548 9.775 14.167V10.667C9.775 10.3791 9.53784 10.142 9.25 10.142C8.96216 10.142 8.725 10.3791 8.725 10.667V14.167Z" fill="url(#paint0_linear_687_8082)" stroke="url(#paint1_linear_687_8082)" stroke-width="0.3"/>
<path d="M7.225 16.042C7.225 17.2298 8.18716 18.192 9.375 18.192C10.5628 18.192 11.525 17.2298 11.525 16.042C11.525 14.8541 10.5628 13.892 9.375 13.892C8.18716 13.892 7.225 14.8541 7.225 16.042ZM8.275 16.042C8.275 15.4348 8.76784 14.942 9.375 14.942C9.98216 14.942 10.475 15.4348 10.475 16.042C10.475 16.6491 9.98216 17.142 9.375 17.142C8.76784 17.142 8.275 16.6491 8.275 16.042Z" fill="url(#paint2_linear_687_8082)" stroke="url(#paint3_linear_687_8082)" stroke-width="0.3"/>
<path d="M7.225 9.16699C7.225 10.2848 8.13216 11.192 9.25 11.192C10.3678 11.192 11.275 10.2848 11.275 9.16699C11.275 8.04915 10.3678 7.14199 9.25 7.14199C8.13216 7.14199 7.225 8.04915 7.225 9.16699ZM8.275 9.16699C8.275 8.62983 8.71284 8.19199 9.25 8.19199C9.78716 8.19199 10.225 8.62983 10.225 9.16699C10.225 9.70415 9.78716 10.142 9.25 10.142C8.71284 10.142 8.275 9.70415 8.275 9.16699Z" fill="url(#paint4_linear_687_8082)" stroke="url(#paint5_linear_687_8082)" stroke-width="0.3"/>
<path d="M14.225 9.16699C14.225 10.2848 15.1322 11.192 16.25 11.192C17.3678 11.192 18.275 10.2848 18.275 9.16699C18.275 8.04915 17.3678 7.14199 16.25 7.14199C15.1322 7.14199 14.225 8.04915 14.225 9.16699ZM15.275 9.16699C15.275 8.62983 15.7128 8.19199 16.25 8.19199C16.7872 8.19199 17.225 8.62983 17.225 9.16699C17.225 9.70415 16.7872 10.142 16.25 10.142C15.7128 10.142 15.275 9.70415 15.275 9.16699Z" fill="url(#paint6_linear_687_8082)" stroke="url(#paint7_linear_687_8082)" stroke-width="0.3"/>
<path d="M9.18245 14.6776L9.18996 14.6795L9.19762 14.6806C9.20127 14.6811 9.20515 14.6817 9.20922 14.6823C9.23768 14.6865 9.27579 14.6921 9.31383 14.6921C9.54129 14.6921 9.76101 14.5413 9.81928 14.3038C9.99256 13.64 10.588 13.1771 11.2738 13.1771H11.2786H11.2788L12.9934 13.1821V13.1821L12.9954 13.1821C14.4806 13.1665 15.8334 12.239 16.3253 10.822C16.4241 10.5456 16.2735 10.2525 16.0045 10.1559C15.7278 10.0566 15.4343 10.2072 15.3376 10.4764L15.3371 10.4779C14.9932 11.4674 14.0552 12.1321 13.0088 12.1321H13.0088H13.0088H13.0087H13.0087H13.0087H13.0087H13.0086H13.0086H13.0086H13.0085H13.0085H13.0085H13.0085H13.0084H13.0084H13.0084H13.0084H13.0083H13.0083H13.0083H13.0082H13.0082H13.0082H13.0082H13.0081H13.0081H13.0081H13.0081H13.008H13.008H13.008H13.008H13.0079H13.0079H13.0079H13.0078H13.0078H13.0078H13.0078H13.0077H13.0077H13.0077H13.0077H13.0076H13.0076H13.0076H13.0076H13.0076H13.0075H13.0075H13.0075H13.0075H13.0074H13.0074H13.0074H13.0074H13.0073H13.0073H13.0073H13.0073H13.0072H13.0072H13.0072H13.0072H13.0072H13.0071H13.0071H13.0071H13.0071H13.007H13.007H13.007H13.007H13.0069H13.0069H13.0069H13.0069H13.0069H13.0068H13.0068H13.0068H13.0068H13.0068H13.0067H13.0067H13.0067H13.0067H13.0066H13.0066H13.0066H13.0066H13.0066H13.0065H13.0065H13.0065H13.0065H13.0065H13.0064H13.0064H13.0064H13.0064H13.0064H13.0063H13.0063H13.0063H13.0063H13.0063H13.0062H13.0062H13.0062H13.0062H13.0062H13.0061H13.0061H13.0061H13.0061H13.0061H13.0061H13.006H13.006H13.006H13.006H13.006H13.0059H13.0059H13.0059H13.0059H13.0059H13.0058H13.0058H13.0058H13.0058H13.0058H13.0058H13.0057H13.0057H13.0057H13.0057H13.0057H13.0056H13.0056H13.0056H13.0056H13.0056H13.0056H13.0055H13.0055H13.0055H13.0055H13.0055H13.0055H13.0054H13.0054H13.0054H13.0054H13.0054H13.0054H13.0053H13.0053H13.0053H13.0053H13.0053H13.0053H13.0052H13.0052H13.0052H13.0052H13.0052H13.0052H13.0051H13.0051H13.0051H13.0051H13.0051H13.0051H13.005H13.005H13.005H13.005H13.005H13.005H13.0049H13.0049H13.0049H13.0049H13.0049H13.0049H13.0049H13.0048H13.0048H13.0048H13.0048H13.0048H13.0048H13.0047H13.0047H13.0047H13.0047H13.0047H13.0047H13.0047H13.0046H13.0046H13.0046H13.0046H13.0046H13.0046H13.0045H13.0045H13.0045H13.0045H13.0045H13.0045H13.0045H13.0044H13.0044H13.0044H13.0044H13.0044H13.0044H13.0043H13.0043H13.0043H13.0043H13.0043H13.0043H13.0043H13.0042H13.0042H13.0042H13.0042H13.0042H13.0042H13.0042H13.0041H13.0041H13.0041H13.0041H13.0041H13.0041H13.0041H13.004H13.004H13.004H13.004H13.004H13.004H13.004H13.0039H13.0039H13.0039H13.0039H13.0039H13.0039H13.0038H13.0038H13.0038H13.0038H13.0038H13.0038H13.0038H13.0037H13.0037H13.0037H13.0037H13.0037H13.0037H13.0037H13.0036H13.0036H13.0036H13.0036H13.0036H13.0036H13.0036H13.0035H13.0035H13.0035H13.0035H13.0035H13.0035H13.0035H13.0034H13.0034H13.0034H13.0034H13.0034H13.0034H13.0033H13.0033H13.0033H13.0033H13.0033H13.0033H13.0033H13.0032H13.0032H13.0032H13.0032H13.0032H13.0032H13.0032H13.0031H13.0031H13.0031H13.0031H13.0031H13.0031H13.003H13.003H13.003H13.003H13.003H13.003H13.003H13.0029H13.0029H13.0029H13.0029H13.0029H13.0029H13.0028H13.0028H13.0028H13.0028H13.0028H13.0028H13.0028H13.0027H13.0027H13.0027H13.0027H13.0027H13.0027H13.0026H13.0026H13.0026H13.0026H13.0026H13.0026H13.0025H13.0025H13.0025H13.0025H13.0025H13.0025H13.0024H13.0024H13.0024H13.0024H13.0024H13.0024H13.0023H13.0023H13.0023H13.0023H13.0023H13.0023H13.0022H13.0022H13.0022H13.0022H13.0022H13.0022H13.0021H13.0021H13.0021H13.0021H13.0021H13.0021H13.002H13.002H13.002H13.002H13.002H13.0019H13.0019H13.0019H13.0019H13.0019H13.0019H13.0018H13.0018H13.0018H13.0018H13.0018H13.0017H13.0017H13.0017H13.0017H13.0017H13.0017H13.0016H13.0016H13.0016H13.0016H13.0016H13.0015H13.0015H13.0015H13.0015H13.0015H13.0014H13.0014H13.0014H13.0014H13.0014H13.0013H13.0013H13.0013H13.0013H13.0013H13.0012H13.0012H13.0012H13.0012H13.0012H13.0011H13.0011H13.0011H13.0011H13.0011H13.001H13.001H13.001H13.001H13.001H13.0009H13.0009H13.0009H13.0009H13.0008H13.0008H13.0008H13.0008H13.0008H13.0007H13.0007H13.0007H13.0007H13.0007H13.0006H13.0006H13.0006H13.0006H13.0005H13.0005H13.0005H13.0005H13.0004H13.0004H13.0004H13.0004H13.0004H13.0003H13.0003H13.0003H13.0003H13.0002H13.0002H13.0002H13.0002H13.0001H13.0001H13.0001H13.0001H13H13H13H13H12.9999H12.9999H12.9999H12.9999H12.9998H12.9998H12.9998H12.9998H12.9997H12.9997H12.9997H12.9997H12.9996H12.9996H12.9996H12.9996H12.9995H12.9995H12.9995H12.9995H12.9994H12.9994H12.9994H12.9993H12.9993H12.9993H12.9993H12.9992H12.9992H12.9992H12.9991H12.9991H12.9991H12.9991H12.999H12.999H12.999H12.9989H12.9989H12.9989H12.9989H12.9988L11.2843 12.1271H11.2838H11.2838H11.2838H11.2837H11.2837H11.2837H11.2837H11.2836H11.2836H11.2836H11.2835H11.2835H11.2835H11.2835H11.2834H11.2834H11.2834H11.2834H11.2833H11.2833H11.2833H11.2832H11.2832H11.2832H11.2832H11.2831H11.2831H11.2831H11.2831H11.283H11.283H11.283H11.283H11.2829H11.2829H11.2829H11.2828H11.2828H11.2828H11.2828H11.2827H11.2827H11.2827H11.2827H11.2826H11.2826H11.2826H11.2826H11.2826H11.2825H11.2825H11.2825H11.2825H11.2824H11.2824H11.2824H11.2824H11.2823H11.2823H11.2823H11.2823H11.2822H11.2822H11.2822H11.2822H11.2821H11.2821H11.2821H11.2821H11.2821H11.282H11.282H11.282H11.282H11.2819H11.2819H11.2819H11.2819H11.2819H11.2818H11.2818H11.2818H11.2818H11.2818H11.2817H11.2817H11.2817H11.2817H11.2816H11.2816H11.2816H11.2816H11.2816H11.2815H11.2815H11.2815H11.2815H11.2815H11.2814H11.2814H11.2814H11.2814H11.2814H11.2813H11.2813H11.2813H11.2813H11.2813H11.2812H11.2812H11.2812H11.2812H11.2812H11.2811H11.2811H11.2811H11.2811H11.2811H11.2811H11.281H11.281H11.281H11.281H11.281H11.2809H11.2809H11.2809H11.2809H11.2809H11.2808H11.2808H11.2808H11.2808H11.2808H11.2808H11.2807H11.2807H11.2807H11.2807H11.2807H11.2806H11.2806H11.2806H11.2806H11.2806H11.2806H11.2805H11.2805H11.2805H11.2805H11.2805H11.2805H11.2804H11.2804H11.2804H11.2804H11.2804H11.2804H11.2803H11.2803H11.2803H11.2803H11.2803H11.2803H11.2802H11.2802H11.2802H11.2802H11.2802H11.2802H11.2801H11.2801H11.2801H11.2801H11.2801H11.2801H11.28H11.28H11.28H11.28H11.28H11.28H11.2799H11.2799H11.2799H11.2799H11.2799H11.2799H11.2799H11.2798H11.2798H11.2798H11.2798H11.2798H11.2798H11.2797H11.2797H11.2797H11.2797H11.2797H11.2797H11.2797H11.2796H11.2796H11.2796H11.2796H11.2796H11.2796H11.2795H11.2795H11.2795H11.2795H11.2795H11.2795H11.2795H11.2794H11.2794H11.2794H11.2794H11.2794H11.2794H11.2793H11.2793H11.2793H11.2793H11.2793H11.2793H11.2793H11.2792H11.2792H11.2792H11.2792H11.2792H11.2792H11.2792H11.2791H11.2791H11.2791H11.2791H11.2791H11.2791H11.2791H11.279H11.279H11.279H11.279H11.279H11.279H11.2789H11.2789H11.2789H11.2789H11.2789H11.2789H11.2789H11.2788H11.2788H11.2788H11.2788H11.2788H11.2788H11.2788H11.2787H11.2787H11.2787H11.2787H11.2787H11.2787H11.2787H11.2786H11.2786H11.2786H11.2786H11.2786H11.2786H11.2786H11.2785H11.2785H11.2785H11.2785H11.2785H11.2785H11.2785H11.2784H11.2784H11.2784H11.2784H11.2784H11.2784H11.2783H11.2783H11.2783H11.2783H11.2783H11.2783H11.2783H11.2782H11.2782H11.2782H11.2782H11.2782H11.2782H11.2782H11.2781H11.2781H11.2781H11.2781H11.2781H11.2781H11.278H11.278H11.278H11.278H11.278H11.278H11.278H11.2779H11.2779H11.2779H11.2779H11.2779H11.2779H11.2778H11.2778H11.2778H11.2778H11.2778H11.2778H11.2778H11.2777H11.2777H11.2777H11.2777H11.2777H11.2777H11.2776H11.2776H11.2776H11.2776H11.2776H11.2776H11.2775H11.2775H11.2775H11.2775H11.2775H11.2775H11.2774H11.2774H11.2774H11.2774H11.2774H11.2774H11.2773H11.2773H11.2773H11.2773H11.2773H11.2773H11.2772H11.2772H11.2772H11.2772H11.2772H11.2772H11.2771H11.2771H11.2771H11.2771H11.2771H11.2771H11.277H11.277H11.277H11.277H11.277H11.2769H11.2769H11.2769H11.2769H11.2769H11.2769H11.2768H11.2768H11.2768H11.2768H11.2768H11.2767H11.2767H11.2767H11.2767H11.2767H11.2767H11.2766H11.2766H11.2766H11.2766H11.2766H11.2765H11.2765H11.2765H11.2765H11.2765H11.2764H11.2764H11.2764H11.2764H11.2764H11.2763H11.2763H11.2763H11.2763H11.2763H11.2762H11.2762H11.2762H11.2762H11.2762H11.2761H11.2761H11.2761H11.2761H11.2761H11.276H11.276H11.276H11.276H11.276H11.2759H11.2759H11.2759H11.2759H11.2758H11.2758H11.2758H11.2758H11.2758H11.2757H11.2757H11.2757H11.2757H11.2757H11.2756H11.2756H11.2756H11.2756H11.2755H11.2755H11.2755H11.2755H11.2754H11.2754H11.2754H11.2754H11.2754H11.2753H11.2753H11.2753H11.2753H11.2752H11.2752H11.2752H11.2752H11.2751H11.2751H11.2751H11.2751H11.275H11.275H11.275H11.275H11.2749H11.2749H11.2749H11.2749H11.2748H11.2748H11.2748H11.2748H11.2747H11.2747H11.2747H11.2747H11.2746H11.2746H11.2746H11.2746H11.2745H11.2745H11.2745H11.2745H11.2744H11.2744H11.2744H11.2743H11.2743H11.2743H11.2743H11.2742H11.2742H11.2742H11.2741H11.2741H11.2741H11.2741H11.274H11.274H11.274H11.2739H11.2739H11.2739H11.2739H11.2738C10.1104 12.1271 9.09577 12.9134 8.80364 14.0395L8.80363 14.0395L8.80331 14.0407C8.73368 14.3193 8.90025 14.6071 9.18245 14.6776Z" fill="url(#paint8_linear_687_8082)" stroke="url(#paint9_linear_687_8082)" stroke-width="0.3"/>
<path d="M15 23.417H9C3.57 23.417 1.25 21.097 1.25 15.667V9.66699C1.25 4.23699 3.57 1.91699 9 1.91699H15C20.43 1.91699 22.75 4.23699 22.75 9.66699V15.667C22.75 21.097 20.43 23.417 15 23.417ZM9 3.41699C4.39 3.41699 2.75 5.05699 2.75 9.66699V15.667C2.75 20.277 4.39 21.917 9 21.917H15C19.61 21.917 21.25 20.277 21.25 15.667V9.66699C21.25 5.05699 19.61 3.41699 15 3.41699H9Z" fill="url(#paint10_linear_687_8082)"/>
</g>
<defs>
<linearGradient id="paint0_linear_687_8082" x1="8.89701" y1="14.3059" x2="9.9548" y2="14.301" gradientUnits="userSpaceOnUse">
<stop stop-color="#005F73"/>
<stop offset="1" stop-color="#6CC24A"/>
</linearGradient>
<linearGradient id="paint1_linear_687_8082" x1="8.89701" y1="14.3059" x2="9.9548" y2="14.301" gradientUnits="userSpaceOnUse">
<stop stop-color="#005F73"/>
<stop offset="1" stop-color="#6CC24A"/>
</linearGradient>
<linearGradient id="paint2_linear_687_8082" x1="7.49239" y1="17.8198" x2="13.1303" y2="17.6737" gradientUnits="userSpaceOnUse">
<stop stop-color="#005F73"/>
<stop offset="1" stop-color="#6CC24A"/>
</linearGradient>
<linearGradient id="paint3_linear_687_8082" x1="7.49239" y1="17.8198" x2="13.1303" y2="17.6737" gradientUnits="userSpaceOnUse">
<stop stop-color="#005F73"/>
<stop offset="1" stop-color="#6CC24A"/>
</linearGradient>
<linearGradient id="paint4_linear_687_8082" x1="7.48505" y1="10.8337" x2="12.7706" y2="10.6968" gradientUnits="userSpaceOnUse">
<stop stop-color="#005F73"/>
<stop offset="1" stop-color="#6CC24A"/>
</linearGradient>
<linearGradient id="paint5_linear_687_8082" x1="7.48505" y1="10.8337" x2="12.7706" y2="10.6968" gradientUnits="userSpaceOnUse">
<stop stop-color="#005F73"/>
<stop offset="1" stop-color="#6CC24A"/>
</linearGradient>
<linearGradient id="paint6_linear_687_8082" x1="14.4851" y1="10.8337" x2="19.7706" y2="10.6968" gradientUnits="userSpaceOnUse">
<stop stop-color="#005F73"/>
<stop offset="1" stop-color="#6CC24A"/>
</linearGradient>
<linearGradient id="paint7_linear_687_8082" x1="14.4851" y1="10.8337" x2="19.7706" y2="10.6968" gradientUnits="userSpaceOnUse">
<stop stop-color="#005F73"/>
<stop offset="1" stop-color="#6CC24A"/>
</linearGradient>
<linearGradient id="paint8_linear_687_8082" x1="9.1508" y1="14.3051" x2="19.3819" y2="13.8537" gradientUnits="userSpaceOnUse">
<stop stop-color="#005F73"/>
<stop offset="1" stop-color="#6CC24A"/>
</linearGradient>
<linearGradient id="paint9_linear_687_8082" x1="9.1508" y1="14.3051" x2="19.3819" y2="13.8537" gradientUnits="userSpaceOnUse">
<stop stop-color="#005F73"/>
<stop offset="1" stop-color="#6CC24A"/>
</linearGradient>
<linearGradient id="paint10_linear_687_8082" x1="1.88098" y1="22.2225" x2="32.1846" y2="21.4377" gradientUnits="userSpaceOnUse">
<stop stop-color="#005F73"/>
<stop offset="1" stop-color="#6CC24A"/>
</linearGradient>
</defs>
</svg>
