<svg width="16" height="16" viewBox="0 0 16 16" fill="none" xmlns="http://www.w3.org/2000/svg">
<path d="M7.83282 4.25664L7.83308 4.25807C7.83312 4.25811 7.83314 4.25812 7.83314 4.25812C7.83314 4.25812 7.83312 4.25811 7.83308 4.25808L7.83282 4.25664ZM7.83282 4.25664H7.83292H7.83305H7.83319H7.83332H7.83345H7.83359H7.83372H7.83386H7.83399H7.83412H7.83426H7.83439H7.83453H7.83466H7.83479H7.83493H7.83506H7.8352H7.83533H7.83547H7.8356H7.83574H7.83587H7.83601H7.83614H7.83627H7.83641H7.83654H7.83668H7.83681H7.83695H7.83708H7.83722H7.83736H7.83749H7.83763H7.83776H7.8379H7.83803H7.83817H7.8383H7.83844H7.83857H7.83871H7.83884H7.83898H7.83912H7.83925H7.83939H7.83952H7.83966H7.8398H7.83993H7.84007H7.8402H7.84034H7.84047H7.84061H7.84075H7.84088H7.84102H7.84116H7.84129H7.84143H7.84156H7.8417H7.84184H7.84197H7.84211H7.84225H7.84238H7.84252H7.84265H7.84279H7.84293H7.84306H7.8432H7.84334H7.84347H7.84361H7.84375H7.84388H7.84402H7.84416H7.84429H7.84443H7.84457H7.8447H7.84484H7.84498H7.84511H7.84525H7.84539H7.84552H7.84566H7.8458H7.84593H7.84607H7.84621H7.84634H7.84648H7.84662H7.84675H7.84689H7.84703H7.84716H7.8473H7.84744H7.84757H7.84771H7.84785H7.84798H7.84812H7.84826H7.84839H7.84853H7.84867H7.8488H7.84894H7.84908H7.84921H7.84935H7.84949H7.84962H7.84976H7.8499H7.85003H7.85017H7.85031H7.85044H7.85058H7.85072H7.85085H7.85099H7.85112H7.85126H7.8514H7.85153H7.85167H7.85181H7.85194H7.85208H7.85222H7.85235H7.85249H7.85262H7.85276H7.8529H7.85303H7.85317H7.85331H7.85344H7.85358H7.85371H7.85385H7.85399H7.85412H7.85426H7.85439H7.85453H7.85466H7.8548H7.85494H7.85507H7.85521H7.85534H7.85548H7.85561H7.85575H7.85589H7.85602H7.85616H7.85629H7.85643H7.85656H7.8567H7.85683H7.85697H7.8571H7.85724H7.85737H7.85751H7.85764H7.85778H7.85791H7.85805H7.85818H7.85832H7.85845H7.85859H7.85872H7.85886H7.85899H7.85912H7.85926H7.85939H7.85953H7.85966H7.8598H7.85993H7.86006H7.8602H7.86033H7.86046H7.8606H7.86073H7.86087H7.861H7.86113H7.86127H7.8614H7.86153H7.86167H7.8618H7.86193H7.86207H7.8622H7.86233H7.86246H7.8626H7.86273H7.86286H7.863H7.86313H7.86326H7.86339H7.86352H7.86366H7.86379H7.86392H7.86405H7.86419H7.86432H7.86445H7.86458H7.86471H7.86484H7.86498H7.86511H7.86524H7.86537H7.8655H7.86563H7.86576H7.86589H7.86602H7.86616H7.86629H7.86642H7.86655H7.86668H7.86681H7.86694H7.86707H7.8672H7.86733H7.86746H7.86759H7.86772H7.86785H7.86798H7.86811H7.86824H7.86836H7.86849H7.86862H7.86875H7.86888H7.86901H7.86914H7.86927H7.8694H7.86952H7.86965H7.86978H7.86991H7.87004H7.87016H7.87029H7.87042H7.87055H7.87067H7.8708H7.87093H7.87106H7.87118H7.87131H7.87144H7.87156H7.87169H7.87182H7.87194H7.87207H7.87219H7.87232H7.87245H7.87257H7.8727H7.87282H7.87295H7.87307H7.8732H7.87332H7.87345H7.87357H7.8737H7.87382H7.87395H7.87407H7.8742H7.87432H7.87445H7.87457H7.87469H7.87482H7.87494H7.87506H7.87519H7.87531H7.87543H7.87556H7.87568H7.8758H7.87592H7.87605H7.87617H7.87629H7.87641H7.87653H7.87666H7.87678H7.8769H7.87702H7.87714H7.87726H7.87738H7.8775H7.87762H7.87775H7.87787H7.87799H7.87811H7.87823H7.87835H7.87846H7.87858H7.8787H7.87882H7.87894H7.87906H7.87918H7.8793H7.87942H7.87954H7.87965H7.87977H7.87989H7.88001H7.88012H7.88024H7.88036C8.50854 4.25664 9.22836 3.89582 9.68447 3.30457L9.68529 3.30351C10.1671 2.68241 10.3632 1.96329 10.2723 1.33603C10.271 1.33596 10.2694 1.33592 10.2677 1.33594C9.64076 1.38133 8.88717 1.78407 8.43314 2.3343C7.92546 2.95308 7.72456 3.67414 7.83194 4.25195L7.83282 4.25664ZM4.0598 13.0112L4.05926 13.0103C3.37811 11.9651 2.97085 10.7872 2.85597 9.68959C2.74044 8.5858 2.92391 7.6071 3.367 6.92131L3.36736 6.92074C3.99139 5.952 4.97802 5.38996 5.90036 5.38996C6.38495 5.38996 6.7663 5.52115 7.16157 5.66608L7.16156 5.6661L7.16677 5.66795C7.18419 5.67412 7.20184 5.68041 7.2197 5.68676C7.50562 5.78855 7.84666 5.90996 8.21369 5.90996C8.55486 5.90996 8.8495 5.79707 9.09817 5.7018C9.11385 5.69579 9.12934 5.68986 9.14465 5.68402C9.52261 5.54066 9.92376 5.38996 10.5137 5.38996C11.3227 5.38996 12.1526 5.79642 12.8337 6.62701C13.1416 7.00238 13.3243 7.50906 13.4315 8.02405C13.5268 8.48159 13.5552 8.90516 13.5749 9.20003C13.5772 9.23441 13.5794 9.26704 13.5816 9.29778C13.5917 9.44461 13.5446 9.88064 13.4544 10.3784C13.4115 10.6153 13.3623 10.8475 13.3129 11.0412C13.2604 11.2471 13.2168 11.3723 13.1931 11.4197L13.1885 11.429L13.1842 11.4385C12.897 12.0782 12.7621 12.3535 12.401 12.911C12.0901 13.3888 11.7608 13.8366 11.3955 14.1646C11.0347 14.4885 10.6739 14.6644 10.2906 14.67C9.93193 14.6694 9.69421 14.5685 9.43533 14.4452L9.43537 14.4451L9.42644 14.4411C9.11053 14.2982 8.77038 14.1729 8.24907 14.1569L8.24138 14.1566H8.23369C7.67072 14.1566 7.34658 14.3 7.05078 14.4308C7.04438 14.4336 7.03799 14.4365 7.03161 14.4393L7.0316 14.4393L7.02679 14.4414C6.74487 14.5696 6.50727 14.67 6.15369 14.67H6.15366H6.15362H6.15358H6.15354H6.1535H6.15346H6.15342H6.15338H6.15334H6.1533H6.15327H6.15323H6.15319H6.15315H6.15311H6.15307H6.15303H6.15299H6.15295H6.15291H6.15287H6.15283H6.1528H6.15276H6.15272H6.15268H6.15264H6.1526H6.15256H6.15252H6.15248H6.15244H6.1524H6.15236H6.15233H6.15229H6.15225H6.15221H6.15217H6.15213H6.15209H6.15205H6.15201H6.15197H6.15193H6.15189H6.15185H6.15181H6.15177H6.15174H6.1517H6.15166H6.15162H6.15158H6.15154H6.1515H6.15146H6.15142H6.15138H6.15134H6.1513H6.15126H6.15122H6.15118H6.15114H6.1511H6.15106H6.15102H6.15098H6.15094H6.1509H6.15086H6.15082H6.15078H6.15074H6.1507H6.15066H6.15062H6.15058H6.15054H6.1505H6.15046H6.15042H6.15038H6.15034H6.1503H6.15026H6.15022H6.15018H6.15014H6.1501H6.15006H6.15002H6.14998H6.14994H6.1499H6.14986H6.14982H6.14978H6.14974H6.1497H6.14966H6.14962H6.14958H6.14954H6.1495H6.14945H6.14941H6.14937H6.14933H6.14929H6.14925H6.14921H6.14917H6.14913H6.14909H6.14904H6.149H6.14896H6.14892H6.14888H6.14884H6.1488H6.14876H6.14872H6.14867H6.14863H6.14859H6.14855H6.14851H6.14847H6.14842H6.14838H6.14834H6.1483H6.14826H6.14822H6.14817H6.14813H6.14809H6.14805H6.14801H6.14796H6.14792H6.14788H6.14784H6.14779H6.14775H6.14771H6.14767H6.14763H6.14758H6.14754H6.1475H6.14746H6.14741H6.14737H6.14733H6.14728H6.14724H6.1472H6.14716H6.14711H6.14707H6.14703H6.14698H6.14694H6.1469H6.14685H6.14681H6.14677H6.14672H6.14668H6.14664H6.14659H6.14655H6.14651H6.14646H6.14642H6.14637H6.14633H6.14629H6.14624H6.1462H6.14615H6.14611H6.14607H6.14602H6.14598H6.14593H6.14589H6.14584H6.1458H6.14575H6.14571H6.14566H6.14562H6.14557H6.14553H6.14548H6.14544H6.14539H6.14535H6.1453H6.14526H6.14521H6.14517H6.14512H6.14508H6.14503H6.14499H6.14494H6.14489H6.14485H6.1448H6.14476H6.14471H6.14466H6.14462H6.14457H6.14453H6.14448H6.14443H6.14439H6.14434H6.14429H6.14425H6.1442H6.14415H6.14411H6.14406H6.14401H6.14396H6.14392H6.14387H6.14382H6.14378H6.14373H6.14368H6.14363H6.14359H6.14354H6.14349H6.14344H6.14339H6.14335H6.1433H6.14325H6.1432H6.14315H6.1431H6.14306H6.14301H6.14296H6.14291H6.14286H6.14281H6.14276H6.14271H6.14267H6.14262H6.14257H6.14252H6.14247H6.14242H6.14237H6.14232H6.14227H6.14222H6.14217H6.14212H6.14207H6.14202H6.14197H6.14192H6.14187H6.14182H6.14177H6.14172H6.14167H6.14162H6.14157H6.14151H6.14146H6.14141H6.14136H6.14131H6.14126H6.14121H6.14116H6.1411H6.14105H6.141H6.14095H6.1409H6.14084H6.14079H6.14074H6.14069H6.14063H6.14058H6.14053H6.14048H6.14042H6.14037H6.14032H6.14027H6.14021H6.14016H6.14011H6.14005H6.14H6.13995H6.13989H6.13984H6.13978H6.13973H6.13968H6.13962H6.13957H6.13951H6.13946H6.1394H6.13935H6.13929H6.13924H6.13918H6.13913H6.13907H6.13902H6.13896H6.13891H6.13885H6.1388H6.13874H6.13869H6.13863H6.13857H6.13852H6.13846H6.1384H6.13835H6.13829H6.13824H6.13818H6.13812H6.13806H6.13801H6.13795H6.13789H6.13784H6.13778H6.13772H6.13766H6.13761H6.13755H6.13749H6.13743H6.13737H6.13731H6.13726H6.1372H6.13714H6.13708H6.13702H6.13696H6.1369H6.13684H6.13678H6.13673H6.13667H6.13661H6.13655H6.13649H6.13643H6.13637H6.13631H6.13625H6.13619H6.13613H6.13606H6.136H6.13594H6.13588H6.13582H6.13576H6.1357H6.13564H6.13558H6.13551H6.13545H6.13539H6.13533H6.13527H6.1352H6.13514H6.13508H6.13502H6.13495H6.13489H6.13483H6.13476H6.1347H6.13464H6.13457H6.13451H6.13445H6.13438H6.13432H6.13426H6.13419H6.13413H6.13406H6.134H6.13393H6.13387H6.1338H6.13374H6.13367H6.13361H6.13354H6.13348H6.13341H6.13335H6.13328H6.13321H6.13315H6.13308H6.13302H6.13295H6.13288H6.13282H6.13275H6.13268H6.13261H6.13255H6.13248H6.13241H6.13234H6.13228H6.13221H6.13214H6.13207H6.132H6.13193H6.13187H6.1318H6.13173H6.13166H6.13159H6.13152H6.13145H6.13138H6.13131H6.13124H6.13117H6.1311H6.13103H6.13096H6.13089H6.13082H6.13075H6.13068H6.13061H6.13054H6.13047H6.13039H6.13032H6.13025H6.13018H6.13011H6.13003H6.12996H6.12989H6.12982H6.12974H6.12967H6.1296H6.12952H6.12945H6.12938H6.1293H6.12923H6.12916H6.12908H6.12901H6.12893H6.12886H6.12878H6.12871H6.12867C5.72914 14.6672 5.36119 14.4885 5.00657 14.1763C4.64802 13.8607 4.3361 13.437 4.0598 13.0112Z" stroke="#888888"/>
</svg>
