<svg width="16" height="16" viewBox="0 0 16 16" fill="none" xmlns="http://www.w3.org/2000/svg">
<path d="M4.06024 13.0113L4.06078 13.0121C4.33707 13.4379 4.649 13.8617 5.00755 14.1773C5.36217 14.4895 5.73012 14.6682 6.12965 14.6709H6.12969H6.12976H6.12984H6.12991H6.12998H6.13006H6.13013H6.13021H6.13028H6.13035H6.13043H6.1305H6.13057H6.13065H6.13072H6.13079H6.13087H6.13094H6.13101H6.13108H6.13115H6.13123H6.1313H6.13137H6.13144H6.13151H6.13158H6.13166H6.13173H6.1318H6.13187H6.13194H6.13201H6.13208H6.13215H6.13222H6.13229H6.13236H6.13243H6.1325H6.13257H6.13264H6.1327H6.13277H6.13284H6.13291H6.13298H6.13305H6.13312H6.13318H6.13325H6.13332H6.13339H6.13346H6.13352H6.13359H6.13366H6.13372H6.13379H6.13386H6.13392H6.13399H6.13406H6.13412H6.13419H6.13426H6.13432H6.13439H6.13445H6.13452H6.13458H6.13465H6.13472H6.13478H6.13485H6.13491H6.13497H6.13504H6.1351H6.13517H6.13523H6.1353H6.13536H6.13542H6.13549H6.13555H6.13561H6.13568H6.13574H6.1358H6.13587H6.13593H6.13599H6.13606H6.13612H6.13618H6.13624H6.1363H6.13637H6.13643H6.13649H6.13655H6.13661H6.13667H6.13674H6.1368H6.13686H6.13692H6.13698H6.13704H6.1371H6.13716H6.13722H6.13728H6.13734H6.1374H6.13746H6.13752H6.13758H6.13764H6.1377H6.13776H6.13782H6.13788H6.13794H6.138H6.13806H6.13812H6.13817H6.13823H6.13829H6.13835H6.13841H6.13847H6.13852H6.13858H6.13864H6.1387H6.13875H6.13881H6.13887H6.13893H6.13898H6.13904H6.1391H6.13915H6.13921H6.13927H6.13932H6.13938H6.13944H6.13949H6.13955H6.13961H6.13966H6.13972H6.13977H6.13983H6.13988H6.13994H6.14H6.14005H6.14011H6.14016H6.14022H6.14027H6.14033H6.14038H6.14043H6.14049H6.14054H6.1406H6.14065H6.14071H6.14076H6.14081H6.14087H6.14092H6.14097H6.14103H6.14108H6.14114H6.14119H6.14124H6.14129H6.14135H6.1414H6.14145H6.14151H6.14156H6.14161H6.14166H6.14172H6.14177H6.14182H6.14187H6.14192H6.14198H6.14203H6.14208H6.14213H6.14218H6.14223H6.14229H6.14234H6.14239H6.14244H6.14249H6.14254H6.14259H6.14264H6.14269H6.14274H6.1428H6.14285H6.1429H6.14295H6.143H6.14305H6.1431H6.14315H6.1432H6.14325H6.1433H6.14335H6.1434H6.14344H6.14349H6.14354H6.14359H6.14364H6.14369H6.14374H6.14379H6.14384H6.14389H6.14394H6.14398H6.14403H6.14408H6.14413H6.14418H6.14423H6.14427H6.14432H6.14437H6.14442H6.14447H6.14451H6.14456H6.14461H6.14466H6.1447H6.14475H6.1448H6.14485H6.14489H6.14494H6.14499H6.14504H6.14508H6.14513H6.14518H6.14522H6.14527H6.14532H6.14536H6.14541H6.14546H6.1455H6.14555H6.14559H6.14564H6.14569H6.14573H6.14578H6.14583H6.14587H6.14592H6.14596H6.14601H6.14605H6.1461H6.14614H6.14619H6.14624H6.14628H6.14633H6.14637H6.14642H6.14646H6.14651H6.14655H6.1466H6.14664H6.14669H6.14673H6.14678H6.14682H6.14686H6.14691H6.14695H6.147H6.14704H6.14709H6.14713H6.14717H6.14722H6.14726H6.14731H6.14735H6.14739H6.14744H6.14748H6.14753H6.14757H6.14761H6.14766H6.1477H6.14774H6.14779H6.14783H6.14787H6.14792H6.14796H6.148H6.14805H6.14809H6.14813H6.14818H6.14822H6.14826H6.1483H6.14835H6.14839H6.14843H6.14847H6.14852H6.14856H6.1486H6.14864H6.14869H6.14873H6.14877H6.14881H6.14886H6.1489H6.14894H6.14898H6.14902H6.14907H6.14911H6.14915H6.14919H6.14923H6.14928H6.14932H6.14936H6.1494H6.14944H6.14948H6.14953H6.14957H6.14961H6.14965H6.14969H6.14973H6.14977H6.14982H6.14986H6.1499H6.14994H6.14998H6.15002H6.15006H6.1501H6.15014H6.15019H6.15023H6.15027H6.15031H6.15035H6.15039H6.15043H6.15047H6.15051H6.15055H6.15059H6.15063H6.15067H6.15072H6.15076H6.1508H6.15084H6.15088H6.15092H6.15096H6.151H6.15104H6.15108H6.15112H6.15116H6.1512H6.15124H6.15128H6.15132H6.15136H6.1514H6.15144H6.15148H6.15152H6.15156H6.1516H6.15164H6.15168H6.15172H6.15176H6.1518H6.15184H6.15188H6.15192H6.15196H6.152H6.15204H6.15208H6.15212H6.15216H6.1522H6.15224H6.15228H6.15232H6.15236H6.1524H6.15244H6.15248H6.15251H6.15255H6.15259H6.15263H6.15267H6.15271H6.15275H6.15279H6.15283H6.15287H6.15291H6.15295H6.15299H6.15303H6.15307H6.15311H6.15315H6.15318H6.15322H6.15326H6.1533H6.15334H6.15338H6.15342H6.15346H6.1535H6.15354H6.15358H6.15362H6.15365H6.15369H6.15373H6.15377H6.15381H6.15385H6.15389H6.15393H6.15397H6.15401H6.15405H6.15409H6.15412H6.15416H6.1542H6.15424H6.15428H6.15432H6.15436H6.1544H6.15444H6.15448H6.15452H6.15455H6.15459H6.15463H6.15467C6.50825 14.6709 6.74584 14.5706 7.02777 14.4424L7.03258 14.4402L7.03259 14.4403C7.03897 14.4374 7.04536 14.4346 7.05176 14.4318C7.34756 14.301 7.6717 14.1576 8.23467 14.1576H8.24236L8.25005 14.1579C8.77135 14.1739 9.11151 14.2991 9.42742 14.4421L9.43634 14.4461L9.4363 14.4462C9.69519 14.5695 9.93291 14.6704 10.2915 14.6709C10.6749 14.6654 11.0357 14.4895 11.3965 14.1656C11.7617 13.8377 12.091 13.3899 12.4018 12.9122C12.7631 12.3545 12.8979 12.0793 13.1852 11.4395L13.1895 11.43L13.1941 11.4207C13.2178 11.3733 13.2614 11.2481 13.3139 11.0421C13.3633 10.8485 13.4125 10.6162 13.4554 10.3794C13.5455 9.88203 13.5926 9.44632 13.5826 9.29912C13.5825 9.299 13.5825 9.29888 13.5825 9.29875L4.06024 13.0113ZM4.06024 13.0113C3.37909 11.966 2.97183 10.7881 2.85695 9.69056C2.74142 8.58677 2.92488 7.60808 3.36797 6.92228L3.36834 6.92171M4.06024 13.0113L3.36834 6.92171M3.36834 6.92171C3.99237 5.95298 4.979 5.39093 5.90134 5.39093C6.38593 5.39093 6.76728 5.52212 7.16254 5.66705L7.16253 5.66708M3.36834 6.92171L7.16253 5.66708M7.16253 5.66708L7.16775 5.66893M7.16253 5.66708L7.16775 5.66893M7.16775 5.66893C7.18517 5.6751 7.20282 5.68138 7.22068 5.68774M7.16775 5.66893L7.22068 5.68774M7.83379 4.25761L7.83406 4.25905C7.8341 4.25908 7.83412 4.2591 7.83412 4.2591C7.83412 4.2591 7.8341 4.25909 7.83406 4.25906L7.83379 4.25761ZM7.83379 4.25761H7.8339H7.83403H7.83416H7.8343H7.83443H7.83456H7.8347H7.83483H7.83497H7.8351H7.83523H7.83537H7.8355H7.83564H7.83577H7.83591H7.83604H7.83617H7.83631H7.83644H7.83658H7.83671H7.83685H7.83698H7.83712H7.83725H7.83739H7.83752H7.83766H7.83779H7.83793H7.83806H7.8382H7.83833H7.83847H7.8386H7.83874H7.83887H7.83901H7.83914H7.83928H7.83941H7.83955H7.83969H7.83982H7.83996H7.84009H7.84023H7.84036H7.8405H7.84064H7.84077H7.84091H7.84104H7.84118H7.84132H7.84145H7.84159H7.84172H7.84186H7.842H7.84213H7.84227H7.8424H7.84254H7.84268H7.84281H7.84295H7.84309H7.84322H7.84336H7.84349H7.84363H7.84377H7.8439H7.84404H7.84418H7.84431H7.84445H7.84459H7.84472H7.84486H7.845H7.84513H7.84527H7.84541H7.84554H7.84568H7.84582H7.84595H7.84609H7.84623H7.84636H7.8465H7.84664H7.84677H7.84691H7.84705H7.84718H7.84732H7.84746H7.84759H7.84773H7.84787H7.848H7.84814H7.84828H7.84841H7.84855H7.84869H7.84882H7.84896H7.8491H7.84923H7.84937H7.84951H7.84964H7.84978H7.84992H7.85005H7.85019H7.85033H7.85046H7.8506H7.85074H7.85087H7.85101H7.85115H7.85128H7.85142H7.85156H7.85169H7.85183H7.85197H7.8521H7.85224H7.85237H7.85251H7.85265H7.85278H7.85292H7.85306H7.85319H7.85333H7.85347H7.8536H7.85374H7.85387H7.85401H7.85415H7.85428H7.85442H7.85455H7.85469H7.85483H7.85496H7.8551H7.85523H7.85537H7.85551H7.85564H7.85578H7.85591H7.85605H7.85618H7.85632H7.85646H7.85659H7.85673H7.85686H7.857H7.85713H7.85727H7.8574H7.85754H7.85767H7.85781H7.85794H7.85808H7.85821H7.85835H7.85848H7.85862H7.85875H7.85889H7.85902H7.85916H7.85929H7.85943H7.85956H7.8597H7.85983H7.85997H7.8601H7.86023H7.86037H7.8605H7.86064H7.86077H7.86091H7.86104H7.86117H7.86131H7.86144H7.86158H7.86171H7.86184H7.86198H7.86211H7.86224H7.86238H7.86251H7.86264H7.86278H7.86291H7.86304H7.86318H7.86331H7.86344H7.86357H7.86371H7.86384H7.86397H7.8641H7.86424H7.86437H7.8645H7.86463H7.86477H7.8649H7.86503H7.86516H7.86529H7.86543H7.86556H7.86569H7.86582H7.86595H7.86608H7.86622H7.86635H7.86648H7.86661H7.86674H7.86687H7.867H7.86713H7.86726H7.86739H7.86752H7.86765H7.86778H7.86791H7.86804H7.86818H7.86831H7.86843H7.86856H7.86869H7.86882H7.86895H7.86908H7.86921H7.86934H7.86947H7.8696H7.86973H7.86986H7.86999H7.87011H7.87024H7.87037H7.8705H7.87063H7.87076H7.87088H7.87101H7.87114H7.87127H7.8714H7.87152H7.87165H7.87178H7.87191H7.87203H7.87216H7.87229H7.87241H7.87254H7.87267H7.87279H7.87292H7.87305H7.87317H7.8733H7.87342H7.87355H7.87367H7.8738H7.87393H7.87405H7.87418H7.8743H7.87443H7.87455H7.87468H7.8748H7.87493H7.87505H7.87517H7.8753H7.87542H7.87555H7.87567H7.87579H7.87592H7.87604H7.87616H7.87629H7.87641H7.87653H7.87666H7.87678H7.8769H7.87702H7.87714H7.87727H7.87739H7.87751H7.87763H7.87775H7.87788H7.878H7.87812H7.87824H7.87836H7.87848H7.8786H7.87872H7.87884H7.87896H7.87908H7.8792H7.87932H7.87944H7.87956H7.87968H7.8798H7.87992H7.88004H7.88016H7.88027H7.88039H7.88051H7.88063H7.88075H7.88087H7.88098H7.8811H7.88122H7.88134C8.50951 4.25761 9.22934 3.89679 9.68545 3.30554L9.68626 3.30448C10.1681 2.68338 10.3642 1.96427 10.2733 1.33701C10.2719 1.33693 10.2704 1.3369 10.2687 1.33692C9.64173 1.38231 8.88813 1.78506 8.4341 2.3353C7.92644 2.95407 7.72554 3.67512 7.83292 4.25293L7.83379 4.25761ZM7.22068 5.68774C7.50659 5.78952 7.84763 5.91093 8.21467 5.91093M7.22068 5.68774L8.21467 5.91093M8.21467 5.91093C8.55583 5.91093 8.85048 5.79805 9.09915 5.70277M8.21467 5.91093L9.09915 5.70277M9.09915 5.70277C9.11478 5.69678 9.13024 5.69086 9.14551 5.68504L9.09915 5.70277Z" stroke="#888888"/>
</svg>
