<svg width="16" height="16" viewBox="0 0 16 16" fill="none" xmlns="http://www.w3.org/2000/svg">
<path d="M12.567 7.8335H10.767C8.99366 7.8335 8.16699 7.00683 8.16699 5.2335V3.43349C8.16699 1.66016 8.99366 0.833496 10.767 0.833496H12.567C14.3403 0.833496 15.167 1.66016 15.167 3.43349V5.2335C15.167 7.00683 14.3403 7.8335 12.567 7.8335ZM10.767 1.8335C9.54033 1.8335 9.16699 2.20683 9.16699 3.43349V5.2335C9.16699 6.46017 9.54033 6.8335 10.767 6.8335H12.567C13.7937 6.8335 14.167 6.46017 14.167 5.2335V3.43349C14.167 2.20683 13.7937 1.8335 12.567 1.8335H10.767Z" fill="#888888"/>
<path d="M5.23301 15.1665H3.43301C1.65968 15.1665 0.833008 14.3398 0.833008 12.5665V10.7665C0.833008 8.99317 1.65968 8.1665 3.43301 8.1665H5.23301C7.00634 8.1665 7.83301 8.99317 7.83301 10.7665V12.5665C7.83301 14.3398 7.00634 15.1665 5.23301 15.1665ZM3.43301 9.1665C2.20634 9.1665 1.83301 9.53983 1.83301 10.7665V12.5665C1.83301 13.7932 2.20634 14.1665 3.43301 14.1665H5.23301C6.45967 14.1665 6.83301 13.7932 6.83301 12.5665V10.7665C6.83301 9.53983 6.45967 9.1665 5.23301 9.1665H3.43301Z" fill="#888888"/>
<path d="M9.08073 12.0874H7.33406C7.06073 12.0874 6.83406 11.8607 6.83406 11.5874V10.7674C6.83406 9.54073 6.46073 9.1674 5.23406 9.1674H4.41406C4.14073 9.1674 3.91406 8.94073 3.91406 8.6674V6.92074C3.91406 4.84074 4.84073 3.91406 6.92073 3.91406H8.66739C8.94073 3.91406 9.16739 4.14073 9.16739 4.41406V5.23407C9.16739 6.46074 9.54073 6.83407 10.7674 6.83407H11.5874C11.8607 6.83407 12.0874 7.06073 12.0874 7.33407V9.08073C12.0874 11.1607 11.1607 12.0874 9.08073 12.0874ZM7.83406 11.0874H9.08073C10.6007 11.0874 11.0874 10.6007 11.0874 9.08073V7.83407H10.7674C8.99406 7.83407 8.16739 7.0074 8.16739 5.23407V4.91406H6.92073C5.40073 4.91406 4.91406 5.40074 4.91406 6.92074V8.1674H5.23406C7.00739 8.1674 7.83406 8.99406 7.83406 10.7674V11.0874Z" fill="#888888"/>
</svg>
