<svg width="16" height="16" viewBox="0 0 16 16" fill="none" xmlns="http://www.w3.org/2000/svg">
<path d="M7.99973 8.8669C7.91306 8.8669 7.8264 8.8469 7.7464 8.80023L1.85973 5.39356C1.6264 5.25356 1.53973 4.9469 1.67973 4.7069C1.81973 4.4669 2.1264 4.3869 2.3664 4.5269L7.99973 7.7869L13.5997 4.5469C13.8397 4.4069 14.1464 4.49356 14.2864 4.7269C14.4264 4.9669 14.3397 5.27356 14.1064 5.41356L8.25973 8.80023C8.17306 8.84023 8.0864 8.8669 7.99973 8.8669Z" fill="#888888"/>
<path d="M8 14.9065C7.72667 14.9065 7.5 14.6799 7.5 14.4065V8.35986C7.5 8.08653 7.72667 7.85986 8 7.85986C8.27333 7.85986 8.5 8.08653 8.5 8.35986V14.4065C8.5 14.6799 8.27333 14.9065 8 14.9065Z" fill="#888888"/>
<path d="M8.00042 15.1668C7.41375 15.1668 6.83375 15.0402 6.37375 14.7868L2.81375 12.8068C1.84708 12.2735 1.09375 10.9868 1.09375 9.88016V6.1135C1.09375 5.00683 1.84708 3.72683 2.81375 3.18683L6.37375 1.2135C7.28708 0.706829 8.71375 0.706829 9.62708 1.2135L13.1871 3.1935C14.1538 3.72683 14.9071 5.0135 14.9071 6.12016V9.88683C14.9071 10.9935 14.1538 12.2735 13.1871 12.8135L9.62708 14.7868C9.16708 15.0402 8.58708 15.1668 8.00042 15.1668ZM8.00042 1.8335C7.58042 1.8335 7.16708 1.92016 6.86042 2.08683L3.30042 4.06683C2.66042 4.42016 2.09375 5.38016 2.09375 6.1135V9.88016C2.09375 10.6135 2.66042 11.5735 3.30042 11.9335L6.86042 13.9135C7.46708 14.2535 8.53375 14.2535 9.14042 13.9135L12.7004 11.9335C13.3404 11.5735 13.9071 10.6202 13.9071 9.88016V6.1135C13.9071 5.38016 13.3404 4.42016 12.7004 4.06016L9.14042 2.08016C8.83375 1.92016 8.42042 1.8335 8.00042 1.8335Z" fill="#888888"/>
</svg>
