<svg width="24" height="25" viewBox="0 0 24 25" fill="none" xmlns="http://www.w3.org/2000/svg">
<g opacity="0.6">
<path d="M18.0003 8.24376C17.9703 8.24376 17.9503 8.24376 17.9203 8.24376H17.8703C15.9803 8.18376 14.5703 6.72375 14.5703 4.92375C14.5703 3.08375 16.0703 1.59375 17.9003 1.59375C19.7303 1.59375 21.2303 3.09375 21.2303 4.92375C21.2203 6.73375 19.8103 8.19375 18.0103 8.25375C18.0103 8.24375 18.0103 8.24376 18.0003 8.24376ZM17.9003 3.08376C16.8903 3.08376 16.0703 3.90376 16.0703 4.91376C16.0703 5.90376 16.8403 6.70376 17.8303 6.74376C17.8403 6.73376 17.9203 6.73376 18.0103 6.74376C18.9803 6.69376 19.7303 5.89376 19.7403 4.91376C19.7403 3.90376 18.9203 3.08376 17.9003 3.08376Z" fill="#383838" fill-opacity="0.4"/>
<path d="M18.0085 15.6136C17.6185 15.6136 17.2285 15.5836 16.8385 15.5136C16.4285 15.4436 16.1585 15.0536 16.2285 14.6436C16.2985 14.2336 16.6885 13.9636 17.0985 14.0336C18.3285 14.2436 19.6285 14.0137 20.4985 13.4337C20.9685 13.1237 21.2185 12.7336 21.2185 12.3436C21.2185 11.9536 20.9585 11.5736 20.4985 11.2636C19.6285 10.6836 18.3085 10.4536 17.0685 10.6736C16.6585 10.7536 16.2685 10.4736 16.1985 10.0636C16.1285 9.65364 16.3985 9.26365 16.8085 9.19365C18.4385 8.90365 20.1285 9.21364 21.3285 10.0136C22.2085 10.6036 22.7185 11.4436 22.7185 12.3436C22.7185 13.2336 22.2185 14.0837 21.3285 14.6837C20.4185 15.2837 19.2385 15.6136 18.0085 15.6136Z" fill="#383838" fill-opacity="0.4"/>
<path d="M5.97047 8.2435C5.96047 8.2435 5.95047 8.2435 5.95047 8.2435C4.15047 8.1835 2.74047 6.72349 2.73047 4.92349C2.73047 3.08349 4.23047 1.5835 6.06047 1.5835C7.89047 1.5835 9.39047 3.0835 9.39047 4.9135C9.39047 6.7235 7.98047 8.1835 6.18047 8.2435L5.97047 7.4935L6.04047 8.2435C6.02047 8.2435 5.99047 8.2435 5.97047 8.2435ZM6.07047 6.7435C6.13047 6.7435 6.18047 6.74349 6.24047 6.75349C7.13047 6.71349 7.91047 5.91349 7.91047 4.92349C7.91047 3.91349 7.09047 3.09349 6.08047 3.09349C5.07047 3.09349 4.25047 3.91349 4.25047 4.92349C4.25047 5.90349 5.01047 6.69349 5.98047 6.75349C5.99047 6.74349 6.03047 6.7435 6.07047 6.7435Z" fill="#383838" fill-opacity="0.4"/>
<path d="M5.96 15.6136C4.73 15.6136 3.55 15.2837 2.64 14.6837C1.76 14.0937 1.25 13.2436 1.25 12.3436C1.25 11.4536 1.76 10.6036 2.64 10.0136C3.84 9.21364 5.53 8.90365 7.16 9.19365C7.57 9.26365 7.84 9.65364 7.77 10.0636C7.7 10.4736 7.31 10.7536 6.9 10.6736C5.66 10.4536 4.35 10.6836 3.47 11.2636C3 11.5736 2.75 11.9536 2.75 12.3436C2.75 12.7336 3.01 13.1237 3.47 13.4337C4.34 14.0137 5.64 14.2436 6.87 14.0336C7.28 13.9636 7.67 14.2436 7.74 14.6436C7.81 15.0536 7.54 15.4436 7.13 15.5136C6.74 15.5836 6.35 15.6136 5.96 15.6136Z" fill="#383838" fill-opacity="0.4"/>
<path d="M12.0003 15.7135C11.9703 15.7135 11.9503 15.7135 11.9203 15.7135H11.8703C9.98031 15.6535 8.57031 14.1935 8.57031 12.3935C8.57031 10.5535 10.0703 9.06348 11.9003 9.06348C13.7303 9.06348 15.2303 10.5635 15.2303 12.3935C15.2203 14.2035 13.8103 15.6635 12.0103 15.7235C12.0103 15.7135 12.0103 15.7135 12.0003 15.7135ZM11.9003 10.5535C10.8903 10.5535 10.0703 11.3735 10.0703 12.3835C10.0703 13.3735 10.8403 14.1735 11.8303 14.2135C11.8403 14.2035 11.9203 14.2035 12.0103 14.2135C12.9803 14.1635 13.7303 13.3635 13.7403 12.3835C13.7403 11.3835 12.9203 10.5535 11.9003 10.5535Z" fill="#383838" fill-opacity="0.4"/>
<path d="M12.0013 23.0937C10.8013 23.0937 9.60125 22.7837 8.67125 22.1537C7.79125 21.5637 7.28125 20.7237 7.28125 19.8237C7.28125 18.9337 7.78125 18.0737 8.67125 17.4837C10.5412 16.2437 13.4713 16.2437 15.3313 17.4837C16.2113 18.0737 16.7213 18.9137 16.7213 19.8137C16.7213 20.7037 16.2213 21.5637 15.3313 22.1537C14.4013 22.7737 13.2013 23.0937 12.0013 23.0937ZM9.50125 18.7437C9.03125 19.0537 8.78125 19.4437 8.78125 19.8337C8.78125 20.2237 9.04125 20.6037 9.50125 20.9137C10.8513 21.8237 13.1413 21.8237 14.4913 20.9137C14.9613 20.6037 15.2113 20.2137 15.2113 19.8237C15.2113 19.4337 14.9513 19.0537 14.4913 18.7437C13.1513 17.8337 10.8613 17.8437 9.50125 18.7437Z" fill="#383838" fill-opacity="0.4"/>
</g>
</svg>
