<svg width="24" height="25" viewBox="0 0 24 25" fill="none" xmlns="http://www.w3.org/2000/svg">
<g opacity="0.6">
<path d="M19.77 11.583H15.73C13.72 11.583 12.75 10.603 12.75 8.60301V4.56301C12.75 2.55301 13.73 1.58301 15.73 1.58301H19.77C21.78 1.58301 22.75 2.56301 22.75 4.56301V8.60301C22.75 10.603 21.77 11.583 19.77 11.583ZM15.73 3.08301C14.55 3.08301 14.25 3.38301 14.25 4.56301V8.60301C14.25 9.78301 14.55 10.083 15.73 10.083H19.77C20.95 10.083 21.25 9.78301 21.25 8.60301V4.56301C21.25 3.38301 20.95 3.08301 19.77 3.08301H15.73Z" fill="#383838" fill-opacity="0.6"/>
<path d="M8.27 11.583H4.23C2.22 11.583 1.25 10.693 1.25 8.85301V4.31301C1.25 2.47301 2.23 1.58301 4.23 1.58301H8.27C10.28 1.58301 11.25 2.47301 11.25 4.31301V8.84301C11.25 10.693 10.27 11.583 8.27 11.583ZM4.23 3.08301C2.89 3.08301 2.75 3.46301 2.75 4.31301V8.84301C2.75 9.70301 2.89 10.073 4.23 10.073H8.27C9.61 10.073 9.75 9.69301 9.75 8.84301V4.31301C9.75 3.45301 9.61 3.08301 8.27 3.08301H4.23Z" fill="#383838" fill-opacity="0.6"/>
<path d="M8.27 23.083H4.23C2.22 23.083 1.25 22.103 1.25 20.103V16.063C1.25 14.053 2.23 13.083 4.23 13.083H8.27C10.28 13.083 11.25 14.063 11.25 16.063V20.103C11.25 22.103 10.27 23.083 8.27 23.083ZM4.23 14.583C3.05 14.583 2.75 14.883 2.75 16.063V20.103C2.75 21.283 3.05 21.583 4.23 21.583H8.27C9.45 21.583 9.75 21.283 9.75 20.103V16.063C9.75 14.883 9.45 14.583 8.27 14.583H4.23Z" fill="#383838" fill-opacity="0.6"/>
<path d="M21 16.583H15C14.59 16.583 14.25 16.243 14.25 15.833C14.25 15.423 14.59 15.083 15 15.083H21C21.41 15.083 21.75 15.423 21.75 15.833C21.75 16.243 21.41 16.583 21 16.583Z" fill="#383838" fill-opacity="0.6"/>
<path d="M21 20.583H15C14.59 20.583 14.25 20.243 14.25 19.833C14.25 19.423 14.59 19.083 15 19.083H21C21.41 19.083 21.75 19.423 21.75 19.833C21.75 20.243 21.41 20.583 21 20.583Z" fill="#383838" fill-opacity="0.6"/>
</g>
</svg>
