<svg width="16" height="16" viewBox="0 0 16 16" fill="none" xmlns="http://www.w3.org/2000/svg">
<path d="M13.9997 3.5H9.33301C9.05967 3.5 8.83301 3.27333 8.83301 3C8.83301 2.72667 9.05967 2.5 9.33301 2.5H13.9997C14.273 2.5 14.4997 2.72667 14.4997 3C14.4997 3.27333 14.273 3.5 13.9997 3.5Z" fill="#888888"/>
<path d="M13.9997 6.8335H9.33301C9.05967 6.8335 8.83301 6.60683 8.83301 6.3335C8.83301 6.06016 9.05967 5.8335 9.33301 5.8335H13.9997C14.273 5.8335 14.4997 6.06016 14.4997 6.3335C14.4997 6.60683 14.273 6.8335 13.9997 6.8335Z" fill="#888888"/>
<path d="M14 10.1665H2C1.72667 10.1665 1.5 9.93984 1.5 9.6665C1.5 9.39317 1.72667 9.1665 2 9.1665H14C14.2733 9.1665 14.5 9.39317 14.5 9.6665C14.5 9.93984 14.2733 10.1665 14 10.1665Z" fill="#888888"/>
<path d="M14 13.5H2C1.72667 13.5 1.5 13.2733 1.5 13C1.5 12.7267 1.72667 12.5 2 12.5H14C14.2733 12.5 14.5 12.7267 14.5 13C14.5 13.2733 14.2733 13.5 14 13.5Z" fill="#888888"/>
<path d="M5.27967 7.1665H3.38634C2.35967 7.1665 1.83301 6.6465 1.83301 5.61317V3.71984C1.83301 2.69317 2.35301 2.1665 3.38634 2.1665H5.28634C6.31301 2.1665 6.83967 2.6865 6.83967 3.71984V5.61984C6.83301 6.6465 6.31301 7.1665 5.27967 7.1665ZM3.38634 3.1665C2.91301 3.1665 2.83301 3.2465 2.83301 3.71984V5.61984C2.83301 6.09317 2.91301 6.17317 3.38634 6.17317H5.28634C5.75967 6.17317 5.83967 6.09317 5.83967 5.61984V3.71984C5.83967 3.2465 5.75967 3.1665 5.28634 3.1665H3.38634Z" fill="#888888"/>
</svg>
