<svg width="24" height="24" viewBox="0 0 24 24" fill="none" xmlns="http://www.w3.org/2000/svg">
<path d="M14.3086 20.4583H9.71693C9.35026 20.4583 8.88359 20.4166 8.57526 20.1C8.27526 19.7916 8.28359 19.4083 8.29193 19.15V18.4083C6.19193 17.0083 4.80859 14.575 4.80859 12.2583C4.80859 10.0666 5.79193 8.01662 7.50026 6.64162C9.20859 5.26662 11.4503 4.74996 13.6419 5.23329C15.7253 5.69162 17.5253 7.08329 18.4586 8.95829C20.2669 12.6 18.5253 16.5416 15.7419 18.4166V19.0416C15.7503 19.2833 15.7586 19.725 15.4169 20.075C15.1586 20.325 14.7919 20.4583 14.3086 20.4583ZM9.53359 19.2C9.57526 19.2 9.63359 19.2083 9.70859 19.2083H14.3086C14.3919 19.2083 14.4503 19.2 14.4836 19.1916C14.4836 19.1666 14.4836 19.1333 14.4836 19.1083V18.0583C14.4836 17.8416 14.6003 17.6333 14.7836 17.525C17.2503 16.0333 18.8836 12.625 17.3253 9.49996C16.5586 7.95829 15.0753 6.81662 13.3586 6.44162C11.5419 6.04162 9.68359 6.46662 8.26693 7.60829C6.85026 8.74996 6.04193 10.4416 6.04193 12.2583C6.04193 14.575 7.64193 16.575 9.22526 17.5333C9.41693 17.65 9.52526 17.85 9.52526 18.0666V19.1916C9.53359 19.1916 9.53359 19.1916 9.53359 19.2Z" fill="#292D32"/>
<path d="M14.9167 22.9583C14.8584 22.9583 14.8 22.95 14.7417 22.9333C12.9417 22.4166 11.05 22.4166 9.25005 22.9333C8.91672 23.025 8.57505 22.8333 8.47505 22.5C8.37505 22.1666 8.57505 21.825 8.90838 21.725C10.925 21.15 13.0667 21.15 15.0834 21.725C15.4167 21.8166 15.6084 22.1666 15.5167 22.5C15.4417 22.7833 15.1917 22.9583 14.9167 22.9583Z" fill="#292D32"/>
<path d="M12 3.75C11.59 3.75 11.25 3.41 11.25 3V2C11.25 1.59 11.59 1.25 12 1.25C12.41 1.25 12.75 1.59 12.75 2V3C12.75 3.41 12.41 3.75 12 3.75Z" fill="#292D32"/>
<path d="M4.99945 5.74994C4.80945 5.74994 4.61945 5.67994 4.46945 5.52994L3.46945 4.52994C3.17945 4.23994 3.17945 3.75994 3.46945 3.46994C3.75945 3.17994 4.23945 3.17994 4.52945 3.46994L5.52945 4.46994C5.81945 4.75994 5.81945 5.23994 5.52945 5.52994C5.37945 5.67994 5.18945 5.74994 4.99945 5.74994Z" fill="#292D32"/>
<path d="M18.9995 5.74994C18.8095 5.74994 18.6195 5.67994 18.4695 5.52994C18.1795 5.23994 18.1795 4.75994 18.4695 4.46994L19.4695 3.46994C19.7595 3.17994 20.2395 3.17994 20.5295 3.46994C20.8195 3.75994 20.8195 4.23994 20.5295 4.52994L19.5295 5.52994C19.3795 5.67994 19.1895 5.74994 18.9995 5.74994Z" fill="#292D32"/>
</svg>
