<svg width="24" height="25" viewBox="0 0 24 25" fill="none" xmlns="http://www.w3.org/2000/svg">
<g opacity="0.6">
<path d="M12 23.1435C11.31 23.1435 10.66 22.7935 10.2 22.1835L8.7 20.1835C8.67 20.1435 8.55 20.0835 8.49 20.0835H8C3.83 20.0835 1.25 18.9535 1.25 13.3335V8.3335C1.25 3.9135 3.58 1.5835 8 1.5835H14C14.41 1.5835 14.75 1.9235 14.75 2.3335C14.75 2.7435 14.41 3.0835 14 3.0835H8C4.42 3.0835 2.75 4.7535 2.75 8.3335V13.3335C2.75 17.8535 4.3 18.5835 8 18.5835H8.5C9.01 18.5835 9.59 18.8735 9.9 19.2835L11.4 21.2835C11.75 21.7435 12.25 21.7435 12.6 21.2835L14.1 19.2835C14.43 18.8435 14.95 18.5835 15.5 18.5835H16C19.58 18.5835 21.25 16.9135 21.25 13.3335V10.3335C21.25 9.9235 21.59 9.5835 22 9.5835C22.41 9.5835 22.75 9.9235 22.75 10.3335V13.3335C22.75 17.7535 20.42 20.0835 16 20.0835H15.5C15.42 20.0835 15.35 20.1235 15.3 20.1835L13.8 22.1835C13.34 22.7935 12.69 23.1435 12 23.1435Z" fill="#383838" fill-opacity="0.6"/>
<path d="M12 12.3335C11.44 12.3335 11 11.8835 11 11.3335C11 10.7835 11.45 10.3335 12 10.3335C12.55 10.3335 13 10.7835 13 11.3335C13 11.8835 12.56 12.3335 12 12.3335Z" fill="#383838" fill-opacity="0.6"/>
<path d="M16 12.3335C15.44 12.3335 15 11.8835 15 11.3335C15 10.7835 15.45 10.3335 16 10.3335C16.55 10.3335 17 10.7835 17 11.3335C17 11.8835 16.56 12.3335 16 12.3335Z" fill="#383838" fill-opacity="0.6"/>
<path d="M8 12.3335C7.44 12.3335 7 11.8835 7 11.3335C7 10.7835 7.45 10.3335 8 10.3335C8.55 10.3335 9 10.7835 9 11.3335C9 11.8835 8.56 12.3335 8 12.3335Z" fill="#383838" fill-opacity="0.6"/>
<path d="M19.5 8.0835C17.71 8.0835 16.25 6.6235 16.25 4.8335C16.25 3.0435 17.71 1.5835 19.5 1.5835C21.29 1.5835 22.75 3.0435 22.75 4.8335C22.75 6.6235 21.29 8.0835 19.5 8.0835ZM19.5 3.0835C18.54 3.0835 17.75 3.8735 17.75 4.8335C17.75 5.7935 18.54 6.5835 19.5 6.5835C20.46 6.5835 21.25 5.7935 21.25 4.8335C21.25 3.8735 20.46 3.0835 19.5 3.0835Z" fill="#383838" fill-opacity="0.6"/>
</g>
</svg>
