<svg width="24" height="25" viewBox="0 0 24 25" fill="none" xmlns="http://www.w3.org/2000/svg">
<g opacity="0.6">
<path d="M13.05 16.5832H11.17C9.84001 16.5832 8.75 15.4632 8.75 14.0832C8.75 13.6732 9.09 13.3332 9.5 13.3332C9.91 13.3332 10.25 13.6732 10.25 14.0832C10.25 14.6332 10.66 15.0832 11.17 15.0832H13.05C13.44 15.0832 13.75 14.7332 13.75 14.3032C13.75 13.7632 13.6 13.6832 13.26 13.5632L10.25 12.5132C9.61 12.2832 8.75 11.8232 8.75 10.3532C8.75 9.10324 9.74001 8.07324 10.95 8.07324H12.83C14.16 8.07324 15.25 9.19324 15.25 10.5732C15.25 10.9832 14.91 11.3232 14.5 11.3232C14.09 11.3232 13.75 10.9832 13.75 10.5732C13.75 10.0232 13.34 9.57324 12.83 9.57324H10.95C10.56 9.57324 10.25 9.92324 10.25 10.3532C10.25 10.8932 10.4 10.9732 10.74 11.0932L13.75 12.1432C14.39 12.3732 15.25 12.8332 15.25 14.3032C15.25 15.5632 14.26 16.5832 13.05 16.5832Z" fill="#383838" fill-opacity="0.4"/>
<path d="M12 17.583C11.59 17.583 11.25 17.243 11.25 16.833V7.83301C11.25 7.42301 11.59 7.08301 12 7.08301C12.41 7.08301 12.75 7.42301 12.75 7.83301V16.833C12.75 17.243 12.41 17.583 12 17.583Z" fill="#383838" fill-opacity="0.4"/>
<path d="M12 23.083C6.07 23.083 1.25 18.263 1.25 12.333C1.25 6.40301 6.07 1.58301 12 1.58301C12.41 1.58301 12.75 1.92301 12.75 2.33301C12.75 2.74301 12.41 3.08301 12 3.08301C6.9 3.08301 2.75 7.23301 2.75 12.333C2.75 17.433 6.9 21.583 12 21.583C17.1 21.583 21.25 17.433 21.25 12.333C21.25 11.923 21.59 11.583 22 11.583C22.41 11.583 22.75 11.923 22.75 12.333C22.75 18.263 17.93 23.083 12 23.083Z" fill="#383838" fill-opacity="0.4"/>
<path d="M22 7.08301C21.59 7.08301 21.25 6.74301 21.25 6.33301V3.08301H18C17.59 3.08301 17.25 2.74301 17.25 2.33301C17.25 1.92301 17.59 1.58301 18 1.58301H22C22.41 1.58301 22.75 1.92301 22.75 2.33301V6.33301C22.75 6.74301 22.41 7.08301 22 7.08301Z" fill="#383838" fill-opacity="0.4"/>
<path d="M17.0014 8.08344C16.8114 8.08344 16.6214 8.01344 16.4714 7.86344C16.1814 7.57344 16.1814 7.09344 16.4714 6.80344L21.4714 1.80344C21.7614 1.51344 22.2414 1.51344 22.5314 1.80344C22.8214 2.09344 22.8214 2.57344 22.5314 2.86344L17.5314 7.86344C17.3814 8.01344 17.1914 8.08344 17.0014 8.08344Z" fill="#383838" fill-opacity="0.4"/>
</g>
</svg>
