<svg width="24" height="25" viewBox="0 0 24 25" fill="none" xmlns="http://www.w3.org/2000/svg">
<g opacity="0.6">
<path d="M12.0013 13.6329C11.8713 13.6329 11.7413 13.6029 11.6213 13.5329L2.79132 8.42291C2.43132 8.21291 2.3113 7.75288 2.5213 7.39288C2.7313 7.03288 3.1813 6.91286 3.5513 7.12286L12.0013 12.0129L20.4013 7.15289C20.7613 6.94289 21.2213 7.07291 21.4313 7.42291C21.6413 7.78291 21.5113 8.24288 21.1613 8.45288L12.3913 13.5329C12.2613 13.5929 12.1313 13.6329 12.0013 13.6329Z" fill="#005F73"/>
<path d="M12 22.6931C11.59 22.6931 11.25 22.3531 11.25 21.9431V12.873C11.25 12.463 11.59 12.123 12 12.123C12.41 12.123 12.75 12.463 12.75 12.873V21.9431C12.75 22.3531 12.41 22.6931 12 22.6931Z" fill="#005F73"/>
<path d="M12.0006 23.083C11.1206 23.083 10.2506 22.893 9.56061 22.513L4.22061 19.543C2.77061 18.743 1.64062 16.813 1.64062 15.153V9.50298C1.64062 7.84298 2.77061 5.92303 4.22061 5.11303L9.56061 2.15301C10.9306 1.39301 13.0706 1.39301 14.4406 2.15301L19.7806 5.12298C21.2306 5.92298 22.3606 7.85299 22.3606 9.51299V15.163C22.3606 16.823 21.2306 18.743 19.7806 19.553L14.4406 22.513C13.7506 22.893 12.8806 23.083 12.0006 23.083ZM12.0006 3.083C11.3706 3.083 10.7506 3.21301 10.2906 3.46301L4.95062 6.43298C3.99062 6.97298 3.14062 8.40299 3.14062 9.51299V15.163C3.14062 16.263 3.99062 17.703 4.95062 18.243L10.2906 21.213C11.2006 21.723 12.8006 21.723 13.7106 21.213L19.0506 18.243C20.0106 17.703 20.8606 16.273 20.8606 15.163V9.51299C20.8606 8.41299 20.0106 6.97298 19.0506 6.43298L13.7106 3.46301C13.2506 3.21301 12.6306 3.083 12.0006 3.083Z" fill="#005F73"/>
<path d="M17.0012 14.3226C16.5912 14.3226 16.2512 13.9826 16.2512 13.5726V10.3526L7.13116 5.09259C6.77116 4.88259 6.65114 4.42257 6.86114 4.07257C7.07114 3.71257 7.52116 3.59255 7.88116 3.80255L17.3712 9.28259C17.6012 9.41259 17.7512 9.66255 17.7512 9.93255V13.5926C17.7512 13.9826 17.4112 14.3226 17.0012 14.3226Z" fill="#005F73"/>
</g>
</svg>
