<svg width="16" height="16" viewBox="0 0 16 16" fill="none" xmlns="http://www.w3.org/2000/svg">
<path d="M13.1864 2.81339L13.1864 2.8134C14.4845 4.11148 14.4845 6.22822 13.1864 7.52629L11.0669 9.64578L11.0602 9.63958L6.36348 4.94291L6.35393 4.933L8.4735 2.8134C8.4735 2.8134 8.47351 2.8134 8.47351 2.8134C9.77161 1.51532 11.8884 1.51533 13.1864 2.81339ZM13.5356 2.46424L13.54 2.45985L13.5356 2.46424Z" stroke="#888888"/>
<path d="M2.81438 8.46681L4.93408 6.34714L5.07483 6.4933H5.08726L9.65703 11.0567L7.53549 13.1782C7.53525 13.1784 7.535 13.1786 7.53476 13.1789C6.87804 13.8295 6.03275 14.1533 5.17416 14.1533C4.31391 14.1533 3.46299 13.8284 2.81439 13.1797L2.81437 13.1797C1.51631 11.8817 1.5163 9.76492 2.81437 8.46682C2.81437 8.46681 2.81438 8.46681 2.81438 8.46681Z" stroke="#888888"/>
</svg>
