<svg width="16" height="16" viewBox="0 0 16 16" fill="none" xmlns="http://www.w3.org/2000/svg">
<path d="M6.10671 7.74683C6.08671 7.74683 6.07337 7.74683 6.05337 7.74683C6.02004 7.74016 5.97337 7.74016 5.93337 7.74683C4.00004 7.68683 2.54004 6.16683 2.54004 4.2935C2.54004 2.38683 4.09337 0.833496 6.00004 0.833496C7.90671 0.833496 9.46004 2.38683 9.46004 4.2935C9.45337 6.16683 7.98671 7.68683 6.12671 7.74683C6.12004 7.74683 6.11337 7.74683 6.10671 7.74683ZM6.00004 1.8335C4.64671 1.8335 3.54004 2.94016 3.54004 4.2935C3.54004 5.62683 4.58004 6.70016 5.90671 6.74683C5.94671 6.74016 6.03337 6.74016 6.12004 6.74683C7.42671 6.68683 8.45337 5.6135 8.46004 4.2935C8.46004 2.94016 7.35337 1.8335 6.00004 1.8335Z" fill="#888888"/>
<path d="M11.0266 7.83317C11.0066 7.83317 10.9866 7.83317 10.9666 7.8265C10.6932 7.85317 10.4132 7.65984 10.3866 7.3865C10.3599 7.11317 10.5266 6.8665 10.7999 6.83317C10.8799 6.8265 10.9666 6.8265 11.0399 6.8265C12.0132 6.77317 12.7732 5.97317 12.7732 4.99317C12.7732 3.97984 11.9532 3.15984 10.9399 3.15984C10.6666 3.1665 10.4399 2.93984 10.4399 2.6665C10.4399 2.39317 10.6666 2.1665 10.9399 2.1665C12.4999 2.1665 13.7732 3.43984 13.7732 4.99984C13.7732 6.53317 12.5732 7.77317 11.0466 7.83317C11.0399 7.83317 11.0332 7.83317 11.0266 7.83317Z" fill="#888888"/>
<path d="M6.11307 15.0332C4.80641 15.0332 3.49307 14.6998 2.49974 14.0332C1.57307 13.4198 1.06641 12.5798 1.06641 11.6665C1.06641 10.7532 1.57307 9.9065 2.49974 9.2865C4.49974 7.95984 7.73974 7.95984 9.72641 9.2865C10.6464 9.89984 11.1597 10.7398 11.1597 11.6532C11.1597 12.5665 10.6531 13.4132 9.72641 14.0332C8.72641 14.6998 7.41974 15.0332 6.11307 15.0332ZM3.05307 10.1265C2.41307 10.5532 2.06641 11.0998 2.06641 11.6732C2.06641 12.2398 2.41974 12.7865 3.05307 13.2065C4.71307 14.3198 7.51307 14.3198 9.17307 13.2065C9.81307 12.7798 10.1597 12.2332 10.1597 11.6598C10.1597 11.0932 9.80641 10.5465 9.17307 10.1265C7.51307 9.01984 4.71307 9.01984 3.05307 10.1265Z" fill="#888888"/>
<path d="M12.2268 13.8333C11.9934 13.8333 11.7868 13.6733 11.7401 13.4333C11.6868 13.16 11.8601 12.9 12.1268 12.84C12.5468 12.7533 12.9334 12.5867 13.2334 12.3533C13.6134 12.0667 13.8201 11.7067 13.8201 11.3267C13.8201 10.9467 13.6134 10.5867 13.2401 10.3067C12.9468 10.08 12.5801 9.92001 12.1468 9.82001C11.8801 9.76001 11.7068 9.49335 11.7668 9.22001C11.8268 8.95335 12.0934 8.78001 12.3668 8.84001C12.9401 8.96668 13.4401 9.19335 13.8468 9.50668C14.4668 9.97335 14.8201 10.6333 14.8201 11.3267C14.8201 12.02 14.4601 12.68 13.8401 13.1533C13.4268 13.4733 12.9068 13.7067 12.3334 13.82C12.2934 13.8333 12.2601 13.8333 12.2268 13.8333Z" fill="#888888"/>
</svg>
