<svg width="24" height="25" viewBox="0 0 24 25" fill="none" xmlns="http://www.w3.org/2000/svg">
<g opacity="0.6">
<path d="M16 23.083H8C4.98 23.083 3.25 21.353 3.25 18.333V8.58301C3.25 5.43301 4.85 3.83301 8 3.83301C8.41 3.83301 8.75 4.17301 8.75 4.58301C8.75 4.98301 8.91 5.36301 9.19 5.64301C9.47 5.92301 9.85 6.08301 10.25 6.08301H13.75C14.58 6.08301 15.25 5.41301 15.25 4.58301C15.25 4.17301 15.59 3.83301 16 3.83301C19.15 3.83301 20.75 5.43301 20.75 8.58301V18.333C20.75 21.353 19.02 23.083 16 23.083ZM7.34998 5.35301C5.76998 5.48301 4.75 6.19301 4.75 8.58301V18.333C4.75 20.553 5.78 21.583 8 21.583H16C18.22 21.583 19.25 20.553 19.25 18.333V8.58301C19.25 6.19301 18.23 5.49301 16.65 5.35301C16.31 6.63301 15.14 7.58301 13.75 7.58301H10.25C9.45 7.58301 8.70001 7.273 8.13 6.703C7.75 6.323 7.48998 5.86301 7.34998 5.35301Z" fill="#383838" fill-opacity="0.4"/>
<path d="M13.75 7.58301H10.25C9.45 7.58301 8.7 7.273 8.13 6.703C7.56 6.133 7.25 5.38301 7.25 4.58301C7.25 2.93301 8.6 1.58301 10.25 1.58301H13.75C14.55 1.58301 15.3 1.89301 15.87 2.46301C16.44 3.03301 16.75 3.78301 16.75 4.58301C16.75 6.23301 15.4 7.58301 13.75 7.58301ZM10.25 3.08301C9.42 3.08301 8.75 3.75301 8.75 4.58301C8.75 4.98301 8.91 5.36301 9.19 5.64301C9.47 5.92301 9.85 6.08301 10.25 6.08301H13.75C14.58 6.08301 15.25 5.41301 15.25 4.58301C15.25 4.18301 15.09 3.80301 14.81 3.52301C14.53 3.24301 14.15 3.08301 13.75 3.08301H10.25Z" fill="#383838" fill-opacity="0.4"/>
<path d="M12 14.083H8C7.59 14.083 7.25 13.743 7.25 13.333C7.25 12.923 7.59 12.583 8 12.583H12C12.41 12.583 12.75 12.923 12.75 13.333C12.75 13.743 12.41 14.083 12 14.083Z" fill="#383838" fill-opacity="0.4"/>
<path d="M16 18.083H8C7.59 18.083 7.25 17.743 7.25 17.333C7.25 16.923 7.59 16.583 8 16.583H16C16.41 16.583 16.75 16.923 16.75 17.333C16.75 17.743 16.41 18.083 16 18.083Z" fill="#383838" fill-opacity="0.4"/>
</g>
</svg>
