<svg width="16" height="16" viewBox="0 0 16 16" fill="none" xmlns="http://www.w3.org/2000/svg">
<path d="M12.3393 5.50068C12.6726 5.50068 12.9393 5.23402 12.9393 4.90068V1.80068C12.9393 1.46735 12.6726 1.20068 12.3393 1.20068C12.0059 1.20068 11.7393 1.46735 11.7393 1.80068V4.90068C11.7393 5.22735 12.0126 5.50068 12.3393 5.50068Z" fill="#888888"/>
<path d="M7.99941 10.5C7.66608 10.5 7.39941 10.7667 7.39941 11.1V14.2C7.39941 14.5333 7.66608 14.8 7.99941 14.8C8.33275 14.8 8.59941 14.5333 8.59941 14.2V11.1C8.59941 10.7733 8.33275 10.5 7.99941 10.5Z" fill="#888888"/>
<path d="M3.65957 5.50068C3.9929 5.50068 4.25957 5.23402 4.25957 4.90068V1.80068C4.25957 1.46735 3.9929 1.20068 3.65957 1.20068C3.32624 1.20068 3.05957 1.46735 3.05957 1.80068V4.90068C3.05957 5.22735 3.32624 5.50068 3.65957 5.50068Z" fill="#888888"/>
<path d="M4.90031 6.78125H2.42031C2.08698 6.78125 1.82031 7.04792 1.82031 7.38125C1.82031 7.71458 2.08698 7.98125 2.42031 7.98125H3.06031V14.2012C3.06031 14.5346 3.32698 14.8013 3.66031 14.8013C3.99365 14.8013 4.26031 14.5346 4.26031 14.2012V7.98125H4.90031C5.23365 7.98125 5.50031 7.71458 5.50031 7.38125C5.50031 7.04792 5.22698 6.78125 4.90031 6.78125Z" fill="#888888"/>
<path d="M13.58 6.78125H11.1C10.7667 6.78125 10.5 7.04792 10.5 7.38125C10.5 7.71458 10.7667 7.98125 11.1 7.98125H11.74V14.2012C11.74 14.5346 12.0067 14.8013 12.34 14.8013C12.6733 14.8013 12.94 14.5346 12.94 14.2012V7.98125H13.58C13.9133 7.98125 14.18 7.71458 14.18 7.38125C14.18 7.04792 13.9133 6.78125 13.58 6.78125Z" fill="#888888"/>
<path d="M9.24016 8.02068H8.60016V1.80068C8.60016 1.46735 8.33349 1.20068 8.00016 1.20068C7.66682 1.20068 7.40016 1.46735 7.40016 1.80068V8.02068H6.76016C6.42682 8.02068 6.16016 8.28735 6.16016 8.62068C6.16016 8.95402 6.42682 9.22068 6.76016 9.22068H9.24016C9.57349 9.22068 9.84016 8.95402 9.84016 8.62068C9.84016 8.28735 9.57349 8.02068 9.24016 8.02068Z" fill="#888888"/>
</svg>
