<svg width="24" height="25" viewBox="0 0 24 25" fill="none" xmlns="http://www.w3.org/2000/svg">
<g opacity="0.6">
<path d="M12 16.083C9.93 16.083 8.25 14.403 8.25 12.333C8.25 10.263 9.93 8.58301 12 8.58301C14.07 8.58301 15.75 10.263 15.75 12.333C15.75 14.403 14.07 16.083 12 16.083ZM12 10.083C10.76 10.083 9.75 11.093 9.75 12.333C9.75 13.573 10.76 14.583 12 14.583C13.24 14.583 14.25 13.573 14.25 12.333C14.25 11.093 13.24 10.083 12 10.083Z" fill="#383838" fill-opacity="0.6"/>
<path d="M15.21 22.5233C15 22.5233 14.79 22.4933 14.58 22.4433C13.96 22.2733 13.44 21.8833 13.11 21.3333L12.99 21.1333C12.4 20.1133 11.59 20.1133 11 21.1333L10.89 21.3233C10.56 21.8833 10.04 22.2833 9.42 22.4433C8.79 22.6133 8.14 22.5233 7.59 22.1933L5.87 21.2033C5.26 20.8533 4.82 20.2833 4.63 19.5933C4.45 18.9033 4.54 18.1933 4.89 17.5833C5.18 17.0733 5.26 16.6133 5.09 16.3233C4.92 16.0333 4.49 15.8633 3.9 15.8633C2.44 15.8633 1.25 14.6733 1.25 13.2133V11.4533C1.25 9.99329 2.44 8.80329 3.9 8.80329C4.49 8.80329 4.92 8.63329 5.09 8.34329C5.26 8.05329 5.19 7.59329 4.89 7.08329C4.54 6.47329 4.45 5.75329 4.63 5.07329C4.81 4.38329 5.25 3.81329 5.87 3.46329L7.6 2.47329C8.73 1.80329 10.22 2.19329 10.9 3.34329L11.02 3.54329C11.61 4.56329 12.42 4.56329 13.01 3.54329L13.12 3.35329C13.8 2.19329 15.29 1.80329 16.43 2.48329L18.15 3.47329C18.76 3.82329 19.2 4.39329 19.39 5.08329C19.57 5.77329 19.48 6.48329 19.13 7.09329C18.84 7.60329 18.76 8.06329 18.93 8.35329C19.1 8.64329 19.53 8.81329 20.12 8.81329C21.58 8.81329 22.77 10.0033 22.77 11.4633V13.2233C22.77 14.6833 21.58 15.8733 20.12 15.8733C19.53 15.8733 19.1 16.0433 18.93 16.3333C18.76 16.6233 18.83 17.0833 19.13 17.5933C19.48 18.2033 19.58 18.9233 19.39 19.6033C19.21 20.2933 18.77 20.8633 18.15 21.2133L16.42 22.2033C16.04 22.4133 15.63 22.5233 15.21 22.5233ZM12 18.8233C12.89 18.8233 13.72 19.3833 14.29 20.3733L14.4 20.5633C14.52 20.7733 14.72 20.9233 14.96 20.9833C15.2 21.0433 15.44 21.0133 15.64 20.8933L17.37 19.8933C17.63 19.7433 17.83 19.4933 17.91 19.1933C17.99 18.8933 17.95 18.5833 17.8 18.3233C17.23 17.3433 17.16 16.3333 17.6 15.5633C18.04 14.7933 18.95 14.3533 20.09 14.3533C20.73 14.3533 21.24 13.8433 21.24 13.2033V11.4433C21.24 10.8133 20.73 10.2933 20.09 10.2933C18.95 10.2933 18.04 9.85329 17.6 9.08329C17.16 8.31329 17.23 7.30329 17.8 6.32329C17.95 6.06329 17.99 5.75329 17.91 5.45329C17.83 5.15329 17.64 4.91329 17.38 4.75329L15.65 3.76329C15.22 3.50329 14.65 3.65329 14.39 4.09329L14.28 4.28329C13.71 5.27329 12.88 5.83329 11.99 5.83329C11.1 5.83329 10.27 5.27329 9.7 4.28329L9.59 4.08329C9.34 3.66329 8.78 3.51329 8.35 3.76329L6.62 4.76329C6.36 4.91329 6.16 5.16329 6.08 5.46329C6 5.76329 6.04 6.07329 6.19 6.33329C6.76 7.31329 6.83 8.32329 6.39 9.09329C5.95 9.86329 5.04 10.3033 3.9 10.3033C3.26 10.3033 2.75 10.8133 2.75 11.4533V13.2133C2.75 13.8433 3.26 14.3633 3.9 14.3633C5.04 14.3633 5.95 14.8033 6.39 15.5733C6.83 16.3433 6.76 17.3533 6.19 18.3333C6.04 18.5933 6 18.9033 6.08 19.2033C6.16 19.5033 6.35 19.7433 6.61 19.9033L8.34 20.8933C8.55 21.0233 8.8 21.0533 9.03 20.9933C9.27 20.9333 9.47 20.7733 9.6 20.5633L9.71 20.3733C10.28 19.3933 11.11 18.8233 12 18.8233Z" fill="#383838" fill-opacity="0.6"/>
</g>
</svg>
