<svg width="24" height="25" viewBox="0 0 24 25" fill="none" xmlns="http://www.w3.org/2000/svg">
<g opacity="0.6">
<path d="M20.6216 13.4034C20.2416 13.4034 19.9216 13.1134 19.8716 12.7334C19.6316 10.4734 18.4116 8.42335 16.5316 7.12335C16.1916 6.88335 16.1116 6.42335 16.3416 6.08335C16.5816 5.74335 17.0516 5.66335 17.3816 5.89335C19.6216 7.44335 21.0616 9.88335 21.3516 12.5734C21.3916 12.9834 21.1016 13.3534 20.6816 13.4034C20.6716 13.4034 20.6416 13.4034 20.6216 13.4034Z" fill="#383838" fill-opacity="0.6"/>
<path d="M3.49186 13.4533C3.46186 13.4533 3.44186 13.4533 3.41186 13.4533C3.00186 13.4033 2.70186 13.0333 2.74186 12.6233C3.01186 9.93327 4.44186 7.50327 6.65186 5.93327C6.99186 5.69327 7.46186 5.77327 7.70186 6.11327C7.94186 6.45327 7.86186 6.92327 7.52186 7.16327C5.66186 8.47327 4.46186 10.5233 4.23186 12.7833C4.20186 13.1633 3.87186 13.4533 3.49186 13.4533Z" fill="#383838" fill-opacity="0.6"/>
<path d="M12.06 22.943C10.58 22.943 9.16997 22.603 7.84997 21.943C7.47997 21.753 7.32997 21.303 7.51997 20.933C7.70997 20.563 8.15997 20.413 8.52997 20.603C10.69 21.693 13.29 21.713 15.47 20.663C15.84 20.483 16.29 20.643 16.47 21.013C16.65 21.383 16.49 21.833 16.12 22.013C14.84 22.633 13.48 22.943 12.06 22.943Z" fill="#383838" fill-opacity="0.6"/>
<path d="M12.0613 8.77289C10.1113 8.77289 8.53125 7.19289 8.53125 5.24289C8.53125 3.29289 10.1113 1.71289 12.0613 1.71289C14.0113 1.71289 15.5913 3.29289 15.5913 5.24289C15.5913 7.19289 14.0013 8.77289 12.0613 8.77289ZM12.0613 3.22289C10.9413 3.22289 10.0312 4.13289 10.0312 5.25289C10.0312 6.37289 10.9413 7.28289 12.0613 7.28289C13.1813 7.28289 14.0913 6.37289 14.0913 5.25289C14.0913 4.13289 13.1713 3.22289 12.0613 3.22289Z" fill="#383838" fill-opacity="0.6"/>
<path d="M4.83078 21.0034C2.88078 21.0034 1.30078 19.4234 1.30078 17.4734C1.30078 15.5334 2.88078 13.9434 4.83078 13.9434C6.78078 13.9434 8.36078 15.5234 8.36078 17.4734C8.36078 19.4134 6.78078 21.0034 4.83078 21.0034ZM4.83078 15.4434C3.71078 15.4434 2.80078 16.3534 2.80078 17.4734C2.80078 18.5934 3.71078 19.5034 4.83078 19.5034C5.95078 19.5034 6.86078 18.5934 6.86078 17.4734C6.86078 16.3534 5.95078 15.4434 4.83078 15.4434Z" fill="#383838" fill-opacity="0.6"/>
<path d="M19.1706 21.0034C17.2206 21.0034 15.6406 19.4234 15.6406 17.4734C15.6406 15.5334 17.2206 13.9434 19.1706 13.9434C21.1206 13.9434 22.7006 15.5234 22.7006 17.4734C22.6906 19.4134 21.1106 21.0034 19.1706 21.0034ZM19.1706 15.4434C18.0506 15.4434 17.1406 16.3534 17.1406 17.4734C17.1406 18.5934 18.0506 19.5034 19.1706 19.5034C20.2906 19.5034 21.2006 18.5934 21.2006 17.4734C21.1906 16.3534 20.2906 15.4434 19.1706 15.4434Z" fill="#383838" fill-opacity="0.6"/>
</g>
</svg>
