<svg width="24" height="24" viewBox="0 0 24 24" fill="none" xmlns="http://www.w3.org/2000/svg">
<g opacity="0.6">
<path d="M8.725 13.5C8.725 13.7878 8.96216 14.025 9.25 14.025C9.53784 14.025 9.775 13.7878 9.775 13.5V10C9.775 9.71216 9.53784 9.475 9.25 9.475C8.96216 9.475 8.725 9.71216 8.725 10V13.5Z" fill="url(#paint0_linear_1221_21475)" stroke="url(#paint1_linear_1221_21475)" stroke-width="0.3"/>
<path d="M7.225 15.375C7.225 16.5628 8.18716 17.525 9.375 17.525C10.5628 17.525 11.525 16.5628 11.525 15.375C11.525 14.1872 10.5628 13.225 9.375 13.225C8.18716 13.225 7.225 14.1872 7.225 15.375ZM8.275 15.375C8.275 14.7678 8.76784 14.275 9.375 14.275C9.98216 14.275 10.475 14.7678 10.475 15.375C10.475 15.9822 9.98216 16.475 9.375 16.475C8.76784 16.475 8.275 15.9822 8.275 15.375Z" fill="url(#paint2_linear_1221_21475)" stroke="url(#paint3_linear_1221_21475)" stroke-width="0.3"/>
<path d="M7.225 8.5C7.225 9.61784 8.13216 10.525 9.25 10.525C10.3678 10.525 11.275 9.61784 11.275 8.5C11.275 7.38216 10.3678 6.475 9.25 6.475C8.13216 6.475 7.225 7.38216 7.225 8.5ZM8.275 8.5C8.275 7.96284 8.71284 7.525 9.25 7.525C9.78716 7.525 10.225 7.96284 10.225 8.5C10.225 9.03716 9.78716 9.475 9.25 9.475C8.71284 9.475 8.275 9.03716 8.275 8.5Z" fill="url(#paint4_linear_1221_21475)" stroke="url(#paint5_linear_1221_21475)" stroke-width="0.3"/>
<path d="M14.225 8.5C14.225 9.61784 15.1322 10.525 16.25 10.525C17.3678 10.525 18.275 9.61784 18.275 8.5C18.275 7.38216 17.3678 6.475 16.25 6.475C15.1322 6.475 14.225 7.38216 14.225 8.5ZM15.275 8.5C15.275 7.96284 15.7128 7.525 16.25 7.525C16.7872 7.525 17.225 7.96284 17.225 8.5C17.225 9.03716 16.7872 9.475 16.25 9.475C15.7128 9.475 15.275 9.03716 15.275 8.5Z" fill="url(#paint6_linear_1221_21475)" stroke="url(#paint7_linear_1221_21475)" stroke-width="0.3"/>
<path d="M9.18245 14.0107L9.18996 14.0125L9.19762 14.0136C9.20127 14.0141 9.20515 14.0147 9.20922 14.0153C9.23768 14.0195 9.27579 14.0251 9.31383 14.0251C9.54129 14.0251 9.76101 13.8743 9.81928 13.6368C9.99256 12.973 10.588 12.5101 11.2738 12.5101H11.2786H11.2788L12.9934 12.5151V12.5151L12.9954 12.5151C14.4806 12.4995 15.8334 11.5721 16.3253 10.155C16.4241 9.87857 16.2735 9.5855 16.0045 9.48895C15.7278 9.38963 15.4343 9.54026 15.3376 9.80945L15.3371 9.81088C14.9932 10.8004 14.0552 11.4651 13.0088 11.4651H13.0088H13.0088H13.0087H13.0087H13.0087H13.0087H13.0086H13.0086H13.0086H13.0085H13.0085H13.0085H13.0085H13.0084H13.0084H13.0084H13.0084H13.0083H13.0083H13.0083H13.0082H13.0082H13.0082H13.0082H13.0081H13.0081H13.0081H13.0081H13.008H13.008H13.008H13.008H13.0079H13.0079H13.0079H13.0078H13.0078H13.0078H13.0078H13.0077H13.0077H13.0077H13.0077H13.0076H13.0076H13.0076H13.0076H13.0076H13.0075H13.0075H13.0075H13.0075H13.0074H13.0074H13.0074H13.0074H13.0073H13.0073H13.0073H13.0073H13.0072H13.0072H13.0072H13.0072H13.0072H13.0071H13.0071H13.0071H13.0071H13.007H13.007H13.007H13.007H13.0069H13.0069H13.0069H13.0069H13.0069H13.0068H13.0068H13.0068H13.0068H13.0068H13.0067H13.0067H13.0067H13.0067H13.0066H13.0066H13.0066H13.0066H13.0066H13.0065H13.0065H13.0065H13.0065H13.0065H13.0064H13.0064H13.0064H13.0064H13.0064H13.0063H13.0063H13.0063H13.0063H13.0063H13.0062H13.0062H13.0062H13.0062H13.0062H13.0061H13.0061H13.0061H13.0061H13.0061H13.0061H13.006H13.006H13.006H13.006H13.006H13.0059H13.0059H13.0059H13.0059H13.0059H13.0058H13.0058H13.0058H13.0058H13.0058H13.0058H13.0057H13.0057H13.0057H13.0057H13.0057H13.0056H13.0056H13.0056H13.0056H13.0056H13.0056H13.0055H13.0055H13.0055H13.0055H13.0055H13.0055H13.0054H13.0054H13.0054H13.0054H13.0054H13.0054H13.0053H13.0053H13.0053H13.0053H13.0053H13.0053H13.0052H13.0052H13.0052H13.0052H13.0052H13.0052H13.0051H13.0051H13.0051H13.0051H13.0051H13.0051H13.005H13.005H13.005H13.005H13.005H13.005H13.0049H13.0049H13.0049H13.0049H13.0049H13.0049H13.0049H13.0048H13.0048H13.0048H13.0048H13.0048H13.0048H13.0047H13.0047H13.0047H13.0047H13.0047H13.0047H13.0047H13.0046H13.0046H13.0046H13.0046H13.0046H13.0046H13.0045H13.0045H13.0045H13.0045H13.0045H13.0045H13.0045H13.0044H13.0044H13.0044H13.0044H13.0044H13.0044H13.0043H13.0043H13.0043H13.0043H13.0043H13.0043H13.0043H13.0042H13.0042H13.0042H13.0042H13.0042H13.0042H13.0042H13.0041H13.0041H13.0041H13.0041H13.0041H13.0041H13.0041H13.004H13.004H13.004H13.004H13.004H13.004H13.004H13.0039H13.0039H13.0039H13.0039H13.0039H13.0039H13.0038H13.0038H13.0038H13.0038H13.0038H13.0038H13.0038H13.0037H13.0037H13.0037H13.0037H13.0037H13.0037H13.0037H13.0036H13.0036H13.0036H13.0036H13.0036H13.0036H13.0036H13.0035H13.0035H13.0035H13.0035H13.0035H13.0035H13.0035H13.0034H13.0034H13.0034H13.0034H13.0034H13.0034H13.0033H13.0033H13.0033H13.0033H13.0033H13.0033H13.0033H13.0032H13.0032H13.0032H13.0032H13.0032H13.0032H13.0032H13.0031H13.0031H13.0031H13.0031H13.0031H13.0031H13.003H13.003H13.003H13.003H13.003H13.003H13.003H13.0029H13.0029H13.0029H13.0029H13.0029H13.0029H13.0028H13.0028H13.0028H13.0028H13.0028H13.0028H13.0028H13.0027H13.0027H13.0027H13.0027H13.0027H13.0027H13.0026H13.0026H13.0026H13.0026H13.0026H13.0026H13.0025H13.0025H13.0025H13.0025H13.0025H13.0025H13.0024H13.0024H13.0024H13.0024H13.0024H13.0024H13.0023H13.0023H13.0023H13.0023H13.0023H13.0023H13.0022H13.0022H13.0022H13.0022H13.0022H13.0022H13.0021H13.0021H13.0021H13.0021H13.0021H13.0021H13.002H13.002H13.002H13.002H13.002H13.0019H13.0019H13.0019H13.0019H13.0019H13.0019H13.0018H13.0018H13.0018H13.0018H13.0018H13.0017H13.0017H13.0017H13.0017H13.0017H13.0017H13.0016H13.0016H13.0016H13.0016H13.0016H13.0015H13.0015H13.0015H13.0015H13.0015H13.0014H13.0014H13.0014H13.0014H13.0014H13.0013H13.0013H13.0013H13.0013H13.0013H13.0012H13.0012H13.0012H13.0012H13.0012H13.0011H13.0011H13.0011H13.0011H13.0011H13.001H13.001H13.001H13.001H13.001H13.0009H13.0009H13.0009H13.0009H13.0008H13.0008H13.0008H13.0008H13.0008H13.0007H13.0007H13.0007H13.0007H13.0007H13.0006H13.0006H13.0006H13.0006H13.0005H13.0005H13.0005H13.0005H13.0004H13.0004H13.0004H13.0004H13.0004H13.0003H13.0003H13.0003H13.0003H13.0002H13.0002H13.0002H13.0002H13.0001H13.0001H13.0001H13.0001H13H13H13H13H12.9999H12.9999H12.9999H12.9999H12.9998H12.9998H12.9998H12.9998H12.9997H12.9997H12.9997H12.9997H12.9996H12.9996H12.9996H12.9996H12.9995H12.9995H12.9995H12.9995H12.9994H12.9994H12.9994H12.9993H12.9993H12.9993H12.9993H12.9992H12.9992H12.9992H12.9991H12.9991H12.9991H12.9991H12.999H12.999H12.999H12.9989H12.9989H12.9989H12.9989H12.9988L11.2843 11.4601H11.2838H11.2838H11.2838H11.2837H11.2837H11.2837H11.2837H11.2836H11.2836H11.2836H11.2835H11.2835H11.2835H11.2835H11.2834H11.2834H11.2834H11.2834H11.2833H11.2833H11.2833H11.2832H11.2832H11.2832H11.2832H11.2831H11.2831H11.2831H11.2831H11.283H11.283H11.283H11.283H11.2829H11.2829H11.2829H11.2828H11.2828H11.2828H11.2828H11.2827H11.2827H11.2827H11.2827H11.2826H11.2826H11.2826H11.2826H11.2826H11.2825H11.2825H11.2825H11.2825H11.2824H11.2824H11.2824H11.2824H11.2823H11.2823H11.2823H11.2823H11.2822H11.2822H11.2822H11.2822H11.2821H11.2821H11.2821H11.2821H11.2821H11.282H11.282H11.282H11.282H11.2819H11.2819H11.2819H11.2819H11.2819H11.2818H11.2818H11.2818H11.2818H11.2818H11.2817H11.2817H11.2817H11.2817H11.2816H11.2816H11.2816H11.2816H11.2816H11.2815H11.2815H11.2815H11.2815H11.2815H11.2814H11.2814H11.2814H11.2814H11.2814H11.2813H11.2813H11.2813H11.2813H11.2813H11.2812H11.2812H11.2812H11.2812H11.2812H11.2811H11.2811H11.2811H11.2811H11.2811H11.2811H11.281H11.281H11.281H11.281H11.281H11.2809H11.2809H11.2809H11.2809H11.2809H11.2808H11.2808H11.2808H11.2808H11.2808H11.2808H11.2807H11.2807H11.2807H11.2807H11.2807H11.2806H11.2806H11.2806H11.2806H11.2806H11.2806H11.2805H11.2805H11.2805H11.2805H11.2805H11.2805H11.2804H11.2804H11.2804H11.2804H11.2804H11.2804H11.2803H11.2803H11.2803H11.2803H11.2803H11.2803H11.2802H11.2802H11.2802H11.2802H11.2802H11.2802H11.2801H11.2801H11.2801H11.2801H11.2801H11.2801H11.28H11.28H11.28H11.28H11.28H11.28H11.2799H11.2799H11.2799H11.2799H11.2799H11.2799H11.2799H11.2798H11.2798H11.2798H11.2798H11.2798H11.2798H11.2797H11.2797H11.2797H11.2797H11.2797H11.2797H11.2797H11.2796H11.2796H11.2796H11.2796H11.2796H11.2796H11.2795H11.2795H11.2795H11.2795H11.2795H11.2795H11.2795H11.2794H11.2794H11.2794H11.2794H11.2794H11.2794H11.2793H11.2793H11.2793H11.2793H11.2793H11.2793H11.2793H11.2792H11.2792H11.2792H11.2792H11.2792H11.2792H11.2792H11.2791H11.2791H11.2791H11.2791H11.2791H11.2791H11.2791H11.279H11.279H11.279H11.279H11.279H11.279H11.2789H11.2789H11.2789H11.2789H11.2789H11.2789H11.2789H11.2788H11.2788H11.2788H11.2788H11.2788H11.2788H11.2788H11.2787H11.2787H11.2787H11.2787H11.2787H11.2787H11.2787H11.2786H11.2786H11.2786H11.2786H11.2786H11.2786H11.2786H11.2785H11.2785H11.2785H11.2785H11.2785H11.2785H11.2785H11.2784H11.2784H11.2784H11.2784H11.2784H11.2784H11.2783H11.2783H11.2783H11.2783H11.2783H11.2783H11.2783H11.2782H11.2782H11.2782H11.2782H11.2782H11.2782H11.2782H11.2781H11.2781H11.2781H11.2781H11.2781H11.2781H11.278H11.278H11.278H11.278H11.278H11.278H11.278H11.2779H11.2779H11.2779H11.2779H11.2779H11.2779H11.2778H11.2778H11.2778H11.2778H11.2778H11.2778H11.2778H11.2777H11.2777H11.2777H11.2777H11.2777H11.2777H11.2776H11.2776H11.2776H11.2776H11.2776H11.2776H11.2775H11.2775H11.2775H11.2775H11.2775H11.2775H11.2774H11.2774H11.2774H11.2774H11.2774H11.2774H11.2773H11.2773H11.2773H11.2773H11.2773H11.2773H11.2772H11.2772H11.2772H11.2772H11.2772H11.2772H11.2771H11.2771H11.2771H11.2771H11.2771H11.2771H11.277H11.277H11.277H11.277H11.277H11.2769H11.2769H11.2769H11.2769H11.2769H11.2769H11.2768H11.2768H11.2768H11.2768H11.2768H11.2767H11.2767H11.2767H11.2767H11.2767H11.2767H11.2766H11.2766H11.2766H11.2766H11.2766H11.2765H11.2765H11.2765H11.2765H11.2765H11.2764H11.2764H11.2764H11.2764H11.2764H11.2763H11.2763H11.2763H11.2763H11.2763H11.2762H11.2762H11.2762H11.2762H11.2762H11.2761H11.2761H11.2761H11.2761H11.2761H11.276H11.276H11.276H11.276H11.276H11.2759H11.2759H11.2759H11.2759H11.2758H11.2758H11.2758H11.2758H11.2758H11.2757H11.2757H11.2757H11.2757H11.2757H11.2756H11.2756H11.2756H11.2756H11.2755H11.2755H11.2755H11.2755H11.2754H11.2754H11.2754H11.2754H11.2754H11.2753H11.2753H11.2753H11.2753H11.2752H11.2752H11.2752H11.2752H11.2751H11.2751H11.2751H11.2751H11.275H11.275H11.275H11.275H11.2749H11.2749H11.2749H11.2749H11.2748H11.2748H11.2748H11.2748H11.2747H11.2747H11.2747H11.2747H11.2746H11.2746H11.2746H11.2746H11.2745H11.2745H11.2745H11.2745H11.2744H11.2744H11.2744H11.2743H11.2743H11.2743H11.2743H11.2742H11.2742H11.2742H11.2741H11.2741H11.2741H11.2741H11.274H11.274H11.274H11.2739H11.2739H11.2739H11.2739H11.2738C10.1104 11.4601 9.09577 12.2464 8.80364 13.3725L8.80363 13.3725L8.80331 13.3738C8.73368 13.6523 8.90025 13.9401 9.18245 14.0107Z" fill="url(#paint8_linear_1221_21475)" stroke="url(#paint9_linear_1221_21475)" stroke-width="0.3"/>
<path d="M15 22.75H9C3.57 22.75 1.25 20.43 1.25 15V9C1.25 3.57 3.57 1.25 9 1.25H15C20.43 1.25 22.75 3.57 22.75 9V15C22.75 20.43 20.43 22.75 15 22.75ZM9 2.75C4.39 2.75 2.75 4.39 2.75 9V15C2.75 19.61 4.39 21.25 9 21.25H15C19.61 21.25 21.25 19.61 21.25 15V9C21.25 4.39 19.61 2.75 15 2.75H9Z" fill="url(#paint10_linear_1221_21475)"/>
</g>
<defs>
<linearGradient id="paint0_linear_1221_21475" x1="8.89701" y1="13.6389" x2="9.9548" y2="13.6341" gradientUnits="userSpaceOnUse">
<stop stop-color="#005F73"/>
<stop offset="1" stop-color="#6CC24A"/>
</linearGradient>
<linearGradient id="paint1_linear_1221_21475" x1="8.89701" y1="13.6389" x2="9.9548" y2="13.6341" gradientUnits="userSpaceOnUse">
<stop stop-color="#005F73"/>
<stop offset="1" stop-color="#6CC24A"/>
</linearGradient>
<linearGradient id="paint2_linear_1221_21475" x1="7.49239" y1="17.1528" x2="13.1303" y2="17.0068" gradientUnits="userSpaceOnUse">
<stop stop-color="#005F73"/>
<stop offset="1" stop-color="#6CC24A"/>
</linearGradient>
<linearGradient id="paint3_linear_1221_21475" x1="7.49239" y1="17.1528" x2="13.1303" y2="17.0068" gradientUnits="userSpaceOnUse">
<stop stop-color="#005F73"/>
<stop offset="1" stop-color="#6CC24A"/>
</linearGradient>
<linearGradient id="paint4_linear_1221_21475" x1="7.48505" y1="10.1667" x2="12.7706" y2="10.0298" gradientUnits="userSpaceOnUse">
<stop stop-color="#005F73"/>
<stop offset="1" stop-color="#6CC24A"/>
</linearGradient>
<linearGradient id="paint5_linear_1221_21475" x1="7.48505" y1="10.1667" x2="12.7706" y2="10.0298" gradientUnits="userSpaceOnUse">
<stop stop-color="#005F73"/>
<stop offset="1" stop-color="#6CC24A"/>
</linearGradient>
<linearGradient id="paint6_linear_1221_21475" x1="14.4851" y1="10.1667" x2="19.7706" y2="10.0298" gradientUnits="userSpaceOnUse">
<stop stop-color="#005F73"/>
<stop offset="1" stop-color="#6CC24A"/>
</linearGradient>
<linearGradient id="paint7_linear_1221_21475" x1="14.4851" y1="10.1667" x2="19.7706" y2="10.0298" gradientUnits="userSpaceOnUse">
<stop stop-color="#005F73"/>
<stop offset="1" stop-color="#6CC24A"/>
</linearGradient>
<linearGradient id="paint8_linear_1221_21475" x1="9.1508" y1="13.6381" x2="19.3819" y2="13.1867" gradientUnits="userSpaceOnUse">
<stop stop-color="#005F73"/>
<stop offset="1" stop-color="#6CC24A"/>
</linearGradient>
<linearGradient id="paint9_linear_1221_21475" x1="9.1508" y1="13.6381" x2="19.3819" y2="13.1867" gradientUnits="userSpaceOnUse">
<stop stop-color="#005F73"/>
<stop offset="1" stop-color="#6CC24A"/>
</linearGradient>
<linearGradient id="paint10_linear_1221_21475" x1="1.88098" y1="21.5556" x2="32.1846" y2="20.7707" gradientUnits="userSpaceOnUse">
<stop stop-color="#005F73"/>
<stop offset="1" stop-color="#6CC24A"/>
</linearGradient>
</defs>
</svg>
