<svg width="30" height="33" viewBox="0 0 30 33" fill="none" xmlns="http://www.w3.org/2000/svg">
<g filter="url(#filter0_d_1221_46053)">
<g filter="url(#filter1_dd_1221_46053)">
<path d="M11.725 17.1667C11.725 17.4546 11.9622 17.6917 12.25 17.6917C12.5378 17.6917 12.775 17.4546 12.775 17.1667V13.6667C12.775 13.3789 12.5378 13.1417 12.25 13.1417C11.9622 13.1417 11.725 13.3789 11.725 13.6667V17.1667Z" fill="white" stroke="white" stroke-width="0.3"/>
<path d="M10.225 19.0417C10.225 20.2296 11.1872 21.1917 12.375 21.1917C13.5628 21.1917 14.525 20.2296 14.525 19.0417C14.525 17.8539 13.5628 16.8917 12.375 16.8917C11.1872 16.8917 10.225 17.8539 10.225 19.0417ZM11.275 19.0417C11.275 18.4346 11.7678 17.9417 12.375 17.9417C12.9822 17.9417 13.475 18.4346 13.475 19.0417C13.475 19.6489 12.9822 20.1417 12.375 20.1417C11.7678 20.1417 11.275 19.6489 11.275 19.0417Z" fill="white" stroke="white" stroke-width="0.3"/>
<path d="M10.225 12.1667C10.225 13.2846 11.1322 14.1917 12.25 14.1917C13.3678 14.1917 14.275 13.2846 14.275 12.1667C14.275 11.0489 13.3678 10.1417 12.25 10.1417C11.1322 10.1417 10.225 11.0489 10.225 12.1667ZM11.275 12.1667C11.275 11.6296 11.7128 11.1917 12.25 11.1917C12.7872 11.1917 13.225 11.6296 13.225 12.1667C13.225 12.7039 12.7872 13.1417 12.25 13.1417C11.7128 13.1417 11.275 12.7039 11.275 12.1667Z" fill="white" stroke="white" stroke-width="0.3"/>
<path d="M17.225 12.1667C17.225 13.2846 18.1322 14.1917 19.25 14.1917C20.3678 14.1917 21.275 13.2846 21.275 12.1667C21.275 11.0489 20.3678 10.1417 19.25 10.1417C18.1322 10.1417 17.225 11.0489 17.225 12.1667ZM18.275 12.1667C18.275 11.6296 18.7128 11.1917 19.25 11.1917C19.7872 11.1917 20.225 11.6296 20.225 12.1667C20.225 12.7039 19.7872 13.1417 19.25 13.1417C18.7128 13.1417 18.275 12.7039 18.275 12.1667Z" fill="white" stroke="white" stroke-width="0.3"/>
<path d="M12.1825 17.6772L12.19 17.679L12.1976 17.6801C12.2013 17.6807 12.2051 17.6812 12.2092 17.6818C12.2377 17.686 12.2758 17.6916 12.3138 17.6916C12.5413 17.6916 12.761 17.5408 12.8193 17.3033C12.9926 16.6395 13.588 16.1766 14.2738 16.1766H14.2786H14.2788L15.9934 16.1816V16.1817L15.9954 16.1816C17.4806 16.166 18.8334 15.2386 19.3253 13.8215C19.4241 13.5451 19.2735 13.252 19.0045 13.1555C18.7278 13.0561 18.4343 13.2068 18.3376 13.476L18.3371 13.4774C17.9932 14.4669 17.0552 15.1316 16.0088 15.1316H16.0088H16.0088H16.0087H16.0087H16.0087H16.0087H16.0086H16.0086H16.0086H16.0085H16.0085H16.0085H16.0085H16.0084H16.0084H16.0084H16.0084H16.0083H16.0083H16.0083H16.0082H16.0082H16.0082H16.0082H16.0081H16.0081H16.0081H16.0081H16.008H16.008H16.008H16.008H16.0079H16.0079H16.0079H16.0078H16.0078H16.0078H16.0078H16.0077H16.0077H16.0077H16.0077H16.0076H16.0076H16.0076H16.0076H16.0076H16.0075H16.0075H16.0075H16.0075H16.0074H16.0074H16.0074H16.0074H16.0073H16.0073H16.0073H16.0073H16.0072H16.0072H16.0072H16.0072H16.0072H16.0071H16.0071H16.0071H16.0071H16.007H16.007H16.007H16.007H16.0069H16.0069H16.0069H16.0069H16.0069H16.0068H16.0068H16.0068H16.0068H16.0068H16.0067H16.0067H16.0067H16.0067H16.0066H16.0066H16.0066H16.0066H16.0066H16.0065H16.0065H16.0065H16.0065H16.0065H16.0064H16.0064H16.0064H16.0064H16.0064H16.0063H16.0063H16.0063H16.0063H16.0063H16.0062H16.0062H16.0062H16.0062H16.0062H16.0061H16.0061H16.0061H16.0061H16.0061H16.0061H16.006H16.006H16.006H16.006H16.006H16.0059H16.0059H16.0059H16.0059H16.0059H16.0058H16.0058H16.0058H16.0058H16.0058H16.0058H16.0057H16.0057H16.0057H16.0057H16.0057H16.0056H16.0056H16.0056H16.0056H16.0056H16.0056H16.0055H16.0055H16.0055H16.0055H16.0055H16.0055H16.0054H16.0054H16.0054H16.0054H16.0054H16.0054H16.0053H16.0053H16.0053H16.0053H16.0053H16.0053H16.0052H16.0052H16.0052H16.0052H16.0052H16.0052H16.0051H16.0051H16.0051H16.0051H16.0051H16.0051H16.005H16.005H16.005H16.005H16.005H16.005H16.0049H16.0049H16.0049H16.0049H16.0049H16.0049H16.0049H16.0048H16.0048H16.0048H16.0048H16.0048H16.0048H16.0047H16.0047H16.0047H16.0047H16.0047H16.0047H16.0047H16.0046H16.0046H16.0046H16.0046H16.0046H16.0046H16.0045H16.0045H16.0045H16.0045H16.0045H16.0045H16.0045H16.0044H16.0044H16.0044H16.0044H16.0044H16.0044H16.0043H16.0043H16.0043H16.0043H16.0043H16.0043H16.0043H16.0042H16.0042H16.0042H16.0042H16.0042H16.0042H16.0042H16.0041H16.0041H16.0041H16.0041H16.0041H16.0041H16.0041H16.004H16.004H16.004H16.004H16.004H16.004H16.004H16.0039H16.0039H16.0039H16.0039H16.0039H16.0039H16.0038H16.0038H16.0038H16.0038H16.0038H16.0038H16.0038H16.0037H16.0037H16.0037H16.0037H16.0037H16.0037H16.0037H16.0036H16.0036H16.0036H16.0036H16.0036H16.0036H16.0036H16.0035H16.0035H16.0035H16.0035H16.0035H16.0035H16.0035H16.0034H16.0034H16.0034H16.0034H16.0034H16.0034H16.0033H16.0033H16.0033H16.0033H16.0033H16.0033H16.0033H16.0032H16.0032H16.0032H16.0032H16.0032H16.0032H16.0032H16.0031H16.0031H16.0031H16.0031H16.0031H16.0031H16.003H16.003H16.003H16.003H16.003H16.003H16.003H16.0029H16.0029H16.0029H16.0029H16.0029H16.0029H16.0028H16.0028H16.0028H16.0028H16.0028H16.0028H16.0028H16.0027H16.0027H16.0027H16.0027H16.0027H16.0027H16.0026H16.0026H16.0026H16.0026H16.0026H16.0026H16.0025H16.0025H16.0025H16.0025H16.0025H16.0025H16.0024H16.0024H16.0024H16.0024H16.0024H16.0024H16.0023H16.0023H16.0023H16.0023H16.0023H16.0023H16.0022H16.0022H16.0022H16.0022H16.0022H16.0022H16.0021H16.0021H16.0021H16.0021H16.0021H16.0021H16.002H16.002H16.002H16.002H16.002H16.0019H16.0019H16.0019H16.0019H16.0019H16.0019H16.0018H16.0018H16.0018H16.0018H16.0018H16.0017H16.0017H16.0017H16.0017H16.0017H16.0017H16.0016H16.0016H16.0016H16.0016H16.0016H16.0015H16.0015H16.0015H16.0015H16.0015H16.0014H16.0014H16.0014H16.0014H16.0014H16.0013H16.0013H16.0013H16.0013H16.0013H16.0012H16.0012H16.0012H16.0012H16.0012H16.0011H16.0011H16.0011H16.0011H16.0011H16.001H16.001H16.001H16.001H16.001H16.0009H16.0009H16.0009H16.0009H16.0008H16.0008H16.0008H16.0008H16.0008H16.0007H16.0007H16.0007H16.0007H16.0007H16.0006H16.0006H16.0006H16.0006H16.0005H16.0005H16.0005H16.0005H16.0004H16.0004H16.0004H16.0004H16.0004H16.0003H16.0003H16.0003H16.0003H16.0002H16.0002H16.0002H16.0002H16.0001H16.0001H16.0001H16.0001H16H16H16H16H15.9999H15.9999H15.9999H15.9999H15.9998H15.9998H15.9998H15.9998H15.9997H15.9997H15.9997H15.9997H15.9996H15.9996H15.9996H15.9996H15.9995H15.9995H15.9995H15.9995H15.9994H15.9994H15.9994H15.9993H15.9993H15.9993H15.9993H15.9992H15.9992H15.9992H15.9991H15.9991H15.9991H15.9991H15.999H15.999H15.999H15.9989H15.9989H15.9989H15.9989H15.9988L14.2843 15.1266H14.2838H14.2838H14.2838H14.2837H14.2837H14.2837H14.2837H14.2836H14.2836H14.2836H14.2835H14.2835H14.2835H14.2835H14.2834H14.2834H14.2834H14.2834H14.2833H14.2833H14.2833H14.2832H14.2832H14.2832H14.2832H14.2831H14.2831H14.2831H14.2831H14.283H14.283H14.283H14.283H14.2829H14.2829H14.2829H14.2828H14.2828H14.2828H14.2828H14.2827H14.2827H14.2827H14.2827H14.2826H14.2826H14.2826H14.2826H14.2826H14.2825H14.2825H14.2825H14.2825H14.2824H14.2824H14.2824H14.2824H14.2823H14.2823H14.2823H14.2823H14.2822H14.2822H14.2822H14.2822H14.2821H14.2821H14.2821H14.2821H14.2821H14.282H14.282H14.282H14.282H14.2819H14.2819H14.2819H14.2819H14.2819H14.2818H14.2818H14.2818H14.2818H14.2818H14.2817H14.2817H14.2817H14.2817H14.2816H14.2816H14.2816H14.2816H14.2816H14.2815H14.2815H14.2815H14.2815H14.2815H14.2814H14.2814H14.2814H14.2814H14.2814H14.2813H14.2813H14.2813H14.2813H14.2813H14.2812H14.2812H14.2812H14.2812H14.2812H14.2811H14.2811H14.2811H14.2811H14.2811H14.2811H14.281H14.281H14.281H14.281H14.281H14.2809H14.2809H14.2809H14.2809H14.2809H14.2808H14.2808H14.2808H14.2808H14.2808H14.2808H14.2807H14.2807H14.2807H14.2807H14.2807H14.2806H14.2806H14.2806H14.2806H14.2806H14.2806H14.2805H14.2805H14.2805H14.2805H14.2805H14.2805H14.2804H14.2804H14.2804H14.2804H14.2804H14.2804H14.2803H14.2803H14.2803H14.2803H14.2803H14.2803H14.2802H14.2802H14.2802H14.2802H14.2802H14.2802H14.2801H14.2801H14.2801H14.2801H14.2801H14.2801H14.28H14.28H14.28H14.28H14.28H14.28H14.2799H14.2799H14.2799H14.2799H14.2799H14.2799H14.2799H14.2798H14.2798H14.2798H14.2798H14.2798H14.2798H14.2797H14.2797H14.2797H14.2797H14.2797H14.2797H14.2797H14.2796H14.2796H14.2796H14.2796H14.2796H14.2796H14.2795H14.2795H14.2795H14.2795H14.2795H14.2795H14.2795H14.2794H14.2794H14.2794H14.2794H14.2794H14.2794H14.2793H14.2793H14.2793H14.2793H14.2793H14.2793H14.2793H14.2792H14.2792H14.2792H14.2792H14.2792H14.2792H14.2792H14.2791H14.2791H14.2791H14.2791H14.2791H14.2791H14.2791H14.279H14.279H14.279H14.279H14.279H14.279H14.2789H14.2789H14.2789H14.2789H14.2789H14.2789H14.2789H14.2788H14.2788H14.2788H14.2788H14.2788H14.2788H14.2788H14.2787H14.2787H14.2787H14.2787H14.2787H14.2787H14.2787H14.2786H14.2786H14.2786H14.2786H14.2786H14.2786H14.2786H14.2785H14.2785H14.2785H14.2785H14.2785H14.2785H14.2785H14.2784H14.2784H14.2784H14.2784H14.2784H14.2784H14.2783H14.2783H14.2783H14.2783H14.2783H14.2783H14.2783H14.2782H14.2782H14.2782H14.2782H14.2782H14.2782H14.2782H14.2781H14.2781H14.2781H14.2781H14.2781H14.2781H14.278H14.278H14.278H14.278H14.278H14.278H14.278H14.2779H14.2779H14.2779H14.2779H14.2779H14.2779H14.2778H14.2778H14.2778H14.2778H14.2778H14.2778H14.2778H14.2777H14.2777H14.2777H14.2777H14.2777H14.2777H14.2776H14.2776H14.2776H14.2776H14.2776H14.2776H14.2775H14.2775H14.2775H14.2775H14.2775H14.2775H14.2774H14.2774H14.2774H14.2774H14.2774H14.2774H14.2773H14.2773H14.2773H14.2773H14.2773H14.2773H14.2772H14.2772H14.2772H14.2772H14.2772H14.2772H14.2771H14.2771H14.2771H14.2771H14.2771H14.2771H14.277H14.277H14.277H14.277H14.277H14.2769H14.2769H14.2769H14.2769H14.2769H14.2769H14.2768H14.2768H14.2768H14.2768H14.2768H14.2767H14.2767H14.2767H14.2767H14.2767H14.2767H14.2766H14.2766H14.2766H14.2766H14.2766H14.2765H14.2765H14.2765H14.2765H14.2765H14.2764H14.2764H14.2764H14.2764H14.2764H14.2763H14.2763H14.2763H14.2763H14.2763H14.2762H14.2762H14.2762H14.2762H14.2762H14.2761H14.2761H14.2761H14.2761H14.2761H14.276H14.276H14.276H14.276H14.276H14.2759H14.2759H14.2759H14.2759H14.2758H14.2758H14.2758H14.2758H14.2758H14.2757H14.2757H14.2757H14.2757H14.2757H14.2756H14.2756H14.2756H14.2756H14.2755H14.2755H14.2755H14.2755H14.2754H14.2754H14.2754H14.2754H14.2754H14.2753H14.2753H14.2753H14.2753H14.2752H14.2752H14.2752H14.2752H14.2751H14.2751H14.2751H14.2751H14.275H14.275H14.275H14.275H14.2749H14.2749H14.2749H14.2749H14.2748H14.2748H14.2748H14.2748H14.2747H14.2747H14.2747H14.2747H14.2746H14.2746H14.2746H14.2746H14.2745H14.2745H14.2745H14.2745H14.2744H14.2744H14.2744H14.2743H14.2743H14.2743H14.2743H14.2742H14.2742H14.2742H14.2741H14.2741H14.2741H14.2741H14.274H14.274H14.274H14.2739H14.2739H14.2739H14.2739H14.2738C13.1104 15.1266 12.0958 15.9129 11.8036 17.039L11.8036 17.039L11.8033 17.0403C11.7337 17.3188 11.9002 17.6066 12.1825 17.6772Z" fill="white" stroke="white" stroke-width="0.3"/>
<path d="M18 26.4167H12C6.57 26.4167 4.25 24.0967 4.25 18.6667V12.6667C4.25 7.23675 6.57 4.91675 12 4.91675H18C23.43 4.91675 25.75 7.23675 25.75 12.6667V18.6667C25.75 24.0967 23.43 26.4167 18 26.4167ZM12 6.41675C7.39 6.41675 5.75 8.05675 5.75 12.6667V18.6667C5.75 23.2767 7.39 24.9167 12 24.9167H18C22.61 24.9167 24.25 23.2767 24.25 18.6667V12.6667C24.25 8.05675 22.61 6.41675 18 6.41675H12Z" fill="white"/>
</g>
</g>
<defs>
<filter id="filter0_d_1221_46053" x="-1" y="-0.333252" width="32" height="32" filterUnits="userSpaceOnUse" color-interpolation-filters="sRGB">
<feFlood flood-opacity="0" result="BackgroundImageFix"/>
<feColorMatrix in="SourceAlpha" type="matrix" values="0 0 0 0 0 0 0 0 0 0 0 0 0 0 0 0 0 0 127 0" result="hardAlpha"/>
<feOffset/>
<feGaussianBlur stdDeviation="2"/>
<feColorMatrix type="matrix" values="0 0 0 0 0 0 0 0 0 0 0 0 0 0 0 0 0 0 0.15 0"/>
<feBlend mode="normal" in2="BackgroundImageFix" result="effect1_dropShadow_1221_46053"/>
<feBlend mode="normal" in="SourceGraphic" in2="effect1_dropShadow_1221_46053" result="shape"/>
</filter>
<filter id="filter1_dd_1221_46053" x="2.25" y="4.91675" width="25.5" height="27.5" filterUnits="userSpaceOnUse" color-interpolation-filters="sRGB">
<feFlood flood-opacity="0" result="BackgroundImageFix"/>
<feColorMatrix in="SourceAlpha" type="matrix" values="0 0 0 0 0 0 0 0 0 0 0 0 0 0 0 0 0 0 127 0" result="hardAlpha"/>
<feMorphology radius="2" operator="erode" in="SourceAlpha" result="effect1_dropShadow_1221_46053"/>
<feOffset dy="4"/>
<feGaussianBlur stdDeviation="2"/>
<feColorMatrix type="matrix" values="0 0 0 0 0.0941176 0 0 0 0 0.152941 0 0 0 0 0.294118 0 0 0 0.08 0"/>
<feBlend mode="normal" in2="BackgroundImageFix" result="effect1_dropShadow_1221_46053"/>
<feColorMatrix in="SourceAlpha" type="matrix" values="0 0 0 0 0 0 0 0 0 0 0 0 0 0 0 0 0 0 127 0" result="hardAlpha"/>
<feMorphology radius="2" operator="erode" in="SourceAlpha" result="effect2_dropShadow_1221_46053"/>
<feOffset dy="2"/>
<feGaussianBlur stdDeviation="2"/>
<feColorMatrix type="matrix" values="0 0 0 0 0.0941176 0 0 0 0 0.152941 0 0 0 0 0.294118 0 0 0 0.12 0"/>
<feBlend mode="normal" in2="effect1_dropShadow_1221_46053" result="effect2_dropShadow_1221_46053"/>
<feBlend mode="normal" in="SourceGraphic" in2="effect2_dropShadow_1221_46053" result="shape"/>
</filter>
</defs>
</svg>
