<svg width="16" height="16" viewBox="0 0 16 16" fill="none" xmlns="http://www.w3.org/2000/svg">
<g clip-path="url(#clip0_6495_40499)">
<path d="M8.50184 2.18994C8.44703 2.13038 8.37937 2.08262 8.30341 2.04986C8.22746 2.0171 8.14497 2.0001 8.06149 2C7.97828 1.99968 7.89596 2.01616 7.82002 2.04834C7.74408 2.08052 7.67628 2.12766 7.62114 2.18661M8.50184 2.18994L8.22351 2.44125C8.22401 2.4418 8.22452 2.44236 8.22502 2.44292M8.50184 2.18994C12.5214 6.64172 10.221 10.1572 8.47718 11.8566C8.3625 11.9689 8.2054 12.0336 8.04035 12.0365M8.50184 2.18994L8.22592 2.4439C8.22562 2.44357 8.22532 2.44324 8.22502 2.44292M8.22502 2.44292C8.20677 2.42338 8.18313 2.40638 8.15489 2.3942C8.12615 2.3818 8.09409 2.37504 8.06106 2.375L8.06004 2.375C8.02713 2.37487 7.99511 2.38143 7.96633 2.39362C7.93777 2.40572 7.91383 2.42276 7.89535 2.4424M8.22502 2.44292C10.1704 4.59824 10.5485 6.47636 10.2815 7.99026C10.0103 9.52782 9.06084 10.7641 8.21546 11.588L8.21481 11.5886C8.17111 11.6314 8.10721 11.6598 8.03574 11.6615M7.89535 2.4424C7.89555 2.44219 7.89575 2.44198 7.89594 2.44177L7.62114 2.18661M7.89535 2.4424C7.89524 2.44253 7.89512 2.44265 7.895 2.44278L7.62114 2.18661M7.89535 2.4424C5.88898 4.60353 5.50315 6.48754 5.77611 8.00308C6.05364 9.54395 7.02579 10.7826 7.88071 11.6026L7.62114 11.8732M7.62114 2.18661C3.47831 6.64838 5.85973 10.1838 7.62114 11.8732M7.62114 11.8732L7.87972 11.6016C7.89851 11.6195 7.92203 11.6348 7.94944 11.6454C7.97627 11.6559 8.00565 11.6615 8.03574 11.6615M7.62114 11.8732L8.04035 12.0365M8.04035 12.0365L8.03372 11.6616C8.03439 11.6616 8.03507 11.6615 8.03574 11.6615M8.04035 12.0365L8.03771 11.6615C8.03705 11.6615 8.0364 11.6615 8.03574 11.6615" stroke="#888888" stroke-width="0.75"/>
<path d="M0.37314 7.86645C0.371643 7.85942 0.371714 7.85235 0.373372 7.84529C0.375077 7.83804 0.378713 7.82979 0.385354 7.82143L0.385432 7.82149L0.390627 7.81463C0.39533 7.80842 0.402892 7.80152 0.413934 7.79599C0.425035 7.79042 0.43847 7.78686 0.453022 7.78651L0.460275 7.78634L0.467516 7.78588C2.01053 7.68878 3.16912 7.9329 4.01938 8.34778C4.31132 9.81535 5.02503 11.1722 6.0741 12.2722C5.17253 12.3367 4.09517 12.2591 3.11045 11.7836C1.95844 11.2272 0.879507 10.1003 0.37314 7.86645Z" stroke="#888888" stroke-width="0.75"/>
<path d="M12.8858 11.7836C11.9011 12.2591 10.8238 12.3367 9.92218 12.2722C10.971 11.1724 11.6847 9.8159 11.9767 8.34867C12.8361 7.93265 13.9863 7.68882 15.5288 7.78588L15.536 7.78634L15.5433 7.78651C15.5578 7.78686 15.5712 7.79042 15.5823 7.79599C15.5934 7.80152 15.6009 7.80842 15.6057 7.81463L15.6056 7.81469L15.6109 7.82143C15.6176 7.82979 15.6212 7.83804 15.6229 7.84529C15.6246 7.85249 15.6246 7.8597 15.623 7.86687L15.9891 7.9481L15.6234 7.86525C15.1172 10.0999 14.038 11.2271 12.8858 11.7836Z" stroke="#888888" stroke-width="0.75"/>
<path d="M2.43271 3.75007L2.43268 3.75015L2.44011 3.75257C3.11806 3.9738 3.7586 4.28385 4.34321 4.67291C4.1951 5.02617 4.0247 5.60087 3.9243 6.49672C3.35912 6.32997 2.77696 6.21996 2.18744 6.16853C2.08439 5.38133 2.12726 4.5824 2.31498 3.80759L2.31502 3.8076L2.31629 3.802C2.3179 3.79489 2.32135 3.78684 2.32765 3.77863C2.33391 3.7705 2.34299 3.76225 2.35521 3.75546C2.36563 3.74992 2.37825 3.74604 2.39216 3.74494C2.40633 3.74383 2.42027 3.74572 2.43271 3.75007Z" stroke="#888888" stroke-width="0.75"/>
<path d="M13.7269 3.78557L13.7284 3.79264L13.7301 3.79964C13.9216 4.57325 13.9658 5.37194 13.8614 6.15856C13.2708 6.20977 12.6875 6.31978 12.1212 6.48673C12.0221 5.58951 11.8505 5.01556 11.7038 4.66396C12.2879 4.275 12.9278 3.96465 13.605 3.74265L13.605 3.74272L13.6119 3.7403C13.6244 3.73596 13.6383 3.73406 13.6525 3.73518C13.6667 3.73629 13.6795 3.74029 13.69 3.746L13.69 3.74603L13.6944 3.74833C13.7054 3.75414 13.7133 3.76125 13.7184 3.7679C13.7235 3.77448 13.7259 3.7806 13.7269 3.78557Z" stroke="#888888" stroke-width="0.75"/>
</g>
<defs>
<clipPath id="clip0_6495_40499">
<rect width="16" height="16" fill="white"/>
</clipPath>
</defs>
</svg>
