<svg width="193" height="140" viewBox="0 0 193 140" fill="none" xmlns="http://www.w3.org/2000/svg">
<rect x="0.5" y="0.5" width="192" height="139" rx="11.5" fill="white" stroke="#E9EDF5"/>
<path d="M8.44342 139L69.7674 138.682L86.1135 138.677L91.5287 138.675L107.906 138.67L182.728 138.65C182.728 138.65 199.842 116.698 181.561 95.8489C162.607 74.2323 152.985 92.6873 138.989 56.263C108.268 -23.6812 -12.0918 29.3959 25.9387 94.5725C39.6324 118.04 -1.01584 105.567 8.44342 139Z" fill="#EBF3FA"/>
<path d="M83.9551 64.3062C83.9551 64.3062 81.8292 71.1162 80.5869 70.6426C79.3445 70.1689 83.5025 63.2248 83.5025 63.2248C83.5025 63.2248 79.2213 57.3985 76.8474 56.4163C76.8474 56.4163 77.2024 64.3589 76.1143 63.5938C75.0269 62.8287 74.2736 54.5807 74.2736 54.5807C74.2736 54.5807 68.9562 50.352 66.1514 53.3442C63.3466 56.3365 63.9465 58.8977 64.7045 59.5814C65.4624 60.2644 71.1077 63.1736 70.5752 63.824C70.0428 64.4752 65.6368 63.6263 63.8736 61.8481C63.8736 61.8481 63.1451 68.841 66.3583 70.1759C69.5716 71.5108 71.5246 70.1209 73.4955 70.9821C75.4664 71.8433 76.5785 73.0891 75.361 73.0953C74.1434 73.1015 71.1216 71.055 68.9012 71.5426C66.6808 72.0302 65.0168 72.1728 67.5472 74.265C70.0777 76.3573 75.3679 78.7045 77.5488 77.0611C77.6442 76.9898 77.7348 76.9208 77.8216 76.8557C77.6643 77.0038 77.5488 77.0611 77.5488 77.0611C77.91 77.6456 77.9208 79.5208 77.872 80.9293C77.8488 81.1611 77.8317 81.4898 77.824 81.9441C77.8123 82.1448 77.8007 82.3092 77.793 82.4231C77.462 85.4611 74.6324 89.5052 74.6324 89.5052L75.1525 89.9905C78.8144 86.3456 78.3603 81.5092 78.3603 81.5092C78.3409 77.8557 79.7297 75.4177 79.7297 75.4177C79.7297 75.4177 86.8173 75.2627 86.4747 69.7565C86.4747 69.7573 85.7911 66.124 83.9551 64.3062Z" fill="#DFEBFD"/>
<path d="M63.0748 89.6976C63.0748 89.6976 73.5012 94.6402 72.4619 96.5239C71.4226 98.4076 61.2404 90.1782 61.2404 90.1782C61.2404 90.1782 50.9427 95.7224 48.8347 99.3037C48.8347 99.3037 61.6341 100.528 60.1631 102.097C58.6921 103.667 45.3138 103.012 45.3138 103.012C45.3138 103.012 37.3411 110.577 41.5007 115.746C45.6602 120.916 49.8972 120.532 51.162 119.473C52.4269 118.413 58.3596 110.025 59.2819 111.025C60.2042 112.025 57.8512 118.893 54.6047 121.316C54.6047 121.316 65.6394 124.061 68.5023 119.214C71.3652 114.368 69.5796 110.925 71.404 107.962C73.2276 104.999 75.4736 103.497 75.2093 105.45C74.945 107.402 70.9854 111.782 71.2645 115.449C71.5435 119.117 71.397 121.814 75.3193 118.233C79.2417 114.652 84.1941 106.705 82.055 102.84C81.962 102.672 81.8729 102.511 81.7876 102.357C81.9884 102.643 82.055 102.84 82.055 102.84C83.0726 102.393 86.0781 102.799 88.3226 103.196C88.6884 103.286 89.2108 103.387 89.9377 103.502C90.257 103.566 90.5167 103.622 90.6972 103.66C95.4869 104.876 101.325 110.322 101.325 110.322L102.22 109.599C97.2089 102.909 89.3627 102.546 89.3627 102.546C83.5074 101.752 79.9168 98.9758 79.9168 98.9758C79.9168 98.9758 81.2684 87.586 72.3727 86.8906C72.3727 86.8906 66.3997 87.1658 63.0748 89.6976Z" fill="#CDE0FB"/>
<path d="M142.649 75.8351C142.843 69.7693 132.856 68.6321 132.856 68.6321C132.856 68.6321 123.444 76.4754 121.505 76.139C119.567 75.8018 128.243 67.8607 128.243 67.8607C124.733 66.4057 114.159 68.0243 114.159 68.0243C114.159 68.0243 111.249 79.6413 109.453 78.8374C107.657 78.0335 112.554 68.6824 112.554 68.6824C108.732 68.6631 104.217 71.7506 104.217 71.7506C98.1006 77.156 105.356 84.7319 105.356 84.7319C105.356 84.7319 104.26 88.7358 100.419 92.5396C100.419 92.5396 99.6096 93.211 98.6113 94.4683L99.5654 94.7598C99.7211 94.5272 99.8831 94.3063 100.051 94.0978C100.051 94.0962 100.052 94.0947 100.054 94.0939C100.056 94.0908 100.058 94.0877 100.061 94.0846C100.171 93.9567 100.329 93.7761 100.524 93.5559L100.525 93.5551C100.525 93.5544 100.526 93.5551 100.526 93.5544C100.991 93.0722 101.318 92.711 101.535 92.4443C101.535 92.4435 101.536 92.4428 101.536 92.442C102.958 90.9164 104.929 88.966 105.918 88.7327C105.918 88.7327 105.858 88.5521 105.848 88.2327C105.87 88.3924 105.893 88.5583 105.918 88.7327C106.482 92.7334 114.473 95.8125 119.309 96.2699C124.145 96.7272 122.553 94.8365 120.74 92.004C118.925 89.1715 113.623 88.1521 112.355 86.8715C111.088 85.5909 113.554 85.4513 116.517 86.6118C119.48 87.7722 120.07 91.2707 124.829 93.235C129.588 95.1993 136.138 87.1195 136.138 87.1195C132.433 87.1358 126.936 83.4149 127.058 82.1762C127.182 80.9374 136.131 83.7994 137.639 83.8777C139.149 83.9537 142.456 81.9017 142.649 75.8351Z" fill="#CDE0FB"/>
<path d="M110.2 51.3396C111.01 53.4721 117.945 59.0728 117.945 59.0728C117.945 59.0728 120.206 57.2356 122.299 55.2574C123.866 53.793 125.33 52.2512 125.677 51.3388C126.499 49.2194 125.626 46.1877 122.595 45.6737C119.577 45.1598 117.945 48.3202 117.945 48.3202C117.945 48.3202 116.314 45.1598 113.283 45.6737C112.756 45.7636 112.294 45.9303 111.895 46.1621C110.007 47.2156 109.532 49.5923 110.2 51.3396Z" fill="#F99746"/>
<path d="M86.1012 32.1269C85.9578 31.6892 84.2435 27.0235 76.9366 28.8731C76.9366 28.8731 80.6172 28.2667 81.6844 29.6576C81.6844 29.6576 78.7029 28.4214 76.9103 29.6172C75.1169 30.8129 74.958 34.6164 75.275 35.7601C75.592 36.9038 77.7473 40.2626 79.0896 40.212C79.598 40.1926 80.1351 40.0029 80.6063 39.7743C80.4234 40.3924 80.263 41.0634 80.1359 41.7965C78.9625 48.5794 83.6142 53.5258 85.8734 52.1753C87.3219 51.3091 88.5394 53.8632 88.5394 53.8632L100.203 37.078C100.203 37.0772 91.2628 27.0888 86.1012 32.1269Z" fill="#2C3A64"/>
<path d="M102.448 97.3098C102.389 99.1152 105.582 105.006 107.414 110.097C107.414 110.097 107.414 110.097 107.415 110.098C108.596 113.384 109.764 116.43 110.391 118.046C110.783 119.054 111.091 120.093 111.306 121.152C111.852 123.841 112.741 129.475 113.033 138.632C113.037 138.754 113.04 138.877 113.044 139L96.5419 138.995L96.476 138.632L96.1141 136.644L96.1117 136.633L96.462 127.986L95.4212 126.379L92.4374 127.508L91.1167 138.632L91.0749 138.993L74.5407 138.989C74.5407 138.87 74.5407 138.751 74.5399 138.633C74.5352 135.734 74.5321 133.261 74.5314 131.154C74.5267 123.962 75.814 116.829 78.3367 110.097C80.2549 104.981 83.0945 99.6275 82.4978 97.1131C82.359 96.5316 80.3572 91.4328 79.4101 86.5914C79.3109 86.086 79.2132 85.5783 79.1156 85.0721C79.0908 85.1709 79.0675 85.2696 79.0443 85.3691C77.5144 91.7772 75.5211 100.091 75.1452 101.466C74.519 103.753 68.7536 121.35 68.7536 121.35H65.9473C65.9473 121.35 67.7019 104.106 69.2806 99.7068C70.8585 95.3078 71.6351 78.8709 73.1386 71.7289C73.9206 68.0179 75.1521 66.3976 77.1765 65.3325C77.1765 65.3325 77.1765 65.3325 77.1773 65.3317V65.3309C78.2142 64.7859 79.4597 64.3863 80.9586 63.9252C81.9057 63.6336 82.9535 63.3188 84.1152 62.9285C85.7908 62.3648 87.3494 61.501 87.8159 59.7897C88.2321 58.2651 88.5321 56.2568 88.5483 53.8497V53.8489C88.5522 53.3614 88.5437 52.8576 88.522 52.339C88.522 52.339 88.522 52.339 88.522 52.3383V52.3359L89.0188 52.4129L89.4946 52.4891L97.3533 53.7463C97.3533 53.7463 97.3533 53.7463 97.3533 53.7471C97.3533 53.7471 97.3502 53.8435 97.3456 54.0176C97.3448 54.0441 97.3432 54.0736 97.3425 54.1055V54.1195C97.3417 54.1467 97.3401 54.1763 97.3401 54.2081C97.3378 54.2633 97.337 54.324 97.3355 54.3893C97.3347 54.4336 97.3332 54.4795 97.3324 54.5285C97.3293 54.6847 97.3254 54.8612 97.3223 55.0548C97.3215 55.1054 97.32 55.1559 97.32 55.208C97.32 55.2336 97.3192 55.2593 97.3192 55.2857C97.3184 55.3643 97.3169 55.4443 97.3161 55.5268V55.5384C97.3138 55.6893 97.313 55.8455 97.3122 56.0072C97.3099 56.347 97.3099 56.7101 97.313 57.0864C97.3138 57.2489 97.3161 57.4129 97.3177 57.5793C97.3184 57.6166 97.32 57.654 97.32 57.6928C97.3231 57.853 97.3262 58.0155 97.3301 58.178C97.3347 58.3949 97.3409 58.6118 97.3487 58.828C97.3975 60.2376 97.1937 61.2802 97.575 61.9986C97.9927 62.787 100.201 63.3467 102.623 64.3691C103.86 64.8916 105.155 65.5338 106.295 66.3891C107.728 67.4628 108.918 68.8731 109.447 70.8021C111.377 77.8407 112.649 95.3117 114.227 99.7107C115.806 104.11 117.56 121.354 117.56 121.354H114.754C114.754 121.354 108.989 103.757 108.362 101.47C108.169 100.763 107.549 98.2226 106.784 95.0504C106.085 92.1535 105.265 88.7302 104.54 85.6949C104.471 85.4065 104.404 85.1211 104.336 84.8397C104.299 85.6358 104.263 86.4312 104.227 87.2126C104.008 91.9747 102.489 96.0386 102.448 97.3098Z" fill="#FFB27D"/>
<path d="M97.3513 53.7498C97.3513 53.7498 97.2607 56.3684 97.3475 58.8292C92.7136 58.8727 90.108 54.7287 89.0176 52.418L97.3513 53.7498Z" fill="#ED985F"/>
<path d="M98.9856 56.0213C98.9856 56.0213 88.0393 56.6153 87.7757 49.771C87.5122 42.9268 85.9219 38.394 92.8994 37.7254C99.8769 37.0567 101.336 39.6155 101.978 41.8787C102.62 44.142 101.826 55.6901 98.9856 56.0213Z" fill="#FFB27D"/>
<path d="M101.513 38.088C99.7424 36.0929 98.4799 36.5929 97.7862 37.239C91.676 34.1624 88.0009 39.1897 88.0009 39.1897C87.4521 44.1283 84.0273 47.0742 84.0273 47.0742C84.0273 47.0742 86.0703 48.2358 90.6282 46.8752C92.0201 46.4592 93.2376 45.4096 94.2591 44.154C92.5138 47.3564 90.0632 49.7083 90.0632 49.7083C95.4651 46.9521 97.3855 39.1982 97.5754 38.3795C98.2667 38.9564 99.6339 40.2152 100.083 41.4833C100.695 43.2054 101.075 46.7842 102.112 46.6233C102.112 46.6233 104.168 41.0798 101.513 38.088Z" fill="#2C3A64"/>
<path d="M66.0064 120.785C66.0064 120.785 63.6054 124.697 63.5124 125.846C63.4193 126.995 63.7557 130.924 63.7557 130.924C63.7557 130.924 64.6501 130.676 64.8353 128.831C65.0213 126.986 67.8431 125.878 68.4112 124.667C68.9793 123.457 68.7569 120.944 68.7569 120.944L66.0064 120.785Z" fill="#FFB27D"/>
<path d="M68.8026 121.207C68.8026 121.207 69.5784 124.347 69.2436 125.403C68.9088 126.459 68.5461 128.132 68.0199 127.963C67.4936 127.795 67.041 124.623 67.041 124.623L68.8026 121.207Z" fill="#FFB27D"/>
<path d="M64.1051 125.938C64.0772 126.101 62.5527 130.474 62.5527 130.474C62.5527 130.474 63.8114 130.483 63.8935 129.875C63.9757 129.268 64.1051 125.938 64.1051 125.938Z" fill="#FFB27D"/>
<path d="M117.492 121.207C117.492 121.207 119.893 125.119 119.986 126.268C120.079 127.417 119.742 131.346 119.742 131.346C119.742 131.346 118.848 131.098 118.663 129.252C118.477 127.407 115.655 126.299 115.087 125.089C114.519 123.878 114.708 121.207 114.708 121.207H117.492Z" fill="#FFB27D"/>
<path d="M114.699 121.633C114.699 121.633 113.923 124.773 114.258 125.829C114.592 126.885 114.955 128.558 115.481 128.389C116.008 128.221 116.46 125.049 116.46 125.049L114.699 121.633Z" fill="#FFB27D"/>
<path d="M119.393 126.359C119.42 126.523 120.946 130.896 120.946 130.896C120.946 130.896 119.687 130.905 119.605 130.297C119.523 129.69 119.393 126.359 119.393 126.359Z" fill="#FFB27D"/>
<path d="M78.3358 109.859C78.3358 109.859 89.6572 113.344 107.413 109.859C107.413 109.859 112.459 117.252 114.546 138.31H96.441L94.7615 128.155L92.7007 128.187L91.4909 138.31H72.9238C72.9231 138.31 73.447 119.379 78.3358 109.859Z" fill="#F99746"/>
<path d="M104.728 75.5536C104.934 77.742 105.631 79.8179 104.539 85.5256C104.448 86.0039 104.344 86.5078 104.226 87.0388C104.226 87.0388 93.3713 90.5768 79.6109 87.0388C79.6109 87.0388 79.5326 86.8109 79.4094 86.4225C79.3102 86.1094 79.1831 85.6923 79.0436 85.2047C78.4817 83.245 77.7291 80.1551 77.9182 78.2016C78.2128 75.159 80.258 69.1335 77.1758 65.2273C77.1758 65.2273 77.1758 65.2273 77.1765 65.2265V65.2258C78.2135 64.6824 79.459 64.2839 80.9579 63.8242C80.9579 63.8242 83.6976 72.2249 87.4347 72.6668C91.1734 73.1087 94.4641 72.8513 94.4641 72.8513C94.4641 72.8513 98.8833 73.0001 100.551 69.9583C101.787 67.7033 102.555 64.5467 102.623 64.2645C103.86 64.7855 105.154 65.4258 106.294 66.2785C105.821 67.4164 104.384 71.8831 104.728 75.5536Z" fill="white"/>
<path d="M114.072 66.0355C114.069 66.0274 114.067 66.0178 114.064 66.0097C114.072 66.0038 114.075 66.0119 114.072 66.0355Z" fill="white"/>
<path d="M69.4261 40.8775C69.2804 40.907 67.8017 37.5528 64.1095 38.9334C64.1095 38.9334 63.5267 35.2396 59.223 35.4543C55.7292 35.6287 55.3758 39.4551 55.3758 39.4551C55.3758 39.4551 52.2998 38.807 51.0605 40.8775H69.4261Z" fill="white"/>
<path d="M56.8206 43.6459C56.8206 39.3591 53.5252 35.8428 49.3301 35.4925C50.2074 35.1909 51.149 35.0273 52.1287 35.0273C56.8873 35.0273 60.7453 38.8862 60.7453 43.6459C60.7453 48.4056 56.8873 52.2644 52.1287 52.2644C51.149 52.2644 50.2074 52.1009 49.3301 51.7993C53.5252 51.4489 56.8206 47.9327 56.8206 43.6459Z" fill="#AFCDFB"/>
<path d="M61.157 49.6429C60.8904 49.6964 58.1879 43.5662 51.4391 46.0895C51.4391 46.0895 50.3734 39.3383 42.5078 39.7314C36.1216 40.05 35.476 47.0437 35.476 47.0437C35.476 47.0437 29.8525 45.86 27.5879 49.6437L61.157 49.6429Z" fill="white"/>
<path d="M85.5109 93.9849C82.7115 97.1197 82.61 101.654 85.204 104.31C85.3683 104.478 85.6543 104.458 85.8294 104.262C86.003 104.068 86.0139 103.786 85.8519 103.618C83.5888 101.277 83.6857 97.3004 86.1433 94.5492C88.704 91.6826 92.8728 91.2144 95.4365 93.5058L96.0674 92.7996C93.1541 90.1973 88.4188 90.7291 85.5109 93.9849Z" fill="white"/>
<path d="M94.6277 94.0553L96.6358 94.1863C96.797 94.1972 96.9342 94.0352 96.8978 93.8794L96.4521 91.9995C96.4165 91.8484 96.225 91.815 96.1134 91.9398L94.5192 93.7243C94.4053 93.8538 94.4673 94.0445 94.6277 94.0553Z" fill="white"/>
<path d="M99.0682 105.486C101.868 102.351 101.969 97.8168 99.3751 95.161C99.2108 94.9928 98.9249 95.0122 98.7497 95.2083C98.5761 95.4029 98.5653 95.685 98.7272 95.8525C100.99 98.1935 100.893 102.17 98.4358 104.921C95.8752 107.788 91.7063 108.256 89.1426 105.965L88.5117 106.671C91.425 109.273 96.1604 108.742 99.0682 105.486Z" fill="white"/>
<path d="M89.9537 105.405L87.9456 105.274C87.7844 105.263 87.6472 105.425 87.6837 105.581L88.1285 107.461C88.1642 107.612 88.3556 107.645 88.4672 107.52L90.0614 105.736C90.1761 105.607 90.1141 105.415 89.9537 105.405Z" fill="white"/>
<path d="M34.8185 131.121C34.8185 128.47 33.3522 126.163 31.1868 124.963V124.086H27.7852C23.9009 124.086 20.752 127.236 20.752 131.121C20.752 135.006 23.9009 138.156 27.7852 138.156H31.1868V137.278C33.3522 136.079 34.8185 133.771 34.8185 131.121Z" fill="#F99746"/>
<path d="M31.1876 138.156C35.072 138.156 38.2209 135.006 38.2209 131.121C38.2209 127.236 35.072 124.086 31.1876 124.086C27.3032 124.086 24.1543 127.236 24.1543 131.121C24.1543 135.006 27.3032 138.156 31.1876 138.156Z" fill="#EF7E29"/>
<path d="M52.9993 133.987H31.1043C29.5217 133.987 28.2383 132.704 28.2383 131.121C28.2383 129.538 29.5209 128.254 31.1043 128.254H52.9993C54.5819 128.254 55.8653 129.537 55.8653 131.121C55.8653 132.704 54.5819 133.987 52.9993 133.987Z" fill="#EA6C2D"/>
<path d="M53.1017 131.121C53.1017 128.47 51.6354 126.163 49.47 124.963V124.086H46.0684C42.184 124.086 39.0352 127.236 39.0352 131.121C39.0352 135.006 42.184 138.156 46.0684 138.156H49.47V137.278C51.6354 136.079 53.1017 133.771 53.1017 131.121Z" fill="#F99746"/>
<path d="M49.4708 138.156C53.3552 138.156 56.5041 135.006 56.5041 131.121C56.5041 127.236 53.3552 124.086 49.4708 124.086C45.5864 124.086 42.4375 127.236 42.4375 131.121C42.4375 135.006 45.5864 138.156 49.4708 138.156Z" fill="#EF7E29"/>
<path d="M50.0887 134.133C51.7566 133.968 52.9749 132.482 52.8098 130.813C52.6447 129.145 51.1588 127.926 49.4908 128.092C47.8228 128.257 46.6045 129.743 46.7696 131.411C46.9348 133.08 48.4207 134.298 50.0887 134.133Z" fill="#F99746"/>
<path d="M112.981 53.9434L112.265 50.1868L111.954 51.7914H107.738V51.5372H111.744L112.268 48.8442L113.016 52.772L113.353 51.4465H114.08L114.577 49.1333L115.213 52.6596L115.547 51.3093H117.05L117.603 49.4953L118.087 52.672L118.476 51.3093H119.721L120.086 49.317L120.871 52.4519L121.155 51.3093H122.764L122.848 52.2612L123.734 48.7969L124.317 51.3186H126.933V51.5728H124.114L123.721 49.8697L122.726 53.762L122.532 51.5635H121.354L120.872 53.4984L120.124 50.5147L119.932 51.5635H118.668L118.012 53.8612L117.521 50.6364L117.238 51.5635H115.745L115.174 53.8736L114.555 50.4434L114.285 51.7H113.55L112.981 53.9434Z" fill="white"/>
<path d="M50.7382 81.2281H44.7396L41.7402 76.032L44.7396 70.8359H50.7382L53.7375 76.032L50.7382 81.2281ZM44.9659 80.8359H50.5111L53.2833 76.0328L50.5111 71.2297H44.9659L42.1936 76.0328L44.9659 80.8359Z" fill="#78ACEA"/>
<path d="M33.6718 91.1297L33.3323 90.9328L36.1611 86.0313L33.3889 81.2282H27.7305V80.8359H33.6152L36.6145 86.0313L33.6718 91.1297Z" fill="#78ACEA"/>
<path d="M33.6164 81.2281H27.6185L24.6758 76.1305L25.0152 75.9344L27.8448 80.8359H33.3901L36.1623 76.032L33.3901 71.229H27.7317V70.8359H33.6164L36.6157 76.032L33.6164 81.2281Z" fill="#78ACEA"/>
<path d="M53.2826 86.1297L50.3398 81.032L53.3392 75.8359H59.337L62.2798 80.9336L61.9403 81.1297L59.1107 76.2282H53.5655L50.7932 81.032L53.622 85.9335L53.2826 86.1297Z" fill="#78ACEA"/>
<path d="M42.1769 86.2281H36.2922V85.8351H41.9506L44.7236 81.032L41.9506 76.2282H36.4054L33.5758 81.1297L33.2363 80.9336L36.1791 75.8359H42.1769L45.1763 81.032L42.1769 86.2281Z" fill="#78ACEA"/>
<path d="M59.2239 76.2234H53.3392L50.3398 71.0281L53.3392 65.832H59.2239V66.2243H53.5655L50.7932 71.0281L53.5655 75.8312H59.2239V76.2234Z" fill="#78ACEA"/>
<path d="M41.5293 75.9249C41.5293 75.6451 41.7564 75.418 42.0362 75.418C42.3159 75.418 42.543 75.6451 42.543 75.9249C42.543 76.2048 42.3159 76.4319 42.0362 76.4319C41.7556 76.4327 41.5293 76.2056 41.5293 75.9249Z" fill="#78ACEA"/>
<path d="M35.8047 75.9249C35.8047 75.6451 36.0318 75.418 36.3116 75.418C36.5913 75.418 36.8184 75.6451 36.8184 75.9249C36.8184 76.2048 36.5913 76.4319 36.3116 76.4319C36.0318 76.4327 35.8047 76.2056 35.8047 75.9249Z" fill="#78ACEA"/>
<path d="M35.8047 85.9796C35.8047 85.6998 36.0318 85.4727 36.3116 85.4727C36.5913 85.4727 36.8184 85.6998 36.8184 85.9796C36.8184 86.2595 36.5913 86.4866 36.3116 86.4866C36.0318 86.4866 35.8047 86.2595 35.8047 85.9796Z" fill="#78ACEA"/>
<path d="M32.9277 90.9367C32.9277 90.6568 33.1548 90.4297 33.4346 90.4297C33.7144 90.4297 33.9415 90.6568 33.9415 90.9367C33.9415 91.2165 33.7144 91.4436 33.4346 91.4436C33.1548 91.4436 32.9277 91.2165 32.9277 90.9367Z" fill="#78ACEA"/>
<path d="M42.0362 86.4866C42.3161 86.4866 42.543 86.2596 42.543 85.9796C42.543 85.6996 42.3161 85.4727 42.0362 85.4727C41.7562 85.4727 41.5293 85.6996 41.5293 85.9796C41.5293 86.2596 41.7562 86.4866 42.0362 86.4866Z" fill="#78ACEA"/>
<path d="M44.3691 80.9562C44.3691 80.6763 44.5962 80.4492 44.876 80.4492C45.1558 80.4492 45.3829 80.6763 45.3829 80.9562C45.3829 81.236 45.1558 81.4632 44.876 81.4632C44.5962 81.4632 44.3691 81.236 44.3691 80.9562Z" fill="#78ACEA"/>
<path d="M50.0469 80.9562C50.0469 80.6763 50.2739 80.4492 50.5537 80.4492C50.8335 80.4492 51.0606 80.6763 51.0606 80.9562C51.0606 81.236 50.8335 81.4632 50.5537 81.4632C50.2739 81.4632 50.0469 81.236 50.0469 80.9562Z" fill="#78ACEA"/>
<path d="M33.5889 81.4632C33.8688 81.4632 34.0958 81.2362 34.0958 80.9562C34.0958 80.6762 33.8688 80.4492 33.5889 80.4492C33.309 80.4492 33.082 80.6762 33.082 80.9562C33.082 81.2362 33.309 81.4632 33.5889 81.4632Z" fill="#78ACEA"/>
<path d="M27.2207 80.9562C27.2207 80.6763 27.4478 80.4492 27.7276 80.4492C28.0073 80.4492 28.2344 80.6763 28.2344 80.9562C28.2344 81.236 28.0073 81.4632 27.7276 81.4632C27.4478 81.4632 27.2207 81.236 27.2207 80.9562Z" fill="#78ACEA"/>
<path d="M24.4219 76.1828C24.4219 75.9029 24.649 75.6758 24.9287 75.6758C25.2085 75.6758 25.4356 75.9029 25.4356 76.1828C25.4356 76.4626 25.2085 76.6897 24.9287 76.6897C24.6482 76.6897 24.4219 76.4626 24.4219 76.1828Z" fill="#78ACEA"/>
<path d="M27.4004 71.0343C27.4004 70.7545 27.6275 70.5273 27.9073 70.5273C28.187 70.5273 28.4141 70.7545 28.4141 71.0343C28.4141 71.3142 28.187 71.5413 27.9073 71.5413C27.6275 71.5413 27.4004 71.3142 27.4004 71.0343Z" fill="#78ACEA"/>
<path d="M50.0469 71.0343C50.0469 70.7545 50.2739 70.5273 50.5537 70.5273C50.8335 70.5273 51.0606 70.7545 51.0606 71.0343C51.0606 71.3142 50.8335 71.5413 50.5537 71.5413C50.2739 71.5413 50.0469 71.3142 50.0469 71.0343Z" fill="#78ACEA"/>
<path d="M44.3691 71.0343C44.3691 70.7545 44.5962 70.5273 44.876 70.5273C45.1558 70.5273 45.3829 70.7545 45.3829 71.0343C45.3829 71.3142 45.1558 71.5413 44.876 71.5413C44.5962 71.5413 44.3691 71.3142 44.3691 71.0343Z" fill="#78ACEA"/>
<path d="M52.9082 76.0304C52.9082 75.7506 53.1353 75.5234 53.4151 75.5234C53.6948 75.5234 53.9219 75.7506 53.9219 76.0304C53.9219 76.3103 53.6948 76.5374 53.4151 76.5374C53.1353 76.5374 52.9082 76.3103 52.9082 76.0304Z" fill="#78ACEA"/>
<path d="M58.7168 76.0304C58.7168 75.7506 58.9439 75.5234 59.2237 75.5234C59.5034 75.5234 59.7305 75.7506 59.7305 76.0304C59.7305 76.3103 59.5034 76.5374 59.2237 76.5374C58.9439 76.5374 58.7168 76.3103 58.7168 76.0304Z" fill="#78ACEA"/>
<path d="M61.6152 80.9835C61.6152 80.7037 61.8423 80.4766 62.1221 80.4766C62.4019 80.4766 62.629 80.7037 62.629 80.9835C62.629 81.2634 62.4019 81.4905 62.1221 81.4905C61.8423 81.4913 61.6152 81.2641 61.6152 80.9835Z" fill="#78ACEA"/>
<path d="M58.7168 66.0187C58.7168 65.7388 58.9439 65.5117 59.2237 65.5117C59.5034 65.5117 59.7305 65.7388 59.7305 66.0187C59.7305 66.2985 59.5034 66.5257 59.2237 66.5257C58.9439 66.5257 58.7168 66.2985 58.7168 66.0187Z" fill="#78ACEA"/>
<path d="M53.419 86.4866C53.6989 86.4866 53.9258 86.2596 53.9258 85.9796C53.9258 85.6996 53.6989 85.4727 53.419 85.4727C53.139 85.4727 52.9121 85.6996 52.9121 85.9796C52.9121 86.2596 53.139 86.4866 53.419 86.4866Z" fill="#78ACEA"/>
<path d="M151.404 92.0276C151.336 91.9911 149.721 91.1059 148.107 89.4043C145.961 87.14 144.869 84.5075 144.952 81.7912C145.068 77.9626 146.71 75.6897 148.068 74.4572C149.76 72.9215 151.962 72.1231 154.109 72.2665C158.225 72.5409 158.092 76.9316 158.09 76.9765L157.6 76.9564C157.606 76.7912 157.71 72.999 154.076 72.7564C152.062 72.6223 149.991 73.3742 148.397 74.8207C147.11 75.9889 145.552 78.1494 145.441 81.8059C145.252 88.0633 151.574 91.5617 151.638 91.5966L151.404 92.0276Z" fill="#EF7E29"/>
<path d="M170.224 93.7297V134.844C170.224 136.759 168.674 138.309 166.76 138.309H149.553C147.295 138.309 145.461 136.476 145.461 134.216V93.8592C145.461 90.2042 147.831 87.1019 151.115 86.0073C152.728 85.4701 153.818 83.9631 153.91 82.2663L153.985 80.8477H161.701L161.811 82.2345C161.953 83.9732 163.105 85.4616 164.753 86.0329C167.937 87.1399 170.224 90.1678 170.224 93.7297Z" fill="white"/>
<path opacity="0.5" d="M170.231 93.7297V134.844C170.231 136.759 168.68 138.309 166.766 138.309H154.489C152.229 138.309 150.396 136.476 150.396 134.216V93.8592C150.396 90.2042 152.766 87.1019 156.053 86.0073C157.663 85.4701 158.756 83.9631 158.846 82.2663L158.922 80.8477H161.706L161.817 82.2345C161.958 83.9732 163.111 85.4616 164.758 86.0329C167.944 87.1399 170.231 90.1678 170.231 93.7297Z" fill="#AFCDFB"/>
<path d="M169.647 98.6277V134.017C169.647 135.841 168.169 137.321 166.345 137.321H163.862C161.779 137.321 160.661 136.851 159.504 135.924C158.347 134.999 155.801 135.152 154.951 136.232C154.102 137.314 151.672 137.321 151.672 137.321H149.941C147.789 137.321 146.041 135.572 146.041 133.417V98.3681C148.21 97.9262 151.443 97.6828 155.646 98.4998C160.601 99.4634 166.049 99.0913 169.647 98.6277Z" fill="#AFCDFB"/>
<path d="M162.239 81.5556H153.445V78.6363C153.445 77.558 154.32 76.6836 155.398 76.6836H160.207C161.33 76.6836 162.239 77.5944 162.239 78.7169V81.5556Z" fill="#F99746"/>
<path d="M170.224 93.0273H145.461V129.926H170.224V93.0273Z" fill="#F99746"/>
<path d="M168.197 93.0273H150.395V129.926H168.197V93.0273Z" fill="#EF7E29"/>
<path d="M162.368 82.1256H153.275C152.717 82.1256 152.262 81.669 152.262 81.1116C152.262 80.5535 152.718 80.0977 153.275 80.0977H162.368C162.926 80.0977 163.382 80.5542 163.382 81.1116C163.382 81.6697 162.925 82.1256 162.368 82.1256Z" fill="#EF7E29"/>
<path d="M147.778 136.108C147.778 136.108 146.571 137.498 143.541 137.96C143.54 137.96 143.54 137.96 143.538 137.96C142.266 138.154 140.672 138.185 138.709 137.88C132.074 138.912 129.64 136.108 129.64 136.108C122.838 130.689 122.761 119.311 129.64 116.736C131.652 115.983 133.414 116.104 134.849 116.567C137.362 117.381 140.058 117.381 142.57 116.567C144.005 116.104 145.767 115.983 147.779 116.736C148.713 117.085 149.519 117.598 150.198 118.237L150.278 118.312C154.501 122.406 153.619 131.454 147.778 136.108Z" fill="#95C38B"/>
<path d="M147.778 136.113C147.778 136.113 146.572 137.503 143.541 137.965C143.541 137.965 143.541 137.965 143.539 137.965C140.035 138.259 141.571 136.863 137.768 136.863C133.963 136.863 131.705 135.611 129.342 129.788C126.978 123.965 128.89 118.471 132.637 117.837C136.383 117.203 138.274 120.162 143.013 117.087C146.287 114.962 150.197 118.243 150.197 118.243L150.277 118.318C154.502 122.411 153.62 131.459 147.778 136.113Z" fill="#A8D29F"/>
<path d="M139.163 112.528C137.773 111.7 136.366 112.863 134.733 113.501C133.1 114.141 129.957 114.128 129.957 114.128C129.957 114.128 131.25 112.266 133.368 110.418C135.486 108.569 139.163 112.528 139.163 112.528Z" fill="#A8D29F"/>
<path d="M139.163 112.528C137.856 111.455 135.44 110.84 134.261 111.322C133.082 111.805 129.957 114.128 129.957 114.128C129.957 114.128 131.25 112.266 133.368 110.418C135.486 108.569 139.163 112.528 139.163 112.528Z" fill="#82B378"/>
<path d="M138.604 118.227C137.714 116.259 138.195 113.818 138.755 112.116C139.202 110.762 140.057 108.934 140.477 108.065C140.566 107.882 140.832 107.9 140.897 108.094L141.066 108.607C141.236 109.121 141.174 109.683 140.894 110.146C140.034 111.569 138.305 114.895 139.084 117.634C139.171 117.942 138.762 118.579 138.604 118.227Z" fill="#558949"/>
<path d="M146.74 118.33C146.74 118.33 149.475 119.153 149.546 121.222C149.617 123.29 147.634 123.098 146.624 122.042C145.614 120.985 145.126 118.257 146.74 118.33Z" fill="#D1F2C9"/>
<path d="M78.5373 109.329C78.5373 109.329 76.9036 112.616 77.1004 112.681C77.2965 112.746 97.4439 117 108.106 111.569L107.001 108.762C107.001 108.762 95.9946 113.573 78.5373 109.329Z" fill="#EF7E29"/>
<path d="M96.6525 79.6452C86.7741 77.4251 77.0539 82.7925 74.4304 91.701C74.2638 92.2661 74.6358 92.8622 75.2543 93.0009C75.8665 93.1389 76.4765 92.8141 76.6439 92.2552C78.9844 84.4537 87.5182 79.7638 96.1875 81.7127C105.221 83.7429 111.037 92.2242 109.15 100.619L111.376 101.119C113.518 91.5847 106.912 81.9506 96.6525 79.6452Z" fill="#95C38B"/>
<path d="M107.044 99.5456L109.09 104.07C109.255 104.433 109.756 104.533 110.044 104.26L113.509 100.977C113.787 100.713 113.638 100.256 113.244 100.168L107.62 98.9045C107.214 98.8138 106.881 99.1843 107.044 99.5456Z" fill="#95C38B"/>
<path d="M88.5524 120.696C98.4307 122.916 108.151 117.549 110.774 108.64C110.941 108.075 110.569 107.479 109.951 107.34C109.338 107.203 108.728 107.527 108.561 108.086C106.22 115.888 97.6867 120.578 89.0174 118.629C79.9838 116.599 74.168 108.117 76.0544 99.7227L73.8294 99.2227C71.6864 108.756 78.2919 118.391 88.5524 120.696Z" fill="#A8D29F"/>
<path d="M78.1568 100.804L76.1108 96.2792C75.9465 95.9164 75.445 95.8164 75.1575 96.0892L71.6916 99.3729C71.4134 99.6365 71.563 100.093 71.9567 100.181L77.5802 101.445C77.9871 101.536 78.3204 101.165 78.1568 100.804Z" fill="#A8D29F"/>
<path d="M93.735 103.153C93.735 103.546 93.5552 103.865 93.3343 103.865C93.1126 103.865 92.9336 103.546 92.9336 103.153C92.9336 102.76 93.1134 102.441 93.3343 102.441C93.5559 102.441 93.735 102.76 93.735 103.153Z" fill="#ED985F"/>
</svg>
