<svg width="193" height="140" viewBox="0 0 193 140" fill="none" xmlns="http://www.w3.org/2000/svg">
<rect x="0.5" y="0.5" width="192" height="139" rx="11.5" fill="white" stroke="#E9EDF5"/>
<path d="M179.312 139.333H19.114C19.114 139.333 -2.61845 118.052 11.2081 93.0157C25.0346 67.9786 43.6052 80.5689 42.7058 51.4289C41.8072 22.2883 85.4136 19.7847 99.2937 28.2339C113.174 36.6838 113.09 46.8604 141.744 43.4928C170.399 40.1259 175.873 68.1937 168.418 82.4988C167.913 83.4679 167.524 84.3827 167.237 85.2509C167.179 85.4222 167.127 85.5913 167.078 85.7584C162.192 102.554 200.286 104.792 179.312 139.333Z" fill="#EBF3FA"/>
<path d="M31.8141 139.064H41.1397C41.6392 138.64 40.7942 137.678 39.9102 137.614C39.5264 137.584 39.0415 137.665 38.487 137.782C38.3588 136.078 37.626 128.42 34.8639 128.728C31.7583 129.072 34.8639 132.1 35.7416 133.893C36.3923 135.221 37.0777 137.125 37.3912 138.024C37.139 138.078 36.8778 138.132 36.6117 138.181C36.2 136.918 34.6681 132.669 32.7204 132.916C30.4334 133.206 31.3529 134.909 32.9739 135.921C34.1631 136.665 35.6232 137.721 36.317 138.232C35.7291 138.329 35.1153 138.393 34.4933 138.379C32.8966 138.34 32.1164 138.811 31.8141 139.064Z" fill="#A8D29F"/>
<path d="M172.885 139.065H165.53C165.135 138.731 165.803 137.972 166.499 137.921C166.802 137.898 167.185 137.962 167.622 138.054C167.723 136.711 168.302 130.67 170.48 130.913C172.929 131.185 170.48 133.574 169.787 134.988C169.275 136.035 168.733 137.537 168.486 138.246C168.685 138.289 168.891 138.332 169.101 138.37C169.426 137.374 170.634 134.022 172.17 134.218C173.973 134.446 173.249 135.79 171.97 136.588C171.032 137.174 169.88 138.008 169.333 138.41C169.797 138.486 170.281 138.537 170.772 138.525C172.032 138.494 172.647 138.866 172.885 139.065Z" fill="#A8D29F"/>
<path d="M50.5632 95.0607C50.5632 95.0607 48.9965 80.6575 38.0428 77.7376C38.0428 77.7376 35.9077 77.2029 34.8892 79.499C33.8708 81.7958 38.1801 82.3472 40.7255 83.6373C43.2724 84.9281 48.9798 89.7674 50.5632 95.0607Z" fill="#DFEBFD"/>
<path d="M50.6605 93.5734C50.6605 93.5734 42.882 85.04 37.0743 86.2841C31.2665 87.5282 33.068 90.281 34.8179 89.981C36.5678 89.6802 39.9583 88.4201 43.1767 89.8271C46.3957 91.2335 50.6605 93.5734 50.6605 93.5734Z" fill="#DFEBFD"/>
<path d="M144.779 129.941C144.779 129.941 146.646 112.785 159.693 109.307C159.693 109.307 162.236 108.669 163.449 111.405C164.662 114.14 159.529 114.798 156.496 116.335C153.464 117.871 146.666 123.636 144.779 129.941Z" fill="#DFEBFD"/>
<path d="M144.666 128.17C144.666 128.17 153.931 118.005 160.849 119.488C167.766 120.97 165.62 124.249 163.536 123.89C161.452 123.533 157.413 122.031 153.58 123.707C149.746 125.383 144.666 128.17 144.666 128.17Z" fill="#DFEBFD"/>
<path d="M49.0292 100.28C49.0292 100.28 49.5279 108.183 48.0511 108.185C46.5743 108.187 48.1305 99.3386 48.1305 99.3386C48.1305 99.3386 41.3761 94.9984 38.5241 94.9225C38.5241 94.9225 42.0455 103.015 40.6133 102.653C39.181 102.292 35.1253 94.0418 35.1253 94.0418C35.1253 94.0418 27.9299 91.7686 26.2085 95.9835C24.4872 100.198 26.1263 102.615 27.1838 103.023C28.2413 103.43 35.2528 104.205 34.9581 105.091C34.6634 105.976 29.7564 106.846 27.2214 105.703C27.2214 105.703 29.2423 113.24 33.1058 113.348C36.9693 113.457 38.4433 111.241 40.8292 111.351C43.2152 111.462 44.8641 112.311 43.6032 112.801C42.3423 113.291 38.3952 112.369 36.2859 113.755C34.1758 115.141 32.5067 115.949 35.9626 117.115C39.4186 118.28 45.8386 118.612 47.4485 116.044C47.5189 115.932 47.5858 115.826 47.6498 115.723C47.5454 115.939 47.4485 116.044 47.4485 116.044C48.0553 116.506 48.8111 118.446 49.319 119.926C49.3865 120.175 49.4994 120.522 49.6721 120.997C49.7397 121.21 49.7934 121.384 49.8296 121.506C50.6927 124.786 49.3628 130.101 49.3628 130.101L50.095 130.398C52.4468 125.166 50.0553 120.334 50.0553 120.334C48.5847 116.554 49.0577 113.477 49.0577 113.477C49.0577 113.477 56.3486 110.503 53.8073 104.931C53.808 104.93 51.6554 101.435 49.0292 100.28Z" fill="#CDDFF9"/>
<path d="M157.784 87.7037C156.483 82.1813 147.174 83.58 147.174 83.58C147.174 83.58 140.57 92.9454 138.734 93.1118C136.899 93.2782 142.815 84.004 142.815 84.004C139.286 83.5431 130.116 87.5714 130.116 87.5714C130.116 87.5714 130.311 98.7637 128.491 98.4741C126.671 98.1844 128.825 88.5551 128.825 88.5551C125.364 89.4658 122.031 93.3486 122.031 93.3486C117.815 99.7126 126.219 104.789 126.219 104.789C126.219 104.789 126.203 108.669 123.654 113.035C123.654 113.035 123.085 113.838 122.488 115.215L123.422 115.247C123.507 114.999 123.599 114.76 123.7 114.532C123.7 114.529 123.701 114.529 123.702 114.527C123.704 114.524 123.705 114.521 123.707 114.518C123.776 114.376 123.875 114.174 123.997 113.928C123.997 113.928 123.997 113.927 123.998 113.927C123.998 113.926 123.999 113.926 123.999 113.926C124.303 113.378 124.509 112.972 124.642 112.679C124.642 112.678 124.642 112.677 124.642 112.676C125.556 110.954 126.865 108.715 127.703 108.264C127.703 108.264 127.605 108.116 127.518 107.83C127.577 107.968 127.639 108.112 127.703 108.264C129.187 111.738 137.163 112.578 141.649 111.816C146.134 111.053 144.235 109.734 141.905 107.617C139.574 105.501 134.531 105.869 133.073 105.021C131.615 104.173 133.812 103.448 136.774 103.776C139.736 104.104 141.121 107.118 145.902 107.736C150.684 108.353 154.643 99.4696 154.643 99.4696C151.296 100.384 145.418 98.3599 145.228 97.2125C145.038 96.0645 153.829 96.4745 155.211 96.1787C156.593 95.8814 159.084 93.226 157.784 87.7037Z" fill="#DFEBFD"/>
<path d="M118.068 62.5779C118.068 62.5779 123.161 60.7211 123.855 62.7916C124.55 64.8622 118.068 62.5779 118.068 62.5779Z" fill="#A0D694"/>
<path d="M122.11 65.6039C121.345 67.3493 118.066 62.5781 118.066 62.5781C118.066 62.5781 122.875 63.8585 122.11 65.6039Z" fill="#A0D694"/>
<path d="M103.749 51.6836C103.749 51.6836 103.07 45.667 105.503 45.4581C107.936 45.2492 103.749 51.6836 103.749 51.6836Z" fill="#A8D29F"/>
<path d="M108.1 48.0918C109.795 49.3812 103.748 51.6863 103.748 51.6863C103.748 51.6863 106.404 46.8024 108.1 48.0918Z" fill="#A8D29F"/>
<path d="M74.5813 44.9158C74.5813 44.9158 69.5684 40.2784 71.4925 38.3095C73.4159 36.3399 74.5813 44.9158 74.5813 44.9158Z" fill="#A0D694"/>
<path d="M75.6528 38.647C78.0506 38.5001 74.5849 44.9185 74.5849 44.9185C74.5849 44.9185 73.2543 38.7939 75.6528 38.647Z" fill="#A0D694"/>
<path d="M150.44 139.063L59.6268 139.368C59.5808 139.331 59.5467 139.297 59.5244 139.266C59.5188 139.259 59.5146 139.251 59.5111 139.244C59.3802 139.006 58.7658 138.542 57.8476 137.883V137.883C55.9765 136.54 52.8417 134.383 49.9772 131.673C49.8156 131.521 49.6553 131.367 49.4965 131.21C49.3544 131.071 49.213 130.929 49.0737 130.787C43.4735 125.117 39.6163 117.317 49.8824 109.46C66.7867 96.5199 27.5954 95.5939 59.4394 59.7724C59.6846 59.4967 110.641 58.8562 111.317 59.5907C122.511 71.7542 119.797 87.1113 120.968 94.3909C124.276 114.972 160.364 102.961 150.44 139.063Z" fill="#6385DB"/>
<path d="M137.701 139.371H44.5762C46.1889 134.88 51.619 123.982 57.9736 120.26C67.7841 114.512 90.6256 112.138 108.945 114.85C130.258 118.005 137.249 134.352 137.701 139.371Z" fill="#EF873A"/>
<path d="M85.8104 125.282C75.3541 125.443 74.794 121.77 74.3335 117.836C74.1433 116.207 74.0193 113.393 73.8877 110.017C73.832 108.603 73.7748 107.091 73.7114 105.526C73.5902 102.511 73.3576 99.4107 73.1493 96.9948C72.9201 94.3541 72.7188 92.5321 72.7188 92.5321L93.864 87.5082L95.1214 87.2109C95.6891 103.754 100.662 111.138 101.202 113.944C102.34 119.848 92.6749 125.176 85.8104 125.282Z" fill="#FFB27D"/>
<path d="M93.8456 95.0195C91.5043 101.112 85.6805 109.163 73.8888 110.018C73.8331 108.604 73.776 107.092 73.7126 105.527C73.5913 102.512 73.3587 99.4119 73.1504 96.9961L93.8456 95.0195Z" fill="#F4A269"/>
<path d="M68.1402 104.115C68.1402 104.115 96.2509 106.719 97.6038 89.1986C98.9566 71.6784 103.497 60.2146 85.6059 57.8113C67.7153 55.408 63.7076 61.8242 61.833 67.5624C59.9577 73.2999 60.8626 102.986 68.1402 104.115Z" fill="#FFB27D"/>
<path d="M104.219 85.4773C101.439 88.0053 100.355 91.8358 97.454 90.4664C97.454 90.4664 97.456 90.4531 97.4609 90.4274C97.4623 90.4142 97.4651 90.3961 97.4686 90.3752C97.4714 90.3578 97.4748 90.3383 97.4776 90.3167C97.4797 90.3007 97.4832 90.2847 97.4853 90.2666C97.5703 89.7089 97.8002 88.0519 97.8726 86.1603V86.1554C97.8921 85.6284 97.8998 85.0847 97.8886 84.5416C97.8211 81.2903 97.0806 78.0571 94.2676 78.8132C93.6664 78.9747 93.0854 79.0826 92.524 79.1425C83.6755 80.0775 79.6532 68.8789 75.6643 63.4297C74.3805 61.6752 73.0994 60.5167 71.6616 60.5515C70.1011 60.5891 68.51 61.3592 67.0478 62.6625C63.8698 65.494 61.3035 70.8443 60.9928 76.6842C60.9928 76.6897 60.9921 76.6946 60.9921 76.6995V76.7002C60.7343 81.3453 57.0875 70.0186 61.9493 61.7755C62.9886 60.0141 107.795 60.1561 108.665 62.26C108.778 62.5295 108.886 62.8066 108.99 63.0871C113.622 75.5786 109.987 80.2348 104.219 85.4773Z" fill="#6385DB"/>
<path d="M111.367 59.8353C111.367 59.9495 111.335 60.063 111.27 60.1751C111.227 60.2517 111.166 60.3282 111.092 60.4041C111.087 60.4083 111.083 60.4139 111.077 60.4187C110.798 60.6972 110.32 60.9674 109.666 61.2236C109.38 61.3357 109.06 61.445 108.708 61.5529C108.682 61.5605 108.658 61.5682 108.632 61.5752C108.478 61.6218 108.318 61.6677 108.152 61.7137C108.114 61.7241 108.076 61.7339 108.038 61.7443C107.775 61.8133 107.498 61.8815 107.208 61.9497C106.741 62.0576 106.239 62.1621 105.703 62.2623C105.546 62.2916 105.387 62.3208 105.224 62.35C105.165 62.3598 105.107 62.3702 105.047 62.3807C104.688 62.4433 104.317 62.5032 103.934 62.5617C103.528 62.6236 103.108 62.6835 102.675 62.7413C102.367 62.7824 102.052 62.8235 101.731 62.8618C101.589 62.8792 101.445 62.8966 101.3 62.9133C101.137 62.9321 100.971 62.9509 100.804 62.969C100.623 62.9892 100.441 63.0087 100.255 63.0274C99.4362 63.1138 98.5808 63.1938 97.6954 63.2649C97.6355 63.2704 97.5749 63.2746 97.5143 63.2788C97.5115 63.2795 97.5087 63.2795 97.5059 63.2795C97.3861 63.2892 97.267 63.2983 97.1457 63.3073C96.5195 63.3554 95.8786 63.3999 95.2245 63.4396C95.2112 63.4403 95.1973 63.441 95.1841 63.4417C95.0078 63.4521 94.8316 63.4626 94.6539 63.4723C94.0374 63.5078 93.4098 63.5399 92.7724 63.5684C92.6637 63.5726 92.5536 63.5775 92.4435 63.5816C92.2046 63.5921 91.9636 63.6011 91.7219 63.6102C91.3366 63.6255 90.9479 63.638 90.5564 63.6499C90.4408 63.6533 90.3244 63.6568 90.2074 63.6596C90.0925 63.6631 89.9768 63.6666 89.8619 63.6687C89.237 63.6854 88.6045 63.6986 87.9657 63.7076C87.1221 63.7195 86.2673 63.7264 85.4021 63.7264C84.8734 63.7264 84.3488 63.7244 83.8284 63.7188C83.6689 63.7174 83.5094 63.716 83.3512 63.7132C83.1478 63.7111 82.9444 63.7077 82.7424 63.7049C82.6309 63.7035 82.5202 63.7021 82.4094 63.6993C82.2325 63.6965 82.0569 63.693 81.8814 63.6895C80.6978 63.6652 79.54 63.6304 78.4129 63.583C77.4028 63.5413 76.4178 63.489 75.4613 63.4299C75.2231 63.4145 74.9862 63.3999 74.7508 63.3832C74.6309 63.3756 74.5118 63.3672 74.3927 63.3588C74.1976 63.3456 74.004 63.331 73.8124 63.3171C73.5177 63.2955 73.2259 63.2718 72.9382 63.2488C72.7556 63.2335 72.5752 63.2189 72.3955 63.2029C71.687 63.1416 71.0002 63.0755 70.3363 63.0038C70.2325 62.9933 70.1294 62.9822 70.027 62.9704C69.1632 62.875 68.3412 62.7719 67.5637 62.6626C66.7515 62.5471 65.9887 62.4245 65.2802 62.2943C65.042 62.2505 64.8093 62.2059 64.5843 62.1607C64.3746 62.1189 64.1705 62.0757 63.9733 62.0326C63.5909 61.9483 63.23 61.8627 62.8915 61.775C62.8204 61.7562 62.7487 61.7374 62.6797 61.7186C62.0479 61.548 61.5003 61.3698 61.0427 61.1846C61.035 61.1818 61.0266 61.1776 61.0183 61.1748C60.9786 61.1588 60.9389 61.1428 60.9005 61.1261C60.8957 61.124 60.8915 61.1219 60.8873 61.1198C59.9469 60.7174 59.4355 60.2844 59.4355 59.8332C59.4355 59.813 59.4362 59.7935 59.439 59.7734C59.4564 59.5958 59.554 59.4218 59.7253 59.2512C59.8305 59.1454 59.965 59.0416 60.1259 58.9386C60.6254 58.6211 61.384 58.3183 62.3669 58.0356C62.748 57.927 63.1632 57.8198 63.6097 57.7167C64.5731 57.4947 65.6835 57.2879 66.92 57.0999C67.237 57.0519 67.563 57.0045 67.8967 56.9586C69.5136 56.7379 71.3178 56.5471 73.2691 56.3919C73.4606 56.3765 73.6536 56.3619 73.8473 56.3466C73.8744 56.3445 73.9009 56.3431 73.9281 56.3403C74.0827 56.3299 74.2394 56.3188 74.3955 56.3076C74.5564 56.2965 74.7187 56.2853 74.8817 56.2735C75.639 56.2241 76.4157 56.1788 77.2091 56.1391C77.7901 56.1106 78.3816 56.0841 78.9806 56.0618H78.9813C80.4338 56.0062 81.935 55.9686 83.4732 55.9519C83.5853 55.9505 83.6982 55.9498 83.811 55.9491C84.3363 55.9435 84.8671 55.9414 85.4014 55.9414C85.5184 55.9414 85.6355 55.9414 85.7525 55.9421C86.6135 55.9435 87.4648 55.9518 88.3042 55.9665C90.0848 55.9957 91.8096 56.0521 93.4634 56.1329C93.6996 56.1447 93.9343 56.1572 94.167 56.1691C94.2771 56.1753 94.385 56.1809 94.4937 56.1872C94.7563 56.2025 95.0162 56.2171 95.2746 56.2338C95.7832 56.2644 96.2826 56.2986 96.7737 56.3348C97.6348 56.3981 98.4686 56.4677 99.2725 56.5443C99.9629 56.6098 100.63 56.6794 101.273 56.7546C101.533 56.7845 101.789 56.8152 102.042 56.8472C102.251 56.8736 102.456 56.9001 102.659 56.9265C103.671 57.0616 104.611 57.2078 105.472 57.3645C105.757 57.416 106.033 57.4696 106.299 57.5239C106.98 57.6617 107.601 57.8066 108.157 57.9583C108.361 58.014 108.556 58.0704 108.743 58.1275C108.85 58.1609 108.955 58.1936 109.057 58.2278C109.442 58.3552 109.783 58.4861 110.077 58.6197C110.407 58.7708 110.677 58.9254 110.884 59.0841C110.91 59.1036 110.934 59.1238 110.958 59.1433C111.133 59.2895 111.254 59.4399 111.317 59.5916C111.351 59.6738 111.367 59.7539 111.367 59.8353Z" fill="#23569E"/>
<path d="M70.0273 62.9754C69.1634 62.8801 68.3414 62.777 67.564 62.6677C66.7517 62.5522 65.9889 62.4296 65.2805 62.2994C65.0422 62.2556 64.8096 62.211 64.5846 62.1658C64.3749 62.124 64.1708 62.0808 63.9736 62.0377C63.9729 62.0377 63.9729 62.037 63.9729 62.037C63.0408 60.5867 62.4473 59.2382 62.3679 58.04C62.2481 56.2257 62.8263 54.5234 62.8263 54.5234C65.3111 55.086 66.6563 56.1874 67.7444 57.5499C69.9074 60.2581 70.0273 62.9754 70.0273 62.9754Z" fill="#1E3D70"/>
<path d="M92.061 79.9569C92.061 79.9569 93.7266 76.1549 97.1394 77.0398C100.552 77.9247 99.8026 81.0493 98.7242 83.0753C97.6458 85.1012 96.2589 87.5575 93.1213 87.1739C89.9837 86.7903 92.061 79.9569 92.061 79.9569Z" fill="#FFB27D"/>
<path d="M113.448 59.6143C112.909 59.6916 112.245 60.3182 111.302 60.77C110.833 60.9956 110.328 61.1105 109.667 61.2247C109.381 61.3367 109.061 61.4461 108.708 61.554C108.683 61.5616 108.659 61.5693 108.633 61.5762C109.144 60.8188 109.898 59.8712 110.884 59.0866C112.057 58.1551 113.554 57.4533 115.361 57.5716C115.361 57.5716 116.309 57.6475 116.408 58.728C116.506 59.8086 114.668 59.4389 113.448 59.6143Z" fill="#82B378"/>
<path d="M68.6242 62.8056C68.2738 61.1117 67.9039 59.5251 67.5319 58.0581C67.4553 57.7595 67.3793 57.465 67.3034 57.176C67.2923 57.1329 67.2811 57.0904 67.2693 57.0479C66.7029 54.9036 66.1414 53.044 65.6434 51.5186C64.9426 49.3701 64.3699 47.8816 64.0906 47.1882C64.0279 47.0308 63.9798 46.9153 63.9492 46.8408C63.9332 46.8032 63.922 46.7767 63.9157 46.7614C63.9123 46.7538 63.9095 46.7489 63.9088 46.7461L63.8621 46.7663L63.7924 46.7962L63.6629 46.8519L63.628 46.8672L63.6016 46.8784C63.6037 46.8839 63.6106 46.8986 63.6218 46.925C63.6336 46.955 63.6524 46.9995 63.6768 47.058C63.6998 47.1137 63.7277 47.1826 63.7611 47.2641C64.0356 47.945 64.6395 49.5038 65.3793 51.7853C65.86 53.2661 66.3964 55.0505 66.9384 57.0974C67.1996 58.0846 67.4615 59.1324 67.7186 60.2366C67.7186 60.2366 67.7186 60.2366 67.7186 60.2373C67.727 60.2721 67.7346 60.3062 67.743 60.341C67.9234 61.1194 68.1017 61.9263 68.2752 62.7597L68.6242 62.8056Z" fill="#A8D29F"/>
<path d="M60.0496 45.1539C60.6954 45.8849 63.7201 47.0615 63.9291 46.877C64.1381 46.6925 63.3454 43.5477 62.6996 42.816C62.0538 42.0849 60.9371 42.0153 60.205 42.6607C59.4735 43.3061 59.4039 44.4221 60.0496 45.1539Z" fill="#F77D48"/>
<path d="M64.6841 42.6052C64.101 43.387 63.5709 46.5875 63.7945 46.7539C64.0181 46.9203 66.9349 45.498 67.5179 44.7161C68.101 43.9343 67.9394 42.8273 67.1571 42.2446C66.3741 41.6618 65.2672 41.8233 64.6841 42.6052Z" fill="#F77D48"/>
<path d="M68.1631 46.01C67.2212 45.7538 64.0474 46.4312 63.9743 46.6999C63.9012 46.9687 66.292 49.1617 67.2338 49.4179C68.1756 49.6741 69.1467 49.1193 69.4038 48.178C69.6601 47.2374 69.1049 46.2669 68.1631 46.01Z" fill="#F77D48"/>
<path d="M66.0193 50.252C65.9252 49.2814 64.1662 46.5551 63.889 46.5822C63.6117 46.6087 62.4073 49.6212 62.5013 50.5917C62.5954 51.5622 63.4592 52.2738 64.4303 52.1798C65.4013 52.0858 66.1133 51.2225 66.0193 50.252Z" fill="#F77D48"/>
<path d="M61.2058 50.0409C62.0696 49.5876 63.931 46.9302 63.8021 46.6837C63.6726 46.4373 60.427 46.4596 59.5632 46.9135C58.6994 47.3667 58.3664 48.4347 58.8199 49.298C59.2734 50.162 60.342 50.4941 61.2058 50.0409Z" fill="#F77D48"/>
<path d="M63.2281 46.592C63.279 46.2745 63.5771 46.0587 63.8941 46.1088C64.2117 46.1596 64.4277 46.4576 64.3775 46.7744C64.3267 47.0918 64.0285 47.3077 63.7116 47.2575C63.3939 47.2074 63.1772 46.9087 63.2281 46.592Z" fill="white"/>
<path d="M68.8806 51.1144C67.9207 52.2945 66.8841 57.2459 67.2213 57.5195C67.5585 57.7932 72.1973 55.77 73.1572 54.5899C74.1178 53.4098 73.9388 51.6748 72.758 50.7148C71.5773 49.7554 69.8413 49.9343 68.8806 51.1144Z" fill="#A8D29F"/>
<path d="M64.6762 56.6527C65.6731 57.1387 67.8786 60.0948 67.7399 60.3789C67.6013 60.6636 63.9127 60.7472 62.9158 60.2612C61.919 59.7752 61.5045 58.5736 61.9907 57.5766C62.4763 56.581 63.6786 56.1668 64.6762 56.6527Z" fill="#A8D29F"/>
<path d="M62.6793 61.7195C62.0474 61.5489 61.4999 61.3707 61.0422 61.1855C61.0345 61.1827 61.0262 61.1785 61.0178 61.1758C60.9788 61.1591 60.9398 61.143 60.9001 61.127C60.8952 61.1249 60.891 61.1229 60.8868 61.1208C60.4347 60.9363 59.9158 60.7706 59.3229 60.6459C56.3177 60.0124 52.6855 65.1295 50.9774 63.3709C49.2693 61.6116 52.1185 59.2876 56.6681 58.7808C57.8405 58.6499 58.859 58.8629 59.7249 59.2521C61.0812 59.8599 62.0648 60.8987 62.6793 61.7195Z" fill="#A8D29F"/>
<path d="M74.7524 63.3811C74.6326 63.3735 74.5134 63.3651 74.3943 63.3568C74.1993 63.3435 74.0056 63.3289 73.814 63.315C73.5194 63.2934 73.2275 63.2697 72.9398 63.2468C72.7573 63.2314 72.5768 63.2168 72.3971 63.2008C71.6886 63.1395 71.0018 63.0734 70.3379 63.0017C70.3497 62.3772 70.5643 58.7047 73.8496 56.3452C74.7043 55.7311 75.7673 55.2069 77.0888 54.8477C77.0888 54.8477 77.1947 55.3329 77.2114 56.1377C77.2449 57.7286 76.9279 60.5677 74.7524 63.3811Z" fill="#1E3D70"/>
<path d="M101.302 62.912C101.138 62.9308 100.972 62.9496 100.806 62.9677C100.625 62.9878 100.442 63.0073 100.257 63.0261C99.4376 63.1125 98.5821 63.1925 97.6967 63.2635C97.6368 63.2691 97.5762 63.2733 97.5156 63.2775C97.5128 63.2782 97.51 63.2782 97.5073 63.2782C97.3874 63.2879 97.2683 63.297 97.1471 63.306C96.5083 63.3547 95.8542 63.4 95.1854 63.4404C95.0092 63.4508 94.8329 63.4613 94.6553 63.471C94.5612 62.0946 94.6734 59.174 96.7765 56.3342C97.5978 55.2251 98.7222 54.1279 100.257 53.1406C100.257 53.1406 100.912 54.4453 101.276 56.754C101.53 58.3573 101.643 60.4432 101.302 62.912Z" fill="#1E3D70"/>
<path d="M97.5146 47.0642C97.5125 47.0684 97.5063 47.0837 97.4958 47.1088C97.484 47.1373 97.4659 47.1791 97.4429 47.2348C97.4206 47.2884 97.3934 47.3552 97.3614 47.4332C97.0973 48.0862 96.5178 49.5831 95.8072 51.7741C95.4011 53.0266 94.9525 54.5067 94.4962 56.1853C94.3603 56.6859 94.2224 57.2052 94.0859 57.7406C93.9981 58.0873 93.9089 58.4403 93.8211 58.801C93.461 60.2776 93.1064 61.8705 92.7741 63.5651C92.6654 63.5693 92.5554 63.5742 92.4453 63.5784C92.7992 61.764 93.1795 60.0646 93.5655 58.4988C93.6247 58.2579 93.6853 58.0184 93.7445 57.7845C93.8866 57.2268 94.028 56.6872 94.1694 56.1665C94.6529 54.3842 95.1287 52.8233 95.5543 51.5172C96.228 49.4536 96.7783 48.025 97.0451 47.3601C97.1057 47.209 97.1524 47.0969 97.1809 47.0266C97.197 46.9904 97.2074 46.966 97.2144 46.9507C97.2165 46.9438 97.2186 46.9396 97.22 46.9375L97.2631 46.9563L97.3335 46.9862L97.4575 47.0398L97.4902 47.0538L97.5146 47.0642Z" fill="#A8D29F"/>
<path d="M100.926 45.4115C100.306 46.114 97.4014 47.2432 97.2008 47.0664C97.0001 46.8895 97.7608 43.8694 98.3815 43.1676C99.0015 42.4651 100.074 42.3983 100.777 43.0186C101.479 43.6375 101.546 44.709 100.926 45.4115Z" fill="#F77D48"/>
<path d="M96.4753 42.9637C97.0354 43.7149 97.544 46.7873 97.3294 46.9467C97.1148 47.1061 94.3144 45.7409 93.7543 44.9904C93.1943 44.2391 93.3496 43.1767 94.1013 42.6177C94.8529 42.0579 95.9159 42.2125 96.4753 42.9637Z" fill="#F77D48"/>
<path d="M93.1336 46.2305C94.0378 45.9841 97.0848 46.635 97.1552 46.8926C97.2255 47.1502 94.9295 49.2562 94.0259 49.5027C93.1217 49.7492 92.189 49.2159 91.943 48.3122C91.6964 47.4092 92.2294 46.477 93.1336 46.2305Z" fill="#F77D48"/>
<path d="M95.1936 50.305C95.2835 49.3727 96.9728 46.7557 97.2389 46.7814C97.505 46.8072 98.6614 49.6993 98.5708 50.6315C98.4803 51.5637 97.6513 52.2467 96.7185 52.1562C95.7864 52.0657 95.103 51.2372 95.1936 50.305Z" fill="#F77D48"/>
<path d="M99.8151 50.1041C98.9854 49.669 97.1979 47.1174 97.3226 46.8807C97.4473 46.644 100.563 46.6655 101.393 47.1007C102.223 47.5358 102.542 48.5613 102.106 49.3905C101.671 50.2204 100.645 50.54 99.8151 50.1041Z" fill="#F77D48"/>
<path d="M97.8742 46.7911C97.8255 46.4861 97.5391 46.2787 97.2347 46.3274C96.9296 46.3761 96.722 46.6623 96.7708 46.9665C96.8195 47.2708 97.1059 47.4789 97.4103 47.4302C97.7154 47.3822 97.923 47.096 97.8742 46.7911Z" fill="white"/>
<path d="M93.4694 53.0188C93.9744 53.6392 94.5192 56.2423 94.3423 56.3864C94.1653 56.5305 91.7264 55.4667 91.2214 54.8457C90.7163 54.2254 90.8104 53.3133 91.4318 52.8086C92.0518 52.3045 92.9643 52.3985 93.4694 53.0188Z" fill="#A8D29F"/>
<path d="M91.7442 55.7679C92.477 56.5184 93.4976 59.8533 93.283 60.0628C93.0685 60.2717 89.7574 59.171 89.0246 58.4205C88.2917 57.67 88.3064 56.4676 89.0573 55.7352C89.8083 55.0028 91.0113 55.0174 91.7442 55.7679Z" fill="#A8D29F"/>
<path d="M96.4808 53.7876C95.7793 54.1295 94.2272 56.2098 94.3247 56.4103C94.4222 56.6108 97.0178 56.6699 97.72 56.3274C98.4215 55.9856 98.7134 55.1397 98.3714 54.4379C98.0286 53.7375 97.1829 53.4458 96.4808 53.7876Z" fill="#A8D29F"/>
<path d="M108.745 58.131C108.707 59.0528 108.518 60.2433 108.04 61.7458C107.777 61.8147 107.5 61.8829 107.21 61.9511C106.743 62.0591 106.24 62.1635 105.705 62.2637C105.547 62.293 105.388 62.3222 105.225 62.3515C105.167 62.3612 105.108 62.3716 105.049 62.3821C104.69 62.4448 104.319 62.5046 103.936 62.5631C103.823 61.7089 103.712 59.3466 105.473 57.368C106.116 56.6467 107.007 55.9763 108.238 55.4492C108.238 55.4492 108.822 56.2067 108.745 58.131Z" fill="#1E3D70"/>
<path d="M112.991 55.5882C112.243 56.1285 111.14 57.223 110.08 58.6223C109.381 59.5441 108.701 60.5982 108.154 61.7142C107.858 61.7943 107.543 61.8729 107.211 61.9502C107.372 60.766 107.658 59.3729 108.16 57.9609C109.144 55.1956 110.957 52.3599 114.292 50.8812C114.292 50.8812 115.818 50.2323 116.847 51.821C117.874 53.4112 114.732 54.3288 112.991 55.5882Z" fill="#82B378"/>
<path d="M109.913 71.8104C109.911 71.8424 109.908 71.8744 109.906 71.9051C109.902 71.951 109.898 71.9984 109.893 72.0471C109.893 72.0471 109.893 72.0471 109.893 72.0478C109.833 72.6841 109.707 73.5635 109.563 74.5695C109.519 74.8814 109.472 75.2051 109.425 75.54C109.415 75.6068 109.406 75.673 109.397 75.7405C109.397 75.7412 109.397 75.7412 109.397 75.7419C109.27 76.6574 109.138 77.6481 109.025 78.675C109.015 78.7704 109.004 78.8658 108.995 78.9612V78.9619C108.926 79.6094 108.864 80.2694 108.817 80.9336C108.812 80.9913 108.809 81.0491 108.805 81.1069C108.805 81.1069 108.805 81.1069 108.805 81.1076C108.739 82.0712 108.702 83.0389 108.71 83.983C108.71 84.0408 108.711 84.0985 108.712 84.1563C108.722 84.8588 108.757 85.5474 108.825 86.2095C108.837 86.3264 108.85 86.4441 108.864 86.559C108.864 86.5597 108.864 86.5603 108.865 86.561C108.919 87.0136 108.991 87.4529 109.081 87.8734C109.113 88.028 109.149 88.1804 109.187 88.3308L109.071 88.3601C109.034 88.2152 109 88.0676 108.968 87.918C108.969 87.9173 108.968 87.9173 108.968 87.9173C108.884 87.5267 108.816 87.1201 108.762 86.7024C108.762 86.7017 108.762 86.7003 108.761 86.6989C108.741 86.5395 108.722 86.3779 108.706 86.215V86.2129C108.642 85.5982 108.607 84.9611 108.594 84.3123C108.595 84.3116 108.595 84.3116 108.594 84.3109C108.593 84.2044 108.591 84.0971 108.591 83.9899C108.582 83.0229 108.621 82.0308 108.689 81.045C108.689 81.045 108.689 81.045 108.689 81.0443C108.69 81.0164 108.692 80.9886 108.695 80.9607C108.75 80.1803 108.825 79.404 108.908 78.6479C108.908 78.6479 108.908 78.6479 108.908 78.6472C108.908 78.6361 108.91 78.6249 108.911 78.6131C109.027 77.5667 109.161 76.5593 109.291 75.6326C109.297 75.5894 109.303 75.5477 109.308 75.5066C109.355 75.1766 109.401 74.8584 109.444 74.5514C109.599 73.4688 109.732 72.5345 109.785 71.8939C109.786 71.8849 109.787 71.8758 109.787 71.8668C109.79 71.8362 109.792 71.8034 109.794 71.7707C109.838 70.9276 109.654 69.687 109.231 68.3572C109.231 68.3572 109.231 68.3572 109.231 68.3565C109.22 68.321 109.208 68.2862 109.196 68.2507C108.867 67.2467 108.403 66.1961 107.799 65.2319C107.767 65.1804 107.734 65.1289 107.702 65.078C107.427 64.6533 107.124 64.2468 106.793 63.8708C106.338 63.3535 105.86 62.9226 105.358 62.5786C105.321 62.5522 105.283 62.5278 105.245 62.5027C105.18 62.4596 105.115 62.4185 105.048 62.3788C104.585 62.0982 104.106 61.8894 103.607 61.7536C103.607 61.7536 103.606 61.7543 103.606 61.7536C103.225 61.6499 102.833 61.5886 102.432 61.5698C102.363 61.567 102.294 61.5642 102.226 61.5629C102.163 61.5615 102.101 61.5608 102.039 61.5608C102.017 61.5608 101.994 61.5608 101.971 61.5615H101.971C99.9121 61.5775 98.5621 62.376 97.6948 63.2637C97.6349 63.2693 97.5743 63.2734 97.5137 63.2776C98.4081 62.3169 99.8432 61.4285 102.084 61.4417C102.084 61.441 102.084 61.4417 102.084 61.4417C102.199 61.4417 102.318 61.4445 102.437 61.4501C102.971 61.4751 103.489 61.574 103.99 61.748C104.415 61.8943 104.827 62.0948 105.225 62.3475C105.257 62.367 105.29 62.3886 105.322 62.4101C105.323 62.4108 105.324 62.4115 105.325 62.4122C105.328 62.4136 105.331 62.4157 105.333 62.4178C105.334 62.4178 105.334 62.4178 105.334 62.4185C105.511 62.5348 105.685 62.6636 105.856 62.8014C105.857 62.8021 105.858 62.8028 105.858 62.8035C106.211 63.0883 106.552 63.4183 106.881 63.7914C107.214 64.1702 107.519 64.5788 107.795 65.0056C107.797 65.0084 107.799 65.0119 107.801 65.0147C107.801 65.0147 107.801 65.0154 107.802 65.0154C108.463 66.0367 108.965 67.1618 109.314 68.2353C109.334 68.2994 109.354 68.3621 109.374 68.4254C109.787 69.7496 109.962 70.9777 109.913 71.8104Z" fill="#A0D694"/>
<path d="M108.93 78.6133C108.93 78.6133 106.898 78.8124 106.031 80.5843C106.032 80.5843 107.636 80.8036 108.93 78.6133Z" fill="#A0D694"/>
<path d="M108.724 80.957C108.724 80.957 106.763 81.5251 106.236 83.4265C106.237 83.4265 107.853 83.3478 108.724 80.957Z" fill="#A0D694"/>
<path d="M108.642 83.9609C108.642 83.9609 107.166 84.8298 107.133 86.484C107.133 86.4847 108.431 86.0851 108.642 83.9609Z" fill="#A0D694"/>
<path d="M108.698 86.168C108.698 86.168 107.51 87.401 107.923 89.0036C107.923 89.0036 109.066 88.2705 108.698 86.168Z" fill="#A0D694"/>
<path d="M109 87.7695C109 87.7695 108.568 89.4258 109.712 90.6219C109.712 90.6219 110.349 89.423 109 87.7695Z" fill="#A0D694"/>
<path d="M108.711 86.168C108.711 86.168 109.167 87.8187 110.756 88.281C110.756 88.281 110.708 86.9248 108.711 86.168Z" fill="#A0D694"/>
<path d="M108.643 83.9609C108.643 83.9609 109.098 85.6117 110.687 86.0739C110.688 86.0739 110.639 84.7177 108.643 83.9609Z" fill="#A0D694"/>
<path d="M108.77 80.9102C108.77 80.9102 108.949 82.6124 110.441 83.3288C110.441 83.3288 110.616 81.983 108.77 80.9102Z" fill="#A0D694"/>
<path d="M108.928 78.6172C108.928 78.6172 109.135 80.5944 110.869 81.4257C110.869 81.4257 111.072 79.8627 108.928 78.6172Z" fill="#A0D694"/>
<path d="M109.399 75.5119C109.399 75.5119 107.363 75.3573 106.203 76.953C106.203 76.953 107.745 77.4453 109.399 75.5119Z" fill="#A0D694"/>
<path d="M109.398 75.5156C109.398 75.5156 109.26 77.4991 110.824 78.6172C110.824 78.6172 111.293 77.1127 109.398 75.5156Z" fill="#A0D694"/>
<path d="M109.857 71.7695C109.857 71.7695 107.819 71.8858 106.881 73.6215C106.88 73.6215 108.474 73.9055 109.857 71.7695Z" fill="#A0D694"/>
<path d="M109.854 71.7734C109.854 71.7734 109.981 73.7569 111.679 74.6585C111.679 74.6585 111.945 73.1053 109.854 71.7734Z" fill="#A0D694"/>
<path d="M109.258 68.2227C109.258 68.2227 107.42 69.1103 107.219 71.0729C107.219 71.0723 108.799 70.7248 109.258 68.2227Z" fill="#A0D694"/>
<path d="M109.26 68.2266C109.26 68.2266 110.138 70.0103 112.052 70.1927C112.052 70.1927 111.702 68.6561 109.26 68.2266Z" fill="#A0D694"/>
<path d="M107.79 65C107.79 65 105.842 66.6034 106.175 69.0185C106.174 69.0185 107.971 68.1385 107.79 65Z" fill="#A0D694"/>
<path d="M107.793 65.0079C107.793 65.0079 109.369 66.8933 111.721 66.5528C111.721 66.5528 110.851 64.8095 107.793 65.0079Z" fill="#A0D694"/>
<path d="M105.327 62.4102C105.327 62.4102 103.414 64.5044 104.168 67.1388C104.168 67.1395 106.028 65.8752 105.327 62.4102Z" fill="#A0D694"/>
<path d="M105.332 62.4179C105.332 62.4179 107.386 64.2656 109.949 63.5137C109.95 63.5137 108.704 61.7119 105.332 62.4179Z" fill="#A0D694"/>
<path d="M101.996 61.4922C101.996 61.4922 101.02 64.1545 102.718 66.3072C102.717 66.3072 103.959 64.4323 101.996 61.4922Z" fill="#A0D694"/>
<path d="M102.004 61.5001C102.004 61.5001 104.606 62.4316 106.692 60.7642C106.692 60.7642 104.857 59.5688 102.004 61.5001Z" fill="#A0D694"/>
<path d="M97.5063 63.2789C97.3864 63.2886 97.2673 63.2977 97.1461 63.3067C96.662 60.6625 97.9772 59.5625 97.9772 59.5625C98.4864 61.1471 97.8901 62.5848 97.5063 63.2789Z" fill="#A0D694"/>
<path d="M108.556 53.3938C108.556 53.3938 107.637 55.754 106.301 57.5238C105.68 58.3474 104.97 59.0422 104.22 59.3137C101.858 60.1666 101.221 60.4096 101.13 60.5829C101.076 60.6853 100.923 61.9475 100.805 62.9668C100.624 62.9869 100.441 63.0064 100.256 63.0252C100.45 61.5089 100.931 58.8159 102.044 56.8464C102.328 56.343 102.653 55.8877 103.026 55.5103C105.54 52.9692 108.556 53.3938 108.556 53.3938Z" fill="#82B378"/>
<path d="M83.353 63.7147C83.1496 63.7126 82.9462 63.7091 82.7442 63.7064C82.6327 63.705 82.522 63.7036 82.4112 63.7008C82.2343 63.698 82.0587 63.6945 81.8832 63.691C81.2102 61.7013 81.7989 60.6562 81.7989 60.6562C83.3516 61.6588 83.3558 63.5393 83.353 63.7147Z" fill="#82B378"/>
<path d="M95.2253 63.44C95.212 63.4407 95.1981 63.4414 95.1849 63.4421C95.0086 63.4525 94.8324 63.463 94.6547 63.4727C94.0382 63.5082 93.4106 63.5403 92.7732 63.5688C92.6645 63.573 92.5544 63.5779 92.4444 63.582C92.2054 63.5925 91.9644 63.6015 91.7227 63.6106C91.9302 62.7034 92.6979 61.0318 95.5095 60.0898C95.5095 60.0898 95.9003 61.5818 95.2253 63.44Z" fill="#82B378"/>
<path d="M91.147 62.1859C91.147 62.1859 88.9951 61.6296 89.2424 60.7684C89.4897 59.9079 91.147 62.1859 91.147 62.1859Z" fill="#A0D694"/>
<path d="M90.4872 60.2237C91.1517 59.8122 91.1489 62.1856 91.1489 62.1856C91.1489 62.1856 89.8226 60.6352 90.4872 60.2237Z" fill="#A0D694"/>
<path d="M90.2086 63.6598C90.0936 63.6633 89.978 63.6668 89.863 63.6688C89.2382 63.6856 88.6056 63.6988 87.9668 63.7078C87.1232 63.7197 86.2685 63.7266 85.4033 63.7266C84.8745 63.7266 84.35 63.7245 83.8296 63.719C83.6701 63.7176 83.5105 63.7162 83.3524 63.7134C83.149 63.7113 82.9456 63.7078 82.7436 63.7051C82.6321 63.7037 82.5213 63.7023 82.4106 63.6995C82.2336 63.6967 82.0581 63.6932 81.8825 63.6897C80.699 63.6654 79.5412 63.6306 78.4141 63.5832C78.552 62.5556 79.3531 59.3976 83.9787 59.8341C87.8979 60.2052 89.5698 62.4136 90.2086 63.6598Z" fill="#1E3D70"/>
<path d="M89.1604 36.5549C89.1583 36.5604 89.1514 36.575 89.1409 36.6008C89.1284 36.6307 89.1096 36.6753 89.0852 36.7338C89.0629 36.7895 89.0343 36.8584 89.0009 36.9399C88.7264 37.6201 88.1225 39.1782 87.3826 41.4611C86.6714 43.6555 85.8341 46.519 85.0427 49.9131C85.0427 49.9131 85.0427 49.9131 85.0427 49.9138C85.035 49.9486 85.0267 49.9827 85.019 50.0175V50.0203C84.5941 51.8513 84.1831 53.8355 83.8132 55.9527C83.3896 58.3762 83.019 60.9717 82.7431 63.7078C82.6317 63.7064 82.5209 63.705 82.4102 63.7022C82.6846 60.9703 83.0538 58.3769 83.4753 55.9555C84.1092 52.3171 84.863 49.0651 85.6035 46.3067C85.6536 46.1201 85.7038 45.937 85.7539 45.756C86.2297 44.0155 86.6972 42.4852 87.1193 41.1937C87.8201 39.0445 88.3934 37.5567 88.6721 36.8633C88.7355 36.7059 88.7835 36.5897 88.8142 36.5159C88.8295 36.4783 88.8407 36.4518 88.8462 36.4365C88.8497 36.4288 88.8525 36.4247 88.8532 36.4219L88.8978 36.4414L88.9709 36.472L89.1012 36.5284L89.1353 36.543L89.1604 36.5549Z" fill="#A8D29F"/>
<path d="M92.7144 34.826C92.0686 35.557 89.0439 36.7336 88.8349 36.5491C88.6259 36.3646 89.4187 33.2198 90.0644 32.4881C90.7102 31.7564 91.8269 31.6874 92.5591 32.3328C93.2905 32.9789 93.3602 34.0949 92.7144 34.826Z" fill="#F99746"/>
<path d="M88.0786 32.2776C88.6617 33.0594 89.1918 36.2599 88.9682 36.4263C88.7446 36.5927 85.8278 35.1703 85.2448 34.3885C84.6617 33.6066 84.8233 32.4997 85.6056 31.9169C86.3886 31.3335 87.4955 31.495 88.0786 32.2776Z" fill="#F99746"/>
<path d="M84.6 35.6818C85.5419 35.4256 88.7157 36.1031 88.7888 36.3718C88.862 36.6405 86.4712 38.8336 85.5293 39.0898C84.5875 39.346 83.6164 38.7911 83.3593 37.8498C83.103 36.9086 83.6589 35.9381 84.6 35.6818Z" fill="#F99746"/>
<path d="M86.7426 39.9238C86.8367 38.9533 88.5956 36.227 88.8729 36.2541C89.1501 36.2806 90.3546 39.2931 90.2605 40.2636C90.1665 41.2348 89.3027 41.9456 88.3316 41.8517C87.3605 41.7577 86.6493 40.8951 86.7426 39.9238Z" fill="#F99746"/>
<path d="M91.5578 39.7127C90.6939 39.2595 88.8326 36.6021 88.9614 36.3556C89.091 36.1092 92.3366 36.1314 93.2004 36.5854C94.0642 37.0386 94.3972 38.1066 93.9437 38.9699C93.4902 39.8339 92.4216 40.1667 91.5578 39.7127Z" fill="#F99746"/>
<path d="M89.5356 36.2638C89.4847 35.9464 89.1866 35.7305 88.8696 35.7807C88.5519 35.8315 88.336 36.1295 88.3861 36.4462C88.437 36.7637 88.7351 36.9795 89.0521 36.9294C89.3698 36.8793 89.5864 36.5813 89.5356 36.2638Z" fill="#2A4E96"/>
<path d="M83.4012 41.2325C84.3849 42.052 86.04 45.9723 85.806 46.2529C85.5719 46.5335 81.4152 45.6117 80.4315 44.7923C79.4479 43.9728 79.3156 42.5122 80.1355 41.5291C80.9561 40.5461 82.4176 40.4131 83.4012 41.2325Z" fill="#A8D29F"/>
<path d="M88.0869 46.3243C87.0901 46.8103 84.8846 49.7664 85.0239 50.0504C85.1625 50.3352 88.8511 50.4187 89.848 49.9328C90.8448 49.4468 91.2593 48.2452 90.7731 47.2482C90.2869 46.2526 89.0845 45.839 88.0869 46.3243Z" fill="#A8D29F"/>
<path d="M87.9724 58.3084C87.9724 58.3084 86.6662 59.1661 83.2813 58.9935C79.8978 58.8222 78.9741 57.0051 78.7275 57.2516C78.669 57.31 78.5352 57.7584 78.3646 58.4045C78.1556 59.2024 77.8929 60.301 77.6484 61.3474C77.5203 61.8939 77.3983 62.4265 77.2925 62.8937C77.1267 62.8526 76.963 62.7962 76.8027 62.7259C76.8578 62.4377 76.9205 62.1285 76.9873 61.8062C77.2514 60.5231 77.5885 59.0401 77.932 57.9262C78.1911 57.0866 78.4544 56.4551 78.6948 56.2734C79.6352 55.5591 81.8623 54.2182 84.0511 54.9819C86.2427 55.7443 87.9724 58.3084 87.9724 58.3084Z" fill="#A8D29F"/>
<path d="M79.6157 52.1735C77.1608 54.5643 74.6509 54.7363 74.5687 55.1714C74.5039 55.5132 74.4496 55.8662 74.4071 56.2248C74.4036 56.2526 74.4001 56.2805 74.3973 56.309C74.2796 57.2851 74.2301 58.3099 74.2238 59.2958C74.2127 60.8476 74.3033 62.309 74.3945 63.3602C74.1995 63.347 74.0058 63.3324 73.8142 63.3185C73.7759 62.0409 73.7488 60.2189 73.8184 58.3252C73.8414 57.6652 73.8783 56.9983 73.9299 56.3424C73.932 56.3069 73.9341 56.2728 73.9375 56.238C74.1528 53.5659 74.6216 51.1007 75.5844 50.1977C78.0539 47.8821 82.8111 46.9283 82.9804 46.8948C83.1469 46.86 82.0699 49.7841 79.6157 52.1735Z" fill="#A8D29F"/>
<path d="M80.7874 62.0838C80.7874 62.0838 80.7693 62.0964 80.7337 62.1194C80.4795 62.2844 79.3273 62.9771 77.9758 62.9792C77.748 62.9792 77.5202 62.9485 77.2945 62.8901C77.1294 62.8497 76.965 62.7933 76.8048 62.7223C76.5805 62.6276 76.3652 62.5064 76.1583 62.3686C75.3551 61.8242 74.7149 60.9894 74.4955 60.1533C74.4224 59.8769 74.3283 59.5858 74.2231 59.2962C74.0998 58.9599 73.9591 58.6265 73.8177 58.3257C73.4596 57.5613 73.0939 57.0001 72.9622 57.099C72.7337 57.2702 72.5185 58.057 72.499 59.2635C72.4872 59.952 72.7289 61.7928 72.9386 63.25C72.756 63.2347 72.5756 63.2201 72.3959 63.2041C72.0859 60.7938 71.8316 57.1233 73.0389 56.4967C73.1134 56.4578 73.1907 56.423 73.2701 56.3937C73.4784 56.3129 73.7014 56.2621 73.9361 56.2385C74.0873 56.2231 74.2454 56.219 74.4063 56.2259C74.5631 56.2329 74.7219 56.2489 74.8828 56.276C75.9271 56.4494 77.05 57.0426 77.934 57.9233C78.0866 58.0751 78.2308 58.2345 78.3666 58.4016C78.7101 58.8242 78.9992 59.2962 79.2054 59.8086C79.2054 59.8086 79.2597 59.9228 79.353 60.101C79.6115 60.596 80.1716 61.5909 80.708 62.0247C80.7344 62.0449 80.7616 62.065 80.7874 62.0838Z" fill="#82B378"/>
<path d="M90.5575 63.6478C90.3269 63.6548 90.0949 63.6611 89.8629 63.6666C89.6964 63.4738 89.3286 63.0888 88.9406 62.9537C88.609 62.8381 88.2628 62.9711 87.9667 63.7056C87.7933 64.1359 87.6365 64.775 87.5118 65.6912C87.1733 68.1704 84.2788 67.908 84.2788 67.908C83.608 66.2997 83.5063 64.8565 83.8295 63.7168C84.2314 62.3 85.291 61.3517 86.7351 61.1394C89.1127 60.792 90.3568 63.2183 90.5575 63.6478Z" fill="#A8D29F"/>
<path d="M69.7693 57.9467C69.855 57.5638 70.2346 57.3222 70.6185 57.4079C71.0016 57.4935 71.2433 57.8729 71.1577 58.2566C71.072 58.6395 70.1058 59.7068 70.1058 59.7068C70.1058 59.7068 69.6836 58.3297 69.7693 57.9467Z" fill="#A8D29F"/>
<path d="M105.099 129.272C105.793 129.553 108.273 129.325 108.354 129.128C108.434 128.93 106.812 127.041 106.117 126.76C105.424 126.478 104.632 126.813 104.351 127.507C104.071 128.2 104.404 128.99 105.099 129.272Z" fill="#A8D29F"/>
<path d="M111.354 130.455C110.964 131.094 110.788 133.578 110.971 133.688C111.153 133.799 113.281 132.505 113.67 131.866C114.059 131.226 113.857 130.392 113.217 130.003C112.578 129.613 111.743 129.816 111.354 130.455Z" fill="#A8D29F"/>
<path d="M108.011 135.319C108.724 135.546 111.18 135.131 111.245 134.927C111.31 134.724 109.549 132.964 108.836 132.736C108.122 132.509 107.359 132.902 107.131 133.616C106.903 134.329 107.297 135.091 108.011 135.319Z" fill="#A8D29F"/>
<path d="M111.623 137.718C111.621 137.662 111.347 132.042 108.268 129.14L108.333 129.07C111.44 131.999 111.716 137.657 111.719 137.713L111.623 137.718Z" fill="#A8D29F"/>
<path d="M121.902 129.398C121.469 129.685 119.754 129.873 119.672 129.75C119.589 129.627 120.43 128.119 120.862 127.833C121.295 127.546 121.878 127.663 122.165 128.096C122.452 128.528 122.334 129.111 121.902 129.398Z" fill="#A8D29F"/>
<path d="M117.818 131.066C118.171 131.446 118.634 133.108 118.525 133.208C118.417 133.309 116.794 132.723 116.44 132.343C116.087 131.963 116.11 131.368 116.49 131.016C116.87 130.664 117.464 130.686 117.818 131.066Z" fill="#A8D29F"/>
<path d="M120.76 133.9C120.307 134.153 118.582 134.21 118.51 134.082C118.437 133.952 119.39 132.514 119.842 132.26C120.295 132.007 120.868 132.169 121.121 132.622C121.375 133.074 121.213 133.646 120.76 133.9Z" fill="#A8D29F"/>
<path d="M118.639 136.034C118.633 135.995 118.041 132.142 119.729 129.745L119.675 129.707C117.971 132.125 118.566 136.004 118.573 136.043L118.639 136.034Z" fill="#A8D29F"/>
<path d="M115.592 137.391L115.396 137.36C114.624 127.384 111.576 120.225 111.533 120.127L111.712 120.051C111.754 120.15 114.825 127.355 115.592 137.391Z" fill="#A8D29F"/>
<path d="M109.464 119.126C109.84 119.551 111.6 120.236 111.722 120.129C111.844 120.022 111.382 118.192 111.006 117.765C110.63 117.34 109.98 117.3 109.555 117.675C109.129 118.05 109.089 118.7 109.464 119.126Z" fill="white"/>
<path d="M112.161 117.64C111.822 118.096 111.514 119.958 111.644 120.055C111.774 120.152 113.472 119.324 113.811 118.869C114.15 118.414 114.056 117.77 113.601 117.431C113.146 117.091 112.501 117.185 112.161 117.64Z" fill="white"/>
<path d="M114.186 119.623C113.638 119.474 111.791 119.868 111.749 120.025C111.707 120.181 113.098 121.457 113.646 121.606C114.194 121.755 114.759 121.432 114.909 120.885C115.058 120.337 114.735 119.772 114.186 119.623Z" fill="white"/>
<path d="M112.939 122.089C112.885 121.524 111.861 119.938 111.699 119.953C111.538 119.969 110.837 121.722 110.892 122.287C110.947 122.852 111.449 123.266 112.015 123.212C112.58 123.157 112.994 122.655 112.939 122.089Z" fill="white"/>
<path d="M110.136 121.97C110.639 121.706 111.722 120.16 111.647 120.017C111.572 119.873 109.683 119.887 109.18 120.15C108.677 120.414 108.483 121.035 108.747 121.538C109.011 122.041 109.633 122.234 110.136 121.97Z" fill="white"/>
<path d="M111.315 119.961C111.344 119.777 111.517 119.651 111.703 119.68C111.887 119.709 112.013 119.883 111.984 120.068C111.955 120.252 111.781 120.378 111.596 120.349C111.412 120.319 111.286 120.146 111.315 119.961Z" fill="#F77D48"/>
<path d="M115.533 127.193C114.975 127.88 114.371 130.762 114.567 130.921C114.763 131.081 117.463 129.903 118.022 129.216C118.58 128.529 118.476 127.52 117.789 126.961C117.103 126.402 116.093 126.506 115.533 127.193Z" fill="#A8D29F"/>
<path d="M99.8254 129.094C99.8651 129.153 101.652 132.172 103.33 137.027C103.261 137.008 103.202 136.997 103.133 136.978C101.474 132.202 99.7265 129.241 99.6875 129.183L99.8254 129.094Z" fill="#A8D29F"/>
<path d="M97.7673 128.544C98.1435 128.872 99.7548 129.265 99.8481 129.158C99.9415 129.051 99.3291 127.51 98.9529 127.183C98.5768 126.855 98.0062 126.895 97.6788 127.271C97.3514 127.647 97.3911 128.216 97.7673 128.544Z" fill="white"/>
<path d="M99.9442 126.94C99.7011 127.375 99.6475 129.032 99.7715 129.101C99.8955 129.17 101.278 128.254 101.521 127.819C101.764 127.384 101.608 126.834 101.173 126.591C100.738 126.348 100.187 126.505 99.9442 126.94Z" fill="white"/>
<path d="M101.936 128.431C101.442 128.364 99.8784 128.92 99.8596 129.061C99.8408 129.203 101.199 130.154 101.693 130.221C102.187 130.287 102.642 129.941 102.709 129.447C102.776 128.953 102.43 128.498 101.936 128.431Z" fill="white"/>
<path d="M101.133 130.725C101.02 130.24 99.9456 128.976 99.807 129.008C99.6684 129.04 99.2601 130.647 99.373 131.133C99.4859 131.618 99.9707 131.921 100.457 131.808C100.942 131.696 101.246 131.211 101.133 130.725Z" fill="white"/>
<path d="M98.6821 130.941C99.0897 130.653 99.8546 129.182 99.7724 129.066C99.6902 128.95 98.0475 129.179 97.64 129.466C97.2325 129.754 97.1356 130.317 97.4233 130.724C97.7111 131.131 98.2746 131.228 98.6821 130.941Z" fill="white"/>
<path d="M99.4728 129.059C99.477 128.894 99.6135 128.765 99.7779 128.77C99.9423 128.775 100.072 128.91 100.068 129.075C100.064 129.239 99.927 129.368 99.7626 129.364C99.5982 129.36 99.4679 129.222 99.4728 129.059Z" fill="#F77D48"/>
<path d="M102.818 132.348C102.504 132.858 102.356 134.842 102.502 134.932C102.647 135.021 104.352 133.993 104.665 133.483C104.979 132.973 104.82 132.306 104.309 131.992C103.799 131.68 103.131 131.838 102.818 132.348Z" fill="#A8D29F"/>
<path d="M126.316 137.551L126.53 137.517C127.374 126.613 130.705 118.788 130.752 118.682L130.557 118.598C130.511 118.706 127.155 126.581 126.316 137.551Z" fill="#A8D29F"/>
<path d="M133.015 117.581C132.604 118.046 130.68 118.795 130.547 118.678C130.414 118.561 130.918 116.56 131.329 116.095C131.74 115.63 132.45 115.585 132.916 115.996C133.381 116.406 133.426 117.116 133.015 117.581Z" fill="white"/>
<path d="M130.065 115.96C130.436 116.458 130.773 118.493 130.631 118.599C130.488 118.705 128.633 117.8 128.262 117.302C127.891 116.805 127.994 116.101 128.492 115.73C128.99 115.36 129.694 115.462 130.065 115.96Z" fill="white"/>
<path d="M127.852 118.126C128.451 117.963 130.47 118.394 130.516 118.565C130.563 118.735 129.042 120.13 128.443 120.294C127.844 120.457 127.226 120.104 127.063 119.505C126.9 118.906 127.253 118.289 127.852 118.126Z" fill="white"/>
<path d="M129.216 120.823C129.276 120.205 130.395 118.472 130.571 118.488C130.747 118.506 131.514 120.421 131.454 121.039C131.394 121.656 130.845 122.109 130.227 122.049C129.609 121.99 129.157 121.441 129.216 120.823Z" fill="white"/>
<path d="M132.279 120.692C131.729 120.404 130.545 118.713 130.627 118.556C130.709 118.4 132.774 118.414 133.324 118.703C133.873 118.991 134.085 119.67 133.797 120.22C133.508 120.768 132.828 120.98 132.279 120.692Z" fill="white"/>
<path d="M130.993 118.495C130.961 118.293 130.771 118.156 130.57 118.188C130.368 118.22 130.23 118.41 130.262 118.612C130.294 118.813 130.485 118.951 130.686 118.919C130.887 118.887 131.025 118.697 130.993 118.495Z" fill="#F77D48"/>
<path d="M125.82 129.319C126.431 130.069 127.09 133.219 126.876 133.393C126.661 133.567 123.711 132.28 123.1 131.529C122.489 130.779 122.603 129.675 123.354 129.065C124.105 128.454 125.21 128.568 125.82 129.319Z" fill="#A8D29F"/>
<path d="M129.38 130.034C128.519 130.477 126.651 133.098 126.778 133.344C126.904 133.589 130.123 133.593 130.985 133.151C131.846 132.708 132.184 131.652 131.741 130.791C131.298 129.93 130.241 129.592 129.38 130.034Z" fill="#A8D29F"/>
<path d="M97.4473 139.101C97.4473 139.101 98.433 136.51 102.014 136.347C105.594 136.184 108.06 138.299 111.017 137.323C113.976 136.347 118.872 134.144 123.504 135.611C128.136 137.079 128.916 139.101 128.916 139.101H97.4473Z" fill="#A8D29F"/>
<path d="M140.56 99.6463C137.557 98.8825 134.256 94.2263 134.256 94.2263L135.102 93.4932C135.977 94.5249 139.617 96.301 139.617 96.301C139.598 95.3569 139.622 94.4957 139.682 93.7125C140.086 88.3865 142.095 86.6118 142.643 86.2226C142.732 86.1593 142.782 86.1328 142.782 86.1328C142.782 86.1328 142.785 86.1718 142.788 86.2449C142.796 86.4029 142.81 86.7218 142.826 87.1597C142.936 90.4194 143.07 100.285 140.56 99.6463Z" fill="#FFB27D"/>
<path d="M142.968 92.3728C142.961 92.6646 142.951 92.9577 142.939 93.2508C142.842 95.6207 142.584 97.9759 142.003 99.3544C141.859 99.6928 141.697 99.9727 141.512 100.179C141.244 100.48 140.928 100.625 140.559 100.571C138.531 100.275 138.002 98.3818 137.895 96.9755C137.828 96.0997 137.925 95.4118 137.925 95.4118C137.925 95.4118 138.923 95.4076 139.084 95.2586C139.417 94.9523 139.562 93.4791 139.651 91.8465C139.768 89.7063 139.799 87.3009 140.003 86.8867C140.588 85.7031 142.846 85.7031 142.846 85.7031C142.846 85.7031 143.057 88.9266 142.968 92.3728Z" fill="#F99746"/>
<path d="M145.359 80.287C145.359 80.287 143.686 81.2714 144.713 83.1797C144.713 83.1797 143.248 82.9117 142.932 82.4752C142.932 82.4752 142.969 82.6569 143.023 82.7488C143.023 82.7488 141.677 82.4439 141.236 81.8827C140.796 81.3216 142.956 74.5961 146.455 76.3381C146.455 76.3381 149.655 76.9312 148.402 80.4819C147.149 84.0326 148.333 84.3459 148.333 84.3459C148.333 84.3459 147.96 84.4211 147.801 84.3786C147.801 84.3786 147.592 84.2282 147.581 84.0883C147.581 84.0883 147.573 84.302 147.615 84.3821C147.615 84.3821 146.305 84.1649 145.794 83.5139C145.284 82.8616 144.979 80.9874 145.359 80.287Z" fill="#233862"/>
<path d="M142.946 86C142.944 86.0007 142.942 86.0014 142.94 86.0021C142.93 86.0007 142.932 86 142.946 86Z" fill="#FFB27D"/>
<path d="M147.011 84.8282C147.06 85.2682 147.119 85.663 147.145 85.8516C147.203 86.2736 143.201 85.9985 142.945 85.9978C143.123 85.9206 143.666 84.1995 143.838 83.543C144.047 82.7465 144.21 81.8867 144.21 81.8867L147.037 82.0649L147.204 82.0754C147.1 82.4604 147.026 82.8238 146.975 83.1615C146.968 83.2067 146.961 83.2527 146.955 83.2972C146.904 83.6718 146.949 84.2845 147.011 84.8282Z" fill="#FFB27D"/>
<path d="M143.821 81.6037C143.821 81.6037 143.363 80.1514 143.456 79.0374C143.522 78.2423 144.655 75.5299 147.377 76.6842C147.377 76.6842 148.177 76.9829 148.812 77.7084C149.316 78.2855 149.966 79.4155 148.324 81.6099L147.847 82.3716L143.821 81.6037Z" fill="#233862"/>
<path d="M143.305 92.6022L143.155 97.3971C143.155 97.3971 142.625 98.3049 142.003 99.3562C141.843 99.6263 141.677 99.9048 141.512 100.181C141.244 100.481 140.928 100.627 140.559 100.572C138.531 100.277 138.002 98.3836 137.895 96.9772C137.828 96.1014 137.925 95.4135 137.925 95.4135C137.925 95.4135 138.923 95.4094 139.084 95.2604C139.417 94.9541 139.562 93.4809 139.651 91.8483L141.036 91.0664L142.968 92.3753L143.305 92.6022Z" fill="#ED7D2B"/>
<path d="M147.009 84.8302C145.032 84.2516 144.193 81.9688 144.193 81.9688C145.029 81.9931 146.119 82.5731 146.974 83.1628C146.967 83.208 146.96 83.254 146.954 83.2985C146.903 83.6738 146.948 84.2864 147.009 84.8302Z" fill="#ED975D"/>
<path d="M147.15 84.029C147.15 84.029 143.578 83.1469 144.162 80.9322C144.746 78.7176 144.678 77.1121 146.983 77.5821C149.289 78.052 149.507 79.0128 149.492 79.7995C149.477 80.5862 148.095 84.2017 147.15 84.029Z" fill="#FFB27D"/>
<path d="M149.712 78.54C148.649 76.8587 147.381 76.6846 147.375 76.6846C146.468 76.0768 145.267 77.5688 145.267 77.5688C144.608 79.0942 143.221 79.7013 143.221 79.7013C143.221 79.7013 143.763 80.2729 145.359 80.2841C145.846 80.2875 146.339 80.071 146.79 79.7696C145.917 80.6224 144.9 81.1348 144.9 81.1348C146.815 80.7979 148.156 78.689 148.393 78.2908C148.651 78.705 148.907 79.1868 148.92 79.4855C148.948 80.0961 148.721 81.2775 149.07 81.3277C149.07 81.3284 150.428 79.6721 149.712 78.54Z" fill="#233862"/>
<path d="M146.592 82.6084C146.592 82.6084 146.636 82.9454 146.852 83.0255C147.067 83.1048 147.638 83.2496 147.696 83.2141C147.754 83.1786 147.968 82.9155 147.968 82.9155C147.968 82.9155 147.068 82.5701 146.592 82.6084Z" fill="white"/>
<path d="M145.26 116.485C145.215 116.675 145.17 116.862 145.125 117.048C144.856 118.166 144.605 119.203 144.447 120.071C144.242 121.2 144.194 122.041 144.463 122.394C145.572 123.847 144.463 135.382 144.463 135.382L143.2 136.682C143.2 136.682 141.006 125.293 140.41 123.509C140.139 122.698 139.745 119.233 139.398 115.696C139.379 115.519 139.363 115.342 139.345 115.165C139.285 114.546 139.227 113.93 139.171 113.328C138.858 109.981 138.625 107.116 138.625 107.116C138.625 107.116 140.953 105.48 143.068 105.298C144.314 105.189 145.486 105.586 146.065 107.116C146.907 109.343 146.053 113.187 145.26 116.485Z" fill="#FFB27D"/>
<path d="M144.904 117.25C143.274 115.475 142.202 112.932 140.213 109.372C140.044 107.562 141.472 105.841 143.067 105.298C144.313 105.189 145.485 105.586 146.064 107.116C146.906 109.342 145.697 113.951 144.904 117.25Z" fill="#ED975D"/>
<path d="M151.566 94.4883L160.066 96.6827V97.6748C160.066 97.6748 151.607 97.576 151.061 96.634C150.516 95.692 151.566 94.4883 151.566 94.4883Z" fill="#FFB27D"/>
<path d="M160.067 127.185L159.67 128.825C159.67 128.825 148.171 122.889 146.684 121.749C146.086 121.291 145.297 118.804 144.566 115.991C143.478 111.797 142.518 106.879 142.518 106.879C142.518 106.879 144.13 100.683 148.444 104.475C151.027 106.744 150.625 111.116 150.342 114.517C150.154 116.8 150.019 118.644 150.875 119.122C152.545 120.054 157.446 124.346 158.998 127.298L160.067 127.185Z" fill="#FFB27D"/>
<path d="M155.736 94.4888C156.286 95.2693 155.984 96.7828 154.83 98.0012C154.114 98.758 153.144 99.2057 151.565 98.9731C150.877 98.8715 149.663 98.1029 149.03 96.8309C148.935 96.6408 148.695 96.0831 148.695 96.0831C148.695 96.0831 147.819 96.959 147.787 97.1247C147.772 97.1992 147.697 97.8613 147.685 97.9518C147.671 98.0611 147.749 98.4635 147.749 98.4635C147.749 98.4635 143.566 100.292 140.109 98.2101C140.109 98.2101 139.291 92.9022 139.831 88.3615C139.935 87.4912 142.156 86.3042 142.844 85.7033C142.998 85.5683 143.155 85.161 143.113 84.8985C143.078 84.6771 143.333 84.3032 143.547 84.3715C143.96 84.5038 145.13 85.0823 145.952 84.8616C146.362 84.753 146.882 84.2796 147.279 84.3875C147.765 84.5198 147.252 85.688 147.527 85.7033C147.906 85.7221 149.61 85.7486 150.127 86.4615C150.551 87.0456 150.776 88.1345 151.513 90.196C151.513 90.196 151.514 90.1974 151.515 90.2016C152.898 94.069 154.93 93.3436 155.736 94.4888Z" fill="#F99746"/>
<path d="M148.694 96.0832C148.694 96.0832 148.274 95.1009 147.967 93.4592C147.88 92.9962 144.315 96.5552 145.208 98.0013C146.101 99.4466 148.694 96.0832 148.694 96.0832Z" fill="#ED7D2B"/>
<path d="M153.833 110.915C153.833 110.915 152.713 111.236 151.03 111.591C147.554 112.324 141.674 113.202 138.307 111.701C138.307 111.701 138.522 106.752 139.107 103.01C139.575 100.017 140.009 98.0513 140.009 98.0513C140.009 98.0513 143.14 98.8352 146.318 98.2274C146.349 98.2219 146.378 98.2163 146.409 98.21C146.825 98.1272 147.242 98.0193 147.652 97.8828C147.652 97.8828 150.052 101.321 151.29 103.713C152.146 105.367 153.833 110.915 153.833 110.915Z" fill="#23569E"/>
<path d="M153.833 110.916C153.833 110.916 152.713 111.237 151.031 111.591C150.669 111.63 150.293 111.666 149.904 111.702C144.261 104.502 146.342 98.2455 146.342 98.2455C146.365 98.2337 146.387 98.2219 146.409 98.21C146.825 98.1272 147.242 98.0193 147.652 97.8828C147.652 97.8828 150.052 101.321 151.29 103.713C152.147 105.368 153.833 110.916 153.833 110.916Z" fill="#163560"/>
<path d="M160.066 96.6805C160.066 96.6805 161.626 95.9126 162.246 95.8388C162.866 95.7643 163.908 95.7399 163.908 95.8388C163.908 95.9376 162.792 96.6311 162.494 96.6805C162.197 96.7306 161.626 97.1518 161.8 97.2013C161.973 97.2507 162.891 97.0404 162.903 97.2013C162.916 97.3621 162.345 97.4616 162.246 97.5856C162.147 97.7095 161.8 97.8585 161.242 97.784C160.684 97.7095 160.066 97.6726 160.066 97.6726V96.6805Z" fill="#FFB27D"/>
<path d="M162.518 127.962C162.486 127.904 162.434 127.859 162.372 127.836C162.35 127.827 162.332 127.821 162.329 127.82C162.277 127.808 162.041 127.73 161.884 127.354C161.781 127.106 161.75 126.903 161.655 126.658L161.267 125.989C160.861 125.454 160.718 125.579 160.718 125.579C160.718 125.579 160.612 125.716 160.455 125.895C160.196 126.19 159.799 126.603 159.517 126.71C159.317 126.785 159.193 126.909 159.116 127.024C159.018 127.169 158.996 127.3 158.996 127.3C158.996 127.3 159.83 127.445 159.757 127.855C159.616 128.65 159.65 128.794 159.664 128.821L159.669 128.826C159.669 128.826 161.091 129.57 161.546 129.716C162.355 129.975 162.777 130.525 163.04 130.776C163.146 130.877 163.294 130.924 163.438 130.901C163.562 130.882 163.707 130.85 163.819 130.801C163.925 130.756 163.967 130.628 163.912 130.527L162.518 127.962Z" fill="#2B478B"/>
<path d="M145.73 137.259L145.049 137.627C144.802 137.715 144.597 137.74 144.347 137.836C143.967 137.982 143.698 138.268 143.686 138.32C143.494 139.1 143.213 139.077 143.213 139.077H140.485C140.356 139.012 140.575 138.46 140.679 138.357C140.938 138.102 141.712 138.23 141.994 137.43C142.154 136.98 142.939 135.58 142.939 135.58L142.945 135.576C142.971 135.562 143.117 135.532 143.907 135.697C144.316 135.782 144.486 134.953 144.486 134.953C144.486 134.953 144.616 134.979 144.757 135.081C144.87 135.161 144.991 135.289 145.06 135.491C145.158 135.775 145.559 136.183 145.847 136.451C146.022 136.613 146.155 136.723 146.155 136.723C146.155 136.723 146.277 136.869 145.73 137.259Z" fill="#2B478B"/>
<path d="M135.102 93.493C135.102 93.493 135.228 92.6297 135.005 92.0609C134.769 91.4607 134.717 90.8084 134.529 91.0674C134.34 91.3264 134.499 92.0574 134.335 92.0337C134.262 92.0233 134.039 91.8973 133.952 91.5457C133.84 91.0994 134.111 90.5132 133.74 90.5703C133.385 90.6253 132.909 92.2725 133.145 92.7195C133.38 93.1665 134.257 94.2254 134.257 94.2254L135.102 93.493Z" fill="#FFB27D"/>
<path d="M143.335 98.9712C141.016 98.9712 140.06 98.1733 139.99 98.119L139.84 97.0273C139.862 97.0441 142.974 98.9113 147.789 97.1227L147.687 97.9498C145.834 98.6377 144.539 98.9712 143.335 98.9712Z" fill="#EA7147"/>
<path d="M26.9735 139.326C26.9896 139.33 27.0077 139.332 27.0251 139.332C27.1839 139.333 27.3421 139.183 27.3922 138.972L29.1526 131.546L29.3086 130.886L31.9474 119.753L32.1035 119.093L34.3131 109.767L34.4692 109.108L36.674 99.8047L36.83 99.1454L39.6569 87.2137L39.813 86.5551L42.146 76.7135L42.302 76.0549L43.4605 71.1661C43.5155 70.9328 43.418 70.7114 43.2424 70.6738C43.0676 70.6348 42.8795 70.7943 42.8238 71.0282L41.6325 76.0549L41.4765 76.7135L39.1449 86.5551L38.9889 87.2137L36.1613 99.1454L36.0052 99.8047L33.8011 109.108L33.6444 109.767L31.4347 119.093L31.2787 119.753L28.6399 130.886L28.4838 131.546L26.7569 138.834C26.6991 139.068 26.7966 139.288 26.9735 139.326Z" fill="#2B478B"/>
<path d="M11.1954 139.325C11.2128 139.329 11.2295 139.331 11.247 139.331C11.4072 139.332 11.5646 139.183 11.6141 138.971L13.3563 131.61L13.5131 130.95L16.1505 119.805L16.3072 119.145L18.5169 109.808L18.6729 109.148L20.8777 99.8353L21.0338 99.1753L23.8614 87.2311L24.0174 86.5718L26.3504 76.719L26.5064 76.0597L27.6816 71.0929C27.7367 70.8583 27.6391 70.6383 27.4636 70.6C27.2887 70.5596 27.1007 70.7204 27.0449 70.9543L25.8363 76.0597L25.6802 76.719L23.3473 86.5718L23.1912 87.2311L20.3643 99.1753L20.2076 99.8353L18.0035 109.148L17.8474 109.808L15.6364 119.145L15.4803 119.805L12.8415 130.95L12.6855 131.61L10.976 138.832C10.9216 139.067 11.0192 139.287 11.1954 139.325Z" fill="#2B478B"/>
<path d="M26.5879 73.7168H42.6262L42.7788 73.0547H26.7398L26.5879 73.7168Z" fill="#2B478B"/>
<path d="M23.7461 85.6145H39.6618L39.813 84.9531H23.8966L23.7461 85.6145Z" fill="#2B478B"/>
<path d="M20.209 99.9519H36.5183L36.6729 99.2891H20.3643L20.209 99.9519Z" fill="#2B478B"/>
<path d="M17.8496 109.96H34.1582L34.3129 109.297H18.0043L17.8496 109.96Z" fill="#2B478B"/>
<path d="M15.4824 119.999H31.7924L31.9471 119.336H15.6371L15.4824 119.999Z" fill="#2B478B"/>
<path d="M12.6875 131.854H28.9975L29.1514 131.191H12.8422L12.6875 131.854Z" fill="#2B478B"/>
<path d="M50.9694 49.7178C50.9694 49.7178 50.2832 50.0938 50.0484 49.7178C49.8137 49.3419 50.5089 49.4644 50.5089 49.4644L50.9694 49.7178Z" fill="#EF9E67"/>
<path d="M45.9984 58.025L46.6943 58.1956L50.0325 59.0136C51.3561 59.3381 52.7034 58.5214 53.0273 57.1993L53.223 56.4021C53.4028 56.2427 53.586 56.0721 53.7748 55.889C56.8392 52.9058 60.913 54.7535 60.913 54.7535C60.9374 54.6547 60.9381 54.5648 60.9235 54.4869C60.8824 54.2515 60.7138 54.1186 60.7138 54.1186C58.16 52.8591 54.8336 53.1599 53.3833 53.3764C52.9242 53.4453 52.6532 53.5052 52.6532 53.5052L52.5605 53.4822C52.851 51.4082 51.8305 49.4936 50.1307 49.0773C49.7678 48.9882 49.4 48.9743 49.0412 49.0265C48.3606 49.1253 47.7058 49.4609 47.1555 49.9754C46.633 50.4621 46.2046 51.1088 45.9364 51.8656C45.556 51.8197 45.191 52.0647 45.0976 52.4449L44.3822 55.3592C44.0917 56.5365 44.8204 57.7361 45.9984 58.025ZM49.6772 51.4472L49.4891 51.4006C49.4069 51.3811 49.324 51.3776 49.2446 51.3894C48.9952 51.427 48.7793 51.6108 48.7159 51.8698L47.3554 51.5363C46.9862 51.4458 46.6114 51.647 46.4735 51.9896L46.2728 51.9408C46.5459 51.1917 46.9855 50.5609 47.517 50.1084C48.0764 49.6315 48.7361 49.3516 49.4076 49.3398C49.6201 49.3349 49.8354 49.3579 50.0478 49.4101C51.5658 49.7819 52.4749 51.5113 52.2248 53.3987L52.0792 53.3632C52.1161 52.9942 51.8758 52.6433 51.5066 52.5528L50.1468 52.2193C50.2303 51.8789 50.0193 51.5314 49.6772 51.4472Z" fill="#C94C43"/>
<path d="M53.2213 56.4036C53.401 56.2441 53.5842 56.0736 53.773 55.8905C56.8374 52.9072 60.9113 54.7549 60.9113 54.7549C60.9356 54.6561 60.9363 54.5663 60.9217 54.4883C60.3505 54.2237 58.2321 53.3771 55.8761 54.127C53.1154 55.007 52.6626 55.4769 53.2213 56.4036Z" fill="#B23B38"/>
<path d="M45.9988 58.0266L46.6947 58.1972C45.6317 57.808 46.5094 55.3608 46.9971 53.7588C47.4847 52.1568 48.6641 52.679 48.6641 52.679C48.8354 52.1408 49.3684 52.0886 49.3684 52.0886C49.3238 51.6012 49.6777 51.4495 49.6777 51.4495L49.4896 51.4028C49.4074 51.3833 49.3245 51.3798 49.2451 51.3917C48.9957 51.4293 48.7797 51.6131 48.7163 51.8721L47.3558 51.5386C46.9866 51.4481 46.6118 51.6493 46.4739 51.9918L46.2733 51.9431C46.5464 51.194 46.9859 50.5632 47.5174 50.1106C48.0768 49.6337 48.7365 49.3539 49.4081 49.342C49.2924 49.2745 49.1643 49.1749 49.041 49.0273C48.3604 49.1262 47.7055 49.4618 47.1552 49.9763C46.6327 50.4629 46.2043 51.1097 45.9361 51.8665C45.5558 51.8205 45.1907 52.0656 45.0974 52.4457L44.3819 55.3601C44.0922 56.5381 44.8208 57.7377 45.9988 58.0266Z" fill="#B23B38"/>
<path d="M48.9767 48.9729C50.8284 48.2154 51.2032 49.5981 51.2032 49.5981C51.0095 49.5528 50.8806 49.2952 50.5086 49.6301C49.9639 50.1203 49.5689 50.3897 49.0144 50.2031L48.3519 50.2094L48.2773 49.2187C48.2773 49.2194 48.6284 49.0314 48.9767 48.9729Z" fill="#FFB27D"/>
<path d="M33.1797 40.8143C33.1797 40.8143 34.6001 42.4984 36.4099 41.7938C36.4099 41.7938 36.7993 40.8532 36.8049 40.1598C36.8056 40.0742 36.8063 39.992 36.8077 39.9134C36.8174 39.1322 36.8439 38.6943 36.8439 38.6943C36.8439 38.6943 36.8432 38.6943 36.8418 38.6936C36.7596 38.6595 34.0762 37.5581 34.0783 37.65C34.1243 39.7623 33.1797 40.8143 33.1797 40.8143Z" fill="#FFB27D"/>
<path d="M34.3455 38.1524C34.6039 38.6321 35.4921 39.5699 36.8052 39.9124C36.815 39.1313 36.8415 38.6934 36.8415 38.6934C36.8415 38.6934 36.8408 38.6934 36.8394 38.6927C36.7655 38.6732 34.2688 38.0118 34.3455 38.1524Z" fill="#ED975D"/>
<path d="M37.404 38.6113C37.404 38.6113 34.3863 39.3201 33.9732 37.4354C33.5601 35.5508 32.8927 34.3728 34.8021 33.8402C36.7116 33.3076 37.2445 33.9446 37.5357 34.5406C37.8262 35.1365 38.178 38.3788 37.404 38.6113Z" fill="#FFB27D"/>
<path d="M34.0775 37.9485C34.0364 37.975 33.3872 38.1741 32.1569 35.7262C31.964 35.3419 31.8323 34.5106 32.2823 33.7761C32.7324 33.0416 33.9493 32.5466 35.291 32.4046C36.4955 32.2772 37.1475 32.7332 37.4408 33.1356C37.934 33.8116 38.2928 35.0606 37.4854 34.8385C37.2158 34.7648 36.3813 34.6213 35.8867 34.7654C35.4067 34.9054 35.2409 35.667 35.2054 35.9079C35.1698 36.1488 35.1148 36.3486 34.515 36.1335C33.9152 35.9184 34.244 36.9829 34.3402 37.1869C34.3402 37.1862 34.4217 37.7285 34.0775 37.9485Z" fill="#A9453D"/>
<path d="M26.3877 84.9568H24.5605C24.1774 84.9568 23.7517 84.5732 23.6451 83.8714C23.5386 83.1689 22.7514 82.7867 22.5807 82.2116C22.41 81.6372 23.2836 80.8282 23.2836 80.8282L23.4299 80.6409L23.5817 80.4453L25.0293 80.7858C25.0293 80.7858 25.0649 81.1304 25.0871 81.569C25.1025 81.8858 25.1108 82.252 25.0927 82.5729C25.0502 83.3388 25.3073 84.1638 25.9886 84.3128C26.6692 84.4625 26.3877 84.9568 26.3877 84.9568Z" fill="#202E51"/>
<path d="M39.1076 84.956H34.264C34.2174 84.947 34.1825 84.9365 34.1609 84.9261C33.8377 84.7638 33.9387 83.5267 33.9777 83.1445C33.9854 83.0734 33.9903 83.0324 33.9903 83.0324C33.9903 83.0324 35.6935 81.6706 35.9276 82.7135C35.9352 82.7462 35.9436 82.7776 35.9526 82.8096V82.8103C36.248 83.7857 37.5702 84.2285 38.3337 84.3524C38.9175 84.4464 39.0686 84.7861 39.1076 84.956Z" fill="#202E51"/>
<path d="M38.1324 57.0446C38.1324 57.0446 37.874 60.2702 37.5696 64.1474C37.1565 69.4142 36.6598 75.8834 36.6103 77.1088C36.5253 79.2371 36.184 82.6409 36.184 82.6409C36.184 82.6409 35.3752 83.4499 33.757 83.1087C33.757 83.1087 32.315 78.2492 31.9026 73.1076C31.8963 73.0234 31.89 72.9384 31.8838 72.8535C31.5006 67.6194 30.9043 56.5977 30.9043 56.5977L38.1324 57.0446Z" fill="#F99746"/>
<path d="M38.1317 57.0446C38.1317 57.0446 37.8733 60.2702 37.5689 64.1474L31.9026 73.1076C31.8963 73.0234 31.89 72.9384 31.8837 72.8535C31.5006 67.6194 30.9043 56.5977 30.9043 56.5977L38.1317 57.0446Z" fill="#ED7D2B"/>
<path d="M36.9509 57.4218C36.9509 57.4218 32.2884 69.1028 29.2226 74.5924C26.1568 80.0821 25.1989 81.6137 25.1989 81.6137C25.1989 81.6137 23.4427 80.9119 23.2832 80.4329C23.2832 80.4329 24.4556 69.8352 26.5086 67.2523C27.6684 65.7923 29.031 61.4117 29.0951 59.8801C29.1592 58.3484 29.5103 55.3164 29.5103 55.3164L36.9509 57.4218Z" fill="#F99746"/>
<path d="M26.2329 55.3023L26.1834 56.0536C26.1834 56.0536 26.1737 56.3606 26.1897 56.621C26.2176 57.0721 26.1709 57.6388 25.2904 58.0726C25.2904 58.0726 24.6954 58.3121 24.6718 57.8498C24.6474 57.3875 24.8752 57.4885 24.8271 56.8375C24.779 56.1858 24.8835 55.6428 25.314 55.4353L25.6679 55.0273L26.2329 55.3023Z" fill="#FFB27D"/>
<path d="M25.6911 55.8488C26.2073 56.0145 26.2895 55.9769 26.2895 55.9769C26.2895 55.9769 28.8015 51.407 29.0558 50.9886C29.3101 50.5701 34.3884 45.8637 34.3884 45.8637L33.0837 41C33.0837 41 27.3073 48.4752 26.6838 49.5481C25.6528 51.3206 25.0488 55.4373 25.0488 55.4373C25.0488 55.4373 25.2857 55.7193 25.6911 55.8488Z" fill="#1E3D70"/>
<path d="M39.0318 47.7721C39.0137 48.7712 38.9559 49.8942 38.8772 51.0346C38.8723 51.1021 38.8674 51.1696 38.8625 51.2372C38.8124 51.9438 38.758 52.6519 38.696 53.3425C38.671 53.6196 38.6445 53.8932 38.6166 54.162L38.6124 54.1982C38.6104 54.2991 38.5978 54.4077 38.5867 54.5073C38.3317 57.0937 38.0649 59.1371 38.0154 59.1684C37.9562 59.2081 37.8901 59.2276 37.8169 59.2192C37.1384 59.1343 35.1133 59.2882 33.4554 58.9275C32.0565 58.6323 30.8521 58.0733 29.5752 57.3193C29.4059 57.219 29.0193 56.9538 29.0506 56.756C29.0813 56.5381 29.1384 56.2234 29.2108 55.828C29.4623 54.4523 29.8963 52.0859 30.0447 49.3156C30.0733 48.7997 30.1158 48.2901 30.1701 47.7888C30.3122 46.4841 30.54 45.2442 30.8458 44.1435C31.4143 42.098 32.6431 40.5232 33.6908 39.9105C33.8281 39.8339 34.1715 40.3108 34.8479 40.7446C35.4728 41.1449 36.0398 41.0168 36.68 40.9604L37.3342 41.8223C38.0161 42.6146 38.742 43.6693 38.9406 45.1683C38.9552 45.279 38.9684 45.3966 38.9789 45.522C39.0339 46.1332 39.0471 46.906 39.0318 47.7721Z" fill="#2A4E96"/>
<path d="M39.0317 47.7732C39.0135 48.7723 38.9557 49.8953 38.877 51.0357C38.8721 51.1032 38.8673 51.1707 38.8624 51.2383C34.9857 48.8134 34.3887 44.375 34.3887 44.375C36.296 44.4585 37.8112 44.8965 38.9787 45.5237C39.0337 46.1343 39.047 46.9071 39.0317 47.7732Z" fill="#1E3D70"/>
<path d="M48.828 49.6856C48.8677 49.1113 48.5702 49.0152 48.5702 49.0152C48.5702 49.0152 42.7249 47.9563 42.2282 47.8003C41.7315 47.6444 37.4821 43.2269 37.4821 43.2269C37.4821 43.2269 35.8534 41.391 34.5201 41.7969C33.3616 42.1492 32.9081 43.0528 32.7541 43.9134C32.5702 44.9389 33.0432 45.9707 33.9321 46.5158C35.9266 47.7383 39.9203 50.1479 40.8607 50.4236C42.9541 51.037 48.5779 50.4731 48.5779 50.4731C48.5779 50.4731 48.7966 50.1375 48.828 49.6856Z" fill="#2A4E96"/>
<path d="M26.1821 56.3125C26.1821 56.3125 26.3228 56.9697 26.4071 57.1862C26.4914 57.4021 26.1438 57.2802 26.0595 56.9892C25.9745 56.6975 26.1821 56.3125 26.1821 56.3125Z" fill="#FFB27D"/>
<path d="M36.6314 99.5432L36.0488 99.6914L46.1743 139.443L46.7569 139.295L36.6314 99.5432Z" fill="#2B478B"/>
</svg>
