<svg width="193" height="140" viewBox="0 0 193 140" fill="none" xmlns="http://www.w3.org/2000/svg">
<rect x="0.5" y="0.5" width="192" height="139" rx="11.5" fill="white" stroke="#E9EDF5"/>
<path d="M11.865 138.939C7.15841 123.139 3.53345 104.746 4.04889 87.9111C4.48958 74.8955 7.16617 60.9377 20.7162 44.9054C47.3347 13.5683 77.8532 43.806 96.7367 22.7721C115.2 2.22613 149.747 1.92091 165.201 20.8786C173.048 30.7487 174.561 42.9276 171.738 56.1251C170.865 60.1675 169.708 63.8009 168.307 67.5488C164.084 78.6665 167.563 85.3247 172.887 91.4132C177.526 96.7325 182.616 100.766 186.463 107.459C191.877 117.1 190.49 128.318 186.237 139L11.865 138.939Z" fill="#EBF3FA"/>
<path d="M94.0201 132.141H104.602V93.2303H94.0201V132.141Z" fill="#D9E7FA"/>
<path d="M91.6431 132.141H102.225V93.2303H91.6431V132.141Z" fill="#DCE9FA"/>
<path d="M102.223 95.7031H91.6445V98.5114H102.223V95.7031Z" fill="#D9E7FA"/>
<path d="M102.223 101.797H91.6445V104.606H102.223V101.797Z" fill="#D9E7FA"/>
<path d="M102.223 107.891H91.6445V110.699H102.223V107.891Z" fill="#D9E7FA"/>
<path d="M102.223 113.98H91.6445V116.789H102.223V113.98Z" fill="#D9E7FA"/>
<path d="M102.223 120.07H91.6445V122.879H102.223V120.07Z" fill="#D9E7FA"/>
<path d="M102.223 126.16H91.6445V128.968H102.223V126.16Z" fill="#D9E7FA"/>
<path d="M77.1041 132.141H87.6855V97.695H77.1041V132.141Z" fill="#D9E7FA"/>
<path d="M74.7271 132.141H85.3086V97.695H74.7271V132.141Z" fill="#DCE9FA"/>
<path d="M85.3053 100.859H74.7266V103.27H85.3053V100.859Z" fill="#D9E7FA"/>
<path d="M85.3053 106.09H74.7266V108.501H85.3053V106.09Z" fill="#D9E7FA"/>
<path d="M85.3053 111.32H74.7266V113.731H85.3053V111.32Z" fill="#D9E7FA"/>
<path d="M85.3053 116.547H74.7266V118.958H85.3053V116.547Z" fill="#D9E7FA"/>
<path d="M85.3053 121.777H74.7266V124.188H85.3053V121.777Z" fill="#D9E7FA"/>
<path d="M85.3053 127.008H74.7266V129.419H85.3053V127.008Z" fill="#D9E7FA"/>
<path d="M110.328 130.645H105.896V136.748H110.328V130.645Z" fill="#DCEAF9"/>
<path d="M179.865 139.036C183.961 130.859 185.296 122.273 180.083 114.893C176.379 109.773 171.481 106.687 167.015 102.618H157.314V92.0557H150.613V98.9123H149.084V90.7266H142.383V106.073H133.908V115.023H130.742V117.276H123.468V113.394H119.292V102.845H114.133V122.318H108.975V139.016L179.865 139.036Z" fill="#DCE9FA"/>
<path d="M149.086 91.7656H142.381V93.329H149.086V91.7656Z" fill="#D9E7FA"/>
<path d="M149.086 94.7031H142.381V96.2665H149.086V94.7031Z" fill="#D9E7FA"/>
<path d="M149.086 97.3477H142.381V98.9111H149.086V97.3477Z" fill="#D9E7FA"/>
<path d="M157.313 97.3477H150.607V98.9111H157.313V97.3477Z" fill="#D9E7FA"/>
<path d="M157.313 94.7031H150.607V96.2665H157.313V94.7031Z" fill="#D9E7FA"/>
<path d="M157.313 92.0664H150.607V93.6298H157.313V92.0664Z" fill="#D9E7FA"/>
<path d="M157.315 99.9102H142.381V101.474H157.315V99.9102Z" fill="#D9E7FA"/>
<path d="M157.315 102.473H142.381V104.036H157.315V102.473Z" fill="#D9E7FA"/>
<path d="M119.341 102.852H114.137V105.265H119.341V102.852Z" fill="#D9E7FA"/>
<path d="M119.341 106.438H114.137V108.851H119.341V106.438Z" fill="#D9E7FA"/>
<path d="M119.341 110.027H114.137V112.441H119.341V110.027Z" fill="#D9E7FA"/>
<path d="M119.341 113.793H114.137V116.207H119.341V113.793Z" fill="#D9E7FA"/>
<path d="M119.341 117.438H114.137V119.851H119.341V117.438Z" fill="#D9E7FA"/>
<path d="M119.341 121.086H114.137V123.5H119.341V121.086Z" fill="#D9E7FA"/>
<path d="M119.341 124.898H114.137V127.312H119.341V124.898Z" fill="#D9E7FA"/>
<path d="M157.315 104.973H142.381V105.966H157.315V104.973Z" fill="#D9E7FA"/>
<path d="M121.188 102.852H119.27V113.399H121.188V102.852Z" fill="#D9E7FA"/>
<path d="M127.329 113.395H123.469V117.277H127.329V113.395Z" fill="#D9E7FA"/>
<path d="M157.312 92.0664V93.6305L157.314 99.9105L157.315 101.475V102.623H158.645V92.1914C158.585 92.1493 158.525 92.1085 158.465 92.0671H157.312V92.0664Z" fill="#D9E7FA"/>
<path d="M149.903 90.7266H149.086V98.9062H149.903V90.7266Z" fill="#D9E7FA"/>
<path d="M136.431 107.617H135.295V109.13H136.431V107.617Z" fill="#D9E7FA"/>
<path d="M138.554 107.617H137.418V109.13H138.554V107.617Z" fill="#D9E7FA"/>
<path d="M140.632 107.617H139.496V109.13H140.632V107.617Z" fill="#D9E7FA"/>
<path d="M142.601 107.617H141.465V109.13H142.601V107.617Z" fill="#D9E7FA"/>
<path d="M144.607 107.617H143.471V109.13H144.607V107.617Z" fill="#D9E7FA"/>
<path d="M146.638 107.617H145.502V109.13H146.638V107.617Z" fill="#D9E7FA"/>
<path d="M148.761 107.617H147.625V109.13H148.761V107.617Z" fill="#D9E7FA"/>
<path d="M150.837 107.617H149.701V109.13H150.837V107.617Z" fill="#D9E7FA"/>
<path d="M152.81 107.617H151.674V109.13H152.81V107.617Z" fill="#D9E7FA"/>
<path d="M154.816 107.617H153.68V109.13H154.816V107.617Z" fill="#D9E7FA"/>
<path d="M156.905 107.617H155.77V109.13H156.905V107.617Z" fill="#D9E7FA"/>
<path d="M159.03 107.617H157.895V109.13H159.03V107.617Z" fill="#D9E7FA"/>
<path d="M161.107 107.617H159.971V109.13H161.107V107.617Z" fill="#D9E7FA"/>
<path d="M163.077 107.617H161.941V109.13H163.077V107.617Z" fill="#D9E7FA"/>
<path d="M165.083 107.617H163.947V109.13H165.083V107.617Z" fill="#D9E7FA"/>
<path d="M167.113 107.617H165.977V109.13H167.113V107.617Z" fill="#D9E7FA"/>
<path d="M136.431 110.281H135.295V111.794H136.431V110.281Z" fill="#D9E7FA"/>
<path d="M138.554 110.281H137.418V111.794H138.554V110.281Z" fill="#D9E7FA"/>
<path d="M140.632 110.281H139.496V111.794H140.632V110.281Z" fill="#D9E7FA"/>
<path d="M142.601 110.281H141.465V111.794H142.601V110.281Z" fill="#D9E7FA"/>
<path d="M144.607 110.281H143.471V111.794H144.607V110.281Z" fill="#D9E7FA"/>
<path d="M146.638 110.281H145.502V111.794H146.638V110.281Z" fill="#D9E7FA"/>
<path d="M148.761 110.281H147.625V111.794H148.761V110.281Z" fill="#D9E7FA"/>
<path d="M150.837 110.281H149.701V111.794H150.837V110.281Z" fill="#D9E7FA"/>
<path d="M152.81 110.281H151.674V111.794H152.81V110.281Z" fill="#D9E7FA"/>
<path d="M154.816 110.281H153.68V111.794H154.816V110.281Z" fill="#D9E7FA"/>
<path d="M156.905 110.281H155.77V111.794H156.905V110.281Z" fill="#D9E7FA"/>
<path d="M159.03 110.281H157.895V111.794H159.03V110.281Z" fill="#D9E7FA"/>
<path d="M161.107 110.281H159.971V111.794H161.107V110.281Z" fill="#D9E7FA"/>
<path d="M163.077 110.281H161.941V111.794H163.077V110.281Z" fill="#D9E7FA"/>
<path d="M165.083 110.281H163.947V111.794H165.083V110.281Z" fill="#D9E7FA"/>
<path d="M167.113 110.281H165.977V111.794H167.113V110.281Z" fill="#D9E7FA"/>
<path d="M136.431 112.91H135.295V114.423H136.431V112.91Z" fill="#D9E7FA"/>
<path d="M138.554 112.91H137.418V114.423H138.554V112.91Z" fill="#D9E7FA"/>
<path d="M140.632 112.91H139.496V114.423H140.632V112.91Z" fill="#D9E7FA"/>
<path d="M142.601 112.91H141.465V114.423H142.601V112.91Z" fill="#D9E7FA"/>
<path d="M144.607 112.91H143.471V114.423H144.607V112.91Z" fill="#D9E7FA"/>
<path d="M146.638 112.91H145.502V114.423H146.638V112.91Z" fill="#D9E7FA"/>
<path d="M148.761 112.91H147.625V114.423H148.761V112.91Z" fill="#D9E7FA"/>
<path d="M150.837 112.91H149.701V114.423H150.837V112.91Z" fill="#D9E7FA"/>
<path d="M152.81 112.91H151.674V114.423H152.81V112.91Z" fill="#D9E7FA"/>
<path d="M154.816 112.91H153.68V114.423H154.816V112.91Z" fill="#D9E7FA"/>
<path d="M156.905 112.91H155.77V114.423H156.905V112.91Z" fill="#D9E7FA"/>
<path d="M159.03 112.91H157.895V114.423H159.03V112.91Z" fill="#D9E7FA"/>
<path d="M161.107 112.91H159.971V114.423H161.107V112.91Z" fill="#D9E7FA"/>
<path d="M163.077 112.91H161.941V114.423H163.077V112.91Z" fill="#D9E7FA"/>
<path d="M165.083 112.91H163.947V114.423H165.083V112.91Z" fill="#D9E7FA"/>
<path d="M167.113 112.91H165.977V114.423H167.113V112.91Z" fill="#D9E7FA"/>
<path d="M136.431 115.703H135.295V117.216H136.431V115.703Z" fill="#D9E7FA"/>
<path d="M138.554 115.703H137.418V117.216H138.554V115.703Z" fill="#D9E7FA"/>
<path d="M140.632 115.703H139.496V117.216H140.632V115.703Z" fill="#D9E7FA"/>
<path d="M142.601 115.703H141.465V117.216H142.601V115.703Z" fill="#D9E7FA"/>
<path d="M144.607 115.703H143.471V117.216H144.607V115.703Z" fill="#D9E7FA"/>
<path d="M146.638 115.703H145.502V117.216H146.638V115.703Z" fill="#D9E7FA"/>
<path d="M148.761 115.703H147.625V117.216H148.761V115.703Z" fill="#D9E7FA"/>
<path d="M150.837 115.703H149.701V117.216H150.837V115.703Z" fill="#D9E7FA"/>
<path d="M152.81 115.703H151.674V117.216H152.81V115.703Z" fill="#D9E7FA"/>
<path d="M154.816 115.703H153.68V117.216H154.816V115.703Z" fill="#D9E7FA"/>
<path d="M156.905 115.703H155.77V117.216H156.905V115.703Z" fill="#D9E7FA"/>
<path d="M159.03 115.703H157.895V117.216H159.03V115.703Z" fill="#D9E7FA"/>
<path d="M161.107 115.703H159.971V117.216H161.107V115.703Z" fill="#D9E7FA"/>
<path d="M163.077 115.703H161.941V117.216H163.077V115.703Z" fill="#D9E7FA"/>
<path d="M165.083 115.703H163.947V117.216H165.083V115.703Z" fill="#D9E7FA"/>
<path d="M167.113 115.703H165.977V117.216H167.113V115.703Z" fill="#D9E7FA"/>
<path d="M136.431 118.375H135.295V119.887H136.431V118.375Z" fill="#D9E7FA"/>
<path d="M138.554 118.375H137.418V119.887H138.554V118.375Z" fill="#D9E7FA"/>
<path d="M140.632 118.375H139.496V119.887H140.632V118.375Z" fill="#D9E7FA"/>
<path d="M142.601 118.375H141.465V119.887H142.601V118.375Z" fill="#D9E7FA"/>
<path d="M144.607 118.375H143.471V119.887H144.607V118.375Z" fill="#D9E7FA"/>
<path d="M146.638 118.375H145.502V119.887H146.638V118.375Z" fill="#D9E7FA"/>
<path d="M148.761 118.375H147.625V119.887H148.761V118.375Z" fill="#D9E7FA"/>
<path d="M150.837 118.375H149.701V119.887H150.837V118.375Z" fill="#D9E7FA"/>
<path d="M152.81 118.375H151.674V119.887H152.81V118.375Z" fill="#D9E7FA"/>
<path d="M154.816 118.375H153.68V119.887H154.816V118.375Z" fill="#D9E7FA"/>
<path d="M156.905 118.375H155.77V119.887H156.905V118.375Z" fill="#D9E7FA"/>
<path d="M159.03 118.375H157.895V119.887H159.03V118.375Z" fill="#D9E7FA"/>
<path d="M161.107 118.375H159.971V119.887H161.107V118.375Z" fill="#D9E7FA"/>
<path d="M163.077 118.375H161.941V119.887H163.077V118.375Z" fill="#D9E7FA"/>
<path d="M165.083 118.375H163.947V119.887H165.083V118.375Z" fill="#D9E7FA"/>
<path d="M167.113 118.375H165.977V119.887H167.113V118.375Z" fill="#D9E7FA"/>
<path d="M136.431 121H135.295V122.512H136.431V121Z" fill="#D9E7FA"/>
<path d="M138.554 121H137.418V122.512H138.554V121Z" fill="#D9E7FA"/>
<path d="M140.632 121H139.496V122.512H140.632V121Z" fill="#D9E7FA"/>
<path d="M142.601 121H141.465V122.512H142.601V121Z" fill="#D9E7FA"/>
<path d="M144.607 121H143.471V122.512H144.607V121Z" fill="#D9E7FA"/>
<path d="M146.638 121H145.502V122.512H146.638V121Z" fill="#D9E7FA"/>
<path d="M148.761 121H147.625V122.512H148.761V121Z" fill="#D9E7FA"/>
<path d="M150.837 121H149.701V122.512H150.837V121Z" fill="#D9E7FA"/>
<path d="M152.81 121H151.674V122.512H152.81V121Z" fill="#D9E7FA"/>
<path d="M154.816 121H153.68V122.512H154.816V121Z" fill="#D9E7FA"/>
<path d="M156.905 121H155.77V122.512H156.905V121Z" fill="#D9E7FA"/>
<path d="M159.03 121H157.895V122.512H159.03V121Z" fill="#D9E7FA"/>
<path d="M161.107 121H159.971V122.512H161.107V121Z" fill="#D9E7FA"/>
<path d="M163.077 121H161.941V122.512H163.077V121Z" fill="#D9E7FA"/>
<path d="M165.083 121H163.947V122.512H165.083V121Z" fill="#D9E7FA"/>
<path d="M167.113 121H165.977V122.512H167.113V121Z" fill="#D9E7FA"/>
<path d="M153.659 125.742H127.328V139.159H153.659V125.742Z" fill="#D9E7FA"/>
<path d="M133.692 132.449H107.361V139.158H133.692V132.449Z" fill="#D9E7FA"/>
<path d="M133.994 127.312H129.088V129.797H133.994V127.312Z" fill="#DCE9FA"/>
<path d="M140.292 127.312H135.387V129.797H140.292V127.312Z" fill="#DCE9FA"/>
<path d="M146.468 127.312H141.562V129.797H146.468V127.312Z" fill="#DCE9FA"/>
<path d="M152.527 127.312H147.621V129.797H152.527V127.312Z" fill="#DCE9FA"/>
<path d="M115.311 101.801H115.174V102.851H115.311V101.801Z" fill="#DCEAF9"/>
<path d="M120.225 101.801H120.088V102.851H120.225V101.801Z" fill="#DCEAF9"/>
<path d="M111.263 127.562H93.1836V139.047H111.263V127.562Z" fill="#DCE9FA"/>
<path d="M111.263 126.066H93.1836V129.799H111.263V126.066Z" fill="#D9E7FA"/>
<path d="M95.3422 130.902H94.4141V132.138H95.3422V130.902Z" fill="#D9E7FA"/>
<path d="M97.0786 130.902H96.1504V132.138H97.0786V130.902Z" fill="#D9E7FA"/>
<path d="M98.7758 130.902H97.8477V132.138H98.7758V130.902Z" fill="#D9E7FA"/>
<path d="M100.385 130.902H99.457V132.138H100.385V130.902Z" fill="#D9E7FA"/>
<path d="M102.026 130.902H101.098V132.138H102.026V130.902Z" fill="#D9E7FA"/>
<path d="M103.684 130.902H102.756V132.138H103.684V130.902Z" fill="#D9E7FA"/>
<path d="M105.42 130.902H104.492V132.138H105.42V130.902Z" fill="#D9E7FA"/>
<path d="M107.118 130.902H106.189V132.138H107.118V130.902Z" fill="#D9E7FA"/>
<path d="M108.727 130.902H107.799V132.138H108.727V130.902Z" fill="#D9E7FA"/>
<path d="M110.368 130.902H109.439V132.138H110.368V130.902Z" fill="#D9E7FA"/>
<path d="M95.3422 133.082H94.4141V134.318H95.3422V133.082Z" fill="#D9E7FA"/>
<path d="M97.0786 133.082H96.1504V134.318H97.0786V133.082Z" fill="#D9E7FA"/>
<path d="M98.7758 133.082H97.8477V134.318H98.7758V133.082Z" fill="#D9E7FA"/>
<path d="M100.385 133.082H99.457V134.318H100.385V133.082Z" fill="#D9E7FA"/>
<path d="M102.026 133.082H101.098V134.318H102.026V133.082Z" fill="#D9E7FA"/>
<path d="M103.684 133.082H102.756V134.318H103.684V133.082Z" fill="#D9E7FA"/>
<path d="M105.42 133.082H104.492V134.318H105.42V133.082Z" fill="#D9E7FA"/>
<path d="M107.118 133.082H106.189V134.318H107.118V133.082Z" fill="#D9E7FA"/>
<path d="M108.727 133.082H107.799V134.318H108.727V133.082Z" fill="#D9E7FA"/>
<path d="M110.368 133.082H109.439V134.318H110.368V133.082Z" fill="#D9E7FA"/>
<path d="M95.3422 135.23H94.4141V136.467H95.3422V135.23Z" fill="#D9E7FA"/>
<path d="M97.0786 135.23H96.1504V136.467H97.0786V135.23Z" fill="#D9E7FA"/>
<path d="M98.7758 135.23H97.8477V136.467H98.7758V135.23Z" fill="#D9E7FA"/>
<path d="M100.385 135.23H99.457V136.467H100.385V135.23Z" fill="#D9E7FA"/>
<path d="M102.026 135.23H101.098V136.467H102.026V135.23Z" fill="#D9E7FA"/>
<path d="M103.684 135.23H102.756V136.467H103.684V135.23Z" fill="#D9E7FA"/>
<path d="M105.42 135.23H104.492V136.467H105.42V135.23Z" fill="#D9E7FA"/>
<path d="M107.118 135.23H106.189V136.467H107.118V135.23Z" fill="#D9E7FA"/>
<path d="M108.727 135.23H107.799V136.467H108.727V135.23Z" fill="#D9E7FA"/>
<path d="M110.368 135.23H109.439V136.467H110.368V135.23Z" fill="#D9E7FA"/>
<path d="M93.1317 127.562H75.0527V139.047H93.1317V127.562Z" fill="#DCE9FA"/>
<path d="M93.1317 126.066H75.0527V129.799H93.1317V126.066Z" fill="#D9E7FA"/>
<path d="M77.2133 130.902H76.2852V132.138H77.2133V130.902Z" fill="#D9E7FA"/>
<path d="M78.9497 130.902H78.0215V132.138H78.9497V130.902Z" fill="#D9E7FA"/>
<path d="M80.6469 130.902H79.7188V132.138H80.6469V130.902Z" fill="#D9E7FA"/>
<path d="M82.2563 130.902H81.3281V132.138H82.2563V130.902Z" fill="#D9E7FA"/>
<path d="M83.895 130.902H82.9668V132.138H83.895V130.902Z" fill="#D9E7FA"/>
<path d="M85.5551 130.902H84.627V132.138H85.5551V130.902Z" fill="#D9E7FA"/>
<path d="M87.2915 130.902H86.3633V132.138H87.2915V130.902Z" fill="#D9E7FA"/>
<path d="M88.9907 130.902H88.0625V132.138H88.9907V130.902Z" fill="#D9E7FA"/>
<path d="M90.5981 130.902H89.6699V132.138H90.5981V130.902Z" fill="#D9E7FA"/>
<path d="M92.2387 130.902H91.3105V132.138H92.2387V130.902Z" fill="#D9E7FA"/>
<path d="M77.2133 133.082H76.2852V134.318H77.2133V133.082Z" fill="#D9E7FA"/>
<path d="M78.9497 133.082H78.0215V134.318H78.9497V133.082Z" fill="#D9E7FA"/>
<path d="M80.6469 133.082H79.7188V134.318H80.6469V133.082Z" fill="#D9E7FA"/>
<path d="M82.2563 133.082H81.3281V134.318H82.2563V133.082Z" fill="#D9E7FA"/>
<path d="M83.895 133.082H82.9668V134.318H83.895V133.082Z" fill="#D9E7FA"/>
<path d="M85.5551 133.082H84.627V134.318H85.5551V133.082Z" fill="#D9E7FA"/>
<path d="M87.2915 133.082H86.3633V134.318H87.2915V133.082Z" fill="#D9E7FA"/>
<path d="M88.9907 133.082H88.0625V134.318H88.9907V133.082Z" fill="#D9E7FA"/>
<path d="M90.5981 133.082H89.6699V134.318H90.5981V133.082Z" fill="#D9E7FA"/>
<path d="M92.2387 133.082H91.3105V134.318H92.2387V133.082Z" fill="#D9E7FA"/>
<path d="M77.2133 135.23H76.2852V136.467H77.2133V135.23Z" fill="#D9E7FA"/>
<path d="M78.9497 135.23H78.0215V136.467H78.9497V135.23Z" fill="#D9E7FA"/>
<path d="M80.6469 135.23H79.7188V136.467H80.6469V135.23Z" fill="#D9E7FA"/>
<path d="M82.2563 135.23H81.3281V136.467H82.2563V135.23Z" fill="#D9E7FA"/>
<path d="M83.895 135.23H82.9668V136.467H83.895V135.23Z" fill="#D9E7FA"/>
<path d="M85.5551 135.23H84.627V136.467H85.5551V135.23Z" fill="#D9E7FA"/>
<path d="M87.2915 135.23H86.3633V136.467H87.2915V135.23Z" fill="#D9E7FA"/>
<path d="M88.9907 135.23H88.0625V136.467H88.9907V135.23Z" fill="#D9E7FA"/>
<path d="M90.5981 135.23H89.6699V136.467H90.5981V135.23Z" fill="#D9E7FA"/>
<path d="M92.2387 135.23H91.3105V136.467H92.2387V135.23Z" fill="#D9E7FA"/>
<path d="M73.8758 127.562H55.7969V139.047H73.8758V127.562Z" fill="#DCE9FA"/>
<path d="M73.8758 126.066H55.7969V129.799H73.8758V126.066Z" fill="#D9E7FA"/>
<path d="M57.9555 130.902H57.0273V132.138H57.9555V130.902Z" fill="#D9E7FA"/>
<path d="M59.6919 130.902H58.7637V132.138H59.6919V130.902Z" fill="#D9E7FA"/>
<path d="M61.3891 130.902H60.4609V132.138H61.3891V130.902Z" fill="#D9E7FA"/>
<path d="M62.9985 130.902H62.0703V132.138H62.9985V130.902Z" fill="#D9E7FA"/>
<path d="M64.6391 130.902H63.7109V132.138H64.6391V130.902Z" fill="#D9E7FA"/>
<path d="M66.2993 130.902H65.3711V132.138H66.2993V130.902Z" fill="#D9E7FA"/>
<path d="M68.0337 130.902H67.1055V132.138H68.0337V130.902Z" fill="#D9E7FA"/>
<path d="M69.7309 130.902H68.8027V132.138H69.7309V130.902Z" fill="#D9E7FA"/>
<path d="M71.3423 130.902H70.4141V132.138H71.3423V130.902Z" fill="#D9E7FA"/>
<path d="M72.9829 130.902H72.0547V132.138H72.9829V130.902Z" fill="#D9E7FA"/>
<path d="M57.9555 133.082H57.0273V134.318H57.9555V133.082Z" fill="#D9E7FA"/>
<path d="M59.6919 133.082H58.7637V134.318H59.6919V133.082Z" fill="#D9E7FA"/>
<path d="M61.3891 133.082H60.4609V134.318H61.3891V133.082Z" fill="#D9E7FA"/>
<path d="M62.9985 133.082H62.0703V134.318H62.9985V133.082Z" fill="#D9E7FA"/>
<path d="M64.6391 133.082H63.7109V134.318H64.6391V133.082Z" fill="#D9E7FA"/>
<path d="M66.2993 133.082H65.3711V134.318H66.2993V133.082Z" fill="#D9E7FA"/>
<path d="M68.0337 133.082H67.1055V134.318H68.0337V133.082Z" fill="#D9E7FA"/>
<path d="M69.7309 133.082H68.8027V134.318H69.7309V133.082Z" fill="#D9E7FA"/>
<path d="M71.3423 133.082H70.4141V134.318H71.3423V133.082Z" fill="#D9E7FA"/>
<path d="M72.9829 133.082H72.0547V134.318H72.9829V133.082Z" fill="#D9E7FA"/>
<path d="M57.9555 135.23H57.0273V136.467H57.9555V135.23Z" fill="#D9E7FA"/>
<path d="M59.6919 135.23H58.7637V136.467H59.6919V135.23Z" fill="#D9E7FA"/>
<path d="M61.3891 135.23H60.4609V136.467H61.3891V135.23Z" fill="#D9E7FA"/>
<path d="M62.9985 135.23H62.0703V136.467H62.9985V135.23Z" fill="#D9E7FA"/>
<path d="M64.6391 135.23H63.7109V136.467H64.6391V135.23Z" fill="#D9E7FA"/>
<path d="M66.2993 135.23H65.3711V136.467H66.2993V135.23Z" fill="#D9E7FA"/>
<path d="M68.0337 135.23H67.1055V136.467H68.0337V135.23Z" fill="#D9E7FA"/>
<path d="M69.7309 135.23H68.8027V136.467H69.7309V135.23Z" fill="#D9E7FA"/>
<path d="M71.3423 135.23H70.4141V136.467H71.3423V135.23Z" fill="#D9E7FA"/>
<path d="M72.9829 135.23H72.0547V136.467H72.9829V135.23Z" fill="#D9E7FA"/>
<path opacity="0.5" d="M165.904 75.6035C168.623 65.5019 167.167 56.1792 159.609 48.6251C159.511 48.5293 159.411 48.4342 159.311 48.3398L5.8098 89.9511C4.92982 93.3747 4.56316 96.6923 4.42533 99.9332C4.38255 101.036 4.37033 102.148 4.38459 103.266L163.008 83.4687C164.175 80.9063 165.15 78.3812 165.904 75.6035Z" fill="#F8FBFF"/>
<path d="M105.351 138.619H11.8014C11.4999 137.853 10.7645 135.927 9.86758 133.176C9.21981 131.192 8.48921 128.778 7.77695 126.061C7.27992 124.166 6.7924 122.123 6.34766 119.976V118.644L15.6913 111.04C15.6913 111.04 35.0332 110.414 43.0033 119.554C50.9733 128.695 73.2383 120.906 79.3031 126.109C85.3686 131.313 90.402 135.938 96.2088 134.652C102.015 133.365 105.351 138.619 105.351 138.619Z" fill="#C7DCF9"/>
<path d="M58.7621 63.5898L14.2695 73.8986C16.3079 71.2574 18.3802 68.9795 20.4783 67.0161L58.7621 63.5898Z" fill="#F8FBFF"/>
<path d="M128.774 49.1975C129.09 47.8589 128.261 46.5176 126.923 46.2015C125.585 45.8854 124.244 46.7143 123.928 48.0529C123.612 49.3914 124.44 50.7328 125.779 51.0489C127.117 51.3649 128.458 50.536 128.774 49.1975Z" fill="#F8FBFF"/>
<path d="M170.671 138.569H163.297C162.902 138.233 163.571 137.472 164.27 137.421C164.573 137.398 164.957 137.462 165.396 137.554C165.497 136.206 166.077 130.146 168.26 130.39C170.716 130.662 168.26 133.059 167.566 134.477C167.052 135.528 166.51 137.035 166.262 137.746C166.462 137.789 166.668 137.831 166.879 137.87C167.204 136.87 168.415 133.509 169.955 133.704C171.763 133.934 171.037 135.282 169.755 136.082C168.814 136.671 167.66 137.507 167.111 137.911C167.577 137.987 168.061 138.038 168.554 138.026C169.816 137.996 170.432 138.369 170.671 138.569Z" fill="#82B378"/>
<path d="M58.7727 138.434C58.5439 138.074 57.854 137.14 56.936 137.264C55.9359 137.398 58.0408 138.058 58.6851 138.437C58.5419 138.439 58.419 138.427 58.3287 138.395C57.8975 138.242 57.1601 138.536 56.9238 138.64H61.0256C60.9971 138.541 60.9231 138.381 60.7323 138.264C60.6651 138.223 60.5293 138.217 60.3548 138.23C60.5985 137.943 60.7683 137.024 60.0893 137.26C59.593 137.433 59.5943 137.994 59.6432 138.327C59.538 138.343 59.4307 138.36 59.3248 138.375C59.1204 137.334 58.3979 134.282 56.934 134.201C55.4497 134.119 58.1929 137.365 59.1061 138.403C58.99 138.418 58.8773 138.429 58.7727 138.434Z" fill="#82B378"/>
<path d="M108.675 110.458C107.821 111.39 106.537 112.351 108.577 114.483C111.192 117.214 115.237 128.984 115.237 128.984C115.098 129.434 115.241 130.058 114.92 130.241C114.403 130.538 113.082 129.632 113.082 129.632C113.082 129.632 101.071 117.188 100.098 114.39C99.378 112.324 103.056 102.316 105.257 97.072C106.036 95.2139 106.63 93.9547 106.778 93.8569C106.801 93.842 106.824 93.827 106.846 93.8135C108.14 92.993 109.358 93.0976 110.446 93.7272C110.678 93.8623 110.904 94.0199 111.124 94.1992C113.811 96.3793 115.537 101.552 115.358 102.627C115.234 103.375 113.923 104.96 112.485 106.521C112.186 106.845 111.882 107.168 111.582 107.482C110.275 108.853 109.042 110.059 108.675 110.458Z" fill="#F99746"/>
<path d="M112.483 106.523C112.184 106.847 111.88 107.169 111.58 107.484L105.254 97.0746C106.033 95.2164 106.628 93.9573 106.776 93.8595C106.798 93.8446 106.821 93.8296 106.843 93.816L110.443 93.7298L111.093 93.7148L111.121 94.2018L112.483 106.523Z" fill="#ED7D2B"/>
<path d="M108.903 70.3126C108.903 70.3126 110.249 73.6024 109.9 75.5597C109.551 77.517 104.918 87.2709 103.23 88.9396C101.541 90.6089 90.3457 83.5085 90.3457 83.5085L91.4477 82.4558C91.4477 82.4558 100.304 84.7105 100.772 84.0035C101.241 83.2966 103.495 69.3992 108.903 70.3126Z" fill="#FFB27D"/>
<path d="M108.639 96.0964C108.639 96.0964 110.936 107.586 116.732 115.669C122.334 123.48 125.248 135.452 125.248 135.452C125.248 135.452 125.62 135.742 126.351 135.431C127.082 135.121 127.573 135.498 127.721 135.142C127.721 135.142 126.663 116.245 123.756 112.108C122.113 109.77 121.237 101.189 121.294 98.8538C121.349 96.5182 120.328 93.6562 120.328 93.6562L108.639 96.0964Z" fill="#F99746"/>
<path d="M127.667 138.538L126.312 138.547C125.858 138.479 125.522 138.35 125.055 138.293C124.348 138.205 124.024 138.497 123.96 138.564C123.951 138.573 123.948 138.578 123.948 138.578L118.19 138.618C118.044 138.412 118.18 137.932 118.313 137.578C118.404 137.338 118.602 137.155 118.849 137.082C119.458 136.9 120.661 136.735 121.756 135.729C122.372 135.164 124.736 133.647 124.736 133.647L124.748 133.645C124.8 133.645 125.049 133.72 126.135 134.624C126.697 135.09 127.641 133.949 127.641 133.949C127.641 133.949 127.821 134.095 127.956 134.37C128.064 134.587 128.145 134.885 128.085 135.253C128.003 135.772 128.287 136.735 128.513 137.385C128.65 137.779 128.764 138.059 128.764 138.059C128.764 138.059 128.832 138.384 127.667 138.538Z" fill="#233862"/>
<path d="M127.956 134.366C127.634 134.596 126.955 135.051 126.502 135.112C125.891 135.197 124.736 133.643 124.736 133.643L124.749 133.641C124.801 133.641 125.049 133.716 126.136 134.62C126.697 135.087 127.641 133.945 127.641 133.945C127.641 133.945 127.821 134.092 127.956 134.366Z" fill="#233862"/>
<path d="M127.667 138.536L126.312 138.546C125.858 138.477 125.522 138.348 125.055 138.291C124.348 138.203 124.024 138.495 123.96 138.562C123.951 138.571 123.948 138.576 123.948 138.576L118.19 138.616C118.044 138.41 118.18 137.93 118.313 137.576C118.487 137.419 118.542 138.25 118.64 138.382C118.738 138.514 123.337 138.397 123.601 138.202C123.866 138.006 124.66 137.663 125.773 137.921C126.741 138.145 128.162 137.542 128.513 137.383C128.65 137.777 128.765 138.057 128.765 138.057C128.765 138.057 128.832 138.382 127.667 138.536Z" fill="#233862"/>
<path d="M120.679 86.4318C120.684 79.9901 119.505 70.6933 117.894 69.9795C116.526 69.373 113.54 68.5057 110.463 68.5526C108.034 68.5893 102.857 69.7255 102.331 73.7392C101.998 76.2799 101.863 78.3737 101.863 78.3737C101.863 78.3737 102.42 79.9955 103.955 80.4302C104.145 81.1474 104.233 81.8591 104.462 82.4615C107.011 89.1769 105.759 95.8971 105.759 95.8971C108.105 97.8489 119.783 96.7059 120.96 95.9385C122.878 94.6882 120.674 92.8735 120.679 86.4318Z" fill="#2A4E96"/>
<path d="M117.88 130.599L116.907 131.543C116.532 131.808 116.2 131.947 115.823 132.229C115.252 132.655 115.22 133.09 115.22 133.183C115.22 133.195 115.221 133.201 115.221 133.201L111.09 137.213C110.842 137.165 110.608 136.724 110.46 136.377C110.359 136.141 110.376 135.871 110.504 135.647C110.819 135.095 111.572 134.144 111.668 132.659C111.722 131.825 112.381 129.094 112.381 129.094L112.388 129.083C112.426 129.047 112.657 128.929 114.067 128.831C114.795 128.779 114.687 127.302 114.687 127.302C114.687 127.302 114.918 127.284 115.206 127.388C115.434 127.47 115.698 127.629 115.91 127.936C116.21 128.368 117.08 128.867 117.693 129.181C118.065 129.371 118.341 129.494 118.341 129.494C118.341 129.494 118.615 129.681 117.88 130.599Z" fill="#233862"/>
<path d="M115.208 127.388C115.135 127.778 114.958 128.576 114.674 128.933C114.291 129.417 112.383 129.094 112.383 129.094L112.39 129.083C112.428 129.048 112.659 128.929 114.069 128.831C114.797 128.779 114.689 127.302 114.689 127.302C114.689 127.302 114.921 127.283 115.208 127.388Z" fill="#233862"/>
<path d="M117.88 130.598L116.908 131.542C116.533 131.807 116.2 131.947 115.824 132.228C115.253 132.654 115.221 133.089 115.221 133.182C115.221 133.194 115.221 133.2 115.221 133.2L111.091 137.212C110.843 137.164 110.609 136.724 110.461 136.376C110.478 136.142 111.092 136.704 111.253 136.732C111.415 136.76 114.656 133.494 114.713 133.17C114.769 132.846 115.105 132.048 116.087 131.464C116.942 130.956 117.551 129.538 117.694 129.18C118.066 129.37 118.342 129.492 118.342 129.492C118.342 129.492 118.616 129.68 117.88 130.598Z" fill="#233862"/>
<path d="M114.546 70.8283C114.546 70.8283 118.099 70.7896 119.79 71.8362C121.48 72.8827 128.837 80.7846 129.765 82.9701C130.694 85.1556 122.157 91.3867 122.157 91.3867L120.953 89.4702C120.953 89.4702 124.756 84.1321 124.272 83.436C123.788 82.7392 111.703 75.5199 114.546 70.8283Z" fill="#FFB27D"/>
<path d="M121.403 89.1719L122.821 90.2639C122.821 90.2639 121.573 92.9568 120.892 93.2101L120.822 93.2243C120.09 93.3704 118.273 92.1825 117.969 90.9553C117.943 90.829 117.949 90.7101 117.986 90.6008C118.266 89.8585 119.97 89.4367 120.86 89.2642C121.186 89.2018 121.403 89.1719 121.403 89.1719Z" fill="#FFB27D"/>
<path d="M92.4259 82.6927L91.7157 84.3362C91.7157 84.3362 88.7994 83.7888 88.3866 83.1912L88.3553 83.1266C88.0342 82.4529 88.7383 80.3992 89.8532 79.8029C89.97 79.7472 90.0854 79.7234 90.2009 79.7323C90.9892 79.8219 91.8169 81.3704 92.2025 82.1915C92.3438 82.4896 92.4259 82.6927 92.4259 82.6927Z" fill="#FFB27D"/>
<path d="M113.201 68.7305C113.201 68.7305 116.496 68.8785 118.862 70.3475C119.951 71.0239 124.136 74.9902 124.136 74.9902C124.136 74.9902 123.672 79.1343 118.688 80.2576C113.614 81.4013 112.799 72.9194 112.799 72.9194L113.201 68.7305Z" fill="#2A4E96"/>
<path d="M112.299 68.789C112.457 69.0212 112.462 69.3255 112.312 69.5639C111.87 70.2654 110.632 71.4784 107.405 71.257C106.3 71.1809 106.046 70.3449 106.746 69.4851C106.916 69.2759 106.858 68.0718 106.84 67.5889C106.776 66.4731 106.818 65.8456 106.818 65.8456L109.104 64.2801L111.273 62.7812C110.915 66.287 111.842 68.12 112.299 68.789Z" fill="#FFB27D"/>
<path d="M111.194 64.5395C111.194 64.5395 109.598 67.0401 106.84 67.5861C106.776 66.4703 106.818 65.8428 106.818 65.8428L109.104 64.2773L111.194 64.5395Z" fill="#ED985F"/>
<path d="M105.831 65.7048C105.831 65.7048 111.146 66.9402 111.869 63.6701C112.592 60.4 113.765 58.3571 110.403 57.4301C107.041 56.5031 106.103 57.608 105.592 58.641C105.081 59.6733 104.468 65.2987 105.831 65.7048Z" fill="#FFB27D"/>
<path d="M114.256 57.2834C114.308 57.2304 114.424 57.193 114.675 57.1957C114.675 57.1957 114.483 57.0572 114.216 57.0328C114.187 56.681 114.042 56.0527 113.453 55.8633C113.453 55.8633 113.763 56.0561 113.781 56.429C113.134 55.6704 111.681 55.0524 107.543 55.1047C102.088 55.1732 103.646 58.7673 104.321 59.2278C104.996 59.6889 106.839 58.6702 108.142 58.861C109.444 59.0519 109.568 60.9603 109.994 61.2489C110.421 61.5382 110.276 61.0676 110.896 60.8353C111.514 60.6037 111.505 61.6027 111.289 62.2391C111.073 62.8748 111.842 63.7835 111.842 63.7835C111.842 63.7835 111.842 63.7835 112.736 62.94C113.629 62.0965 114.668 58.3428 114.342 57.5061C114.314 57.4335 114.285 57.3587 114.256 57.2834Z" fill="#2C3A64"/>
<path d="M105.377 63.6376C105.377 63.6376 105.522 64.1225 106.06 64.185C106.598 64.2481 106.951 63.8637 106.951 63.8637C106.951 63.8637 106.068 63.4529 105.377 63.6376Z" fill="white"/>
<path d="M137.329 92.1177H136.891L136.895 92.083L137.027 90.9135C137.032 90.8762 137.063 90.8477 137.101 90.8477C137.106 90.8477 137.111 90.8477 137.115 90.8483C137.14 90.8511 137.162 90.8619 137.181 90.8782C137.202 90.8972 137.215 90.9237 137.218 90.9536L137.329 92.1177Z" fill="#A2C5F9"/>
<path d="M136.934 91.8553L136.918 91.856L137.027 90.9174C137.032 90.8801 137.063 90.8516 137.101 90.8516C137.106 90.8516 137.111 90.8516 137.116 90.8522C137.12 90.8556 137.124 90.8597 137.127 90.8631C137.146 90.8842 137.158 90.9113 137.158 90.9412L137.164 91.6163C137.166 91.7453 137.063 91.8519 136.934 91.8553Z" fill="#AFCDFB"/>
<path d="M137.609 97.3281H136.764V134.654H137.609V97.3281Z" fill="#A2C5F9"/>
<path d="M137.154 97.3281H136.764V134.654H137.154V97.3281Z" fill="#AFCDFB"/>
<path d="M138.531 128.695H135.84V138.571H138.531V128.695Z" fill="#A2C5F9"/>
<path d="M137.444 128.695H135.84V138.571H137.444V128.695Z" fill="#AFCDFB"/>
<path d="M138.658 92.683C138.658 93.1441 137.965 93.5177 137.111 93.5177C137.046 93.5177 136.982 93.5156 136.919 93.5109C136.156 93.4599 135.564 93.1082 135.564 92.6823C135.564 92.2565 136.156 91.9054 136.919 91.8544C136.982 91.8497 137.046 91.8477 137.111 91.8477C137.965 91.8483 138.658 92.2219 138.658 92.683Z" fill="#A2C5F9"/>
<path d="M137.855 92.6873C137.855 93.0588 137.468 93.3779 136.917 93.5158C136.154 93.4649 135.562 93.1131 135.562 92.6873C135.562 92.2614 136.154 91.9103 136.917 91.8594C137.469 91.9966 137.855 92.3158 137.855 92.6873Z" fill="#AFCDFB"/>
<path d="M138.529 98.0583H135.837L134.889 93.4883H139.333L138.529 98.0583Z" fill="#AFCDFB"/>
<path d="M139.573 93.1484H134.648V93.5872H139.573V93.1484Z" fill="#A2C5F9"/>
<path d="M137.744 93.1484H134.648V93.5872H137.744V93.1484Z" fill="#AFCDFB"/>
<path d="M136.281 128.693H138.002L137.75 127.93C137.728 127.862 137.664 127.816 137.593 127.816H136.787C136.7 127.816 136.621 127.869 136.587 127.95L136.281 128.693Z" fill="#A2C5F9"/>
<path d="M135.207 93.7109H139.003L138.262 97.8191H136.082L135.207 93.7109Z" fill="#C7DCF9"/>
<path d="M135.666 92.7341C135.666 92.7341 135.955 92.1025 136.526 92.1215C136.526 92.1215 136.163 92.4448 136.196 92.7341C136.23 93.0234 135.666 92.7341 135.666 92.7341Z" fill="#C7DCF9"/>
<path d="M139.258 93.1451H134.963L135.315 92.6445H138.924L139.258 93.1451Z" fill="#A2C5F9"/>
<path d="M138.2 93.1451H134.963L135.315 92.6445H137.866L138.2 93.1451Z" fill="#AFCDFB"/>
<path d="M135.459 93.8555H136.329L136.583 97.6913H136.329L135.459 93.8555Z" fill="#D2E4F9"/>
<path d="M50.8625 92.1177H50.4238L50.4279 92.083L50.5603 90.9135C50.5651 90.8762 50.5963 90.8477 50.6343 90.8477C50.6391 90.8477 50.6438 90.8477 50.6486 90.8483C50.673 90.8511 50.6954 90.8619 50.7138 90.8782C50.7348 90.8972 50.7484 90.9237 50.7511 90.9536L50.8625 92.1177Z" fill="#A2C5F9"/>
<path d="M50.4668 91.8553L50.4512 91.856L50.5605 90.9174C50.5652 90.8801 50.5965 90.8516 50.6345 90.8516C50.6393 90.8516 50.644 90.8516 50.6488 90.8522C50.6528 90.8556 50.6569 90.8597 50.6603 90.8631C50.6793 90.8842 50.6909 90.9113 50.6915 90.9412L50.6976 91.6163C50.699 91.7453 50.5965 91.8519 50.4668 91.8553Z" fill="#AFCDFB"/>
<path d="M51.1422 97.3281H50.2969V134.654H51.1422V97.3281Z" fill="#A2C5F9"/>
<path d="M50.6873 97.3281H50.2969V134.654H50.6873V97.3281Z" fill="#AFCDFB"/>
<path d="M52.0646 128.695H49.373V138.571H52.0646V128.695Z" fill="#A2C5F9"/>
<path d="M50.9775 128.695H49.373V138.571H50.9775V128.695Z" fill="#AFCDFB"/>
<path d="M52.1892 92.683C52.1892 93.1441 51.4966 93.5177 50.6425 93.5177C50.5773 93.5177 50.5134 93.5156 50.4503 93.5109C49.6871 93.4599 49.0957 93.1082 49.0957 92.6823C49.0957 92.2565 49.6864 91.9054 50.4503 91.8544C50.5134 91.8497 50.5773 91.8477 50.6425 91.8477C51.4966 91.8483 52.1892 92.2219 52.1892 92.683Z" fill="#A2C5F9"/>
<path d="M51.3887 92.6873C51.3887 93.0588 51.0016 93.3779 50.4503 93.5158C49.6871 93.4649 49.0957 93.1131 49.0957 92.6873C49.0957 92.2614 49.6864 91.9103 50.4503 91.8594C51.0023 91.9966 51.3887 92.3158 51.3887 92.6873Z" fill="#AFCDFB"/>
<path d="M52.0627 98.0583H49.3704L48.4219 93.4883H52.8659L52.0627 98.0583Z" fill="#AFCDFB"/>
<path d="M53.1044 93.1484H48.1797V93.5872H53.1044V93.1484Z" fill="#A2C5F9"/>
<path d="M51.2752 93.1484H48.1797V93.5872H51.2752V93.1484Z" fill="#AFCDFB"/>
<path d="M49.8125 128.693H51.5324L51.2805 127.93C51.2581 127.862 51.1949 127.816 51.1236 127.816H50.3177C50.2301 127.816 50.1513 127.869 50.118 127.95L49.8125 128.693Z" fill="#A2C5F9"/>
<path d="M48.7402 93.7109H52.5365L51.795 97.8191H49.6155L48.7402 93.7109Z" fill="#C7DCF9"/>
<path d="M49.1973 92.7341C49.1973 92.7341 49.4865 92.1025 50.0576 92.1215C50.0576 92.1215 49.6943 92.4448 49.7276 92.7341C49.7608 93.0234 49.1973 92.7341 49.1973 92.7341Z" fill="#C7DCF9"/>
<path d="M52.7907 93.1451H48.4961L48.8478 92.6445H52.4574L52.7907 93.1451Z" fill="#A2C5F9"/>
<path d="M51.7335 93.1451H48.4961L48.8478 92.6445H51.3995L51.7335 93.1451Z" fill="#AFCDFB"/>
<path d="M48.9883 93.8555H49.8588L50.112 97.6913H49.8588L48.9883 93.8555Z" fill="#D2E4F9"/>
<path d="M75.6802 80.7578C75.678 80.7593 75.6765 80.7608 75.6742 80.7623C75.6614 80.7646 75.6637 80.7631 75.6802 80.7578Z" fill="#FFB27D"/>
<path d="M75.7532 101.115C75.7532 101.115 75.7532 101.119 75.7532 101.128C75.7532 101.134 75.7532 101.143 75.7525 101.152C75.7247 102.245 75.6466 103.386 75.5345 104.54C75.3729 106.202 75.1407 107.886 74.8841 109.476V109.48C74.8392 109.755 74.7938 110.029 74.7476 110.299C74.7109 110.522 74.6729 110.742 74.6342 110.958C74.5466 111.453 74.4583 111.934 74.3701 112.397C74.2981 112.777 74.2254 113.146 74.1548 113.499C73.6992 115.77 73.2939 117.45 73.1689 117.951C73.1696 117.953 73.1696 117.953 73.1689 117.954C73.1445 118.053 73.2647 118.376 73.304 118.469C74.5609 121.358 74.2702 122.52 74.0177 125.338C73.5091 131.005 72.1925 136.1 72.1925 136.1L69.9654 138.193C69.9654 138.193 70.6702 134.292 69.8004 127.294C69.5288 125.108 69.1031 122.619 68.454 119.853C67.7315 116.774 65.9865 108.763 65.7712 102.869C65.7488 102.258 65.9328 96.1087 67.1197 93.6162C67.428 92.9697 69.8445 94.5012 69.8445 94.5012L72.329 94.5202L74.8053 94.5392C74.825 94.5772 74.8447 94.616 74.8637 94.6553C75.2853 95.524 75.5386 96.6731 75.6649 97.9974C75.7559 98.9571 75.7797 100.01 75.7532 101.115Z" fill="#2A4E96"/>
<path d="M75.7544 101.115C75.7544 101.115 75.7544 101.118 75.7544 101.127C75.7544 101.133 75.7544 101.142 75.7537 101.151C75.7259 102.244 75.6478 103.386 75.5357 104.54C75.3741 106.202 75.1419 107.886 74.8853 109.476V109.479C74.8404 109.755 74.795 110.029 74.7488 110.298C74.7121 110.521 74.6741 110.742 74.6354 110.958C74.5478 111.453 74.4595 111.933 74.3713 112.397C74.2993 112.776 74.2266 113.145 74.156 113.498C74.156 113.498 67.3851 97.4962 67.3145 97.285L72.3302 94.5195L74.8065 94.5385C74.8262 94.5766 74.8459 94.6153 74.8649 94.6547C75.2865 95.5233 75.5398 96.6724 75.6661 97.9968C75.7571 98.9564 75.7809 100.01 75.7544 101.115Z" fill="#233862"/>
<path d="M69.7212 138.75C69.7212 138.75 69.7239 138.746 69.73 138.741C69.7742 138.696 69.9969 138.5 70.4763 138.566C70.792 138.61 71.0195 138.7 71.3277 138.751L72.2484 138.756C73.0408 138.662 72.998 138.441 72.998 138.441C72.998 138.441 72.9227 138.25 72.833 137.981C72.6857 137.537 72.5017 136.881 72.5621 136.529C72.6056 136.279 72.554 136.076 72.482 135.928C72.3924 135.74 72.2722 135.639 72.2722 135.639C72.2722 135.639 71.621 136.406 71.2442 136.084C70.515 135.46 70.3466 135.407 70.3106 135.406L70.3018 135.408C70.3018 135.408 68.683 136.418 68.2593 136.795C67.5063 137.468 66.6881 137.57 66.2733 137.688C66.1049 137.735 65.9684 137.857 65.9053 138.02C65.8116 138.259 65.7145 138.583 65.8122 138.725L69.7212 138.75Z" fill="#F99746"/>
<path d="M68.0663 76.332C68.0663 76.332 66.5141 86.1932 64.0127 89.9673C62.7545 91.8648 54.0742 84.5212 54.0742 84.5212L55.0737 83.9256C55.0737 83.9256 61.8711 87.2547 62.0938 86.8703C62.3166 86.486 63.0702 78.5868 64.433 77.4784C65.7951 76.3701 68.0663 76.332 68.0663 76.332Z" fill="#FFB27D"/>
<path d="M68.7233 71.76C68.7233 71.76 66.761 71.6446 65.879 68.5021C65.1966 66.0715 66.5634 63.0785 70.0684 63.3447C70.0684 63.3447 72.3865 63.1179 73.185 65.0208C73.5374 65.8616 74.1112 66.1937 73.0961 69.2906L72.8482 70.3304L68.7233 71.76Z" fill="#233862"/>
<path d="M72.6703 68.8711C72.6703 68.8711 73.8613 70.2661 75.2145 70.0019C76.5684 69.7384 79.2504 68.8623 80.2893 70.0983C81.3282 71.3344 79.8751 74.1481 80.9011 75.2014C81.9264 76.2541 81.1021 79.4814 76.415 78.409C71.7278 77.3367 71.8928 72.1507 71.9784 71.4403C72.0646 70.7299 72.6703 68.8711 72.6703 68.8711Z" fill="#233862"/>
<path d="M94.8565 121.723L94.646 123.138C94.646 123.138 89.0212 121.392 82.718 119.72C80.7299 119.192 78.6753 118.672 76.7076 118.217C74.6923 117.75 68.709 92.0158 68.709 92.0158C68.709 92.0158 77.5536 91.1295 79.8432 95.4767C83.4249 102.275 79.4127 113.7 82.2163 114.121C82.8674 114.22 83.5586 114.415 84.2689 114.685C89.1183 116.521 94.8565 121.723 94.8565 121.723Z" fill="#2A4E96"/>
<path d="M66.0199 76.2879C66.0199 76.2879 68.7331 74.9833 71.3656 74.7877C73.9981 74.5921 77.1187 74.9065 77.8045 75.6033C78.159 75.9639 79.3146 78.7967 78.8223 81.0501C78.2656 83.5969 78.0673 84.8377 78.0232 86.4425C77.9376 89.5985 78.8841 91.2828 80.1484 94.8361C80.9788 97.1682 72.4092 102.046 66.176 97.4032C66.3743 94.8184 67.3038 88.6008 66.6269 87.4517C64.6687 84.128 64.7372 77.2027 66.0199 76.2879Z" fill="#F99746"/>
<path d="M77.834 75.6211C77.834 75.6211 84.3599 83.0903 85.0735 85.2527C85.7871 87.4151 75.8602 91.7162 75.8602 91.7162L75.4453 90.1521C75.4453 90.1521 81.1496 85.5645 80.9798 85.1543C80.8094 84.7441 76.5976 80.9626 76.5426 79.2063C76.4869 77.4507 77.834 75.6211 77.834 75.6211Z" fill="#FFB27D"/>
<path d="M69.8358 77.4226C67.2393 77.5041 68.2327 76.2233 68.5654 75.7669C68.6109 75.7044 68.6462 75.6358 68.6706 75.5625C68.8519 75.0124 68.8356 73.9169 68.784 73.1739C68.7283 72.3766 68.6231 71.5426 68.5871 71.2635C68.5871 71.2628 68.5871 71.2628 68.5871 71.2628C68.5783 71.2003 68.5735 71.1657 68.5735 71.1657L71.8239 70.293L72.4031 71.328L72.5239 71.5453C72.5395 71.802 72.6475 72.5396 72.8335 73.2602C72.9917 73.8707 73.207 74.4677 73.4711 74.7475C73.6531 74.9397 73.7855 77.2977 69.8358 77.4226Z" fill="#FFB27D"/>
<path d="M72.8305 73.259C70.3393 73.1972 68.6275 71.3119 68.5827 71.2623C68.582 71.2616 68.582 71.2616 68.582 71.2616H68.5827C69.6114 70.9438 71.1133 71.0742 72.3993 71.3268L72.5202 71.5442C72.5365 71.8016 72.6438 72.5391 72.8305 73.259Z" fill="#ED975D"/>
<path d="M72.6952 72.4569C72.6952 72.4569 68.3374 72.8196 68.1534 70.1016C67.9693 67.3837 67.2829 65.6002 70.0573 65.2539C72.8316 64.9075 73.4434 65.9079 73.7252 66.8003C74.0077 67.692 73.8243 72.2925 72.6952 72.4569Z" fill="#FFB27D"/>
<path d="M72.0406 65.0553C72.0406 65.0553 71.0588 68.324 69.2567 68.9176C67.4547 69.5111 66.627 69.0731 66.627 69.0731C66.627 69.0731 67.9585 67.8622 68.1207 65.8926C68.1207 65.892 71.0384 63.5971 72.0406 65.0553Z" fill="#233862"/>
<path d="M71.7598 65.3346C71.7598 65.3346 72.6995 65.9872 72.963 66.665C73.2264 67.3428 73.4192 68.7609 73.8314 68.6848C73.8314 68.6848 74.5871 66.4572 73.4939 65.2986C72.3349 64.07 71.7598 65.3346 71.7598 65.3346Z" fill="#233862"/>
<path d="M71.5273 71.0686C71.5273 71.0686 71.7059 71.4319 71.9782 71.4394C72.2505 71.4476 72.9492 71.3932 73.0008 71.3307C73.0524 71.2683 73.1936 70.8907 73.1936 70.8907C73.1936 70.8907 72.0481 70.8445 71.5273 71.0686Z" fill="white"/>
<path d="M77.3348 75.3164C77.3348 75.3164 79.4804 76.0662 81.2152 79.1176C81.2152 79.1176 80.9029 81.1503 78.2249 82.5724C75.5463 83.9939 75.8057 78.2734 75.8057 78.2734L77.3348 75.3164Z" fill="#F99746"/>
<path d="M66.4036 76.1133C66.4036 76.1133 64.3164 76.9778 63.9694 77.8424C63.4385 79.164 62.8301 81.3481 62.8301 81.3481C62.8301 81.3481 63.6802 83.3876 66.5591 83.9017C69.2575 84.3839 66.4036 76.1133 66.4036 76.1133Z" fill="#F99746"/>
<path d="M75.9015 89.9688L76.8806 90.8788C76.8806 90.8788 75.767 92.796 75.2435 92.9373L75.1899 92.9427C74.6358 93.0011 73.3654 91.9919 73.2242 91.0581C73.214 90.9623 73.2262 90.8747 73.2615 90.7953C73.5216 90.2621 74.8178 90.0665 75.492 89.9993C75.7378 89.9762 75.9015 89.9688 75.9015 89.9688Z" fill="#FFB27D"/>
<path d="M55.6491 84.2027L55.2946 85.2716C55.2946 85.2716 54.1668 85.1569 53.4967 84.9198C53.24 84.8288 52.8713 84.5721 52.8285 84.3032C52.7342 83.7103 52.8163 82.5836 53.3629 82.1618C53.4417 82.1061 53.5245 82.0749 53.6107 82.0667C54.2021 82.0355 55.6491 84.2027 55.6491 84.2027Z" fill="#FFB27D"/>
<path d="M96.7185 122.775C96.7185 122.775 96.7151 122.773 96.7083 122.768C96.6587 122.729 96.4387 122.531 96.4489 122.047C96.4557 121.727 96.5195 121.492 96.5338 121.18L96.4333 120.265C96.2486 119.488 96.0334 119.556 96.0334 119.556C96.0334 119.556 95.8528 119.653 95.5961 119.774C95.1724 119.971 94.5423 120.23 94.1851 120.21C93.9319 120.196 93.7363 120.271 93.5978 120.359C93.4219 120.47 93.335 120.601 93.335 120.601C93.335 120.601 94.1716 121.159 93.8959 121.571C93.3602 122.368 93.3269 122.542 93.3303 122.577L93.333 122.585C93.333 122.585 94.5219 124.077 94.9463 124.454C95.702 125.125 95.8976 125.926 96.0619 126.325C96.1284 126.486 96.2656 126.608 96.4347 126.652C96.6825 126.718 97.0166 126.776 97.1456 126.663L96.7185 122.775Z" fill="#F99746"/>
<path d="M40.1802 138.995L11.9503 138.987C11.9503 138.987 11.0499 136.796 9.86914 133.176C11.1857 132.861 14.8217 132.176 17.3551 133.468C20.4988 135.071 20.0874 137.203 23.9814 136.421C27.8748 135.64 31.0864 135.312 32.8301 136.421C34.5738 137.53 35.8537 137.09 38.0224 137.083C39.821 137.077 40.1279 138.507 40.1802 138.995Z" fill="#A8D29F"/>
<path d="M42.0171 130.993H16.2586L15.0684 124.938H40.7799L42.0171 130.993Z" fill="#D36D1A"/>
<path d="M42.4565 130.993H16.6981L15.5078 124.938H41.2194L42.4565 130.993Z" fill="#F49540"/>
<path d="M23.8618 131.733H16.8233C16.5117 131.733 16.2598 131.48 16.2598 131.169V130.992H23.8625V131.733H23.8618Z" fill="#D36D1A"/>
<path d="M47.1988 130.992H23.8047V131.733H47.1988V130.992Z" fill="#FFA255"/>
<path d="M17.7956 131.73L17.3543 133.465C17.3543 133.466 17.3543 133.466 17.3543 133.467L16.0485 138.605C16.0309 138.673 15.9711 138.72 15.9026 138.72C15.7702 138.72 15.6697 138.599 15.6955 138.469L16.8599 132.475L17.0046 131.731H17.7956V131.73Z" fill="#FFA255"/>
<path d="M17.355 133.465C17.3977 132.577 16.8613 132.475 16.8613 132.475L17.006 131.73H17.7956L17.355 133.465Z" fill="#D36D1A"/>
<path d="M23.3835 131.73L22.9421 133.465C22.9421 133.466 22.9421 133.466 22.9421 133.467L21.6364 138.605C21.6188 138.673 21.559 138.72 21.4905 138.72C21.358 138.72 21.2576 138.599 21.2834 138.469L22.4478 132.475L22.5925 131.731H23.3835V131.73Z" fill="#FFA255"/>
<path d="M22.9429 133.465C22.9856 132.577 22.4492 132.475 22.4492 132.475L22.5938 131.73H23.3835L22.9429 133.465Z" fill="#D36D1A"/>
<path d="M45.0645 131.73L45.5058 133.465C45.5058 133.466 45.5058 133.466 45.5058 133.467L46.8115 138.605C46.8292 138.673 46.8889 138.72 46.9575 138.72C47.0899 138.72 47.1904 138.599 47.1646 138.469L46.0001 132.475L45.8555 131.731H45.0645V131.73Z" fill="#FFA255"/>
<path d="M45.5051 133.465C45.4623 132.577 45.9988 132.475 45.9988 132.475L45.8541 131.73H45.0645L45.5051 133.465Z" fill="#D36D1A"/>
<path d="M39.4766 131.73L39.9179 133.465C39.9179 133.466 39.9179 133.466 39.9179 133.467L41.2236 138.605C41.2413 138.673 41.301 138.72 41.3696 138.72C41.502 138.72 41.6025 138.599 41.5767 138.469L40.4122 132.475L40.2676 131.731H39.4766V131.73Z" fill="#FFA255"/>
<path d="M39.9172 133.465C39.8745 132.577 40.4109 132.475 40.4109 132.475L40.2662 131.73H39.4766L39.9172 133.465Z" fill="#D36D1A"/>
<path d="M19.9437 92.0941C19.4609 96.4115 15.9077 95.3357 12.3083 97.5334C12.1366 97.6421 11.9498 97.767 11.7631 97.892C10.2829 98.9515 8.44417 99.4819 6.79217 99.7311C5.93527 99.8561 5.12455 99.9186 4.42383 99.9342C4.45506 99.2014 4.50191 98.4693 4.54876 97.7365C4.67302 96.1778 4.86042 94.6192 5.12523 93.1074C5.29702 92.0792 5.51497 91.0503 5.76417 90.0526C6.37187 87.6056 7.19753 85.2673 8.28868 83.0547C11.3272 83.2883 14.693 84.9719 17.0301 87.0134C18.9 88.6658 20.1154 90.5362 19.9437 92.0941Z" fill="#82B378"/>
<path d="M31.6163 113.055C30.7282 113.57 29.6839 113.897 28.5466 113.975C23.56 114.287 21.8306 116.141 17.7947 120.069C14.5531 123.217 9.47356 122.671 6.94906 122.687C6.74671 121.814 6.54369 120.895 6.35697 119.975C5.0791 113.819 4.15974 106.805 4.42455 99.9322C4.45578 99.1994 4.50263 98.4673 4.54948 97.7345C4.67374 96.1759 4.86114 94.6172 5.12595 93.1055C7.37003 93.807 9.73837 95.8173 12.3097 97.5321C15.0522 99.3713 18.0282 100.867 21.2854 100.072C24.5575 99.2776 27.082 99.3237 29.0613 99.9635C31.5851 100.758 33.2371 102.488 34.4213 104.608C36.0576 107.522 34.6392 111.326 31.6163 113.055Z" fill="#A8D29F"/>
</svg>
