<svg width="17" height="16" viewBox="0 0 17 16" fill="none" xmlns="http://www.w3.org/2000/svg">
<path d="M8.4987 15.1667C4.54536 15.1667 1.33203 11.9534 1.33203 8.00004C1.33203 4.04671 4.54536 0.833374 8.4987 0.833374C12.452 0.833374 15.6654 4.04671 15.6654 8.00004C15.6654 11.9534 12.452 15.1667 8.4987 15.1667ZM8.4987 1.83337C5.0987 1.83337 2.33203 4.60004 2.33203 8.00004C2.33203 11.4 5.0987 14.1667 8.4987 14.1667C11.8987 14.1667 14.6654 11.4 14.6654 8.00004C14.6654 4.60004 11.8987 1.83337 8.4987 1.83337Z" fill="#005F73"/>
<path d="M8.5 9.16671C8.22667 9.16671 8 8.94004 8 8.66671V5.33337C8 5.06004 8.22667 4.83337 8.5 4.83337C8.77333 4.83337 9 5.06004 9 5.33337V8.66671C9 8.94004 8.77333 9.16671 8.5 9.16671Z" fill="#005F73"/>
<path d="M8.4987 11.3333C8.41203 11.3333 8.32536 11.3133 8.24536 11.28C8.16536 11.2466 8.09203 11.2 8.02536 11.14C7.96536 11.0733 7.9187 11.0066 7.88536 10.92C7.85203 10.84 7.83203 10.7533 7.83203 10.6666C7.83203 10.58 7.85203 10.4933 7.88536 10.4133C7.9187 10.3333 7.96536 10.26 8.02536 10.1933C8.09203 10.1333 8.16536 10.0866 8.24536 10.0533C8.40536 9.98663 8.59203 9.98663 8.75203 10.0533C8.83203 10.0866 8.90536 10.1333 8.97203 10.1933C9.03203 10.26 9.0787 10.3333 9.11203 10.4133C9.14536 10.4933 9.16536 10.58 9.16536 10.6666C9.16536 10.7533 9.14536 10.84 9.11203 10.92C9.0787 11.0066 9.03203 11.0733 8.97203 11.14C8.90536 11.2 8.83203 11.2466 8.75203 11.28C8.67203 11.3133 8.58536 11.3333 8.4987 11.3333Z" fill="#005F73"/>
</svg>
